ply
format ascii 1.0
element vertex 66
property float x
property float y
property float z
property float u
property float v
element face 91
property list uchar int vertex_indices
end_header
-19.6701 -5.60059 21.2779 120.51 230.793
-19.0173 -0.576766 20.841 122.12 254.643
-18.0556 4.41475 20.5645 125.213 278.401
-16.8576 9.18682 18.4263 129.204 301.518
-15.0916 13.5745 13.6448 135.581 323.449
-12.2142 17.3842 8.06935 147.222 343.118
-8.32891 20.3915 3.36044 163.946 359.154
-3.73878 22.4296 -0.815575 184.328 370.745
1.40036 22.6797 -4.55314 207.848 374.02
6.49088 22.0191 -0.93704 232.471 371.728
10.9018 19.6883 3.31775 254.458 361.291
14.5229 16.4143 8.07295 273.071 346.115
16.9589 12.3365 13.7434 286.474 326.672
17.998 7.58895 18.7219 293.401 303.809
18.4275 2.37806 20.9424 297.188 279.077
18.6657 -3.0423 21.3965 299.875 253.613
18.6242 -8.46283 21.8362 301.247 228.073
-17.4581 -14.4582 0.340466 130.282 193.459
-15.3311 -16.6453 -1.45537 140.615 184.102
-12.4601 -17.5906 -2.92999 154.145 180.73
-9.46257 -17.6091 -4.32017 168.025 181.731
-6.57092 -17.0075 -5.58006 181.255 185.591
3.66036 -17.9288 -5.39761 229.592 184.123
6.53378 -19.1094 -4.11244 243.604 179.168
9.61423 -19.6416 -2.70438 258.426 177.295
12.7309 -19.1846 -1.20994 273.157 180.062
15.3113 -17.345 0.587895 285.031 189.117
-0.941586 -11.3452 -5.03644 206.206 213.675
-0.621837 -8.37162 -7.84714 206.471 228.215
-0.297833 -5.42412 -10.7277 206.754 242.647
0.0234214 -2.47634 -13.4313 207.049 257.048
-2.9377 1.05283 -6.31083 193.208 271.548
-1.40333 1.24877 -7.30762 200.214 273.074
0.170113 1.20666 -8.21951 207.482 273.479
1.75401 0.979662 -7.33272 215.114 272.707
3.26735 0.517179 -6.3965 222.488 270.8
-12.9371 -9.49733 -0.834105 149.97 218.234
-11.1268 -11.0321 -1.05721 158.865 211.577
-8.73659 -11.2154 -1.2506 170.114 211.425
-6.75458 -10.0166 -1.16012 179.104 217.599
-8.7204 -9.11761 -1.24194 169.61 221.279
-10.9065 -8.86295 -1.10063 159.292 221.833
5.04499 -11.0219 -0.870135 234.846 216.161
6.83563 -12.6317 -1.12173 243.665 209.151
9.26692 -12.8493 -0.923361 255.174 208.782
11.3726 -11.6882 -0.662193 264.78 214.783
9.45359 -10.6724 -0.894961 255.451 219.051
7.20873 -10.5168 -0.989408 244.851 219.164
-6.19072 9.31737 -2.83853 176.148 308.834
-4.18463 7.50914 -4.99442 185.755 301.284
-1.92808 6.12486 -6.65278 196.494 295.709
0.594497 6.08995 -8.38457 208.098 296.558
3.07283 5.73156 -6.73133 220.08 295.288
5.5087 6.76 -5.03702 231.484 300.511
7.78185 8.18932 -2.77144 242.097 307.472
5.96203 10.0454 -4.10989 232.839 315.906
3.57069 11.195 -5.3951 221.1 320.851
0.891658 11.5942 -6.66505 208.221 322.189
-1.75879 11.5991 -5.31264 195.969 321.229
-4.21921 10.8469 -4.00822 184.813 316.776
-2.01183 8.35672 -5.21919 195.693 305.916
0.696096 8.02171 -7.44535 208.178 305.494
3.36979 7.92574 -5.35108 221.069 305.436
3.40498 8.49218 -4.69057 221.175 307.991
0.690592 8.72987 -6.28162 208.126 308.616
-2.04253 8.92176 -4.52292 195.494 308.44
3 20 21 23
3 21 22 23
3 0 1 36
3 15 16 45
3 0 17 36
3 16 26 45
3 17 18 37
3 25 26 44
3 17 36 37
3 26 44 45
3 18 19 38
3 24 25 43
3 18 37 38
3 25 43 44
3 19 20 38
3 23 24 43
3 20 21 39
3 22 23 42
3 20 38 39
3 23 42 43
3 21 22 27
3 21 27 39
3 22 27 42
3 27 28 42
3 27 28 39
3 28 42 47
3 28 39 40
3 1 36 41
3 15 45 46
3 1 2 41
3 14 15 46
3 28 29 40
3 28 29 47
3 2 40 41
3 14 46 47
3 2 29 40
3 14 29 47
3 2 3 29
3 13 14 29
3 29 30 31
3 29 30 35
3 3 29 31
3 13 29 35
3 30 32 33
3 30 33 34
3 30 31 32
3 30 34 35
3 3 4 31
3 12 13 35
3 4 5 48
3 11 12 54
3 5 6 48
3 10 11 54
3 6 48 59
3 10 54 55
3 6 7 59
3 9 10 55
3 7 58 59
3 9 55 56
3 8 57 58
3 8 56 57
3 7 8 58
3 8 9 56
3 4 31 48
3 12 35 54
3 31 48 49
3 35 53 54
3 31 49 50
3 35 52 53
3 31 32 50
3 34 35 52
3 32 33 50
3 33 34 52
3 33 50 51
3 33 51 52
3 48 49 60
3 49 60 50
3 50 60 61
3 50 51 61
3 51 52 61
3 61 62 52
3 52 53 62
3 53 54 62
3 54 55 63
3 55 56 63
3 56 63 64
3 56 57 64
3 64 65 57
3 57 58 65
3 58 59 65
3 48 59 65
