ply
format ascii 1.0
element vertex 66
property float x
property float y
property float z
property float u
property float v
element face 91
property list uchar int vertex_indices
end_header
-20.6547 -5.64822 21.3079 107.429 234.612
-20.0519 -0.423649 20.8425 110.354 263.888
-19.1146 4.7667 20.4846 115.027 292.926
-17.7568 9.73356 18.3869 121.334 323.499
-15.6469 14.1974 13.4633 131.997 355.221
-12.4006 17.9009 7.99404 150.342 383.067
-8.27017 20.7526 3.29433 174.274 404.587
-3.55056 22.6779 -0.880153 201.428 420.653
1.65875 22.9008 -4.53572 231.013 427.048
6.75338 21.9412 -0.807894 260.666 418.515
11.0958 19.3665 3.41769 287.243 400.657
14.7165 15.9593 8.15704 310.028 377.38
17.3322 11.8354 13.6544 326.644 348.087
18.7221 7.12069 18.5937 335.082 315.439
19.3316 2.01325 20.7063 338.972 284.339
19.5157 -3.2566 21.0748 341.22 254.893
19.3623 -8.51341 21.5385 341.793 225.342
-16.9434 -14.0024 0.166523 126.157 223.783
-14.6923 -16.1532 -1.56921 141.631 215.738
-11.7473 -17.1684 -2.95979 160.374 214.734
-8.64008 -17.2567 -4.29633 179.168 218.4
-5.61118 -16.6863 -5.52226 197.09 225.152
3.24342 -17.3161 -5.43542 246.888 223.478
6.14406 -18.3113 -4.17859 264.83 215.612
9.21432 -18.6656 -2.80935 283.836 210.828
12.2557 -18.0793 -1.38764 303.043 211.011
14.7675 -16.2699 0.371491 319.287 218.483
-0.800008 -11.6067 -4.9545 222.992 249.998
-0.571382 -8.59445 -7.76035 223.682 271.676
-0.341526 -5.60559 -10.6633 224.361 293.475
-0.111056 -2.62069 -13.4075 225.061 315.031
-3.34691 0.90089 -6.47077 205.782 321.98
-1.6415 1.2941 -7.26957 215.667 325.975
0.142254 1.35258 -8.01839 226.084 327.769
1.89493 1.04463 -7.21848 236.492 325.172
3.5165 0.412997 -6.40175 246.181 320.429
-12.5316 -9.74495 -0.905324 150.466 249.147
-10.6698 -11.0691 -1.10649 162.984 241.351
-8.3451 -11.2534 -1.2279 178.348 241.775
-6.35058 -10.2247 -0.977391 190.729 250.204
-8.3556 -9.50683 -1.10156 177.33 253.451
-10.5048 -9.27615 -1.09011 163.313 253.904
4.83678 -11.0227 -0.887733 255.828 248.07
6.66716 -12.3254 -1.11779 267.493 238.837
8.99246 -12.4738 -0.968074 282.817 237.399
11.0209 -11.4279 -0.742362 295.967 244.264
9.08377 -10.6753 -0.948989 283.439 249.823
6.92444 -10.5977 -0.987214 269.425 250.346
-6.63855 8.84013 -2.74685 180.837 351.927
-4.73902 6.8457 -4.89305 195.347 346.949
-2.32888 5.4219 -6.54708 211.031 344.571
0.427259 5.35547 -8.22771 226.984 347.809
3.15408 5.03248 -6.48681 243.004 343.388
5.72158 6.09946 -4.80547 259.231 344.586
7.86034 7.80446 -2.63884 274.624 348.409
6.14905 9.90529 -3.93286 261.752 360.24
3.75933 11.3254 -5.28293 245.456 367.662
0.883179 11.8243 -6.67982 228.207 370.807
-2.0422 11.738 -5.34336 210.972 368.997
-4.62825 10.6744 -4.02161 194.386 362.805
-2.38864 7.57584 -5.20395 208.103 353.38
0.55887 7.21472 -7.41824 227.417 356.271
3.50364 7.15671 -5.14457 246.896 351.935
3.65722 8.62822 -4.49552 247.452 352.979
0.689237 9.10764 -6.42523 227.546 356.261
-2.33557 9.05505 -4.5521 207.819 354.436
3 20 21 23
3 21 22 23
3 0 1 36
3 15 16 45
3 0 17 36
3 16 26 45
3 17 18 37
3 25 26 44
3 17 36 37
3 26 44 45
3 18 19 38
3 24 25 43
3 18 37 38
3 25 43 44
3 19 20 38
3 23 24 43
3 20 21 39
3 22 23 42
3 20 38 39
3 23 42 43
3 21 22 27
3 21 27 39
3 22 27 42
3 27 28 42
3 27 28 39
3 28 42 47
3 28 39 40
3 1 36 41
3 15 45 46
3 1 2 41
3 14 15 46
3 28 29 40
3 28 29 47
3 2 40 41
3 14 46 47
3 2 29 40
3 14 29 47
3 2 3 29
3 13 14 29
3 29 30 31
3 29 30 35
3 3 29 31
3 13 29 35
3 30 32 33
3 30 33 34
3 30 31 32
3 30 34 35
3 3 4 31
3 12 13 35
3 4 5 48
3 11 12 54
3 5 6 48
3 10 11 54
3 6 48 59
3 10 54 55
3 6 7 59
3 9 10 55
3 7 58 59
3 9 55 56
3 8 57 58
3 8 56 57
3 7 8 58
3 8 9 56
3 4 31 48
3 12 35 54
3 31 48 49
3 35 53 54
3 31 49 50
3 35 52 53
3 31 32 50
3 34 35 52
3 32 33 50
3 33 34 52
3 33 50 51
3 33 51 52
3 48 49 60
3 49 60 50
3 50 60 61
3 50 51 61
3 51 52 61
3 61 62 52
3 52 53 62
3 53 54 62
3 54 55 63
3 55 56 63
3 56 63 64
3 56 57 64
3 64 65 57
3 57 58 65
3 58 59 65
3 48 59 65
