ply
format ascii 1.0
element vertex 66
property float x
property float y
property float z
property float u
property float v
element face 91
property list uchar int vertex_indices
end_header
-21.4133 -6.09858 21.4005 96.9059 276.799
-20.6577 -0.91948 21.2223 100.175 313.794
-19.6151 4.1824 20.7341 105.496 350.189
-18.067 9.32858 18.4697 114.268 386.145
-15.7722 14.4499 13.1172 128.141 420.563
-12.4128 18.9827 7.73659 149.835 451.211
-8.24341 22.5919 3.40608 177.75 476.185
-3.41523 25.0156 -0.936022 210.837 492.995
1.84309 25.7975 -5.03089 247.672 498.447
6.96438 24.389 -0.888962 285.028 492.71
11.4622 21.4291 3.51506 318.592 475.846
15.1036 17.2956 7.92763 346.531 450.307
17.6875 12.266 13.4007 367.38 418.551
19.0095 6.71257 18.8672 379.453 382.567
19.6805 1.17946 21.0907 386.64 344.726
19.9351 -4.23859 21.6241 390.691 306.627
19.9122 -9.68446 21.8563 392.754 268.058
-18.5478 -12.6226 0.318201 118.408 220.272
-16.2913 -15.0507 -1.70325 135.316 202.838
-12.9884 -15.8737 -3.12 159.072 197.549
-9.52123 -15.4518 -4.53328 183.493 201.169
-6.19263 -14.2984 -5.64404 206.653 210.093
4.05763 -15.1211 -5.65025 279.998 208.336
7.26652 -16.7722 -4.50039 303.61 198.505
10.7046 -17.6886 -3.03856 328.579 194.152
14.1461 -17.2788 -1.57226 353.034 199.224
16.7375 -15.1062 0.507944 370.765 216.808
-0.730441 -9.81164 -5.07422 243.782 244.45
-0.456089 -6.9558 -8.07484 244.356 263.234
-0.181946 -4.07316 -10.8108 244.938 282.35
0.0859034 -1.20167 -13.1538 245.508 301.595
-2.95116 -0.698469 -5.96387 224.202 307.821
-1.47061 -0.31288 -7.09059 234.508 310.545
0.0653037 -0.156733 -8.2406 245.3 311.649
1.56124 -0.549755 -7.14911 256.196 310.041
2.96494 -1.15194 -5.97877 266.525 306.952
-13.3744 -8.57329 -1.43999 153.486 250.155
-11.4429 -9.68074 -1.41878 167.694 243.07
-9.14397 -10.1392 -1.17018 184.274 240.864
-6.92704 -9.82617 -0.798924 199.965 244.172
-8.96539 -9.01743 -0.953785 185.107 249.02
-11.1632 -8.64895 -1.06654 169.294 250.7
5.37355 -10.7436 -0.705417 287.961 242.613
7.54051 -11.4119 -1.10556 303.637 238.515
9.90132 -11.2847 -1.36139 320.383 240.222
11.9928 -10.4881 -1.39546 334.955 246.698
9.77855 -10.2395 -1.00266 319.111 247.791
7.53586 -10.2653 -0.883567 303.156 246.777
-5.32231 7.64819 -2.76575 204.163 367.883
-4.41344 5.02787 -4.91724 211.54 348.476
-2.3815 3.36106 -6.40638 226.58 336.647
0.286031 3.44942 -7.92588 245.433 337.522
2.90276 2.98148 -6.49951 264.367 336.009
5.13996 4.36058 -4.95448 279.857 347.528
6.4032 6.80792 -2.72497 288.027 366.614
4.89349 8.41237 -3.76366 276.546 376.851
2.98074 9.45302 -5.34625 262.382 382.63
0.691726 10.0249 -7.07141 245.718 384.852
-1.64713 9.78165 -5.28278 229.29 383.152
-3.6605 9.01586 -3.7533 215.372 377.731
-1.97665 5.318 -5.1597 228.762 351.379
0.369344 5.12178 -7.0292 245.414 349.917
2.6931 4.98476 -5.2367 262.154 350.834
2.75401 6.99346 -4.42959 261.833 365.56
0.530819 7.76112 -6.10683 245.562 369.225
-1.80409 7.31274 -4.3639 229.241 366.045
3 20 21 23
3 21 22 23
3 0 1 36
3 15 16 45
3 0 17 36
3 16 26 45
3 17 18 37
3 25 26 44
3 17 36 37
3 26 44 45
3 18 19 38
3 24 25 43
3 18 37 38
3 25 43 44
3 19 20 38
3 23 24 43
3 20 21 39
3 22 23 42
3 20 38 39
3 23 42 43
3 21 22 27
3 21 27 39
3 22 27 42
3 27 28 42
3 27 28 39
3 28 42 47
3 28 39 40
3 1 36 41
3 15 45 46
3 1 2 41
3 14 15 46
3 28 29 40
3 28 29 47
3 2 40 41
3 14 46 47
3 2 29 40
3 14 29 47
3 2 3 29
3 13 14 29
3 29 30 31
3 29 30 35
3 3 29 31
3 13 29 35
3 30 32 33
3 30 33 34
3 30 31 32
3 30 34 35
3 3 4 31
3 12 13 35
3 4 5 48
3 11 12 54
3 5 6 48
3 10 11 54
3 6 48 59
3 10 54 55
3 6 7 59
3 9 10 55
3 7 58 59
3 9 55 56
3 8 57 58
3 8 56 57
3 7 8 58
3 8 9 56
3 4 31 48
3 12 35 54
3 31 48 49
3 35 53 54
3 31 49 50
3 35 52 53
3 31 32 50
3 34 35 52
3 32 33 50
3 33 34 52
3 33 50 51
3 33 51 52
3 48 49 60
3 49 60 50
3 50 60 61
3 50 51 61
3 51 52 61
3 61 62 52
3 52 53 62
3 53 54 62
3 54 55 63
3 55 56 63
3 56 63 64
3 56 57 64
3 64 65 57
3 57 58 65
3 58 59 65
3 48 59 65
