ply
format ascii 1.0
element vertex 66
property float x
property float y
property float z
property float u
property float v
element face 91
property list uchar int vertex_indices
end_header
59.2181 177.391 0 59.2181 177.391
61.6487 201.847 0 61.6487 201.847
65.937 226.026 0 65.937 226.026
71.8995 251.593 0 71.8995 251.593
81.2653 279.009 0 81.2653 279.009
95.7194 304.354 0 95.7194 304.354
114.303 325.432 0 114.303 325.432
136.276 341.605 0 136.276 341.605
161.25 348.824 0 161.25 348.824
185.446 340.952 0 185.446 340.952
206.223 324.24 0 206.223 324.24
223.361 302.614 0 223.361 302.614
235.974 276.734 0 235.974 276.734
243.428 248.873 0 243.428 248.873
248.175 222.942 0 248.175 222.942
251.697 198.438 0 251.697 198.438
253.341 173.738 0 253.341 173.738
79.0188 165.19 0 79.0188 165.19
90.5138 157.613 0 90.5138 157.613
105.334 155.118 0 105.334 155.118
120.802 156.939 0 120.802 156.939
135.809 161.528 0 135.809 161.528
181.927 160.658 0 181.927 160.658
196.481 155.406 0 196.481 155.406
211.558 152.908 0 211.558 152.908
226.147 154.664 0 226.147 154.664
237.591 161.61 0 237.591 161.61
159.402 184.972 0 159.402 184.972
160.004 203.229 0 160.004 203.229
160.629 221.491 0 160.629 221.491
161.237 239.496 0 161.237 239.496
144.525 249.594 0 144.525 249.594
152.456 252.571 0 152.456 252.571
160.758 254.128 0 160.758 254.128
168.885 252.235 0 168.885 252.235
176.552 248.942 0 176.552 248.942
97.694 187.014 0 97.694 187.014
107.987 179.978 0 107.987 179.978
121.006 179.932 0 121.006 179.932
131.376 186.525 0 131.376 186.525
120.333 190.304 0 120.333 190.304
108.444 190.955 0 108.444 190.955
186.365 185.415 0 186.365 185.415
196.592 178.394 0 196.592 178.394
209.578 177.935 0 209.578 177.935
220.024 184.549 0 220.024 184.549
209.442 188.924 0 209.442 188.924
197.553 188.755 0 197.553 188.755
128.006 282.462 0 128.006 282.462
137.161 276.305 0 137.161 276.305
148.324 271.828 0 148.324 271.828
160.879 274.668 0 160.879 274.668
173.044 271.407 0 173.044 271.407
183.922 275.524 0 183.922 275.524
192.731 281.364 0 192.731 281.364
183.789 289.64 0 183.789 289.64
172.796 295.054 0 172.796 295.054
160.874 297.737 0 160.874 297.737
148.714 295.432 0 148.714 295.432
137.372 290.373 0 137.372 290.373
147.904 280.659 0 147.904 280.659
160.854 282.817 0 160.854 282.817
173.275 280.223 0 173.275 280.223
172.937 281.161 0 172.937 281.161
160.736 283.872 0 160.736 283.872
148.102 281.558 0 148.102 281.558
3 20 21 23
3 21 22 23
3 0 1 36
3 15 16 45
3 0 17 36
3 16 26 45
3 17 18 37
3 25 26 44
3 17 36 37
3 26 44 45
3 18 19 38
3 24 25 43
3 18 37 38
3 25 43 44
3 19 20 38
3 23 24 43
3 20 21 39
3 22 23 42
3 20 38 39
3 23 42 43
3 21 22 27
3 21 27 39
3 22 27 42
3 27 28 42
3 27 28 39
3 28 42 47
3 28 39 40
3 1 36 41
3 15 45 46
3 1 2 41
3 14 15 46
3 28 29 40
3 28 29 47
3 2 40 41
3 14 46 47
3 2 29 40
3 14 29 47
3 2 3 29
3 13 14 29
3 29 30 31
3 29 30 35
3 3 29 31
3 13 29 35
3 30 32 33
3 30 33 34
3 30 31 32
3 30 34 35
3 3 4 31
3 12 13 35
3 4 5 48
3 11 12 54
3 5 6 48
3 10 11 54
3 6 48 59
3 10 54 55
3 6 7 59
3 9 10 55
3 7 58 59
3 9 55 56
3 8 57 58
3 8 56 57
3 7 8 58
3 8 9 56
3 4 31 48
3 12 35 54
3 31 48 49
3 35 53 54
3 31 49 50
3 35 52 53
3 31 32 50
3 34 35 52
3 32 33 50
3 33 34 52
3 33 50 51
3 33 51 52
3 48 49 60
3 49 60 50
3 50 60 61
3 50 51 61
3 51 52 61
3 61 62 52
3 52 53 62
3 53 54 62
3 54 55 63
3 55 56 63
3 56 63 64
3 56 57 64
3 64 65 57
3 57 58 65
3 58 59 65
3 48 59 65
