ply
format ascii 1.0
element vertex 66
property float x
property float y
property float z
property float u
property float v
element face 91
property list uchar int vertex_indices
end_header
-20.6547 -5.64822 21.3079 120.51 230.793
-20.0519 -0.423649 20.8425 122.12 254.643
-19.1146 4.7667 20.4846 125.213 278.401
-17.7568 9.73356 18.3869 129.204 301.518
-15.6469 14.1974 13.4633 135.581 323.449
-12.4006 17.9009 7.99404 147.222 343.118
-8.27017 20.7526 3.29433 163.946 359.154
-3.55056 22.6779 -0.880153 184.328 370.745
1.65875 22.9008 -4.53572 207.848 374.02
6.75338 21.9412 -0.807894 232.471 371.728
11.0958 19.3665 3.41769 254.458 361.291
14.7165 15.9593 8.15704 273.071 346.115
17.3322 11.8354 13.6544 286.474 326.672
18.7221 7.12069 18.5937 293.401 303.809
19.3316 2.01325 20.7063 297.188 279.077
19.5157 -3.2566 21.0748 299.875 253.613
19.3623 -8.51341 21.5385 301.247 228.073
-16.9434 -14.0024 0.166523 130.282 193.459
-14.6923 -16.1532 -1.56921 140.615 184.102
-11.7473 -17.1684 -2.95979 154.145 180.73
-8.64008 -17.2567 -4.29633 168.025 181.731
-5.61118 -16.6863 -5.52226 181.255 185.591
3.24342 -17.3161 -5.43542 229.592 184.123
6.14406 -18.3113 -4.17859 243.604 179.168
9.21432 -18.6656 -2.80935 258.426 177.295
12.2557 -18.0793 -1.38764 273.157 180.062
14.7675 -16.2699 0.371491 285.031 189.117
-0.800008 -11.6067 -4.9545 206.206 213.675
-0.571382 -8.59445 -7.76035 206.471 228.215
-0.341526 -5.60559 -10.6633 206.754 242.647
-0.111056 -2.62069 -13.4075 207.049 257.048
-3.34691 0.90089 -6.47077 193.208 271.548
-1.6415 1.2941 -7.26957 200.214 273.074
0.142254 1.35258 -8.01839 207.482 273.479
1.89493 1.04463 -7.21848 215.114 272.707
3.5165 0.412997 -6.40175 222.488 270.8
-12.5316 -9.74495 -0.905324 149.97 218.234
-10.6698 -11.0691 -1.10649 158.865 211.577
-8.3451 -11.2534 -1.2279 170.114 211.425
-6.35058 -10.2247 -0.977391 179.104 217.599
-8.3556 -9.50683 -1.10156 169.61 221.279
-10.5048 -9.27615 -1.09011 159.292 221.833
4.83678 -11.0227 -0.887733 234.846 216.161
6.66716 -12.3254 -1.11779 243.665 209.151
8.99246 -12.4738 -0.968074 255.174 208.782
11.0209 -11.4279 -0.742362 264.78 214.783
9.08377 -10.6753 -0.948989 255.451 219.051
6.92444 -10.5977 -0.987214 244.851 219.164
-6.63855 8.84013 -2.74685 176.148 308.834
-4.73902 6.8457 -4.89305 185.755 301.284
-2.32888 5.4219 -6.54708 196.494 295.709
0.427259 5.35547 -8.22771 208.098 296.558
3.15408 5.03248 -6.48681 220.08 295.288
5.72158 6.09946 -4.80547 231.484 300.511
7.86034 7.80446 -2.63884 242.097 307.472
6.14905 9.90529 -3.93286 232.839 315.906
3.75933 11.3254 -5.28293 221.1 320.851
0.883179 11.8243 -6.67982 208.221 322.189
-2.0422 11.738 -5.34336 195.969 321.229
-4.62825 10.6744 -4.02161 184.813 316.776
-2.38864 7.57584 -5.20395 195.693 305.916
0.55887 7.21472 -7.41824 208.178 305.494
3.50364 7.15671 -5.14457 221.069 305.436
3.65722 8.62822 -4.49552 221.175 307.991
0.689237 9.10764 -6.42523 208.126 308.616
-2.33557 9.05505 -4.5521 195.494 308.44
3 20 21 23
3 21 22 23
3 0 1 36
3 15 16 45
3 0 17 36
3 16 26 45
3 17 18 37
3 25 26 44
3 17 36 37
3 26 44 45
3 18 19 38
3 24 25 43
3 18 37 38
3 25 43 44
3 19 20 38
3 23 24 43
3 20 21 39
3 22 23 42
3 20 38 39
3 23 42 43
3 21 22 27
3 21 27 39
3 22 27 42
3 27 28 42
3 27 28 39
3 28 42 47
3 28 39 40
3 1 36 41
3 15 45 46
3 1 2 41
3 14 15 46
3 28 29 40
3 28 29 47
3 2 40 41
3 14 46 47
3 2 29 40
3 14 29 47
3 2 3 29
3 13 14 29
3 29 30 31
3 29 30 35
3 3 29 31
3 13 29 35
3 30 32 33
3 30 33 34
3 30 31 32
3 30 34 35
3 3 4 31
3 12 13 35
3 4 5 48
3 11 12 54
3 5 6 48
3 10 11 54
3 6 48 59
3 10 54 55
3 6 7 59
3 9 10 55
3 7 58 59
3 9 55 56
3 8 57 58
3 8 56 57
3 7 8 58
3 8 9 56
3 4 31 48
3 12 35 54
3 31 48 49
3 35 53 54
3 31 49 50
3 35 52 53
3 31 32 50
3 34 35 52
3 32 33 50
3 33 34 52
3 33 50 51
3 33 51 52
3 48 49 60
3 49 60 50
3 50 60 61
3 50 51 61
3 51 52 61
3 61 62 52
3 52 53 62
3 53 54 62
3 54 55 63
3 55 56 63
3 56 63 64
3 56 57 64
3 64 65 57
3 57 58 65
3 58 59 65
3 48 59 65
