ply
format ascii 1.0
element vertex 66
property float x
property float y
property float z
property float u
property float v
element face 91
property list uchar int vertex_indices
end_header
255.073 208.493 0 255.073 208.493
260.86 238.589 0 260.86 238.589
268.969 268.165 0 268.969 268.165
280.212 297.845 0 280.212 297.845
296.696 326.593 0 296.696 326.593
319.389 350.53 0 319.389 350.53
346.034 368.778 0 346.034 368.778
375.381 381.227 0 375.381 381.227
406.55 383.737 0 406.55 383.737
436.497 373.49 0 436.497 373.49
462.222 354.407 0 462.222 354.407
484.32 330.576 0 484.32 330.576
501.132 301.878 0 501.132 301.878
510.252 269.467 0 510.252 269.467
513.895 237.058 0 513.895 237.058
514.538 205.416 0 514.538 205.416
512.947 173.814 0 512.947 173.814
279.465 170.058 0 279.465 170.058
292.289 156.873 0 292.289 156.873
310.239 149.835 0 310.239 149.835
329.9 148.386 0 329.9 148.386
349.564 150.85 0 349.564 150.85
404.745 142.828 0 404.745 142.828
423.573 135.124 0 423.573 135.124
443.419 131.325 0 443.419 131.325
463.065 133.651 0 463.065 133.651
479.307 143.365 0 479.307 143.365
380.057 177.757 0 380.057 177.757
382.363 198.051 0 382.363 198.051
384.723 218.287 0 384.723 218.287
387.097 238.342 0 387.097 238.342
368.343 257.349 0 368.343 257.349
378.925 259.878 0 378.925 259.878
389.858 260.343 0 389.858 260.343
400.727 257.105 0 400.727 257.105
410.73 251.968 0 410.73 251.968
308.684 193.123 0 308.684 193.123
319.756 184.057 0 319.756 184.057
334.368 181.796 0 334.368 181.796
347.733 186.612 0 347.733 186.612
335.363 192.029 0 335.363 192.029
321.902 194.648 0 321.902 194.648
416.217 177.175 0 416.217 177.175
427.976 168.884 0 427.976 168.884
442.848 167.44 0 442.848 167.44
456.049 173.376 0 456.049 173.376
443.538 178.253 0 443.538 178.253
429.74 179.26 0 429.74 179.26
348.794 301.047 0 348.794 301.047
361.026 291.066 0 361.026 291.066
376.111 283.95 0 376.111 283.95
393.265 284.47 0 393.265 284.47
410.121 279.575 0 410.121 279.575
426.826 282.653 0 426.826 282.653
441.669 289.013 0 441.669 289.013
429.284 300.625 0 429.284 300.625
413.758 308.375 0 413.758 308.375
396.815 312.58 0 396.815 312.58
379.789 312.813 0 379.789 312.813
363.095 309.286 0 363.095 309.286
376.299 295.147 0 376.299 295.147
394.552 294.739 0 394.552 294.739
412.69 290.439 0 412.69 290.439
413.029 293.053 0 413.029 293.053
394.812 297.408 0 394.812 297.408
376.466 297.804 0 376.466 297.804
3 20 21 23
3 21 22 23
3 0 1 36
3 15 16 45
3 0 17 36
3 16 26 45
3 17 18 37
3 25 26 44
3 17 36 37
3 26 44 45
3 18 19 38
3 24 25 43
3 18 37 38
3 25 43 44
3 19 20 38
3 23 24 43
3 20 21 39
3 22 23 42
3 20 38 39
3 23 42 43
3 21 22 27
3 21 27 39
3 22 27 42
3 27 28 42
3 27 28 39
3 28 42 47
3 28 39 40
3 1 36 41
3 15 45 46
3 1 2 41
3 14 15 46
3 28 29 40
3 28 29 47
3 2 40 41
3 14 46 47
3 2 29 40
3 14 29 47
3 2 3 29
3 13 14 29
3 29 30 31
3 29 30 35
3 3 29 31
3 13 29 35
3 30 32 33
3 30 33 34
3 30 31 32
3 30 34 35
3 3 4 31
3 12 13 35
3 4 5 48
3 11 12 54
3 5 6 48
3 10 11 54
3 6 48 59
3 10 54 55
3 6 7 59
3 9 10 55
3 7 58 59
3 9 55 56
3 8 57 58
3 8 56 57
3 7 8 58
3 8 9 56
3 4 31 48
3 12 35 54
3 31 48 49
3 35 53 54
3 31 49 50
3 35 52 53
3 31 32 50
3 34 35 52
3 32 33 50
3 33 34 52
3 33 50 51
3 33 51 52
3 48 49 60
3 49 60 50
3 50 60 61
3 50 51 61
3 51 52 61
3 61 62 52
3 52 53 62
3 53 54 62
3 54 55 63
3 55 56 63
3 56 63 64
3 56 57 64
3 64 65 57
3 57 58 65
3 58 59 65
3 48 59 65
