ply
format ascii 1.0
element vertex 66
property float x
property float y
property float z
property float u
property float v
element face 91
property list uchar int vertex_indices
end_header
98.956 257.497 0 98.956 257.497
100.828 292.318 0 100.828 292.318
104.758 327.002 0 104.758 327.002
111.288 361.349 0 111.288 361.349
123.345 394.358 0 123.345 394.358
143.104 423.867 0 143.104 423.867
168.578 448.751 0 168.578 448.751
198.681 467.665 0 198.681 467.665
233.578 474.543 0 233.578 474.543
266.995 469.091 0 266.995 469.091
296.122 451.859 0 296.122 451.859
320.688 428.432 0 320.688 428.432
339.151 399.767 0 339.151 399.767
349.739 366.686 0 349.739 366.686
355.983 331.765 0 355.983 331.765
360.571 296.406 0 360.571 296.406
363.278 260.905 0 363.278 260.905
128.909 215.54 0 128.909 215.54
145.588 204.259 0 145.588 204.259
165.6 200.197 0 165.6 200.197
186.04 201.855 0 186.04 201.855
205.463 207.894 0 205.463 207.894
264.933 208.256 0 264.933 208.256
284.522 202.035 0 284.522 202.035
305.011 200.357 0 305.011 200.357
325.006 204.541 0 325.006 204.541
341.494 216.055 0 341.494 216.055
235.013 245.726 0 235.013 245.726
235.487 269.311 0 235.487 269.311
235.989 292.762 0 235.989 292.762
236.473 316.102 0 236.473 316.102
210.947 328.865 0 210.947 328.865
222.587 333.471 0 222.587 333.471
235.039 335.479 0 235.039 335.479
247.529 333.575 0 247.529 333.575
259.269 329.024 0 259.269 329.024
154.84 248.394 0 154.84 248.394
168.782 241.797 0 168.782 241.797
184.469 242.23 0 184.469 242.23
197.584 249.377 0 197.584 249.377
183.222 251.19 0 183.222 251.19
168.673 251.383 0 168.673 251.383
272.211 249.611 0 272.211 249.611
285.631 242.391 0 285.631 242.391
301.337 242.215 0 301.337 242.215
315.281 248.821 0 315.281 248.821
301.429 251.738 0 301.429 251.738
286.749 251.525 0 286.749 251.525
176.346 365.356 0 176.346 365.356
193.993 356.482 0 193.993 356.482
214.461 352.734 0 214.461 352.734
235.321 354.665 0 235.321 354.665
255.604 353.033 0 255.604 353.033
275.574 357.096 0 275.574 357.096
292.642 366.055 0 292.642 366.055
278.584 385.771 0 278.584 385.771
258.551 399.32 0 258.551 399.32
234.486 403.151 0 234.486 403.151
210.111 398.979 0 210.111 398.979
190.159 385.182 0 190.159 385.182
207.389 363.846 0 207.389 363.846
235.065 365.2 0 235.065 365.2
261.92 364.194 0 261.92 364.194
263.167 381.718 0 263.167 381.718
234.524 386.276 0 234.524 386.276
205.393 381.272 0 205.393 381.272
3 20 21 23
3 21 22 23
3 0 1 36
3 15 16 45
3 0 17 36
3 16 26 45
3 17 18 37
3 25 26 44
3 17 36 37
3 26 44 45
3 18 19 38
3 24 25 43
3 18 37 38
3 25 43 44
3 19 20 38
3 23 24 43
3 20 21 39
3 22 23 42
3 20 38 39
3 23 42 43
3 21 22 27
3 21 27 39
3 22 27 42
3 27 28 42
3 27 28 39
3 28 42 47
3 28 39 40
3 1 36 41
3 15 45 46
3 1 2 41
3 14 15 46
3 28 29 40
3 28 29 47
3 2 40 41
3 14 46 47
3 2 29 40
3 14 29 47
3 2 3 29
3 13 14 29
3 29 30 31
3 29 30 35
3 3 29 31
3 13 29 35
3 30 32 33
3 30 33 34
3 30 31 32
3 30 34 35
3 3 4 31
3 12 13 35
3 4 5 48
3 11 12 54
3 5 6 48
3 10 11 54
3 6 48 59
3 10 54 55
3 6 7 59
3 9 10 55
3 7 58 59
3 9 55 56
3 8 57 58
3 8 56 57
3 7 8 58
3 8 9 56
3 4 31 48
3 12 35 54
3 31 48 49
3 35 53 54
3 31 49 50
3 35 52 53
3 31 32 50
3 34 35 52
3 32 33 50
3 33 34 52
3 33 50 51
3 33 51 52
3 48 49 60
3 49 60 50
3 50 60 61
3 50 51 61
3 51 52 61
3 61 62 52
3 52 53 62
3 53 54 62
3 54 55 63
3 55 56 63
3 56 63 64
3 56 57 64
3 64 65 57
3 57 58 65
3 58 59 65
3 48 59 65
