ply
format ascii 1.0
element vertex 66
property float x
property float y
property float z
property float u
property float v
element face 91
property list uchar int vertex_indices
end_header
-20.5157 -5.13492 21.2814 63.5331 216.231
-19.6958 -0.202581 20.7898 65.016 238.683
-18.5523 4.67734 20.3597 67.9842 261.038
-17.0234 9.39697 18.3072 72.3969 282.794
-14.7141 13.7043 13.4917 79.8845 302.958
-11.514 17.4496 8.13079 91.4825 320.963
-7.71335 20.661 3.26412 106.102 336.839
-3.3138 23.0723 -0.976289 123.878 349.396
1.73368 23.6057 -4.51229 145.5 353.824
6.57352 22.445 -1.05308 168.415 350.75
10.5517 19.5861 3.28664 188.376 339.721
13.8735 16.0228 8.23411 205.826 325.271
16.4655 11.9267 13.7005 220.344 308.139
17.9922 7.24846 18.6208 230.219 287.932
18.7613 2.17246 20.7612 236.269 265.549
19.204 -3.02951 21.2964 240.565 242.422
19.355 -8.24408 21.8064 243.553 219.114
-17.0564 -13.8625 0.236642 78.1836 177.999
-14.5673 -15.8538 -1.50486 89.7992 170.073
-11.4748 -16.7516 -2.98148 103.713 167.312
-8.25318 -16.8136 -4.35013 117.875 168.357
-5.12844 -16.1804 -5.54748 131.347 172.483
2.60131 -16.8523 -5.44887 166.276 172.731
5.6822 -18.0569 -4.20945 180.852 168.661
8.96719 -18.5509 -2.78699 196.081 167.868
12.2632 -18.1438 -1.27534 210.999 171.123
15.1247 -16.5273 0.438187 223.502 179.624
-0.993997 -11.9793 -4.85297 148.241 193.084
-0.693936 -8.34249 -7.77535 147.42 209.443
-0.388126 -4.73609 -10.8101 146.613 225.665
-0.0795802 -1.13691 -13.6553 145.862 241.861
-3.5688 1.11319 -6.65752 130.788 250.664
-1.81582 1.67094 -7.4139 138.242 253.885
0.0412773 1.80448 -8.06624 146.364 255.25
1.90372 1.3782 -7.45648 155.018 254.139
3.6125 0.54764 -6.68459 163.189 251.155
-12.8719 -9.61754 -0.635376 94.9463 198.777
-10.7913 -10.9875 -1.00665 104.765 193.502
-8.26246 -11.1663 -1.39901 116.083 193.756
-6.07247 -10.1387 -1.24111 125.493 199.291
-8.3307 -9.65527 -1.10036 115.204 200.511
-10.6318 -9.38538 -1.04764 104.794 200.752
4.682 -11.0604 -1.13563 174.078 199.695
6.71637 -12.4651 -1.28243 183.752 194.25
9.2689 -12.6523 -0.843568 195.36 194.498
11.5701 -11.6392 -0.439181 205.326 200.022
9.3771 -11.0546 -0.885284 195.16 201.708
7.03319 -10.9385 -0.971849 184.593 201.238
-8.73732 7.42814 -2.52918 105.858 276.913
-6.18451 5.64835 -4.63522 117.591 269.952
-2.99354 4.71647 -6.30627 131.919 267.075
0.354307 4.59829 -8.17109 146.563 267.908
3.67401 4.20747 -6.35209 161.99 267.602
6.98399 4.6596 -4.62822 176.997 271.071
9.81537 5.99654 -2.47742 189.578 278.317
7.88495 9.4489 -4.06149 179.131 292.943
4.85473 12.0277 -5.25011 164.213 303.199
0.935628 12.9876 -6.54915 145.973 305.817
-3.06493 12.6388 -5.19956 128.491 302.601
-6.40568 10.5583 -4.03809 114.655 291.893
-3.8898 6.5307 -5.20037 127.376 274.862
0.456775 6.22628 -7.82907 146.408 275.261
4.7773 5.8593 -5.31066 166.458 275.503
5.26067 9.09892 -4.54235 167.421 290.255
0.710862 10.2412 -6.47513 146.142 293.408
-3.95853 9.80424 -4.44339 125.848 289.533
3 20 21 23
3 21 22 23
3 0 1 36
3 15 16 45
3 0 17 36
3 16 26 45
3 17 18 37
3 25 26 44
3 17 36 37
3 26 44 45
3 18 19 38
3 24 25 43
3 18 37 38
3 25 43 44
3 19 20 38
3 23 24 43
3 20 21 39
3 22 23 42
3 20 38 39
3 23 42 43
3 21 22 27
3 21 27 39
3 22 27 42
3 27 28 42
3 27 28 39
3 28 42 47
3 28 39 40
3 1 36 41
3 15 45 46
3 1 2 41
3 14 15 46
3 28 29 40
3 28 29 47
3 2 40 41
3 14 46 47
3 2 29 40
3 14 29 47
3 2 3 29
3 13 14 29
3 29 30 31
3 29 30 35
3 3 29 31
3 13 29 35
3 30 32 33
3 30 33 34
3 30 31 32
3 30 34 35
3 3 4 31
3 12 13 35
3 4 5 48
3 11 12 54
3 5 6 48
3 10 11 54
3 6 48 59
3 10 54 55
3 6 7 59
3 9 10 55
3 7 58 59
3 9 55 56
3 8 57 58
3 8 56 57
3 7 8 58
3 8 9 56
3 4 31 48
3 12 35 54
3 31 48 49
3 35 53 54
3 31 49 50
3 35 52 53
3 31 32 50
3 34 35 52
3 32 33 50
3 33 34 52
3 33 50 51
3 33 51 52
3 48 49 60
3 49 60 50
3 50 60 61
3 50 51 61
3 51 52 61
3 61 62 52
3 52 53 62
3 53 54 62
3 54 55 63
3 55 56 63
3 56 63 64
3 56 57 64
3 64 65 57
3 57 58 65
3 58 59 65
3 48 59 65
