ply
format ascii 1.0
element vertex 66
property float x
property float y
property float z
property float u
property float v
element face 91
property list uchar int vertex_indices
end_header
-20.6547 -5.64822 21.3079 195.27 283.866
-20.0519 -0.423649 20.8425 197.848 313.144
-19.1146 4.7667 20.4846 202.38 342.262
-17.7568 9.73356 18.3869 207.868 370.757
-15.6469 14.1974 13.4633 216.813 397.44
-12.4006 17.9009 7.99404 232.539 420.374
-8.27017 20.7526 3.29433 253.846 438.589
-3.55056 22.6779 -0.880153 278.942 451.476
1.65875 22.9008 -4.53572 307.143 455.052
6.75338 21.9412 -0.807894 336.768 451.532
11.0958 19.3665 3.41769 363.508 438.817
14.7165 15.9593 8.15704 386.552 420.651
17.3322 11.8354 13.6544 404.121 397.602
18.7221 7.12069 18.5937 414.529 370.725
19.3316 2.01325 20.7063 420.569 342.027
19.5157 -3.2566 21.0748 425.026 312.716
19.3623 -8.51341 21.5385 427.69 283.261
-16.9434 -14.0024 0.166523 209.717 235.711
-14.6923 -16.1532 -1.56921 223.577 224.054
-11.7473 -17.1684 -2.95979 241.315 219.391
-8.64008 -17.2567 -4.29633 259.716 220.321
-5.61118 -16.6863 -5.52226 277.363 225.269
3.24342 -17.3161 -5.43542 334.554 225.35
6.14406 -18.3113 -4.17859 352.78 220.325
9.21432 -18.6656 -2.80935 371.811 219.339
12.2557 -18.0793 -1.38764 390.252 223.994
14.7675 -16.2699 0.371491 404.977 235.654
-0.800008 -11.6067 -4.9545 306.194 260.999
-0.571382 -8.59445 -7.76035 305.68 282.815
-0.341526 -5.60559 -10.6633 305.145 304.479
-0.111056 -2.62069 -13.4075 304.665 326.072
-3.34691 0.90089 -6.47077 285.426 339.926
-1.6415 1.2941 -7.26957 295.213 343.609
0.142254 1.35258 -8.01839 305.695 345.083
1.89493 1.04463 -7.21848 316.537 343.609
3.5165 0.412997 -6.40175 326.728 339.906
-12.5316 -9.74495 -0.905324 232.567 266.575
-10.6698 -11.0691 -1.10649 244.886 257.471
-8.3451 -11.2534 -1.2279 260.343 257.956
-6.35058 -10.2247 -0.977391 272.316 267.792
-8.3556 -9.50683 -1.10156 259.034 271.646
-10.5048 -9.27615 -1.09011 245.05 271.888
4.83678 -11.0227 -0.887733 342.011 267.768
6.66716 -12.3254 -1.11779 353.916 257.909
8.99246 -12.4738 -0.968074 369.533 257.483
11.0209 -11.4279 -0.742362 382.062 266.581
9.08377 -10.6753 -0.948989 369.375 271.857
6.92444 -10.5977 -0.987214 355.317 271.642
-6.63855 8.84013 -2.74685 262.225 376.815
-4.73902 6.8457 -4.89305 276.167 369.924
-2.32888 5.4219 -6.54708 290.969 365.701
0.427259 5.35547 -8.22771 305.716 367.653
3.15408 5.03248 -6.48681 321.227 365.742
5.72158 6.09946 -4.80547 336.763 370.006
7.86034 7.80446 -2.63884 351.706 376.879
6.14905 9.90529 -3.93286 338.666 386.739
3.75933 11.3254 -5.28293 322.729 392.131
0.883179 11.8243 -6.67982 306.139 393.393
-2.0422 11.738 -5.34336 290.094 392.11
-4.62825 10.6744 -4.02161 274.688 386.688
-2.38864 7.57584 -5.20395 290.27 376.807
0.55887 7.21472 -7.41824 305.86 378.063
3.50364 7.15671 -5.14457 322.432 376.827
3.65722 8.62822 -4.49552 322.922 377.178
0.689237 9.10764 -6.42523 306.082 377.351
-2.33557 9.05505 -4.5521 290.043 377.137
3 20 21 23
3 21 22 23
3 0 1 36
3 15 16 45
3 0 17 36
3 16 26 45
3 17 18 37
3 25 26 44
3 17 36 37
3 26 44 45
3 18 19 38
3 24 25 43
3 18 37 38
3 25 43 44
3 19 20 38
3 23 24 43
3 20 21 39
3 22 23 42
3 20 38 39
3 23 42 43
3 21 22 27
3 21 27 39
3 22 27 42
3 27 28 42
3 27 28 39
3 28 42 47
3 28 39 40
3 1 36 41
3 15 45 46
3 1 2 41
3 14 15 46
3 28 29 40
3 28 29 47
3 2 40 41
3 14 46 47
3 2 29 40
3 14 29 47
3 2 3 29
3 13 14 29
3 29 30 31
3 29 30 35
3 3 29 31
3 13 29 35
3 30 32 33
3 30 33 34
3 30 31 32
3 30 34 35
3 3 4 31
3 12 13 35
3 4 5 48
3 11 12 54
3 5 6 48
3 10 11 54
3 6 48 59
3 10 54 55
3 6 7 59
3 9 10 55
3 7 58 59
3 9 55 56
3 8 57 58
3 8 56 57
3 7 8 58
3 8 9 56
3 4 31 48
3 12 35 54
3 31 48 49
3 35 53 54
3 31 49 50
3 35 52 53
3 31 32 50
3 34 35 52
3 32 33 50
3 33 34 52
3 33 50 51
3 33 51 52
3 48 49 60
3 49 60 50
3 50 60 61
3 50 51 61
3 51 52 61
3 61 62 52
3 52 53 62
3 53 54 62
3 54 55 63
3 55 56 63
3 56 63 64
3 56 57 64
3 64 65 57
3 57 58 65
3 58 59 65
3 48 59 65
