ply
format ascii 1.0
element vertex 66
property float x
property float y
property float z
property float u
property float v
element face 91
property list uchar int vertex_indices
end_header
-20.7549 -5.34585 21.4102 77.8054 140.959
-19.977 -0.347322 20.8884 77.1847 161.782
-18.8313 4.59961 20.5002 78.0936 182.602
-17.2765 9.31039 18.2984 80.7059 203.777
-14.9427 13.4706 13.4985 86.694 224.759
-11.6338 16.8736 8.09794 97.1356 243.776
-7.69096 19.6209 3.24811 110.656 260.346
-3.28073 21.6693 -0.922918 126.626 274.102
1.68196 21.973 -4.39097 146.168 280.92
6.44907 20.972 -0.972843 166.352 278.609
10.4117 18.3517 3.2669 184.554 268.783
13.8136 15.1378 8.16427 200.982 255.807
16.5376 11.3983 13.6055 215.106 239.929
18.2399 7.07578 18.3956 225.502 221.317
19.0901 2.3461 20.6764 232.601 201.818
19.5076 -2.55827 21.0781 237.961 182.329
19.5544 -7.46612 21.6003 241.838 162.482
-17.4009 -14.4372 0.279049 96.6809 118.743
-15.0181 -16.3162 -1.37307 107.572 113.925
-12.0633 -17.1246 -2.86878 119.982 113.723
-9.00899 -17.0953 -4.25848 132.176 116.881
-6.03958 -16.4906 -5.50383 143.609 122.195
3.6294 -17.1305 -5.389 183.058 126.796
6.3535 -18.14 -4.08669 194.874 124.085
9.24969 -18.6239 -2.66031 207 123.534
12.1909 -18.3655 -1.13479 218.762 125.926
14.7888 -17.0052 0.531673 228.33 132.383
-0.697256 -11.131 -4.90561 161.188 147.254
-0.471636 -8.18307 -7.78303 159.711 160.769
-0.244403 -5.26377 -10.7768 158.254 174.235
-0.0161223 -2.34973 -13.6073 156.816 187.591
-3.61943 1.24656 -6.73528 140.076 195.494
-1.72115 1.71974 -7.45027 147.326 199.192
0.254824 1.81186 -8.08216 155.179 201.381
2.17401 1.44711 -7.42382 163.228 200.997
3.96073 0.70884 -6.68317 171.027 198.978
-13.1349 -9.71989 -0.589736 110.303 141.238
-11.1445 -11.0079 -0.89473 119.262 137.749
-8.72706 -11.1417 -1.26324 129.079 139.221
-6.69857 -10.0323 -1.18379 136.434 145.121
-8.82764 -9.42689 -1.13002 127.407 145.92
-11.051 -9.22979 -1.05624 118.305 145.006
5.13344 -10.8526 -1.07454 184.733 150.62
6.97303 -12.2374 -1.13035 193.173 146.495
9.37542 -12.4727 -0.728264 203.057 147.128
11.5279 -11.4827 -0.376823 211.017 152.496
9.54875 -10.6805 -0.884292 202.411 154.499
7.32298 -10.5549 -0.986725 193.341 153.395
-8.18223 8.32777 -2.65233 116.69 218.123
-5.82469 6.33075 -4.79828 127.534 213.085
-2.84245 5.01436 -6.46842 140.421 210.971
0.441531 4.86445 -8.34778 153.641 213.854
3.6763 4.55443 -6.41465 167.036 213.972
6.77803 5.43406 -4.72414 178.994 218.873
9.34742 7.10024 -2.59454 188.25 226.277
7.5616 10.2328 -4.03478 178.625 238.24
4.71383 12.5204 -5.25021 165.365 245.914
1.05607 13.3342 -6.55512 149.932 247.147
-2.70952 13.0362 -5.26988 135.065 242.442
-5.88891 11.1645 -4.07938 123.725 231.943
-3.55754 7.10455 -5.32279 136.059 218.155
0.581621 6.69131 -7.84243 152.879 220.976
4.69242 6.52019 -5.27352 169.744 221.954
5.0971 9.55894 -4.54995 169.161 233.992
0.863773 10.5248 -6.48705 151.253 235.749
-3.49649 10.1661 -4.56637 134.077 230.009
3 20 21 23
3 21 22 23
3 0 1 36
3 15 16 45
3 0 17 36
3 16 26 45
3 17 18 37
3 25 26 44
3 17 36 37
3 26 44 45
3 18 19 38
3 24 25 43
3 18 37 38
3 25 43 44
3 19 20 38
3 23 24 43
3 20 21 39
3 22 23 42
3 20 38 39
3 23 42 43
3 21 22 27
3 21 27 39
3 22 27 42
3 27 28 42
3 27 28 39
3 28 42 47
3 28 39 40
3 1 36 41
3 15 45 46
3 1 2 41
3 14 15 46
3 28 29 40
3 28 29 47
3 2 40 41
3 14 46 47
3 2 29 40
3 14 29 47
3 2 3 29
3 13 14 29
3 29 30 31
3 29 30 35
3 3 29 31
3 13 29 35
3 30 32 33
3 30 33 34
3 30 31 32
3 30 34 35
3 3 4 31
3 12 13 35
3 4 5 48
3 11 12 54
3 5 6 48
3 10 11 54
3 6 48 59
3 10 54 55
3 6 7 59
3 9 10 55
3 7 58 59
3 9 55 56
3 8 57 58
3 8 56 57
3 7 8 58
3 8 9 56
3 4 31 48
3 12 35 54
3 31 48 49
3 35 53 54
3 31 49 50
3 35 52 53
3 31 32 50
3 34 35 52
3 32 33 50
3 33 34 52
3 33 50 51
3 33 51 52
3 48 49 60
3 49 60 50
3 50 60 61
3 50 51 61
3 51 52 61
3 61 62 52
3 52 53 62
3 53 54 62
3 54 55 63
3 55 56 63
3 56 63 64
3 56 57 64
3 64 65 57
3 57 58 65
3 58 59 65
3 48 59 65
