ply
format ascii 1.0
element vertex 66
property float x
property float y
property float z
property float u
property float v
element face 91
property list uchar int vertex_indices
end_header
340.803 76.8303 0 340.803 76.8303
341.408 86.6483 0 341.408 86.6483
342.542 96.4362 0 342.542 96.4362
344.579 106.047 0 344.579 106.047
348.261 115.248 0 348.261 115.248
354.222 123.435 0 354.222 123.435
362.025 130.029 0 362.025 130.029
371.162 134.769 0 371.162 134.769
381.42 136.226 0 381.42 136.226
391.106 134.68 0 391.106 134.68
399.618 129.98 0 399.618 129.98
406.645 123.295 0 406.645 123.295
411.351 114.777 0 411.351 114.777
413.37 104.893 0 413.37 104.893
414.245 94.4274 0 414.245 94.4274
414.63 83.7932 0 414.63 83.7932
414.514 73.1693 0 414.514 73.1693
350.361 65.459 0 350.361 65.459
354.701 62.2037 0 354.701 62.2037
360.038 60.9453 0 360.038 60.9453
365.522 61.112 0 365.522 61.112
370.807 62.3186 0 370.807 62.3186
387.691 61.2469 0 387.691 61.2469
392.784 59.3443 0 392.784 59.3443
398.146 58.5428 0 398.146 58.5428
403.522 59.2103 0 403.522 59.2103
408.106 61.9851 0 408.106 61.9851
379.625 70.323 0 379.625 70.323
380.275 76.5146 0 380.275 76.5146
380.94 82.6716 0 380.94 82.6716
381.575 88.8064 0 381.575 88.8064
374.738 93.7036 0 374.738 93.7036
377.805 94.5818 0 377.805 94.5818
381.039 94.8745 0 381.039 94.8745
384.133 94.2906 0 384.133 94.2906
387.018 93.1352 0 387.018 93.1352
357.6 73.0909 0 357.6 73.0909
361.022 70.9112 0 361.022 70.9112
365.145 70.5927 0 365.145 70.5927
368.722 72.1825 0 368.722 72.1825
365.14 73.3649 0 365.14 73.3649
361.277 73.7521 0 361.277 73.7521
389.949 71.0538 0 389.949 71.0538
393.461 68.9464 0 393.461 68.9464
397.68 68.858 0 397.68 68.858
401.401 70.6196 0 401.401 70.6196
397.776 71.7233 0 397.776 71.7233
393.804 71.7953 0 393.804 71.7953
367.867 107.851 0 367.867 107.851
371.913 105.146 0 371.913 105.146
376.461 103.431 0 376.461 103.431
381.261 103.85 0 381.261 103.85
385.707 103.093 0 385.707 103.093
390.044 104.516 0 390.044 104.516
393.925 106.837 0 393.925 106.837
390.542 110.348 0 390.542 110.348
386.123 112.5 0 386.123 112.5
381.144 113.187 0 381.144 113.187
376.039 112.826 0 376.039 112.826
371.443 111.019 0 371.443 111.019
375.963 106.907 0 375.963 106.907
381.173 106.917 0 381.173 106.917
385.903 106.545 0 385.903 106.545
385.919 107.674 0 385.919 107.674
381.001 108.296 0 381.001 108.296
375.725 108.03 0 375.725 108.03
3 20 21 23
3 21 22 23
3 0 1 36
3 15 16 45
3 0 17 36
3 16 26 45
3 17 18 37
3 25 26 44
3 17 36 37
3 26 44 45
3 18 19 38
3 24 25 43
3 18 37 38
3 25 43 44
3 19 20 38
3 23 24 43
3 20 21 39
3 22 23 42
3 20 38 39
3 23 42 43
3 21 22 27
3 21 27 39
3 22 27 42
3 27 28 42
3 27 28 39
3 28 42 47
3 28 39 40
3 1 36 41
3 15 45 46
3 1 2 41
3 14 15 46
3 28 29 40
3 28 29 47
3 2 40 41
3 14 46 47
3 2 29 40
3 14 29 47
3 2 3 29
3 13 14 29
3 29 30 31
3 29 30 35
3 3 29 31
3 13 29 35
3 30 32 33
3 30 33 34
3 30 31 32
3 30 34 35
3 3 4 31
3 12 13 35
3 4 5 48
3 11 12 54
3 5 6 48
3 10 11 54
3 6 48 59
3 10 54 55
3 6 7 59
3 9 10 55
3 7 58 59
3 9 55 56
3 8 57 58
3 8 56 57
3 7 8 58
3 8 9 56
3 4 31 48
3 12 35 54
3 31 48 49
3 35 53 54
3 31 49 50
3 35 52 53
3 31 32 50
3 34 35 52
3 32 33 50
3 33 34 52
3 33 50 51
3 33 51 52
3 48 49 60
3 49 60 50
3 50 60 61
3 50 51 61
3 51 52 61
3 61 62 52
3 52 53 62
3 53 54 62
3 54 55 63
3 55 56 63
3 56 63 64
3 56 57 64
3 64 65 57
3 57 58 65
3 58 59 65
3 48 59 65
