ply
format ascii 1.0
element vertex 66
property float x
property float y
property float z
property float u
property float v
element face 91
property list uchar int vertex_indices
end_header
-20.1648 -5.05238 21.6191 105.977 197.429
-19.1775 -0.034414 21.1071 112.451 218.081
-17.8595 4.92583 20.7701 120.309 238.132
-16.384 9.67682 18.6519 128.734 259.533
-14.4623 13.9459 13.4803 138.827 282.672
-11.5778 17.5445 8.0196 152.719 303.036
-7.89447 20.4609 3.43197 169.713 319.168
-3.57736 22.4408 -0.776913 188.987 330.733
1.24739 22.6915 -4.58881 209.646 334.536
6.2481 21.8555 -0.601553 230.605 323.903
10.4039 19.1616 3.60047 247.124 305.798
13.6518 15.4974 8.20032 259.338 283.628
15.986 11.3171 13.6627 267.427 258.65
17.355 6.79099 18.7213 271.244 233.195
18.1891 1.98734 20.7991 272.64 210.638
18.7437 -2.96801 21.0452 272.766 189.917
18.8598 -7.92516 21.5209 271.023 169.085
-18.5036 -13.7195 0.463349 109.029 188.395
-16.7746 -16.3964 -1.53192 115.178 179.299
-14.0166 -17.8409 -2.93629 126.274 174.023
-10.948 -18.1207 -4.26731 139.22 173.261
-7.88766 -17.7482 -5.3859 152.428 174.887
5.25532 -18.3577 -5.51428 208.174 166.919
8.04861 -19.0677 -4.29179 219.766 161.271
10.95 -19.1809 -2.89363 232.09 157.782
13.7277 -18.2589 -1.40374 244.355 158.442
15.7451 -16.0644 0.605804 253.957 163.946
-0.394964 -11.3671 -4.78166 187.253 196.867
-0.156801 -8.42828 -7.96043 189.579 212.776
0.0671877 -5.48924 -10.9222 191.846 228.416
0.279086 -2.53311 -13.4034 194.072 243.518
-2.39369 1.29942 -6.52669 184.448 251.503
-0.908125 1.45364 -7.4411 190.845 252.658
0.592894 1.45706 -8.29452 197.24 253.114
1.97045 1.29609 -7.38764 203.044 250.711
3.30097 0.976985 -6.43298 208.576 247.624
-13.7073 -9.84996 -0.778808 131.215 203.665
-11.7415 -11.5476 -1.00444 138.826 196.198
-9.1184 -11.8339 -1.18046 149.877 194.129
-6.93678 -10.5113 -1.04558 159.775 198.403
-9.09041 -9.44181 -1.15199 151.077 203.817
-11.503 -9.1626 -0.998919 140.921 205.795
5.35137 -11.146 -1.00076 211.867 190.479
7.29737 -12.6726 -1.12505 219.471 183.588
9.89005 -12.7601 -0.96638 230.484 181.915
12.0063 -11.3151 -0.754847 240.159 186.617
9.95392 -10.3574 -0.96317 231.842 191.663
7.57106 -10.3571 -1.10305 221.684 192.866
-4.94117 9.45222 -2.80684 177.293 281.041
-3.44951 7.49184 -5.20526 182.753 275.477
-1.60488 5.92433 -6.84366 189.898 270.392
0.597883 6.05099 -8.57532 199.336 272.167
2.72527 5.72809 -6.75207 208.268 267.615
4.6536 7.12014 -5.08304 217.125 270.325
6.20449 8.98503 -2.684 224.592 274.192
4.75734 10.3071 -3.83392 219.015 281.66
2.89025 11.0682 -5.26088 211.392 287.378
0.826242 11.3129 -6.89945 202.696 291.349
-1.272 11.2113 -5.35191 193.715 289.866
-3.24217 10.6062 -3.90505 185.051 286.407
-1.28741 8.24043 -5.37579 192.306 277.812
0.705071 8.0826 -7.38083 200.717 278.868
2.63894 8.112 -5.17574 208.986 275.346
2.57011 8.27306 -4.42533 208.769 275.075
0.717017 8.36286 -6.14466 200.901 278.428
-1.19734 8.40045 -4.57913 192.767 277.409
3 20 21 23
3 21 22 23
3 0 1 36
3 15 16 45
3 0 17 36
3 16 26 45
3 17 18 37
3 25 26 44
3 17 36 37
3 26 44 45
3 18 19 38
3 24 25 43
3 18 37 38
3 25 43 44
3 19 20 38
3 23 24 43
3 20 21 39
3 22 23 42
3 20 38 39
3 23 42 43
3 21 22 27
3 21 27 39
3 22 27 42
3 27 28 42
3 27 28 39
3 28 42 47
3 28 39 40
3 1 36 41
3 15 45 46
3 1 2 41
3 14 15 46
3 28 29 40
3 28 29 47
3 2 40 41
3 14 46 47
3 2 29 40
3 14 29 47
3 2 3 29
3 13 14 29
3 29 30 31
3 29 30 35
3 3 29 31
3 13 29 35
3 30 32 33
3 30 33 34
3 30 31 32
3 30 34 35
3 3 4 31
3 12 13 35
3 4 5 48
3 11 12 54
3 5 6 48
3 10 11 54
3 6 48 59
3 10 54 55
3 6 7 59
3 9 10 55
3 7 58 59
3 9 55 56
3 8 57 58
3 8 56 57
3 7 8 58
3 8 9 56
3 4 31 48
3 12 35 54
3 31 48 49
3 35 53 54
3 31 49 50
3 35 52 53
3 31 32 50
3 34 35 52
3 32 33 50
3 33 34 52
3 33 50 51
3 33 51 52
3 48 49 60
3 49 60 50
3 50 60 61
3 50 51 61
3 51 52 61
3 61 62 52
3 52 53 62
3 53 54 62
3 54 55 63
3 55 56 63
3 56 63 64
3 56 57 64
3 64 65 57
3 57 58 65
3 58 59 65
3 48 59 65
