ply
format ascii 1.0
element vertex 66
property float x
property float y
property float z
property float u
property float v
element face 91
property list uchar int vertex_indices
end_header
96.9059 276.799 0 96.9059 276.799
100.175 313.794 0 100.175 313.794
105.496 350.189 0 105.496 350.189
114.268 386.145 0 114.268 386.145
128.141 420.563 0 128.141 420.563
149.835 451.211 0 149.835 451.211
177.75 476.185 0 177.75 476.185
210.837 492.995 0 210.837 492.995
247.672 498.447 0 247.672 498.447
285.028 492.71 0 285.028 492.71
318.592 475.846 0 318.592 475.846
346.531 450.307 0 346.531 450.307
367.38 418.551 0 367.38 418.551
379.453 382.567 0 379.453 382.567
386.64 344.726 0 386.64 344.726
390.691 306.627 0 390.691 306.627
392.754 268.058 0 392.754 268.058
118.408 220.272 0 118.408 220.272
135.316 202.838 0 135.316 202.838
159.072 197.549 0 159.072 197.549
183.493 201.169 0 183.493 201.169
206.653 210.093 0 206.653 210.093
279.998 208.336 0 279.998 208.336
303.61 198.505 0 303.61 198.505
328.579 194.152 0 328.579 194.152
353.034 199.224 0 353.034 199.224
370.765 216.808 0 370.765 216.808
243.782 244.45 0 243.782 244.45
244.356 263.234 0 244.356 263.234
244.938 282.35 0 244.938 282.35
245.508 301.595 0 245.508 301.595
224.202 307.821 0 224.202 307.821
234.508 310.545 0 234.508 310.545
245.3 311.649 0 245.3 311.649
256.196 310.041 0 256.196 310.041
266.525 306.952 0 266.525 306.952
153.486 250.155 0 153.486 250.155
167.694 243.07 0 167.694 243.07
184.274 240.864 0 184.274 240.864
199.965 244.172 0 199.965 244.172
185.107 249.02 0 185.107 249.02
169.294 250.7 0 169.294 250.7
287.961 242.613 0 287.961 242.613
303.637 238.515 0 303.637 238.515
320.383 240.222 0 320.383 240.222
334.955 246.698 0 334.955 246.698
319.111 247.791 0 319.111 247.791
303.156 246.777 0 303.156 246.777
204.163 367.883 0 204.163 367.883
211.54 348.476 0 211.54 348.476
226.58 336.647 0 226.58 336.647
245.433 337.522 0 245.433 337.522
264.367 336.009 0 264.367 336.009
279.857 347.528 0 279.857 347.528
288.027 366.614 0 288.027 366.614
276.546 376.851 0 276.546 376.851
262.382 382.63 0 262.382 382.63
245.718 384.852 0 245.718 384.852
229.29 383.152 0 229.29 383.152
215.372 377.731 0 215.372 377.731
228.762 351.379 0 228.762 351.379
245.414 349.917 0 245.414 349.917
262.154 350.834 0 262.154 350.834
261.833 365.56 0 261.833 365.56
245.562 369.225 0 245.562 369.225
229.241 366.045 0 229.241 366.045
3 20 21 23
3 21 22 23
3 0 1 36
3 15 16 45
3 0 17 36
3 16 26 45
3 17 18 37
3 25 26 44
3 17 36 37
3 26 44 45
3 18 19 38
3 24 25 43
3 18 37 38
3 25 43 44
3 19 20 38
3 23 24 43
3 20 21 39
3 22 23 42
3 20 38 39
3 23 42 43
3 21 22 27
3 21 27 39
3 22 27 42
3 27 28 42
3 27 28 39
3 28 42 47
3 28 39 40
3 1 36 41
3 15 45 46
3 1 2 41
3 14 15 46
3 28 29 40
3 28 29 47
3 2 40 41
3 14 46 47
3 2 29 40
3 14 29 47
3 2 3 29
3 13 14 29
3 29 30 31
3 29 30 35
3 3 29 31
3 13 29 35
3 30 32 33
3 30 33 34
3 30 31 32
3 30 34 35
3 3 4 31
3 12 13 35
3 4 5 48
3 11 12 54
3 5 6 48
3 10 11 54
3 6 48 59
3 10 54 55
3 6 7 59
3 9 10 55
3 7 58 59
3 9 55 56
3 8 57 58
3 8 56 57
3 7 8 58
3 8 9 56
3 4 31 48
3 12 35 54
3 31 48 49
3 35 53 54
3 31 49 50
3 35 52 53
3 31 32 50
3 34 35 52
3 32 33 50
3 33 34 52
3 33 50 51
3 33 51 52
3 48 49 60
3 49 60 50
3 50 60 61
3 50 51 61
3 51 52 61
3 61 62 52
3 52 53 62
3 53 54 62
3 54 55 63
3 55 56 63
3 56 63 64
3 56 57 64
3 64 65 57
3 57 58 65
3 58 59 65
3 48 59 65
