ply
format ascii 1.0
element vertex 66
property float x
property float y
property float z
property float u
property float v
element face 91
property list uchar int vertex_indices
end_header
-20.6547 -5.64822 21.3079 255.073 208.493
-20.0519 -0.423649 20.8425 260.86 238.589
-19.1146 4.7667 20.4846 268.969 268.165
-17.7568 9.73356 18.3869 280.212 297.845
-15.6469 14.1974 13.4633 296.696 326.593
-12.4006 17.9009 7.99404 319.389 350.53
-8.27017 20.7526 3.29433 346.034 368.778
-3.55056 22.6779 -0.880153 375.381 381.227
1.65875 22.9008 -4.53572 406.55 383.737
6.75338 21.9412 -0.807894 436.497 373.49
11.0958 19.3665 3.41769 462.222 354.407
14.7165 15.9593 8.15704 484.32 330.576
17.3322 11.8354 13.6544 501.132 301.878
18.7221 7.12069 18.5937 510.252 269.467
19.3316 2.01325 20.7063 513.895 237.058
19.5157 -3.2566 21.0748 514.538 205.416
19.3623 -8.51341 21.5385 512.947 173.814
-16.9434 -14.0024 0.166523 279.465 170.058
-14.6923 -16.1532 -1.56921 292.289 156.873
-11.7473 -17.1684 -2.95979 310.239 149.835
-8.64008 -17.2567 -4.29633 329.9 148.386
-5.61118 -16.6863 -5.52226 349.564 150.85
3.24342 -17.3161 -5.43542 404.745 142.828
6.14406 -18.3113 -4.17859 423.573 135.124
9.21432 -18.6656 -2.80935 443.419 131.325
12.2557 -18.0793 -1.38764 463.065 133.651
14.7675 -16.2699 0.371491 479.307 143.365
-0.800008 -11.6067 -4.9545 380.057 177.757
-0.571382 -8.59445 -7.76035 382.363 198.051
-0.341526 -5.60559 -10.6633 384.723 218.287
-0.111056 -2.62069 -13.4075 387.097 238.342
-3.34691 0.90089 -6.47077 368.343 257.349
-1.6415 1.2941 -7.26957 378.925 259.878
0.142254 1.35258 -8.01839 389.858 260.343
1.89493 1.04463 -7.21848 400.727 257.105
3.5165 0.412997 -6.40175 410.73 251.968
-12.5316 -9.74495 -0.905324 308.684 193.123
-10.6698 -11.0691 -1.10649 319.756 184.057
-8.3451 -11.2534 -1.2279 334.368 181.796
-6.35058 -10.2247 -0.977391 347.733 186.612
-8.3556 -9.50683 -1.10156 335.363 192.029
-10.5048 -9.27615 -1.09011 321.902 194.648
4.83678 -11.0227 -0.887733 416.217 177.175
6.66716 -12.3254 -1.11779 427.976 168.884
8.99246 -12.4738 -0.968074 442.848 167.44
11.0209 -11.4279 -0.742362 456.049 173.376
9.08377 -10.6753 -0.948989 443.538 178.253
6.92444 -10.5977 -0.987214 429.74 179.26
-6.63855 8.84013 -2.74685 348.794 301.047
-4.73902 6.8457 -4.89305 361.026 291.066
-2.32888 5.4219 -6.54708 376.111 283.95
0.427259 5.35547 -8.22771 393.265 284.47
3.15408 5.03248 -6.48681 410.121 279.575
5.72158 6.09946 -4.80547 426.826 282.653
7.86034 7.80446 -2.63884 441.669 289.013
6.14905 9.90529 -3.93286 429.284 300.625
3.75933 11.3254 -5.28293 413.758 308.375
0.883179 11.8243 -6.67982 396.815 312.58
-2.0422 11.738 -5.34336 379.789 312.813
-4.62825 10.6744 -4.02161 363.095 309.286
-2.38864 7.57584 -5.20395 376.299 295.147
0.55887 7.21472 -7.41824 394.552 294.739
3.50364 7.15671 -5.14457 412.69 290.439
3.65722 8.62822 -4.49552 413.029 293.053
0.689237 9.10764 -6.42523 394.812 297.408
-2.33557 9.05505 -4.5521 376.466 297.804
3 20 21 23
3 21 22 23
3 0 1 36
3 15 16 45
3 0 17 36
3 16 26 45
3 17 18 37
3 25 26 44
3 17 36 37
3 26 44 45
3 18 19 38
3 24 25 43
3 18 37 38
3 25 43 44
3 19 20 38
3 23 24 43
3 20 21 39
3 22 23 42
3 20 38 39
3 23 42 43
3 21 22 27
3 21 27 39
3 22 27 42
3 27 28 42
3 27 28 39
3 28 42 47
3 28 39 40
3 1 36 41
3 15 45 46
3 1 2 41
3 14 15 46
3 28 29 40
3 28 29 47
3 2 40 41
3 14 46 47
3 2 29 40
3 14 29 47
3 2 3 29
3 13 14 29
3 29 30 31
3 29 30 35
3 3 29 31
3 13 29 35
3 30 32 33
3 30 33 34
3 30 31 32
3 30 34 35
3 3 4 31
3 12 13 35
3 4 5 48
3 11 12 54
3 5 6 48
3 10 11 54
3 6 48 59
3 10 54 55
3 6 7 59
3 9 10 55
3 7 58 59
3 9 55 56
3 8 57 58
3 8 56 57
3 7 8 58
3 8 9 56
3 4 31 48
3 12 35 54
3 31 48 49
3 35 53 54
3 31 49 50
3 35 52 53
3 31 32 50
3 34 35 52
3 32 33 50
3 33 34 52
3 33 50 51
3 33 51 52
3 48 49 60
3 49 60 50
3 50 60 61
3 50 51 61
3 51 52 61
3 61 62 52
3 52 53 62
3 53 54 62
3 54 55 63
3 55 56 63
3 56 63 64
3 56 57 64
3 64 65 57
3 57 58 65
3 58 59 65
3 48 59 65
