ply
format ascii 1.0
element vertex 66
property float x
property float y
property float z
property float u
property float v
element face 91
property list uchar int vertex_indices
end_header
-21.8432 -4.99523 21.3123 255.073 208.493
-21.1528 -0.0400109 20.8729 260.86 238.589
-20.0786 4.85921 20.5314 268.969 268.165
-18.4771 9.62313 18.3808 280.212 297.845
-15.9852 13.9936 13.3553 296.696 326.593
-12.4324 17.5897 7.96209 319.389 350.53
-8.19141 20.3725 3.46201 346.034 368.778
-3.45993 22.247 -0.81368 375.381 381.227
1.6504 22.564 -4.47027 406.55 383.737
6.60809 21.5008 -0.778899 436.497 373.49
10.9458 19.0134 3.56558 462.222 354.407
14.729 15.7363 8.13601 484.32 330.576
17.6817 11.7018 13.5949 501.132 301.878
19.4108 6.95519 18.6932 510.252 269.467
20.2686 1.87314 20.8769 513.895 237.058
20.6441 -3.28381 21.292 514.538 205.416
20.6533 -8.44919 21.748 512.947 173.814
-17.3375 -13.2058 0.138517 279.465 170.058
-15.1093 -15.4434 -1.66796 292.289 156.873
-12.0992 -16.585 -3.0592 310.239 149.835
-8.85795 -16.7838 -4.35734 329.9 148.386
-5.65163 -16.3239 -5.50159 349.564 150.85
3.44688 -17.1577 -5.36814 404.745 142.828
6.58474 -18.1481 -4.20275 423.573 135.124
9.85372 -18.4698 -2.85748 443.419 131.325
13.0363 -17.7776 -1.42806 463.065 133.651
15.5948 -15.8632 0.366539 479.307 143.365
-0.899609 -11.5755 -4.87064 380.057 177.757
-0.673378 -8.50148 -7.72512 382.363 198.051
-0.436695 -5.44987 -10.7162 384.723 218.287
-0.197544 -2.41092 -13.5354 387.097 238.342
-3.49084 1.24699 -6.54529 368.343 257.349
-1.77418 1.6746 -7.34187 378.925 259.878
0.0175802 1.7669 -8.12528 389.858 260.343
1.81742 1.40746 -7.31656 400.727 257.105
3.49171 0.729779 -6.49459 410.73 251.968
-12.7466 -9.26433 -0.886619 308.684 193.123
-10.8538 -10.6891 -1.17404 319.756 184.057
-8.44226 -10.9469 -1.2848 334.368 181.796
-6.29918 -10.0114 -0.990934 347.733 186.612
-8.36974 -9.2335 -1.06197 335.363 192.029
-10.5952 -8.9204 -1.0873 321.902 194.648
4.98862 -10.9662 -0.876307 416.217 177.175
6.98689 -12.2549 -1.13834 427.976 168.884
9.43188 -12.3507 -0.992016 442.848 167.44
11.5382 -11.2324 -0.698104 456.049 173.376
9.45057 -10.5594 -0.918878 443.538 178.253
7.18394 -10.5131 -0.931535 429.74 179.26
-7.10069 8.64348 -2.73519 348.794 301.047
-4.99425 6.89546 -4.86745 361.026 291.066
-2.45013 5.69129 -6.51191 376.111 283.95
0.366289 5.76599 -8.10223 393.265 284.47
3.15349 5.26242 -6.51541 410.121 279.575
5.84602 6.079 -4.82606 426.826 282.653
8.20123 7.46883 -2.63588 441.669 289.013
6.08477 9.14861 -3.88596 429.284 300.625
3.48858 10.1546 -5.25465 413.758 308.375
0.691013 10.5686 -6.59207 396.815 312.58
-2.1086 10.593 -5.26442 379.789 312.813
-4.82142 10.0023 -3.93015 363.095 309.286
-2.52613 7.6505 -5.33863 376.299 295.147
0.482337 7.53253 -7.42752 394.552 294.739
3.46993 7.18576 -5.35731 412.69 290.439
3.49631 7.69272 -4.60919 413.029 293.053
0.494641 8.05466 -6.61012 394.812 297.408
-2.52811 8.16142 -4.60681 376.466 297.804
3 20 21 23
3 21 22 23
3 0 1 36
3 15 16 45
3 0 17 36
3 16 26 45
3 17 18 37
3 25 26 44
3 17 36 37
3 26 44 45
3 18 19 38
3 24 25 43
3 18 37 38
3 25 43 44
3 19 20 38
3 23 24 43
3 20 21 39
3 22 23 42
3 20 38 39
3 23 42 43
3 21 22 27
3 21 27 39
3 22 27 42
3 27 28 42
3 27 28 39
3 28 42 47
3 28 39 40
3 1 36 41
3 15 45 46
3 1 2 41
3 14 15 46
3 28 29 40
3 28 29 47
3 2 40 41
3 14 46 47
3 2 29 40
3 14 29 47
3 2 3 29
3 13 14 29
3 29 30 31
3 29 30 35
3 3 29 31
3 13 29 35
3 30 32 33
3 30 33 34
3 30 31 32
3 30 34 35
3 3 4 31
3 12 13 35
3 4 5 48
3 11 12 54
3 5 6 48
3 10 11 54
3 6 48 59
3 10 54 55
3 6 7 59
3 9 10 55
3 7 58 59
3 9 55 56
3 8 57 58
3 8 56 57
3 7 8 58
3 8 9 56
3 4 31 48
3 12 35 54
3 31 48 49
3 35 53 54
3 31 49 50
3 35 52 53
3 31 32 50
3 34 35 52
3 32 33 50
3 33 34 52
3 33 50 51
3 33 51 52
3 48 49 60
3 49 60 50
3 50 60 61
3 50 51 61
3 51 52 61
3 61 62 52
3 52 53 62
3 53 54 62
3 54 55 63
3 55 56 63
3 56 63 64
3 56 57 64
3 64 65 57
3 57 58 65
3 58 59 65
3 48 59 65
