ply
format ascii 1.0
element vertex 66
property float x
property float y
property float z
property float u
property float v
element face 91
property list uchar int vertex_indices
end_header
-20.6962 -6.1073 21.2925 97.5385 319.099
-20.0594 -0.80802 21.0375 106.013 361.986
-19.0729 4.42681 20.6208 117.29 404.322
-17.6916 9.50058 18.4909 131.48 447.039
-15.6347 14.215 13.486 150.611 489.664
-12.4466 18.2632 8.05176 178.532 526.691
-8.33154 21.4501 3.46842 213.612 555.221
-3.54842 23.5869 -0.855972 253.542 574.544
1.75497 23.9664 -4.62599 296.708 578.68
6.93314 22.9718 -0.807454 338.962 563.226
11.358 20.3195 3.57716 374.091 534.141
14.9477 16.6639 8.19477 401.789 497.159
17.4569 12.2487 13.671 420.281 453.697
18.7033 7.27391 18.7551 428.037 406.893
19.2746 1.9992 20.8733 429.704 361.391
19.4928 -3.38282 21.3253 428.201 317.1
19.3816 -8.77274 21.5916 423.973 273.151
-17.4138 -13.3703 0.0308908 117.18 282.097
-15.089 -15.4454 -1.67733 134.702 265.792
-12.0394 -16.2477 -3.09684 158.984 259.053
-8.88262 -16.1609 -4.5323 184.695 259.478
-5.81066 -15.5145 -5.79866 210.081 264.304
3.22131 -16.092 -5.698 283.665 254.1
6.26568 -17.1878 -4.40791 308.067 241.941
9.46526 -17.715 -2.96384 334.113 234.128
12.6737 -17.2834 -1.53687 360.826 234.106
15.2945 -15.4473 0.241261 383.647 245.433
-0.935159 -11.9753 -5.02153 252.288 289.219
-0.689988 -9.20035 -7.77315 255.67 314.668
-0.443034 -6.4432 -10.591 259.047 340.047
-0.190658 -3.69592 -13.2862 262.477 365.205
-3.02968 0.124801 -6.16567 242.522 389.899
-1.49568 0.376604 -7.15711 255.109 392.136
0.0839935 0.388678 -8.1267 267.923 392.377
1.65867 0.129969 -7.11967 280.78 388.205
3.1363 -0.362919 -6.14491 292.693 382.228
-13.102 -9.68986 -1.07081 154.622 310.604
-11.1898 -11.1 -1.18058 169.384 298.145
-8.76171 -11.3949 -1.15315 189.079 294.269
-6.61993 -10.512 -0.985359 207.18 299.959
-8.68905 -9.65601 -1.10921 190.76 308.28
-10.9536 -9.3203 -1.077 172.436 312.322
4.8211 -11.2952 -0.86327 300.359 286.62
6.8247 -12.4875 -1.07501 315.991 275.988
9.27404 -12.5334 -1.07096 336.011 274.145
11.3826 -11.4356 -0.905418 353.975 281.601
9.3018 -10.7629 -0.928793 337.358 288.328
7.00496 -10.7637 -0.967026 318.552 289.74
-5.74289 9.23379 -2.83746 226.402 461.668
-4.31046 6.81923 -4.90675 236.362 443.549
-2.17996 5.02844 -6.55163 252.477 429.596
0.485654 4.98471 -8.12273 274.069 429.409
3.13653 4.63525 -6.49727 295.758 423.163
5.51056 6.08433 -4.8375 316.303 431.631
7.3001 8.23476 -2.74409 332.555 445.651
5.62043 9.83003 -3.92766 319.647 460.925
3.43772 10.7811 -5.36891 302.188 471.564
0.953117 11.1538 -6.79638 281.901 477.676
-1.55102 11.1553 -5.41528 261.58 477.638
-3.84594 10.5439 -3.9963 242.596 472.459
-1.88476 7.45234 -5.17246 256.577 447.53
0.641479 7.09155 -7.12905 276.781 445.288
3.1901 7.064 -5.16095 297.877 441.329
3.1697 7.83036 -4.55061 298.264 446.872
0.724298 8.13887 -6.36648 278.208 452.877
-1.74421 8.19662 -4.55286 258.269 452.787
3 20 21 23
3 21 22 23
3 0 1 36
3 15 16 45
3 0 17 36
3 16 26 45
3 17 18 37
3 25 26 44
3 17 36 37
3 26 44 45
3 18 19 38
3 24 25 43
3 18 37 38
3 25 43 44
3 19 20 38
3 23 24 43
3 20 21 39
3 22 23 42
3 20 38 39
3 23 42 43
3 21 22 27
3 21 27 39
3 22 27 42
3 27 28 42
3 27 28 39
3 28 42 47
3 28 39 40
3 1 36 41
3 15 45 46
3 1 2 41
3 14 15 46
3 28 29 40
3 28 29 47
3 2 40 41
3 14 46 47
3 2 29 40
3 14 29 47
3 2 3 29
3 13 14 29
3 29 30 31
3 29 30 35
3 3 29 31
3 13 29 35
3 30 32 33
3 30 33 34
3 30 31 32
3 30 34 35
3 3 4 31
3 12 13 35
3 4 5 48
3 11 12 54
3 5 6 48
3 10 11 54
3 6 48 59
3 10 54 55
3 6 7 59
3 9 10 55
3 7 58 59
3 9 55 56
3 8 57 58
3 8 56 57
3 7 8 58
3 8 9 56
3 4 31 48
3 12 35 54
3 31 48 49
3 35 53 54
3 31 49 50
3 35 52 53
3 31 32 50
3 34 35 52
3 32 33 50
3 33 34 52
3 33 50 51
3 33 51 52
3 48 49 60
3 49 60 50
3 50 60 61
3 50 51 61
3 51 52 61
3 61 62 52
3 52 53 62
3 53 54 62
3 54 55 63
3 55 56 63
3 56 63 64
3 56 57 64
3 64 65 57
3 57 58 65
3 58 59 65
3 48 59 65
