ply
format ascii 1.0
element vertex 66
property float x
property float y
property float z
property float u
property float v
element face 91
property list uchar int vertex_indices
end_header
97.5385 319.099 0 97.5385 319.099
106.013 361.986 0 106.013 361.986
117.29 404.322 0 117.29 404.322
131.48 447.039 0 131.48 447.039
150.611 489.664 0 150.611 489.664
178.532 526.691 0 178.532 526.691
213.612 555.221 0 213.612 555.221
253.542 574.544 0 253.542 574.544
296.708 578.68 0 296.708 578.68
338.962 563.226 0 338.962 563.226
374.091 534.141 0 374.091 534.141
401.789 497.159 0 401.789 497.159
420.281 453.697 0 420.281 453.697
428.037 406.893 0 428.037 406.893
429.704 361.391 0 429.704 361.391
428.201 317.1 0 428.201 317.1
423.973 273.151 0 423.973 273.151
117.18 282.097 0 117.18 282.097
134.702 265.792 0 134.702 265.792
158.984 259.053 0 158.984 259.053
184.695 259.478 0 184.695 259.478
210.081 264.304 0 210.081 264.304
283.665 254.1 0 283.665 254.1
308.067 241.941 0 308.067 241.941
334.113 234.128 0 334.113 234.128
360.826 234.106 0 360.826 234.106
383.647 245.433 0 383.647 245.433
252.288 289.219 0 252.288 289.219
255.67 314.668 0 255.67 314.668
259.047 340.047 0 259.047 340.047
262.477 365.205 0 262.477 365.205
242.522 389.899 0 242.522 389.899
255.109 392.136 0 255.109 392.136
267.923 392.377 0 267.923 392.377
280.78 388.205 0 280.78 388.205
292.693 382.228 0 292.693 382.228
154.622 310.604 0 154.622 310.604
169.384 298.145 0 169.384 298.145
189.079 294.269 0 189.079 294.269
207.18 299.959 0 207.18 299.959
190.76 308.28 0 190.76 308.28
172.436 312.322 0 172.436 312.322
300.359 286.62 0 300.359 286.62
315.991 275.988 0 315.991 275.988
336.011 274.145 0 336.011 274.145
353.975 281.601 0 353.975 281.601
337.358 288.328 0 337.358 288.328
318.552 289.74 0 318.552 289.74
226.402 461.668 0 226.402 461.668
236.362 443.549 0 236.362 443.549
252.477 429.596 0 252.477 429.596
274.069 429.409 0 274.069 429.409
295.758 423.163 0 295.758 423.163
316.303 431.631 0 316.303 431.631
332.555 445.651 0 332.555 445.651
319.647 460.925 0 319.647 460.925
302.188 471.564 0 302.188 471.564
281.901 477.676 0 281.901 477.676
261.58 477.638 0 261.58 477.638
242.596 472.459 0 242.596 472.459
256.577 447.53 0 256.577 447.53
276.781 445.288 0 276.781 445.288
297.877 441.329 0 297.877 441.329
298.264 446.872 0 298.264 446.872
278.208 452.877 0 278.208 452.877
258.269 452.787 0 258.269 452.787
3 20 21 23
3 21 22 23
3 0 1 36
3 15 16 45
3 0 17 36
3 16 26 45
3 17 18 37
3 25 26 44
3 17 36 37
3 26 44 45
3 18 19 38
3 24 25 43
3 18 37 38
3 25 43 44
3 19 20 38
3 23 24 43
3 20 21 39
3 22 23 42
3 20 38 39
3 23 42 43
3 21 22 27
3 21 27 39
3 22 27 42
3 27 28 42
3 27 28 39
3 28 42 47
3 28 39 40
3 1 36 41
3 15 45 46
3 1 2 41
3 14 15 46
3 28 29 40
3 28 29 47
3 2 40 41
3 14 46 47
3 2 29 40
3 14 29 47
3 2 3 29
3 13 14 29
3 29 30 31
3 29 30 35
3 3 29 31
3 13 29 35
3 30 32 33
3 30 33 34
3 30 31 32
3 30 34 35
3 3 4 31
3 12 13 35
3 4 5 48
3 11 12 54
3 5 6 48
3 10 11 54
3 6 48 59
3 10 54 55
3 6 7 59
3 9 10 55
3 7 58 59
3 9 55 56
3 8 57 58
3 8 56 57
3 7 8 58
3 8 9 56
3 4 31 48
3 12 35 54
3 31 48 49
3 35 53 54
3 31 49 50
3 35 52 53
3 31 32 50
3 34 35 52
3 32 33 50
3 33 34 52
3 33 50 51
3 33 51 52
3 48 49 60
3 49 60 50
3 50 60 61
3 50 51 61
3 51 52 61
3 61 62 52
3 52 53 62
3 53 54 62
3 54 55 63
3 55 56 63
3 56 63 64
3 56 57 64
3 64 65 57
3 57 58 65
3 58 59 65
3 48 59 65
