ply
format ascii 1.0
element vertex 66
property float x
property float y
property float z
property float u
property float v
element face 91
property list uchar int vertex_indices
end_header
105.977 197.429 0 105.977 197.429
112.451 218.081 0 112.451 218.081
120.309 238.132 0 120.309 238.132
128.734 259.533 0 128.734 259.533
138.827 282.672 0 138.827 282.672
152.719 303.036 0 152.719 303.036
169.713 319.168 0 169.713 319.168
188.987 330.733 0 188.987 330.733
209.646 334.536 0 209.646 334.536
230.605 323.903 0 230.605 323.903
247.124 305.798 0 247.124 305.798
259.338 283.628 0 259.338 283.628
267.427 258.65 0 267.427 258.65
271.244 233.195 0 271.244 233.195
272.64 210.638 0 272.64 210.638
272.766 189.917 0 272.766 189.917
271.023 169.085 0 271.023 169.085
109.029 188.395 0 109.029 188.395
115.178 179.299 0 115.178 179.299
126.274 174.023 0 126.274 174.023
139.22 173.261 0 139.22 173.261
152.428 174.887 0 152.428 174.887
208.174 166.919 0 208.174 166.919
219.766 161.271 0 219.766 161.271
232.09 157.782 0 232.09 157.782
244.355 158.442 0 244.355 158.442
253.957 163.946 0 253.957 163.946
187.253 196.867 0 187.253 196.867
189.579 212.776 0 189.579 212.776
191.846 228.416 0 191.846 228.416
194.072 243.518 0 194.072 243.518
184.448 251.503 0 184.448 251.503
190.845 252.658 0 190.845 252.658
197.24 253.114 0 197.24 253.114
203.044 250.711 0 203.044 250.711
208.576 247.624 0 208.576 247.624
131.215 203.665 0 131.215 203.665
138.826 196.198 0 138.826 196.198
149.877 194.129 0 149.877 194.129
159.775 198.403 0 159.775 198.403
151.077 203.817 0 151.077 203.817
140.921 205.795 0 140.921 205.795
211.867 190.479 0 211.867 190.479
219.471 183.588 0 219.471 183.588
230.484 181.915 0 230.484 181.915
240.159 186.617 0 240.159 186.617
231.842 191.663 0 231.842 191.663
221.684 192.866 0 221.684 192.866
177.293 281.041 0 177.293 281.041
182.753 275.477 0 182.753 275.477
189.898 270.392 0 189.898 270.392
199.336 272.167 0 199.336 272.167
208.268 267.615 0 208.268 267.615
217.125 270.325 0 217.125 270.325
224.592 274.192 0 224.592 274.192
219.015 281.66 0 219.015 281.66
211.392 287.378 0 211.392 287.378
202.696 291.349 0 202.696 291.349
193.715 289.866 0 193.715 289.866
185.051 286.407 0 185.051 286.407
192.306 277.812 0 192.306 277.812
200.717 278.868 0 200.717 278.868
208.986 275.346 0 208.986 275.346
208.769 275.075 0 208.769 275.075
200.901 278.428 0 200.901 278.428
192.767 277.409 0 192.767 277.409
3 20 21 23
3 21 22 23
3 0 1 36
3 15 16 45
3 0 17 36
3 16 26 45
3 17 18 37
3 25 26 44
3 17 36 37
3 26 44 45
3 18 19 38
3 24 25 43
3 18 37 38
3 25 43 44
3 19 20 38
3 23 24 43
3 20 21 39
3 22 23 42
3 20 38 39
3 23 42 43
3 21 22 27
3 21 27 39
3 22 27 42
3 27 28 42
3 27 28 39
3 28 42 47
3 28 39 40
3 1 36 41
3 15 45 46
3 1 2 41
3 14 15 46
3 28 29 40
3 28 29 47
3 2 40 41
3 14 46 47
3 2 29 40
3 14 29 47
3 2 3 29
3 13 14 29
3 29 30 31
3 29 30 35
3 3 29 31
3 13 29 35
3 30 32 33
3 30 33 34
3 30 31 32
3 30 34 35
3 3 4 31
3 12 13 35
3 4 5 48
3 11 12 54
3 5 6 48
3 10 11 54
3 6 48 59
3 10 54 55
3 6 7 59
3 9 10 55
3 7 58 59
3 9 55 56
3 8 57 58
3 8 56 57
3 7 8 58
3 8 9 56
3 4 31 48
3 12 35 54
3 31 48 49
3 35 53 54
3 31 49 50
3 35 52 53
3 31 32 50
3 34 35 52
3 32 33 50
3 33 34 52
3 33 50 51
3 33 51 52
3 48 49 60
3 49 60 50
3 50 60 61
3 50 51 61
3 51 52 61
3 61 62 52
3 52 53 62
3 53 54 62
3 54 55 63
3 55 56 63
3 56 63 64
3 56 57 64
3 64 65 57
3 57 58 65
3 58 59 65
3 48 59 65
