ply
format ascii 1.0
element vertex 66
property float x
property float y
property float z
property float u
property float v
element face 91
property list uchar int vertex_indices
end_header
107.429 234.612 0 107.429 234.612
110.354 263.888 0 110.354 263.888
115.027 292.926 0 115.027 292.926
121.334 323.499 0 121.334 323.499
131.997 355.221 0 131.997 355.221
150.342 383.067 0 150.342 383.067
174.274 404.587 0 174.274 404.587
201.428 420.653 0 201.428 420.653
231.013 427.048 0 231.013 427.048
260.666 418.515 0 260.666 418.515
287.243 400.657 0 287.243 400.657
310.028 377.38 0 310.028 377.38
326.644 348.087 0 326.644 348.087
335.082 315.439 0 335.082 315.439
338.972 284.339 0 338.972 284.339
341.22 254.893 0 341.22 254.893
341.793 225.342 0 341.793 225.342
126.157 223.783 0 126.157 223.783
141.631 215.738 0 141.631 215.738
160.374 214.734 0 160.374 214.734
179.168 218.4 0 179.168 218.4
197.09 225.152 0 197.09 225.152
246.888 223.478 0 246.888 223.478
264.83 215.612 0 264.83 215.612
283.836 210.828 0 283.836 210.828
303.043 211.011 0 303.043 211.011
319.287 218.483 0 319.287 218.483
222.992 249.998 0 222.992 249.998
223.682 271.676 0 223.682 271.676
224.361 293.475 0 224.361 293.475
225.061 315.031 0 225.061 315.031
205.782 321.98 0 205.782 321.98
215.667 325.975 0 215.667 325.975
226.084 327.769 0 226.084 327.769
236.492 325.172 0 236.492 325.172
246.181 320.429 0 246.181 320.429
150.466 249.147 0 150.466 249.147
162.984 241.351 0 162.984 241.351
178.348 241.775 0 178.348 241.775
190.729 250.204 0 190.729 250.204
177.33 253.451 0 177.33 253.451
163.313 253.904 0 163.313 253.904
255.828 248.07 0 255.828 248.07
267.493 238.837 0 267.493 238.837
282.817 237.399 0 282.817 237.399
295.967 244.264 0 295.967 244.264
283.439 249.823 0 283.439 249.823
269.425 250.346 0 269.425 250.346
180.837 351.927 0 180.837 351.927
195.347 346.949 0 195.347 346.949
211.031 344.571 0 211.031 344.571
226.984 347.809 0 226.984 347.809
243.004 343.388 0 243.004 343.388
259.231 344.586 0 259.231 344.586
274.624 348.409 0 274.624 348.409
261.752 360.24 0 261.752 360.24
245.456 367.662 0 245.456 367.662
228.207 370.807 0 228.207 370.807
210.972 368.997 0 210.972 368.997
194.386 362.805 0 194.386 362.805
208.103 353.38 0 208.103 353.38
227.417 356.271 0 227.417 356.271
246.896 351.935 0 246.896 351.935
247.452 352.979 0 247.452 352.979
227.546 356.261 0 227.546 356.261
207.819 354.436 0 207.819 354.436
3 20 21 23
3 21 22 23
3 0 1 36
3 15 16 45
3 0 17 36
3 16 26 45
3 17 18 37
3 25 26 44
3 17 36 37
3 26 44 45
3 18 19 38
3 24 25 43
3 18 37 38
3 25 43 44
3 19 20 38
3 23 24 43
3 20 21 39
3 22 23 42
3 20 38 39
3 23 42 43
3 21 22 27
3 21 27 39
3 22 27 42
3 27 28 42
3 27 28 39
3 28 42 47
3 28 39 40
3 1 36 41
3 15 45 46
3 1 2 41
3 14 15 46
3 28 29 40
3 28 29 47
3 2 40 41
3 14 46 47
3 2 29 40
3 14 29 47
3 2 3 29
3 13 14 29
3 29 30 31
3 29 30 35
3 3 29 31
3 13 29 35
3 30 32 33
3 30 33 34
3 30 31 32
3 30 34 35
3 3 4 31
3 12 13 35
3 4 5 48
3 11 12 54
3 5 6 48
3 10 11 54
3 6 48 59
3 10 54 55
3 6 7 59
3 9 10 55
3 7 58 59
3 9 55 56
3 8 57 58
3 8 56 57
3 7 8 58
3 8 9 56
3 4 31 48
3 12 35 54
3 31 48 49
3 35 53 54
3 31 49 50
3 35 52 53
3 31 32 50
3 34 35 52
3 32 33 50
3 33 34 52
3 33 50 51
3 33 51 52
3 48 49 60
3 49 60 50
3 50 60 61
3 50 51 61
3 51 52 61
3 61 62 52
3 52 53 62
3 53 54 62
3 54 55 63
3 55 56 63
3 56 63 64
3 56 57 64
3 64 65 57
3 57 58 65
3 58 59 65
3 48 59 65
