ply
format ascii 1.0
element vertex 66
property float x
property float y
property float z
property float u
property float v
element face 91
property list uchar int vertex_indices
end_header
-20.6547 -5.64822 21.3079 340.803 76.8303
-20.0519 -0.423649 20.8425 341.408 86.6483
-19.1146 4.7667 20.4846 342.542 96.4362
-17.7568 9.73356 18.3869 344.579 106.047
-15.6469 14.1974 13.4633 348.261 115.248
-12.4006 17.9009 7.99404 354.222 123.435
-8.27017 20.7526 3.29433 362.025 130.029
-3.55056 22.6779 -0.880153 371.162 134.769
1.65875 22.9008 -4.53572 381.42 136.226
6.75338 21.9412 -0.807894 391.106 134.68
11.0958 19.3665 3.41769 399.618 129.98
14.7165 15.9593 8.15704 406.645 123.295
17.3322 11.8354 13.6544 411.351 114.777
18.7221 7.12069 18.5937 413.37 104.893
19.3316 2.01325 20.7063 414.245 94.4274
19.5157 -3.2566 21.0748 414.63 83.7932
19.3623 -8.51341 21.5385 414.514 73.1693
-16.9434 -14.0024 0.166523 350.361 65.459
-14.6923 -16.1532 -1.56921 354.701 62.2037
-11.7473 -17.1684 -2.95979 360.038 60.9453
-8.64008 -17.2567 -4.29633 365.522 61.112
-5.61118 -16.6863 -5.52226 370.807 62.3186
3.24342 -17.3161 -5.43542 387.691 61.2469
6.14406 -18.3113 -4.17859 392.784 59.3443
9.21432 -18.6656 -2.80935 398.146 58.5428
12.2557 -18.0793 -1.38764 403.522 59.2103
14.7675 -16.2699 0.371491 408.106 61.9851
-0.800008 -11.6067 -4.9545 379.625 70.323
-0.571382 -8.59445 -7.76035 380.275 76.5146
-0.341526 -5.60559 -10.6633 380.94 82.6716
-0.111056 -2.62069 -13.4075 381.575 88.8064
-3.34691 0.90089 -6.47077 374.738 93.7036
-1.6415 1.2941 -7.26957 377.805 94.5818
0.142254 1.35258 -8.01839 381.039 94.8745
1.89493 1.04463 -7.21848 384.133 94.2906
3.5165 0.412997 -6.40175 387.018 93.1352
-12.5316 -9.74495 -0.905324 357.6 73.0909
-10.6698 -11.0691 -1.10649 361.022 70.9112
-8.3451 -11.2534 -1.2279 365.145 70.5927
-6.35058 -10.2247 -0.977391 368.722 72.1825
-8.3556 -9.50683 -1.10156 365.14 73.3649
-10.5048 -9.27615 -1.09011 361.277 73.7521
4.83678 -11.0227 -0.887733 389.949 71.0538
6.66716 -12.3254 -1.11779 393.461 68.9464
8.99246 -12.4738 -0.968074 397.68 68.858
11.0209 -11.4279 -0.742362 401.401 70.6196
9.08377 -10.6753 -0.948989 397.776 71.7233
6.92444 -10.5977 -0.987214 393.804 71.7953
-6.63855 8.84013 -2.74685 367.867 107.851
-4.73902 6.8457 -4.89305 371.913 105.146
-2.32888 5.4219 -6.54708 376.461 103.431
0.427259 5.35547 -8.22771 381.261 103.85
3.15408 5.03248 -6.48681 385.707 103.093
5.72158 6.09946 -4.80547 390.044 104.516
7.86034 7.80446 -2.63884 393.925 106.837
6.14905 9.90529 -3.93286 390.542 110.348
3.75933 11.3254 -5.28293 386.123 112.5
0.883179 11.8243 -6.67982 381.144 113.187
-2.0422 11.738 -5.34336 376.039 112.826
-4.62825 10.6744 -4.02161 371.443 111.019
-2.38864 7.57584 -5.20395 375.963 106.907
0.55887 7.21472 -7.41824 381.173 106.917
3.50364 7.15671 -5.14457 385.903 106.545
3.65722 8.62822 -4.49552 385.919 107.674
0.689237 9.10764 -6.42523 381.001 108.296
-2.33557 9.05505 -4.5521 375.725 108.03
3 20 21 23
3 21 22 23
3 0 1 36
3 15 16 45
3 0 17 36
3 16 26 45
3 17 18 37
3 25 26 44
3 17 36 37
3 26 44 45
3 18 19 38
3 24 25 43
3 18 37 38
3 25 43 44
3 19 20 38
3 23 24 43
3 20 21 39
3 22 23 42
3 20 38 39
3 23 42 43
3 21 22 27
3 21 27 39
3 22 27 42
3 27 28 42
3 27 28 39
3 28 42 47
3 28 39 40
3 1 36 41
3 15 45 46
3 1 2 41
3 14 15 46
3 28 29 40
3 28 29 47
3 2 40 41
3 14 46 47
3 2 29 40
3 14 29 47
3 2 3 29
3 13 14 29
3 29 30 31
3 29 30 35
3 3 29 31
3 13 29 35
3 30 32 33
3 30 33 34
3 30 31 32
3 30 34 35
3 3 4 31
3 12 13 35
3 4 5 48
3 11 12 54
3 5 6 48
3 10 11 54
3 6 48 59
3 10 54 55
3 6 7 59
3 9 10 55
3 7 58 59
3 9 55 56
3 8 57 58
3 8 56 57
3 7 8 58
3 8 9 56
3 4 31 48
3 12 35 54
3 31 48 49
3 35 53 54
3 31 49 50
3 35 52 53
3 31 32 50
3 34 35 52
3 32 33 50
3 33 34 52
3 33 50 51
3 33 51 52
3 48 49 60
3 49 60 50
3 50 60 61
3 50 51 61
3 51 52 61
3 61 62 52
3 52 53 62
3 53 54 62
3 54 55 63
3 55 56 63
3 56 63 64
3 56 57 64
3 64 65 57
3 57 58 65
3 58 59 65
3 48 59 65
