ply
format ascii 1.0
element vertex 66
property float x
property float y
property float z
property float u
property float v
element face 91
property list uchar int vertex_indices
end_header
-20.7403 -4.90475 21.4449 52.4875 178.716
-19.7718 0.0439977 20.9468 56.1951 202.752
-18.4606 4.92662 20.5331 61.564 226.468
-16.949 9.61126 18.4401 67.9321 250.735
-14.8062 13.8162 13.485 77.4234 275.325
-11.6591 17.3658 8.06308 91.8712 297.408
-7.77773 20.2547 3.41318 109.981 315.835
-3.29353 22.229 -0.974198 131.167 329.82
1.71432 22.4287 -4.41663 155.215 334.69
6.5713 21.5145 -0.958585 178.765 328.294
10.6414 18.9591 3.4999 198.848 313.117
13.9908 15.591 8.2155 215.619 293.735
16.4806 11.6502 13.7023 228.366 270.813
17.8773 7.17952 18.6633 235.955 245.631
18.6528 2.31135 20.8027 240.626 220.887
19.2486 -2.73006 21.2439 244.462 196.758
19.5082 -7.78865 21.7604 246.685 172.418
-17.96 -14.5124 0.279136 67.6682 152.061
-15.3134 -16.5474 -1.4253 80.7891 144.403
-12.0312 -17.3125 -2.88252 96.7247 142.663
-8.68094 -17.199 -4.27712 112.819 145.041
-5.44906 -16.4519 -5.52633 128.222 150.268
3.05023 -17.0424 -5.46378 169.227 149.03
6.13423 -18.2766 -4.16499 184.304 142.65
9.42775 -18.8976 -2.71882 200.272 139.085
12.7901 -18.6448 -1.22282 216.403 139.625
15.72 -17.0432 0.475181 230.195 146.294
-0.821908 -11.506 -4.86923 149.534 173.986
-0.56831 -8.14162 -7.79393 150.102 192.486
-0.31245 -4.81318 -10.8627 150.687 210.94
-0.0547728 -1.48619 -13.7006 151.282 229.188
-3.33092 1.83364 -6.67084 134.896 238.205
-1.62997 2.33146 -7.49885 142.982 241.599
0.168809 2.4291 -8.22166 151.616 243.026
1.95227 2.07566 -7.4847 160.266 241.054
3.57951 1.33868 -6.61078 168.238 237.119
-13.6115 -10.134 -0.579044 87.7465 174.349
-11.5219 -11.7465 -0.939322 98.1091 167.425
-8.86201 -11.8885 -1.24115 110.933 167.517
-6.67178 -10.4628 -1.15529 121.197 174.606
-8.96142 -9.82004 -1.10594 110.057 177.172
-11.3681 -9.58587 -0.988419 98.4336 177.722
5.24342 -11.3422 -1.09896 178.692 172.652
7.21662 -13.0717 -1.12416 188.518 164.862
9.87186 -13.2955 -0.781139 201.336 164.009
12.1692 -11.9972 -0.393535 212.14 170.254
10.0236 -11.1405 -0.846417 201.652 174.294
7.60552 -11.0224 -1.01405 189.995 174.54
-7.06016 8.93631 -2.76697 115.596 267.742
-4.83342 7.25815 -4.96225 126.628 262.118
-2.27451 6.13744 -6.61423 139.151 258.726
0.450747 6.15477 -8.38601 152.256 260.855
3.13857 5.7556 -6.59007 165.268 257.923
5.82027 6.51134 -4.90437 178.028 260.551
8.25931 7.85218 -2.70697 189.509 265.461
6.22192 9.69305 -3.9684 179.351 274.878
3.62232 10.8058 -5.12186 166.627 280.649
0.803344 11.206 -6.3842 152.985 283.1
-2.05196 11.2133 -5.14133 139.249 281.52
-4.79002 10.4777 -4.01866 126.219 276.549
-2.51333 8.14256 -5.42667 137.619 267.145
0.571741 7.94659 -7.69821 152.495 268.765
3.64015 7.69976 -5.42766 167.31 266.215
3.68388 8.14484 -4.65683 167.436 267.664
0.595066 8.39275 -6.52571 152.524 269.867
-2.50973 8.58684 -4.65615 137.552 268.582
3 20 21 23
3 21 22 23
3 0 1 36
3 15 16 45
3 0 17 36
3 16 26 45
3 17 18 37
3 25 26 44
3 17 36 37
3 26 44 45
3 18 19 38
3 24 25 43
3 18 37 38
3 25 43 44
3 19 20 38
3 23 24 43
3 20 21 39
3 22 23 42
3 20 38 39
3 23 42 43
3 21 22 27
3 21 27 39
3 22 27 42
3 27 28 42
3 27 28 39
3 28 42 47
3 28 39 40
3 1 36 41
3 15 45 46
3 1 2 41
3 14 15 46
3 28 29 40
3 28 29 47
3 2 40 41
3 14 46 47
3 2 29 40
3 14 29 47
3 2 3 29
3 13 14 29
3 29 30 31
3 29 30 35
3 3 29 31
3 13 29 35
3 30 32 33
3 30 33 34
3 30 31 32
3 30 34 35
3 3 4 31
3 12 13 35
3 4 5 48
3 11 12 54
3 5 6 48
3 10 11 54
3 6 48 59
3 10 54 55
3 6 7 59
3 9 10 55
3 7 58 59
3 9 55 56
3 8 57 58
3 8 56 57
3 7 8 58
3 8 9 56
3 4 31 48
3 12 35 54
3 31 48 49
3 35 53 54
3 31 49 50
3 35 52 53
3 31 32 50
3 34 35 52
3 32 33 50
3 33 34 52
3 33 50 51
3 33 51 52
3 48 49 60
3 49 60 50
3 50 60 61
3 50 51 61
3 51 52 61
3 61 62 52
3 52 53 62
3 53 54 62
3 54 55 63
3 55 56 63
3 56 63 64
3 56 57 64
3 64 65 57
3 57 58 65
3 58 59 65
3 48 59 65
