ply
format ascii 1.0
element vertex 66
property float x
property float y
property float z
property float u
property float v
element face 91
property list uchar int vertex_indices
end_header
-20.6547 -5.64822 21.3079 52.4875 178.716
-20.0519 -0.423649 20.8425 56.1951 202.752
-19.1146 4.7667 20.4846 61.564 226.468
-17.7568 9.73356 18.3869 67.9321 250.735
-15.6469 14.1974 13.4633 77.4234 275.325
-12.4006 17.9009 7.99404 91.8712 297.408
-8.27017 20.7526 3.29433 109.981 315.835
-3.55056 22.6779 -0.880153 131.167 329.82
1.65875 22.9008 -4.53572 155.215 334.69
6.75338 21.9412 -0.807894 178.765 328.294
11.0958 19.3665 3.41769 198.848 313.117
14.7165 15.9593 8.15704 215.619 293.735
17.3322 11.8354 13.6544 228.366 270.813
18.7221 7.12069 18.5937 235.955 245.631
19.3316 2.01325 20.7063 240.626 220.887
19.5157 -3.2566 21.0748 244.462 196.758
19.3623 -8.51341 21.5385 246.685 172.418
-16.9434 -14.0024 0.166523 67.6682 152.061
-14.6923 -16.1532 -1.56921 80.7891 144.403
-11.7473 -17.1684 -2.95979 96.7247 142.663
-8.64008 -17.2567 -4.29633 112.819 145.041
-5.61118 -16.6863 -5.52226 128.222 150.268
3.24342 -17.3161 -5.43542 169.227 149.03
6.14406 -18.3113 -4.17859 184.304 142.65
9.21432 -18.6656 -2.80935 200.272 139.085
12.2557 -18.0793 -1.38764 216.403 139.625
14.7675 -16.2699 0.371491 230.195 146.294
-0.800008 -11.6067 -4.9545 149.534 173.986
-0.571382 -8.59445 -7.76035 150.102 192.486
-0.341526 -5.60559 -10.6633 150.687 210.94
-0.111056 -2.62069 -13.4075 151.282 229.188
-3.34691 0.90089 -6.47077 134.896 238.205
-1.6415 1.2941 -7.26957 142.982 241.599
0.142254 1.35258 -8.01839 151.616 243.026
1.89493 1.04463 -7.21848 160.266 241.054
3.5165 0.412997 -6.40175 168.238 237.119
-12.5316 -9.74495 -0.905324 87.7465 174.349
-10.6698 -11.0691 -1.10649 98.1091 167.425
-8.3451 -11.2534 -1.2279 110.933 167.517
-6.35058 -10.2247 -0.977391 121.197 174.606
-8.3556 -9.50683 -1.10156 110.057 177.172
-10.5048 -9.27615 -1.09011 98.4336 177.722
4.83678 -11.0227 -0.887733 178.692 172.652
6.66716 -12.3254 -1.11779 188.518 164.862
8.99246 -12.4738 -0.968074 201.336 164.009
11.0209 -11.4279 -0.742362 212.14 170.254
9.08377 -10.6753 -0.948989 201.652 174.294
6.92444 -10.5977 -0.987214 189.995 174.54
-6.63855 8.84013 -2.74685 115.596 267.742
-4.73902 6.8457 -4.89305 126.628 262.118
-2.32888 5.4219 -6.54708 139.151 258.726
0.427259 5.35547 -8.22771 152.256 260.855
3.15408 5.03248 -6.48681 165.268 257.923
5.72158 6.09946 -4.80547 178.028 260.551
7.86034 7.80446 -2.63884 189.509 265.461
6.14905 9.90529 -3.93286 179.351 274.878
3.75933 11.3254 -5.28293 166.627 280.649
0.883179 11.8243 -6.67982 152.985 283.1
-2.0422 11.738 -5.34336 139.249 281.52
-4.62825 10.6744 -4.02161 126.219 276.549
-2.38864 7.57584 -5.20395 137.619 267.145
0.55887 7.21472 -7.41824 152.495 268.765
3.50364 7.15671 -5.14457 167.31 266.215
3.65722 8.62822 -4.49552 167.436 267.664
0.689237 9.10764 -6.42523 152.524 269.867
-2.33557 9.05505 -4.5521 137.552 268.582
3 20 21 23
3 21 22 23
3 0 1 36
3 15 16 45
3 0 17 36
3 16 26 45
3 17 18 37
3 25 26 44
3 17 36 37
3 26 44 45
3 18 19 38
3 24 25 43
3 18 37 38
3 25 43 44
3 19 20 38
3 23 24 43
3 20 21 39
3 22 23 42
3 20 38 39
3 23 42 43
3 21 22 27
3 21 27 39
3 22 27 42
3 27 28 42
3 27 28 39
3 28 42 47
3 28 39 40
3 1 36 41
3 15 45 46
3 1 2 41
3 14 15 46
3 28 29 40
3 28 29 47
3 2 40 41
3 14 46 47
3 2 29 40
3 14 29 47
3 2 3 29
3 13 14 29
3 29 30 31
3 29 30 35
3 3 29 31
3 13 29 35
3 30 32 33
3 30 33 34
3 30 31 32
3 30 34 35
3 3 4 31
3 12 13 35
3 4 5 48
3 11 12 54
3 5 6 48
3 10 11 54
3 6 48 59
3 10 54 55
3 6 7 59
3 9 10 55
3 7 58 59
3 9 55 56
3 8 57 58
3 8 56 57
3 7 8 58
3 8 9 56
3 4 31 48
3 12 35 54
3 31 48 49
3 35 53 54
3 31 49 50
3 35 52 53
3 31 32 50
3 34 35 52
3 32 33 50
3 33 34 52
3 33 50 51
3 33 51 52
3 48 49 60
3 49 60 50
3 50 60 61
3 50 51 61
3 51 52 61
3 61 62 52
3 52 53 62
3 53 54 62
3 54 55 63
3 55 56 63
3 56 63 64
3 56 57 64
3 64 65 57
3 57 58 65
3 58 59 65
3 48 59 65
