ply
format ascii 1.0
element vertex 66
property float x
property float y
property float z
property float u
property float v
element face 91
property list uchar int vertex_indices
end_header
77.8054 140.959 0 77.8054 140.959
77.1847 161.782 0 77.1847 161.782
78.0936 182.602 0 78.0936 182.602
80.7059 203.777 0 80.7059 203.777
86.694 224.759 0 86.694 224.759
97.1356 243.776 0 97.1356 243.776
110.656 260.346 0 110.656 260.346
126.626 274.102 0 126.626 274.102
146.168 280.92 0 146.168 280.92
166.352 278.609 0 166.352 278.609
184.554 268.783 0 184.554 268.783
200.982 255.807 0 200.982 255.807
215.106 239.929 0 215.106 239.929
225.502 221.317 0 225.502 221.317
232.601 201.818 0 232.601 201.818
237.961 182.329 0 237.961 182.329
241.838 162.482 0 241.838 162.482
96.6809 118.743 0 96.6809 118.743
107.572 113.925 0 107.572 113.925
119.982 113.723 0 119.982 113.723
132.176 116.881 0 132.176 116.881
143.609 122.195 0 143.609 122.195
183.058 126.796 0 183.058 126.796
194.874 124.085 0 194.874 124.085
207 123.534 0 207 123.534
218.762 125.926 0 218.762 125.926
228.33 132.383 0 228.33 132.383
161.188 147.254 0 161.188 147.254
159.711 160.769 0 159.711 160.769
158.254 174.235 0 158.254 174.235
156.816 187.591 0 156.816 187.591
140.076 195.494 0 140.076 195.494
147.326 199.192 0 147.326 199.192
155.179 201.381 0 155.179 201.381
163.228 200.997 0 163.228 200.997
171.027 198.978 0 171.027 198.978
110.303 141.238 0 110.303 141.238
119.262 137.749 0 119.262 137.749
129.079 139.221 0 129.079 139.221
136.434 145.121 0 136.434 145.121
127.407 145.92 0 127.407 145.92
118.305 145.006 0 118.305 145.006
184.733 150.62 0 184.733 150.62
193.173 146.495 0 193.173 146.495
203.057 147.128 0 203.057 147.128
211.017 152.496 0 211.017 152.496
202.411 154.499 0 202.411 154.499
193.341 153.395 0 193.341 153.395
116.69 218.123 0 116.69 218.123
127.534 213.085 0 127.534 213.085
140.421 210.971 0 140.421 210.971
153.641 213.854 0 153.641 213.854
167.036 213.972 0 167.036 213.972
178.994 218.873 0 178.994 218.873
188.25 226.277 0 188.25 226.277
178.625 238.24 0 178.625 238.24
165.365 245.914 0 165.365 245.914
149.932 247.147 0 149.932 247.147
135.065 242.442 0 135.065 242.442
123.725 231.943 0 123.725 231.943
136.059 218.155 0 136.059 218.155
152.879 220.976 0 152.879 220.976
169.744 221.954 0 169.744 221.954
169.161 233.992 0 169.161 233.992
151.253 235.749 0 151.253 235.749
134.077 230.009 0 134.077 230.009
3 20 21 23
3 21 22 23
3 0 1 36
3 15 16 45
3 0 17 36
3 16 26 45
3 17 18 37
3 25 26 44
3 17 36 37
3 26 44 45
3 18 19 38
3 24 25 43
3 18 37 38
3 25 43 44
3 19 20 38
3 23 24 43
3 20 21 39
3 22 23 42
3 20 38 39
3 23 42 43
3 21 22 27
3 21 27 39
3 22 27 42
3 27 28 42
3 27 28 39
3 28 42 47
3 28 39 40
3 1 36 41
3 15 45 46
3 1 2 41
3 14 15 46
3 28 29 40
3 28 29 47
3 2 40 41
3 14 46 47
3 2 29 40
3 14 29 47
3 2 3 29
3 13 14 29
3 29 30 31
3 29 30 35
3 3 29 31
3 13 29 35
3 30 32 33
3 30 33 34
3 30 31 32
3 30 34 35
3 3 4 31
3 12 13 35
3 4 5 48
3 11 12 54
3 5 6 48
3 10 11 54
3 6 48 59
3 10 54 55
3 6 7 59
3 9 10 55
3 7 58 59
3 9 55 56
3 8 57 58
3 8 56 57
3 7 8 58
3 8 9 56
3 4 31 48
3 12 35 54
3 31 48 49
3 35 53 54
3 31 49 50
3 35 52 53
3 31 32 50
3 34 35 52
3 32 33 50
3 33 34 52
3 33 50 51
3 33 51 52
3 48 49 60
3 49 60 50
3 50 60 61
3 50 51 61
3 51 52 61
3 61 62 52
3 52 53 62
3 53 54 62
3 54 55 63
3 55 56 63
3 56 63 64
3 56 57 64
3 64 65 57
3 57 58 65
3 58 59 65
3 48 59 65
