ply
format ascii 1.0
element vertex 66
property float x
property float y
property float z
property float u
property float v
element face 91
property list uchar int vertex_indices
end_header
97.9851 207.182 0 97.9851 207.182
101.601 239.065 0 101.601 239.065
107.101 270.701 0 107.101 270.701
114.255 303.222 0 114.255 303.222
125.451 336.785 0 125.451 336.785
142.765 368.304 0 142.765 368.304
165.322 395.596 0 165.322 395.596
192.795 416.284 0 192.795 416.284
225.055 424.127 0 225.055 424.127
256.069 414.902 0 256.069 414.902
281.925 393.424 0 281.925 393.424
303.239 366.193 0 303.239 366.193
319.157 334.581 0 319.157 334.581
328.158 300.054 0 328.158 300.054
333.146 266.008 0 333.146 266.008
336.76 232.736 0 336.76 232.736
338.714 199.38 0 338.714 199.38
117.334 187.884 0 117.334 187.884
131.64 175.505 0 131.64 175.505
150.792 169.819 0 150.792 169.819
171.261 170.007 0 171.261 170.007
191.34 174.23 0 191.34 174.23
241.233 170.888 0 241.233 170.888
261.048 164.098 0 261.048 164.098
281.705 161.444 0 281.705 161.444
301.801 164.701 0 301.801 164.701
318.04 175.231 0 318.04 175.231
216.778 198.433 0 216.778 198.433
217.709 221.158 0 217.709 221.158
218.712 243.805 0 218.712 243.805
219.724 266.254 0 219.724 266.254
197.208 278.764 0 197.208 278.764
208.188 282.978 0 208.188 282.978
219.843 284.741 0 219.843 284.741
231.657 282.06 0 231.657 282.06
242.75 276.92 0 242.75 276.92
143.681 207.687 0 143.681 207.687
156.275 199.861 0 156.275 199.861
171.56 199.268 0 171.56 199.268
184.883 205.113 0 184.883 205.113
171.309 207.805 0 171.309 207.805
157.279 209.333 0 157.279 209.333
251.787 201.107 0 251.787 201.107
264.691 193.635 0 264.691 193.635
280.244 192.838 0 280.244 192.838
293.9 199.322 0 293.9 199.322
280.408 202.485 0 280.408 202.485
266.016 202.484 0 266.016 202.484
165.244 319.101 0 165.244 319.101
180.276 308.4 0 180.276 308.4
199.906 302.804 0 199.906 302.804
221.347 304.175 0 221.347 304.175
242.566 301.143 0 242.566 301.143
262.695 305.174 0 262.695 305.174
278.809 314.367 0 278.809 314.367
265.847 335.132 0 265.847 335.132
246.833 350.281 0 246.833 350.281
222.917 356.072 0 222.917 356.072
198.873 352.103 0 198.873 352.103
179.084 338.649 0 179.084 338.649
193.553 313.748 0 193.553 313.748
221.62 314.455 0 221.62 314.455
249.435 311.62 0 249.435 311.62
251.195 331.717 0 251.195 331.717
222.22 339.322 0 222.22 339.322
192.771 333.92 0 192.771 333.92
3 20 21 23
3 21 22 23
3 0 1 36
3 15 16 45
3 0 17 36
3 16 26 45
3 17 18 37
3 25 26 44
3 17 36 37
3 26 44 45
3 18 19 38
3 24 25 43
3 18 37 38
3 25 43 44
3 19 20 38
3 23 24 43
3 20 21 39
3 22 23 42
3 20 38 39
3 23 42 43
3 21 22 27
3 21 27 39
3 22 27 42
3 27 28 42
3 27 28 39
3 28 42 47
3 28 39 40
3 1 36 41
3 15 45 46
3 1 2 41
3 14 15 46
3 28 29 40
3 28 29 47
3 2 40 41
3 14 46 47
3 2 29 40
3 14 29 47
3 2 3 29
3 13 14 29
3 29 30 31
3 29 30 35
3 3 29 31
3 13 29 35
3 30 32 33
3 30 33 34
3 30 31 32
3 30 34 35
3 3 4 31
3 12 13 35
3 4 5 48
3 11 12 54
3 5 6 48
3 10 11 54
3 6 48 59
3 10 54 55
3 6 7 59
3 9 10 55
3 7 58 59
3 9 55 56
3 8 57 58
3 8 56 57
3 7 8 58
3 8 9 56
3 4 31 48
3 12 35 54
3 31 48 49
3 35 53 54
3 31 49 50
3 35 52 53
3 31 32 50
3 34 35 52
3 32 33 50
3 33 34 52
3 33 50 51
3 33 51 52
3 48 49 60
3 49 60 50
3 50 60 61
3 50 51 61
3 51 52 61
3 61 62 52
3 52 53 62
3 53 54 62
3 54 55 63
3 55 56 63
3 56 63 64
3 56 57 64
3 64 65 57
3 57 58 65
3 58 59 65
3 48 59 65
