ply
format ascii 1.0
element vertex 66
property float x
property float y
property float z
property float u
property float v
element face 91
property list uchar int vertex_indices
end_header
-20.6547 -5.64822 21.3079 105.977 197.429
-20.0519 -0.423649 20.8425 112.451 218.081
-19.1146 4.7667 20.4846 120.309 238.132
-17.7568 9.73356 18.3869 128.734 259.533
-15.6469 14.1974 13.4633 138.827 282.672
-12.4006 17.9009 7.99404 152.719 303.036
-8.27017 20.7526 3.29433 169.713 319.168
-3.55056 22.6779 -0.880153 188.987 330.733
1.65875 22.9008 -4.53572 209.646 334.536
6.75338 21.9412 -0.807894 230.605 323.903
11.0958 19.3665 3.41769 247.124 305.798
14.7165 15.9593 8.15704 259.338 283.628
17.3322 11.8354 13.6544 267.427 258.65
18.7221 7.12069 18.5937 271.244 233.195
19.3316 2.01325 20.7063 272.64 210.638
19.5157 -3.2566 21.0748 272.766 189.917
19.3623 -8.51341 21.5385 271.023 169.085
-16.9434 -14.0024 0.166523 109.029 188.395
-14.6923 -16.1532 -1.56921 115.178 179.299
-11.7473 -17.1684 -2.95979 126.274 174.023
-8.64008 -17.2567 -4.29633 139.22 173.261
-5.61118 -16.6863 -5.52226 152.428 174.887
3.24342 -17.3161 -5.43542 208.174 166.919
6.14406 -18.3113 -4.17859 219.766 161.271
9.21432 -18.6656 -2.80935 232.09 157.782
12.2557 -18.0793 -1.38764 244.355 158.442
14.7675 -16.2699 0.371491 253.957 163.946
-0.800008 -11.6067 -4.9545 187.253 196.867
-0.571382 -8.59445 -7.76035 189.579 212.776
-0.341526 -5.60559 -10.6633 191.846 228.416
-0.111056 -2.62069 -13.4075 194.072 243.518
-3.34691 0.90089 -6.47077 184.448 251.503
-1.6415 1.2941 -7.26957 190.845 252.658
0.142254 1.35258 -8.01839 197.24 253.114
1.89493 1.04463 -7.21848 203.044 250.711
3.5165 0.412997 -6.40175 208.576 247.624
-12.5316 -9.74495 -0.905324 131.215 203.665
-10.6698 -11.0691 -1.10649 138.826 196.198
-8.3451 -11.2534 -1.2279 149.877 194.129
-6.35058 -10.2247 -0.977391 159.775 198.403
-8.3556 -9.50683 -1.10156 151.077 203.817
-10.5048 -9.27615 -1.09011 140.921 205.795
4.83678 -11.0227 -0.887733 211.867 190.479
6.66716 -12.3254 -1.11779 219.471 183.588
8.99246 -12.4738 -0.968074 230.484 181.915
11.0209 -11.4279 -0.742362 240.159 186.617
9.08377 -10.6753 -0.948989 231.842 191.663
6.92444 -10.5977 -0.987214 221.684 192.866
-6.63855 8.84013 -2.74685 177.293 281.041
-4.73902 6.8457 -4.89305 182.753 275.477
-2.32888 5.4219 -6.54708 189.898 270.392
0.427259 5.35547 -8.22771 199.336 272.167
3.15408 5.03248 -6.48681 208.268 267.615
5.72158 6.09946 -4.80547 217.125 270.325
7.86034 7.80446 -2.63884 224.592 274.192
6.14905 9.90529 -3.93286 219.015 281.66
3.75933 11.3254 -5.28293 211.392 287.378
0.883179 11.8243 -6.67982 202.696 291.349
-2.0422 11.738 -5.34336 193.715 289.866
-4.62825 10.6744 -4.02161 185.051 286.407
-2.38864 7.57584 -5.20395 192.306 277.812
0.55887 7.21472 -7.41824 200.717 278.868
3.50364 7.15671 -5.14457 208.986 275.346
3.65722 8.62822 -4.49552 208.769 275.075
0.689237 9.10764 -6.42523 200.901 278.428
-2.33557 9.05505 -4.5521 192.767 277.409
3 20 21 23
3 21 22 23
3 0 1 36
3 15 16 45
3 0 17 36
3 16 26 45
3 17 18 37
3 25 26 44
3 17 36 37
3 26 44 45
3 18 19 38
3 24 25 43
3 18 37 38
3 25 43 44
3 19 20 38
3 23 24 43
3 20 21 39
3 22 23 42
3 20 38 39
3 23 42 43
3 21 22 27
3 21 27 39
3 22 27 42
3 27 28 42
3 27 28 39
3 28 42 47
3 28 39 40
3 1 36 41
3 15 45 46
3 1 2 41
3 14 15 46
3 28 29 40
3 28 29 47
3 2 40 41
3 14 46 47
3 2 29 40
3 14 29 47
3 2 3 29
3 13 14 29
3 29 30 31
3 29 30 35
3 3 29 31
3 13 29 35
3 30 32 33
3 30 33 34
3 30 31 32
3 30 34 35
3 3 4 31
3 12 13 35
3 4 5 48
3 11 12 54
3 5 6 48
3 10 11 54
3 6 48 59
3 10 54 55
3 6 7 59
3 9 10 55
3 7 58 59
3 9 55 56
3 8 57 58
3 8 56 57
3 7 8 58
3 8 9 56
3 4 31 48
3 12 35 54
3 31 48 49
3 35 53 54
3 31 49 50
3 35 52 53
3 31 32 50
3 34 35 52
3 32 33 50
3 33 34 52
3 33 50 51
3 33 51 52
3 48 49 60
3 49 60 50
3 50 60 61
3 50 51 61
3 51 52 61
3 61 62 52
3 52 53 62
3 53 54 62
3 54 55 63
3 55 56 63
3 56 63 64
3 56 57 64
3 64 65 57
3 57 58 65
3 58 59 65
3 48 59 65
