ply
format ascii 1.0
element vertex 66
property float x
property float y
property float z
property float u
property float v
element face 91
property list uchar int vertex_indices
end_header
-19.7403 -5.70525 21.2743 97.9851 207.182
-18.9619 -0.644319 20.8107 101.601 239.065
-17.8838 4.37682 20.4185 107.101 270.701
-16.5476 9.26006 18.4142 114.255 303.222
-14.5792 13.8276 13.6777 125.451 336.785
-11.6522 17.9082 8.24168 142.765 368.304
-7.91138 21.3622 3.34672 165.322 395.596
-3.42302 23.8317 -0.859032 192.795 416.284
1.75163 24.291 -4.4733 225.055 424.127
6.66885 23.1769 -1.04967 256.069 414.902
10.6906 20.2638 3.27973 281.925 393.424
13.955 16.5582 8.2659 303.239 366.193
16.3339 12.2728 13.8194 319.157 334.581
17.585 7.44563 18.6979 328.158 300.054
18.1785 2.25989 20.827 333.146 266.008
18.5461 -3.05649 21.381 336.76 232.736
18.6477 -8.38883 21.8582 338.714 199.38
-16.9287 -12.5126 0.0727436 117.334 187.884
-14.7371 -14.9092 -1.72669 131.64 175.505
-11.7262 -16.1907 -3.15634 150.792 169.819
-8.46686 -16.5175 -4.51507 171.261 170.007
-5.24281 -16.1642 -5.72752 191.34 174.23
2.70253 -16.9923 -5.56259 241.233 170.888
5.83183 -18.0038 -4.29614 261.048 164.098
9.12322 -18.3243 -2.87046 281.705 161.444
12.3631 -17.6756 -1.39282 301.801 164.701
15.0361 -15.7796 0.355411 318.04 175.231
-1.02103 -12.2837 -4.99743 216.778 198.433
-0.747187 -9.08609 -7.82883 217.709 221.158
-0.463114 -5.91718 -10.7536 218.712 243.805
-0.177582 -2.75181 -13.5083 219.724 266.254
-3.64169 0.581646 -6.56585 197.208 278.764
-1.86718 1.06605 -7.33048 208.188 282.978
-0.00028333 1.15759 -8.04751 219.843 284.741
1.87336 0.756808 -7.40558 231.657 282.06
3.61688 -0.0168633 -6.6412 242.75 276.92
-12.6013 -9.61417 -0.769076 143.681 207.687
-10.6434 -11.0192 -1.11764 156.275 199.861
-8.20923 -11.268 -1.45354 171.56 199.268
-6.0434 -10.3767 -1.27999 184.883 205.113
-8.19237 -9.83092 -1.13566 171.309 207.805
-10.422 -9.48537 -1.07754 157.279 209.333
4.61378 -11.4168 -1.09898 251.787 201.107
6.62472 -12.7404 -1.29224 264.691 193.635
9.10547 -12.903 -0.907917 280.244 192.838
11.33 -11.8749 -0.524633 293.9 199.322
9.19384 -11.3346 -0.862344 280.408 202.485
6.89544 -11.257 -0.940663 266.016 202.484
-8.45692 7.99456 -2.51102 165.244 319.101
-6.14089 5.81189 -4.62772 180.276 308.4
-3.05501 4.49693 -6.32489 199.906 302.804
0.364166 4.28878 -8.08074 221.347 304.175
3.7444 3.94206 -6.42533 242.566 301.143
6.99674 4.7619 -4.67377 262.695 305.174
9.64428 6.51491 -2.49253 278.809 314.367
7.69687 9.70366 -4.01002 265.847 335.132
4.74879 12.0537 -5.33367 246.833 350.281
0.958041 12.9224 -6.64254 222.917 356.072
-2.89575 12.6733 -5.20222 198.873 352.103
-6.13189 10.841 -3.88722 179.084 338.649
-3.99047 6.51133 -5.11941 193.553 313.748
0.476845 6.02583 -7.63763 221.62 314.455
4.91666 5.78746 -5.27876 249.435 311.62
5.33195 9.15515 -4.5342 251.195 331.717
0.740904 10.2521 -6.42133 222.22 339.322
-3.98054 9.90792 -4.36931 192.771 333.92
3 20 21 23
3 21 22 23
3 0 1 36
3 15 16 45
3 0 17 36
3 16 26 45
3 17 18 37
3 25 26 44
3 17 36 37
3 26 44 45
3 18 19 38
3 24 25 43
3 18 37 38
3 25 43 44
3 19 20 38
3 23 24 43
3 20 21 39
3 22 23 42
3 20 38 39
3 23 42 43
3 21 22 27
3 21 27 39
3 22 27 42
3 27 28 42
3 27 28 39
3 28 42 47
3 28 39 40
3 1 36 41
3 15 45 46
3 1 2 41
3 14 15 46
3 28 29 40
3 28 29 47
3 2 40 41
3 14 46 47
3 2 29 40
3 14 29 47
3 2 3 29
3 13 14 29
3 29 30 31
3 29 30 35
3 3 29 31
3 13 29 35
3 30 32 33
3 30 33 34
3 30 31 32
3 30 34 35
3 3 4 31
3 12 13 35
3 4 5 48
3 11 12 54
3 5 6 48
3 10 11 54
3 6 48 59
3 10 54 55
3 6 7 59
3 9 10 55
3 7 58 59
3 9 55 56
3 8 57 58
3 8 56 57
3 7 8 58
3 8 9 56
3 4 31 48
3 12 35 54
3 31 48 49
3 35 53 54
3 31 49 50
3 35 52 53
3 31 32 50
3 34 35 52
3 32 33 50
3 33 34 52
3 33 50 51
3 33 51 52
3 48 49 60
3 49 60 50
3 50 60 61
3 50 51 61
3 51 52 61
3 61 62 52
3 52 53 62
3 53 54 62
3 54 55 63
3 55 56 63
3 56 63 64
3 56 57 64
3 64 65 57
3 57 58 65
3 58 59 65
3 48 59 65
