ply
format ascii 1.0
element vertex 66
property float x
property float y
property float z
property float u
property float v
element face 91
property list uchar int vertex_indices
end_header
-22.1977 -5.67022 21.6296 75.8111 194.436
-21.6269 -0.376011 21.1312 78.2452 216.795
-20.7107 4.88257 20.7121 82.1505 238.963
-19.2696 9.93374 18.4089 87.7158 261.315
-16.8771 14.4007 13.358 96.4725 282.762
-13.1179 17.787 7.78847 110.782 299.995
-8.50488 20.102 3.27611 128.94 312.176
-3.4926 21.5126 -0.907227 148.837 320.404
1.76725 21.5239 -4.63917 169.854 322.546
6.85738 20.5778 -0.766734 192.291 316.468
11.4085 18.2987 3.4749 212.525 304.623
15.405 15.2367 8.04393 230.497 289.329
18.4194 11.3205 13.624 244.606 269.907
20.0715 6.67127 18.5762 252.792 247.77
20.7711 1.67122 20.8828 256.216 225.638
20.9342 -3.45087 21.2173 256.821 204.091
20.7412 -8.55279 21.718 255.98 182.534
-17.9172 -14.3602 0.325554 87.4199 170.054
-15.3613 -16.3988 -1.41091 97.5851 162.527
-12.1723 -17.2115 -2.8647 110.53 159.958
-8.884 -17.0257 -4.15532 123.972 161.463
-5.7184 -16.162 -5.32404 136.957 165.727
3.67094 -16.6759 -5.30114 176.359 163.608
6.61977 -17.8841 -4.0888 189.041 157.907
9.77431 -18.4642 -2.74957 202.644 154.756
12.9528 -18.0669 -1.25708 216.424 155.596
15.6551 -16.3876 0.508451 228.327 161.629
-0.655806 -10.6379 -4.98816 158.491 188.599
-0.497288 -7.73109 -7.80916 158.452 202.291
-0.336788 -4.8451 -10.7744 158.38 215.976
-0.16965 -1.97012 -13.6513 158.36 229.566
-3.90852 1.41615 -6.73814 144.749 239.831
-1.93451 1.95702 -7.42503 152.858 242.476
0.132279 2.07586 -8.09948 161.345 243.355
2.15243 1.69426 -7.35582 170.024 241.358
4.01499 0.907276 -6.59315 178.033 237.659
-12.5714 -8.74888 -0.886987 109.705 194.151
-10.604 -9.61384 -1.1865 117.849 190.718
-8.43826 -9.74813 -1.30617 126.901 190.233
-6.4211 -9.10499 -0.963775 135.488 192.732
-8.46212 -8.64394 -1.06083 126.908 194.701
-10.5376 -8.48345 -1.13692 118.18 195.405
5.25461 -9.83332 -1.02479 184.456 189.775
7.17182 -10.6673 -1.2137 192.422 186.409
9.30947 -10.7907 -1.03993 201.44 185.806
11.3156 -10.1492 -0.711645 209.976 188.307
9.33854 -9.66798 -1.03592 201.601 190.487
7.28741 -9.59295 -1.04639 192.991 190.797
-8.45589 7.68289 -2.7047 127.021 263.707
-5.854 6.03087 -4.85802 137.274 258.024
-2.84668 5.01218 -6.53046 149.387 254.717
0.31922 4.99668 -8.15984 162.212 255.57
3.45292 4.58812 -6.40312 175.852 252.902
6.5473 5.18394 -4.705 189.345 254.456
9.31728 6.49036 -2.59527 201.617 258.742
7.09187 8.77319 -3.7676 192.02 268.906
4.14345 10.2436 -5.14177 179.302 275.79
0.788778 10.7504 -6.56234 164.833 278.681
-2.65649 10.7189 -5.26807 150.739 277.816
-5.85331 9.65705 -3.95819 137.656 272.647
-3.3604 6.91696 -5.48457 147.593 262.078
0.463834 6.71163 -7.64376 163.024 262.436
4.27917 6.39495 -5.35112 179.682 259.856
4.55905 7.90852 -4.54529 181.137 265.722
0.615413 8.43321 -6.78475 163.964 269.139
-3.38462 8.45321 -4.69883 147.767 268.048
3 20 21 23
3 21 22 23
3 0 1 36
3 15 16 45
3 0 17 36
3 16 26 45
3 17 18 37
3 25 26 44
3 17 36 37
3 26 44 45
3 18 19 38
3 24 25 43
3 18 37 38
3 25 43 44
3 19 20 38
3 23 24 43
3 20 21 39
3 22 23 42
3 20 38 39
3 23 42 43
3 21 22 27
3 21 27 39
3 22 27 42
3 27 28 42
3 27 28 39
3 28 42 47
3 28 39 40
3 1 36 41
3 15 45 46
3 1 2 41
3 14 15 46
3 28 29 40
3 28 29 47
3 2 40 41
3 14 46 47
3 2 29 40
3 14 29 47
3 2 3 29
3 13 14 29
3 29 30 31
3 29 30 35
3 3 29 31
3 13 29 35
3 30 32 33
3 30 33 34
3 30 31 32
3 30 34 35
3 3 4 31
3 12 13 35
3 4 5 48
3 11 12 54
3 5 6 48
3 10 11 54
3 6 48 59
3 10 54 55
3 6 7 59
3 9 10 55
3 7 58 59
3 9 55 56
3 8 57 58
3 8 56 57
3 7 8 58
3 8 9 56
3 4 31 48
3 12 35 54
3 31 48 49
3 35 53 54
3 31 49 50
3 35 52 53
3 31 32 50
3 34 35 52
3 32 33 50
3 33 34 52
3 33 50 51
3 33 51 52
3 48 49 60
3 49 60 50
3 50 60 61
3 50 51 61
3 51 52 61
3 61 62 52
3 52 53 62
3 53 54 62
3 54 55 63
3 55 56 63
3 56 63 64
3 56 57 64
3 64 65 57
3 57 58 65
3 58 59 65
3 48 59 65
