ply
format ascii 1.0
element vertex 66
property float x
property float y
property float z
property float u
property float v
element face 91
property list uchar int vertex_indices
end_header
195.27 283.866 0 195.27 283.866
197.848 313.144 0 197.848 313.144
202.38 342.262 0 202.38 342.262
207.868 370.757 0 207.868 370.757
216.813 397.44 0 216.813 397.44
232.539 420.374 0 232.539 420.374
253.846 438.589 0 253.846 438.589
278.942 451.476 0 278.942 451.476
307.143 455.052 0 307.143 455.052
336.768 451.532 0 336.768 451.532
363.508 438.817 0 363.508 438.817
386.552 420.651 0 386.552 420.651
404.121 397.602 0 404.121 397.602
414.529 370.725 0 414.529 370.725
420.569 342.027 0 420.569 342.027
425.026 312.716 0 425.026 312.716
427.69 283.261 0 427.69 283.261
209.717 235.711 0 209.717 235.711
223.577 224.054 0 223.577 224.054
241.315 219.391 0 241.315 219.391
259.716 220.321 0 259.716 220.321
277.363 225.269 0 277.363 225.269
334.554 225.35 0 334.554 225.35
352.78 220.325 0 352.78 220.325
371.811 219.339 0 371.811 219.339
390.252 223.994 0 390.252 223.994
404.977 235.654 0 404.977 235.654
306.194 260.999 0 306.194 260.999
305.68 282.815 0 305.68 282.815
305.145 304.479 0 305.145 304.479
304.665 326.072 0 304.665 326.072
285.426 339.926 0 285.426 339.926
295.213 343.609 0 295.213 343.609
305.695 345.083 0 305.695 345.083
316.537 343.609 0 316.537 343.609
326.728 339.906 0 326.728 339.906
232.567 266.575 0 232.567 266.575
244.886 257.471 0 244.886 257.471
260.343 257.956 0 260.343 257.956
272.316 267.792 0 272.316 267.792
259.034 271.646 0 259.034 271.646
245.05 271.888 0 245.05 271.888
342.011 267.768 0 342.011 267.768
353.916 257.909 0 353.916 257.909
369.533 257.483 0 369.533 257.483
382.062 266.581 0 382.062 266.581
369.375 271.857 0 369.375 271.857
355.317 271.642 0 355.317 271.642
262.225 376.815 0 262.225 376.815
276.167 369.924 0 276.167 369.924
290.969 365.701 0 290.969 365.701
305.716 367.653 0 305.716 367.653
321.227 365.742 0 321.227 365.742
336.763 370.006 0 336.763 370.006
351.706 376.879 0 351.706 376.879
338.666 386.739 0 338.666 386.739
322.729 392.131 0 322.729 392.131
306.139 393.393 0 306.139 393.393
290.094 392.11 0 290.094 392.11
274.688 386.688 0 274.688 386.688
290.27 376.807 0 290.27 376.807
305.86 378.063 0 305.86 378.063
322.432 376.827 0 322.432 376.827
322.922 377.178 0 322.922 377.178
306.082 377.351 0 306.082 377.351
290.043 377.137 0 290.043 377.137
3 20 21 23
3 21 22 23
3 0 1 36
3 15 16 45
3 0 17 36
3 16 26 45
3 17 18 37
3 25 26 44
3 17 36 37
3 26 44 45
3 18 19 38
3 24 25 43
3 18 37 38
3 25 43 44
3 19 20 38
3 23 24 43
3 20 21 39
3 22 23 42
3 20 38 39
3 23 42 43
3 21 22 27
3 21 27 39
3 22 27 42
3 27 28 42
3 27 28 39
3 28 42 47
3 28 39 40
3 1 36 41
3 15 45 46
3 1 2 41
3 14 15 46
3 28 29 40
3 28 29 47
3 2 40 41
3 14 46 47
3 2 29 40
3 14 29 47
3 2 3 29
3 13 14 29
3 29 30 31
3 29 30 35
3 3 29 31
3 13 29 35
3 30 32 33
3 30 33 34
3 30 31 32
3 30 34 35
3 3 4 31
3 12 13 35
3 4 5 48
3 11 12 54
3 5 6 48
3 10 11 54
3 6 48 59
3 10 54 55
3 6 7 59
3 9 10 55
3 7 58 59
3 9 55 56
3 8 57 58
3 8 56 57
3 7 8 58
3 8 9 56
3 4 31 48
3 12 35 54
3 31 48 49
3 35 53 54
3 31 49 50
3 35 52 53
3 31 32 50
3 34 35 52
3 32 33 50
3 33 34 52
3 33 50 51
3 33 51 52
3 48 49 60
3 49 60 50
3 50 60 61
3 50 51 61
3 51 52 61
3 61 62 52
3 52 53 62
3 53 54 62
3 54 55 63
3 55 56 63
3 56 63 64
3 56 57 64
3 64 65 57
3 57 58 65
3 58 59 65
3 48 59 65
