ply
format ascii 1.0
element vertex 66
property float x
property float y
property float z
property float u
property float v
element face 91
property list uchar int vertex_indices
end_header
-20.4416 -5.71381 21.3872 98.956 257.497
-19.7432 -0.551839 20.8218 100.828 292.318
-18.7337 4.57899 20.4339 104.758 327.002
-17.3827 9.48994 18.3475 111.288 361.349
-15.2907 13.9117 13.5358 123.345 394.358
-12.1063 17.6589 8.04246 143.104 423.867
-8.10628 20.6963 3.2201 168.578 448.751
-3.47007 22.8349 -0.934139 198.681 467.665
1.74806 23.1508 -4.55193 233.578 474.543
6.77575 22.2141 -0.996532 266.995 469.091
11.0321 19.6153 3.23955 296.122 451.859
14.545 16.1937 8.1249 320.688 428.432
17.097 12.116 13.7042 339.151 399.767
18.3971 7.41461 18.5946 349.739 366.686
18.9534 2.26749 20.7458 355.983 331.765
19.2131 -3.06177 21.2119 360.571 296.406
19.1926 -8.37978 21.8006 363.278 260.905
-17.02 -14.0929 0.26493 128.909 215.54
-14.7076 -16.1324 -1.49071 145.588 204.259
-11.7986 -17.1033 -2.94216 165.6 200.197
-8.75141 -17.2108 -4.2758 186.04 201.855
-5.79855 -16.6365 -5.47103 205.463 207.894
3.11467 -17.2942 -5.34174 264.933 208.256
6.00239 -18.3667 -4.10948 284.522 202.035
9.08479 -18.7571 -2.74534 305.011 200.357
12.1685 -18.2526 -1.27797 325.006 204.541
14.8256 -16.5813 0.474382 341.494 216.055
-0.889492 -11.2684 -4.92597 235.013 245.726
-0.600975 -7.96947 -7.86313 235.487 269.311
-0.310898 -4.69453 -10.8416 235.989 292.762
-0.0187397 -1.41631 -13.5791 236.473 316.102
-3.50584 1.36903 -6.69637 210.947 328.865
-1.72402 1.86138 -7.41424 222.587 333.471
0.149751 1.96138 -8.03323 235.039 335.479
2.01222 1.57387 -7.41408 247.529 333.575
3.73256 0.806954 -6.68285 259.269 329.024
-12.7542 -9.55331 -0.728682 154.84 248.394
-10.757 -10.7406 -1.06193 168.782 241.797
-8.4108 -10.8925 -1.38742 184.469 242.23
-6.35352 -9.96365 -1.2062 197.584 249.377
-8.47988 -9.51129 -1.13844 183.222 251.19
-10.6548 -9.30125 -1.08568 168.673 251.383
4.82792 -10.8246 -1.07615 272.211 249.611
6.74287 -12.0877 -1.26752 285.631 242.391
9.1018 -12.2759 -0.908855 301.337 242.215
11.2816 -11.4224 -0.531916 315.281 248.821
9.23361 -10.8473 -0.917969 301.429 251.738
7.03088 -10.7069 -0.991046 286.749 251.525
-8.12764 7.6061 -2.56117 176.346 365.356
-5.65168 5.881 -4.75347 193.993 356.482
-2.6768 4.93158 -6.45278 214.461 352.734
0.42443 4.8213 -8.26394 235.321 354.665
3.48784 4.47661 -6.45304 255.604 353.033
6.57337 4.98472 -4.72086 275.574 357.096
9.29732 6.30269 -2.5056 292.642 366.055
7.40051 9.31935 -3.93371 278.584 385.771
4.53653 11.4955 -5.19684 258.551 399.32
0.945389 12.2524 -6.56589 234.486 403.151
-2.72103 12.0341 -5.1829 210.111 398.979
-5.8483 10.3045 -3.94253 190.159 385.182
-3.56597 6.78699 -5.21574 207.389 363.846
0.530901 6.45073 -7.72308 235.065 365.2
4.60283 6.17262 -5.26538 261.92 364.194
5.02699 8.85221 -4.49738 263.167 381.718
0.745991 9.7315 -6.38837 234.524 386.276
-3.62833 9.49197 -4.43761 205.393 381.272
3 20 21 23
3 21 22 23
3 0 1 36
3 15 16 45
3 0 17 36
3 16 26 45
3 17 18 37
3 25 26 44
3 17 36 37
3 26 44 45
3 18 19 38
3 24 25 43
3 18 37 38
3 25 43 44
3 19 20 38
3 23 24 43
3 20 21 39
3 22 23 42
3 20 38 39
3 23 42 43
3 21 22 27
3 21 27 39
3 22 27 42
3 27 28 42
3 27 28 39
3 28 42 47
3 28 39 40
3 1 36 41
3 15 45 46
3 1 2 41
3 14 15 46
3 28 29 40
3 28 29 47
3 2 40 41
3 14 46 47
3 2 29 40
3 14 29 47
3 2 3 29
3 13 14 29
3 29 30 31
3 29 30 35
3 3 29 31
3 13 29 35
3 30 32 33
3 30 33 34
3 30 31 32
3 30 34 35
3 3 4 31
3 12 13 35
3 4 5 48
3 11 12 54
3 5 6 48
3 10 11 54
3 6 48 59
3 10 54 55
3 6 7 59
3 9 10 55
3 7 58 59
3 9 55 56
3 8 57 58
3 8 56 57
3 7 8 58
3 8 9 56
3 4 31 48
3 12 35 54
3 31 48 49
3 35 53 54
3 31 49 50
3 35 52 53
3 31 32 50
3 34 35 52
3 32 33 50
3 33 34 52
3 33 50 51
3 33 51 52
3 48 49 60
3 49 60 50
3 50 60 61
3 50 51 61
3 51 52 61
3 61 62 52
3 52 53 62
3 53 54 62
3 54 55 63
3 55 56 63
3 56 63 64
3 56 57 64
3 64 65 57
3 57 58 65
3 58 59 65
3 48 59 65
