ply
format ascii 1.0
element vertex 66
property float x
property float y
property float z
property float u
property float v
element face 91
property list uchar int vertex_indices
end_header
-20.5591 -4.94384 21.515 195.27 283.866
-19.7528 0.0241763 20.9627 197.848 313.144
-18.6226 4.95637 20.6795 202.38 342.262
-17.2653 9.66188 18.475 207.868 370.757
-15.236 13.8615 13.5519 216.813 397.44
-12.0641 17.3004 8.01426 232.539 420.374
-8.02118 19.91 3.34647 253.846 438.589
-3.40703 21.584 -0.864044 278.942 451.476
1.60737 21.6566 -4.43346 307.143 455.052
6.51974 20.8963 -0.822591 336.768 451.532
10.8047 18.6284 3.45112 363.508 438.817
14.3745 15.4942 8.17785 386.552 420.651
16.9154 11.6358 13.7701 404.121 397.602
18.2058 7.16954 18.708 414.529 370.725
18.8244 2.29102 20.9361 420.569 342.027
19.2347 -2.78198 21.2367 425.026 312.716
19.3255 -7.84311 21.8052 427.69 283.261
-17.8687 -14.5804 0.374193 209.717 235.711
-15.5607 -16.8511 -1.40853 223.577 224.054
-12.5171 -17.9482 -2.85568 241.315 219.391
-9.29826 -18.0856 -4.18453 259.716 220.321
-6.166 -17.5172 -5.3996 277.363 225.269
3.6517 -18.1921 -5.3445 334.554 225.35
6.67561 -19.2053 -4.08793 352.78 220.325
9.88105 -19.5279 -2.71573 371.811 219.339
13.0473 -18.8679 -1.23326 390.252 223.994
15.6464 -16.9417 0.561545 404.977 235.654
-0.817976 -11.695 -4.82847 306.194 260.999
-0.541411 -8.10727 -7.79565 305.68 282.815
-0.265656 -4.55252 -10.8909 305.145 304.479
0.0100368 -0.997326 -13.7458 304.665 326.072
-3.38902 2.01228 -6.69132 285.426 339.926
-1.63474 2.47941 -7.53261 295.213 343.609
0.208474 2.56535 -8.25121 305.695 345.083
2.02559 2.2223 -7.51729 316.537 343.609
3.69945 1.51217 -6.63674 326.728 339.906
-13.5488 -9.60742 -0.577651 232.567 266.575
-11.5261 -11.343 -0.975928 244.886 257.471
-8.8536 -11.4669 -1.33524 260.343 257.956
-6.68859 -9.91252 -1.17102 272.316 267.792
-8.92281 -9.09109 -1.19494 259.034 271.646
-11.3257 -8.87252 -1.05764 245.05 271.888
5.27449 -10.7566 -1.11403 342.011 267.768
7.20706 -12.6013 -1.2361 353.916 257.909
9.86894 -12.8414 -0.843066 369.533 257.483
12.1111 -11.406 -0.418598 382.062 266.581
10.0136 -10.3747 -0.931595 369.375 271.857
7.60409 -10.2517 -1.10868 355.317 271.642
-7.08268 8.85063 -2.78245 262.225 376.815
-4.68917 7.37402 -4.98819 276.167 369.924
-2.13618 6.37539 -6.65993 290.969 365.701
0.484554 6.43122 -8.46031 305.716 367.653
3.05834 6.01767 -6.63843 321.227 365.742
5.71302 6.65822 -4.93233 336.763 370.006
8.27764 7.78334 -2.70804 351.706 376.879
6.20083 9.56399 -3.97301 338.666 386.739
3.57306 10.6143 -5.19855 322.729 392.131
0.787508 10.9585 -6.50584 306.139 393.393
-2.02914 11.0041 -5.2259 290.094 392.11
-4.78126 10.3256 -4.03642 274.688 386.688
-2.17189 8.36262 -5.40473 290.27 376.807
0.603958 8.26011 -7.71332 305.86 378.063
3.34969 7.97755 -5.39479 322.432 376.827
3.41021 8.07444 -4.63794 322.922 377.178
0.587474 8.20585 -6.45182 306.082 377.351
-2.23464 8.4644 -4.649 290.043 377.137
3 20 21 23
3 21 22 23
3 0 1 36
3 15 16 45
3 0 17 36
3 16 26 45
3 17 18 37
3 25 26 44
3 17 36 37
3 26 44 45
3 18 19 38
3 24 25 43
3 18 37 38
3 25 43 44
3 19 20 38
3 23 24 43
3 20 21 39
3 22 23 42
3 20 38 39
3 23 42 43
3 21 22 27
3 21 27 39
3 22 27 42
3 27 28 42
3 27 28 39
3 28 42 47
3 28 39 40
3 1 36 41
3 15 45 46
3 1 2 41
3 14 15 46
3 28 29 40
3 28 29 47
3 2 40 41
3 14 46 47
3 2 29 40
3 14 29 47
3 2 3 29
3 13 14 29
3 29 30 31
3 29 30 35
3 3 29 31
3 13 29 35
3 30 32 33
3 30 33 34
3 30 31 32
3 30 34 35
3 3 4 31
3 12 13 35
3 4 5 48
3 11 12 54
3 5 6 48
3 10 11 54
3 6 48 59
3 10 54 55
3 6 7 59
3 9 10 55
3 7 58 59
3 9 55 56
3 8 57 58
3 8 56 57
3 7 8 58
3 8 9 56
3 4 31 48
3 12 35 54
3 31 48 49
3 35 53 54
3 31 49 50
3 35 52 53
3 31 32 50
3 34 35 52
3 32 33 50
3 33 34 52
3 33 50 51
3 33 51 52
3 48 49 60
3 49 60 50
3 50 60 61
3 50 51 61
3 51 52 61
3 61 62 52
3 52 53 62
3 53 54 62
3 54 55 63
3 55 56 63
3 56 63 64
3 56 57 64
3 64 65 57
3 57 58 65
3 58 59 65
3 48 59 65
