ply
format ascii 1.0
element vertex 66
property float x
property float y
property float z
property float u
property float v
element face 91
property list uchar int vertex_indices
end_header
-20.4779 -5.28402 21.3307 59.2181 177.391
-19.6899 -0.230958 20.8993 61.6487 201.847
-18.5223 4.76268 20.539 65.937 226.026
-17.0567 9.55321 18.4668 71.8995 251.593
-14.9746 13.898 13.5351 81.2653 279.009
-11.8955 17.5998 8.07915 95.7194 304.354
-7.99503 20.5757 3.43127 114.303 325.432
-3.44745 22.5819 -0.824381 136.276 341.605
1.62584 22.8323 -4.4343 161.25 348.824
6.61425 21.9184 -0.782849 185.446 340.952
10.8155 19.3443 3.51806 206.223 324.24
14.2244 15.8754 8.21254 223.361 302.614
16.6829 11.7777 13.7152 235.974 276.734
18.0402 7.16177 18.6716 243.428 248.873
18.7635 2.18083 20.7568 248.175 222.942
19.1922 -2.95923 21.1461 251.697 198.438
19.2362 -8.10436 21.5919 253.341 173.738
-17.3423 -14.0246 0.184329 79.0188 165.19
-15.1466 -16.2511 -1.5629 90.5138 157.613
-12.194 -17.3366 -2.96499 105.334 155.118
-9.05312 -17.4994 -4.32482 120.802 156.939
-5.96777 -17.0361 -5.56941 135.809 161.528
3.46786 -17.7002 -5.48433 181.927 160.658
6.42901 -18.6152 -4.19823 196.481 155.406
9.53555 -18.9191 -2.80226 211.558 152.908
12.597 -18.3022 -1.36631 226.147 154.664
15.0911 -16.4564 0.393779 237.591 161.61
-0.81789 -12.111 -4.8664 159.402 184.972
-0.570482 -9.04082 -7.73834 160.004 203.229
-0.321597 -5.99774 -10.7105 160.629 221.491
-0.0731139 -2.9587 -13.5022 161.237 239.496
-3.1171 1.31981 -6.55248 144.525 249.594
-1.48513 1.63844 -7.36535 152.456 252.571
0.206982 1.66725 -8.12068 160.758 254.128
1.87611 1.3993 -7.32464 168.885 252.235
3.43523 0.850234 -6.48745 176.552 248.942
-13.2794 -9.85168 -0.757547 97.694 187.014
-11.2704 -11.5428 -1.05249 107.987 179.978
-8.61247 -11.7514 -1.25554 121.006 179.932
-6.40061 -10.417 -1.09313 131.376 186.525
-8.6174 -9.51404 -1.1679 120.333 190.304
-11.0393 -9.21214 -1.04716 108.444 190.955
4.84964 -11.2207 -0.978918 186.365 185.415
6.85022 -12.8689 -1.13482 196.592 178.394
9.51182 -13.0455 -0.911861 209.578 177.935
11.7448 -11.6654 -0.599202 220.024 184.549
9.62167 -10.7049 -0.903109 209.442 188.924
7.18013 -10.6501 -1.04191 197.553 188.755
-5.95122 9.55085 -2.76669 128.006 282.462
-4.23349 7.52327 -4.97222 137.161 276.305
-2.06435 5.98055 -6.64483 148.324 271.828
0.480504 5.97147 -8.34248 160.879 274.668
2.99356 5.63072 -6.61196 173.044 271.407
5.33401 6.86411 -4.91221 183.922 275.524
7.29172 8.63486 -2.68364 192.731 281.364
5.51823 10.1373 -3.94945 183.789 289.64
3.28718 11.0375 -5.27187 172.796 295.054
0.830601 11.36 -6.62042 160.874 297.737
-1.64042 11.3723 -5.30124 148.714 295.432
-3.97892 10.7862 -3.99673 137.372 290.373
-1.98904 8.25566 -5.24419 147.904 280.659
0.611135 7.96556 -7.41188 160.854 282.817
3.20203 7.89762 -5.20374 173.275 280.223
3.16747 8.27677 -4.57633 172.937 281.161
0.635554 8.46541 -6.43419 160.736 283.872
-1.91407 8.62514 -4.60122 148.102 281.558
3 20 21 23
3 21 22 23
3 0 1 36
3 15 16 45
3 0 17 36
3 16 26 45
3 17 18 37
3 25 26 44
3 17 36 37
3 26 44 45
3 18 19 38
3 24 25 43
3 18 37 38
3 25 43 44
3 19 20 38
3 23 24 43
3 20 21 39
3 22 23 42
3 20 38 39
3 23 42 43
3 21 22 27
3 21 27 39
3 22 27 42
3 27 28 42
3 27 28 39
3 28 42 47
3 28 39 40
3 1 36 41
3 15 45 46
3 1 2 41
3 14 15 46
3 28 29 40
3 28 29 47
3 2 40 41
3 14 46 47
3 2 29 40
3 14 29 47
3 2 3 29
3 13 14 29
3 29 30 31
3 29 30 35
3 3 29 31
3 13 29 35
3 30 32 33
3 30 33 34
3 30 31 32
3 30 34 35
3 3 4 31
3 12 13 35
3 4 5 48
3 11 12 54
3 5 6 48
3 10 11 54
3 6 48 59
3 10 54 55
3 6 7 59
3 9 10 55
3 7 58 59
3 9 55 56
3 8 57 58
3 8 56 57
3 7 8 58
3 8 9 56
3 4 31 48
3 12 35 54
3 31 48 49
3 35 53 54
3 31 49 50
3 35 52 53
3 31 32 50
3 34 35 52
3 32 33 50
3 33 34 52
3 33 50 51
3 33 51 52
3 48 49 60
3 49 60 50
3 50 60 61
3 50 51 61
3 51 52 61
3 61 62 52
3 52 53 62
3 53 54 62
3 54 55 63
3 55 56 63
3 56 63 64
3 56 57 64
3 64 65 57
3 57 58 65
3 58 59 65
3 48 59 65
