ply
format ascii 1.0
element vertex 66
property float x
property float y
property float z
property float u
property float v
element face 91
property list uchar int vertex_indices
end_header
-20.6547 -5.64822 21.3079 97.9851 207.182
-20.0519 -0.423649 20.8425 101.601 239.065
-19.1146 4.7667 20.4846 107.101 270.701
-17.7568 9.73356 18.3869 114.255 303.222
-15.6469 14.1974 13.4633 125.451 336.785
-12.4006 17.9009 7.99404 142.765 368.304
-8.27017 20.7526 3.29433 165.322 395.596
-3.55056 22.6779 -0.880153 192.795 416.284
1.65875 22.9008 -4.53572 225.055 424.127
6.75338 21.9412 -0.807894 256.069 414.902
11.0958 19.3665 3.41769 281.925 393.424
14.7165 15.9593 8.15704 303.239 366.193
17.3322 11.8354 13.6544 319.157 334.581
18.7221 7.12069 18.5937 328.158 300.054
19.3316 2.01325 20.7063 333.146 266.008
19.5157 -3.2566 21.0748 336.76 232.736
19.3623 -8.51341 21.5385 338.714 199.38
-16.9434 -14.0024 0.166523 117.334 187.884
-14.6923 -16.1532 -1.56921 131.64 175.505
-11.7473 -17.1684 -2.95979 150.792 169.819
-8.64008 -17.2567 -4.29633 171.261 170.007
-5.61118 -16.6863 -5.52226 191.34 174.23
3.24342 -17.3161 -5.43542 241.233 170.888
6.14406 -18.3113 -4.17859 261.048 164.098
9.21432 -18.6656 -2.80935 281.705 161.444
12.2557 -18.0793 -1.38764 301.801 164.701
14.7675 -16.2699 0.371491 318.04 175.231
-0.800008 -11.6067 -4.9545 216.778 198.433
-0.571382 -8.59445 -7.76035 217.709 221.158
-0.341526 -5.60559 -10.6633 218.712 243.805
-0.111056 -2.62069 -13.4075 219.724 266.254
-3.34691 0.90089 -6.47077 197.208 278.764
-1.6415 1.2941 -7.26957 208.188 282.978
0.142254 1.35258 -8.01839 219.843 284.741
1.89493 1.04463 -7.21848 231.657 282.06
3.5165 0.412997 -6.40175 242.75 276.92
-12.5316 -9.74495 -0.905324 143.681 207.687
-10.6698 -11.0691 -1.10649 156.275 199.861
-8.3451 -11.2534 -1.2279 171.56 199.268
-6.35058 -10.2247 -0.977391 184.883 205.113
-8.3556 -9.50683 -1.10156 171.309 207.805
-10.5048 -9.27615 -1.09011 157.279 209.333
4.83678 -11.0227 -0.887733 251.787 201.107
6.66716 -12.3254 -1.11779 264.691 193.635
8.99246 -12.4738 -0.968074 280.244 192.838
11.0209 -11.4279 -0.742362 293.9 199.322
9.08377 -10.6753 -0.948989 280.408 202.485
6.92444 -10.5977 -0.987214 266.016 202.484
-6.63855 8.84013 -2.74685 165.244 319.101
-4.73902 6.8457 -4.89305 180.276 308.4
-2.32888 5.4219 -6.54708 199.906 302.804
0.427259 5.35547 -8.22771 221.347 304.175
3.15408 5.03248 -6.48681 242.566 301.143
5.72158 6.09946 -4.80547 262.695 305.174
7.86034 7.80446 -2.63884 278.809 314.367
6.14905 9.90529 -3.93286 265.847 335.132
3.75933 11.3254 -5.28293 246.833 350.281
0.883179 11.8243 -6.67982 222.917 356.072
-2.0422 11.738 -5.34336 198.873 352.103
-4.62825 10.6744 -4.02161 179.084 338.649
-2.38864 7.57584 -5.20395 193.553 313.748
0.55887 7.21472 -7.41824 221.62 314.455
3.50364 7.15671 -5.14457 249.435 311.62
3.65722 8.62822 -4.49552 251.195 331.717
0.689237 9.10764 -6.42523 222.22 339.322
-2.33557 9.05505 -4.5521 192.771 333.92
3 20 21 23
3 21 22 23
3 0 1 36
3 15 16 45
3 0 17 36
3 16 26 45
3 17 18 37
3 25 26 44
3 17 36 37
3 26 44 45
3 18 19 38
3 24 25 43
3 18 37 38
3 25 43 44
3 19 20 38
3 23 24 43
3 20 21 39
3 22 23 42
3 20 38 39
3 23 42 43
3 21 22 27
3 21 27 39
3 22 27 42
3 27 28 42
3 27 28 39
3 28 42 47
3 28 39 40
3 1 36 41
3 15 45 46
3 1 2 41
3 14 15 46
3 28 29 40
3 28 29 47
3 2 40 41
3 14 46 47
3 2 29 40
3 14 29 47
3 2 3 29
3 13 14 29
3 29 30 31
3 29 30 35
3 3 29 31
3 13 29 35
3 30 32 33
3 30 33 34
3 30 31 32
3 30 34 35
3 3 4 31
3 12 13 35
3 4 5 48
3 11 12 54
3 5 6 48
3 10 11 54
3 6 48 59
3 10 54 55
3 6 7 59
3 9 10 55
3 7 58 59
3 9 55 56
3 8 57 58
3 8 56 57
3 7 8 58
3 8 9 56
3 4 31 48
3 12 35 54
3 31 48 49
3 35 53 54
3 31 49 50
3 35 52 53
3 31 32 50
3 34 35 52
3 32 33 50
3 33 34 52
3 33 50 51
3 33 51 52
3 48 49 60
3 49 60 50
3 50 60 61
3 50 51 61
3 51 52 61
3 61 62 52
3 52 53 62
3 53 54 62
3 54 55 63
3 55 56 63
3 56 63 64
3 56 57 64
3 64 65 57
3 57 58 65
3 58 59 65
3 48 59 65
