ply
format ascii 1.0
element vertex 66
property float x
property float y
property float z
property float u
property float v
element face 91
property list uchar int vertex_indices
end_header
-20.3841 -5.84281 21.1463 340.803 76.8303
-19.8724 -0.601529 20.7209 341.408 86.6483
-19.0701 4.62295 20.4327 342.542 96.4362
-17.871 9.61133 18.3822 344.579 106.047
-15.9277 14.1557 13.5886 348.261 115.248
-12.8166 18.0592 8.05449 354.222 123.435
-8.70922 21.1282 3.35869 362.025 130.029
-3.90175 23.2071 -0.856635 371.162 134.769
1.46308 23.5331 -4.57425 381.42 136.226
6.80997 22.7699 -0.908317 391.106 134.68
11.4869 20.3726 3.33519 399.618 129.98
15.3485 16.9713 8.07977 406.645 123.295
17.9674 12.6912 13.7214 411.351 114.777
19.0807 7.6814 18.6914 413.37 104.893
19.43 2.17924 20.7788 414.245 94.4274
19.4343 -3.51796 21.2387 414.63 83.7932
19.1696 -9.20004 21.6969 414.514 73.1693
-16.4976 -13.6203 0.0507628 350.361 65.459
-14.3152 -15.5737 -1.63699 354.701 62.2037
-11.5417 -16.4523 -3.04321 360.038 60.9453
-8.65761 -16.5658 -4.43142 365.522 61.112
-5.85238 -16.1061 -5.68113 370.807 62.3186
3.20624 -16.9956 -5.48397 387.691 61.2469
5.96329 -18.029 -4.21306 392.784 59.3443
8.89475 -18.4658 -2.80845 398.146 58.5428
11.8657 -18.1108 -1.37964 403.522 59.2103
14.4661 -16.5905 0.279598 408.106 61.9851
-0.913171 -11.9224 -5.00288 379.625 70.323
-0.565812 -8.79691 -7.77117 380.275 76.5146
-0.215526 -5.69759 -10.6428 380.94 82.6716
0.125388 -2.59851 -13.3554 381.575 88.8064
-3.10537 0.664919 -6.25516 374.738 93.7036
-1.48398 1.0122 -7.19804 377.805 94.5818
0.220352 1.04924 -8.02658 381.039 94.8745
1.91182 0.735749 -7.16022 384.133 94.2906
3.48146 0.122555 -6.24023 387.018 93.1352
-12.498 -9.72815 -1.01174 357.6 73.0909
-10.7116 -10.9765 -1.1456 361.022 70.9112
-8.50655 -11.2323 -1.21257 365.145 70.5927
-6.54491 -10.4375 -1.09042 368.722 72.1825
-8.44871 -9.7377 -1.17131 365.14 73.3649
-10.514 -9.45156 -1.12774 361.277 73.7521
4.85294 -11.4314 -0.745312 389.949 71.0538
6.68191 -12.6528 -1.02625 393.461 68.9464
8.94835 -12.7801 -0.997771 397.68 68.858
10.9905 -11.8962 -0.883076 401.401 70.6196
9.06379 -11.2355 -0.930542 397.776 71.7233
6.93239 -11.1183 -0.907777 393.804 71.7953
-6.33252 8.65229 -2.78943 367.867 107.851
-4.31145 6.9789 -4.78912 371.913 105.146
-1.98525 5.84886 -6.49112 376.461 103.431
0.521222 5.86326 -8.18402 381.261 103.85
2.97198 5.48357 -6.55759 385.707 103.093
5.41585 6.28757 -4.81012 390.044 104.516
7.65177 7.60997 -2.68272 393.925 106.837
5.84331 9.46998 -4.03876 390.542 110.348
3.4513 10.6203 -5.3674 386.123 112.5
0.728827 10.9967 -6.65327 381.144 113.187
-1.95773 10.9941 -5.31939 376.039 112.826
-4.40071 10.2054 -3.96959 371.443 111.019
-2.11488 7.82357 -5.13679 375.963 106.907
0.580938 7.57617 -7.31079 381.173 106.917
3.21582 7.43299 -5.19155 385.903 106.545
3.27777 8.08292 -4.57317 385.919 107.674
0.565687 8.3925 -6.29801 381.001 108.296
-2.18736 8.47858 -4.47365 375.725 108.03
3 20 21 23
3 21 22 23
3 0 1 36
3 15 16 45
3 0 17 36
3 16 26 45
3 17 18 37
3 25 26 44
3 17 36 37
3 26 44 45
3 18 19 38
3 24 25 43
3 18 37 38
3 25 43 44
3 19 20 38
3 23 24 43
3 20 21 39
3 22 23 42
3 20 38 39
3 23 42 43
3 21 22 27
3 21 27 39
3 22 27 42
3 27 28 42
3 27 28 39
3 28 42 47
3 28 39 40
3 1 36 41
3 15 45 46
3 1 2 41
3 14 15 46
3 28 29 40
3 28 29 47
3 2 40 41
3 14 46 47
3 2 29 40
3 14 29 47
3 2 3 29
3 13 14 29
3 29 30 31
3 29 30 35
3 3 29 31
3 13 29 35
3 30 32 33
3 30 33 34
3 30 31 32
3 30 34 35
3 3 4 31
3 12 13 35
3 4 5 48
3 11 12 54
3 5 6 48
3 10 11 54
3 6 48 59
3 10 54 55
3 6 7 59
3 9 10 55
3 7 58 59
3 9 55 56
3 8 57 58
3 8 56 57
3 7 8 58
3 8 9 56
3 4 31 48
3 12 35 54
3 31 48 49
3 35 53 54
3 31 49 50
3 35 52 53
3 31 32 50
3 34 35 52
3 32 33 50
3 33 34 52
3 33 50 51
3 33 51 52
3 48 49 60
3 49 60 50
3 50 60 61
3 50 51 61
3 51 52 61
3 61 62 52
3 52 53 62
3 53 54 62
3 54 55 63
3 55 56 63
3 56 63 64
3 56 57 64
3 64 65 57
3 57 58 65
3 58 59 65
3 48 59 65
