ply
format ascii 1.0
element vertex 66
property float x
property float y
property float z
property float u
property float v
element face 91
property list uchar int vertex_indices
end_header
75.8111 194.436 0 75.8111 194.436
78.2452 216.795 0 78.2452 216.795
82.1505 238.963 0 82.1505 238.963
87.7158 261.315 0 87.7158 261.315
96.4725 282.762 0 96.4725 282.762
110.782 299.995 0 110.782 299.995
128.94 312.176 0 128.94 312.176
148.837 320.404 0 148.837 320.404
169.854 322.546 0 169.854 322.546
192.291 316.468 0 192.291 316.468
212.525 304.623 0 212.525 304.623
230.497 289.329 0 230.497 289.329
244.606 269.907 0 244.606 269.907
252.792 247.77 0 252.792 247.77
256.216 225.638 0 256.216 225.638
256.821 204.091 0 256.821 204.091
255.98 182.534 0 255.98 182.534
87.4199 170.054 0 87.4199 170.054
97.5851 162.527 0 97.5851 162.527
110.53 159.958 0 110.53 159.958
123.972 161.463 0 123.972 161.463
136.957 165.727 0 136.957 165.727
176.359 163.608 0 176.359 163.608
189.041 157.907 0 189.041 157.907
202.644 154.756 0 202.644 154.756
216.424 155.596 0 216.424 155.596
228.327 161.629 0 228.327 161.629
158.491 188.599 0 158.491 188.599
158.452 202.291 0 158.452 202.291
158.38 215.976 0 158.38 215.976
158.36 229.566 0 158.36 229.566
144.749 239.831 0 144.749 239.831
152.858 242.476 0 152.858 242.476
161.345 243.355 0 161.345 243.355
170.024 241.358 0 170.024 241.358
178.033 237.659 0 178.033 237.659
109.705 194.151 0 109.705 194.151
117.849 190.718 0 117.849 190.718
126.901 190.233 0 126.901 190.233
135.488 192.732 0 135.488 192.732
126.908 194.701 0 126.908 194.701
118.18 195.405 0 118.18 195.405
184.456 189.775 0 184.456 189.775
192.422 186.409 0 192.422 186.409
201.44 185.806 0 201.44 185.806
209.976 188.307 0 209.976 188.307
201.601 190.487 0 201.601 190.487
192.991 190.797 0 192.991 190.797
127.021 263.707 0 127.021 263.707
137.274 258.024 0 137.274 258.024
149.387 254.717 0 149.387 254.717
162.212 255.57 0 162.212 255.57
175.852 252.902 0 175.852 252.902
189.345 254.456 0 189.345 254.456
201.617 258.742 0 201.617 258.742
192.02 268.906 0 192.02 268.906
179.302 275.79 0 179.302 275.79
164.833 278.681 0 164.833 278.681
150.739 277.816 0 150.739 277.816
137.656 272.647 0 137.656 272.647
147.593 262.078 0 147.593 262.078
163.024 262.436 0 163.024 262.436
179.682 259.856 0 179.682 259.856
181.137 265.722 0 181.137 265.722
163.964 269.139 0 163.964 269.139
147.767 268.048 0 147.767 268.048
3 20 21 23
3 21 22 23
3 0 1 36
3 15 16 45
3 0 17 36
3 16 26 45
3 17 18 37
3 25 26 44
3 17 36 37
3 26 44 45
3 18 19 38
3 24 25 43
3 18 37 38
3 25 43 44
3 19 20 38
3 23 24 43
3 20 21 39
3 22 23 42
3 20 38 39
3 23 42 43
3 21 22 27
3 21 27 39
3 22 27 42
3 27 28 42
3 27 28 39
3 28 42 47
3 28 39 40
3 1 36 41
3 15 45 46
3 1 2 41
3 14 15 46
3 28 29 40
3 28 29 47
3 2 40 41
3 14 46 47
3 2 29 40
3 14 29 47
3 2 3 29
3 13 14 29
3 29 30 31
3 29 30 35
3 3 29 31
3 13 29 35
3 30 32 33
3 30 33 34
3 30 31 32
3 30 34 35
3 3 4 31
3 12 13 35
3 4 5 48
3 11 12 54
3 5 6 48
3 10 11 54
3 6 48 59
3 10 54 55
3 6 7 59
3 9 10 55
3 7 58 59
3 9 55 56
3 8 57 58
3 8 56 57
3 7 8 58
3 8 9 56
3 4 31 48
3 12 35 54
3 31 48 49
3 35 53 54
3 31 49 50
3 35 52 53
3 31 32 50
3 34 35 52
3 32 33 50
3 33 34 52
3 33 50 51
3 33 51 52
3 48 49 60
3 49 60 50
3 50 60 61
3 50 51 61
3 51 52 61
3 61 62 52
3 52 53 62
3 53 54 62
3 54 55 63
3 55 56 63
3 56 63 64
3 56 57 64
3 64 65 57
3 57 58 65
3 58 59 65
3 48 59 65
