ply
format ascii 1.0
element vertex 66
property float x
property float y
property float z
property float u
property float v
element face 91
property list uchar int vertex_indices
end_header
52.4875 178.716 0 52.4875 178.716
56.1951 202.752 0 56.1951 202.752
61.564 226.468 0 61.564 226.468
67.9321 250.735 0 67.9321 250.735
77.4234 275.325 0 77.4234 275.325
91.8712 297.408 0 91.8712 297.408
109.981 315.835 0 109.981 315.835
131.167 329.82 0 131.167 329.82
155.215 334.69 0 155.215 334.69
178.765 328.294 0 178.765 328.294
198.848 313.117 0 198.848 313.117
215.619 293.735 0 215.619 293.735
228.366 270.813 0 228.366 270.813
235.955 245.631 0 235.955 245.631
240.626 220.887 0 240.626 220.887
244.462 196.758 0 244.462 196.758
246.685 172.418 0 246.685 172.418
67.6682 152.061 0 67.6682 152.061
80.7891 144.403 0 80.7891 144.403
96.7247 142.663 0 96.7247 142.663
112.819 145.041 0 112.819 145.041
128.222 150.268 0 128.222 150.268
169.227 149.03 0 169.227 149.03
184.304 142.65 0 184.304 142.65
200.272 139.085 0 200.272 139.085
216.403 139.625 0 216.403 139.625
230.195 146.294 0 230.195 146.294
149.534 173.986 0 149.534 173.986
150.102 192.486 0 150.102 192.486
150.687 210.94 0 150.687 210.94
151.282 229.188 0 151.282 229.188
134.896 238.205 0 134.896 238.205
142.982 241.599 0 142.982 241.599
151.616 243.026 0 151.616 243.026
160.266 241.054 0 160.266 241.054
168.238 237.119 0 168.238 237.119
87.7465 174.349 0 87.7465 174.349
98.1091 167.425 0 98.1091 167.425
110.933 167.517 0 110.933 167.517
121.197 174.606 0 121.197 174.606
110.057 177.172 0 110.057 177.172
98.4336 177.722 0 98.4336 177.722
178.692 172.652 0 178.692 172.652
188.518 164.862 0 188.518 164.862
201.336 164.009 0 201.336 164.009
212.14 170.254 0 212.14 170.254
201.652 174.294 0 201.652 174.294
189.995 174.54 0 189.995 174.54
115.596 267.742 0 115.596 267.742
126.628 262.118 0 126.628 262.118
139.151 258.726 0 139.151 258.726
152.256 260.855 0 152.256 260.855
165.268 257.923 0 165.268 257.923
178.028 260.551 0 178.028 260.551
189.509 265.461 0 189.509 265.461
179.351 274.878 0 179.351 274.878
166.627 280.649 0 166.627 280.649
152.985 283.1 0 152.985 283.1
139.249 281.52 0 139.249 281.52
126.219 276.549 0 126.219 276.549
137.619 267.145 0 137.619 267.145
152.495 268.765 0 152.495 268.765
167.31 266.215 0 167.31 266.215
167.436 267.664 0 167.436 267.664
152.524 269.867 0 152.524 269.867
137.552 268.582 0 137.552 268.582
3 20 21 23
3 21 22 23
3 0 1 36
3 15 16 45
3 0 17 36
3 16 26 45
3 17 18 37
3 25 26 44
3 17 36 37
3 26 44 45
3 18 19 38
3 24 25 43
3 18 37 38
3 25 43 44
3 19 20 38
3 23 24 43
3 20 21 39
3 22 23 42
3 20 38 39
3 23 42 43
3 21 22 27
3 21 27 39
3 22 27 42
3 27 28 42
3 27 28 39
3 28 42 47
3 28 39 40
3 1 36 41
3 15 45 46
3 1 2 41
3 14 15 46
3 28 29 40
3 28 29 47
3 2 40 41
3 14 46 47
3 2 29 40
3 14 29 47
3 2 3 29
3 13 14 29
3 29 30 31
3 29 30 35
3 3 29 31
3 13 29 35
3 30 32 33
3 30 33 34
3 30 31 32
3 30 34 35
3 3 4 31
3 12 13 35
3 4 5 48
3 11 12 54
3 5 6 48
3 10 11 54
3 6 48 59
3 10 54 55
3 6 7 59
3 9 10 55
3 7 58 59
3 9 55 56
3 8 57 58
3 8 56 57
3 7 8 58
3 8 9 56
3 4 31 48
3 12 35 54
3 31 48 49
3 35 53 54
3 31 49 50
3 35 52 53
3 31 32 50
3 34 35 52
3 32 33 50
3 33 34 52
3 33 50 51
3 33 51 52
3 48 49 60
3 49 60 50
3 50 60 61
3 50 51 61
3 51 52 61
3 61 62 52
3 52 53 62
3 53 54 62
3 54 55 63
3 55 56 63
3 56 63 64
3 56 57 64
3 64 65 57
3 57 58 65
3 58 59 65
3 48 59 65
