ply
format ascii 1.0
element vertex 66
property float x
property float y
property float z
property float u
property float v
element face 91
property list uchar int vertex_indices
end_header
63.5331 216.231 0 63.5331 216.231
65.016 238.683 0 65.016 238.683
67.9842 261.038 0 67.9842 261.038
72.3969 282.794 0 72.3969 282.794
79.8845 302.958 0 79.8845 302.958
91.4825 320.963 0 91.4825 320.963
106.102 336.839 0 106.102 336.839
123.878 349.396 0 123.878 349.396
145.5 353.824 0 145.5 353.824
168.415 350.75 0 168.415 350.75
188.376 339.721 0 188.376 339.721
205.826 325.271 0 205.826 325.271
220.344 308.139 0 220.344 308.139
230.219 287.932 0 230.219 287.932
236.269 265.549 0 236.269 265.549
240.565 242.422 0 240.565 242.422
243.553 219.114 0 243.553 219.114
78.1836 177.999 0 78.1836 177.999
89.7992 170.073 0 89.7992 170.073
103.713 167.312 0 103.713 167.312
117.875 168.357 0 117.875 168.357
131.347 172.483 0 131.347 172.483
166.276 172.731 0 166.276 172.731
180.852 168.661 0 180.852 168.661
196.081 167.868 0 196.081 167.868
210.999 171.123 0 210.999 171.123
223.502 179.624 0 223.502 179.624
148.241 193.084 0 148.241 193.084
147.42 209.443 0 147.42 209.443
146.613 225.665 0 146.613 225.665
145.862 241.861 0 145.862 241.861
130.788 250.664 0 130.788 250.664
138.242 253.885 0 138.242 253.885
146.364 255.25 0 146.364 255.25
155.018 254.139 0 155.018 254.139
163.189 251.155 0 163.189 251.155
94.9463 198.777 0 94.9463 198.777
104.765 193.502 0 104.765 193.502
116.083 193.756 0 116.083 193.756
125.493 199.291 0 125.493 199.291
115.204 200.511 0 115.204 200.511
104.794 200.752 0 104.794 200.752
174.078 199.695 0 174.078 199.695
183.752 194.25 0 183.752 194.25
195.36 194.498 0 195.36 194.498
205.326 200.022 0 205.326 200.022
195.16 201.708 0 195.16 201.708
184.593 201.238 0 184.593 201.238
105.858 276.913 0 105.858 276.913
117.591 269.952 0 117.591 269.952
131.919 267.075 0 131.919 267.075
146.563 267.908 0 146.563 267.908
161.99 267.602 0 161.99 267.602
176.997 271.071 0 176.997 271.071
189.578 278.317 0 189.578 278.317
179.131 292.943 0 179.131 292.943
164.213 303.199 0 164.213 303.199
145.973 305.817 0 145.973 305.817
128.491 302.601 0 128.491 302.601
114.655 291.893 0 114.655 291.893
127.376 274.862 0 127.376 274.862
146.408 275.261 0 146.408 275.261
166.458 275.503 0 166.458 275.503
167.421 290.255 0 167.421 290.255
146.142 293.408 0 146.142 293.408
125.848 289.533 0 125.848 289.533
3 20 21 23
3 21 22 23
3 0 1 36
3 15 16 45
3 0 17 36
3 16 26 45
3 17 18 37
3 25 26 44
3 17 36 37
3 26 44 45
3 18 19 38
3 24 25 43
3 18 37 38
3 25 43 44
3 19 20 38
3 23 24 43
3 20 21 39
3 22 23 42
3 20 38 39
3 23 42 43
3 21 22 27
3 21 27 39
3 22 27 42
3 27 28 42
3 27 28 39
3 28 42 47
3 28 39 40
3 1 36 41
3 15 45 46
3 1 2 41
3 14 15 46
3 28 29 40
3 28 29 47
3 2 40 41
3 14 46 47
3 2 29 40
3 14 29 47
3 2 3 29
3 13 14 29
3 29 30 31
3 29 30 35
3 3 29 31
3 13 29 35
3 30 32 33
3 30 33 34
3 30 31 32
3 30 34 35
3 3 4 31
3 12 13 35
3 4 5 48
3 11 12 54
3 5 6 48
3 10 11 54
3 6 48 59
3 10 54 55
3 6 7 59
3 9 10 55
3 7 58 59
3 9 55 56
3 8 57 58
3 8 56 57
3 7 8 58
3 8 9 56
3 4 31 48
3 12 35 54
3 31 48 49
3 35 53 54
3 31 49 50
3 35 52 53
3 31 32 50
3 34 35 52
3 32 33 50
3 33 34 52
3 33 50 51
3 33 51 52
3 48 49 60
3 49 60 50
3 50 60 61
3 50 51 61
3 51 52 61
3 61 62 52
3 52 53 62
3 53 54 62
3 54 55 63
3 55 56 63
3 56 63 64
3 56 57 64
3 64 65 57
3 57 58 65
3 58 59 65
3 48 59 65
