ply
format ascii 1.0
element vertex 66
property float x
property float y
property float z
property float u
property float v
element face 91
property list uchar int vertex_indices
end_header
120.51 230.793 0 120.51 230.793
122.12 254.643 0 122.12 254.643
125.213 278.401 0 125.213 278.401
129.204 301.518 0 129.204 301.518
135.581 323.449 0 135.581 323.449
147.222 343.118 0 147.222 343.118
163.946 359.154 0 163.946 359.154
184.328 370.745 0 184.328 370.745
207.848 374.02 0 207.848 374.02
232.471 371.728 0 232.471 371.728
254.458 361.291 0 254.458 361.291
273.071 346.115 0 273.071 346.115
286.474 326.672 0 286.474 326.672
293.401 303.809 0 293.401 303.809
297.188 279.077 0 297.188 279.077
299.875 253.613 0 299.875 253.613
301.247 228.073 0 301.247 228.073
130.282 193.459 0 130.282 193.459
140.615 184.102 0 140.615 184.102
154.145 180.73 0 154.145 180.73
168.025 181.731 0 168.025 181.731
181.255 185.591 0 181.255 185.591
229.592 184.123 0 229.592 184.123
243.604 179.168 0 243.604 179.168
258.426 177.295 0 258.426 177.295
273.157 180.062 0 273.157 180.062
285.031 189.117 0 285.031 189.117
206.206 213.675 0 206.206 213.675
206.471 228.215 0 206.471 228.215
206.754 242.647 0 206.754 242.647
207.049 257.048 0 207.049 257.048
193.208 271.548 0 193.208 271.548
200.214 273.074 0 200.214 273.074
207.482 273.479 0 207.482 273.479
215.114 272.707 0 215.114 272.707
222.488 270.8 0 222.488 270.8
149.97 218.234 0 149.97 218.234
158.865 211.577 0 158.865 211.577
170.114 211.425 0 170.114 211.425
179.104 217.599 0 179.104 217.599
169.61 221.279 0 169.61 221.279
159.292 221.833 0 159.292 221.833
234.846 216.161 0 234.846 216.161
243.665 209.151 0 243.665 209.151
255.174 208.782 0 255.174 208.782
264.78 214.783 0 264.78 214.783
255.451 219.051 0 255.451 219.051
244.851 219.164 0 244.851 219.164
176.148 308.834 0 176.148 308.834
185.755 301.284 0 185.755 301.284
196.494 295.709 0 196.494 295.709
208.098 296.558 0 208.098 296.558
220.08 295.288 0 220.08 295.288
231.484 300.511 0 231.484 300.511
242.097 307.472 0 242.097 307.472
232.839 315.906 0 232.839 315.906
221.1 320.851 0 221.1 320.851
208.221 322.189 0 208.221 322.189
195.969 321.229 0 195.969 321.229
184.813 316.776 0 184.813 316.776
195.693 305.916 0 195.693 305.916
208.178 305.494 0 208.178 305.494
221.069 305.436 0 221.069 305.436
221.175 307.991 0 221.175 307.991
208.126 308.616 0 208.126 308.616
195.494 308.44 0 195.494 308.44
3 20 21 23
3 21 22 23
3 0 1 36
3 15 16 45
3 0 17 36
3 16 26 45
3 17 18 37
3 25 26 44
3 17 36 37
3 26 44 45
3 18 19 38
3 24 25 43
3 18 37 38
3 25 43 44
3 19 20 38
3 23 24 43
3 20 21 39
3 22 23 42
3 20 38 39
3 23 42 43
3 21 22 27
3 21 27 39
3 22 27 42
3 27 28 42
3 27 28 39
3 28 42 47
3 28 39 40
3 1 36 41
3 15 45 46
3 1 2 41
3 14 15 46
3 28 29 40
3 28 29 47
3 2 40 41
3 14 46 47
3 2 29 40
3 14 29 47
3 2 3 29
3 13 14 29
3 29 30 31
3 29 30 35
3 3 29 31
3 13 29 35
3 30 32 33
3 30 33 34
3 30 31 32
3 30 34 35
3 3 4 31
3 12 13 35
3 4 5 48
3 11 12 54
3 5 6 48
3 10 11 54
3 6 48 59
3 10 54 55
3 6 7 59
3 9 10 55
3 7 58 59
3 9 55 56
3 8 57 58
3 8 56 57
3 7 8 58
3 8 9 56
3 4 31 48
3 12 35 54
3 31 48 49
3 35 53 54
3 31 49 50
3 35 52 53
3 31 32 50
3 34 35 52
3 32 33 50
3 33 34 52
3 33 50 51
3 33 51 52
3 48 49 60
3 49 60 50
3 50 60 61
3 50 51 61
3 51 52 61
3 61 62 52
3 52 53 62
3 53 54 62
3 54 55 63
3 55 56 63
3 56 63 64
3 56 57 64
3 64 65 57
3 57 58 65
3 58 59 65
3 48 59 65
