ply
format ascii 1.0
element vertex 66
property float x
property float y
property float z
property float u
property float v
element face 91
property list uchar int vertex_indices
end_header
-21.3381 -5.42602 21.6162 107.429 234.612
-20.6526 -0.177589 21.1723 110.354 263.888
-19.6596 5.0328 20.7836 115.027 292.926
-18.3679 9.95596 18.524 121.334 323.499
-16.2983 14.2414 13.5181 131.997 355.221
-12.8936 17.6215 8.03077 150.342 383.067
-8.53885 20.0557 3.39314 174.274 404.587
-3.64637 21.5484 -0.965217 201.428 420.653
1.6192 21.4839 -4.51869 231.013 427.048
6.80624 20.8283 -0.857727 260.666 418.515
11.3956 18.6969 3.55563 287.243 400.657
15.2838 15.6689 8.23599 310.028 377.38
18.0469 11.8201 13.7543 326.644 348.087
19.3462 7.25773 18.7922 335.082 315.439
19.8531 2.17091 21.0349 338.972 284.339
20.0803 -3.15694 21.4231 341.22 254.893
20.0111 -8.4729 21.8812 341.793 225.342
-18.0781 -13.9517 0.209736 126.157 223.783
-15.3897 -16.0294 -1.46018 141.631 215.738
-12.0834 -16.7625 -2.91114 160.374 214.734
-8.7412 -16.6153 -4.29649 179.168 218.4
-5.53539 -15.8562 -5.55722 197.09 225.152
3.2523 -16.4488 -5.50018 246.888 223.478
6.37583 -17.6236 -4.21794 264.83 215.612
9.705 -18.1989 -2.80986 283.836 210.828
13.0981 -17.8395 -1.3357 303.043 211.011
16.0097 -16.0402 0.397641 319.287 218.483
-0.816942 -11.2581 -4.98179 222.992 249.998
-0.568321 -8.11174 -7.80906 223.682 271.676
-0.320832 -5.00532 -10.8443 224.361 293.475
-0.0712392 -1.89814 -13.7273 225.061 315.031
-3.44164 1.62825 -6.62588 205.782 321.98
-1.67179 2.05259 -7.46875 215.667 325.975
0.179265 2.09876 -8.20886 226.084 327.769
2.00239 1.79183 -7.42456 236.492 325.172
3.68628 1.11796 -6.55904 246.181 320.429
-13.637 -9.67981 -0.654296 150.466 249.147
-11.4703 -11.305 -1.02706 162.984 241.351
-8.75339 -11.4022 -1.30264 178.348 241.775
-6.51784 -9.85971 -1.09297 190.729 250.204
-8.86619 -9.1893 -1.12408 177.33 253.451
-11.3399 -9.00119 -1.05808 163.313 253.904
4.9703 -10.6289 -1.03333 255.828 248.07
6.97809 -12.4602 -1.22663 267.493 238.837
9.67658 -12.7262 -0.920269 282.817 237.399
12.039 -11.4169 -0.510623 295.967 244.264
9.85811 -10.444 -0.937781 283.439 249.823
7.38551 -10.292 -1.03556 269.425 250.346
-7.67852 8.43968 -2.82898 180.837 351.927
-5.1424 6.80383 -4.93152 195.347 346.949
-2.38424 5.75843 -6.64013 211.031 344.571
0.453675 5.75024 -8.33837 226.984 347.809
3.25721 5.3641 -6.58334 243.004 343.388
6.1296 6.00833 -4.84322 259.231 344.586
8.86962 7.26032 -2.70776 274.624 348.409
6.66445 9.16139 -3.90474 261.752 360.24
3.82927 10.2325 -5.22648 245.456 367.662
0.800934 10.5345 -6.50191 228.207 370.807
-2.25491 10.6641 -5.30372 210.972 368.997
-5.22156 10.003 -4.03342 194.386 362.805
-2.85157 7.74226 -5.50037 208.103 353.38
0.578533 7.51896 -7.63502 227.417 356.271
3.99318 7.25739 -5.44695 246.896 351.935
4.09695 7.6927 -4.62557 247.452 352.979
0.600505 7.83173 -6.58263 227.546 356.261
-2.89615 8.183 -4.68536 207.819 354.436
3 20 21 23
3 21 22 23
3 0 1 36
3 15 16 45
3 0 17 36
3 16 26 45
3 17 18 37
3 25 26 44
3 17 36 37
3 26 44 45
3 18 19 38
3 24 25 43
3 18 37 38
3 25 43 44
3 19 20 38
3 23 24 43
3 20 21 39
3 22 23 42
3 20 38 39
3 23 42 43
3 21 22 27
3 21 27 39
3 22 27 42
3 27 28 42
3 27 28 39
3 28 42 47
3 28 39 40
3 1 36 41
3 15 45 46
3 1 2 41
3 14 15 46
3 28 29 40
3 28 29 47
3 2 40 41
3 14 46 47
3 2 29 40
3 14 29 47
3 2 3 29
3 13 14 29
3 29 30 31
3 29 30 35
3 3 29 31
3 13 29 35
3 30 32 33
3 30 33 34
3 30 31 32
3 30 34 35
3 3 4 31
3 12 13 35
3 4 5 48
3 11 12 54
3 5 6 48
3 10 11 54
3 6 48 59
3 10 54 55
3 6 7 59
3 9 10 55
3 7 58 59
3 9 55 56
3 8 57 58
3 8 56 57
3 7 8 58
3 8 9 56
3 4 31 48
3 12 35 54
3 31 48 49
3 35 53 54
3 31 49 50
3 35 52 53
3 31 32 50
3 34 35 52
3 32 33 50
3 33 34 52
3 33 50 51
3 33 51 52
3 48 49 60
3 49 60 50
3 50 60 61
3 50 51 61
3 51 52 61
3 61 62 52
3 52 53 62
3 53 54 62
3 54 55 63
3 55 56 63
3 56 63 64
3 56 57 64
3 64 65 57
3 57 58 65
3 58 59 65
3 48 59 65
