ply
format ascii 1.0
element vertex 66
property float x
property float y
property float z
property float u
property float v
element face 91
property list uchar int vertex_indices
end_header
308.349 568.757 0 308.349 568.757
310.63 606.983 0 310.63 606.983
315.001 645.115 0 315.001 645.115
320.994 682.359 0 320.994 682.359
331.763 717.094 0 331.763 717.094
351.35 747.427 0 351.35 747.427
377.822 772.738 0 377.822 772.738
409.746 791.115 0 409.746 791.115
446.773 796.733 0 446.773 796.733
481.556 790.912 0 481.556 790.912
510.533 771.032 0 510.533 771.032
532.941 744.209 0 532.941 744.209
548.6 713.453 0 548.6 713.453
557.873 680.086 0 557.873 680.086
564.021 645.247 0 564.021 645.247
568.899 609.648 0 568.899 609.648
570.973 573.835 0 570.973 573.835
345.144 506.935 0 345.144 506.935
361.359 494.8 0 361.359 494.8
380.892 489.489 0 380.892 489.489
401.011 490.365 0 401.011 490.365
420.199 496.021 0 420.199 496.021
489.394 498.016 0 489.394 498.016
506.017 494.122 0 506.017 494.122
523.366 494.544 0 523.366 494.544
539.773 500.233 0 539.773 500.233
552.59 512.056 0 552.59 512.056
454.392 547.278 0 454.392 547.278
455.013 567.809 0 455.013 567.809
455.573 588.208 0 455.573 588.208
456.023 608.573 0 456.023 608.573
427.919 637.391 0 427.919 637.391
440.447 641.678 0 440.447 641.678
453.743 643.651 0 453.743 643.651
465.753 642.404 0 465.753 642.404
477.043 638.77 0 477.043 638.77
368.567 550.309 0 368.567 550.309
381.818 542.508 0 381.818 542.508
397.581 543.137 0 397.581 543.137
409.635 552.398 0 409.635 552.398
395.946 556.779 0 395.946 556.779
381.411 556.395 0 381.411 556.395
490.627 554.945 0 490.627 554.945
502.859 546.816 0 502.859 546.816
517.882 546.504 0 517.882 546.504
529.821 555.134 0 529.821 555.134
517.456 560.604 0 517.456 560.604
503.51 560.017 0 503.51 560.017
393.027 679.73 0 393.027 679.73
411.793 670.819 0 411.793 670.819
431.792 665.456 0 431.792 665.456
452.133 666.971 0 452.133 666.971
470.644 666.374 0 470.644 666.374
488.254 672.429 0 488.254 672.429
503.407 682.518 0 503.407 682.518
490.819 700.39 0 490.819 700.39
472.454 712.342 0 472.454 712.342
450.461 715.12 0 450.461 715.12
427.002 711.153 0 427.002 711.153
407.397 698.248 0 407.397 698.248
426.397 678.937 0 426.397 678.937
451.729 679.938 0 451.729 679.938
474.419 680.223 0 474.419 680.223
475.697 693.883 0 475.697 693.883
451.073 696.585 0 451.073 696.585
424.529 692.694 0 424.529 692.694
3 20 21 23
3 21 22 23
3 0 1 36
3 15 16 45
3 0 17 36
3 16 26 45
3 17 18 37
3 25 26 44
3 17 36 37
3 26 44 45
3 18 19 38
3 24 25 43
3 18 37 38
3 25 43 44
3 19 20 38
3 23 24 43
3 20 21 39
3 22 23 42
3 20 38 39
3 23 42 43
3 21 22 27
3 21 27 39
3 22 27 42
3 27 28 42
3 27 28 39
3 28 42 47
3 28 39 40
3 1 36 41
3 15 45 46
3 1 2 41
3 14 15 46
3 28 29 40
3 28 29 47
3 2 40 41
3 14 46 47
3 2 29 40
3 14 29 47
3 2 3 29
3 13 14 29
3 29 30 31
3 29 30 35
3 3 29 31
3 13 29 35
3 30 32 33
3 30 33 34
3 30 31 32
3 30 34 35
3 3 4 31
3 12 13 35
3 4 5 48
3 11 12 54
3 5 6 48
3 10 11 54
3 6 48 59
3 10 54 55
3 6 7 59
3 9 10 55
3 7 58 59
3 9 55 56
3 8 57 58
3 8 56 57
3 7 8 58
3 8 9 56
3 4 31 48
3 12 35 54
3 31 48 49
3 35 53 54
3 31 49 50
3 35 52 53
3 31 32 50
3 34 35 52
3 32 33 50
3 33 34 52
3 33 50 51
3 33 51 52
3 48 49 60
3 49 60 50
3 50 60 61
3 50 51 61
3 51 52 61
3 61 62 52
3 52 53 62
3 53 54 62
3 54 55 63
3 55 56 63
3 56 63 64
3 56 57 64
3 64 65 57
3 57 58 65
3 58 59 65
3 48 59 65
