ply
format ascii 1.0
element vertex 66
property float x
property float y
property float z
property float u
property float v
element face 91
property list uchar int vertex_indices
end_header
327.128 417.009 0 327.128 417.009
329.8 447.662 0 329.8 447.662
334.595 478.219 0 334.595 478.219
341.369 507.703 0 341.369 507.703
351.818 534.778 0 351.818 534.778
367.931 559.064 0 367.931 559.064
389.11 579.941 0 389.11 579.941
414.975 595.365 0 414.975 595.365
445.392 600.042 0 445.392 600.042
476.024 596.272 0 476.024 596.272
502.415 582.001 0 502.415 582.001
524.348 562.157 0 524.348 562.157
541.272 538.532 0 541.272 538.532
551.721 511.146 0 551.721 511.146
557.923 480.768 0 557.923 480.768
562.166 449.26 0 562.166 449.26
564.466 417.639 0 564.466 417.639
347.457 368.607 0 347.457 368.607
361.643 356.306 0 361.643 356.306
379.638 351.236 0 379.638 351.236
398.256 352.106 0 398.256 352.106
415.988 357.242 0 415.988 357.242
467.749 356.234 0 467.749 356.234
485.742 349.922 0 485.742 349.922
504.823 347.994 0 504.823 347.994
523.647 351.989 0 523.647 351.989
539.161 363.466 0 539.161 363.466
443.21 390.701 0 443.21 390.701
443.726 410.624 0 443.726 410.624
444.266 430.486 0 444.266 430.486
444.83 450.409 0 444.83 450.409
424.65 466.301 0 424.65 466.301
434.451 470.23 0 434.451 470.23
445.123 471.632 0 445.123 471.632
456 469.77 0 456 469.77
465.893 465.325 0 465.893 465.325
371.51 397.492 0 371.51 397.492
383.193 390.814 0 383.193 390.814
396.973 390.27 0 396.973 390.27
408.767 396.041 0 408.767 396.041
396.467 399.031 0 396.467 399.031
383.671 399.768 0 383.671 399.768
477.793 394.704 0 477.793 394.704
489.407 388.048 0 489.407 388.048
503.377 387.938 0 503.377 387.938
515.719 393.862 0 515.719 393.862
503.592 396.952 0 503.592 396.952
490.556 396.942 0 490.556 396.942
403.854 503.764 0 403.854 503.764
415.683 493.95 0 415.683 493.95
430.376 488.481 0 430.376 488.481
445.918 489.007 0 445.918 489.007
461.589 487.929 0 461.589 487.929
476.667 492.861 0 476.667 492.861
489.183 502.068 0 489.183 502.068
478.893 516.234 0 478.893 516.234
464.274 526.094 0 464.274 526.094
446.283 528.917 0 446.283 528.917
428.651 526.626 0 428.651 526.626
414.18 517.376 0 414.18 517.376
428.97 499.746 0 428.97 499.746
446.039 499.109 0 446.039 499.109
463.227 499.071 0 463.227 499.071
464.25 510.239 0 464.25 510.239
446.109 513.28 0 446.109 513.28
428.162 510.891 0 428.162 510.891
3 20 21 23
3 21 22 23
3 0 1 36
3 15 16 45
3 0 17 36
3 16 26 45
3 17 18 37
3 25 26 44
3 17 36 37
3 26 44 45
3 18 19 38
3 24 25 43
3 18 37 38
3 25 43 44
3 19 20 38
3 23 24 43
3 20 21 39
3 22 23 42
3 20 38 39
3 23 42 43
3 21 22 27
3 21 27 39
3 22 27 42
3 27 28 42
3 27 28 39
3 28 42 47
3 28 39 40
3 1 36 41
3 15 45 46
3 1 2 41
3 14 15 46
3 28 29 40
3 28 29 47
3 2 40 41
3 14 46 47
3 2 29 40
3 14 29 47
3 2 3 29
3 13 14 29
3 29 30 31
3 29 30 35
3 3 29 31
3 13 29 35
3 30 32 33
3 30 33 34
3 30 31 32
3 30 34 35
3 3 4 31
3 12 13 35
3 4 5 48
3 11 12 54
3 5 6 48
3 10 11 54
3 6 48 59
3 10 54 55
3 6 7 59
3 9 10 55
3 7 58 59
3 9 55 56
3 8 57 58
3 8 56 57
3 7 8 58
3 8 9 56
3 4 31 48
3 12 35 54
3 31 48 49
3 35 53 54
3 31 49 50
3 35 52 53
3 31 32 50
3 34 35 52
3 32 33 50
3 33 34 52
3 33 50 51
3 33 51 52
3 48 49 60
3 49 60 50
3 50 60 61
3 50 51 61
3 51 52 61
3 61 62 52
3 52 53 62
3 53 54 62
3 54 55 63
3 55 56 63
3 56 63 64
3 56 57 64
3 64 65 57
3 57 58 65
3 58 59 65
3 48 59 65
