ply
format ascii 1.0
element vertex 66
property float x
property float y
property float z
property float u
property float v
element face 91
property list uchar int vertex_indices
end_header
321.989 638.887 0 321.989 638.887
322.936 668.299 0 322.936 668.299
325.71 697.354 0 325.71 697.354
330.911 727.986 0 330.911 727.986
341.032 760.307 0 341.032 760.307
357.957 790.137 0 357.957 790.137
380.028 815.208 0 380.028 815.208
405.935 834.664 0 405.935 834.664
435.779 844.211 0 435.779 844.211
464.29 836.486 0 464.29 836.486
489.245 818.227 0 489.245 818.227
510.697 794.52 0 510.697 794.52
527.35 765.862 0 527.35 765.862
537.592 734.027 0 537.592 734.027
543.961 703.319 0 543.961 703.319
548.587 674.049 0 548.587 674.049
551.212 644.479 0 551.212 644.479
348.514 629.669 0 348.514 629.669
362.807 621.042 0 362.807 621.042
380.578 618.702 0 380.578 618.702
398.771 621.759 0 398.771 621.759
416.106 628.187 0 416.106 628.187
471.583 628.629 0 471.583 628.629
488.25 622.159 0 488.25 622.159
505.655 619.095 0 505.655 619.095
522.558 621.05 0 522.558 621.05
535.927 629.262 0 535.927 629.262
443.37 660.341 0 443.37 660.341
443.635 681.387 0 443.635 681.387
443.936 702.363 0 443.936 702.363
444.174 722.998 0 444.174 722.998
420.773 730.158 0 420.773 730.158
431.098 734.86 0 431.098 734.86
442.149 737.282 0 442.149 737.282
452.939 735.202 0 452.939 735.202
463.136 730.856 0 463.136 730.856
371.723 657.037 0 371.723 657.037
383.759 650.843 0 383.759 650.843
397.831 651.789 0 397.831 651.789
408.806 659.088 0 408.806 659.088
396.384 661.891 0 396.384 661.891
383.487 661.745 0 383.487 661.745
475.502 659.486 0 475.502 659.486
486.921 652.339 0 486.921 652.339
500.897 651.536 0 500.897 651.536
512.595 657.832 0 512.595 657.832
500.872 662.546 0 500.872 662.546
487.926 662.46 0 487.926 662.46
391.596 757.83 0 391.596 757.83
406.51 751.857 0 406.51 751.857
423.892 749.327 0 423.892 749.327
441.938 752.922 0 441.938 752.922
459.026 749.854 0 459.026 749.854
475.149 752.868 0 475.149 752.868
488.274 759.201 0 488.274 759.201
476.778 776.997 0 476.778 776.997
460.091 789.602 0 460.091 789.602
439.893 794.009 0 439.893 794.009
419.363 788.839 0 419.363 788.839
402.752 775.742 0 402.752 775.742
419.091 758.374 0 419.091 758.374
441.434 761.954 0 441.434 761.954
462.392 759.104 0 462.392 759.104
462.837 772.771 0 462.837 772.771
440.415 778.198 0 440.415 778.198
417.202 771.989 0 417.202 771.989
3 20 21 23
3 21 22 23
3 0 1 36
3 15 16 45
3 0 17 36
3 16 26 45
3 17 18 37
3 25 26 44
3 17 36 37
3 26 44 45
3 18 19 38
3 24 25 43
3 18 37 38
3 25 43 44
3 19 20 38
3 23 24 43
3 20 21 39
3 22 23 42
3 20 38 39
3 23 42 43
3 21 22 27
3 21 27 39
3 22 27 42
3 27 28 42
3 27 28 39
3 28 42 47
3 28 39 40
3 1 36 41
3 15 45 46
3 1 2 41
3 14 15 46
3 28 29 40
3 28 29 47
3 2 40 41
3 14 46 47
3 2 29 40
3 14 29 47
3 2 3 29
3 13 14 29
3 29 30 31
3 29 30 35
3 3 29 31
3 13 29 35
3 30 32 33
3 30 33 34
3 30 31 32
3 30 34 35
3 3 4 31
3 12 13 35
3 4 5 48
3 11 12 54
3 5 6 48
3 10 11 54
3 6 48 59
3 10 54 55
3 6 7 59
3 9 10 55
3 7 58 59
3 9 55 56
3 8 57 58
3 8 56 57
3 7 8 58
3 8 9 56
3 4 31 48
3 12 35 54
3 31 48 49
3 35 53 54
3 31 49 50
3 35 52 53
3 31 32 50
3 34 35 52
3 32 33 50
3 33 34 52
3 33 50 51
3 33 51 52
3 48 49 60
3 49 60 50
3 50 60 61
3 50 51 61
3 51 52 61
3 61 62 52
3 52 53 62
3 53 54 62
3 54 55 63
3 55 56 63
3 56 63 64
3 56 57 64
3 64 65 57
3 57 58 65
3 58 59 65
3 48 59 65
