ply
format ascii 1.0
element vertex 66
property float x
property float y
property float z
property float u
property float v
element face 91
property list uchar int vertex_indices
end_header
-20.6547 -5.64822 21.3079 359.119 317.765
-20.0519 -0.423649 20.8425 362.978 355.436
-19.1146 4.7667 20.4846 369.209 392.825
-17.7568 9.73356 18.3869 377.006 430.289
-15.6469 14.1974 13.4633 388.65 467.542
-12.4006 17.9009 7.99404 407.77 501.462
-8.27017 20.7526 3.29433 433.24 530.52
-3.55056 22.6779 -0.880153 464.638 551.801
1.65875 22.9008 -4.53572 501.25 559.262
6.75338 21.9412 -0.807894 538.857 550.141
11.0958 19.3665 3.41769 570.73 527.473
14.7165 15.9593 8.15704 596.492 497.217
17.3322 11.8354 13.6544 615.616 462.101
18.7221 7.12069 18.5937 626.531 423.612
19.3316 2.01325 20.7063 632.611 384.911
19.5157 -3.2566 21.0748 636.735 346.326
19.3623 -8.51341 21.5385 638.546 307.6
-16.9434 -14.0024 0.166523 380.601 280.547
-14.6923 -16.1532 -1.56921 396.949 266.7
-11.7473 -17.1684 -2.95979 418.055 260.331
-8.64008 -17.2567 -4.29633 440.43 260.821
-5.61118 -16.6863 -5.52226 462.099 266.469
3.24342 -17.3161 -5.43542 523.58 264.149
6.14406 -18.3113 -4.17859 545.445 257.02
9.21432 -18.6656 -2.80935 568.38 255.075
12.2557 -18.0793 -1.38764 590.521 260.198
14.7675 -16.2699 0.371491 608.575 273.11
-0.800008 -11.6067 -4.9545 493.827 303.457
-0.571382 -8.59445 -7.76035 494.281 331.849
-0.341526 -5.60559 -10.6633 494.747 360.071
-0.111056 -2.62069 -13.4075 495.254 388.046
-3.34691 0.90089 -6.47077 471.28 399.922
-1.6415 1.2941 -7.26957 483.389 405.324
0.142254 1.35258 -8.01839 496.559 407.525
1.89493 1.04463 -7.21848 509.841 404.58
3.5165 0.412997 -6.40175 521.925 398.48
-12.5316 -9.74495 -0.905324 410.767 310.382
-10.6698 -11.0691 -1.10649 424.992 301.9
-8.3451 -11.2534 -1.2279 441.97 301.736
-6.35058 -10.2247 -0.977391 456.367 309.751
-8.3556 -9.50683 -1.10156 441.156 312.849
-10.5048 -9.27615 -1.09011 425.541 313.63
4.83678 -11.0227 -0.887733 533.637 307.171
6.66716 -12.3254 -1.11779 547.458 298.166
8.99246 -12.4738 -0.968074 564.604 297.353
11.0209 -11.4279 -0.742362 579.588 304.927
9.08377 -10.6753 -0.948989 564.909 309.094
6.92444 -10.5977 -0.987214 549.169 309.312
-6.63855 8.84013 -2.74685 442.447 436.934
-4.73902 6.8457 -4.89305 456.761 424.688
-2.32888 5.4219 -6.54708 476.128 418.686
0.427259 5.35547 -8.22771 496.95 420.263
3.15408 5.03248 -6.48681 518.277 417.555
5.72158 6.09946 -4.80547 538.573 422.502
7.86034 7.80446 -2.63884 554.46 433.811
6.14905 9.90529 -3.93286 541.441 454.336
3.75933 11.3254 -5.28293 522.433 469.264
0.883179 11.8243 -6.67982 498.586 474.51
-2.0422 11.738 -5.34336 475.113 470.522
-4.62825 10.6744 -4.02161 455.866 456.687
-2.38864 7.57584 -5.20395 474.126 432.429
0.55887 7.21472 -7.41824 497.387 433.275
3.50364 7.15671 -5.14457 521.304 431.165
3.65722 8.62822 -4.49552 523.046 448.114
0.689237 9.10764 -6.42523 498.04 453.934
-2.33557 9.05505 -4.5521 473.409 449.454
3 20 21 23
3 21 22 23
3 0 1 36
3 15 16 45
3 0 17 36
3 16 26 45
3 17 18 37
3 25 26 44
3 17 36 37
3 26 44 45
3 18 19 38
3 24 25 43
3 18 37 38
3 25 43 44
3 19 20 38
3 23 24 43
3 20 21 39
3 22 23 42
3 20 38 39
3 23 42 43
3 21 22 27
3 21 27 39
3 22 27 42
3 27 28 42
3 27 28 39
3 28 42 47
3 28 39 40
3 1 36 41
3 15 45 46
3 1 2 41
3 14 15 46
3 28 29 40
3 28 29 47
3 2 40 41
3 14 46 47
3 2 29 40
3 14 29 47
3 2 3 29
3 13 14 29
3 29 30 31
3 29 30 35
3 3 29 31
3 13 29 35
3 30 32 33
3 30 33 34
3 30 31 32
3 30 34 35
3 3 4 31
3 12 13 35
3 4 5 48
3 11 12 54
3 5 6 48
3 10 11 54
3 6 48 59
3 10 54 55
3 6 7 59
3 9 10 55
3 7 58 59
3 9 55 56
3 8 57 58
3 8 56 57
3 7 8 58
3 8 9 56
3 4 31 48
3 12 35 54
3 31 48 49
3 35 53 54
3 31 49 50
3 35 52 53
3 31 32 50
3 34 35 52
3 32 33 50
3 33 34 52
3 33 50 51
3 33 51 52
3 48 49 60
3 49 60 50
3 50 60 61
3 50 51 61
3 51 52 61
3 61 62 52
3 52 53 62
3 53 54 62
3 54 55 63
3 55 56 63
3 56 63 64
3 56 57 64
3 64 65 57
3 57 58 65
3 58 59 65
3 48 59 65
