ply
format ascii 1.0
element vertex 66
property float x
property float y
property float z
property float u
property float v
element face 91
property list uchar int vertex_indices
end_header
-20.0814 -5.54594 21.3136 316.554 335.87
-19.4042 -0.353949 20.7274 319.283 374.083
-18.4081 4.81694 20.378 324.402 412.069
-17.1203 9.78233 18.3835 331.246 450.154
-15.1906 14.301 13.4247 342.072 487.915
-12.1867 18.2214 7.98147 360.784 522.246
-8.30832 21.4528 3.20299 386.3 551.391
-3.69072 23.6634 -0.935223 417.759 572.925
1.53292 24.0433 -4.6259 454.455 581.127
6.73228 23.0588 -0.871538 493.637 572.896
11.1081 20.3116 3.30139 527.65 551.247
14.5876 16.5794 8.12126 555.726 521.55
17.0177 12.1997 13.622 576.635 486.145
18.1836 7.28678 18.6609 588.446 446.774
18.692 1.9644 20.6624 594.775 406.866
18.9146 -3.52333 21.0807 598.641 367.049
18.8062 -8.98953 21.6725 600.146 327.094
-16.6403 -13.9622 0.243718 338.748 295.333
-14.4616 -16.1748 -1.62472 354.88 281.962
-11.6323 -17.3556 -2.97067 375.481 275.835
-8.59228 -17.6084 -4.23262 397.275 276.41
-5.62265 -17.1199 -5.4036 418.296 282.215
3.13065 -17.8565 -5.33705 482.111 280.53
6.01745 -18.8274 -4.13535 503.778 273.685
9.08309 -19.0549 -2.83293 526.483 272.181
12.0817 -18.3129 -1.44236 548.35 277.558
14.5935 -16.4553 0.420526 566.387 290.349
-0.805817 -11.618 -4.80482 451.28 323.354
-0.48857 -8.08568 -7.84632 451.339 351.632
-0.174973 -4.56799 -10.8307 451.393 379.752
0.129852 -1.03861 -13.4612 451.48 407.64
-3.33294 1.56714 -6.72602 427.274 418.994
-1.58594 2.12025 -7.37019 439.551 424.285
0.275913 2.26047 -7.91108 452.85 426.557
2.089 1.8529 -7.34208 466.326 423.879
3.73442 1.04985 -6.68681 478.764 418.205
-12.4337 -9.60515 -0.737456 367.297 329.365
-10.5351 -10.831 -1.13232 381.436 321.681
-8.25497 -11.0024 -1.44012 397.958 321.677
-6.26173 -10.0637 -1.23235 412.115 329.095
-8.29571 -9.53017 -1.17938 397.165 332.037
-10.4038 -9.31875 -1.07514 381.817 332.581
4.77421 -10.919 -1.06829 492.566 327.428
6.61485 -12.1882 -1.32437 506.341 319.284
8.90858 -12.3635 -1.0237 523.137 318.719
10.9864 -11.4525 -0.638419 537.97 325.816
9.0227 -10.847 -0.94889 523.398 329.627
6.89379 -10.7214 -1.03836 507.877 329.717
-7.26431 7.72473 -2.55402 397.555 458.014
-5.29206 5.56733 -4.82825 412.051 445.312
-2.5972 4.33979 -6.45808 431.613 439.044
0.356201 4.20501 -8.22073 452.589 440.876
3.27476 3.93276 -6.46753 474.373 438.589
6.08722 4.79009 -4.78292 494.929 444.458
8.3056 6.64058 -2.42432 510.982 456.635
6.65695 9.49611 -3.80622 497.515 477.74
4.10427 11.576 -5.1244 477.809 492.82
0.822554 12.2583 -6.65357 453.295 497.71
-2.50693 12.0221 -5.13923 429.663 493.267
-5.29173 10.3185 -3.83449 410.493 478.666
-2.81399 6.60696 -5.06042 429.56 454.051
0.466574 6.27821 -7.47505 452.798 455.2
3.70306 6.16217 -5.04087 477.024 453.57
4.01086 8.55726 -4.38747 478.514 470.378
0.63012 9.25666 -6.31064 453.162 475.698
-2.84535 9.02878 -4.39881 428.582 470.902
3 20 21 23
3 21 22 23
3 0 1 36
3 15 16 45
3 0 17 36
3 16 26 45
3 17 18 37
3 25 26 44
3 17 36 37
3 26 44 45
3 18 19 38
3 24 25 43
3 18 37 38
3 25 43 44
3 19 20 38
3 23 24 43
3 20 21 39
3 22 23 42
3 20 38 39
3 23 42 43
3 21 22 27
3 21 27 39
3 22 27 42
3 27 28 42
3 27 28 39
3 28 42 47
3 28 39 40
3 1 36 41
3 15 45 46
3 1 2 41
3 14 15 46
3 28 29 40
3 28 29 47
3 2 40 41
3 14 46 47
3 2 29 40
3 14 29 47
3 2 3 29
3 13 14 29
3 29 30 31
3 29 30 35
3 3 29 31
3 13 29 35
3 30 32 33
3 30 33 34
3 30 31 32
3 30 34 35
3 3 4 31
3 12 13 35
3 4 5 48
3 11 12 54
3 5 6 48
3 10 11 54
3 6 48 59
3 10 54 55
3 6 7 59
3 9 10 55
3 7 58 59
3 9 55 56
3 8 57 58
3 8 56 57
3 7 8 58
3 8 9 56
3 4 31 48
3 12 35 54
3 31 48 49
3 35 53 54
3 31 49 50
3 35 52 53
3 31 32 50
3 34 35 52
3 32 33 50
3 33 34 52
3 33 50 51
3 33 51 52
3 48 49 60
3 49 60 50
3 50 60 61
3 50 51 61
3 51 52 61
3 61 62 52
3 52 53 62
3 53 54 62
3 54 55 63
3 55 56 63
3 56 63 64
3 56 57 64
3 64 65 57
3 57 58 65
3 58 59 65
3 48 59 65
