ply
format ascii 1.0
element vertex 66
property float x
property float y
property float z
property float u
property float v
element face 91
property list uchar int vertex_indices
end_header
-20.6547 -5.64822 21.3079 350.345 517.919
-20.0519 -0.423649 20.8425 352.481 541.622
-19.1146 4.7667 20.4846 356.033 564.973
-17.7568 9.73356 18.3869 361.243 589.301
-15.6469 14.1974 13.4633 370.061 614.636
-12.4006 17.9009 7.99404 383.933 637.627
-8.27017 20.7526 3.29433 401.519 656.844
-3.55056 22.6779 -0.880153 422.187 671.591
1.65875 22.9008 -4.53572 445.661 678.345
6.75338 21.9412 -0.807894 469.86 671.842
11.0958 19.3665 3.41769 490.98 656.738
14.7165 15.9593 8.15704 509.257 637.312
17.3322 11.8354 13.6544 523.968 614.023
18.7221 7.12069 18.5937 533.183 587.85
19.3316 2.01325 20.7063 538.387 562.301
19.5157 -3.2566 21.0748 541.659 537.641
19.3623 -8.51341 21.5385 543.35 512.772
-16.9434 -14.0024 0.166523 369.497 501.223
-14.6923 -16.1532 -1.56921 380.008 492.683
-11.7473 -17.1684 -2.95979 393.92 488.679
-8.64008 -17.2567 -4.29633 408.847 489.147
-5.61118 -16.6863 -5.52226 423.449 492.798
3.24342 -17.3161 -5.43542 466.023 491.776
6.14406 -18.3113 -4.17859 480.894 486.918
9.21432 -18.6656 -2.80935 496.334 485.426
12.2557 -18.0793 -1.38764 511.066 488.587
14.7675 -16.2699 0.371491 522.688 496.68
-0.800008 -11.6067 -4.9545 445.708 518.922
-0.571382 -8.59445 -7.76035 446.024 537.018
-0.341526 -5.60559 -10.6633 446.353 555.04
-0.111056 -2.62069 -13.4075 446.677 572.778
-3.34691 0.90089 -6.47077 429.244 579.177
-1.6415 1.2941 -7.26957 437.824 583.049
0.142254 1.35258 -8.01839 447.046 584.864
1.89493 1.04463 -7.21848 456.278 582.717
3.5165 0.412997 -6.40175 464.834 578.568
-12.5316 -9.74495 -0.905324 390.532 521.053
-10.6698 -11.0691 -1.10649 399.573 516.333
-8.3451 -11.2534 -1.2279 410.128 516.06
-6.35058 -10.2247 -0.977391 419.569 519.927
-8.3556 -9.50683 -1.10156 409.993 521.681
-10.5048 -9.27615 -1.09011 400.182 522.301
4.83678 -11.0227 -0.887733 472.763 518.363
6.66716 -12.3254 -1.11779 481.993 513.952
8.99246 -12.4738 -0.968074 492.625 513.683
11.0209 -11.4279 -0.742362 502.084 517.792
9.08377 -10.6753 -0.948989 492.537 519.648
6.92444 -10.5977 -0.987214 482.604 519.528
-6.63855 8.84013 -2.74685 407.001 601.632
-4.73902 6.8457 -4.89305 419.356 597.292
-2.32888 5.4219 -6.54708 433.475 595.962
0.427259 5.35547 -8.22771 447.694 598.424
3.15408 5.03248 -6.48681 461.892 595.444
5.72158 6.09946 -4.80547 476.085 596.237
7.86034 7.80446 -2.63884 488.626 599.904
6.14905 9.90529 -3.93286 478.192 613.041
3.75933 11.3254 -5.28293 464.097 622.083
0.883179 11.8243 -6.67982 447.714 625.558
-2.0422 11.738 -5.34336 431.595 622.611
-4.62825 10.6744 -4.02161 417.434 614.211
-2.38864 7.57584 -5.20395 429.951 602.9
0.55887 7.21472 -7.41824 447.726 605.433
3.50364 7.15671 -5.14457 465.369 602.334
3.65722 8.62822 -4.49552 466.304 609.942
0.689237 9.10764 -6.42523 447.644 614.098
-2.33557 9.05505 -4.5521 428.93 610.593
3 20 21 23
3 21 22 23
3 0 1 36
3 15 16 45
3 0 17 36
3 16 26 45
3 17 18 37
3 25 26 44
3 17 36 37
3 26 44 45
3 18 19 38
3 24 25 43
3 18 37 38
3 25 43 44
3 19 20 38
3 23 24 43
3 20 21 39
3 22 23 42
3 20 38 39
3 23 42 43
3 21 22 27
3 21 27 39
3 22 27 42
3 27 28 42
3 27 28 39
3 28 42 47
3 28 39 40
3 1 36 41
3 15 45 46
3 1 2 41
3 14 15 46
3 28 29 40
3 28 29 47
3 2 40 41
3 14 46 47
3 2 29 40
3 14 29 47
3 2 3 29
3 13 14 29
3 29 30 31
3 29 30 35
3 3 29 31
3 13 29 35
3 30 32 33
3 30 33 34
3 30 31 32
3 30 34 35
3 3 4 31
3 12 13 35
3 4 5 48
3 11 12 54
3 5 6 48
3 10 11 54
3 6 48 59
3 10 54 55
3 6 7 59
3 9 10 55
3 7 58 59
3 9 55 56
3 8 57 58
3 8 56 57
3 7 8 58
3 8 9 56
3 4 31 48
3 12 35 54
3 31 48 49
3 35 53 54
3 31 49 50
3 35 52 53
3 31 32 50
3 34 35 52
3 32 33 50
3 33 34 52
3 33 50 51
3 33 51 52
3 48 49 60
3 49 60 50
3 50 60 61
3 50 51 61
3 51 52 61
3 61 62 52
3 52 53 62
3 53 54 62
3 54 55 63
3 55 56 63
3 56 63 64
3 56 57 64
3 64 65 57
3 57 58 65
3 58 59 65
3 48 59 65
