ply
format ascii 1.0
element vertex 66
property float x
property float y
property float z
property float u
property float v
element face 91
property list uchar int vertex_indices
end_header
-20.6842 -5.47879 21.5375 356.223 520.797
-19.8799 -0.284459 21.0454 358.07 551.281
-18.769 4.86465 20.6295 361.727 581.646
-17.4096 9.8465 18.4819 366.447 611.627
-15.4261 14.3917 13.5483 374.258 640.141
-12.2767 18.145 7.94772 389.019 664.876
-8.20004 20.9973 3.33119 409.845 684.649
-3.51048 22.8273 -0.912804 434.825 698.755
1.60562 23.0098 -4.64509 463.242 703.456
6.65863 22.0024 -0.776109 493.898 699.293
10.9771 19.3713 3.50423 521.26 685.281
14.5058 15.8266 8.15605 544.635 665.493
17.0086 11.5844 13.7527 562.703 640.903
18.3302 6.839 18.6431 574.033 612.977
18.9818 1.8223 20.7743 580.918 583.854
19.3323 -3.31128 21.1385 585.663 554.358
19.3332 -8.44548 21.6225 588.425 524.644
-17.6091 -14.2924 0.227034 372.872 477.149
-15.1558 -16.6727 -1.52132 387.774 465.171
-11.9098 -17.7928 -2.92031 406.691 460.779
-8.47771 -17.8373 -4.2299 426.152 462.661
-5.14281 -17.0958 -5.43259 444.679 468.994
3.05476 -17.6545 -5.44396 492.213 470.072
6.1294 -18.7759 -4.19179 510.838 464.895
9.40644 -19.1646 -2.82772 530.284 464.018
12.644 -18.5204 -1.36456 548.999 469.046
15.2867 -16.5604 0.431564 563.699 481.26
-0.643742 -11.704 -4.8776 467.996 502.28
-0.424336 -8.51182 -7.74391 466.874 521.536
-0.208816 -5.34579 -10.7296 465.711 540.671
0.00127407 -2.18706 -13.5835 464.556 559.726
-3.09892 1.2443 -6.50785 446.785 576.039
-1.45226 1.63524 -7.34291 455.857 579.372
0.268821 1.69991 -8.14873 465.533 580.855
1.90711 1.42354 -7.30467 475.339 579.902
3.42478 0.833544 -6.42448 484.619 577.068
-12.9651 -9.41676 -0.784979 396.878 507.943
-11.0058 -10.7012 -1.11079 408.744 501.652
-8.61729 -10.9251 -1.30615 422.574 501.664
-6.49005 -10.01 -1.12034 434.416 508.004
-8.60184 -9.36258 -1.14571 421.905 510.635
-10.8265 -9.1042 -1.0535 408.974 510.935
5.05681 -10.7637 -1.08572 501.367 509.701
7.02314 -11.9254 -1.21397 513.262 504.07
9.39762 -12.0467 -1.00517 527.065 504.561
11.4773 -11.0154 -0.680678 538.61 511.51
9.42095 -10.4223 -0.96386 526.379 513.924
7.20515 -10.3971 -1.08516 513.562 512.939
-6.97867 8.77069 -2.77964 421.545 616.413
-4.7911 7.04168 -4.95367 434.469 608.159
-2.29113 5.80917 -6.58415 449.083 602.79
0.436736 5.8185 -8.22259 464.371 604.698
3.10444 5.45429 -6.52794 480.379 603.557
5.69004 6.34571 -4.85918 495.264 609.615
7.99564 7.80429 -2.65756 508.384 618.657
6.02869 9.5651 -3.8935 495.82 628.096
3.52313 10.6293 -5.1764 480.496 633.249
0.77057 11.0029 -6.58054 464.071 634.325
-2.04018 10.9846 -5.24456 448.23 632.399
-4.71652 10.2539 -4.00934 433.501 626.466
-2.42643 7.92644 -5.33681 447.545 614.597
0.569528 7.73504 -7.51372 464.341 615.629
3.51581 7.55195 -5.2127 482.021 615.52
3.59131 8.01214 -4.53007 482.399 618.034
0.604091 8.25258 -6.55058 464.528 618.379
-2.43263 8.4028 -4.65305 447.445 617.161
3 20 21 23
3 21 22 23
3 0 1 36
3 15 16 45
3 0 17 36
3 16 26 45
3 17 18 37
3 25 26 44
3 17 36 37
3 26 44 45
3 18 19 38
3 24 25 43
3 18 37 38
3 25 43 44
3 19 20 38
3 23 24 43
3 20 21 39
3 22 23 42
3 20 38 39
3 23 42 43
3 21 22 27
3 21 27 39
3 22 27 42
3 27 28 42
3 27 28 39
3 28 42 47
3 28 39 40
3 1 36 41
3 15 45 46
3 1 2 41
3 14 15 46
3 28 29 40
3 28 29 47
3 2 40 41
3 14 46 47
3 2 29 40
3 14 29 47
3 2 3 29
3 13 14 29
3 29 30 31
3 29 30 35
3 3 29 31
3 13 29 35
3 30 32 33
3 30 33 34
3 30 31 32
3 30 34 35
3 3 4 31
3 12 13 35
3 4 5 48
3 11 12 54
3 5 6 48
3 10 11 54
3 6 48 59
3 10 54 55
3 6 7 59
3 9 10 55
3 7 58 59
3 9 55 56
3 8 57 58
3 8 56 57
3 7 8 58
3 8 9 56
3 4 31 48
3 12 35 54
3 31 48 49
3 35 53 54
3 31 49 50
3 35 52 53
3 31 32 50
3 34 35 52
3 32 33 50
3 33 34 52
3 33 50 51
3 33 51 52
3 48 49 60
3 49 60 50
3 50 60 61
3 50 51 61
3 51 52 61
3 61 62 52
3 52 53 62
3 53 54 62
3 54 55 63
3 55 56 63
3 56 63 64
3 56 57 64
3 64 65 57
3 57 58 65
3 58 59 65
3 48 59 65
