ply
format ascii 1.0
element vertex 66
property float x
property float y
property float z
property float u
property float v
element face 91
property list uchar int vertex_indices
end_header
-20.0126 -5.5752 21.3698 381.598 326.701
-19.1942 -0.325515 20.7365 384.718 363.057
-18.0274 4.89216 20.33 390.28 398.921
-16.6981 9.85333 18.4692 396.938 436.026
-14.8513 14.2514 13.4419 407.115 475.883
-11.9673 18.0696 8.07897 424.687 513.06
-8.22171 21.2928 3.2773 448.538 545.611
-3.68961 23.4811 -0.933852 478.36 570.532
1.51632 23.7434 -4.45917 513.804 581.689
6.70181 22.8483 -0.88249 550.358 571.214
10.933 20.0671 3.36926 581.281 546.482
14.2179 16.3326 8.19439 606.179 513.866
16.5504 12.113 13.5943 624.791 476.456
17.7586 7.45809 18.6125 635.812 436.379
18.3786 2.32032 20.5193 642.691 398.948
18.7819 -3.04767 20.9615 648.036 362.77
18.8046 -8.40198 21.5629 650.764 326.188
-16.8699 -13.942 0.212023 405.093 314.481
-14.6253 -16.0798 -1.63385 421.399 305.046
-11.8019 -17.216 -2.96705 441.279 301.504
-8.79482 -17.4931 -4.24387 462.029 303.62
-5.84043 -17.1189 -5.43292 482.118 309.846
3.13096 -17.68 -5.36673 544.287 310.295
5.94008 -18.5298 -4.1183 564.192 303.562
8.91226 -18.7488 -2.79445 584.933 300.932
11.8592 -18.1562 -1.41681 605.125 303.551
14.444 -16.5141 0.391877 622.369 312.089
-0.759354 -11.9108 -4.79482 514.796 345.464
-0.471544 -8.38807 -7.89756 514.819 375.001
-0.188751 -4.88459 -10.9222 514.825 404.254
0.0903319 -1.35826 -13.5146 514.837 432.807
-3.24876 2.16063 -6.94946 490.803 441.571
-1.4989 2.73342 -7.48509 502.554 447.25
0.374951 2.87269 -7.88925 515.378 449.861
2.19763 2.47473 -7.41544 528.187 447.169
3.83204 1.6542 -6.87815 539.902 441.468
-12.7228 -10.2626 -0.617461 431.898 342.428
-10.7188 -11.6851 -1.06496 446.347 334.859
-8.25422 -11.8001 -1.4307 463.369 335.996
-6.20603 -10.4961 -1.2504 476.907 345.245
-8.37978 -9.96864 -1.18438 461.668 347.564
-10.6276 -9.78283 -1.04386 446.086 347.442
4.69654 -11.2756 -1.12109 552.508 345.048
6.52575 -12.8694 -1.30918 565.858 335.753
8.9729 -13.1214 -0.919159 582.899 334.489
11.1593 -12.0183 -0.444067 597.514 341.896
9.17004 -11.2231 -0.884567 583.372 347.07
6.92273 -11.0752 -1.03472 567.782 347.268
-6.9497 8.15156 -2.51036 462.901 470.692
-5.08898 5.8606 -4.90052 476.576 461.131
-2.47679 4.49755 -6.58227 495.07 456.673
0.430737 4.31002 -8.38894 515.038 460.377
3.31636 4.11156 -6.49569 535.23 456.72
6.05641 5.116 -4.78293 553.835 461.305
8.16456 7.14025 -2.38238 567.67 470.979
6.55041 9.78265 -3.72708 555.159 490.327
4.08983 11.7076 -4.99462 537.153 504.374
0.931383 12.2946 -6.51813 514.933 509.742
-2.27625 12.121 -5.06441 493.029 504.201
-4.97727 10.5484 -3.77233 475.26 489.969
-2.69846 6.81395 -5.12046 492.6 469.012
0.562537 6.38942 -7.4876 515.062 472.419
3.80761 6.38153 -5.03263 537.7 469.09
4.07403 8.69266 -4.35922 538.522 483.178
0.745487 9.26678 -6.28233 515.095 489.165
-2.65773 9.14414 -4.41925 491.858 483.063
3 20 21 23
3 21 22 23
3 0 1 36
3 15 16 45
3 0 17 36
3 16 26 45
3 17 18 37
3 25 26 44
3 17 36 37
3 26 44 45
3 18 19 38
3 24 25 43
3 18 37 38
3 25 43 44
3 19 20 38
3 23 24 43
3 20 21 39
3 22 23 42
3 20 38 39
3 23 42 43
3 21 22 27
3 21 27 39
3 22 27 42
3 27 28 42
3 27 28 39
3 28 42 47
3 28 39 40
3 1 36 41
3 15 45 46
3 1 2 41
3 14 15 46
3 28 29 40
3 28 29 47
3 2 40 41
3 14 46 47
3 2 29 40
3 14 29 47
3 2 3 29
3 13 14 29
3 29 30 31
3 29 30 35
3 3 29 31
3 13 29 35
3 30 32 33
3 30 33 34
3 30 31 32
3 30 34 35
3 3 4 31
3 12 13 35
3 4 5 48
3 11 12 54
3 5 6 48
3 10 11 54
3 6 48 59
3 10 54 55
3 6 7 59
3 9 10 55
3 7 58 59
3 9 55 56
3 8 57 58
3 8 56 57
3 7 8 58
3 8 9 56
3 4 31 48
3 12 35 54
3 31 48 49
3 35 53 54
3 31 49 50
3 35 52 53
3 31 32 50
3 34 35 52
3 32 33 50
3 33 34 52
3 33 50 51
3 33 51 52
3 48 49 60
3 49 60 50
3 50 60 61
3 50 51 61
3 51 52 61
3 61 62 52
3 52 53 62
3 53 54 62
3 54 55 63
3 55 56 63
3 56 63 64
3 56 57 64
3 64 65 57
3 57 58 65
3 58 59 65
3 48 59 65
