ply
format ascii 1.0
element vertex 66
property float x
property float y
property float z
property float u
property float v
element face 91
property list uchar int vertex_indices
end_header
-20.7706 -6.02082 21.6309 347.555 598.452
-20.0178 -0.750825 21.0906 349.012 625.548
-18.9638 4.4825 20.6603 352.027 652.467
-17.596 9.53666 18.5098 356.625 680.657
-15.5323 14.1037 13.5628 364.831 710.023
-12.3291 17.8541 8.01959 379.173 736.548
-8.27891 20.7584 3.24728 398.25 758.352
-3.6482 22.7267 -0.914417 420.734 775.059
1.46074 23.0614 -4.60558 446.408 783.328
6.50859 22.0247 -0.911432 472.788 776.107
10.7799 19.3173 3.30905 495.985 759.639
14.3184 15.7899 8.09629 515.846 738.114
17.0074 11.6503 13.6413 531.693 712.286
18.589 6.99842 18.4975 542.09 684.232
19.3273 2.06002 20.7369 548.174 657.452
19.6288 -3.00098 21.1358 551.986 632.029
19.562 -8.06325 21.6028 553.927 606.355
-17.7314 -13.4879 0.2167 365.186 587.913
-15.4882 -15.8213 -1.53117 377.556 579.397
-12.4295 -16.9322 -2.94927 393.555 576.918
-9.17127 -16.9785 -4.29865 410.099 579.726
-5.98281 -16.3448 -5.49595 425.994 585.694
3.4359 -16.7915 -5.47357 474.175 587.656
6.27286 -17.8556 -4.17567 489.173 582.124
9.30301 -18.3126 -2.76387 504.89 579.554
12.3387 -17.8849 -1.27941 520.246 581.287
14.8775 -16.2087 0.456622 532.528 588.693
-0.516352 -11.0115 -4.92822 451.497 613.907
-0.309818 -8.12864 -7.88214 451.102 631.757
-0.109425 -5.2596 -10.8356 450.683 649.535
0.087727 -2.39041 -13.553 450.26 667.035
-3.48459 1.00317 -6.64206 430.93 674.157
-1.56963 1.54377 -7.40969 440.402 678.592
0.440876 1.68254 -8.10524 450.544 680.993
2.33917 1.28584 -7.3569 460.432 678.995
4.08173 0.491677 -6.5957 469.705 674.943
-13.3285 -9.35102 -0.75325 385.719 611.525
-11.3166 -10.7245 -1.07542 396.562 605.991
-8.83133 -10.9377 -1.37544 409.301 606.395
-6.67962 -9.86084 -1.18112 419.793 612.466
-8.85182 -9.15093 -1.16153 408.412 614.993
-11.1504 -8.92164 -1.08385 396.605 615.013
5.17334 -10.6077 -1.08669 480.513 613.941
7.11288 -11.9347 -1.2616 490.975 608.433
9.56753 -12.1167 -0.922295 503.579 608.228
11.7253 -11.0372 -0.546311 514.111 614.101
9.66826 -10.2803 -0.920016 503.274 617.374
7.38605 -10.2017 -1.01418 491.608 616.856
-7.66976 7.79973 -2.62213 406.803 701.267
-5.4099 5.86648 -4.80944 419.056 695.258
-2.56064 4.67523 -6.5172 434.008 692.627
0.533671 4.60572 -8.286 449.704 695.738
3.55536 4.27587 -6.39103 465.349 693.228
6.4612 5.07243 -4.66969 479.892 696.454
8.84023 6.73809 -2.51776 491.387 703.248
7.06377 9.4343 -3.88896 481.061 717.431
4.37208 11.3224 -5.24155 466.434 727.177
1.02787 11.9769 -6.74492 449.023 730.694
-2.41022 11.744 -5.31276 431.691 726.325
-5.39647 10.2247 -3.92786 417.232 715.835
-3.10016 6.6275 -5.30941 430.456 700.648
0.665428 6.3662 -7.59512 449.629 703.714
4.37033 6.14569 -5.16491 468.735 701.423
4.7308 8.60143 -4.43712 469.517 712.904
0.89488 9.40459 -6.36107 449.513 717.431
-3.06868 9.11678 -4.52789 429.55 712.085
3 20 21 23
3 21 22 23
3 0 1 36
3 15 16 45
3 0 17 36
3 16 26 45
3 17 18 37
3 25 26 44
3 17 36 37
3 26 44 45
3 18 19 38
3 24 25 43
3 18 37 38
3 25 43 44
3 19 20 38
3 23 24 43
3 20 21 39
3 22 23 42
3 20 38 39
3 23 42 43
3 21 22 27
3 21 27 39
3 22 27 42
3 27 28 42
3 27 28 39
3 28 42 47
3 28 39 40
3 1 36 41
3 15 45 46
3 1 2 41
3 14 15 46
3 28 29 40
3 28 29 47
3 2 40 41
3 14 46 47
3 2 29 40
3 14 29 47
3 2 3 29
3 13 14 29
3 29 30 31
3 29 30 35
3 3 29 31
3 13 29 35
3 30 32 33
3 30 33 34
3 30 31 32
3 30 34 35
3 3 4 31
3 12 13 35
3 4 5 48
3 11 12 54
3 5 6 48
3 10 11 54
3 6 48 59
3 10 54 55
3 6 7 59
3 9 10 55
3 7 58 59
3 9 55 56
3 8 57 58
3 8 56 57
3 7 8 58
3 8 9 56
3 4 31 48
3 12 35 54
3 31 48 49
3 35 53 54
3 31 49 50
3 35 52 53
3 31 32 50
3 34 35 52
3 32 33 50
3 33 34 52
3 33 50 51
3 33 51 52
3 48 49 60
3 49 60 50
3 50 60 61
3 50 51 61
3 51 52 61
3 61 62 52
3 52 53 62
3 53 54 62
3 54 55 63
3 55 56 63
3 56 63 64
3 56 57 64
3 64 65 57
3 57 58 65
3 58 59 65
3 48 59 65
