ply
format ascii 1.0
element vertex 66
property float x
property float y
property float z
property float u
property float v
element face 91
property list uchar int vertex_indices
end_header
-20.6547 -5.64822 21.3079 333.639 352.125
-20.0519 -0.423649 20.8425 337.392 389.421
-19.1146 4.7667 20.4846 343.765 426.284
-17.7568 9.73356 18.3869 351.552 463.851
-15.6469 14.1974 13.4633 362.924 502.65
-12.4006 17.9009 7.99404 381.601 538.286
-8.27017 20.7526 3.29433 406.406 569.169
-3.55056 22.6779 -0.880153 437.077 592.418
1.65875 22.9008 -4.53572 473.16 601.673
6.75338 21.9412 -0.807894 510.619 591.831
11.0958 19.3665 3.41769 542.476 568.109
14.7165 15.9593 8.15704 568.42 536.75
17.3322 11.8354 13.6544 588.158 500.522
18.7221 7.12069 18.5937 600.007 460.992
19.3316 2.01325 20.7063 606.995 422.663
19.5157 -3.2566 21.0748 612.03 385.038
19.3623 -8.51341 21.5385 614.517 347.08
-16.9434 -14.0024 0.166523 354.567 324.977
-14.6923 -16.1532 -1.56921 370.848 312.642
-11.7473 -17.1684 -2.95979 391.716 307.261
-8.64008 -17.2567 -4.29633 413.791 308.561
-5.61118 -16.6863 -5.52226 435.189 314.668
3.24342 -17.3161 -5.43542 500.384 313.237
6.14406 -18.3113 -4.17859 521.931 306.315
9.21432 -18.6656 -2.80935 544.409 304.18
12.2557 -18.0793 -1.38764 566.058 308.689
14.7675 -16.2699 0.371491 583.795 320.254
-0.800008 -11.6067 -4.9545 468.731 354.03
-0.571382 -8.59445 -7.76035 468.801 383.22
-0.341526 -5.60559 -10.6633 468.888 412.17
-0.111056 -2.62069 -13.4075 469.037 440.632
-3.34691 0.90089 -6.47077 444.715 451.781
-1.6415 1.2941 -7.26957 457 457.48
0.142254 1.35258 -8.01839 470.366 459.958
1.89493 1.04463 -7.21848 483.858 457.081
3.5165 0.412997 -6.40175 496.17 451.006
-12.5316 -9.74495 -0.905324 384.869 355.293
-10.6698 -11.0691 -1.10649 399.245 347.139
-8.3451 -11.2534 -1.2279 416.351 347.585
-6.35058 -10.2247 -0.977391 430.512 356.298
-8.3556 -9.50683 -1.10156 415.188 359.161
-10.5048 -9.27615 -1.09011 399.473 359.513
4.83678 -11.0227 -0.887733 508.465 354.849
6.66716 -12.3254 -1.11779 522.17 345.579
8.99246 -12.4738 -0.968074 539.445 344.563
11.0209 -11.4279 -0.742362 554.433 352.206
9.08377 -10.6753 -0.948989 539.852 356.968
6.92444 -10.5977 -0.987214 524.033 357.175
-6.63855 8.84013 -2.74685 417.385 485.008
-4.73902 6.8457 -4.89305 431.116 473.832
-2.32888 5.4219 -6.54708 449.948 468.303
0.427259 5.35547 -8.22771 470.355 471.028
3.15408 5.03248 -6.48681 491.405 467.782
5.72158 6.09946 -4.80547 511.101 472.824
7.86034 7.80446 -2.63884 526.222 483.564
6.14905 9.90529 -3.93286 513.201 503.314
3.75933 11.3254 -5.28293 494.521 517.651
0.883179 11.8243 -6.67982 471.455 522.906
-2.0422 11.738 -5.34336 448.956 518.173
-4.62825 10.6744 -4.02161 430.422 504.323
-2.38864 7.57584 -5.20395 448.231 481.948
0.55887 7.21472 -7.41824 470.715 484.081
3.50364 7.15671 -5.14457 493.991 481.374
3.65722 8.62822 -4.49552 495.255 496.151
0.689237 9.10764 -6.42523 471.173 501.885
-2.33557 9.05505 -4.5521 447.689 496.738
3 20 21 23
3 21 22 23
3 0 1 36
3 15 16 45
3 0 17 36
3 16 26 45
3 17 18 37
3 25 26 44
3 17 36 37
3 26 44 45
3 18 19 38
3 24 25 43
3 18 37 38
3 25 43 44
3 19 20 38
3 23 24 43
3 20 21 39
3 22 23 42
3 20 38 39
3 23 42 43
3 21 22 27
3 21 27 39
3 22 27 42
3 27 28 42
3 27 28 39
3 28 42 47
3 28 39 40
3 1 36 41
3 15 45 46
3 1 2 41
3 14 15 46
3 28 29 40
3 28 29 47
3 2 40 41
3 14 46 47
3 2 29 40
3 14 29 47
3 2 3 29
3 13 14 29
3 29 30 31
3 29 30 35
3 3 29 31
3 13 29 35
3 30 32 33
3 30 33 34
3 30 31 32
3 30 34 35
3 3 4 31
3 12 13 35
3 4 5 48
3 11 12 54
3 5 6 48
3 10 11 54
3 6 48 59
3 10 54 55
3 6 7 59
3 9 10 55
3 7 58 59
3 9 55 56
3 8 57 58
3 8 56 57
3 7 8 58
3 8 9 56
3 4 31 48
3 12 35 54
3 31 48 49
3 35 53 54
3 31 49 50
3 35 52 53
3 31 32 50
3 34 35 52
3 32 33 50
3 33 34 52
3 33 50 51
3 33 51 52
3 48 49 60
3 49 60 50
3 50 60 61
3 50 51 61
3 51 52 61
3 61 62 52
3 52 53 62
3 53 54 62
3 54 55 63
3 55 56 63
3 56 63 64
3 56 57 64
3 64 65 57
3 57 58 65
3 58 59 65
3 48 59 65
