ply
format ascii 1.0
element vertex 66
property float x
property float y
property float z
property float u
property float v
element face 91
property list uchar int vertex_indices
end_header
-21.121 -5.12445 21.4751 389.025 536.017
-20.2642 -0.128189 20.9697 388.489 571.062
-19.0212 4.81502 20.6312 390.616 606.13
-17.4042 9.56006 18.3948 395.69 641.558
-15.138 13.8585 13.3066 405.969 676.635
-11.9615 17.4678 8.02126 423.298 708.348
-8.08868 20.3369 3.33625 446.226 735.57
-3.65911 22.3053 -0.883222 474.027 757.13
1.2633 22.6945 -4.53439 507.125 768.314
6.21804 21.6018 -0.817275 541.692 764.816
10.3668 18.8736 3.44969 572.848 748.936
13.834 15.3484 8.16892 600.375 726.537
16.5611 11.2369 13.4738 623.595 698.881
18.347 6.64989 18.5059 641.083 667.011
19.3731 1.76419 20.8102 654.051 633.928
19.9077 -3.25986 21.1505 664.044 600.558
19.9739 -8.29333 21.5867 670.873 566.472
-18.108 -12.995 0.174891 421.281 500.547
-15.6962 -15.337 -1.57696 440.725 488.952
-12.4752 -16.3983 -2.95159 463.973 486.757
-9.06514 -16.3451 -4.32709 487.077 492.304
-5.73243 -15.6394 -5.58259 508.816 502.07
3.57662 -16.2679 -5.61389 572.553 509.607
6.58135 -17.4735 -4.26415 594.287 504.413
9.78514 -18.0794 -2.79562 616.591 503.43
13.0113 -17.6983 -1.32014 637.787 509.117
15.7423 -16.0026 0.384892 653.939 522.883
-0.53642 -11.1204 -4.89196 538.12 538.607
-0.330779 -8.18123 -7.87237 536.019 560.575
-0.128628 -5.25038 -10.7973 533.901 582.447
0.0650564 -2.31646 -13.4165 531.696 604.131
-3.39897 0.720437 -6.63996 503.816 615.842
-1.57951 1.28339 -7.3634 515.461 622.394
0.340116 1.44673 -8.01199 528.286 626.334
2.16407 1.03999 -7.33849 541.077 625.464
3.83327 0.246577 -6.60124 553.31 621.754
-13.8105 -9.05783 -0.803937 445.397 533.109
-11.6583 -10.1251 -1.01189 461.326 528.774
-9.2032 -10.4302 -1.19494 478.328 529.936
-6.95943 -9.86627 -1.2331 492.781 536.589
-9.22522 -9.30723 -1.20399 476.748 537.475
-11.5548 -8.98608 -1.10503 460.581 536.633
5.70676 -10.79 -1.1428 579.579 546.296
7.81231 -11.6585 -1.0722 594.915 543.061
10.2665 -11.7442 -0.864492 611.597 545.447
12.532 -10.9929 -0.653581 625.936 553.229
10.3425 -10.5707 -0.968851 610.623 553.511
8.00881 -10.5596 -1.08419 594.843 550.715
-6.58216 8.50047 -2.76271 472.037 661.708
-5.40287 5.36266 -4.86616 484.194 643.425
-2.91114 3.25694 -6.38599 503.857 633.371
0.306241 2.97944 -8.24851 526.123 636.763
3.49606 2.83656 -6.32979 547.703 638.591
6.18004 4.60957 -4.76192 563.45 652.905
7.65956 7.61347 -2.63994 569.437 673.63
6.2365 10.2184 -3.84107 556.598 690.146
4.00612 12.2251 -5.18657 539.077 701.708
0.911969 12.9606 -6.80098 517.362 703.795
-2.25469 12.609 -5.2248 496.266 696.417
-4.77056 10.9109 -3.84878 481.304 680.922
-2.89599 5.77865 -5.19113 500.639 649.599
0.44185 5.17761 -7.50859 524.172 651.257
3.76918 5.3637 -5.08351 546.218 655.147
3.9962 8.98031 -4.4033 543.081 679.345
0.760983 9.95474 -6.33186 520.134 683.065
-2.6348 9.41152 -4.48546 497.71 673.933
3 20 21 23
3 21 22 23
3 0 1 36
3 15 16 45
3 0 17 36
3 16 26 45
3 17 18 37
3 25 26 44
3 17 36 37
3 26 44 45
3 18 19 38
3 24 25 43
3 18 37 38
3 25 43 44
3 19 20 38
3 23 24 43
3 20 21 39
3 22 23 42
3 20 38 39
3 23 42 43
3 21 22 27
3 21 27 39
3 22 27 42
3 27 28 42
3 27 28 39
3 28 42 47
3 28 39 40
3 1 36 41
3 15 45 46
3 1 2 41
3 14 15 46
3 28 29 40
3 28 29 47
3 2 40 41
3 14 46 47
3 2 29 40
3 14 29 47
3 2 3 29
3 13 14 29
3 29 30 31
3 29 30 35
3 3 29 31
3 13 29 35
3 30 32 33
3 30 33 34
3 30 31 32
3 30 34 35
3 3 4 31
3 12 13 35
3 4 5 48
3 11 12 54
3 5 6 48
3 10 11 54
3 6 48 59
3 10 54 55
3 6 7 59
3 9 10 55
3 7 58 59
3 9 55 56
3 8 57 58
3 8 56 57
3 7 8 58
3 8 9 56
3 4 31 48
3 12 35 54
3 31 48 49
3 35 53 54
3 31 49 50
3 35 52 53
3 31 32 50
3 34 35 52
3 32 33 50
3 33 34 52
3 33 50 51
3 33 51 52
3 48 49 60
3 49 60 50
3 50 60 61
3 50 51 61
3 51 52 61
3 61 62 52
3 52 53 62
3 53 54 62
3 54 55 63
3 55 56 63
3 56 63 64
3 56 57 64
3 64 65 57
3 57 58 65
3 58 59 65
3 48 59 65
