ply
format ascii 1.0
element vertex 66
property float x
property float y
property float z
property float u
property float v
element face 91
property list uchar int vertex_indices
end_header
-20.6547 -5.64822 21.3079 316.554 335.87
-20.0519 -0.423649 20.8425 319.283 374.083
-19.1146 4.7667 20.4846 324.402 412.069
-17.7568 9.73356 18.3869 331.246 450.154
-15.6469 14.1974 13.4633 342.072 487.915
-12.4006 17.9009 7.99404 360.784 522.246
-8.27017 20.7526 3.29433 386.3 551.391
-3.55056 22.6779 -0.880153 417.759 572.925
1.65875 22.9008 -4.53572 454.455 581.127
6.75338 21.9412 -0.807894 493.637 572.896
11.0958 19.3665 3.41769 527.65 551.247
14.7165 15.9593 8.15704 555.726 521.55
17.3322 11.8354 13.6544 576.635 486.145
18.7221 7.12069 18.5937 588.446 446.774
19.3316 2.01325 20.7063 594.775 406.866
19.5157 -3.2566 21.0748 598.641 367.049
19.3623 -8.51341 21.5385 600.146 327.094
-16.9434 -14.0024 0.166523 338.748 295.333
-14.6923 -16.1532 -1.56921 354.88 281.962
-11.7473 -17.1684 -2.95979 375.481 275.835
-8.64008 -17.2567 -4.29633 397.275 276.41
-5.61118 -16.6863 -5.52226 418.296 282.215
3.24342 -17.3161 -5.43542 482.111 280.53
6.14406 -18.3113 -4.17859 503.778 273.685
9.21432 -18.6656 -2.80935 526.483 272.181
12.2557 -18.0793 -1.38764 548.35 277.558
14.7675 -16.2699 0.371491 566.387 290.349
-0.800008 -11.6067 -4.9545 451.28 323.354
-0.571382 -8.59445 -7.76035 451.339 351.632
-0.341526 -5.60559 -10.6633 451.393 379.752
-0.111056 -2.62069 -13.4075 451.48 407.64
-3.34691 0.90089 -6.47077 427.274 418.994
-1.6415 1.2941 -7.26957 439.551 424.285
0.142254 1.35258 -8.01839 452.85 426.557
1.89493 1.04463 -7.21848 466.326 423.879
3.5165 0.412997 -6.40175 478.764 418.205
-12.5316 -9.74495 -0.905324 367.297 329.365
-10.6698 -11.0691 -1.10649 381.436 321.681
-8.3451 -11.2534 -1.2279 397.958 321.677
-6.35058 -10.2247 -0.977391 412.115 329.095
-8.3556 -9.50683 -1.10156 397.165 332.037
-10.5048 -9.27615 -1.09011 381.817 332.581
4.83678 -11.0227 -0.887733 492.566 327.428
6.66716 -12.3254 -1.11779 506.341 319.284
8.99246 -12.4738 -0.968074 523.137 318.719
11.0209 -11.4279 -0.742362 537.97 325.816
9.08377 -10.6753 -0.948989 523.398 329.627
6.92444 -10.5977 -0.987214 507.877 329.717
-6.63855 8.84013 -2.74685 397.555 458.014
-4.73902 6.8457 -4.89305 412.051 445.312
-2.32888 5.4219 -6.54708 431.613 439.044
0.427259 5.35547 -8.22771 452.589 440.876
3.15408 5.03248 -6.48681 474.373 438.589
5.72158 6.09946 -4.80547 494.929 444.458
7.86034 7.80446 -2.63884 510.982 456.635
6.14905 9.90529 -3.93286 497.515 477.74
3.75933 11.3254 -5.28293 477.809 492.82
0.883179 11.8243 -6.67982 453.295 497.71
-2.0422 11.738 -5.34336 429.663 493.267
-4.62825 10.6744 -4.02161 410.493 478.666
-2.38864 7.57584 -5.20395 429.56 454.051
0.55887 7.21472 -7.41824 452.798 455.2
3.50364 7.15671 -5.14457 477.024 453.57
3.65722 8.62822 -4.49552 478.514 470.378
0.689237 9.10764 -6.42523 453.162 475.698
-2.33557 9.05505 -4.5521 428.582 470.902
3 20 21 23
3 21 22 23
3 0 1 36
3 15 16 45
3 0 17 36
3 16 26 45
3 17 18 37
3 25 26 44
3 17 36 37
3 26 44 45
3 18 19 38
3 24 25 43
3 18 37 38
3 25 43 44
3 19 20 38
3 23 24 43
3 20 21 39
3 22 23 42
3 20 38 39
3 23 42 43
3 21 22 27
3 21 27 39
3 22 27 42
3 27 28 42
3 27 28 39
3 28 42 47
3 28 39 40
3 1 36 41
3 15 45 46
3 1 2 41
3 14 15 46
3 28 29 40
3 28 29 47
3 2 40 41
3 14 46 47
3 2 29 40
3 14 29 47
3 2 3 29
3 13 14 29
3 29 30 31
3 29 30 35
3 3 29 31
3 13 29 35
3 30 32 33
3 30 33 34
3 30 31 32
3 30 34 35
3 3 4 31
3 12 13 35
3 4 5 48
3 11 12 54
3 5 6 48
3 10 11 54
3 6 48 59
3 10 54 55
3 6 7 59
3 9 10 55
3 7 58 59
3 9 55 56
3 8 57 58
3 8 56 57
3 7 8 58
3 8 9 56
3 4 31 48
3 12 35 54
3 31 48 49
3 35 53 54
3 31 49 50
3 35 52 53
3 31 32 50
3 34 35 52
3 32 33 50
3 33 34 52
3 33 50 51
3 33 51 52
3 48 49 60
3 49 60 50
3 50 60 61
3 50 51 61
3 51 52 61
3 61 62 52
3 52 53 62
3 53 54 62
3 54 55 63
3 55 56 63
3 56 63 64
3 56 57 64
3 64 65 57
3 57 58 65
3 58 59 65
3 48 59 65
