ply
format ascii 1.0
element vertex 66
property float x
property float y
property float z
property float u
property float v
element face 91
property list uchar int vertex_indices
end_header
-18.7923 -5.53247 21.1016 244.32 196.972
-18.0512 -0.33554 20.5992 244.77 225.817
-16.9593 4.81756 20.2123 247.166 254.569
-15.679 9.71011 18.3603 250.647 283.297
-13.9479 14.0974 13.6289 256.692 312.07
-11.2838 17.9848 8.1346 268.09 339.448
-7.71565 21.3019 3.24037 284.84 363.872
-3.34994 23.6633 -0.889012 306.639 383.059
1.76166 23.9177 -4.44176 333.975 390.951
6.75548 22.9328 -0.80459 362.09 385.989
10.6846 19.9661 3.36487 385.809 369.202
13.66 16.156 8.28746 404.976 346.59
15.6467 11.9177 13.7962 419.106 320.503
16.6584 7.33899 18.538 428.105 292.572
17.1936 2.33622 20.3853 434.571 264.5
17.5267 -2.89305 20.7686 439.974 236.318
17.5036 -8.11319 21.2815 443.445 207.832
-15.9451 -15.3155 0.203488 264.793 164.166
-13.8899 -17.3365 -1.52253 277.206 156.19
-11.2548 -18.4218 -2.90493 292.162 153.343
-8.45077 -18.7337 -4.24021 307.514 154.726
-5.70072 -18.391 -5.51145 322.132 159.533
3.11557 -18.9933 -5.43063 370.486 162.27
5.77485 -19.6946 -4.13644 385.527 159.226
8.57403 -19.7582 -2.77844 400.899 159.646
11.3062 -19.0273 -1.37408 415.369 164.249
13.5775 -17.2887 0.389886 426.676 173.641
-0.873706 -12.7686 -4.82723 344.604 192.452
-0.62315 -9.52464 -7.66314 343.529 212.459
-0.374445 -6.31448 -10.5854 342.461 232.356
-0.126079 -3.10214 -13.3403 341.403 252.122
-2.7783 1.26538 -6.48731 324.556 267.928
-1.33033 1.45346 -7.25247 332.239 270.582
0.166266 1.41291 -7.95122 340.349 271.984
1.63925 1.24911 -7.20275 348.529 271.477
3.02579 0.861047 -6.41468 356.396 269.672
-12.195 -10.8131 -0.719148 282.042 191.701
-10.3865 -12.3912 -0.973201 292.93 184.681
-7.97161 -12.5217 -1.21839 306.13 185.844
-6.04871 -11.1304 -1.06504 315.65 194.503
-8.04013 -10.3189 -1.15862 304.262 197.576
-10.2236 -10.0954 -1.0012 292.25 197.146
4.36212 -11.837 -0.989516 372.745 197.778
6.07059 -13.4746 -1.12143 383.139 190.267
8.47223 -13.6834 -0.853272 396.362 190.563
10.4744 -12.3696 -0.576946 406.375 198.755
8.62818 -11.3898 -0.87773 395.645 203.008
6.44184 -11.3111 -1.06077 383.689 202.089
-5.53256 10.0125 -2.6995 303.925 309.794
-3.89109 8.01659 -5.00659 314.025 302.163
-1.88753 6.40662 -6.67929 325.882 296.313
0.497372 6.30133 -8.41582 338.782 298.859
2.85863 6.0769 -6.62025 351.918 297.744
5.04672 7.3891 -4.92588 363.057 304.849
6.92098 9.14005 -2.60572 372.241 313.562
5.57565 11.2126 -4.0428 363.399 324.994
3.54479 12.6751 -5.25561 351.263 332.488
0.984194 13.1585 -6.59507 336.904 334.469
-1.6355 13.0357 -5.31483 322.846 330.925
-3.87466 11.8704 -4.13979 311.559 322.133
-1.80001 8.93462 -5.00581 324.77 308.525
0.654306 8.47012 -7.3954 338.24 309.746
3.1157 8.5948 -4.94 351.735 310.013
3.1949 9.52144 -4.45808 351.573 314.633
0.746907 9.81976 -6.29688 337.912 316.123
-1.74171 9.86239 -4.52141 324.494 313.135
3 20 21 23
3 21 22 23
3 0 1 36
3 15 16 45
3 0 17 36
3 16 26 45
3 17 18 37
3 25 26 44
3 17 36 37
3 26 44 45
3 18 19 38
3 24 25 43
3 18 37 38
3 25 43 44
3 19 20 38
3 23 24 43
3 20 21 39
3 22 23 42
3 20 38 39
3 23 42 43
3 21 22 27
3 21 27 39
3 22 27 42
3 27 28 42
3 27 28 39
3 28 42 47
3 28 39 40
3 1 36 41
3 15 45 46
3 1 2 41
3 14 15 46
3 28 29 40
3 28 29 47
3 2 40 41
3 14 46 47
3 2 29 40
3 14 29 47
3 2 3 29
3 13 14 29
3 29 30 31
3 29 30 35
3 3 29 31
3 13 29 35
3 30 32 33
3 30 33 34
3 30 31 32
3 30 34 35
3 3 4 31
3 12 13 35
3 4 5 48
3 11 12 54
3 5 6 48
3 10 11 54
3 6 48 59
3 10 54 55
3 6 7 59
3 9 10 55
3 7 58 59
3 9 55 56
3 8 57 58
3 8 56 57
3 7 8 58
3 8 9 56
3 4 31 48
3 12 35 54
3 31 48 49
3 35 53 54
3 31 49 50
3 35 52 53
3 31 32 50
3 34 35 52
3 32 33 50
3 33 34 52
3 33 50 51
3 33 51 52
3 48 49 60
3 49 60 50
3 50 60 61
3 50 51 61
3 51 52 61
3 61 62 52
3 52 53 62
3 53 54 62
3 54 55 63
3 55 56 63
3 56 63 64
3 56 57 64
3 64 65 57
3 57 58 65
3 58 59 65
3 48 59 65
