ply
format ascii 1.0
element vertex 66
property float x
property float y
property float z
property float u
property float v
element face 91
property list uchar int vertex_indices
end_header
254.379 230.651 0 254.379 230.651
255.055 256.819 0 255.055 256.819
257.354 282.939 0 257.354 282.939
261.204 308.654 0 261.204 308.654
267.913 333.344 0 267.913 333.344
279.825 355.769 0 279.825 355.769
296.578 374.869 0 296.578 374.869
317.333 389.286 0 317.333 389.286
342.151 394.792 0 342.151 394.792
366.696 390.657 0 366.696 390.657
387.245 376.771 0 387.245 376.771
403.685 357.983 0 403.685 357.983
415.729 336.182 0 415.729 336.182
423.536 312.691 0 423.536 312.691
428.946 288.474 0 428.946 288.474
432.774 263.832 0 432.774 263.832
434.742 239.031 0 434.742 239.031
275.502 200.113 0 275.502 200.113
287.13 191.301 0 287.13 191.301
301.433 187.701 0 301.433 187.701
316.226 188.722 0 316.226 188.722
330.345 193.138 0 330.345 193.138
367.172 195.738 0 367.172 195.738
380.788 192.471 0 380.788 192.471
394.896 192.493 0 394.896 192.493
408.287 196.69 0 408.287 196.69
418.716 205.783 0 418.716 205.783
349.154 218.75 0 349.154 218.75
348.838 234.678 0 348.838 234.678
348.495 250.517 0 348.495 250.517
348.15 266.299 0 348.15 266.299
333.08 280.884 0 333.08 280.884
340.067 283.219 0 340.067 283.219
347.486 284.325 0 347.486 284.325
354.58 283.749 0 354.58 283.749
361.251 281.886 0 361.251 281.886
293.065 222.528 0 293.065 222.528
302.657 217.39 0 302.657 217.39
313.88 217.609 0 313.88 217.609
322.893 223.158 0 322.893 223.158
312.897 225.481 0 312.897 225.481
302.48 225.572 0 302.48 225.572
372.254 225.507 0 372.254 225.507
381.521 220.937 0 381.521 220.937
392.503 221.436 0 392.503 221.436
401.421 227.26 0 401.421 227.26
391.975 229.575 0 391.975 229.575
381.8 228.592 0 381.8 228.592
315.467 319.607 0 315.467 319.607
323.155 309.418 0 323.155 309.418
334.002 302.155 0 334.002 302.155
346.75 303.086 0 346.75 303.086
359.086 303.037 0 359.086 303.037
368.872 310.961 0 368.872 310.961
374.996 321.819 0 374.996 321.819
368.149 331.777 0 368.149 331.777
358.245 338.865 0 358.245 338.865
345.528 340.772 0 345.528 340.772
332.5 337.922 0 332.5 337.922
322.522 330.091 0 322.522 330.091
333.452 313.306 0 333.452 313.306
346.457 312.641 0 346.457 312.641
358.79 314.226 0 358.79 314.226
358.588 324.17 0 358.588 324.17
346.059 326.279 0 346.059 326.279
333.207 323.265 0 333.207 323.265
3 20 21 23
3 21 22 23
3 0 1 36
3 15 16 45
3 0 17 36
3 16 26 45
3 17 18 37
3 25 26 44
3 17 36 37
3 26 44 45
3 18 19 38
3 24 25 43
3 18 37 38
3 25 43 44
3 19 20 38
3 23 24 43
3 20 21 39
3 22 23 42
3 20 38 39
3 23 42 43
3 21 22 27
3 21 27 39
3 22 27 42
3 27 28 42
3 27 28 39
3 28 42 47
3 28 39 40
3 1 36 41
3 15 45 46
3 1 2 41
3 14 15 46
3 28 29 40
3 28 29 47
3 2 40 41
3 14 46 47
3 2 29 40
3 14 29 47
3 2 3 29
3 13 14 29
3 29 30 31
3 29 30 35
3 3 29 31
3 13 29 35
3 30 32 33
3 30 33 34
3 30 31 32
3 30 34 35
3 3 4 31
3 12 13 35
3 4 5 48
3 11 12 54
3 5 6 48
3 10 11 54
3 6 48 59
3 10 54 55
3 6 7 59
3 9 10 55
3 7 58 59
3 9 55 56
3 8 57 58
3 8 56 57
3 7 8 58
3 8 9 56
3 4 31 48
3 12 35 54
3 31 48 49
3 35 53 54
3 31 49 50
3 35 52 53
3 31 32 50
3 34 35 52
3 32 33 50
3 33 34 52
3 33 50 51
3 33 51 52
3 48 49 60
3 49 60 50
3 50 60 61
3 50 51 61
3 51 52 61
3 61 62 52
3 52 53 62
3 53 54 62
3 54 55 63
3 55 56 63
3 56 63 64
3 56 57 64
3 64 65 57
3 57 58 65
3 58 59 65
3 48 59 65
