ply
format ascii 1.0
element vertex 66
property float x
property float y
property float z
property float u
property float v
element face 91
property list uchar int vertex_indices
end_header
356.223 520.797 0 356.223 520.797
358.07 551.281 0 358.07 551.281
361.727 581.646 0 361.727 581.646
366.447 611.627 0 366.447 611.627
374.258 640.141 0 374.258 640.141
389.019 664.876 0 389.019 664.876
409.845 684.649 0 409.845 684.649
434.825 698.755 0 434.825 698.755
463.242 703.456 0 463.242 703.456
493.898 699.293 0 493.898 699.293
521.26 685.281 0 521.26 685.281
544.635 665.493 0 544.635 665.493
562.703 640.903 0 562.703 640.903
574.033 612.977 0 574.033 612.977
580.918 583.854 0 580.918 583.854
585.663 554.358 0 585.663 554.358
588.425 524.644 0 588.425 524.644
372.872 477.149 0 372.872 477.149
387.774 465.171 0 387.774 465.171
406.691 460.779 0 406.691 460.779
426.152 462.661 0 426.152 462.661
444.679 468.994 0 444.679 468.994
492.213 470.072 0 492.213 470.072
510.838 464.895 0 510.838 464.895
530.284 464.018 0 530.284 464.018
548.999 469.046 0 548.999 469.046
563.699 481.26 0 563.699 481.26
467.996 502.28 0 467.996 502.28
466.874 521.536 0 466.874 521.536
465.711 540.671 0 465.711 540.671
464.556 559.726 0 464.556 559.726
446.785 576.039 0 446.785 576.039
455.857 579.372 0 455.857 579.372
465.533 580.855 0 465.533 580.855
475.339 579.902 0 475.339 579.902
484.619 577.068 0 484.619 577.068
396.878 507.943 0 396.878 507.943
408.744 501.652 0 408.744 501.652
422.574 501.664 0 422.574 501.664
434.416 508.004 0 434.416 508.004
421.905 510.635 0 421.905 510.635
408.974 510.935 0 408.974 510.935
501.367 509.701 0 501.367 509.701
513.262 504.07 0 513.262 504.07
527.065 504.561 0 527.065 504.561
538.61 511.51 0 538.61 511.51
526.379 513.924 0 526.379 513.924
513.562 512.939 0 513.562 512.939
421.545 616.413 0 421.545 616.413
434.469 608.159 0 434.469 608.159
449.083 602.79 0 449.083 602.79
464.371 604.698 0 464.371 604.698
480.379 603.557 0 480.379 603.557
495.264 609.615 0 495.264 609.615
508.384 618.657 0 508.384 618.657
495.82 628.096 0 495.82 628.096
480.496 633.249 0 480.496 633.249
464.071 634.325 0 464.071 634.325
448.23 632.399 0 448.23 632.399
433.501 626.466 0 433.501 626.466
447.545 614.597 0 447.545 614.597
464.341 615.629 0 464.341 615.629
482.021 615.52 0 482.021 615.52
482.399 618.034 0 482.399 618.034
464.528 618.379 0 464.528 618.379
447.445 617.161 0 447.445 617.161
3 20 21 23
3 21 22 23
3 0 1 36
3 15 16 45
3 0 17 36
3 16 26 45
3 17 18 37
3 25 26 44
3 17 36 37
3 26 44 45
3 18 19 38
3 24 25 43
3 18 37 38
3 25 43 44
3 19 20 38
3 23 24 43
3 20 21 39
3 22 23 42
3 20 38 39
3 23 42 43
3 21 22 27
3 21 27 39
3 22 27 42
3 27 28 42
3 27 28 39
3 28 42 47
3 28 39 40
3 1 36 41
3 15 45 46
3 1 2 41
3 14 15 46
3 28 29 40
3 28 29 47
3 2 40 41
3 14 46 47
3 2 29 40
3 14 29 47
3 2 3 29
3 13 14 29
3 29 30 31
3 29 30 35
3 3 29 31
3 13 29 35
3 30 32 33
3 30 33 34
3 30 31 32
3 30 34 35
3 3 4 31
3 12 13 35
3 4 5 48
3 11 12 54
3 5 6 48
3 10 11 54
3 6 48 59
3 10 54 55
3 6 7 59
3 9 10 55
3 7 58 59
3 9 55 56
3 8 57 58
3 8 56 57
3 7 8 58
3 8 9 56
3 4 31 48
3 12 35 54
3 31 48 49
3 35 53 54
3 31 49 50
3 35 52 53
3 31 32 50
3 34 35 52
3 32 33 50
3 33 34 52
3 33 50 51
3 33 51 52
3 48 49 60
3 49 60 50
3 50 60 61
3 50 51 61
3 51 52 61
3 61 62 52
3 52 53 62
3 53 54 62
3 54 55 63
3 55 56 63
3 56 63 64
3 56 57 64
3 64 65 57
3 57 58 65
3 58 59 65
3 48 59 65
