ply
format ascii 1.0
element vertex 66
property float x
property float y
property float z
property float u
property float v
element face 91
property list uchar int vertex_indices
end_header
-20.6547 -5.64822 21.3079 263.664 217.586
-20.0519 -0.423649 20.8425 265.215 238.302
-19.1146 4.7667 20.4846 267.85 258.946
-17.7568 9.73356 18.3869 271.442 278.943
-15.6469 14.1974 13.4633 277.048 297.337
-12.4006 17.9009 7.99404 286.95 313.445
-8.27017 20.7526 3.29433 300.676 326.772
-3.55056 22.6779 -0.880153 317.572 336.133
1.65875 22.9008 -4.53572 337.175 338.452
6.75338 21.9412 -0.807894 357.201 334.728
11.0958 19.3665 3.41769 374.052 324.082
14.7165 15.9593 8.15704 387.424 309.604
17.3322 11.8354 13.6544 396.94 292.756
18.7221 7.12069 18.5937 402.185 274.29
19.3316 2.01325 20.7063 404.824 254.632
19.5157 -3.2566 21.0748 406.183 234.458
19.3623 -8.51341 21.5385 406.424 214.303
-16.9434 -14.0024 0.166523 275.075 191.9
-14.6923 -16.1532 -1.56921 283.486 183.833
-11.7473 -17.1684 -2.95979 294.391 180.126
-8.64008 -17.2567 -4.29633 305.856 180.207
-5.61118 -16.6863 -5.52226 316.857 183.138
3.24342 -17.3161 -5.43542 347.417 182.697
6.14406 -18.3113 -4.17859 358.212 179.448
9.21432 -18.6656 -2.80935 369.62 178.915
12.2557 -18.0793 -1.38764 380.655 182.051
14.7675 -16.2699 0.371491 389.518 189.567
-0.800008 -11.6067 -4.9545 332.941 201.947
-0.571382 -8.59445 -7.76035 333.014 214.226
-0.341526 -5.60559 -10.6633 333.072 226.467
-0.111056 -2.62069 -13.4075 333.153 238.728
-3.34691 0.90089 -6.47077 321.951 248.863
-1.6415 1.2941 -7.26957 327.811 251.073
0.142254 1.35258 -8.01839 334.143 251.882
1.89493 1.04463 -7.21848 340.425 250.763
3.5165 0.412997 -6.40175 346.148 248.261
-12.5316 -9.74495 -0.905324 289.787 207.983
-10.6698 -11.0691 -1.10649 296.977 203.621
-8.3451 -11.2534 -1.2279 305.562 203.3
-6.35058 -10.2247 -0.977391 312.853 207.301
-8.3556 -9.50683 -1.10156 305.212 209.421
-10.5048 -9.27615 -1.09011 297.234 209.824
4.83678 -11.0227 -0.887733 353.078 206.554
6.66716 -12.3254 -1.11779 360.057 202.352
8.99246 -12.4738 -0.968074 368.616 202.232
11.0209 -11.4279 -0.742362 375.952 206.286
9.08377 -10.6753 -0.948989 368.605 208.424
6.92444 -10.5977 -0.987214 360.685 208.347
-6.63855 8.84013 -2.74685 306.407 271.997
-4.73902 6.8457 -4.89305 313.859 265.028
-2.32888 5.4219 -6.54708 323.626 261.192
0.427259 5.35547 -8.22771 334.174 261.139
3.15408 5.03248 -6.48681 344.993 260.66
5.72158 6.09946 -4.80547 355.209 263.961
7.86034 7.80446 -2.63884 363.324 270.618
6.14905 9.90529 -3.93286 357.322 281.45
3.75933 11.3254 -5.28293 347.845 289.378
0.883179 11.8243 -6.67982 335.316 291.779
-2.0422 11.738 -5.34336 322.8 290.009
-4.62825 10.6744 -4.02161 313.016 282.513
-2.38864 7.57584 -5.20395 322.495 268.344
0.55887 7.21472 -7.41824 334.486 267.638
3.50364 7.15671 -5.14457 346.914 267.741
3.65722 8.62822 -4.49552 348.292 279.022
0.689237 9.10764 -6.42523 335.092 281.863
-2.33557 9.05505 -4.5521 322.055 279.67
3 20 21 23
3 21 22 23
3 0 1 36
3 15 16 45
3 0 17 36
3 16 26 45
3 17 18 37
3 25 26 44
3 17 36 37
3 26 44 45
3 18 19 38
3 24 25 43
3 18 37 38
3 25 43 44
3 19 20 38
3 23 24 43
3 20 21 39
3 22 23 42
3 20 38 39
3 23 42 43
3 21 22 27
3 21 27 39
3 22 27 42
3 27 28 42
3 27 28 39
3 28 42 47
3 28 39 40
3 1 36 41
3 15 45 46
3 1 2 41
3 14 15 46
3 28 29 40
3 28 29 47
3 2 40 41
3 14 46 47
3 2 29 40
3 14 29 47
3 2 3 29
3 13 14 29
3 29 30 31
3 29 30 35
3 3 29 31
3 13 29 35
3 30 32 33
3 30 33 34
3 30 31 32
3 30 34 35
3 3 4 31
3 12 13 35
3 4 5 48
3 11 12 54
3 5 6 48
3 10 11 54
3 6 48 59
3 10 54 55
3 6 7 59
3 9 10 55
3 7 58 59
3 9 55 56
3 8 57 58
3 8 56 57
3 7 8 58
3 8 9 56
3 4 31 48
3 12 35 54
3 31 48 49
3 35 53 54
3 31 49 50
3 35 52 53
3 31 32 50
3 34 35 52
3 32 33 50
3 33 34 52
3 33 50 51
3 33 51 52
3 48 49 60
3 49 60 50
3 50 60 61
3 50 51 61
3 51 52 61
3 61 62 52
3 52 53 62
3 53 54 62
3 54 55 63
3 55 56 63
3 56 63 64
3 56 57 64
3 64 65 57
3 57 58 65
3 58 59 65
3 48 59 65
