ply
format ascii 1.0
element vertex 66
property float x
property float y
property float z
property float u
property float v
element face 91
property list uchar int vertex_indices
end_header
-20.6547 -5.64822 21.3079 375.571 558.65
-20.0519 -0.423649 20.8425 377.976 587.099
-19.1146 4.7667 20.4846 382.488 615.223
-17.7568 9.73356 18.3869 388.627 644.143
-15.6469 14.1974 13.4633 398.252 673.65
-12.4006 17.9009 7.99404 413.842 700.33
-8.27017 20.7526 3.29433 434.518 722.149
-3.55056 22.6779 -0.880153 458.691 738.919
1.65875 22.9008 -4.53572 486.324 745.799
6.75338 21.9412 -0.807894 515.363 738.374
11.0958 19.3665 3.41769 540.665 721.157
14.7165 15.9593 8.15704 562.17 698.494
17.3322 11.8354 13.6544 578.363 670.93
18.7221 7.12069 18.5937 588.187 640.697
19.3316 2.01325 20.7063 593.974 611.314
19.5157 -3.2566 21.0748 597.802 582.781
19.3623 -8.51341 21.5385 599.491 553.927
-16.9434 -14.0024 0.166523 395.92 525.45
-14.6923 -16.1532 -1.56921 410.255 516.397
-11.7473 -17.1684 -2.95979 427.984 513.59
-8.64008 -17.2567 -4.29633 446.216 516.01
-5.61118 -16.6863 -5.52226 463.462 522.705
3.24342 -17.3161 -5.43542 507.138 522.03
6.14406 -18.3113 -4.17859 524.676 515.736
9.21432 -18.6656 -2.80935 543.144 513.69
12.2557 -18.0793 -1.38764 560.967 517.177
14.7675 -16.2699 0.371491 575.175 526.823
-0.800008 -11.6067 -4.9545 485.017 560.592
-0.571382 -8.59445 -7.76035 484.962 582.511
-0.341526 -5.60559 -10.6633 484.865 604.485
-0.111056 -2.62069 -13.4075 484.746 626.288
-3.34691 0.90089 -6.47077 467.423 637.982
-1.6415 1.2941 -7.26957 476.203 641.222
0.142254 1.35258 -8.01839 485.476 642.658
1.89493 1.04463 -7.21848 494.735 641.165
3.5165 0.412997 -6.40175 503.419 637.908
-12.5316 -9.74495 -0.905324 416.843 559.58
-10.6698 -11.0691 -1.10649 428.582 550.743
-8.3451 -11.2534 -1.2279 443.797 552.005
-6.35058 -10.2247 -0.977391 454.868 562.557
-8.3556 -9.50683 -1.10156 442.135 566.907
-10.5048 -9.27615 -1.09011 428.563 566.693
4.83678 -11.0227 -0.887733 514.832 562.568
6.66716 -12.3254 -1.11779 525.622 552.03
8.99246 -12.4738 -0.968074 540.86 550.681
11.0209 -11.4279 -0.742362 552.754 559.558
9.08377 -10.6753 -0.948989 541.089 566.6
6.92444 -10.5977 -0.987214 527.553 566.814
-6.63855 8.84013 -2.74685 447.1 674.468
-4.73902 6.8457 -4.89305 458.647 668.602
-2.32888 5.4219 -6.54708 471.308 663.751
0.427259 5.35547 -8.22771 485.066 666.554
3.15408 5.03248 -6.48681 499.259 663.721
5.72158 6.09946 -4.80547 512.316 668.517
7.86034 7.80446 -2.63884 524.331 674.3
6.14905 9.90529 -3.93286 513.558 684.39
3.75933 11.3254 -5.28293 500.105 690.804
0.883179 11.8243 -6.67982 485.343 693.347
-2.0422 11.738 -5.34336 470.915 690.851
-4.62825 10.6744 -4.02161 457.669 684.487
-2.38864 7.57584 -5.20395 470.915 673.997
0.55887 7.21472 -7.41824 485.209 676.019
3.50364 7.15671 -5.14457 499.997 673.976
3.65722 8.62822 -4.49552 500.052 675.679
0.689237 9.10764 -6.42523 485.27 677.745
-2.33557 9.05505 -4.5521 470.949 675.733
3 20 21 23
3 21 22 23
3 0 1 36
3 15 16 45
3 0 17 36
3 16 26 45
3 17 18 37
3 25 26 44
3 17 36 37
3 26 44 45
3 18 19 38
3 24 25 43
3 18 37 38
3 25 43 44
3 19 20 38
3 23 24 43
3 20 21 39
3 22 23 42
3 20 38 39
3 23 42 43
3 21 22 27
3 21 27 39
3 22 27 42
3 27 28 42
3 27 28 39
3 28 42 47
3 28 39 40
3 1 36 41
3 15 45 46
3 1 2 41
3 14 15 46
3 28 29 40
3 28 29 47
3 2 40 41
3 14 46 47
3 2 29 40
3 14 29 47
3 2 3 29
3 13 14 29
3 29 30 31
3 29 30 35
3 3 29 31
3 13 29 35
3 30 32 33
3 30 33 34
3 30 31 32
3 30 34 35
3 3 4 31
3 12 13 35
3 4 5 48
3 11 12 54
3 5 6 48
3 10 11 54
3 6 48 59
3 10 54 55
3 6 7 59
3 9 10 55
3 7 58 59
3 9 55 56
3 8 57 58
3 8 56 57
3 7 8 58
3 8 9 56
3 4 31 48
3 12 35 54
3 31 48 49
3 35 53 54
3 31 49 50
3 35 52 53
3 31 32 50
3 34 35 52
3 32 33 50
3 33 34 52
3 33 50 51
3 33 51 52
3 48 49 60
3 49 60 50
3 50 60 61
3 50 51 61
3 51 52 61
3 61 62 52
3 52 53 62
3 53 54 62
3 54 55 63
3 55 56 63
3 56 63 64
3 56 57 64
3 64 65 57
3 57 58 65
3 58 59 65
3 48 59 65
