ply
format ascii 1.0
element vertex 66
property float x
property float y
property float z
property float u
property float v
element face 91
property list uchar int vertex_indices
end_header
-20.6547 -5.64822 21.3079 302.69 323.131
-20.0519 -0.423649 20.8425 306.598 364.971
-19.1146 4.7667 20.4846 313.101 406.419
-17.7568 9.73356 18.3869 321.282 448.51
-15.6469 14.1974 13.4633 333.776 491.435
-12.4006 17.9009 7.99404 354.725 531.048
-8.27017 20.7526 3.29433 383.015 565.007
-3.55056 22.6779 -0.880153 417.919 590.265
1.65875 22.9008 -4.53572 458.692 600.292
6.75338 21.9412 -0.807894 501.004 589.69
11.0958 19.3665 3.41769 537.212 563.863
14.7165 15.9593 8.15704 566.549 529.036
17.3322 11.8354 13.6544 588.019 488.169
18.7221 7.12069 18.5937 599.769 443.436
19.3316 2.01325 20.7063 606.132 399.336
19.5157 -3.2566 21.0748 610.43 355.854
19.3623 -8.51341 21.5385 612.179 312.188
-16.9434 -14.0024 0.166523 327.055 286.565
-14.6923 -16.1532 -1.56921 344.836 272.329
-11.7473 -17.1684 -2.95979 367.636 265.836
-8.64008 -17.2567 -4.29633 391.829 266.613
-5.61118 -16.6863 -5.52226 415.217 273.049
3.24342 -17.3161 -5.43542 485.227 270.67
6.14406 -18.3113 -4.17859 509.153 262.563
9.21432 -18.6656 -2.80935 534.262 260.264
12.2557 -18.0793 -1.38764 558.475 265.565
14.7675 -16.2699 0.371491 578.324 278.986
-0.800008 -11.6067 -4.9545 452.06 318.187
-0.571382 -8.59445 -7.76035 452.825 350.556
-0.341526 -5.60559 -10.6633 453.576 382.709
-0.111056 -2.62069 -13.4075 454.347 414.45
-3.34691 0.90089 -6.47077 427.449 424.911
-1.6415 1.2941 -7.26957 440.967 430.858
0.142254 1.35258 -8.01839 455.584 433.393
1.89493 1.04463 -7.21848 470.27 430.048
3.5165 0.412997 -6.40175 483.722 423.349
-12.5316 -9.74495 -0.905324 358.327 322.393
-10.6698 -11.0691 -1.10649 374.075 312.67
-8.3451 -11.2534 -1.2279 393.144 312.884
-6.35058 -10.2247 -0.977391 408.896 322.548
-8.3556 -9.50683 -1.10156 392.048 326.297
-10.5048 -9.27615 -1.09011 374.613 326.907
4.83678 -11.0227 -0.887733 496.705 319.844
6.66716 -12.3254 -1.11779 511.81 309.097
8.99246 -12.4738 -0.968074 531.099 307.818
11.0209 -11.4279 -0.742362 547.822 316.444
9.08377 -10.6753 -0.948989 531.675 321.987
6.92444 -10.5977 -0.987214 514.047 322.457
-6.63855 8.84013 -2.74685 395.119 465.449
-4.73902 6.8457 -4.89305 411.108 452.324
-2.32888 5.4219 -6.54708 432.666 445.896
0.427259 5.35547 -8.22771 455.894 448.229
3.15408 5.03248 -6.48681 479.605 444.824
5.72158 6.09946 -4.80547 502.12 450.227
7.86034 7.80446 -2.63884 519.738 462.297
6.14905 9.90529 -3.93286 505.272 485.839
3.75933 11.3254 -5.28293 483.963 502.941
0.883179 11.8243 -6.67982 457.307 509.162
-2.0422 11.738 -5.34336 431.177 504.076
-4.62825 10.6744 -4.02161 409.83 488.048
-2.38864 7.57584 -5.20395 430.177 461.117
0.55887 7.21472 -7.41824 456.255 462.876
3.50364 7.15671 -5.14457 482.914 459.926
3.65722 8.62822 -4.49552 484.734 478.897
0.689237 9.10764 -6.42523 456.838 485.731
-2.33557 9.05505 -4.5521 429.296 480.129
3 20 21 23
3 21 22 23
3 0 1 36
3 15 16 45
3 0 17 36
3 16 26 45
3 17 18 37
3 25 26 44
3 17 36 37
3 26 44 45
3 18 19 38
3 24 25 43
3 18 37 38
3 25 43 44
3 19 20 38
3 23 24 43
3 20 21 39
3 22 23 42
3 20 38 39
3 23 42 43
3 21 22 27
3 21 27 39
3 22 27 42
3 27 28 42
3 27 28 39
3 28 42 47
3 28 39 40
3 1 36 41
3 15 45 46
3 1 2 41
3 14 15 46
3 28 29 40
3 28 29 47
3 2 40 41
3 14 46 47
3 2 29 40
3 14 29 47
3 2 3 29
3 13 14 29
3 29 30 31
3 29 30 35
3 3 29 31
3 13 29 35
3 30 32 33
3 30 33 34
3 30 31 32
3 30 34 35
3 3 4 31
3 12 13 35
3 4 5 48
3 11 12 54
3 5 6 48
3 10 11 54
3 6 48 59
3 10 54 55
3 6 7 59
3 9 10 55
3 7 58 59
3 9 55 56
3 8 57 58
3 8 56 57
3 7 8 58
3 8 9 56
3 4 31 48
3 12 35 54
3 31 48 49
3 35 53 54
3 31 49 50
3 35 52 53
3 31 32 50
3 34 35 52
3 32 33 50
3 33 34 52
3 33 50 51
3 33 51 52
3 48 49 60
3 49 60 50
3 50 60 61
3 50 51 61
3 51 52 61
3 61 62 52
3 52 53 62
3 53 54 62
3 54 55 63
3 55 56 63
3 56 63 64
3 56 57 64
3 64 65 57
3 57 58 65
3 58 59 65
3 48 59 65
