ply
format ascii 1.0
element vertex 66
property float x
property float y
property float z
property float u
property float v
element face 91
property list uchar int vertex_indices
end_header
359.119 317.765 0 359.119 317.765
362.978 355.436 0 362.978 355.436
369.209 392.825 0 369.209 392.825
377.006 430.289 0 377.006 430.289
388.65 467.542 0 388.65 467.542
407.77 501.462 0 407.77 501.462
433.24 530.52 0 433.24 530.52
464.638 551.801 0 464.638 551.801
501.25 559.262 0 501.25 559.262
538.857 550.141 0 538.857 550.141
570.73 527.473 0 570.73 527.473
596.492 497.217 0 596.492 497.217
615.616 462.101 0 615.616 462.101
626.531 423.612 0 626.531 423.612
632.611 384.911 0 632.611 384.911
636.735 346.326 0 636.735 346.326
638.546 307.6 0 638.546 307.6
380.601 280.547 0 380.601 280.547
396.949 266.7 0 396.949 266.7
418.055 260.331 0 418.055 260.331
440.43 260.821 0 440.43 260.821
462.099 266.469 0 462.099 266.469
523.58 264.149 0 523.58 264.149
545.445 257.02 0 545.445 257.02
568.38 255.075 0 568.38 255.075
590.521 260.198 0 590.521 260.198
608.575 273.11 0 608.575 273.11
493.827 303.457 0 493.827 303.457
494.281 331.849 0 494.281 331.849
494.747 360.071 0 494.747 360.071
495.254 388.046 0 495.254 388.046
471.28 399.922 0 471.28 399.922
483.389 405.324 0 483.389 405.324
496.559 407.525 0 496.559 407.525
509.841 404.58 0 509.841 404.58
521.925 398.48 0 521.925 398.48
410.767 310.382 0 410.767 310.382
424.992 301.9 0 424.992 301.9
441.97 301.736 0 441.97 301.736
456.367 309.751 0 456.367 309.751
441.156 312.849 0 441.156 312.849
425.541 313.63 0 425.541 313.63
533.637 307.171 0 533.637 307.171
547.458 298.166 0 547.458 298.166
564.604 297.353 0 564.604 297.353
579.588 304.927 0 579.588 304.927
564.909 309.094 0 564.909 309.094
549.169 309.312 0 549.169 309.312
442.447 436.934 0 442.447 436.934
456.761 424.688 0 456.761 424.688
476.128 418.686 0 476.128 418.686
496.95 420.263 0 496.95 420.263
518.277 417.555 0 518.277 417.555
538.573 422.502 0 538.573 422.502
554.46 433.811 0 554.46 433.811
541.441 454.336 0 541.441 454.336
522.433 469.264 0 522.433 469.264
498.586 474.51 0 498.586 474.51
475.113 470.522 0 475.113 470.522
455.866 456.687 0 455.866 456.687
474.126 432.429 0 474.126 432.429
497.387 433.275 0 497.387 433.275
521.304 431.165 0 521.304 431.165
523.046 448.114 0 523.046 448.114
498.04 453.934 0 498.04 453.934
473.409 449.454 0 473.409 449.454
3 20 21 23
3 21 22 23
3 0 1 36
3 15 16 45
3 0 17 36
3 16 26 45
3 17 18 37
3 25 26 44
3 17 36 37
3 26 44 45
3 18 19 38
3 24 25 43
3 18 37 38
3 25 43 44
3 19 20 38
3 23 24 43
3 20 21 39
3 22 23 42
3 20 38 39
3 23 42 43
3 21 22 27
3 21 27 39
3 22 27 42
3 27 28 42
3 27 28 39
3 28 42 47
3 28 39 40
3 1 36 41
3 15 45 46
3 1 2 41
3 14 15 46
3 28 29 40
3 28 29 47
3 2 40 41
3 14 46 47
3 2 29 40
3 14 29 47
3 2 3 29
3 13 14 29
3 29 30 31
3 29 30 35
3 3 29 31
3 13 29 35
3 30 32 33
3 30 33 34
3 30 31 32
3 30 34 35
3 3 4 31
3 12 13 35
3 4 5 48
3 11 12 54
3 5 6 48
3 10 11 54
3 6 48 59
3 10 54 55
3 6 7 59
3 9 10 55
3 7 58 59
3 9 55 56
3 8 57 58
3 8 56 57
3 7 8 58
3 8 9 56
3 4 31 48
3 12 35 54
3 31 48 49
3 35 53 54
3 31 49 50
3 35 52 53
3 31 32 50
3 34 35 52
3 32 33 50
3 33 34 52
3 33 50 51
3 33 51 52
3 48 49 60
3 49 60 50
3 50 60 61
3 50 51 61
3 51 52 61
3 61 62 52
3 52 53 62
3 53 54 62
3 54 55 63
3 55 56 63
3 56 63 64
3 56 57 64
3 64 65 57
3 57 58 65
3 58 59 65
3 48 59 65
