ply
format ascii 1.0
element vertex 66
property float x
property float y
property float z
property float u
property float v
element face 91
property list uchar int vertex_indices
end_header
-19.3209 -5.58486 21.2173 271.304 207.429
-18.5383 -0.334323 20.6689 271.83 234.749
-17.402 4.87505 20.2879 274.179 261.927
-16.0708 9.80473 18.4573 277.764 289.251
-14.2754 14.1552 13.5756 284.22 316.964
-11.5241 17.9447 8.14364 295.941 343.025
-7.88717 21.1408 3.30245 312.548 366.107
-3.48493 23.3809 -0.885848 333.665 384.258
1.62719 23.5964 -4.42012 359.718 392.093
6.67588 22.6603 -0.780506 385.931 387.094
10.6645 19.7497 3.4506 408.029 370.95
13.7222 15.9979 8.29604 425.915 349.395
15.8637 11.8458 13.714 439.375 324.685
17.0616 7.35806 18.5615 448.269 298.246
17.712 2.4154 20.4063 454.793 272.12
18.1002 -2.76841 20.757 460.199 246.082
18.1042 -7.94119 21.2679 463.633 219.694
-16.4962 -14.7872 0.171137 292.635 183.812
-14.3389 -16.8916 -1.56372 305.096 176.369
-11.5723 -17.996 -2.92874 319.984 173.961
-8.63404 -18.2716 -4.26849 335.197 175.787
-5.74677 -17.9005 -5.52219 349.717 180.733
3.07136 -18.37 -5.4682 394.975 184.01
5.82812 -19.1048 -4.17254 409.464 180.839
8.72877 -19.2215 -2.80607 424.274 180.785
11.5769 -18.5288 -1.41179 438.277 184.72
13.9641 -16.7715 0.360248 449.209 193.317
-0.813305 -12.7345 -4.82895 371.408 209.087
-0.573144 -9.41692 -7.73575 370.544 228.694
-0.337629 -6.12883 -10.6763 369.678 248.184
-0.100537 -2.83184 -13.3666 368.803 267.474
-2.89481 1.40167 -6.56815 351.484 280.201
-1.35204 1.69493 -7.31209 359.182 283.392
0.261765 1.69558 -7.96438 367.433 285.073
1.83087 1.48196 -7.2358 375.545 284.301
3.2745 0.977261 -6.49938 383.21 281.984
-12.4896 -10.8062 -0.753438 310.451 207.223
-10.5876 -12.3191 -0.976621 321.159 201.095
-8.13373 -12.4709 -1.17671 333.776 202.112
-6.13008 -11.1466 -1.05105 343.105 209.908
-8.21269 -10.4303 -1.14713 332.018 212.245
-10.4464 -10.2047 -1.0214 320.477 211.813
4.40029 -11.7987 -0.990562 397.212 213.369
6.18446 -13.3487 -1.09763 407.34 206.865
8.61047 -13.5433 -0.855961 419.825 207.217
10.679 -12.302 -0.580333 429.534 214.492
8.75698 -11.4326 -0.883441 419.172 217.902
6.5334 -11.3689 -1.03663 407.802 216.939
-5.52322 9.73623 -2.703 332.403 316.435
-3.92917 7.65394 -5.00821 342 309.299
-1.87921 6.0526 -6.68329 353.578 304.246
0.551472 5.9457 -8.44572 366.108 307.003
2.96009 5.72707 -6.55328 378.456 305.607
5.18232 7.02096 -4.86926 388.859 311.864
6.99889 8.88021 -2.58012 396.795 320.097
5.65745 10.9256 -3.95081 388.653 330.813
3.62945 12.3689 -5.18909 377.406 337.943
1.05614 12.8248 -6.60818 364.042 339.958
-1.5757 12.7165 -5.29853 350.648 336.437
-3.82778 11.5691 -4.06701 339.882 328.037
-1.73817 8.54396 -5.08904 352.581 315.244
0.719494 8.08423 -7.38135 365.503 316.772
3.19037 8.21539 -4.96637 377.916 316.654
3.27603 9.2271 -4.43021 377.661 321.247
0.834406 9.52989 -6.28934 365.087 323.012
-1.64702 9.55815 -4.53824 352.351 319.839
3 20 21 23
3 21 22 23
3 0 1 36
3 15 16 45
3 0 17 36
3 16 26 45
3 17 18 37
3 25 26 44
3 17 36 37
3 26 44 45
3 18 19 38
3 24 25 43
3 18 37 38
3 25 43 44
3 19 20 38
3 23 24 43
3 20 21 39
3 22 23 42
3 20 38 39
3 23 42 43
3 21 22 27
3 21 27 39
3 22 27 42
3 27 28 42
3 27 28 39
3 28 42 47
3 28 39 40
3 1 36 41
3 15 45 46
3 1 2 41
3 14 15 46
3 28 29 40
3 28 29 47
3 2 40 41
3 14 46 47
3 2 29 40
3 14 29 47
3 2 3 29
3 13 14 29
3 29 30 31
3 29 30 35
3 3 29 31
3 13 29 35
3 30 32 33
3 30 33 34
3 30 31 32
3 30 34 35
3 3 4 31
3 12 13 35
3 4 5 48
3 11 12 54
3 5 6 48
3 10 11 54
3 6 48 59
3 10 54 55
3 6 7 59
3 9 10 55
3 7 58 59
3 9 55 56
3 8 57 58
3 8 56 57
3 7 8 58
3 8 9 56
3 4 31 48
3 12 35 54
3 31 48 49
3 35 53 54
3 31 49 50
3 35 52 53
3 31 32 50
3 34 35 52
3 32 33 50
3 33 34 52
3 33 50 51
3 33 51 52
3 48 49 60
3 49 60 50
3 50 60 61
3 50 51 61
3 51 52 61
3 61 62 52
3 52 53 62
3 53 54 62
3 54 55 63
3 55 56 63
3 56 63 64
3 56 57 64
3 64 65 57
3 57 58 65
3 58 59 65
3 48 59 65
