ply
format ascii 1.0
element vertex 66
property float x
property float y
property float z
property float u
property float v
element face 91
property list uchar int vertex_indices
end_header
-19.966 -6.12896 21.372 254.786 191.74
-19.206 -0.677624 20.8359 256.597 213.803
-18.1202 4.73172 20.332 259.727 235.752
-16.7897 9.93153 18.4871 263.739 257.906
-14.8838 14.6209 13.5198 269.835 280.449
-11.9008 18.6905 8.00188 280.325 301.198
-7.99673 22.0613 3.19255 294.734 318.89
-3.28915 24.3314 -0.933448 312.676 331.932
2.07974 24.5942 -4.57829 333.754 336.863
7.2043 23.4369 -0.832559 354.951 330.767
11.344 20.4384 3.34838 372.643 316.866
14.4929 16.4979 8.21278 386.64 298.523
16.6174 12.0463 13.7571 396.713 277.434
17.6848 7.22923 18.67 402.56 255.117
18.2014 2.05009 20.4899 405.946 233.491
18.4848 -3.29103 20.9407 408.285 212.167
18.4531 -8.61732 21.5171 409.371 190.737
-16.6536 -13.9993 0.194996 267.503 176.857
-14.4529 -16.2847 -1.62138 276.626 169.675
-11.5523 -17.4737 -2.98086 288.367 166.647
-8.44467 -17.692 -4.28084 300.734 167.451
-5.41269 -17.1645 -5.47491 312.648 171.103
3.05857 -17.6493 -5.41387 346.723 171.112
5.94922 -18.5304 -4.18719 358.634 167.417
9.0071 -18.7034 -2.85093 371.074 166.474
11.982 -17.8969 -1.47162 382.975 169.343
14.3942 -15.9188 0.376824 392.416 176.36
-0.845425 -12.1706 -4.86627 329.945 191.413
-0.61829 -8.78024 -7.85628 329.803 207.008
-0.393206 -5.4049 -10.7901 329.662 222.502
-0.163163 -2.01921 -13.4425 329.568 237.833
-3.25177 1.37462 -6.74814 317.167 245.637
-1.624 1.90458 -7.36028 323.513 248.549
0.117508 2.03739 -7.90171 330.409 249.87
1.82886 1.67187 -7.30471 337.413 248.392
3.36397 0.929375 -6.61099 343.802 245.316
-12.4158 -10.0801 -0.817362 283.538 194.031
-10.492 -11.4911 -1.17578 291.517 189.173
-8.07813 -11.6439 -1.45601 301.198 189.335
-6.04862 -10.4433 -1.10038 309.113 194.281
-8.1415 -9.78004 -1.12457 300.577 196.429
-10.3509 -9.57437 -1.05793 291.681 196.679
4.58163 -11.1236 -1.13078 351.877 194.088
6.43544 -12.5374 -1.35769 359.59 189.108
8.82759 -12.6852 -1.02998 369.248 188.842
10.8854 -11.5185 -0.641438 377.288 193.638
8.90724 -10.7796 -0.949508 369.164 196.316
6.70957 -10.7093 -1.09325 360.323 196.188
-6.90998 7.92732 -2.45547 301.543 267.509
-4.96255 6.00858 -4.81114 309.514 262.106
-2.44255 4.83011 -6.55302 319.685 259.309
0.326146 4.70242 -8.27669 330.629 260.7
3.07992 4.44901 -6.46107 341.919 259.021
5.73231 5.26382 -4.69784 352.565 261.569
7.92048 6.90908 -2.38676 361.229 266.886
6.37279 9.4977 -3.74745 354.319 277.723
4.01076 11.4096 -5.14576 344.286 285.73
0.921101 12.0761 -6.66288 331.593 288.744
-2.28767 11.8615 -5.23003 318.928 286.112
-4.94941 10.2855 -3.90033 308.739 278.313
-2.64285 6.77898 -5.07395 318.619 265.874
0.468365 6.41901 -7.45577 330.916 266.906
3.599 6.33904 -4.98223 343.749 265.52
3.97317 8.75349 -4.28892 344.802 274.625
0.709466 9.4669 -6.27919 331.349 278.127
-2.63299 9.213 -4.39905 318.205 274.984
3 20 21 23
3 21 22 23
3 0 1 36
3 15 16 45
3 0 17 36
3 16 26 45
3 17 18 37
3 25 26 44
3 17 36 37
3 26 44 45
3 18 19 38
3 24 25 43
3 18 37 38
3 25 43 44
3 19 20 38
3 23 24 43
3 20 21 39
3 22 23 42
3 20 38 39
3 23 42 43
3 21 22 27
3 21 27 39
3 22 27 42
3 27 28 42
3 27 28 39
3 28 42 47
3 28 39 40
3 1 36 41
3 15 45 46
3 1 2 41
3 14 15 46
3 28 29 40
3 28 29 47
3 2 40 41
3 14 46 47
3 2 29 40
3 14 29 47
3 2 3 29
3 13 14 29
3 29 30 31
3 29 30 35
3 3 29 31
3 13 29 35
3 30 32 33
3 30 33 34
3 30 31 32
3 30 34 35
3 3 4 31
3 12 13 35
3 4 5 48
3 11 12 54
3 5 6 48
3 10 11 54
3 6 48 59
3 10 54 55
3 6 7 59
3 9 10 55
3 7 58 59
3 9 55 56
3 8 57 58
3 8 56 57
3 7 8 58
3 8 9 56
3 4 31 48
3 12 35 54
3 31 48 49
3 35 53 54
3 31 49 50
3 35 52 53
3 31 32 50
3 34 35 52
3 32 33 50
3 33 34 52
3 33 50 51
3 33 51 52
3 48 49 60
3 49 60 50
3 50 60 61
3 50 51 61
3 51 52 61
3 61 62 52
3 52 53 62
3 53 54 62
3 54 55 63
3 55 56 63
3 56 63 64
3 56 57 64
3 64 65 57
3 57 58 65
3 58 59 65
3 48 59 65
