ply
format ascii 1.0
element vertex 66
property float x
property float y
property float z
property float u
property float v
element face 91
property list uchar int vertex_indices
end_header
-20.1635 -5.59382 21.3494 359.119 317.765
-19.3883 -0.378093 20.7661 362.978 355.436
-18.2864 4.80577 20.3623 369.209 392.825
-16.9343 9.79838 18.4564 377.006 430.289
-14.9813 14.3373 13.4218 388.65 467.542
-11.9937 18.3106 8.01066 407.77 501.462
-8.15936 21.6409 3.25182 433.24 530.52
-3.55269 23.9097 -0.935752 464.638 551.801
1.69067 24.2657 -4.57334 501.25 559.262
6.8263 23.2116 -0.887199 538.857 550.141
11.0675 20.3538 3.35726 570.73 527.473
14.397 16.5361 8.16434 596.492 497.217
16.7551 12.1583 13.6256 615.616 462.101
17.9515 7.30987 18.7204 626.531 423.612
18.5344 2.05674 20.6416 632.611 384.911
18.8739 -3.35472 21.0983 636.735 346.326
18.8861 -8.75414 21.6891 638.546 307.6
-16.9476 -13.6765 0.242581 380.601 280.547
-14.7025 -15.9757 -1.65322 396.949 266.7
-11.7583 -17.1802 -3.00215 418.055 260.331
-8.59725 -17.4153 -4.27464 440.43 260.821
-5.50677 -16.9039 -5.43475 462.099 266.469
3.08459 -17.6106 -5.35678 523.58 264.149
6.07903 -18.6028 -4.16596 545.445 257.02
9.25128 -18.8543 -2.84945 568.38 255.075
12.3529 -18.0942 -1.45993 590.521 260.198
14.9181 -16.1443 0.439749 608.575 273.11
-0.858563 -11.8083 -4.82226 493.827 303.457
-0.564284 -8.19819 -7.89601 494.281 331.849
-0.271129 -4.60191 -10.8901 494.747 360.071
0.0186588 -0.991544 -13.4975 495.254 388.046
-3.40319 1.69066 -6.80523 471.28 399.922
-1.6635 2.29738 -7.42097 483.389 405.324
0.203625 2.45873 -7.93585 496.559 407.525
2.03466 2.02747 -7.40106 509.841 404.58
3.67713 1.17158 -6.76523 521.925 398.48
-12.5279 -9.78422 -0.743085 410.767 310.382
-10.5786 -11.1233 -1.15296 424.992 301.9
-8.19645 -11.2934 -1.46143 441.97 301.736
-6.13895 -10.2206 -1.2012 456.367 309.751
-8.25106 -9.68007 -1.14516 441.156 312.849
-10.434 -9.46052 -1.0633 425.541 313.63
4.66049 -11.0599 -1.09128 533.637 307.171
6.54732 -12.4512 -1.35187 547.458 298.166
8.93598 -12.6324 -1.02216 564.604 297.353
11.0699 -11.6047 -0.599207 579.588 304.927
9.04626 -10.9655 -0.926085 564.909 309.094
6.84623 -10.8477 -1.02477 549.169 309.312
-7.30793 7.64595 -2.49068 442.447 436.934
-5.32943 5.53018 -4.81968 456.761 424.688
-2.62005 4.34859 -6.48031 476.128 418.686
0.33999 4.21423 -8.24156 496.95 420.263
3.27351 3.92305 -6.47356 518.277 417.555
6.10939 4.71058 -4.76543 538.573 422.502
8.35188 6.50967 -2.3829 554.46 433.811
6.67876 9.31313 -3.75056 541.441 454.336
4.13355 11.3683 -5.09228 522.433 469.264
0.857257 12.0646 -6.61748 498.586 474.51
-2.48288 11.8433 -5.10954 475.113 470.522
-5.28592 10.1811 -3.79603 455.866 456.687
-2.84685 6.47605 -5.10387 474.126 432.429
0.462999 6.14289 -7.49319 497.387 433.275
3.74978 6.00037 -5.09235 521.304 431.165
4.07949 8.47224 -4.37441 523.046 448.114
0.652882 9.20401 -6.31346 498.04 453.934
-2.86083 8.97366 -4.39013 473.409 449.454
3 20 21 23
3 21 22 23
3 0 1 36
3 15 16 45
3 0 17 36
3 16 26 45
3 17 18 37
3 25 26 44
3 17 36 37
3 26 44 45
3 18 19 38
3 24 25 43
3 18 37 38
3 25 43 44
3 19 20 38
3 23 24 43
3 20 21 39
3 22 23 42
3 20 38 39
3 23 42 43
3 21 22 27
3 21 27 39
3 22 27 42
3 27 28 42
3 27 28 39
3 28 42 47
3 28 39 40
3 1 36 41
3 15 45 46
3 1 2 41
3 14 15 46
3 28 29 40
3 28 29 47
3 2 40 41
3 14 46 47
3 2 29 40
3 14 29 47
3 2 3 29
3 13 14 29
3 29 30 31
3 29 30 35
3 3 29 31
3 13 29 35
3 30 32 33
3 30 33 34
3 30 31 32
3 30 34 35
3 3 4 31
3 12 13 35
3 4 5 48
3 11 12 54
3 5 6 48
3 10 11 54
3 6 48 59
3 10 54 55
3 6 7 59
3 9 10 55
3 7 58 59
3 9 55 56
3 8 57 58
3 8 56 57
3 7 8 58
3 8 9 56
3 4 31 48
3 12 35 54
3 31 48 49
3 35 53 54
3 31 49 50
3 35 52 53
3 31 32 50
3 34 35 52
3 32 33 50
3 33 34 52
3 33 50 51
3 33 51 52
3 48 49 60
3 49 60 50
3 50 60 61
3 50 51 61
3 51 52 61
3 61 62 52
3 52 53 62
3 53 54 62
3 54 55 63
3 55 56 63
3 56 63 64
3 56 57 64
3 64 65 57
3 57 58 65
3 58 59 65
3 48 59 65
