ply
format ascii 1.0
element vertex 66
property float x
property float y
property float z
property float u
property float v
element face 91
property list uchar int vertex_indices
end_header
-20.8205 -5.21519 21.4128 335.67 570.449
-20.3398 0.0611075 20.928 336.734 605.16
-19.4927 5.32986 20.7874 340.296 639.176
-18.3289 10.1486 18.5636 346.011 675.297
-16.4801 14.1517 13.513 356.448 713.081
-13.2524 17.2378 8.10052 376.52 746.462
-8.86424 19.2641 3.51133 404.907 771.703
-3.90264 20.3159 -0.781228 437.576 790.323
1.38706 19.8879 -4.39093 473.11 798.13
6.67984 19.5835 -0.677062 509.195 789.76
11.4156 17.8602 3.65039 542.149 770.763
15.4491 15.2422 8.27599 570.757 745.127
18.1419 11.7089 13.7189 590.766 711.258
19.3179 7.43298 18.767 600.823 672.986
19.7612 2.42637 21.0045 606.015 636.299
19.8654 -2.98676 21.1722 608.924 601.695
19.6014 -8.35765 21.6543 609.358 566.48
-17.6879 -14.2482 0.118958 358.752 563.871
-15.1548 -16.7625 -1.57025 376.707 552.903
-11.875 -17.9099 -2.89762 399.168 550.053
-8.46614 -18.0306 -4.21304 422.085 553.724
-5.17744 -17.4414 -5.54945 443.902 561.889
2.6882 -17.9782 -5.4287 497.135 561.419
5.88122 -19.0654 -4.06776 519.2 552.688
9.29758 -19.4531 -2.72005 542.486 548.506
12.7365 -18.7878 -1.36301 565.499 550.976
15.6256 -16.6512 0.312704 584.235 561.795
-0.830495 -11.9135 -4.98564 471.001 597.34
-0.602154 -8.84622 -7.67988 471.084 623.085
-0.371447 -5.83177 -10.6453 471.183 649.124
-0.138897 -2.80938 -13.4902 471.3 674.935
-2.93549 1.77348 -6.45422 451.155 686.504
-1.42299 1.91701 -7.31052 461.222 690.012
0.135252 1.79003 -8.08649 471.712 691.641
1.71155 1.7039 -7.20688 482.439 689.701
3.19664 1.3492 -6.33257 492.66 686.037
-13.2575 -9.927 -0.76517 386.787 595.072
-11.1188 -11.6352 -1.0008 401.873 585.679
-8.3759 -11.7066 -1.10422 420.378 586.585
-6.17709 -10.0564 -0.980341 434.536 597.638
-8.49775 -9.28064 -1.24924 418.562 602.224
-10.996 -9.07095 -1.1298 401.651 602.256
4.84126 -10.8562 -0.870095 509.12 596.812
6.79178 -12.8082 -0.958889 523.048 585.46
9.52171 -13.1103 -0.823838 541.577 584.348
11.8813 -11.7226 -0.57059 556.936 593.506
9.76207 -10.5621 -0.958555 542.154 600.885
7.25742 -10.4124 -1.11559 525.203 601.175
-5.06902 10.7632 -3.14061 433.399 734.854
-3.45718 8.60155 -5.24684 444.969 726.709
-1.67041 6.7573 -6.82555 457.632 719.421
0.479847 6.6652 -8.46397 472.03 723.509
2.62574 6.46826 -6.73484 486.707 719.133
4.6396 8.05704 -5.1397 499.761 726.315
6.52651 9.96549 -3.01746 511.872 734.248
4.77481 10.775 -4.04555 499.658 741.038
2.73601 11.0076 -5.34846 485.722 744.696
0.746073 10.9209 -6.60904 472.247 746.256
-1.20157 11.2763 -5.44699 459.07 745.02
-3.25184 11.3306 -4.14668 445.335 741.516
-1.21326 9.60794 -5.34068 459.676 734.21
0.639674 9.10756 -7.29669 472.21 736.328
2.531 9.35571 -5.26049 485.016 733.954
2.22269 7.98423 -4.70468 483.538 723.862
0.501933 7.39909 -6.56642 472.032 723.769
-1.13617 8.20994 -4.77882 460.806 724.093
3 20 21 23
3 21 22 23
3 0 1 36
3 15 16 45
3 0 17 36
3 16 26 45
3 17 18 37
3 25 26 44
3 17 36 37
3 26 44 45
3 18 19 38
3 24 25 43
3 18 37 38
3 25 43 44
3 19 20 38
3 23 24 43
3 20 21 39
3 22 23 42
3 20 38 39
3 23 42 43
3 21 22 27
3 21 27 39
3 22 27 42
3 27 28 42
3 27 28 39
3 28 42 47
3 28 39 40
3 1 36 41
3 15 45 46
3 1 2 41
3 14 15 46
3 28 29 40
3 28 29 47
3 2 40 41
3 14 46 47
3 2 29 40
3 14 29 47
3 2 3 29
3 13 14 29
3 29 30 31
3 29 30 35
3 3 29 31
3 13 29 35
3 30 32 33
3 30 33 34
3 30 31 32
3 30 34 35
3 3 4 31
3 12 13 35
3 4 5 48
3 11 12 54
3 5 6 48
3 10 11 54
3 6 48 59
3 10 54 55
3 6 7 59
3 9 10 55
3 7 58 59
3 9 55 56
3 8 57 58
3 8 56 57
3 7 8 58
3 8 9 56
3 4 31 48
3 12 35 54
3 31 48 49
3 35 53 54
3 31 49 50
3 35 52 53
3 31 32 50
3 34 35 52
3 32 33 50
3 33 34 52
3 33 50 51
3 33 51 52
3 48 49 60
3 49 60 50
3 50 60 61
3 50 51 61
3 51 52 61
3 61 62 52
3 52 53 62
3 53 54 62
3 54 55 63
3 55 56 63
3 56 63 64
3 56 57 64
3 64 65 57
3 57 58 65
3 58 59 65
3 48 59 65
