ply
format ascii 1.0
element vertex 66
property float x
property float y
property float z
property float u
property float v
element face 91
property list uchar int vertex_indices
end_header
-20.6547 -5.64822 21.3079 356.223 520.797
-20.0519 -0.423649 20.8425 358.07 551.281
-19.1146 4.7667 20.4846 361.727 581.646
-17.7568 9.73356 18.3869 366.447 611.627
-15.6469 14.1974 13.4633 374.258 640.141
-12.4006 17.9009 7.99404 389.019 664.876
-8.27017 20.7526 3.29433 409.845 684.649
-3.55056 22.6779 -0.880153 434.825 698.755
1.65875 22.9008 -4.53572 463.242 703.456
6.75338 21.9412 -0.807894 493.898 699.293
11.0958 19.3665 3.41769 521.26 685.281
14.7165 15.9593 8.15704 544.635 665.493
17.3322 11.8354 13.6544 562.703 640.903
18.7221 7.12069 18.5937 574.033 612.977
19.3316 2.01325 20.7063 580.918 583.854
19.5157 -3.2566 21.0748 585.663 554.358
19.3623 -8.51341 21.5385 588.425 524.644
-16.9434 -14.0024 0.166523 372.872 477.149
-14.6923 -16.1532 -1.56921 387.774 465.171
-11.7473 -17.1684 -2.95979 406.691 460.779
-8.64008 -17.2567 -4.29633 426.152 462.661
-5.61118 -16.6863 -5.52226 444.679 468.994
3.24342 -17.3161 -5.43542 492.213 470.072
6.14406 -18.3113 -4.17859 510.838 464.895
9.21432 -18.6656 -2.80935 530.284 464.018
12.2557 -18.0793 -1.38764 548.999 469.046
14.7675 -16.2699 0.371491 563.699 481.26
-0.800008 -11.6067 -4.9545 467.996 502.28
-0.571382 -8.59445 -7.76035 466.874 521.536
-0.341526 -5.60559 -10.6633 465.711 540.671
-0.111056 -2.62069 -13.4075 464.556 559.726
-3.34691 0.90089 -6.47077 446.785 576.039
-1.6415 1.2941 -7.26957 455.857 579.372
0.142254 1.35258 -8.01839 465.533 580.855
1.89493 1.04463 -7.21848 475.339 579.902
3.5165 0.412997 -6.40175 484.619 577.068
-12.5316 -9.74495 -0.905324 396.878 507.943
-10.6698 -11.0691 -1.10649 408.744 501.652
-8.3451 -11.2534 -1.2279 422.574 501.664
-6.35058 -10.2247 -0.977391 434.416 508.004
-8.3556 -9.50683 -1.10156 421.905 510.635
-10.5048 -9.27615 -1.09011 408.974 510.935
4.83678 -11.0227 -0.887733 501.367 509.701
6.66716 -12.3254 -1.11779 513.262 504.07
8.99246 -12.4738 -0.968074 527.065 504.561
11.0209 -11.4279 -0.742362 538.61 511.51
9.08377 -10.6753 -0.948989 526.379 513.924
6.92444 -10.5977 -0.987214 513.562 512.939
-6.63855 8.84013 -2.74685 421.545 616.413
-4.73902 6.8457 -4.89305 434.469 608.159
-2.32888 5.4219 -6.54708 449.083 602.79
0.427259 5.35547 -8.22771 464.371 604.698
3.15408 5.03248 -6.48681 480.379 603.557
5.72158 6.09946 -4.80547 495.264 609.615
7.86034 7.80446 -2.63884 508.384 618.657
6.14905 9.90529 -3.93286 495.82 628.096
3.75933 11.3254 -5.28293 480.496 633.249
0.883179 11.8243 -6.67982 464.071 634.325
-2.0422 11.738 -5.34336 448.23 632.399
-4.62825 10.6744 -4.02161 433.501 626.466
-2.38864 7.57584 -5.20395 447.545 614.597
0.55887 7.21472 -7.41824 464.341 615.629
3.50364 7.15671 -5.14457 482.021 615.52
3.65722 8.62822 -4.49552 482.399 618.034
0.689237 9.10764 -6.42523 464.528 618.379
-2.33557 9.05505 -4.5521 447.445 617.161
3 20 21 23
3 21 22 23
3 0 1 36
3 15 16 45
3 0 17 36
3 16 26 45
3 17 18 37
3 25 26 44
3 17 36 37
3 26 44 45
3 18 19 38
3 24 25 43
3 18 37 38
3 25 43 44
3 19 20 38
3 23 24 43
3 20 21 39
3 22 23 42
3 20 38 39
3 23 42 43
3 21 22 27
3 21 27 39
3 22 27 42
3 27 28 42
3 27 28 39
3 28 42 47
3 28 39 40
3 1 36 41
3 15 45 46
3 1 2 41
3 14 15 46
3 28 29 40
3 28 29 47
3 2 40 41
3 14 46 47
3 2 29 40
3 14 29 47
3 2 3 29
3 13 14 29
3 29 30 31
3 29 30 35
3 3 29 31
3 13 29 35
3 30 32 33
3 30 33 34
3 30 31 32
3 30 34 35
3 3 4 31
3 12 13 35
3 4 5 48
3 11 12 54
3 5 6 48
3 10 11 54
3 6 48 59
3 10 54 55
3 6 7 59
3 9 10 55
3 7 58 59
3 9 55 56
3 8 57 58
3 8 56 57
3 7 8 58
3 8 9 56
3 4 31 48
3 12 35 54
3 31 48 49
3 35 53 54
3 31 49 50
3 35 52 53
3 31 32 50
3 34 35 52
3 32 33 50
3 33 34 52
3 33 50 51
3 33 51 52
3 48 49 60
3 49 60 50
3 50 60 61
3 50 51 61
3 51 52 61
3 61 62 52
3 52 53 62
3 53 54 62
3 54 55 63
3 55 56 63
3 56 63 64
3 56 57 64
3 64 65 57
3 57 58 65
3 58 59 65
3 48 59 65
