ply
format ascii 1.0
element vertex 66
property float x
property float y
property float z
property float u
property float v
element face 91
property list uchar int vertex_indices
end_header
-20.6547 -5.64822 21.3079 401.332 522.449
-20.0519 -0.423649 20.8425 401.416 546.896
-19.1146 4.7667 20.4846 403.041 571.26
-17.7568 9.73356 18.3869 406.146 596.811
-15.6469 14.1974 13.4633 412.627 623.375
-12.4006 17.9009 7.99404 425.422 647.038
-8.27017 20.7526 3.29433 443.174 665.889
-3.55056 22.6779 -0.880153 463.852 680.434
1.65875 22.9008 -4.53572 487.063 688.076
6.75338 21.9412 -0.807894 511.042 682.964
11.0958 19.3665 3.41769 532.867 670.162
14.7165 15.9593 8.15704 551.914 652.654
17.3322 11.8354 13.6544 566.879 630.454
18.7221 7.12069 18.5937 576.757 605.82
19.3316 2.01325 20.7063 583.206 582.3
19.5157 -3.2566 21.0748 587.82 559.966
19.3623 -8.51341 21.5385 590.583 537.262
-16.9434 -14.0024 0.166523 420.79 512.563
-14.6923 -16.1532 -1.56921 433.31 504.88
-11.7473 -17.1684 -2.95979 448.911 503.009
-8.64008 -17.2567 -4.29633 464.783 506.184
-5.61118 -16.6863 -5.52226 479.788 512.616
3.24342 -17.3161 -5.43542 519.516 516.596
6.14406 -18.3113 -4.17859 534.227 512.604
9.21432 -18.6656 -2.80935 549.374 511.735
12.2557 -18.0793 -1.38764 563.623 515.249
14.7675 -16.2699 0.371491 574.176 523.838
-0.800008 -11.6067 -4.9545 499.029 540.468
-0.571382 -8.59445 -7.76035 497.933 557.361
-0.341526 -5.60559 -10.6633 496.809 574.263
-0.111056 -2.62069 -13.4075 495.68 590.961
-3.34691 0.90089 -6.47077 480.3 598.693
-1.6415 1.2941 -7.26957 487.41 601.818
0.142254 1.35258 -8.01839 494.89 603.764
1.89493 1.04463 -7.21848 502.067 602.844
3.5165 0.412997 -6.40175 508.972 600.745
-12.5316 -9.74495 -0.905324 438.263 536.378
-10.6698 -11.0691 -1.10649 449.096 530.534
-8.3451 -11.2534 -1.2279 461.882 531.876
-6.35058 -10.2247 -0.977391 471.311 539.84
-8.3556 -9.50683 -1.10156 460.043 542.428
-10.5048 -9.27615 -1.09011 448.368 541.702
4.83678 -11.0227 -0.887733 522.866 544.231
6.66716 -12.3254 -1.11779 533.148 537.992
8.99246 -12.4738 -0.968074 545.718 538.277
11.0209 -11.4279 -0.742362 555.204 545.632
9.08377 -10.6753 -0.948989 544.686 549.455
6.92444 -10.5977 -0.987214 533.302 548.382
-6.63855 8.84013 -2.74685 458.463 625.618
-4.73902 6.8457 -4.89305 469.059 621.165
-2.32888 5.4219 -6.54708 480.785 618.152
0.427259 5.35547 -8.22771 492.96 621.617
3.15408 5.03248 -6.48681 505.138 619.797
5.72158 6.09946 -4.80547 515.749 624.383
7.86034 7.80446 -2.63884 524.651 630.545
6.14905 9.90529 -3.93286 515.147 637.81
3.75933 11.3254 -5.28293 503.586 642.035
0.883179 11.8243 -6.67982 491.358 643.354
-2.0422 11.738 -5.34336 479.059 640.275
-4.62825 10.6744 -4.02161 467.716 634.285
-2.38864 7.57584 -5.20395 479.023 626.181
0.55887 7.21472 -7.41824 492.459 629.223
3.50364 7.15671 -5.14457 505.743 628.009
3.65722 8.62822 -4.49552 505.726 629.633
0.689237 9.10764 -6.42523 492.433 630.773
-2.33557 9.05505 -4.5521 479.011 627.815
3 20 21 23
3 21 22 23
3 0 1 36
3 15 16 45
3 0 17 36
3 16 26 45
3 17 18 37
3 25 26 44
3 17 36 37
3 26 44 45
3 18 19 38
3 24 25 43
3 18 37 38
3 25 43 44
3 19 20 38
3 23 24 43
3 20 21 39
3 22 23 42
3 20 38 39
3 23 42 43
3 21 22 27
3 21 27 39
3 22 27 42
3 27 28 42
3 27 28 39
3 28 42 47
3 28 39 40
3 1 36 41
3 15 45 46
3 1 2 41
3 14 15 46
3 28 29 40
3 28 29 47
3 2 40 41
3 14 46 47
3 2 29 40
3 14 29 47
3 2 3 29
3 13 14 29
3 29 30 31
3 29 30 35
3 3 29 31
3 13 29 35
3 30 32 33
3 30 33 34
3 30 31 32
3 30 34 35
3 3 4 31
3 12 13 35
3 4 5 48
3 11 12 54
3 5 6 48
3 10 11 54
3 6 48 59
3 10 54 55
3 6 7 59
3 9 10 55
3 7 58 59
3 9 55 56
3 8 57 58
3 8 56 57
3 7 8 58
3 8 9 56
3 4 31 48
3 12 35 54
3 31 48 49
3 35 53 54
3 31 49 50
3 35 52 53
3 31 32 50
3 34 35 52
3 32 33 50
3 33 34 52
3 33 50 51
3 33 51 52
3 48 49 60
3 49 60 50
3 50 60 61
3 50 51 61
3 51 52 61
3 61 62 52
3 52 53 62
3 53 54 62
3 54 55 63
3 55 56 63
3 56 63 64
3 56 57 64
3 64 65 57
3 57 58 65
3 58 59 65
3 48 59 65
