ply
format ascii 1.0
element vertex 66
property float x
property float y
property float z
property float u
property float v
element face 91
property list uchar int vertex_indices
end_header
316.554 335.87 0 316.554 335.87
319.283 374.083 0 319.283 374.083
324.402 412.069 0 324.402 412.069
331.246 450.154 0 331.246 450.154
342.072 487.915 0 342.072 487.915
360.784 522.246 0 360.784 522.246
386.3 551.391 0 386.3 551.391
417.759 572.925 0 417.759 572.925
454.455 581.127 0 454.455 581.127
493.637 572.896 0 493.637 572.896
527.65 551.247 0 527.65 551.247
555.726 521.55 0 555.726 521.55
576.635 486.145 0 576.635 486.145
588.446 446.774 0 588.446 446.774
594.775 406.866 0 594.775 406.866
598.641 367.049 0 598.641 367.049
600.146 327.094 0 600.146 327.094
338.748 295.333 0 338.748 295.333
354.88 281.962 0 354.88 281.962
375.481 275.835 0 375.481 275.835
397.275 276.41 0 397.275 276.41
418.296 282.215 0 418.296 282.215
482.111 280.53 0 482.111 280.53
503.778 273.685 0 503.778 273.685
526.483 272.181 0 526.483 272.181
548.35 277.558 0 548.35 277.558
566.387 290.349 0 566.387 290.349
451.28 323.354 0 451.28 323.354
451.339 351.632 0 451.339 351.632
451.393 379.752 0 451.393 379.752
451.48 407.64 0 451.48 407.64
427.274 418.994 0 427.274 418.994
439.551 424.285 0 439.551 424.285
452.85 426.557 0 452.85 426.557
466.326 423.879 0 466.326 423.879
478.764 418.205 0 478.764 418.205
367.297 329.365 0 367.297 329.365
381.436 321.681 0 381.436 321.681
397.958 321.677 0 397.958 321.677
412.115 329.095 0 412.115 329.095
397.165 332.037 0 397.165 332.037
381.817 332.581 0 381.817 332.581
492.566 327.428 0 492.566 327.428
506.341 319.284 0 506.341 319.284
523.137 318.719 0 523.137 318.719
537.97 325.816 0 537.97 325.816
523.398 329.627 0 523.398 329.627
507.877 329.717 0 507.877 329.717
397.555 458.014 0 397.555 458.014
412.051 445.312 0 412.051 445.312
431.613 439.044 0 431.613 439.044
452.589 440.876 0 452.589 440.876
474.373 438.589 0 474.373 438.589
494.929 444.458 0 494.929 444.458
510.982 456.635 0 510.982 456.635
497.515 477.74 0 497.515 477.74
477.809 492.82 0 477.809 492.82
453.295 497.71 0 453.295 497.71
429.663 493.267 0 429.663 493.267
410.493 478.666 0 410.493 478.666
429.56 454.051 0 429.56 454.051
452.798 455.2 0 452.798 455.2
477.024 453.57 0 477.024 453.57
478.514 470.378 0 478.514 470.378
453.162 475.698 0 453.162 475.698
428.582 470.902 0 428.582 470.902
3 20 21 23
3 21 22 23
3 0 1 36
3 15 16 45
3 0 17 36
3 16 26 45
3 17 18 37
3 25 26 44
3 17 36 37
3 26 44 45
3 18 19 38
3 24 25 43
3 18 37 38
3 25 43 44
3 19 20 38
3 23 24 43
3 20 21 39
3 22 23 42
3 20 38 39
3 23 42 43
3 21 22 27
3 21 27 39
3 22 27 42
3 27 28 42
3 27 28 39
3 28 42 47
3 28 39 40
3 1 36 41
3 15 45 46
3 1 2 41
3 14 15 46
3 28 29 40
3 28 29 47
3 2 40 41
3 14 46 47
3 2 29 40
3 14 29 47
3 2 3 29
3 13 14 29
3 29 30 31
3 29 30 35
3 3 29 31
3 13 29 35
3 30 32 33
3 30 33 34
3 30 31 32
3 30 34 35
3 3 4 31
3 12 13 35
3 4 5 48
3 11 12 54
3 5 6 48
3 10 11 54
3 6 48 59
3 10 54 55
3 6 7 59
3 9 10 55
3 7 58 59
3 9 55 56
3 8 57 58
3 8 56 57
3 7 8 58
3 8 9 56
3 4 31 48
3 12 35 54
3 31 48 49
3 35 53 54
3 31 49 50
3 35 52 53
3 31 32 50
3 34 35 52
3 32 33 50
3 33 34 52
3 33 50 51
3 33 51 52
3 48 49 60
3 49 60 50
3 50 60 61
3 50 51 61
3 51 52 61
3 61 62 52
3 52 53 62
3 53 54 62
3 54 55 63
3 55 56 63
3 56 63 64
3 56 57 64
3 64 65 57
3 57 58 65
3 58 59 65
3 48 59 65
