ply
format ascii 1.0
element vertex 66
property float x
property float y
property float z
property float u
property float v
element face 91
property list uchar int vertex_indices
end_header
-20.6547 -5.64822 21.3079 254.786 191.74
-20.0519 -0.423649 20.8425 256.597 213.803
-19.1146 4.7667 20.4846 259.727 235.752
-17.7568 9.73356 18.3869 263.739 257.906
-15.6469 14.1974 13.4633 269.835 280.449
-12.4006 17.9009 7.99404 280.325 301.198
-8.27017 20.7526 3.29433 294.734 318.89
-3.55056 22.6779 -0.880153 312.676 331.932
1.65875 22.9008 -4.53572 333.754 336.863
6.75338 21.9412 -0.807894 354.951 330.767
11.0958 19.3665 3.41769 372.643 316.866
14.7165 15.9593 8.15704 386.64 298.523
17.3322 11.8354 13.6544 396.713 277.434
18.7221 7.12069 18.5937 402.56 255.117
19.3316 2.01325 20.7063 405.946 233.491
19.5157 -3.2566 21.0748 408.285 212.167
19.3623 -8.51341 21.5385 409.371 190.737
-16.9434 -14.0024 0.166523 267.503 176.857
-14.6923 -16.1532 -1.56921 276.626 169.675
-11.7473 -17.1684 -2.95979 288.367 166.647
-8.64008 -17.2567 -4.29633 300.734 167.451
-5.61118 -16.6863 -5.52226 312.648 171.103
3.24342 -17.3161 -5.43542 346.723 171.112
6.14406 -18.3113 -4.17859 358.634 167.417
9.21432 -18.6656 -2.80935 371.074 166.474
12.2557 -18.0793 -1.38764 382.975 169.343
14.7675 -16.2699 0.371491 392.416 176.36
-0.800008 -11.6067 -4.9545 329.945 191.413
-0.571382 -8.59445 -7.76035 329.803 207.008
-0.341526 -5.60559 -10.6633 329.662 222.502
-0.111056 -2.62069 -13.4075 329.568 237.833
-3.34691 0.90089 -6.47077 317.167 245.637
-1.6415 1.2941 -7.26957 323.513 248.549
0.142254 1.35258 -8.01839 330.409 249.87
1.89493 1.04463 -7.21848 337.413 248.392
3.5165 0.412997 -6.40175 343.802 245.316
-12.5316 -9.74495 -0.905324 283.538 194.031
-10.6698 -11.0691 -1.10649 291.517 189.173
-8.3451 -11.2534 -1.2279 301.198 189.335
-6.35058 -10.2247 -0.977391 309.113 194.281
-8.3556 -9.50683 -1.10156 300.577 196.429
-10.5048 -9.27615 -1.09011 291.681 196.679
4.83678 -11.0227 -0.887733 351.877 194.088
6.66716 -12.3254 -1.11779 359.59 189.108
8.99246 -12.4738 -0.968074 369.248 188.842
11.0209 -11.4279 -0.742362 377.288 193.638
9.08377 -10.6753 -0.948989 369.164 196.316
6.92444 -10.5977 -0.987214 360.323 196.188
-6.63855 8.84013 -2.74685 301.543 267.509
-4.73902 6.8457 -4.89305 309.514 262.106
-2.32888 5.4219 -6.54708 319.685 259.309
0.427259 5.35547 -8.22771 330.629 260.7
3.15408 5.03248 -6.48681 341.919 259.021
5.72158 6.09946 -4.80547 352.565 261.569
7.86034 7.80446 -2.63884 361.229 266.886
6.14905 9.90529 -3.93286 354.319 277.723
3.75933 11.3254 -5.28293 344.286 285.73
0.883179 11.8243 -6.67982 331.593 288.744
-2.0422 11.738 -5.34336 318.928 286.112
-4.62825 10.6744 -4.02161 308.739 278.313
-2.38864 7.57584 -5.20395 318.619 265.874
0.55887 7.21472 -7.41824 330.916 266.906
3.50364 7.15671 -5.14457 343.749 265.52
3.65722 8.62822 -4.49552 344.802 274.625
0.689237 9.10764 -6.42523 331.349 278.127
-2.33557 9.05505 -4.5521 318.205 274.984
3 20 21 23
3 21 22 23
3 0 1 36
3 15 16 45
3 0 17 36
3 16 26 45
3 17 18 37
3 25 26 44
3 17 36 37
3 26 44 45
3 18 19 38
3 24 25 43
3 18 37 38
3 25 43 44
3 19 20 38
3 23 24 43
3 20 21 39
3 22 23 42
3 20 38 39
3 23 42 43
3 21 22 27
3 21 27 39
3 22 27 42
3 27 28 42
3 27 28 39
3 28 42 47
3 28 39 40
3 1 36 41
3 15 45 46
3 1 2 41
3 14 15 46
3 28 29 40
3 28 29 47
3 2 40 41
3 14 46 47
3 2 29 40
3 14 29 47
3 2 3 29
3 13 14 29
3 29 30 31
3 29 30 35
3 3 29 31
3 13 29 35
3 30 32 33
3 30 33 34
3 30 31 32
3 30 34 35
3 3 4 31
3 12 13 35
3 4 5 48
3 11 12 54
3 5 6 48
3 10 11 54
3 6 48 59
3 10 54 55
3 6 7 59
3 9 10 55
3 7 58 59
3 9 55 56
3 8 57 58
3 8 56 57
3 7 8 58
3 8 9 56
3 4 31 48
3 12 35 54
3 31 48 49
3 35 53 54
3 31 49 50
3 35 52 53
3 31 32 50
3 34 35 52
3 32 33 50
3 33 34 52
3 33 50 51
3 33 51 52
3 48 49 60
3 49 60 50
3 50 60 61
3 50 51 61
3 51 52 61
3 61 62 52
3 52 53 62
3 53 54 62
3 54 55 63
3 55 56 63
3 56 63 64
3 56 57 64
3 64 65 57
3 57 58 65
3 58 59 65
3 48 59 65
