ply
format ascii 1.0
element vertex 66
property float x
property float y
property float z
property float u
property float v
element face 91
property list uchar int vertex_indices
end_header
-19.8375 -6.27434 21.3633 265.763 237.648
-19.1508 -0.771193 20.8444 266.773 259.641
-18.1564 4.69879 20.3458 269.009 281.592
-16.8661 9.94838 18.4738 272.333 303.124
-14.9804 14.673 13.507 277.833 323.577
-12.0226 18.7702 8.00582 287.69 342.028
-8.15027 22.1785 3.12841 301.423 357.884
-3.48157 24.5319 -0.959237 318.693 369.629
1.87846 24.8862 -4.67606 339.323 373.622
7.08119 23.6798 -0.841223 360.593 369.463
11.2587 20.5668 3.29202 378.423 357.413
14.4534 16.539 8.20475 392.734 341.262
16.6577 12.0191 13.713 403.35 322.719
17.8041 7.13716 18.6298 409.842 302.583
18.3252 1.88785 20.4866 413.657 281.608
18.5123 -3.52475 20.9357 416.056 260.256
18.3712 -8.92118 21.4566 417.164 238.848
-16.5408 -13.8143 0.179695 278.773 214.505
-14.3748 -16.0563 -1.62759 287.789 206.816
-11.5189 -17.1855 -2.99178 299.239 203.599
-8.47279 -17.3419 -4.31263 311.153 204.255
-5.50716 -16.7721 -5.51409 322.545 207.713
3.21176 -17.2911 -5.48182 357.07 208.318
5.99128 -18.2129 -4.2383 368.431 205.215
8.94867 -18.4512 -2.8739 380.303 204.822
11.8502 -17.7388 -1.47034 391.675 208.143
14.2271 -15.8541 0.365948 400.675 215.804
-0.759237 -12.028 -4.88158 339.912 227.657
-0.533131 -8.76742 -7.86185 339.517 241.328
-0.311733 -5.51667 -10.7438 339.116 254.934
-0.0902131 -2.25504 -13.3481 338.743 268.51
-3.18813 0.873272 -6.62979 326.307 278.124
-1.55467 1.38138 -7.28733 332.525 280.792
0.187863 1.50993 -7.86797 339.293 281.979
1.86815 1.15491 -7.23212 346.089 280.929
3.38315 0.43644 -6.52358 352.349 278.379
-12.3081 -9.91243 -0.864951 294.183 231.416
-10.417 -11.1677 -1.16484 301.98 227.132
-8.10891 -11.3547 -1.42784 311.105 227.168
-6.12812 -10.3538 -1.12526 318.646 231.63
-8.15405 -9.69948 -1.14111 310.464 233.591
-10.2919 -9.49614 -1.07591 301.984 233.723
4.63709 -11.0468 -1.11651 361.286 232.18
6.45468 -12.2645 -1.33527 368.79 228
8.74228 -12.3901 -1.03747 377.875 228.125
10.7494 -11.3833 -0.715111 385.52 232.613
8.82086 -10.7178 -0.968865 377.694 234.71
6.69762 -10.6508 -1.08358 369.293 234.357
-7.05886 7.5472 -2.46442 309.499 302.115
-5.17177 5.44088 -4.75427 317.324 295
-2.57218 4.17075 -6.47692 327.768 291.244
0.327864 3.99476 -8.23017 339.066 291.891
3.20359 3.77895 -6.38248 350.66 291.437
5.92226 4.67933 -4.63104 361.292 295.351
8.03187 6.5329 -2.35757 369.294 302.693
6.69611 9.66759 -3.79791 362.942 314.993
4.33079 12.0639 -5.23115 352.754 324.072
0.983621 12.8908 -6.81319 339.147 326.718
-2.49393 12.5318 -5.32056 325.705 323.858
-5.22396 10.4756 -3.93275 315.703 314.576
-2.79872 6.25288 -5.00987 326.408 298.984
0.470762 5.84059 -7.41887 339.164 298.985
3.73729 5.81142 -4.8907 352.315 299.207
4.21915 9.07536 -4.23098 353.31 312.021
0.781725 10.0345 -6.21288 339.267 315.264
-2.78764 9.55266 -4.35715 325.537 311.798
3 20 21 23
3 21 22 23
3 0 1 36
3 15 16 45
3 0 17 36
3 16 26 45
3 17 18 37
3 25 26 44
3 17 36 37
3 26 44 45
3 18 19 38
3 24 25 43
3 18 37 38
3 25 43 44
3 19 20 38
3 23 24 43
3 20 21 39
3 22 23 42
3 20 38 39
3 23 42 43
3 21 22 27
3 21 27 39
3 22 27 42
3 27 28 42
3 27 28 39
3 28 42 47
3 28 39 40
3 1 36 41
3 15 45 46
3 1 2 41
3 14 15 46
3 28 29 40
3 28 29 47
3 2 40 41
3 14 46 47
3 2 29 40
3 14 29 47
3 2 3 29
3 13 14 29
3 29 30 31
3 29 30 35
3 3 29 31
3 13 29 35
3 30 32 33
3 30 33 34
3 30 31 32
3 30 34 35
3 3 4 31
3 12 13 35
3 4 5 48
3 11 12 54
3 5 6 48
3 10 11 54
3 6 48 59
3 10 54 55
3 6 7 59
3 9 10 55
3 7 58 59
3 9 55 56
3 8 57 58
3 8 56 57
3 7 8 58
3 8 9 56
3 4 31 48
3 12 35 54
3 31 48 49
3 35 53 54
3 31 49 50
3 35 52 53
3 31 32 50
3 34 35 52
3 32 33 50
3 33 34 52
3 33 50 51
3 33 51 52
3 48 49 60
3 49 60 50
3 50 60 61
3 50 51 61
3 51 52 61
3 61 62 52
3 52 53 62
3 53 54 62
3 54 55 63
3 55 56 63
3 56 63 64
3 56 57 64
3 64 65 57
3 57 58 65
3 58 59 65
3 48 59 65
