ply
format ascii 1.0
element vertex 66
property float x
property float y
property float z
property float u
property float v
element face 91
property list uchar int vertex_indices
end_header
-20.014 -6.50941 21.4316 263.664 217.586
-19.3472 -0.942941 20.9228 265.215 238.302
-18.3887 4.59163 20.4064 267.85 258.946
-17.1393 9.92236 18.4828 271.442 278.943
-15.2788 14.7571 13.5356 277.048 297.337
-12.2671 18.9182 7.96743 286.95 313.445
-8.27413 22.2946 3.11777 300.676 326.772
-3.49193 24.5748 -0.967349 317.572 336.133
1.93277 24.9281 -4.73181 337.175 338.452
7.18769 23.7469 -0.849348 357.201 334.728
11.5004 20.7366 3.27312 374.052 324.082
14.8094 16.7421 8.15542 387.424 309.604
17.0312 12.1609 13.7305 396.94 292.756
18.1004 7.18258 18.6366 402.185 274.29
18.5381 1.87228 20.526 404.824 254.632
18.6646 -3.58181 20.9866 406.183 234.458
18.4876 -9.01699 21.5141 406.424 214.303
-16.6221 -13.8528 0.16546 275.075 191.9
-14.3919 -16.1494 -1.62254 283.486 183.833
-11.451 -17.2917 -2.98396 294.391 180.126
-8.31792 -17.4176 -4.29582 305.856 180.207
-5.28123 -16.7676 -5.4954 316.857 183.138
2.96314 -17.2334 -5.45496 347.417 182.697
5.80584 -18.2166 -4.21863 358.212 179.448
8.8417 -18.4722 -2.87643 369.62 178.915
11.8171 -17.7329 -1.48674 380.655 182.051
14.2424 -15.7808 0.355416 389.518 189.567
-0.744055 -11.8661 -4.89297 332.941 201.947
-0.502021 -8.59229 -7.86351 333.014 214.226
-0.266716 -5.32777 -10.7519 333.072 226.467
-0.032233 -2.0546 -13.3904 333.153 238.728
-3.13369 0.897821 -6.6104 321.951 248.863
-1.50792 1.41866 -7.28179 327.811 251.073
0.227555 1.55712 -7.88147 334.143 251.882
1.8923 1.19263 -7.2195 340.425 250.763
3.38874 0.461969 -6.49473 346.148 248.261
-12.4398 -9.69331 -0.874947 289.787 207.983
-10.5384 -10.9569 -1.20781 296.977 203.621
-8.21652 -11.1446 -1.48356 305.562 203.3
-6.21252 -10.1434 -1.15081 312.853 207.301
-8.25111 -9.48449 -1.16204 305.212 209.421
-10.4025 -9.28412 -1.08717 297.234 209.824
4.63806 -10.8016 -1.12497 353.078 206.554
6.48235 -12.0188 -1.39375 360.057 202.352
8.78309 -12.1445 -1.0953 368.616 202.232
10.7994 -11.1289 -0.738756 375.952 206.286
8.84691 -10.4717 -0.985384 368.605 208.424
6.71104 -10.4041 -1.0985 360.685 208.347
-7.18641 7.37272 -2.47143 306.407 271.997
-5.18882 5.37724 -4.74663 313.859 265.028
-2.54643 4.20801 -6.47572 323.626 261.192
0.349393 4.05086 -8.20007 334.174 261.139
3.21327 3.82286 -6.3811 344.993 260.66
5.95917 4.6208 -4.62824 355.209 263.961
8.16117 6.35504 -2.36801 363.324 270.618
6.7026 9.32788 -3.77516 357.322 281.45
4.27385 11.5562 -5.21401 347.845 289.378
0.96318 12.3256 -6.79315 335.316 291.779
-2.4778 12.01 -5.30579 322.8 290.009
-5.2426 10.1166 -3.92183 313.016 282.513
-2.81209 6.17013 -5.02862 322.495 268.344
0.484743 5.81164 -7.41678 334.486 267.638
3.7699 5.73157 -4.89982 346.914 267.741
4.25028 8.76932 -4.23454 348.292 279.022
0.774636 9.65997 -6.21162 335.092 281.863
-2.82198 9.2408 -4.36232 322.055 279.67
3 20 21 23
3 21 22 23
3 0 1 36
3 15 16 45
3 0 17 36
3 16 26 45
3 17 18 37
3 25 26 44
3 17 36 37
3 26 44 45
3 18 19 38
3 24 25 43
3 18 37 38
3 25 43 44
3 19 20 38
3 23 24 43
3 20 21 39
3 22 23 42
3 20 38 39
3 23 42 43
3 21 22 27
3 21 27 39
3 22 27 42
3 27 28 42
3 27 28 39
3 28 42 47
3 28 39 40
3 1 36 41
3 15 45 46
3 1 2 41
3 14 15 46
3 28 29 40
3 28 29 47
3 2 40 41
3 14 46 47
3 2 29 40
3 14 29 47
3 2 3 29
3 13 14 29
3 29 30 31
3 29 30 35
3 3 29 31
3 13 29 35
3 30 32 33
3 30 33 34
3 30 31 32
3 30 34 35
3 3 4 31
3 12 13 35
3 4 5 48
3 11 12 54
3 5 6 48
3 10 11 54
3 6 48 59
3 10 54 55
3 6 7 59
3 9 10 55
3 7 58 59
3 9 55 56
3 8 57 58
3 8 56 57
3 7 8 58
3 8 9 56
3 4 31 48
3 12 35 54
3 31 48 49
3 35 53 54
3 31 49 50
3 35 52 53
3 31 32 50
3 34 35 52
3 32 33 50
3 33 34 52
3 33 50 51
3 33 51 52
3 48 49 60
3 49 60 50
3 50 60 61
3 50 51 61
3 51 52 61
3 61 62 52
3 52 53 62
3 53 54 62
3 54 55 63
3 55 56 63
3 56 63 64
3 56 57 64
3 64 65 57
3 57 58 65
3 58 59 65
3 48 59 65
