ply
format ascii 1.0
element vertex 66
property float x
property float y
property float z
property float u
property float v
element face 91
property list uchar int vertex_indices
end_header
415.54 543.247 0 415.54 543.247
418.533 575.794 0 418.533 575.794
423.451 607.992 0 423.451 607.992
429.997 641.579 0 429.997 641.579
440.577 676.549 0 440.577 676.549
459.019 707.785 0 459.019 707.785
483.849 732.272 0 483.849 732.272
512.76 750.226 0 512.76 750.226
544.713 757.919 0 544.713 757.919
576.523 748.474 0 576.523 748.474
604.17 728.109 0 604.17 728.109
627.399 701.737 0 627.399 701.737
644.56 669.648 0 644.56 669.648
654.486 634.919 0 654.486 634.919
660.181 601.958 0 660.181 601.958
663.887 570.574 0 663.887 570.574
665.29 538.975 0 665.29 538.975
437.686 525.526 0 437.686 525.526
453.207 514.527 0 453.207 514.527
473.157 510.596 0 473.157 510.596
493.961 512.907 0 493.961 512.907
514.024 519.464 0 514.024 519.464
568.107 519.12 0 568.107 519.12
587.286 511.696 0 587.286 511.696
607.475 508.391 0 607.475 508.391
627.152 511.027 0 627.152 511.027
642.801 520.9 0 642.801 520.9
542.802 553.072 0 542.802 553.072
543.259 576.231 0 543.259 576.231
543.705 599.384 0 543.705 599.384
544.149 622.269 0 544.149 622.269
524.211 633.668 0 524.211 633.668
534.31 637.341 0 534.31 637.341
544.882 639.142 0 544.882 639.142
555.017 636.886 0 555.017 636.886
564.555 632.856 0 564.555 632.856
465.506 556.076 0 465.506 556.076
478.368 548.549 0 478.368 548.549
493.898 548.449 0 493.898 548.449
506.839 555.693 0 506.839 555.693
493.172 559.435 0 493.172 559.435
478.834 560.055 0 478.834 560.055
576.714 554.462 0 576.714 554.462
589.164 546.897 0 589.164 546.897
604.467 546.097 0 604.467 546.097
617.416 552.975 0 617.416 552.975
604.48 557.625 0 604.48 557.625
590.298 557.521 0 590.298 557.521
498.998 672.671 0 498.998 672.671
512.851 665.537 0 512.851 665.537
528.511 660.504 0 528.511 660.504
545.431 663.524 0 545.431 663.524
561.959 659.592 0 561.959 659.592
577.423 663.794 0 577.423 663.794
590.899 670.41 0 590.899 670.41
578.59 682.209 0 578.59 682.209
563.094 689.95 0 563.094 689.95
546.028 693.442 0 546.028 693.442
528.671 690.803 0 528.671 690.803
512.433 683.831 0 512.433 683.831
526.762 671.487 0 526.762 671.487
545.741 673.74 0 545.741 673.74
564.257 670.549 0 564.257 670.549
564.514 673.308 0 564.514 673.308
545.829 676.744 0 545.829 676.744
526.717 674.319 0 526.717 674.319
3 20 21 23
3 21 22 23
3 0 1 36
3 15 16 45
3 0 17 36
3 16 26 45
3 17 18 37
3 25 26 44
3 17 36 37
3 26 44 45
3 18 19 38
3 24 25 43
3 18 37 38
3 25 43 44
3 19 20 38
3 23 24 43
3 20 21 39
3 22 23 42
3 20 38 39
3 23 42 43
3 21 22 27
3 21 27 39
3 22 27 42
3 27 28 42
3 27 28 39
3 28 42 47
3 28 39 40
3 1 36 41
3 15 45 46
3 1 2 41
3 14 15 46
3 28 29 40
3 28 29 47
3 2 40 41
3 14 46 47
3 2 29 40
3 14 29 47
3 2 3 29
3 13 14 29
3 29 30 31
3 29 30 35
3 3 29 31
3 13 29 35
3 30 32 33
3 30 33 34
3 30 31 32
3 30 34 35
3 3 4 31
3 12 13 35
3 4 5 48
3 11 12 54
3 5 6 48
3 10 11 54
3 6 48 59
3 10 54 55
3 6 7 59
3 9 10 55
3 7 58 59
3 9 55 56
3 8 57 58
3 8 56 57
3 7 8 58
3 8 9 56
3 4 31 48
3 12 35 54
3 31 48 49
3 35 53 54
3 31 49 50
3 35 52 53
3 31 32 50
3 34 35 52
3 32 33 50
3 33 34 52
3 33 50 51
3 33 51 52
3 48 49 60
3 49 60 50
3 50 60 61
3 50 51 61
3 51 52 61
3 61 62 52
3 52 53 62
3 53 54 62
3 54 55 63
3 55 56 63
3 56 63 64
3 56 57 64
3 64 65 57
3 57 58 65
3 58 59 65
3 48 59 65
