ply
format ascii 1.0
element vertex 66
property float x
property float y
property float z
property float u
property float v
element face 91
property list uchar int vertex_indices
end_header
-20.6547 -5.64822 21.3079 366.469 499.004
-20.0519 -0.423649 20.8425 368.249 523.64
-19.1146 4.7667 20.4846 371.515 548.162
-17.7568 9.73356 18.3869 376.058 572.44
-15.6469 14.1974 13.4633 383.933 595.622
-12.4006 17.9009 7.99404 397.588 615.738
-8.27017 20.7526 3.29433 415.594 632.037
-3.55056 22.6779 -0.880153 436.68 644.072
1.65875 22.9008 -4.53572 460.561 648.32
6.75338 21.9412 -0.807894 483.995 644.769
11.0958 19.3665 3.41769 504.6 633.098
14.7165 15.9593 8.15704 522.013 617.005
17.3322 11.8354 13.6544 535.185 597.233
18.7221 7.12069 18.5937 543.185 574.839
19.3316 2.01325 20.7063 548.339 551.612
19.5157 -3.2566 21.0748 552.338 528.19
19.3623 -8.51341 21.5385 554.672 504.564
-16.9434 -14.0024 0.166523 384.562 468.699
-14.6923 -16.1532 -1.56921 397.461 460.069
-11.7473 -17.1684 -2.95979 413.171 457.755
-8.64008 -17.2567 -4.29633 428.969 460.148
-5.61118 -16.6863 -5.52226 443.917 465.666
3.24342 -17.3161 -5.43542 485.625 467.141
6.14406 -18.3113 -4.17859 499.705 462.427
9.21432 -18.6656 -2.80935 514.517 460.65
12.2557 -18.0793 -1.38764 529.172 462.944
14.7675 -16.2699 0.371491 541.085 471.153
-0.800008 -11.6067 -4.9545 464.972 491.941
-0.571382 -8.59445 -7.76035 464.888 508.266
-0.341526 -5.60559 -10.6633 464.801 524.493
-0.111056 -2.62069 -13.4075 464.675 540.627
-3.34691 0.90089 -6.47077 448.861 551.686
-1.6415 1.2941 -7.26957 456.158 554.303
0.142254 1.35258 -8.01839 463.88 555.525
1.89493 1.04463 -7.21848 471.224 554.711
3.5165 0.412997 -6.40175 478.176 552.455
-12.5316 -9.74495 -0.905324 403.901 491.985
-10.6698 -11.0691 -1.10649 414.412 485.49
-8.3451 -11.2534 -1.2279 426.998 486.037
-6.35058 -10.2247 -0.977391 436.596 493.776
-8.3556 -9.50683 -1.10156 425.609 496.357
-10.5048 -9.27615 -1.09011 414.145 496.234
4.83678 -11.0227 -0.887733 490.379 495.323
6.66716 -12.3254 -1.11779 500.234 488.174
8.99246 -12.4738 -0.968074 512.667 488.058
11.0209 -11.4279 -0.742362 522.626 495.084
9.08377 -10.6753 -0.948989 512.373 498.894
6.92444 -10.5977 -0.987214 501.066 498.442
-6.63855 8.84013 -2.74685 427.207 581.846
-4.73902 6.8457 -4.89305 438.29 575.865
-2.32888 5.4219 -6.54708 450.354 572.014
0.427259 5.35547 -8.22771 462.761 573.95
3.15408 5.03248 -6.48681 474.751 572.682
5.72158 6.09946 -4.80547 485.999 577.15
7.86034 7.80446 -2.63884 495.868 583.876
6.14905 9.90529 -3.93286 486.521 592.041
3.75933 11.3254 -5.28293 474.665 596.61
0.883179 11.8243 -6.67982 461.919 597.673
-2.0422 11.738 -5.34336 448.853 595.822
-4.62825 10.6744 -4.02161 436.828 590.512
-2.38864 7.57584 -5.20395 448.58 581.051
0.55887 7.21472 -7.41824 462.492 582.282
3.50364 7.15671 -5.14457 475.822 581.828
3.65722 8.62822 -4.49552 475.938 583.825
0.689237 9.10764 -6.42523 462.386 584.269
-2.33557 9.05505 -4.5521 448.354 583.05
3 20 21 23
3 21 22 23
3 0 1 36
3 15 16 45
3 0 17 36
3 16 26 45
3 17 18 37
3 25 26 44
3 17 36 37
3 26 44 45
3 18 19 38
3 24 25 43
3 18 37 38
3 25 43 44
3 19 20 38
3 23 24 43
3 20 21 39
3 22 23 42
3 20 38 39
3 23 42 43
3 21 22 27
3 21 27 39
3 22 27 42
3 27 28 42
3 27 28 39
3 28 42 47
3 28 39 40
3 1 36 41
3 15 45 46
3 1 2 41
3 14 15 46
3 28 29 40
3 28 29 47
3 2 40 41
3 14 46 47
3 2 29 40
3 14 29 47
3 2 3 29
3 13 14 29
3 29 30 31
3 29 30 35
3 3 29 31
3 13 29 35
3 30 32 33
3 30 33 34
3 30 31 32
3 30 34 35
3 3 4 31
3 12 13 35
3 4 5 48
3 11 12 54
3 5 6 48
3 10 11 54
3 6 48 59
3 10 54 55
3 6 7 59
3 9 10 55
3 7 58 59
3 9 55 56
3 8 57 58
3 8 56 57
3 7 8 58
3 8 9 56
3 4 31 48
3 12 35 54
3 31 48 49
3 35 53 54
3 31 49 50
3 35 52 53
3 31 32 50
3 34 35 52
3 32 33 50
3 33 34 52
3 33 50 51
3 33 51 52
3 48 49 60
3 49 60 50
3 50 60 61
3 50 51 61
3 51 52 61
3 61 62 52
3 52 53 62
3 53 54 62
3 54 55 63
3 55 56 63
3 56 63 64
3 56 57 64
3 64 65 57
3 57 58 65
3 58 59 65
3 48 59 65
