ply
format ascii 1.0
element vertex 66
property float x
property float y
property float z
property float u
property float v
element face 91
property list uchar int vertex_indices
end_header
-20.443 -5.88911 21.2821 327.128 417.009
-19.6774 -0.768267 20.678 329.8 447.662
-18.5592 4.31404 20.3289 334.595 478.219
-17.1013 9.20195 18.4339 341.369 507.703
-15.0153 13.6591 13.5073 351.818 534.778
-12.0002 17.593 8.01984 367.931 559.064
-8.178 20.9007 3.29457 389.11 579.941
-3.6306 23.2435 -0.875683 414.975 595.365
1.566 23.7343 -4.5358 445.392 600.042
6.62883 22.7791 -1.00525 476.024 596.272
10.865 20.1013 3.24284 502.415 582.001
14.2905 16.5313 7.99164 524.348 562.157
16.8274 12.3741 13.5438 541.272 538.532
18.2449 7.65292 18.6112 551.721 511.146
18.9552 2.48343 20.6151 557.923 480.768
19.343 -2.85044 21.1109 562.166 449.26
19.4023 -8.18392 21.6963 564.466 417.639
-17.2727 -14.1436 0.253013 347.457 368.607
-14.9946 -16.3455 -1.52619 361.643 356.306
-12.0084 -17.3733 -2.93659 379.638 351.236
-8.85807 -17.4106 -4.29051 398.256 352.106
-5.81508 -16.7232 -5.50021 415.988 357.242
2.86163 -17.4165 -5.27384 467.749 356.234
5.80376 -18.6625 -4.03251 485.742 349.922
8.97156 -19.184 -2.66978 504.823 347.994
12.1555 -18.7087 -1.25357 523.647 351.989
14.8551 -16.9453 0.528288 539.161 363.466
-0.913765 -11.384 -4.8964 443.21 390.701
-0.590027 -8.03383 -7.91164 443.726 410.624
-0.264104 -4.6945 -10.8404 444.266 430.486
0.0626387 -1.34628 -13.4379 444.83 450.409
-3.24471 1.50067 -6.60429 424.65 466.301
-1.5505 2.06401 -7.38142 434.451 470.23
0.262969 2.19379 -8.02682 445.123 471.632
2.06218 1.76884 -7.35077 456 469.77
3.66964 0.920164 -6.64437 465.893 465.325
-12.9294 -9.53373 -0.865484 371.51 397.492
-11.0328 -10.772 -1.10004 383.193 390.814
-8.72245 -11.0019 -1.31133 396.973 390.27
-6.685 -10.1526 -1.2301 408.767 396.041
-8.71976 -9.52643 -1.22894 396.467 399.031
-10.8616 -9.27363 -1.12685 383.671 399.768
4.88611 -11.0759 -0.945869 477.793 394.704
6.77108 -12.3098 -1.16257 489.407 388.048
9.11229 -12.4703 -0.925058 503.377 387.938
11.2405 -11.6017 -0.616548 515.719 393.862
9.23909 -10.9595 -0.876442 503.592 396.952
7.0513 -10.8291 -0.947869 490.556 396.942
-6.4041 7.98531 -2.59272 403.854 503.764
-4.49126 6.22627 -4.82135 415.683 493.95
-2.06022 5.16572 -6.5026 430.376 488.481
0.57577 5.10367 -8.33932 445.918 489.007
3.17389 4.75755 -6.48682 461.589 487.929
5.73515 5.42702 -4.79415 476.667 492.861
7.90275 6.83768 -2.51742 489.183 502.068
6.33519 9.32486 -3.92515 478.893 516.234
3.99568 11.1324 -5.20671 464.274 526.094
1.02087 11.7935 -6.64026 446.283 528.917
-1.97941 11.5817 -5.18472 428.651 526.626
-4.51783 10.1704 -3.87063 414.18 517.376
-2.19842 7.06601 -5.13188 428.97 499.746
0.688371 6.79516 -7.48638 446.039 499.109
3.54633 6.60672 -5.18836 463.227 499.071
3.8232 8.46868 -4.51251 464.25 510.239
0.828234 9.16865 -6.19952 446.109 513.28
-2.22991 8.94251 -4.40591 428.162 510.891
3 20 21 23
3 21 22 23
3 0 1 36
3 15 16 45
3 0 17 36
3 16 26 45
3 17 18 37
3 25 26 44
3 17 36 37
3 26 44 45
3 18 19 38
3 24 25 43
3 18 37 38
3 25 43 44
3 19 20 38
3 23 24 43
3 20 21 39
3 22 23 42
3 20 38 39
3 23 42 43
3 21 22 27
3 21 27 39
3 22 27 42
3 27 28 42
3 27 28 39
3 28 42 47
3 28 39 40
3 1 36 41
3 15 45 46
3 1 2 41
3 14 15 46
3 28 29 40
3 28 29 47
3 2 40 41
3 14 46 47
3 2 29 40
3 14 29 47
3 2 3 29
3 13 14 29
3 29 30 31
3 29 30 35
3 3 29 31
3 13 29 35
3 30 32 33
3 30 33 34
3 30 31 32
3 30 34 35
3 3 4 31
3 12 13 35
3 4 5 48
3 11 12 54
3 5 6 48
3 10 11 54
3 6 48 59
3 10 54 55
3 6 7 59
3 9 10 55
3 7 58 59
3 9 55 56
3 8 57 58
3 8 56 57
3 7 8 58
3 8 9 56
3 4 31 48
3 12 35 54
3 31 48 49
3 35 53 54
3 31 49 50
3 35 52 53
3 31 32 50
3 34 35 52
3 32 33 50
3 33 34 52
3 33 50 51
3 33 51 52
3 48 49 60
3 49 60 50
3 50 60 61
3 50 51 61
3 51 52 61
3 61 62 52
3 52 53 62
3 53 54 62
3 54 55 63
3 55 56 63
3 56 63 64
3 56 57 64
3 64 65 57
3 57 58 65
3 58 59 65
3 48 59 65
