ply
format ascii 1.0
element vertex 66
property float x
property float y
property float z
property float u
property float v
element face 91
property list uchar int vertex_indices
end_header
271.304 207.429 0 271.304 207.429
271.83 234.749 0 271.83 234.749
274.179 261.927 0 274.179 261.927
277.764 289.251 0 277.764 289.251
284.22 316.964 0 284.22 316.964
295.941 343.025 0 295.941 343.025
312.548 366.107 0 312.548 366.107
333.665 384.258 0 333.665 384.258
359.718 392.093 0 359.718 392.093
385.931 387.094 0 385.931 387.094
408.029 370.95 0 408.029 370.95
425.915 349.395 0 425.915 349.395
439.375 324.685 0 439.375 324.685
448.269 298.246 0 448.269 298.246
454.793 272.12 0 454.793 272.12
460.199 246.082 0 460.199 246.082
463.633 219.694 0 463.633 219.694
292.635 183.812 0 292.635 183.812
305.096 176.369 0 305.096 176.369
319.984 173.961 0 319.984 173.961
335.197 175.787 0 335.197 175.787
349.717 180.733 0 349.717 180.733
394.975 184.01 0 394.975 184.01
409.464 180.839 0 409.464 180.839
424.274 180.785 0 424.274 180.785
438.277 184.72 0 438.277 184.72
449.209 193.317 0 449.209 193.317
371.408 209.087 0 371.408 209.087
370.544 228.694 0 370.544 228.694
369.678 248.184 0 369.678 248.184
368.803 267.474 0 368.803 267.474
351.484 280.201 0 351.484 280.201
359.182 283.392 0 359.182 283.392
367.433 285.073 0 367.433 285.073
375.545 284.301 0 375.545 284.301
383.21 281.984 0 383.21 281.984
310.451 207.223 0 310.451 207.223
321.159 201.095 0 321.159 201.095
333.776 202.112 0 333.776 202.112
343.105 209.908 0 343.105 209.908
332.018 212.245 0 332.018 212.245
320.477 211.813 0 320.477 211.813
397.212 213.369 0 397.212 213.369
407.34 206.865 0 407.34 206.865
419.825 207.217 0 419.825 207.217
429.534 214.492 0 429.534 214.492
419.172 217.902 0 419.172 217.902
407.802 216.939 0 407.802 216.939
332.403 316.435 0 332.403 316.435
342 309.299 0 342 309.299
353.578 304.246 0 353.578 304.246
366.108 307.003 0 366.108 307.003
378.456 305.607 0 378.456 305.607
388.859 311.864 0 388.859 311.864
396.795 320.097 0 396.795 320.097
388.653 330.813 0 388.653 330.813
377.406 337.943 0 377.406 337.943
364.042 339.958 0 364.042 339.958
350.648 336.437 0 350.648 336.437
339.882 328.037 0 339.882 328.037
352.581 315.244 0 352.581 315.244
365.503 316.772 0 365.503 316.772
377.916 316.654 0 377.916 316.654
377.661 321.247 0 377.661 321.247
365.087 323.012 0 365.087 323.012
352.351 319.839 0 352.351 319.839
3 20 21 23
3 21 22 23
3 0 1 36
3 15 16 45
3 0 17 36
3 16 26 45
3 17 18 37
3 25 26 44
3 17 36 37
3 26 44 45
3 18 19 38
3 24 25 43
3 18 37 38
3 25 43 44
3 19 20 38
3 23 24 43
3 20 21 39
3 22 23 42
3 20 38 39
3 23 42 43
3 21 22 27
3 21 27 39
3 22 27 42
3 27 28 42
3 27 28 39
3 28 42 47
3 28 39 40
3 1 36 41
3 15 45 46
3 1 2 41
3 14 15 46
3 28 29 40
3 28 29 47
3 2 40 41
3 14 46 47
3 2 29 40
3 14 29 47
3 2 3 29
3 13 14 29
3 29 30 31
3 29 30 35
3 3 29 31
3 13 29 35
3 30 32 33
3 30 33 34
3 30 31 32
3 30 34 35
3 3 4 31
3 12 13 35
3 4 5 48
3 11 12 54
3 5 6 48
3 10 11 54
3 6 48 59
3 10 54 55
3 6 7 59
3 9 10 55
3 7 58 59
3 9 55 56
3 8 57 58
3 8 56 57
3 7 8 58
3 8 9 56
3 4 31 48
3 12 35 54
3 31 48 49
3 35 53 54
3 31 49 50
3 35 52 53
3 31 32 50
3 34 35 52
3 32 33 50
3 33 34 52
3 33 50 51
3 33 51 52
3 48 49 60
3 49 60 50
3 50 60 61
3 50 51 61
3 51 52 61
3 61 62 52
3 52 53 62
3 53 54 62
3 54 55 63
3 55 56 63
3 56 63 64
3 56 57 64
3 64 65 57
3 57 58 65
3 58 59 65
3 48 59 65
