ply
format ascii 1.0
element vertex 66
property float x
property float y
property float z
property float u
property float v
element face 91
property list uchar int vertex_indices
end_header
-21.4386 -6.5066 21.425 385.507 324.415
-20.8327 -0.701095 21.0684 386.859 350.41
-19.9445 5.08245 20.567 389.471 376.401
-18.6319 10.5696 18.7387 394.039 401.45
-16.5325 15.3255 13.4777 402.275 424.143
-13.186 19.2893 8.20593 416.238 443.609
-8.9044 22.4614 3.46567 434.541 459.665
-3.87353 24.5281 -0.94219 456.43 470.916
1.78969 24.6876 -4.54564 481.57 473.677
7.35024 23.5984 -0.78314 506.54 469.346
11.9267 20.6644 3.65414 527.561 456.454
15.5924 16.7933 8.42418 544.749 439.123
18.2741 12.3497 13.6921 557.695 418.919
19.6951 7.41079 18.9095 565.151 396.235
20.2288 1.92501 20.6974 568.791 371.628
20.2529 -3.77915 21.1627 570.216 346.206
19.9608 -9.46694 21.5086 570.232 320.81
-17.1682 -10.8903 -0.280028 405.514 310.427
-14.6377 -13.0133 -1.97008 417.255 301.934
-11.4884 -13.9178 -3.3117 431.465 298.922
-8.23619 -14.0104 -4.74702 445.945 299.558
-5.02625 -13.6142 -5.96456 460.123 302.311
3.28766 -14.2218 -5.90105 497.223 301.519
6.248 -15.0292 -4.63717 510.57 298.355
9.32493 -15.3986 -3.15062 524.333 297.118
12.4319 -15.0381 -1.75013 538.061 299.146
15.1524 -13.4332 -0.0314418 549.783 306.545
-0.804964 -13.2856 -5.02707 478.813 304.551
-0.577626 -9.92931 -7.90537 479.049 320.103
-0.351042 -6.59262 -10.7803 479.286 335.568
-0.125934 -3.23945 -13.3782 479.513 351.048
-3.65483 0.120091 -6.5367 463.046 363.736
-1.81193 0.78903 -7.27141 471.084 367.284
0.189317 0.966318 -7.87415 479.94 368.658
2.10305 0.527064 -7.17371 488.549 367.004
3.78577 -0.38189 -6.39713 496.239 363.195
-12.6717 -10.2867 -1.12173 425.364 314.32
-10.5511 -11.4895 -1.25725 435.07 309.496
-8.11126 -11.8059 -1.27445 445.989 308.658
-5.85738 -11.0139 -0.983682 455.825 312.635
-8.11716 -10.5663 -1.00636 445.676 314.106
-10.4193 -10.2568 -1.1292 435.371 314.974
4.26107 -11.7338 -0.906282 500.973 311.758
6.35933 -12.8149 -1.13782 510.551 307.49
8.80031 -12.8764 -1.09757 521.417 307.772
11.0444 -11.972 -0.958137 531.184 312.277
8.83871 -11.6128 -0.986423 521.295 313.369
6.53365 -11.6026 -0.895701 511.046 312.863
-7.72908 6.93949 -2.52794 443.356 392.248
-5.71731 4.69731 -4.50852 452.818 383.166
-2.8405 3.50755 -6.33142 465.883 378.924
0.28913 3.37076 -8.02132 479.828 379.389
3.38183 3.07001 -6.22064 493.645 378.394
6.34486 3.8409 -4.35939 506.639 382.117
8.57314 5.81494 -2.35772 516.087 390.983
6.97501 8.72149 -3.68081 508.312 403.795
4.37773 10.8136 -5.30505 496.283 412.822
0.871314 11.4665 -6.81781 480.545 415.225
-2.72451 11.303 -5.41733 464.596 413.378
-5.65296 9.59601 -3.82555 451.972 404.793
-3.15422 5.38402 -5.22284 464.054 386.955
0.415897 4.98569 -7.24242 480.018 386.428
3.96676 4.89681 -5.036 495.823 386.397
4.37158 7.86359 -4.22879 496.937 399.497
0.695067 8.73366 -6.36749 480.392 402.955
-3.11491 8.38778 -4.41241 463.534 400.135
3 20 21 23
3 21 22 23
3 0 1 36
3 15 16 45
3 0 17 36
3 16 26 45
3 17 18 37
3 25 26 44
3 17 36 37
3 26 44 45
3 18 19 38
3 24 25 43
3 18 37 38
3 25 43 44
3 19 20 38
3 23 24 43
3 20 21 39
3 22 23 42
3 20 38 39
3 23 42 43
3 21 22 27
3 21 27 39
3 22 27 42
3 27 28 42
3 27 28 39
3 28 42 47
3 28 39 40
3 1 36 41
3 15 45 46
3 1 2 41
3 14 15 46
3 28 29 40
3 28 29 47
3 2 40 41
3 14 46 47
3 2 29 40
3 14 29 47
3 2 3 29
3 13 14 29
3 29 30 31
3 29 30 35
3 3 29 31
3 13 29 35
3 30 32 33
3 30 33 34
3 30 31 32
3 30 34 35
3 3 4 31
3 12 13 35
3 4 5 48
3 11 12 54
3 5 6 48
3 10 11 54
3 6 48 59
3 10 54 55
3 6 7 59
3 9 10 55
3 7 58 59
3 9 55 56
3 8 57 58
3 8 56 57
3 7 8 58
3 8 9 56
3 4 31 48
3 12 35 54
3 31 48 49
3 35 53 54
3 31 49 50
3 35 52 53
3 31 32 50
3 34 35 52
3 32 33 50
3 33 34 52
3 33 50 51
3 33 51 52
3 48 49 60
3 49 60 50
3 50 60 61
3 50 51 61
3 51 52 61
3 61 62 52
3 52 53 62
3 53 54 62
3 54 55 63
3 55 56 63
3 56 63 64
3 56 57 64
3 64 65 57
3 57 58 65
3 58 59 65
3 48 59 65
