ply
format ascii 1.0
element vertex 66
property float x
property float y
property float z
property float u
property float v
element face 91
property list uchar int vertex_indices
end_header
-19.3048 -5.85668 21.1313 253.536 224.335
-18.611 -0.56171 20.6559 254.483 250.83
-17.5449 4.68783 20.2487 257.283 277.244
-16.2026 9.68595 18.3561 261.549 303.22
-14.3656 14.1826 13.4849 268.461 328.307
-11.5678 18.1326 8.10422 280.355 351.388
-7.87049 21.4352 3.2485 296.982 371.478
-3.41062 23.7618 -0.885758 317.822 386.812
1.76343 24.0711 -4.48646 343.123 392.35
6.80369 23.0102 -0.79901 368.457 387.833
10.7991 20.026 3.3836 389.547 373.18
13.8737 16.1939 8.25769 406.504 353.632
15.9966 11.8972 13.6387 418.997 331.136
17.1606 7.25887 18.4875 426.924 306.759
17.7824 2.23234 20.3914 432.34 281.55
18.0917 -2.99824 20.7757 436.302 255.879
18.0159 -8.21813 21.2351 438.363 230.046
-16.1967 -14.7182 0.135547 272.807 191.767
-14.023 -16.8174 -1.60766 284.472 183.268
-11.238 -17.9056 -2.95186 298.679 179.831
-8.27604 -18.1261 -4.27831 313.353 180.722
-5.37831 -17.6692 -5.54655 327.396 184.877
2.77585 -18.1294 -5.47417 367.753 186.376
5.54762 -18.9575 -4.17145 381.794 183.018
8.47784 -19.1349 -2.81945 396.312 182.902
11.3531 -18.4471 -1.45318 410.156 186.996
13.7576 -16.6762 0.325575 421.182 195.996
-0.840076 -12.4599 -4.87808 347.316 212.223
-0.612574 -9.30846 -7.72187 346.947 229.056
-0.387574 -6.18103 -10.5882 346.577 245.781
-0.159732 -3.05007 -13.2491 346.22 262.431
-2.87007 0.936573 -6.50126 331.072 277.686
-1.3839 1.1997 -7.2011 338.26 279.98
0.162434 1.20128 -7.85654 345.867 281.001
1.68068 0.989678 -7.13497 353.445 280.344
3.09009 0.520387 -6.4264 360.607 278.38
-12.2264 -10.509 -0.843703 290.384 214.687
-10.3595 -11.8856 -1.04767 300.214 208.896
-7.99709 -12.0415 -1.20817 311.916 209.302
-6.04557 -10.8976 -1.02724 320.991 215.735
-8.07029 -10.2007 -1.14788 310.698 218.265
-10.2352 -9.96955 -1.04365 299.934 218.346
4.38319 -11.57 -0.975383 372.645 217.259
6.14957 -12.9419 -1.12084 381.978 211.419
8.49243 -13.113 -0.917534 393.593 211.577
10.512 -12.002 -0.6658 403.02 217.849
8.62478 -11.2038 -0.906374 393.356 220.994
6.46327 -11.149 -1.04716 382.688 220.321
-5.49554 9.72593 -2.68782 314.082 317.843
-4.26765 7.08281 -4.98493 321.34 306.487
-2.22687 5.07719 -6.59326 332.309 298.325
0.435986 4.83373 -8.31928 345.518 299.144
3.09756 4.70641 -6.48054 358.694 298.93
5.38192 6.3968 -4.86158 369.165 307.551
6.9395 8.85201 -2.58789 375.706 319.289
5.73844 11.1503 -3.93951 368.713 330.606
3.78276 12.8848 -5.21001 358.268 338.772
1.08541 13.4791 -6.683 344.701 341.094
-1.69383 13.2687 -5.30117 331.128 338.151
-3.91545 11.8283 -4.05165 320.871 329.496
-2.00587 7.77713 -4.94321 332.152 310.923
0.616942 7.12408 -7.28666 345.35 309.992
3.28383 7.40729 -4.84656 358.365 311.523
3.43596 9.5882 -4.37465 358.102 322.074
0.8465 10.1385 -6.26111 345.084 324.417
-1.81431 9.95482 -4.4648 332.084 321.473
3 20 21 23
3 21 22 23
3 0 1 36
3 15 16 45
3 0 17 36
3 16 26 45
3 17 18 37
3 25 26 44
3 17 36 37
3 26 44 45
3 18 19 38
3 24 25 43
3 18 37 38
3 25 43 44
3 19 20 38
3 23 24 43
3 20 21 39
3 22 23 42
3 20 38 39
3 23 42 43
3 21 22 27
3 21 27 39
3 22 27 42
3 27 28 42
3 27 28 39
3 28 42 47
3 28 39 40
3 1 36 41
3 15 45 46
3 1 2 41
3 14 15 46
3 28 29 40
3 28 29 47
3 2 40 41
3 14 46 47
3 2 29 40
3 14 29 47
3 2 3 29
3 13 14 29
3 29 30 31
3 29 30 35
3 3 29 31
3 13 29 35
3 30 32 33
3 30 33 34
3 30 31 32
3 30 34 35
3 3 4 31
3 12 13 35
3 4 5 48
3 11 12 54
3 5 6 48
3 10 11 54
3 6 48 59
3 10 54 55
3 6 7 59
3 9 10 55
3 7 58 59
3 9 55 56
3 8 57 58
3 8 56 57
3 7 8 58
3 8 9 56
3 4 31 48
3 12 35 54
3 31 48 49
3 35 53 54
3 31 49 50
3 35 52 53
3 31 32 50
3 34 35 52
3 32 33 50
3 33 34 52
3 33 50 51
3 33 51 52
3 48 49 60
3 49 60 50
3 50 60 61
3 50 51 61
3 51 52 61
3 61 62 52
3 52 53 62
3 53 54 62
3 54 55 63
3 55 56 63
3 56 63 64
3 56 57 64
3 64 65 57
3 57 58 65
3 58 59 65
3 48 59 65
