ply
format ascii 1.0
element vertex 66
property float x
property float y
property float z
property float u
property float v
element face 91
property list uchar int vertex_indices
end_header
-20.6547 -5.64822 21.3079 335.67 570.449
-20.0519 -0.423649 20.8425 336.734 605.16
-19.1146 4.7667 20.4846 340.296 639.176
-17.7568 9.73356 18.3869 346.011 675.297
-15.6469 14.1974 13.4633 356.448 713.081
-12.4006 17.9009 7.99404 376.52 746.462
-8.27017 20.7526 3.29433 404.907 771.703
-3.55056 22.6779 -0.880153 437.576 790.323
1.65875 22.9008 -4.53572 473.11 798.13
6.75338 21.9412 -0.807894 509.195 789.76
11.0958 19.3665 3.41769 542.149 770.763
14.7165 15.9593 8.15704 570.757 745.127
17.3322 11.8354 13.6544 590.766 711.258
18.7221 7.12069 18.5937 600.823 672.986
19.3316 2.01325 20.7063 606.015 636.299
19.5157 -3.2566 21.0748 608.924 601.695
19.3623 -8.51341 21.5385 609.358 566.48
-16.9434 -14.0024 0.166523 358.752 563.871
-14.6923 -16.1532 -1.56921 376.707 552.903
-11.7473 -17.1684 -2.95979 399.168 550.053
-8.64008 -17.2567 -4.29633 422.085 553.724
-5.61118 -16.6863 -5.52226 443.902 561.889
3.24342 -17.3161 -5.43542 497.135 561.419
6.14406 -18.3113 -4.17859 519.2 552.688
9.21432 -18.6656 -2.80935 542.486 548.506
12.2557 -18.0793 -1.38764 565.499 550.976
14.7675 -16.2699 0.371491 584.235 561.795
-0.800008 -11.6067 -4.9545 471.001 597.34
-0.571382 -8.59445 -7.76035 471.084 623.085
-0.341526 -5.60559 -10.6633 471.183 649.124
-0.111056 -2.62069 -13.4075 471.3 674.935
-3.34691 0.90089 -6.47077 451.155 686.504
-1.6415 1.2941 -7.26957 461.222 690.012
0.142254 1.35258 -8.01839 471.712 691.641
1.89493 1.04463 -7.21848 482.439 689.701
3.5165 0.412997 -6.40175 492.66 686.037
-12.5316 -9.74495 -0.905324 386.787 595.072
-10.6698 -11.0691 -1.10649 401.873 585.679
-8.3451 -11.2534 -1.2279 420.378 586.585
-6.35058 -10.2247 -0.977391 434.536 597.638
-8.3556 -9.50683 -1.10156 418.562 602.224
-10.5048 -9.27615 -1.09011 401.651 602.256
4.83678 -11.0227 -0.887733 509.12 596.812
6.66716 -12.3254 -1.11779 523.048 585.46
8.99246 -12.4738 -0.968074 541.577 584.348
11.0209 -11.4279 -0.742362 556.936 593.506
9.08377 -10.6753 -0.948989 542.154 600.885
6.92444 -10.5977 -0.987214 525.203 601.175
-6.63855 8.84013 -2.74685 433.399 734.854
-4.73902 6.8457 -4.89305 444.969 726.709
-2.32888 5.4219 -6.54708 457.632 719.421
0.427259 5.35547 -8.22771 472.03 723.509
3.15408 5.03248 -6.48681 486.707 719.133
5.72158 6.09946 -4.80547 499.761 726.315
7.86034 7.80446 -2.63884 511.872 734.248
6.14905 9.90529 -3.93286 499.658 741.038
3.75933 11.3254 -5.28293 485.722 744.696
0.883179 11.8243 -6.67982 472.247 746.256
-2.0422 11.738 -5.34336 459.07 745.02
-4.62825 10.6744 -4.02161 445.335 741.516
-2.38864 7.57584 -5.20395 459.676 734.21
0.55887 7.21472 -7.41824 472.21 736.328
3.50364 7.15671 -5.14457 485.016 733.954
3.65722 8.62822 -4.49552 483.538 723.862
0.689237 9.10764 -6.42523 472.032 723.769
-2.33557 9.05505 -4.5521 460.806 724.093
3 20 21 23
3 21 22 23
3 0 1 36
3 15 16 45
3 0 17 36
3 16 26 45
3 17 18 37
3 25 26 44
3 17 36 37
3 26 44 45
3 18 19 38
3 24 25 43
3 18 37 38
3 25 43 44
3 19 20 38
3 23 24 43
3 20 21 39
3 22 23 42
3 20 38 39
3 23 42 43
3 21 22 27
3 21 27 39
3 22 27 42
3 27 28 42
3 27 28 39
3 28 42 47
3 28 39 40
3 1 36 41
3 15 45 46
3 1 2 41
3 14 15 46
3 28 29 40
3 28 29 47
3 2 40 41
3 14 46 47
3 2 29 40
3 14 29 47
3 2 3 29
3 13 14 29
3 29 30 31
3 29 30 35
3 3 29 31
3 13 29 35
3 30 32 33
3 30 33 34
3 30 31 32
3 30 34 35
3 3 4 31
3 12 13 35
3 4 5 48
3 11 12 54
3 5 6 48
3 10 11 54
3 6 48 59
3 10 54 55
3 6 7 59
3 9 10 55
3 7 58 59
3 9 55 56
3 8 57 58
3 8 56 57
3 7 8 58
3 8 9 56
3 4 31 48
3 12 35 54
3 31 48 49
3 35 53 54
3 31 49 50
3 35 52 53
3 31 32 50
3 34 35 52
3 32 33 50
3 33 34 52
3 33 50 51
3 33 51 52
3 48 49 60
3 49 60 50
3 50 60 61
3 50 51 61
3 51 52 61
3 61 62 52
3 52 53 62
3 53 54 62
3 54 55 63
3 55 56 63
3 56 63 64
3 56 57 64
3 64 65 57
3 57 58 65
3 58 59 65
3 48 59 65
