ply
format ascii 1.0
element vertex 66
property float x
property float y
property float z
property float u
property float v
element face 91
property list uchar int vertex_indices
end_header
-20.752 -5.79451 21.7141 300.014 383.292
-20.0552 -0.424994 21.0219 304.116 435.651
-18.9651 4.92589 20.6679 312.074 487.151
-17.7282 10.0269 18.6052 321.428 540.82
-15.9862 14.5395 13.3811 335.696 597.438
-12.8605 18.1663 7.8059 363.792 647.361
-8.6099 20.7776 3.30623 403.392 685.546
-3.64456 22.1444 -0.788159 450.569 711.389
1.64856 21.9666 -4.60392 501.698 722.224
6.85892 21.2693 -0.640111 552.955 707.969
11.4347 19.0483 3.50462 598.805 678.681
15.0821 15.7289 8.02518 636.21 637.689
17.5195 11.6667 13.575 662.319 586.486
18.6134 7.08271 18.7073 675.604 530.828
19.152 2.08766 20.7633 683.431 479.037
19.4896 -3.12131 21.041 689.255 429.763
19.4083 -8.28769 21.7102 691.027 379.666
-17.8396 -15.2066 0.514081 330.995 351.713
-15.5495 -17.8763 -1.52398 354.339 333.155
-12.4821 -19.4116 -2.8245 384.743 323.675
-9.11701 -19.7306 -3.90368 417.465 325.141
-5.84237 -19.1089 -5.00736 448.852 335.425
3.27139 -19.5537 -4.97258 537.531 335.641
6.36037 -20.5167 -3.8314 568.079 325.187
9.66164 -20.5907 -2.71672 600.255 323.219
12.8175 -19.4519 -1.38524 630.451 331.961
15.3317 -17.1051 0.696463 653.899 349.74
-0.689082 -11.3632 -4.76118 495.141 409.757
-0.458044 -7.63585 -7.91413 495.303 452.915
-0.232883 -3.92522 -11.0147 495.421 495.778
-0.00374554 -0.197411 -13.7424 495.601 537.835
-3.26426 3.40528 -7.21846 462.777 553
-1.50705 3.85785 -7.61467 479.579 559.123
0.337291 3.9233 -7.97979 497.417 561.587
2.13634 3.63059 -7.52504 515.061 558.55
3.78088 2.95895 -7.09352 531.386 551.954
-12.6001 -8.84855 -0.628423 378.671 416.712
-10.4659 -10.203 -1.28497 399.985 406.794
-7.91596 -10.2188 -1.63061 424.713 408.794
-5.73351 -8.8737 -1.19056 445.283 421.301
-8.03606 -8.33606 -1.28535 422.665 425.447
-10.3843 -8.21319 -1.1351 399.826 425.056
4.47598 -9.44359 -1.22822 544.652 421.072
6.44879 -10.9863 -1.56348 564.518 408.48
8.93764 -11.2909 -1.15905 588.859 405.802
11.1702 -10.1937 -0.446995 610.059 415.31
9.07819 -9.31452 -1.02019 589.277 423.995
6.77046 -9.17258 -1.2409 566.79 424.764
-6.86929 8.49708 -2.57373 425.724 586.802
-4.85691 6.33912 -5.20523 446.073 574.435
-2.36112 4.94244 -6.81788 470.833 566.78
0.388812 4.80359 -8.44443 497.451 571.051
3.12617 4.58624 -6.66148 524.281 565.732
5.76358 5.62623 -5.03815 549.517 572.538
7.99827 7.52587 -2.45089 570.513 584.685
5.98355 9.16075 -3.51898 550.073 601.761
3.50633 10.1703 -4.84382 525.424 613.428
0.832843 10.3955 -6.45274 499.225 618.399
-1.89607 10.5269 -4.98573 472.802 614.484
-4.55438 9.85245 -3.70011 447.438 603.536
-2.3114 7.54733 -5.26728 470.189 587.143
0.588819 7.22163 -7.44631 498.307 591.174
3.49747 7.17076 -5.1066 526.768 586.051
3.57963 7.51138 -4.44683 527.458 587.565
0.625701 7.41725 -6.59111 498.645 590.802
-2.29958 7.89537 -4.61265 470.192 588.705
3 20 21 23
3 21 22 23
3 0 1 36
3 15 16 45
3 0 17 36
3 16 26 45
3 17 18 37
3 25 26 44
3 17 36 37
3 26 44 45
3 18 19 38
3 24 25 43
3 18 37 38
3 25 43 44
3 19 20 38
3 23 24 43
3 20 21 39
3 22 23 42
3 20 38 39
3 23 42 43
3 21 22 27
3 21 27 39
3 22 27 42
3 27 28 42
3 27 28 39
3 28 42 47
3 28 39 40
3 1 36 41
3 15 45 46
3 1 2 41
3 14 15 46
3 28 29 40
3 28 29 47
3 2 40 41
3 14 46 47
3 2 29 40
3 14 29 47
3 2 3 29
3 13 14 29
3 29 30 31
3 29 30 35
3 3 29 31
3 13 29 35
3 30 32 33
3 30 33 34
3 30 31 32
3 30 34 35
3 3 4 31
3 12 13 35
3 4 5 48
3 11 12 54
3 5 6 48
3 10 11 54
3 6 48 59
3 10 54 55
3 6 7 59
3 9 10 55
3 7 58 59
3 9 55 56
3 8 57 58
3 8 56 57
3 7 8 58
3 8 9 56
3 4 31 48
3 12 35 54
3 31 48 49
3 35 53 54
3 31 49 50
3 35 52 53
3 31 32 50
3 34 35 52
3 32 33 50
3 33 34 52
3 33 50 51
3 33 51 52
3 48 49 60
3 49 60 50
3 50 60 61
3 50 51 61
3 51 52 61
3 61 62 52
3 52 53 62
3 53 54 62
3 54 55 63
3 55 56 63
3 56 63 64
3 56 57 64
3 64 65 57
3 57 58 65
3 58 59 65
3 48 59 65
