ply
format ascii 1.0
element vertex 66
property float x
property float y
property float z
property float u
property float v
element face 91
property list uchar int vertex_indices
end_header
389.025 536.017 0 389.025 536.017
388.489 571.062 0 388.489 571.062
390.616 606.13 0 390.616 606.13
395.69 641.558 0 395.69 641.558
405.969 676.635 0 405.969 676.635
423.298 708.348 0 423.298 708.348
446.226 735.57 0 446.226 735.57
474.027 757.13 0 474.027 757.13
507.125 768.314 0 507.125 768.314
541.692 764.816 0 541.692 764.816
572.848 748.936 0 572.848 748.936
600.375 726.537 0 600.375 726.537
623.595 698.881 0 623.595 698.881
641.083 667.011 0 641.083 667.011
654.051 633.928 0 654.051 633.928
664.044 600.558 0 664.044 600.558
670.873 566.472 0 670.873 566.472
421.281 500.547 0 421.281 500.547
440.725 488.952 0 440.725 488.952
463.973 486.757 0 463.973 486.757
487.077 492.304 0 487.077 492.304
508.816 502.07 0 508.816 502.07
572.553 509.607 0 572.553 509.607
594.287 504.413 0 594.287 504.413
616.591 503.43 0 616.591 503.43
637.787 509.117 0 637.787 509.117
653.939 522.883 0 653.939 522.883
538.12 538.607 0 538.12 538.607
536.019 560.575 0 536.019 560.575
533.901 582.447 0 533.901 582.447
531.696 604.131 0 531.696 604.131
503.816 615.842 0 503.816 615.842
515.461 622.394 0 515.461 622.394
528.286 626.334 0 528.286 626.334
541.077 625.464 0 541.077 625.464
553.31 621.754 0 553.31 621.754
445.397 533.109 0 445.397 533.109
461.326 528.774 0 461.326 528.774
478.328 529.936 0 478.328 529.936
492.781 536.589 0 492.781 536.589
476.748 537.475 0 476.748 537.475
460.581 536.633 0 460.581 536.633
579.579 546.296 0 579.579 546.296
594.915 543.061 0 594.915 543.061
611.597 545.447 0 611.597 545.447
625.936 553.229 0 625.936 553.229
610.623 553.511 0 610.623 553.511
594.843 550.715 0 594.843 550.715
472.037 661.708 0 472.037 661.708
484.194 643.425 0 484.194 643.425
503.857 633.371 0 503.857 633.371
526.123 636.763 0 526.123 636.763
547.703 638.591 0 547.703 638.591
563.45 652.905 0 563.45 652.905
569.437 673.63 0 569.437 673.63
556.598 690.146 0 556.598 690.146
539.077 701.708 0 539.077 701.708
517.362 703.795 0 517.362 703.795
496.266 696.417 0 496.266 696.417
481.304 680.922 0 481.304 680.922
500.639 649.599 0 500.639 649.599
524.172 651.257 0 524.172 651.257
546.218 655.147 0 546.218 655.147
543.081 679.345 0 543.081 679.345
520.134 683.065 0 520.134 683.065
497.71 673.933 0 497.71 673.933
3 20 21 23
3 21 22 23
3 0 1 36
3 15 16 45
3 0 17 36
3 16 26 45
3 17 18 37
3 25 26 44
3 17 36 37
3 26 44 45
3 18 19 38
3 24 25 43
3 18 37 38
3 25 43 44
3 19 20 38
3 23 24 43
3 20 21 39
3 22 23 42
3 20 38 39
3 23 42 43
3 21 22 27
3 21 27 39
3 22 27 42
3 27 28 42
3 27 28 39
3 28 42 47
3 28 39 40
3 1 36 41
3 15 45 46
3 1 2 41
3 14 15 46
3 28 29 40
3 28 29 47
3 2 40 41
3 14 46 47
3 2 29 40
3 14 29 47
3 2 3 29
3 13 14 29
3 29 30 31
3 29 30 35
3 3 29 31
3 13 29 35
3 30 32 33
3 30 33 34
3 30 31 32
3 30 34 35
3 3 4 31
3 12 13 35
3 4 5 48
3 11 12 54
3 5 6 48
3 10 11 54
3 6 48 59
3 10 54 55
3 6 7 59
3 9 10 55
3 7 58 59
3 9 55 56
3 8 57 58
3 8 56 57
3 7 8 58
3 8 9 56
3 4 31 48
3 12 35 54
3 31 48 49
3 35 53 54
3 31 49 50
3 35 52 53
3 31 32 50
3 34 35 52
3 32 33 50
3 33 34 52
3 33 50 51
3 33 51 52
3 48 49 60
3 49 60 50
3 50 60 61
3 50 51 61
3 51 52 61
3 61 62 52
3 52 53 62
3 53 54 62
3 54 55 63
3 55 56 63
3 56 63 64
3 56 57 64
3 64 65 57
3 57 58 65
3 58 59 65
3 48 59 65
