ply
format ascii 1.0
element vertex 66
property float x
property float y
property float z
property float u
property float v
element face 91
property list uchar int vertex_indices
end_header
300.014 383.292 0 300.014 383.292
304.116 435.651 0 304.116 435.651
312.074 487.151 0 312.074 487.151
321.428 540.82 0 321.428 540.82
335.696 597.438 0 335.696 597.438
363.792 647.361 0 363.792 647.361
403.392 685.546 0 403.392 685.546
450.569 711.389 0 450.569 711.389
501.698 722.224 0 501.698 722.224
552.955 707.969 0 552.955 707.969
598.805 678.681 0 598.805 678.681
636.21 637.689 0 636.21 637.689
662.319 586.486 0 662.319 586.486
675.604 530.828 0 675.604 530.828
683.431 479.037 0 683.431 479.037
689.255 429.763 0 689.255 429.763
691.027 379.666 0 691.027 379.666
330.995 351.713 0 330.995 351.713
354.339 333.155 0 354.339 333.155
384.743 323.675 0 384.743 323.675
417.465 325.141 0 417.465 325.141
448.852 335.425 0 448.852 335.425
537.531 335.641 0 537.531 335.641
568.079 325.187 0 568.079 325.187
600.255 323.219 0 600.255 323.219
630.451 331.961 0 630.451 331.961
653.899 349.74 0 653.899 349.74
495.141 409.757 0 495.141 409.757
495.303 452.915 0 495.303 452.915
495.421 495.778 0 495.421 495.778
495.601 537.835 0 495.601 537.835
462.777 553 0 462.777 553
479.579 559.123 0 479.579 559.123
497.417 561.587 0 497.417 561.587
515.061 558.55 0 515.061 558.55
531.386 551.954 0 531.386 551.954
378.671 416.712 0 378.671 416.712
399.985 406.794 0 399.985 406.794
424.713 408.794 0 424.713 408.794
445.283 421.301 0 445.283 421.301
422.665 425.447 0 422.665 425.447
399.826 425.056 0 399.826 425.056
544.652 421.072 0 544.652 421.072
564.518 408.48 0 564.518 408.48
588.859 405.802 0 588.859 405.802
610.059 415.31 0 610.059 415.31
589.277 423.995 0 589.277 423.995
566.79 424.764 0 566.79 424.764
425.724 586.802 0 425.724 586.802
446.073 574.435 0 446.073 574.435
470.833 566.78 0 470.833 566.78
497.451 571.051 0 497.451 571.051
524.281 565.732 0 524.281 565.732
549.517 572.538 0 549.517 572.538
570.513 584.685 0 570.513 584.685
550.073 601.761 0 550.073 601.761
525.424 613.428 0 525.424 613.428
499.225 618.399 0 499.225 618.399
472.802 614.484 0 472.802 614.484
447.438 603.536 0 447.438 603.536
470.189 587.143 0 470.189 587.143
498.307 591.174 0 498.307 591.174
526.768 586.051 0 526.768 586.051
527.458 587.565 0 527.458 587.565
498.645 590.802 0 498.645 590.802
470.192 588.705 0 470.192 588.705
3 20 21 23
3 21 22 23
3 0 1 36
3 15 16 45
3 0 17 36
3 16 26 45
3 17 18 37
3 25 26 44
3 17 36 37
3 26 44 45
3 18 19 38
3 24 25 43
3 18 37 38
3 25 43 44
3 19 20 38
3 23 24 43
3 20 21 39
3 22 23 42
3 20 38 39
3 23 42 43
3 21 22 27
3 21 27 39
3 22 27 42
3 27 28 42
3 27 28 39
3 28 42 47
3 28 39 40
3 1 36 41
3 15 45 46
3 1 2 41
3 14 15 46
3 28 29 40
3 28 29 47
3 2 40 41
3 14 46 47
3 2 29 40
3 14 29 47
3 2 3 29
3 13 14 29
3 29 30 31
3 29 30 35
3 3 29 31
3 13 29 35
3 30 32 33
3 30 33 34
3 30 31 32
3 30 34 35
3 3 4 31
3 12 13 35
3 4 5 48
3 11 12 54
3 5 6 48
3 10 11 54
3 6 48 59
3 10 54 55
3 6 7 59
3 9 10 55
3 7 58 59
3 9 55 56
3 8 57 58
3 8 56 57
3 7 8 58
3 8 9 56
3 4 31 48
3 12 35 54
3 31 48 49
3 35 53 54
3 31 49 50
3 35 52 53
3 31 32 50
3 34 35 52
3 32 33 50
3 33 34 52
3 33 50 51
3 33 51 52
3 48 49 60
3 49 60 50
3 50 60 61
3 50 51 61
3 51 52 61
3 61 62 52
3 52 53 62
3 53 54 62
3 54 55 63
3 55 56 63
3 56 63 64
3 56 57 64
3 64 65 57
3 57 58 65
3 58 59 65
3 48 59 65
