ply
format ascii 1.0
element vertex 66
property float x
property float y
property float z
property float u
property float v
element face 91
property list uchar int vertex_indices
end_header
347.555 598.452 0 347.555 598.452
349.012 625.548 0 349.012 625.548
352.027 652.467 0 352.027 652.467
356.625 680.657 0 356.625 680.657
364.831 710.023 0 364.831 710.023
379.173 736.548 0 379.173 736.548
398.25 758.352 0 398.25 758.352
420.734 775.059 0 420.734 775.059
446.408 783.328 0 446.408 783.328
472.788 776.107 0 472.788 776.107
495.985 759.639 0 495.985 759.639
515.846 738.114 0 515.846 738.114
531.693 712.286 0 531.693 712.286
542.09 684.232 0 542.09 684.232
548.174 657.452 0 548.174 657.452
551.986 632.029 0 551.986 632.029
553.927 606.355 0 553.927 606.355
365.186 587.913 0 365.186 587.913
377.556 579.397 0 377.556 579.397
393.555 576.918 0 393.555 576.918
410.099 579.726 0 410.099 579.726
425.994 585.694 0 425.994 585.694
474.175 587.656 0 474.175 587.656
489.173 582.124 0 489.173 582.124
504.89 579.554 0 504.89 579.554
520.246 581.287 0 520.246 581.287
532.528 588.693 0 532.528 588.693
451.497 613.907 0 451.497 613.907
451.102 631.757 0 451.102 631.757
450.683 649.535 0 450.683 649.535
450.26 667.035 0 450.26 667.035
430.93 674.157 0 430.93 674.157
440.402 678.592 0 440.402 678.592
450.544 680.993 0 450.544 680.993
460.432 678.995 0 460.432 678.995
469.705 674.943 0 469.705 674.943
385.719 611.525 0 385.719 611.525
396.562 605.991 0 396.562 605.991
409.301 606.395 0 409.301 606.395
419.793 612.466 0 419.793 612.466
408.412 614.993 0 408.412 614.993
396.605 615.013 0 396.605 615.013
480.513 613.941 0 480.513 613.941
490.975 608.433 0 490.975 608.433
503.579 608.228 0 503.579 608.228
514.111 614.101 0 514.111 614.101
503.274 617.374 0 503.274 617.374
491.608 616.856 0 491.608 616.856
406.803 701.267 0 406.803 701.267
419.056 695.258 0 419.056 695.258
434.008 692.627 0 434.008 692.627
449.704 695.738 0 449.704 695.738
465.349 693.228 0 465.349 693.228
479.892 696.454 0 479.892 696.454
491.387 703.248 0 491.387 703.248
481.061 717.431 0 481.061 717.431
466.434 727.177 0 466.434 727.177
449.023 730.694 0 449.023 730.694
431.691 726.325 0 431.691 726.325
417.232 715.835 0 417.232 715.835
430.456 700.648 0 430.456 700.648
449.629 703.714 0 449.629 703.714
468.735 701.423 0 468.735 701.423
469.517 712.904 0 469.517 712.904
449.513 717.431 0 449.513 717.431
429.55 712.085 0 429.55 712.085
3 20 21 23
3 21 22 23
3 0 1 36
3 15 16 45
3 0 17 36
3 16 26 45
3 17 18 37
3 25 26 44
3 17 36 37
3 26 44 45
3 18 19 38
3 24 25 43
3 18 37 38
3 25 43 44
3 19 20 38
3 23 24 43
3 20 21 39
3 22 23 42
3 20 38 39
3 23 42 43
3 21 22 27
3 21 27 39
3 22 27 42
3 27 28 42
3 27 28 39
3 28 42 47
3 28 39 40
3 1 36 41
3 15 45 46
3 1 2 41
3 14 15 46
3 28 29 40
3 28 29 47
3 2 40 41
3 14 46 47
3 2 29 40
3 14 29 47
3 2 3 29
3 13 14 29
3 29 30 31
3 29 30 35
3 3 29 31
3 13 29 35
3 30 32 33
3 30 33 34
3 30 31 32
3 30 34 35
3 3 4 31
3 12 13 35
3 4 5 48
3 11 12 54
3 5 6 48
3 10 11 54
3 6 48 59
3 10 54 55
3 6 7 59
3 9 10 55
3 7 58 59
3 9 55 56
3 8 57 58
3 8 56 57
3 7 8 58
3 8 9 56
3 4 31 48
3 12 35 54
3 31 48 49
3 35 53 54
3 31 49 50
3 35 52 53
3 31 32 50
3 34 35 52
3 32 33 50
3 33 34 52
3 33 50 51
3 33 51 52
3 48 49 60
3 49 60 50
3 50 60 61
3 50 51 61
3 51 52 61
3 61 62 52
3 52 53 62
3 53 54 62
3 54 55 63
3 55 56 63
3 56 63 64
3 56 57 64
3 64 65 57
3 57 58 65
3 58 59 65
3 48 59 65
