ply
format ascii 1.0
element vertex 66
property float x
property float y
property float z
property float u
property float v
element face 91
property list uchar int vertex_indices
end_header
240.7 173.024 0 240.7 173.024
241.322 195.854 0 241.322 195.854
243.265 218.655 0 243.265 218.655
246.46 240.986 0 246.46 240.986
252.161 262.014 0 252.161 262.014
262.299 281.046 0 262.299 281.046
276.357 297.6 0 276.357 297.6
294.07 310.17 0 294.07 310.17
315.531 314.864 0 315.531 314.864
337.374 311.568 0 337.374 311.568
355.909 300.009 0 355.909 300.009
370.849 284.101 0 370.849 284.101
382.084 265.67 0 382.084 265.67
389.397 245.522 0 389.397 245.522
394.27 224.274 0 394.27 224.274
397.808 202.541 0 397.808 202.541
399.946 180.687 0 399.946 180.687
257.311 145.831 0 257.311 145.831
267.448 137.643 0 267.448 137.643
280.063 134.337 0 280.063 134.337
293.071 135.396 0 293.071 135.396
305.356 139.648 0 305.356 139.648
338.935 141.725 0 338.935 141.725
351.102 138.846 0 351.102 138.846
363.717 139.052 0 363.717 139.052
375.592 143.277 0 375.592 143.277
384.701 151.977 0 384.701 151.977
321.694 162.143 0 321.694 162.143
321.023 176.543 0 321.023 176.543
320.333 190.886 0 320.333 190.886
319.645 205.22 0 319.645 205.22
305.928 215.789 0 305.928 215.789
312.255 218.837 0 312.255 218.837
319.243 220.301 0 319.243 220.301
326.197 219.493 0 326.197 219.493
332.586 217.032 0 332.586 217.032
273.515 165.51 0 273.515 165.51
281.713 161.561 0 281.713 161.561
291.058 161.838 0 291.058 161.838
298.755 166.39 0 298.755 166.39
290.256 168.027 0 290.256 168.027
281.548 167.904 0 281.548 167.904
343.012 168.772 0 343.012 168.772
350.998 165.15 0 350.998 165.15
360.219 165.706 0 360.219 165.706
367.838 170.465 0 367.838 170.465
359.68 172.024 0 359.68 172.024
351.125 171.258 0 351.125 171.258
287.39 240.137 0 287.39 240.137
296.17 233.853 0 296.17 233.853
306.998 230.656 0 306.998 230.656
318.378 231.74 0 318.378 231.74
329.813 231.728 0 329.813 231.728
340.242 235.893 0 340.242 235.893
348.274 243.099 0 348.274 243.099
341.191 254.388 0 341.191 254.388
330.654 262.436 0 330.654 262.436
317.176 264.36 0 317.176 264.36
303.783 261.179 0 303.783 261.179
293.824 252.09 0 293.824 252.09
305.479 238.243 0 305.479 238.243
318.16 238.697 0 318.16 238.697
330.851 239.445 0 330.851 239.445
331.432 250.889 0 331.432 250.889
317.686 253.255 0 317.686 253.255
304.191 249.605 0 304.191 249.605
3 20 21 23
3 21 22 23
3 0 1 36
3 15 16 45
3 0 17 36
3 16 26 45
3 17 18 37
3 25 26 44
3 17 36 37
3 26 44 45
3 18 19 38
3 24 25 43
3 18 37 38
3 25 43 44
3 19 20 38
3 23 24 43
3 20 21 39
3 22 23 42
3 20 38 39
3 23 42 43
3 21 22 27
3 21 27 39
3 22 27 42
3 27 28 42
3 27 28 39
3 28 42 47
3 28 39 40
3 1 36 41
3 15 45 46
3 1 2 41
3 14 15 46
3 28 29 40
3 28 29 47
3 2 40 41
3 14 46 47
3 2 29 40
3 14 29 47
3 2 3 29
3 13 14 29
3 29 30 31
3 29 30 35
3 3 29 31
3 13 29 35
3 30 32 33
3 30 33 34
3 30 31 32
3 30 34 35
3 3 4 31
3 12 13 35
3 4 5 48
3 11 12 54
3 5 6 48
3 10 11 54
3 6 48 59
3 10 54 55
3 6 7 59
3 9 10 55
3 7 58 59
3 9 55 56
3 8 57 58
3 8 56 57
3 7 8 58
3 8 9 56
3 4 31 48
3 12 35 54
3 31 48 49
3 35 53 54
3 31 49 50
3 35 52 53
3 31 32 50
3 34 35 52
3 32 33 50
3 33 34 52
3 33 50 51
3 33 51 52
3 48 49 60
3 49 60 50
3 50 60 61
3 50 51 61
3 51 52 61
3 61 62 52
3 52 53 62
3 53 54 62
3 54 55 63
3 55 56 63
3 56 63 64
3 56 57 64
3 64 65 57
3 57 58 65
3 58 59 65
3 48 59 65
