ply
format ascii 1.0
element vertex 66
property float x
property float y
property float z
property float u
property float v
element face 91
property list uchar int vertex_indices
end_header
263.664 217.586 0 263.664 217.586
265.215 238.302 0 265.215 238.302
267.85 258.946 0 267.85 258.946
271.442 278.943 0 271.442 278.943
277.048 297.337 0 277.048 297.337
286.95 313.445 0 286.95 313.445
300.676 326.772 0 300.676 326.772
317.572 336.133 0 317.572 336.133
337.175 338.452 0 337.175 338.452
357.201 334.728 0 357.201 334.728
374.052 324.082 0 374.052 324.082
387.424 309.604 0 387.424 309.604
396.94 292.756 0 396.94 292.756
402.185 274.29 0 402.185 274.29
404.824 254.632 0 404.824 254.632
406.183 234.458 0 406.183 234.458
406.424 214.303 0 406.424 214.303
275.075 191.9 0 275.075 191.9
283.486 183.833 0 283.486 183.833
294.391 180.126 0 294.391 180.126
305.856 180.207 0 305.856 180.207
316.857 183.138 0 316.857 183.138
347.417 182.697 0 347.417 182.697
358.212 179.448 0 358.212 179.448
369.62 178.915 0 369.62 178.915
380.655 182.051 0 380.655 182.051
389.518 189.567 0 389.518 189.567
332.941 201.947 0 332.941 201.947
333.014 214.226 0 333.014 214.226
333.072 226.467 0 333.072 226.467
333.153 238.728 0 333.153 238.728
321.951 248.863 0 321.951 248.863
327.811 251.073 0 327.811 251.073
334.143 251.882 0 334.143 251.882
340.425 250.763 0 340.425 250.763
346.148 248.261 0 346.148 248.261
289.787 207.983 0 289.787 207.983
296.977 203.621 0 296.977 203.621
305.562 203.3 0 305.562 203.3
312.853 207.301 0 312.853 207.301
305.212 209.421 0 305.212 209.421
297.234 209.824 0 297.234 209.824
353.078 206.554 0 353.078 206.554
360.057 202.352 0 360.057 202.352
368.616 202.232 0 368.616 202.232
375.952 206.286 0 375.952 206.286
368.605 208.424 0 368.605 208.424
360.685 208.347 0 360.685 208.347
306.407 271.997 0 306.407 271.997
313.859 265.028 0 313.859 265.028
323.626 261.192 0 323.626 261.192
334.174 261.139 0 334.174 261.139
344.993 260.66 0 344.993 260.66
355.209 263.961 0 355.209 263.961
363.324 270.618 0 363.324 270.618
357.322 281.45 0 357.322 281.45
347.845 289.378 0 347.845 289.378
335.316 291.779 0 335.316 291.779
322.8 290.009 0 322.8 290.009
313.016 282.513 0 313.016 282.513
322.495 268.344 0 322.495 268.344
334.486 267.638 0 334.486 267.638
346.914 267.741 0 346.914 267.741
348.292 279.022 0 348.292 279.022
335.092 281.863 0 335.092 281.863
322.055 279.67 0 322.055 279.67
3 20 21 23
3 21 22 23
3 0 1 36
3 15 16 45
3 0 17 36
3 16 26 45
3 17 18 37
3 25 26 44
3 17 36 37
3 26 44 45
3 18 19 38
3 24 25 43
3 18 37 38
3 25 43 44
3 19 20 38
3 23 24 43
3 20 21 39
3 22 23 42
3 20 38 39
3 23 42 43
3 21 22 27
3 21 27 39
3 22 27 42
3 27 28 42
3 27 28 39
3 28 42 47
3 28 39 40
3 1 36 41
3 15 45 46
3 1 2 41
3 14 15 46
3 28 29 40
3 28 29 47
3 2 40 41
3 14 46 47
3 2 29 40
3 14 29 47
3 2 3 29
3 13 14 29
3 29 30 31
3 29 30 35
3 3 29 31
3 13 29 35
3 30 32 33
3 30 33 34
3 30 31 32
3 30 34 35
3 3 4 31
3 12 13 35
3 4 5 48
3 11 12 54
3 5 6 48
3 10 11 54
3 6 48 59
3 10 54 55
3 6 7 59
3 9 10 55
3 7 58 59
3 9 55 56
3 8 57 58
3 8 56 57
3 7 8 58
3 8 9 56
3 4 31 48
3 12 35 54
3 31 48 49
3 35 53 54
3 31 49 50
3 35 52 53
3 31 32 50
3 34 35 52
3 32 33 50
3 33 34 52
3 33 50 51
3 33 51 52
3 48 49 60
3 49 60 50
3 50 60 61
3 50 51 61
3 51 52 61
3 61 62 52
3 52 53 62
3 53 54 62
3 54 55 63
3 55 56 63
3 56 63 64
3 56 57 64
3 64 65 57
3 57 58 65
3 58 59 65
3 48 59 65
