ply
format ascii 1.0
element vertex 66
property float x
property float y
property float z
property float u
property float v
element face 91
property list uchar int vertex_indices
end_header
-20.6547 -5.64822 21.3079 256.235 168.624
-20.0519 -0.423649 20.8425 256.892 193.168
-19.1146 4.7667 20.4846 259.282 217.597
-17.7568 9.73356 18.3869 262.739 242.192
-15.6469 14.1974 13.4633 268.264 267.099
-12.4006 17.9009 7.99404 278.334 290.496
-8.27017 20.7526 3.29433 292.931 311.013
-3.55056 22.6779 -0.880153 311.647 326.977
1.65875 22.9008 -4.53572 334.667 333.6
6.75338 21.9412 -0.807894 359.018 328.496
11.0958 19.3665 3.41769 379.594 313.714
14.7165 15.9593 8.15704 396.558 294.247
17.3322 11.8354 13.6544 409.456 271.737
18.7221 7.12069 18.5937 417.977 247.592
19.3316 2.01325 20.7063 423.664 223.631
19.5157 -3.2566 21.0748 427.835 199.757
19.3623 -8.51341 21.5385 430.297 175.627
-16.9434 -14.0024 0.166523 270.877 146.426
-14.6923 -16.1532 -1.56921 281.423 138.962
-11.7473 -17.1684 -2.95979 294.635 136.156
-8.64008 -17.2567 -4.29633 308.347 137.394
-5.61118 -16.6863 -5.52226 321.498 141.677
3.24342 -17.3161 -5.43542 360.08 143.471
6.14406 -18.3113 -4.17859 373.821 140.243
9.21432 -18.6656 -2.80935 387.949 140.087
12.2557 -18.0793 -1.38764 401.32 143.928
14.7675 -16.2699 0.371491 411.789 152.247
-0.800008 -11.6067 -4.9545 340.076 166.551
-0.571382 -8.59445 -7.76035 339.002 183.583
-0.341526 -5.60559 -10.6633 337.934 200.54
-0.111056 -2.62069 -13.4075 336.914 217.376
-3.34691 0.90089 -6.47077 323.936 230.352
-1.6415 1.2941 -7.26957 330.373 232.693
0.142254 1.35258 -8.01839 337.192 233.888
1.89493 1.04463 -7.21848 344.327 233.245
3.5165 0.412997 -6.40175 351.136 231.432
-12.5316 -9.74495 -0.905324 287.585 168.112
-10.6698 -11.0691 -1.10649 296.871 162.591
-8.3451 -11.2534 -1.2279 308.038 163.173
-6.35058 -10.2247 -0.977391 316.738 169.414
-8.3556 -9.50683 -1.10156 306.934 171.885
-10.5048 -9.27615 -1.09011 296.658 171.853
4.83678 -11.0227 -0.887733 364.658 171.364
6.66716 -12.3254 -1.11779 373.714 165.889
8.99246 -12.4738 -0.968074 384.896 166.235
11.0209 -11.4279 -0.742362 393.766 172.513
9.08377 -10.6753 -0.948989 384.405 175.471
6.92444 -10.5977 -0.987214 374.16 174.659
-6.63855 8.84013 -2.74685 308.072 266
-4.73902 6.8457 -4.89305 315.863 259.171
-2.32888 5.4219 -6.54708 325.59 253.946
0.427259 5.35547 -8.22771 336.522 256.084
3.15408 5.03248 -6.48681 348.118 254.785
5.72158 6.09946 -4.80547 357.925 260.752
7.86034 7.80446 -2.63884 365.858 268.221
6.14905 9.90529 -3.93286 358.394 277.898
3.75933 11.3254 -5.28293 348.184 284.486
0.883179 11.8243 -6.67982 335.872 286.529
-2.0422 11.738 -5.34336 324.084 283.619
-4.62825 10.6744 -4.02161 314.572 276.288
-2.38864 7.57584 -5.20395 325.371 264.312
0.55887 7.21472 -7.41824 336.428 265.274
3.50364 7.15671 -5.14457 348.189 265.159
3.65722 8.62822 -4.49552 348.136 269.078
0.689237 9.10764 -6.42523 336.414 270.879
-2.33557 9.05505 -4.5521 325.36 268.248
3 20 21 23
3 21 22 23
3 0 1 36
3 15 16 45
3 0 17 36
3 16 26 45
3 17 18 37
3 25 26 44
3 17 36 37
3 26 44 45
3 18 19 38
3 24 25 43
3 18 37 38
3 25 43 44
3 19 20 38
3 23 24 43
3 20 21 39
3 22 23 42
3 20 38 39
3 23 42 43
3 21 22 27
3 21 27 39
3 22 27 42
3 27 28 42
3 27 28 39
3 28 42 47
3 28 39 40
3 1 36 41
3 15 45 46
3 1 2 41
3 14 15 46
3 28 29 40
3 28 29 47
3 2 40 41
3 14 46 47
3 2 29 40
3 14 29 47
3 2 3 29
3 13 14 29
3 29 30 31
3 29 30 35
3 3 29 31
3 13 29 35
3 30 32 33
3 30 33 34
3 30 31 32
3 30 34 35
3 3 4 31
3 12 13 35
3 4 5 48
3 11 12 54
3 5 6 48
3 10 11 54
3 6 48 59
3 10 54 55
3 6 7 59
3 9 10 55
3 7 58 59
3 9 55 56
3 8 57 58
3 8 56 57
3 7 8 58
3 8 9 56
3 4 31 48
3 12 35 54
3 31 48 49
3 35 53 54
3 31 49 50
3 35 52 53
3 31 32 50
3 34 35 52
3 32 33 50
3 33 34 52
3 33 50 51
3 33 51 52
3 48 49 60
3 49 60 50
3 50 60 61
3 50 51 61
3 51 52 61
3 61 62 52
3 52 53 62
3 53 54 62
3 54 55 63
3 55 56 63
3 56 63 64
3 56 57 64
3 64 65 57
3 57 58 65
3 58 59 65
3 48 59 65
