ply
format ascii 1.0
element vertex 66
property float x
property float y
property float z
property float u
property float v
element face 91
property list uchar int vertex_indices
end_header
-19.3375 -5.55693 21.1349 256.235 168.624
-18.6261 -0.324107 20.6415 256.892 193.168
-17.549 4.86546 20.2727 259.282 217.597
-16.2088 9.78765 18.422 262.739 242.192
-14.3565 14.1677 13.5844 268.264 267.099
-11.5533 17.9952 8.13524 278.334 290.496
-7.85993 21.204 3.31091 292.931 311.013
-3.40289 23.4478 -0.846873 311.647 326.977
1.75058 23.6585 -4.45539 334.667 333.6
6.76894 22.6537 -0.765371 359.018 328.496
10.7472 19.7315 3.44741 379.594 313.714
13.832 15.9981 8.30659 396.558 294.247
15.9644 11.8137 13.7713 409.456 271.737
17.1363 7.25756 18.5886 417.977 247.592
17.7672 2.25679 20.4579 423.664 223.631
18.1072 -2.97154 20.8178 427.835 199.757
18.0728 -8.19063 21.3042 430.297 175.627
-16.2731 -14.6766 0.14257 270.877 146.426
-14.1501 -16.8816 -1.60033 281.423 138.962
-11.3579 -18.0659 -2.96369 294.635 136.156
-8.36727 -18.3755 -4.2911 308.347 137.394
-5.42864 -17.9962 -5.55122 321.498 141.677
2.86834 -18.5197 -5.47248 360.08 143.471
5.70858 -19.3103 -4.17826 373.821 140.243
8.70039 -19.4281 -2.81228 387.949 140.087
11.6206 -18.6525 -1.41837 401.32 143.928
14.0148 -16.7659 0.332527 411.789 152.247
-0.898842 -12.8998 -4.85563 340.076 166.551
-0.681101 -9.69506 -7.66852 339.002 183.583
-0.461924 -6.52265 -10.5667 337.934 200.54
-0.238393 -3.34892 -13.3109 336.914 217.376
-2.86258 1.07242 -6.45869 323.936 230.352
-1.41533 1.28298 -7.22582 330.373 232.693
0.0863124 1.24367 -7.94719 337.192 233.888
1.58256 1.07772 -7.16944 344.327 233.245
2.9819 0.66773 -6.37831 351.136 231.432
-12.1817 -10.541 -0.824864 287.585 168.112
-10.3161 -12.0043 -1.02954 296.871 162.591
-7.90931 -12.1762 -1.18812 308.038 163.173
-5.90822 -10.9967 -1.02435 316.738 169.414
-7.94744 -10.2464 -1.14958 306.934 171.885
-10.1499 -9.98581 -1.04211 296.658 171.853
4.39172 -11.7189 -0.987921 364.658 171.364
6.20675 -13.1459 -1.08171 373.714 165.889
8.60368 -13.3007 -0.873858 384.896 166.235
10.6404 -12.1034 -0.636134 393.766 172.513
8.71016 -11.2842 -0.9014 384.405 175.471
6.50222 -11.2443 -1.06171 374.16 174.659
-5.52146 9.91203 -2.7251 308.072 266
-3.96289 7.81406 -4.98724 315.863 259.171
-1.96588 6.1323 -6.64367 325.59 253.946
0.458207 6.01594 -8.34293 336.522 256.084
2.8732 5.78916 -6.55532 348.118 254.785
5.07344 7.16576 -4.88078 357.925 260.752
6.89512 9.02188 -2.63267 365.858 268.221
5.54749 11.0472 -4.02012 358.394 277.898
3.53912 12.4885 -5.28981 348.184 284.486
0.979603 12.9708 -6.66832 335.872 286.529
-1.63708 12.8658 -5.36487 324.084 283.619
-3.86636 11.7328 -4.12014 314.572 276.288
-1.80947 8.69575 -5.03181 325.371 264.312
0.62688 8.20773 -7.33159 336.428 265.274
3.09213 8.34353 -4.96389 348.189 265.159
3.15976 9.29143 -4.46398 348.136 269.078
0.731824 9.60805 -6.37061 336.414 270.879
-1.73217 9.64484 -4.53955 325.36 268.248
3 20 21 23
3 21 22 23
3 0 1 36
3 15 16 45
3 0 17 36
3 16 26 45
3 17 18 37
3 25 26 44
3 17 36 37
3 26 44 45
3 18 19 38
3 24 25 43
3 18 37 38
3 25 43 44
3 19 20 38
3 23 24 43
3 20 21 39
3 22 23 42
3 20 38 39
3 23 42 43
3 21 22 27
3 21 27 39
3 22 27 42
3 27 28 42
3 27 28 39
3 28 42 47
3 28 39 40
3 1 36 41
3 15 45 46
3 1 2 41
3 14 15 46
3 28 29 40
3 28 29 47
3 2 40 41
3 14 46 47
3 2 29 40
3 14 29 47
3 2 3 29
3 13 14 29
3 29 30 31
3 29 30 35
3 3 29 31
3 13 29 35
3 30 32 33
3 30 33 34
3 30 31 32
3 30 34 35
3 3 4 31
3 12 13 35
3 4 5 48
3 11 12 54
3 5 6 48
3 10 11 54
3 6 48 59
3 10 54 55
3 6 7 59
3 9 10 55
3 7 58 59
3 9 55 56
3 8 57 58
3 8 56 57
3 7 8 58
3 8 9 56
3 4 31 48
3 12 35 54
3 31 48 49
3 35 53 54
3 31 49 50
3 35 52 53
3 31 32 50
3 34 35 52
3 32 33 50
3 33 34 52
3 33 50 51
3 33 51 52
3 48 49 60
3 49 60 50
3 50 60 61
3 50 51 61
3 51 52 61
3 61 62 52
3 52 53 62
3 53 54 62
3 54 55 63
3 55 56 63
3 56 63 64
3 56 57 64
3 64 65 57
3 57 58 65
3 58 59 65
3 48 59 65
