ply
format ascii 1.0
element vertex 66
property float x
property float y
property float z
property float u
property float v
element face 91
property list uchar int vertex_indices
end_header
-20.4898 -5.62173 21.4625 321.989 638.887
-19.819 -0.495372 20.8791 322.936 668.299
-18.8203 4.60752 20.547 325.71 697.354
-17.4888 9.45916 18.4394 330.911 727.986
-15.4553 13.7605 13.5585 341.032 760.307
-12.3256 17.335 8.07454 357.957 790.137
-8.34628 20.1526 3.24732 380.028 815.208
-3.75752 22.0943 -0.872826 405.935 834.664
1.3645 22.3245 -4.49727 435.779 844.211
6.41106 21.4691 -0.947203 464.29 836.486
10.688 18.9545 3.25926 489.245 818.227
14.2987 15.6955 8.11696 510.697 794.52
17.0279 11.8064 13.6398 527.35 765.862
18.5454 7.28363 18.5797 537.592 734.027
19.2308 2.26722 20.8084 543.961 703.319
19.5205 -2.96623 21.2354 548.587 674.049
19.4634 -8.19458 21.7598 551.212 644.479
-17.4586 -13.6394 0.271863 348.514 629.669
-15.253 -15.9214 -1.50553 362.807 621.042
-12.3034 -17.0279 -2.93647 380.578 618.702
-9.17446 -17.1419 -4.27387 398.771 621.759
-6.12418 -16.601 -5.49348 416.106 628.187
3.53307 -17.3693 -5.35408 471.583 628.629
6.3938 -18.4454 -4.07811 488.25 622.159
9.45343 -18.888 -2.69057 505.655 619.095
12.5251 -18.3909 -1.20894 522.558 621.05
15.1165 -16.6339 0.53989 535.927 629.262
-0.755272 -11.0879 -4.95792 443.37 660.341
-0.512889 -8.11352 -7.87775 443.635 681.387
-0.267921 -5.16167 -10.8307 443.936 702.363
-0.02416 -2.20315 -13.5433 444.174 722.998
-3.50303 1.37889 -6.69595 420.773 730.158
-1.67068 1.85567 -7.43264 431.098 734.86
0.252164 1.93719 -8.07082 442.149 737.282
2.13168 1.5723 -7.41818 452.939 735.202
3.86891 0.818744 -6.72713 463.136 730.856
-12.9822 -9.34233 -0.685243 371.723 657.037
-11.0286 -10.7488 -1.03103 383.759 650.843
-8.58956 -10.9026 -1.38705 397.831 651.789
-6.53729 -9.72004 -1.23784 408.806 659.088
-8.64252 -9.01093 -1.22026 396.384 661.891
-10.8798 -8.80332 -1.12088 383.487 661.745
5.07198 -10.6607 -1.04567 475.502 659.486
6.9103 -12.1885 -1.24703 486.921 652.339
9.35033 -12.4452 -0.847927 500.897 651.536
11.5263 -11.3846 -0.447658 512.595 657.832
9.54654 -10.4739 -0.900901 500.872 662.546
7.28889 -10.3107 -1.00201 487.926 662.46
-7.79018 7.97329 -2.63318 391.596 757.83
-5.45467 6.04524 -4.82094 406.51 751.857
-2.5941 4.83512 -6.52119 423.892 749.327
0.486903 4.68399 -8.34724 441.938 752.922
3.52254 4.37672 -6.49234 459.026 749.854
6.49478 5.14709 -4.76074 475.149 752.868
9.04113 6.70434 -2.52824 488.274 759.201
7.27761 9.6943 -3.96987 476.778 776.997
4.52322 11.8612 -5.30337 460.091 789.602
1.00303 12.5901 -6.69271 439.893 794.009
-2.56762 12.3756 -5.30021 419.363 788.839
-5.60628 10.6603 -3.93828 402.752 775.742
-3.17686 6.89715 -5.25807 419.091 758.374
0.612752 6.51453 -7.65568 441.434 761.954
4.36064 6.33645 -5.25867 462.392 759.104
4.74084 9.00289 -4.51343 462.837 772.771
0.822781 9.82337 -6.35919 440.415 778.198
-3.20094 9.60081 -4.47974 417.202 771.989
3 20 21 23
3 21 22 23
3 0 1 36
3 15 16 45
3 0 17 36
3 16 26 45
3 17 18 37
3 25 26 44
3 17 36 37
3 26 44 45
3 18 19 38
3 24 25 43
3 18 37 38
3 25 43 44
3 19 20 38
3 23 24 43
3 20 21 39
3 22 23 42
3 20 38 39
3 23 42 43
3 21 22 27
3 21 27 39
3 22 27 42
3 27 28 42
3 27 28 39
3 28 42 47
3 28 39 40
3 1 36 41
3 15 45 46
3 1 2 41
3 14 15 46
3 28 29 40
3 28 29 47
3 2 40 41
3 14 46 47
3 2 29 40
3 14 29 47
3 2 3 29
3 13 14 29
3 29 30 31
3 29 30 35
3 3 29 31
3 13 29 35
3 30 32 33
3 30 33 34
3 30 31 32
3 30 34 35
3 3 4 31
3 12 13 35
3 4 5 48
3 11 12 54
3 5 6 48
3 10 11 54
3 6 48 59
3 10 54 55
3 6 7 59
3 9 10 55
3 7 58 59
3 9 55 56
3 8 57 58
3 8 56 57
3 7 8 58
3 8 9 56
3 4 31 48
3 12 35 54
3 31 48 49
3 35 53 54
3 31 49 50
3 35 52 53
3 31 32 50
3 34 35 52
3 32 33 50
3 33 34 52
3 33 50 51
3 33 51 52
3 48 49 60
3 49 60 50
3 50 60 61
3 50 51 61
3 51 52 61
3 61 62 52
3 52 53 62
3 53 54 62
3 54 55 63
3 55 56 63
3 56 63 64
3 56 57 64
3 64 65 57
3 57 58 65
3 58 59 65
3 48 59 65
