ply
format ascii 1.0
element vertex 66
property float x
property float y
property float z
property float u
property float v
element face 91
property list uchar int vertex_indices
end_header
253.536 224.335 0 253.536 224.335
254.483 250.83 0 254.483 250.83
257.283 277.244 0 257.283 277.244
261.549 303.22 0 261.549 303.22
268.461 328.307 0 268.461 328.307
280.355 351.388 0 280.355 351.388
296.982 371.478 0 296.982 371.478
317.822 386.812 0 317.822 386.812
343.123 392.35 0 343.123 392.35
368.457 387.833 0 368.457 387.833
389.547 373.18 0 389.547 373.18
406.504 353.632 0 406.504 353.632
418.997 331.136 0 418.997 331.136
426.924 306.759 0 426.924 306.759
432.34 281.55 0 432.34 281.55
436.302 255.879 0 436.302 255.879
438.363 230.046 0 438.363 230.046
272.807 191.767 0 272.807 191.767
284.472 183.268 0 284.472 183.268
298.679 179.831 0 298.679 179.831
313.353 180.722 0 313.353 180.722
327.396 184.877 0 327.396 184.877
367.753 186.376 0 367.753 186.376
381.794 183.018 0 381.794 183.018
396.312 182.902 0 396.312 182.902
410.156 186.996 0 410.156 186.996
421.182 195.996 0 421.182 195.996
347.316 212.223 0 347.316 212.223
346.947 229.056 0 346.947 229.056
346.577 245.781 0 346.577 245.781
346.22 262.431 0 346.22 262.431
331.072 277.686 0 331.072 277.686
338.26 279.98 0 338.26 279.98
345.867 281.001 0 345.867 281.001
353.445 280.344 0 353.445 280.344
360.607 278.38 0 360.607 278.38
290.384 214.687 0 290.384 214.687
300.214 208.896 0 300.214 208.896
311.916 209.302 0 311.916 209.302
320.991 215.735 0 320.991 215.735
310.698 218.265 0 310.698 218.265
299.934 218.346 0 299.934 218.346
372.645 217.259 0 372.645 217.259
381.978 211.419 0 381.978 211.419
393.593 211.577 0 393.593 211.577
403.02 217.849 0 403.02 217.849
393.356 220.994 0 393.356 220.994
382.688 220.321 0 382.688 220.321
314.082 317.843 0 314.082 317.843
321.34 306.487 0 321.34 306.487
332.309 298.325 0 332.309 298.325
345.518 299.144 0 345.518 299.144
358.694 298.93 0 358.694 298.93
369.165 307.551 0 369.165 307.551
375.706 319.289 0 375.706 319.289
368.713 330.606 0 368.713 330.606
358.268 338.772 0 358.268 338.772
344.701 341.094 0 344.701 341.094
331.128 338.151 0 331.128 338.151
320.871 329.496 0 320.871 329.496
332.152 310.923 0 332.152 310.923
345.35 309.992 0 345.35 309.992
358.365 311.523 0 358.365 311.523
358.102 322.074 0 358.102 322.074
345.084 324.417 0 345.084 324.417
332.084 321.473 0 332.084 321.473
3 20 21 23
3 21 22 23
3 0 1 36
3 15 16 45
3 0 17 36
3 16 26 45
3 17 18 37
3 25 26 44
3 17 36 37
3 26 44 45
3 18 19 38
3 24 25 43
3 18 37 38
3 25 43 44
3 19 20 38
3 23 24 43
3 20 21 39
3 22 23 42
3 20 38 39
3 23 42 43
3 21 22 27
3 21 27 39
3 22 27 42
3 27 28 42
3 27 28 39
3 28 42 47
3 28 39 40
3 1 36 41
3 15 45 46
3 1 2 41
3 14 15 46
3 28 29 40
3 28 29 47
3 2 40 41
3 14 46 47
3 2 29 40
3 14 29 47
3 2 3 29
3 13 14 29
3 29 30 31
3 29 30 35
3 3 29 31
3 13 29 35
3 30 32 33
3 30 33 34
3 30 31 32
3 30 34 35
3 3 4 31
3 12 13 35
3 4 5 48
3 11 12 54
3 5 6 48
3 10 11 54
3 6 48 59
3 10 54 55
3 6 7 59
3 9 10 55
3 7 58 59
3 9 55 56
3 8 57 58
3 8 56 57
3 7 8 58
3 8 9 56
3 4 31 48
3 12 35 54
3 31 48 49
3 35 53 54
3 31 49 50
3 35 52 53
3 31 32 50
3 34 35 52
3 32 33 50
3 33 34 52
3 33 50 51
3 33 51 52
3 48 49 60
3 49 60 50
3 50 60 61
3 50 51 61
3 51 52 61
3 61 62 52
3 52 53 62
3 53 54 62
3 54 55 63
3 55 56 63
3 56 63 64
3 56 57 64
3 64 65 57
3 57 58 65
3 58 59 65
3 48 59 65
