ply
format ascii 1.0
element vertex 66
property float x
property float y
property float z
property float u
property float v
element face 91
property list uchar int vertex_indices
end_header
-20.6189 -5.61111 21.5653 415.54 543.247
-19.8793 -0.370357 21.0261 418.533 575.794
-18.8294 4.83627 20.6382 423.451 607.992
-17.5464 9.82296 18.5268 429.997 641.579
-15.6698 14.2826 13.5597 440.577 676.549
-12.5737 17.9124 8.00118 459.019 707.785
-8.48527 20.6033 3.34677 483.849 732.272
-3.78483 22.2905 -0.86933 512.76 750.226
1.3313 22.3809 -4.57737 544.713 757.919
6.4575 21.541 -0.759651 576.523 748.474
10.834 19.0396 3.52539 604.17 728.109
14.4588 15.6685 8.17698 627.399 701.737
17.0805 11.6166 13.7006 644.56 669.648
18.5025 7.02878 18.6221 654.486 634.919
19.1946 2.06625 20.7875 660.181 601.958
19.5377 -3.07899 21.1441 663.887 570.574
19.5106 -8.22133 21.584 665.29 538.975
-17.7027 -14.1412 0.233094 437.686 525.526
-15.3393 -16.5337 -1.53367 453.207 514.527
-12.1961 -17.6913 -2.92316 473.157 510.596
-8.86157 -17.7979 -4.22677 493.961 512.907
-5.60866 -17.1687 -5.42982 514.024 519.464
3.08611 -17.638 -5.42795 568.107 519.12
6.13829 -18.6949 -4.16296 587.286 511.696
9.38921 -19.0531 -2.80768 607.475 508.391
12.6094 -18.397 -1.35657 627.152 511.027
15.2501 -16.4216 0.440329 642.801 520.9
-0.689327 -11.6861 -4.93522 542.802 553.072
-0.489921 -8.57446 -7.79936 543.259 576.231
-0.294682 -5.49041 -10.7675 543.705 599.384
-0.0980271 -2.40666 -13.5627 544.149 622.269
-3.04582 1.42106 -6.54147 524.211 633.668
-1.41045 1.74297 -7.36988 534.31 637.341
0.286573 1.76301 -8.14986 544.882 639.142
1.91713 1.52284 -7.31746 555.017 636.886
3.43577 0.980209 -6.53455 564.555 632.856
-12.9984 -9.54622 -0.797368 465.506 556.076
-10.9996 -10.9692 -1.09612 478.368 548.549
-8.5072 -11.1514 -1.28137 493.898 548.449
-6.36088 -9.99581 -1.07491 506.839 555.693
-8.5299 -9.295 -1.17135 493.172 559.435
-10.8286 -9.06149 -1.08806 478.834 560.055
4.86709 -10.7223 -1.03205 576.714 554.462
6.80178 -12.1214 -1.22372 589.164 546.897
9.26193 -12.3078 -0.975635 604.467 546.097
11.4102 -11.172 -0.607752 617.416 552.975
9.36086 -10.3864 -0.941583 604.48 557.625
7.0766 -10.3244 -1.05497 590.298 557.521
-6.68861 9.03585 -2.80108 498.998 672.671
-4.57183 7.18267 -5.01913 512.851 665.537
-2.134 5.80672 -6.67694 528.511 660.504
0.573282 5.75578 -8.34173 545.431 663.524
3.24076 5.43562 -6.5377 561.959 659.592
5.80163 6.4404 -4.8627 577.423 663.794
8.07584 7.99976 -2.64179 590.899 670.41
6.16532 9.73437 -3.88965 578.59 682.209
3.70766 10.8106 -5.17494 563.094 689.95
0.958878 11.1568 -6.60507 546.028 693.442
-1.82367 11.1857 -5.28928 528.671 690.803
-4.46276 10.4834 -3.98845 512.433 683.831
-2.29277 7.98092 -5.34542 526.762 671.487
0.728719 7.67184 -7.46298 545.741 673.74
3.73224 7.57132 -5.21898 564.257 670.549
3.81281 8.20421 -4.52223 564.514 673.308
0.79115 8.42328 -6.46486 545.829 676.744
-2.25991 8.63115 -4.63733 526.717 674.319
3 20 21 23
3 21 22 23
3 0 1 36
3 15 16 45
3 0 17 36
3 16 26 45
3 17 18 37
3 25 26 44
3 17 36 37
3 26 44 45
3 18 19 38
3 24 25 43
3 18 37 38
3 25 43 44
3 19 20 38
3 23 24 43
3 20 21 39
3 22 23 42
3 20 38 39
3 23 42 43
3 21 22 27
3 21 27 39
3 22 27 42
3 27 28 42
3 27 28 39
3 28 42 47
3 28 39 40
3 1 36 41
3 15 45 46
3 1 2 41
3 14 15 46
3 28 29 40
3 28 29 47
3 2 40 41
3 14 46 47
3 2 29 40
3 14 29 47
3 2 3 29
3 13 14 29
3 29 30 31
3 29 30 35
3 3 29 31
3 13 29 35
3 30 32 33
3 30 33 34
3 30 31 32
3 30 34 35
3 3 4 31
3 12 13 35
3 4 5 48
3 11 12 54
3 5 6 48
3 10 11 54
3 6 48 59
3 10 54 55
3 6 7 59
3 9 10 55
3 7 58 59
3 9 55 56
3 8 57 58
3 8 56 57
3 7 8 58
3 8 9 56
3 4 31 48
3 12 35 54
3 31 48 49
3 35 53 54
3 31 49 50
3 35 52 53
3 31 32 50
3 34 35 52
3 32 33 50
3 33 34 52
3 33 50 51
3 33 51 52
3 48 49 60
3 49 60 50
3 50 60 61
3 50 51 61
3 51 52 61
3 61 62 52
3 52 53 62
3 53 54 62
3 54 55 63
3 55 56 63
3 56 63 64
3 56 57 64
3 64 65 57
3 57 58 65
3 58 59 65
3 48 59 65
