ply
format ascii 1.0
element vertex 66
property float x
property float y
property float z
property float u
property float v
element face 91
property list uchar int vertex_indices
end_header
-20.0107 -6.50292 21.3963 243.509 177.57
-19.2929 -0.967381 20.8697 245.182 200.312
-18.2635 4.52571 20.3322 248.133 222.953
-16.9212 9.83323 18.4758 252.372 245.015
-14.978 14.654 13.512 259.104 265.48
-11.9679 18.8318 7.96052 270.311 283.615
-8.05191 22.2911 3.12069 285.384 298.97
-3.35924 24.6916 -0.958265 303.873 310.126
2.0094 25.118 -4.72531 325.563 313.371
7.17235 23.8495 -0.839271 346.953 309.049
11.3256 20.7061 3.28652 364.657 296.849
14.4843 16.6276 8.15531 378.535 280.557
16.6592 12.0491 13.7076 388.533 261.953
17.8242 7.13343 18.5898 394.479 241.804
18.3773 1.92095 20.4261 397.936 220.556
18.5961 -3.41351 20.8795 400.031 198.848
18.4918 -8.73307 21.4137 400.808 177.122
-16.6331 -14.1397 0.191239 258.533 148.947
-14.4063 -16.4372 -1.60275 268.079 140.237
-11.4593 -17.596 -2.96937 280.311 136.29
-8.3075 -17.7156 -4.27865 293.147 136.616
-5.25033 -17.035 -5.46485 305.42 140.168
2.75288 -17.3463 -5.43809 338.083 140.693
5.62996 -18.3495 -4.20597 350.05 137.154
8.70225 -18.6018 -2.86647 362.646 136.708
11.7026 -17.8355 -1.47965 374.722 140.388
14.1306 -15.8632 0.36436 384.207 148.815
-0.76881 -12.037 -4.86256 322.564 161.475
-0.544977 -8.73109 -7.84981 322.674 175.227
-0.327654 -5.43151 -10.7269 322.76 188.944
-0.105531 -2.12514 -13.3517 322.87 202.668
-3.08939 0.877454 -6.60477 310.186 213.679
-1.49927 1.4018 -7.26965 316.531 216.225
0.200501 1.54234 -7.87635 323.409 217.227
1.84226 1.18224 -7.19703 330.19 216.074
3.30831 0.452856 -6.47967 336.338 213.375
-12.2787 -9.80517 -0.908909 275.273 167.661
-10.4096 -10.9825 -1.19821 283.142 163.31
-8.15128 -11.1796 -1.43446 292.379 163.033
-6.17456 -10.2972 -1.11249 300.238 167.043
-8.17627 -9.66684 -1.14011 291.944 169.163
-10.2767 -9.461 -1.08028 283.345 169.526
4.60527 -10.8944 -1.14154 344.271 167.032
6.44268 -11.953 -1.36096 351.987 163.151
8.67159 -12.0342 -1.07783 361.088 163.298
10.6253 -11.0849 -0.73967 368.839 167.574
8.69519 -10.525 -0.978199 360.848 169.44
6.61751 -10.4929 -1.09941 352.377 169.114
-6.95081 7.49212 -2.45145 293.066 239.41
-5.03865 5.52864 -4.76222 301.245 232.031
-2.47208 4.3409 -6.48106 311.927 227.91
0.377572 4.19623 -8.20782 323.529 228.099
3.20816 3.96584 -6.33617 335.147 227.645
5.89273 4.78812 -4.60795 345.931 231.455
8.02231 6.50334 -2.36074 354.267 238.735
6.65268 9.4934 -3.78069 347.99 250.717
4.31138 11.7748 -5.1897 337.915 259.595
1.04753 12.5894 -6.80141 324.407 262.311
-2.3627 12.2287 -5.31251 310.631 259.957
-5.0654 10.2707 -3.95188 300.091 251.268
-2.63001 6.31922 -5.01234 310.872 235.811
0.530004 5.96583 -7.40799 323.77 235.274
3.70242 5.89422 -4.87137 336.758 235.489
4.19258 8.93517 -4.2297 338.087 247.929
0.844172 9.87393 -6.2236 324.199 251.162
-2.61974 9.38881 -4.37344 310.24 248.26
3 20 21 23
3 21 22 23
3 0 1 36
3 15 16 45
3 0 17 36
3 16 26 45
3 17 18 37
3 25 26 44
3 17 36 37
3 26 44 45
3 18 19 38
3 24 25 43
3 18 37 38
3 25 43 44
3 19 20 38
3 23 24 43
3 20 21 39
3 22 23 42
3 20 38 39
3 23 42 43
3 21 22 27
3 21 27 39
3 22 27 42
3 27 28 42
3 27 28 39
3 28 42 47
3 28 39 40
3 1 36 41
3 15 45 46
3 1 2 41
3 14 15 46
3 28 29 40
3 28 29 47
3 2 40 41
3 14 46 47
3 2 29 40
3 14 29 47
3 2 3 29
3 13 14 29
3 29 30 31
3 29 30 35
3 3 29 31
3 13 29 35
3 30 32 33
3 30 33 34
3 30 31 32
3 30 34 35
3 3 4 31
3 12 13 35
3 4 5 48
3 11 12 54
3 5 6 48
3 10 11 54
3 6 48 59
3 10 54 55
3 6 7 59
3 9 10 55
3 7 58 59
3 9 55 56
3 8 57 58
3 8 56 57
3 7 8 58
3 8 9 56
3 4 31 48
3 12 35 54
3 31 48 49
3 35 53 54
3 31 49 50
3 35 52 53
3 31 32 50
3 34 35 52
3 32 33 50
3 33 34 52
3 33 50 51
3 33 51 52
3 48 49 60
3 49 60 50
3 50 60 61
3 50 51 61
3 51 52 61
3 61 62 52
3 52 53 62
3 53 54 62
3 54 55 63
3 55 56 63
3 56 63 64
3 56 57 64
3 64 65 57
3 57 58 65
3 58 59 65
3 48 59 65
