ply
format ascii 1.0
element vertex 66
property float x
property float y
property float z
property float u
property float v
element face 91
property list uchar int vertex_indices
end_header
-20.6547 -5.64822 21.3079 265.763 237.648
-20.0519 -0.423649 20.8425 266.773 259.641
-19.1146 4.7667 20.4846 269.009 281.592
-17.7568 9.73356 18.3869 272.333 303.124
-15.6469 14.1974 13.4633 277.833 323.577
-12.4006 17.9009 7.99404 287.69 342.028
-8.27017 20.7526 3.29433 301.423 357.884
-3.55056 22.6779 -0.880153 318.693 369.629
1.65875 22.9008 -4.53572 339.323 373.622
6.75338 21.9412 -0.807894 360.593 369.463
11.0958 19.3665 3.41769 378.423 357.413
14.7165 15.9593 8.15704 392.734 341.262
17.3322 11.8354 13.6544 403.35 322.719
18.7221 7.12069 18.5937 409.842 302.583
19.3316 2.01325 20.7063 413.657 281.608
19.5157 -3.2566 21.0748 416.056 260.256
19.3623 -8.51341 21.5385 417.164 238.848
-16.9434 -14.0024 0.166523 278.773 214.505
-14.6923 -16.1532 -1.56921 287.789 206.816
-11.7473 -17.1684 -2.95979 299.239 203.599
-8.64008 -17.2567 -4.29633 311.153 204.255
-5.61118 -16.6863 -5.52226 322.545 207.713
3.24342 -17.3161 -5.43542 357.07 208.318
6.14406 -18.3113 -4.17859 368.431 205.215
9.21432 -18.6656 -2.80935 380.303 204.822
12.2557 -18.0793 -1.38764 391.675 208.143
14.7675 -16.2699 0.371491 400.675 215.804
-0.800008 -11.6067 -4.9545 339.912 227.657
-0.571382 -8.59445 -7.76035 339.517 241.328
-0.341526 -5.60559 -10.6633 339.116 254.934
-0.111056 -2.62069 -13.4075 338.743 268.51
-3.34691 0.90089 -6.47077 326.307 278.124
-1.6415 1.2941 -7.26957 332.525 280.792
0.142254 1.35258 -8.01839 339.293 281.979
1.89493 1.04463 -7.21848 346.089 280.929
3.5165 0.412997 -6.40175 352.349 278.379
-12.5316 -9.74495 -0.905324 294.183 231.416
-10.6698 -11.0691 -1.10649 301.98 227.132
-8.3451 -11.2534 -1.2279 311.105 227.168
-6.35058 -10.2247 -0.977391 318.646 231.63
-8.3556 -9.50683 -1.10156 310.464 233.591
-10.5048 -9.27615 -1.09011 301.984 233.723
4.83678 -11.0227 -0.887733 361.286 232.18
6.66716 -12.3254 -1.11779 368.79 228
8.99246 -12.4738 -0.968074 377.875 228.125
11.0209 -11.4279 -0.742362 385.52 232.613
9.08377 -10.6753 -0.948989 377.694 234.71
6.92444 -10.5977 -0.987214 369.293 234.357
-6.63855 8.84013 -2.74685 309.499 302.115
-4.73902 6.8457 -4.89305 317.324 295
-2.32888 5.4219 -6.54708 327.768 291.244
0.427259 5.35547 -8.22771 339.066 291.891
3.15408 5.03248 -6.48681 350.66 291.437
5.72158 6.09946 -4.80547 361.292 295.351
7.86034 7.80446 -2.63884 369.294 302.693
6.14905 9.90529 -3.93286 362.942 314.993
3.75933 11.3254 -5.28293 352.754 324.072
0.883179 11.8243 -6.67982 339.147 326.718
-2.0422 11.738 -5.34336 325.705 323.858
-4.62825 10.6744 -4.02161 315.703 314.576
-2.38864 7.57584 -5.20395 326.408 298.984
0.55887 7.21472 -7.41824 339.164 298.985
3.50364 7.15671 -5.14457 352.315 299.207
3.65722 8.62822 -4.49552 353.31 312.021
0.689237 9.10764 -6.42523 339.267 315.264
-2.33557 9.05505 -4.5521 325.537 311.798
3 20 21 23
3 21 22 23
3 0 1 36
3 15 16 45
3 0 17 36
3 16 26 45
3 17 18 37
3 25 26 44
3 17 36 37
3 26 44 45
3 18 19 38
3 24 25 43
3 18 37 38
3 25 43 44
3 19 20 38
3 23 24 43
3 20 21 39
3 22 23 42
3 20 38 39
3 23 42 43
3 21 22 27
3 21 27 39
3 22 27 42
3 27 28 42
3 27 28 39
3 28 42 47
3 28 39 40
3 1 36 41
3 15 45 46
3 1 2 41
3 14 15 46
3 28 29 40
3 28 29 47
3 2 40 41
3 14 46 47
3 2 29 40
3 14 29 47
3 2 3 29
3 13 14 29
3 29 30 31
3 29 30 35
3 3 29 31
3 13 29 35
3 30 32 33
3 30 33 34
3 30 31 32
3 30 34 35
3 3 4 31
3 12 13 35
3 4 5 48
3 11 12 54
3 5 6 48
3 10 11 54
3 6 48 59
3 10 54 55
3 6 7 59
3 9 10 55
3 7 58 59
3 9 55 56
3 8 57 58
3 8 56 57
3 7 8 58
3 8 9 56
3 4 31 48
3 12 35 54
3 31 48 49
3 35 53 54
3 31 49 50
3 35 52 53
3 31 32 50
3 34 35 52
3 32 33 50
3 33 34 52
3 33 50 51
3 33 51 52
3 48 49 60
3 49 60 50
3 50 60 61
3 50 51 61
3 51 52 61
3 61 62 52
3 52 53 62
3 53 54 62
3 54 55 63
3 55 56 63
3 56 63 64
3 56 57 64
3 64 65 57
3 57 58 65
3 58 59 65
3 48 59 65
