ply
format ascii 1.0
element vertex 66
property float x
property float y
property float z
property float u
property float v
element face 91
property list uchar int vertex_indices
end_header
366.469 499.004 0 366.469 499.004
368.249 523.64 0 368.249 523.64
371.515 548.162 0 371.515 548.162
376.058 572.44 0 376.058 572.44
383.933 595.622 0 383.933 595.622
397.588 615.738 0 397.588 615.738
415.594 632.037 0 415.594 632.037
436.68 644.072 0 436.68 644.072
460.561 648.32 0 460.561 648.32
483.995 644.769 0 483.995 644.769
504.6 633.098 0 504.6 633.098
522.013 617.005 0 522.013 617.005
535.185 597.233 0 535.185 597.233
543.185 574.839 0 543.185 574.839
548.339 551.612 0 548.339 551.612
552.338 528.19 0 552.338 528.19
554.672 504.564 0 554.672 504.564
384.562 468.699 0 384.562 468.699
397.461 460.069 0 397.461 460.069
413.171 457.755 0 413.171 457.755
428.969 460.148 0 428.969 460.148
443.917 465.666 0 443.917 465.666
485.625 467.141 0 485.625 467.141
499.705 462.427 0 499.705 462.427
514.517 460.65 0 514.517 460.65
529.172 462.944 0 529.172 462.944
541.085 471.153 0 541.085 471.153
464.972 491.941 0 464.972 491.941
464.888 508.266 0 464.888 508.266
464.801 524.493 0 464.801 524.493
464.675 540.627 0 464.675 540.627
448.861 551.686 0 448.861 551.686
456.158 554.303 0 456.158 554.303
463.88 555.525 0 463.88 555.525
471.224 554.711 0 471.224 554.711
478.176 552.455 0 478.176 552.455
403.901 491.985 0 403.901 491.985
414.412 485.49 0 414.412 485.49
426.998 486.037 0 426.998 486.037
436.596 493.776 0 436.596 493.776
425.609 496.357 0 425.609 496.357
414.145 496.234 0 414.145 496.234
490.379 495.323 0 490.379 495.323
500.234 488.174 0 500.234 488.174
512.667 488.058 0 512.667 488.058
522.626 495.084 0 522.626 495.084
512.373 498.894 0 512.373 498.894
501.066 498.442 0 501.066 498.442
427.207 581.846 0 427.207 581.846
438.29 575.865 0 438.29 575.865
450.354 572.014 0 450.354 572.014
462.761 573.95 0 462.761 573.95
474.751 572.682 0 474.751 572.682
485.999 577.15 0 485.999 577.15
495.868 583.876 0 495.868 583.876
486.521 592.041 0 486.521 592.041
474.665 596.61 0 474.665 596.61
461.919 597.673 0 461.919 597.673
448.853 595.822 0 448.853 595.822
436.828 590.512 0 436.828 590.512
448.58 581.051 0 448.58 581.051
462.492 582.282 0 462.492 582.282
475.822 581.828 0 475.822 581.828
475.938 583.825 0 475.938 583.825
462.386 584.269 0 462.386 584.269
448.354 583.05 0 448.354 583.05
3 20 21 23
3 21 22 23
3 0 1 36
3 15 16 45
3 0 17 36
3 16 26 45
3 17 18 37
3 25 26 44
3 17 36 37
3 26 44 45
3 18 19 38
3 24 25 43
3 18 37 38
3 25 43 44
3 19 20 38
3 23 24 43
3 20 21 39
3 22 23 42
3 20 38 39
3 23 42 43
3 21 22 27
3 21 27 39
3 22 27 42
3 27 28 42
3 27 28 39
3 28 42 47
3 28 39 40
3 1 36 41
3 15 45 46
3 1 2 41
3 14 15 46
3 28 29 40
3 28 29 47
3 2 40 41
3 14 46 47
3 2 29 40
3 14 29 47
3 2 3 29
3 13 14 29
3 29 30 31
3 29 30 35
3 3 29 31
3 13 29 35
3 30 32 33
3 30 33 34
3 30 31 32
3 30 34 35
3 3 4 31
3 12 13 35
3 4 5 48
3 11 12 54
3 5 6 48
3 10 11 54
3 6 48 59
3 10 54 55
3 6 7 59
3 9 10 55
3 7 58 59
3 9 55 56
3 8 57 58
3 8 56 57
3 7 8 58
3 8 9 56
3 4 31 48
3 12 35 54
3 31 48 49
3 35 53 54
3 31 49 50
3 35 52 53
3 31 32 50
3 34 35 52
3 32 33 50
3 33 34 52
3 33 50 51
3 33 51 52
3 48 49 60
3 49 60 50
3 50 60 61
3 50 51 61
3 51 52 61
3 61 62 52
3 52 53 62
3 53 54 62
3 54 55 63
3 55 56 63
3 56 63 64
3 56 57 64
3 64 65 57
3 57 58 65
3 58 59 65
3 48 59 65
