ply
format ascii 1.0
element vertex 66
property float x
property float y
property float z
property float u
property float v
element face 91
property list uchar int vertex_indices
end_header
401.332 522.449 0 401.332 522.449
401.416 546.896 0 401.416 546.896
403.041 571.26 0 403.041 571.26
406.146 596.811 0 406.146 596.811
412.627 623.375 0 412.627 623.375
425.422 647.038 0 425.422 647.038
443.174 665.889 0 443.174 665.889
463.852 680.434 0 463.852 680.434
487.063 688.076 0 487.063 688.076
511.042 682.964 0 511.042 682.964
532.867 670.162 0 532.867 670.162
551.914 652.654 0 551.914 652.654
566.879 630.454 0 566.879 630.454
576.757 605.82 0 576.757 605.82
583.206 582.3 0 583.206 582.3
587.82 559.966 0 587.82 559.966
590.583 537.262 0 590.583 537.262
420.79 512.563 0 420.79 512.563
433.31 504.88 0 433.31 504.88
448.911 503.009 0 448.911 503.009
464.783 506.184 0 464.783 506.184
479.788 512.616 0 479.788 512.616
519.516 516.596 0 519.516 516.596
534.227 512.604 0 534.227 512.604
549.374 511.735 0 549.374 511.735
563.623 515.249 0 563.623 515.249
574.176 523.838 0 574.176 523.838
499.029 540.468 0 499.029 540.468
497.933 557.361 0 497.933 557.361
496.809 574.263 0 496.809 574.263
495.68 590.961 0 495.68 590.961
480.3 598.693 0 480.3 598.693
487.41 601.818 0 487.41 601.818
494.89 603.764 0 494.89 603.764
502.067 602.844 0 502.067 602.844
508.972 600.745 0 508.972 600.745
438.263 536.378 0 438.263 536.378
449.096 530.534 0 449.096 530.534
461.882 531.876 0 461.882 531.876
471.311 539.84 0 471.311 539.84
460.043 542.428 0 460.043 542.428
448.368 541.702 0 448.368 541.702
522.866 544.231 0 522.866 544.231
533.148 537.992 0 533.148 537.992
545.718 538.277 0 545.718 538.277
555.204 545.632 0 555.204 545.632
544.686 549.455 0 544.686 549.455
533.302 548.382 0 533.302 548.382
458.463 625.618 0 458.463 625.618
469.059 621.165 0 469.059 621.165
480.785 618.152 0 480.785 618.152
492.96 621.617 0 492.96 621.617
505.138 619.797 0 505.138 619.797
515.749 624.383 0 515.749 624.383
524.651 630.545 0 524.651 630.545
515.147 637.81 0 515.147 637.81
503.586 642.035 0 503.586 642.035
491.358 643.354 0 491.358 643.354
479.059 640.275 0 479.059 640.275
467.716 634.285 0 467.716 634.285
479.023 626.181 0 479.023 626.181
492.459 629.223 0 492.459 629.223
505.743 628.009 0 505.743 628.009
505.726 629.633 0 505.726 629.633
492.433 630.773 0 492.433 630.773
479.011 627.815 0 479.011 627.815
3 20 21 23
3 21 22 23
3 0 1 36
3 15 16 45
3 0 17 36
3 16 26 45
3 17 18 37
3 25 26 44
3 17 36 37
3 26 44 45
3 18 19 38
3 24 25 43
3 18 37 38
3 25 43 44
3 19 20 38
3 23 24 43
3 20 21 39
3 22 23 42
3 20 38 39
3 23 42 43
3 21 22 27
3 21 27 39
3 22 27 42
3 27 28 42
3 27 28 39
3 28 42 47
3 28 39 40
3 1 36 41
3 15 45 46
3 1 2 41
3 14 15 46
3 28 29 40
3 28 29 47
3 2 40 41
3 14 46 47
3 2 29 40
3 14 29 47
3 2 3 29
3 13 14 29
3 29 30 31
3 29 30 35
3 3 29 31
3 13 29 35
3 30 32 33
3 30 33 34
3 30 31 32
3 30 34 35
3 3 4 31
3 12 13 35
3 4 5 48
3 11 12 54
3 5 6 48
3 10 11 54
3 6 48 59
3 10 54 55
3 6 7 59
3 9 10 55
3 7 58 59
3 9 55 56
3 8 57 58
3 8 56 57
3 7 8 58
3 8 9 56
3 4 31 48
3 12 35 54
3 31 48 49
3 35 53 54
3 31 49 50
3 35 52 53
3 31 32 50
3 34 35 52
3 32 33 50
3 33 34 52
3 33 50 51
3 33 51 52
3 48 49 60
3 49 60 50
3 50 60 61
3 50 51 61
3 51 52 61
3 61 62 52
3 52 53 62
3 53 54 62
3 54 55 63
3 55 56 63
3 56 63 64
3 56 57 64
3 64 65 57
3 57 58 65
3 58 59 65
3 48 59 65
