ply
format ascii 1.0
element vertex 66
property float x
property float y
property float z
property float u
property float v
element face 91
property list uchar int vertex_indices
end_header
-21.1734 -5.6092 21.6961 401.332 522.449
-20.4258 -0.314689 21.2048 401.416 546.896
-19.3478 4.93594 20.7897 403.041 571.26
-17.9736 9.92881 18.5655 406.146 596.811
-15.9343 14.3009 13.5154 412.627 623.375
-12.6436 17.7204 8.00623 425.422 647.038
-8.40897 20.1514 3.3574 443.174 665.889
-3.66468 21.6505 -0.870568 463.852 680.434
1.42954 21.6813 -4.57067 487.063 688.076
6.54092 20.8583 -0.687597 511.042 682.964
10.9675 18.4893 3.56309 532.867 670.162
14.6673 15.2622 8.20782 551.914 652.654
17.3745 11.3298 13.6683 566.879 630.454
18.8988 6.86452 18.5831 576.757 605.82
19.6357 2.03592 20.7975 583.206 582.3
19.9542 -2.98033 21.0947 587.82 559.966
19.8685 -7.98811 21.5275 590.583 537.262
-17.9842 -14.0467 0.218093 420.79 512.563
-15.5882 -16.5836 -1.52373 433.31 504.88
-12.3424 -17.824 -2.89452 448.911 503.009
-8.88215 -17.9329 -4.19154 464.783 506.184
-5.50575 -17.2685 -5.39561 479.788 512.616
3.13623 -17.5757 -5.43465 519.516 516.596
6.21077 -18.5624 -4.15871 534.227 512.604
9.47608 -18.8516 -2.81792 549.374 511.735
12.6852 -18.1185 -1.39089 563.623 515.249
15.2678 -16.0511 0.407504 574.176 523.838
-0.512663 -11.5181 -4.86698 499.029 540.468
-0.324898 -8.49962 -7.76333 497.933 557.361
-0.146706 -5.50901 -10.7763 496.809 574.263
0.029743 -2.51912 -13.6203 495.68 590.961
-2.81059 1.50469 -6.60493 480.3 598.693
-1.21513 1.77903 -7.39369 487.41 601.818
0.424782 1.7906 -8.14508 494.89 603.764
1.96335 1.59836 -7.29136 502.067 602.844
3.40611 1.13942 -6.48684 508.972 600.745
-13.5392 -9.51897 -0.69029 438.263 536.378
-11.4053 -11.2361 -1.06137 449.096 530.534
-8.63034 -11.3888 -1.32964 461.882 531.876
-6.35623 -9.82858 -1.05455 471.311 539.84
-8.69827 -8.95243 -1.18028 460.043 542.428
-11.2212 -8.73687 -1.06679 448.368 541.702
4.83664 -10.3853 -1.0536 522.866 544.231
6.84525 -12.1315 -1.2654 533.148 537.992
9.55999 -12.3618 -0.962653 545.718 538.277
11.8321 -10.9018 -0.548854 555.204 545.632
9.67924 -9.851 -0.967086 544.686 549.455
7.19987 -9.79026 -1.11572 533.302 548.382
-6.55402 9.12406 -2.83677 458.463 625.618
-4.48787 7.23223 -5.06783 469.059 621.165
-2.11721 5.77786 -6.72586 480.785 618.152
0.547173 5.74631 -8.38962 492.96 621.617
3.16277 5.46882 -6.53862 505.138 619.797
5.63179 6.61053 -4.87439 515.749 624.383
7.79867 8.29161 -2.68417 524.651 630.545
5.94338 9.86954 -3.88613 515.147 637.81
3.54978 10.7992 -5.21945 503.586 642.035
0.920765 11.0723 -6.67191 491.358 643.354
-1.77037 11.0929 -5.38748 479.059 640.275
-4.34414 10.4495 -4.06354 467.716 634.285
-2.20827 7.96118 -5.4032 479.023 626.181
0.700168 7.68729 -7.48845 492.459 629.223
3.5868 7.63724 -5.16006 505.743 628.009
3.65453 8.17929 -4.47371 505.726 629.633
0.774432 8.30301 -6.46144 492.433 630.773
-2.13834 8.51266 -4.68877 479.011 627.815
3 20 21 23
3 21 22 23
3 0 1 36
3 15 16 45
3 0 17 36
3 16 26 45
3 17 18 37
3 25 26 44
3 17 36 37
3 26 44 45
3 18 19 38
3 24 25 43
3 18 37 38
3 25 43 44
3 19 20 38
3 23 24 43
3 20 21 39
3 22 23 42
3 20 38 39
3 23 42 43
3 21 22 27
3 21 27 39
3 22 27 42
3 27 28 42
3 27 28 39
3 28 42 47
3 28 39 40
3 1 36 41
3 15 45 46
3 1 2 41
3 14 15 46
3 28 29 40
3 28 29 47
3 2 40 41
3 14 46 47
3 2 29 40
3 14 29 47
3 2 3 29
3 13 14 29
3 29 30 31
3 29 30 35
3 3 29 31
3 13 29 35
3 30 32 33
3 30 33 34
3 30 31 32
3 30 34 35
3 3 4 31
3 12 13 35
3 4 5 48
3 11 12 54
3 5 6 48
3 10 11 54
3 6 48 59
3 10 54 55
3 6 7 59
3 9 10 55
3 7 58 59
3 9 55 56
3 8 57 58
3 8 56 57
3 7 8 58
3 8 9 56
3 4 31 48
3 12 35 54
3 31 48 49
3 35 53 54
3 31 49 50
3 35 52 53
3 31 32 50
3 34 35 52
3 32 33 50
3 33 34 52
3 33 50 51
3 33 51 52
3 48 49 60
3 49 60 50
3 50 60 61
3 50 51 61
3 51 52 61
3 61 62 52
3 52 53 62
3 53 54 62
3 54 55 63
3 55 56 63
3 56 63 64
3 56 57 64
3 64 65 57
3 57 58 65
3 58 59 65
3 48 59 65
