ply
format ascii 1.0
element vertex 66
property float x
property float y
property float z
property float u
property float v
element face 91
property list uchar int vertex_indices
end_header
-19.8968 -5.58891 21.3247 302.69 323.131
-19.1662 -0.415728 20.7239 306.598 364.971
-18.1175 4.73162 20.3525 313.101 406.419
-16.8302 9.67867 18.3978 321.282 448.51
-14.9511 14.1912 13.4453 333.776 491.435
-12.0271 18.1514 8.014 354.725 531.048
-8.22771 21.4581 3.20442 383.015 565.007
-3.66163 23.7366 -0.942941 417.919 590.265
1.54426 24.1379 -4.58219 458.692 600.292
6.70955 23.1722 -0.906893 501.004 589.69
11.0196 20.4038 3.2891 537.212 563.863
14.4109 16.6475 8.13182 566.549 529.036
16.776 12.2836 13.617 588.019 488.169
17.9127 7.41362 18.6673 599.769 443.436
18.43 2.12862 20.6433 606.132 399.336
18.7174 -3.32724 21.0948 610.43 355.854
18.6833 -8.76657 21.6903 612.179 312.188
-16.7177 -13.9806 0.261291 327.055 286.565
-14.5463 -16.2126 -1.6165 344.836 272.329
-11.7135 -17.403 -2.96477 367.636 265.836
-8.66771 -17.6673 -4.23434 391.829 266.613
-5.69238 -17.1936 -5.40763 415.217 273.049
3.03546 -17.9003 -5.32559 485.227 270.67
5.95863 -18.8642 -4.1235 509.153 262.563
9.06024 -19.0826 -2.82253 534.262 260.264
12.091 -18.3191 -1.44034 558.475 265.565
14.6138 -16.4145 0.4451 578.324 278.986
-0.850085 -11.5946 -4.81154 452.06 318.187
-0.524862 -8.02588 -7.88166 452.825 350.556
-0.203712 -4.47188 -10.8781 453.576 382.709
0.111178 -0.903358 -13.4852 454.347 414.45
-3.29772 1.73457 -6.7732 427.449 424.911
-1.56635 2.29787 -7.40827 440.967 430.858
0.281349 2.44223 -7.92792 455.584 433.393
2.08793 2.02342 -7.38683 470.27 430.048
3.72038 1.20094 -6.76491 483.722 423.349
-12.5979 -9.79303 -0.689793 358.327 322.393
-10.6787 -11.1917 -1.11379 374.075 312.67
-8.29062 -11.3396 -1.46818 393.144 312.884
-6.27337 -10.1713 -1.24353 408.896 322.548
-8.35735 -9.58512 -1.18285 392.048 326.297
-10.5331 -9.38239 -1.06016 374.613 326.907
4.67378 -11.0108 -1.07358 496.705 319.844
6.50489 -12.5133 -1.36915 511.81 309.097
8.90059 -12.7289 -1.00817 531.099 307.818
11.0298 -11.6605 -0.565745 547.822 316.444
9.04997 -10.9221 -0.917688 531.675 321.987
6.85305 -10.7753 -1.02423 514.047 322.457
-7.17787 7.7923 -2.52284 395.119 465.449
-5.21689 5.63534 -4.84622 411.108 452.324
-2.53404 4.40906 -6.49491 432.666 445.896
0.408394 4.25884 -8.2819 455.894 448.229
3.32141 3.99217 -6.49419 479.605 444.824
6.13569 4.83249 -4.79929 502.12 450.227
8.36408 6.66759 -2.39943 519.738 462.297
6.7112 9.49678 -3.79501 505.272 485.839
4.16649 11.567 -5.09798 483.963 502.941
0.897152 12.2536 -6.61981 457.307 509.162
-2.41844 12.0248 -5.11137 431.177 504.076
-5.19428 10.345 -3.8149 409.83 488.048
-2.78322 6.5978 -5.06262 430.177 461.117
0.52234 6.24638 -7.49797 456.255 462.876
3.79564 6.13093 -5.06271 482.914 459.926
4.1175 8.63933 -4.38459 484.734 478.897
0.702068 9.35335 -6.24242 456.838 485.731
-2.79855 9.12957 -4.37254 429.296 480.129
3 20 21 23
3 21 22 23
3 0 1 36
3 15 16 45
3 0 17 36
3 16 26 45
3 17 18 37
3 25 26 44
3 17 36 37
3 26 44 45
3 18 19 38
3 24 25 43
3 18 37 38
3 25 43 44
3 19 20 38
3 23 24 43
3 20 21 39
3 22 23 42
3 20 38 39
3 23 42 43
3 21 22 27
3 21 27 39
3 22 27 42
3 27 28 42
3 27 28 39
3 28 42 47
3 28 39 40
3 1 36 41
3 15 45 46
3 1 2 41
3 14 15 46
3 28 29 40
3 28 29 47
3 2 40 41
3 14 46 47
3 2 29 40
3 14 29 47
3 2 3 29
3 13 14 29
3 29 30 31
3 29 30 35
3 3 29 31
3 13 29 35
3 30 32 33
3 30 33 34
3 30 31 32
3 30 34 35
3 3 4 31
3 12 13 35
3 4 5 48
3 11 12 54
3 5 6 48
3 10 11 54
3 6 48 59
3 10 54 55
3 6 7 59
3 9 10 55
3 7 58 59
3 9 55 56
3 8 57 58
3 8 56 57
3 7 8 58
3 8 9 56
3 4 31 48
3 12 35 54
3 31 48 49
3 35 53 54
3 31 49 50
3 35 52 53
3 31 32 50
3 34 35 52
3 32 33 50
3 33 34 52
3 33 50 51
3 33 51 52
3 48 49 60
3 49 60 50
3 50 60 61
3 50 51 61
3 51 52 61
3 61 62 52
3 52 53 62
3 53 54 62
3 54 55 63
3 55 56 63
3 56 63 64
3 56 57 64
3 64 65 57
3 57 58 65
3 58 59 65
3 48 59 65
