ply
format ascii 1.0
element vertex 66
property float x
property float y
property float z
property float u
property float v
element face 91
property list uchar int vertex_indices
end_header
302.69 323.131 0 302.69 323.131
306.598 364.971 0 306.598 364.971
313.101 406.419 0 313.101 406.419
321.282 448.51 0 321.282 448.51
333.776 491.435 0 333.776 491.435
354.725 531.048 0 354.725 531.048
383.015 565.007 0 383.015 565.007
417.919 590.265 0 417.919 590.265
458.692 600.292 0 458.692 600.292
501.004 589.69 0 501.004 589.69
537.212 563.863 0 537.212 563.863
566.549 529.036 0 566.549 529.036
588.019 488.169 0 588.019 488.169
599.769 443.436 0 599.769 443.436
606.132 399.336 0 606.132 399.336
610.43 355.854 0 610.43 355.854
612.179 312.188 0 612.179 312.188
327.055 286.565 0 327.055 286.565
344.836 272.329 0 344.836 272.329
367.636 265.836 0 367.636 265.836
391.829 266.613 0 391.829 266.613
415.217 273.049 0 415.217 273.049
485.227 270.67 0 485.227 270.67
509.153 262.563 0 509.153 262.563
534.262 260.264 0 534.262 260.264
558.475 265.565 0 558.475 265.565
578.324 278.986 0 578.324 278.986
452.06 318.187 0 452.06 318.187
452.825 350.556 0 452.825 350.556
453.576 382.709 0 453.576 382.709
454.347 414.45 0 454.347 414.45
427.449 424.911 0 427.449 424.911
440.967 430.858 0 440.967 430.858
455.584 433.393 0 455.584 433.393
470.27 430.048 0 470.27 430.048
483.722 423.349 0 483.722 423.349
358.327 322.393 0 358.327 322.393
374.075 312.67 0 374.075 312.67
393.144 312.884 0 393.144 312.884
408.896 322.548 0 408.896 322.548
392.048 326.297 0 392.048 326.297
374.613 326.907 0 374.613 326.907
496.705 319.844 0 496.705 319.844
511.81 309.097 0 511.81 309.097
531.099 307.818 0 531.099 307.818
547.822 316.444 0 547.822 316.444
531.675 321.987 0 531.675 321.987
514.047 322.457 0 514.047 322.457
395.119 465.449 0 395.119 465.449
411.108 452.324 0 411.108 452.324
432.666 445.896 0 432.666 445.896
455.894 448.229 0 455.894 448.229
479.605 444.824 0 479.605 444.824
502.12 450.227 0 502.12 450.227
519.738 462.297 0 519.738 462.297
505.272 485.839 0 505.272 485.839
483.963 502.941 0 483.963 502.941
457.307 509.162 0 457.307 509.162
431.177 504.076 0 431.177 504.076
409.83 488.048 0 409.83 488.048
430.177 461.117 0 430.177 461.117
456.255 462.876 0 456.255 462.876
482.914 459.926 0 482.914 459.926
484.734 478.897 0 484.734 478.897
456.838 485.731 0 456.838 485.731
429.296 480.129 0 429.296 480.129
3 20 21 23
3 21 22 23
3 0 1 36
3 15 16 45
3 0 17 36
3 16 26 45
3 17 18 37
3 25 26 44
3 17 36 37
3 26 44 45
3 18 19 38
3 24 25 43
3 18 37 38
3 25 43 44
3 19 20 38
3 23 24 43
3 20 21 39
3 22 23 42
3 20 38 39
3 23 42 43
3 21 22 27
3 21 27 39
3 22 27 42
3 27 28 42
3 27 28 39
3 28 42 47
3 28 39 40
3 1 36 41
3 15 45 46
3 1 2 41
3 14 15 46
3 28 29 40
3 28 29 47
3 2 40 41
3 14 46 47
3 2 29 40
3 14 29 47
3 2 3 29
3 13 14 29
3 29 30 31
3 29 30 35
3 3 29 31
3 13 29 35
3 30 32 33
3 30 33 34
3 30 31 32
3 30 34 35
3 3 4 31
3 12 13 35
3 4 5 48
3 11 12 54
3 5 6 48
3 10 11 54
3 6 48 59
3 10 54 55
3 6 7 59
3 9 10 55
3 7 58 59
3 9 55 56
3 8 57 58
3 8 56 57
3 7 8 58
3 8 9 56
3 4 31 48
3 12 35 54
3 31 48 49
3 35 53 54
3 31 49 50
3 35 52 53
3 31 32 50
3 34 35 52
3 32 33 50
3 33 34 52
3 33 50 51
3 33 51 52
3 48 49 60
3 49 60 50
3 50 60 61
3 50 51 61
3 51 52 61
3 61 62 52
3 52 53 62
3 53 54 62
3 54 55 63
3 55 56 63
3 56 63 64
3 56 57 64
3 64 65 57
3 57 58 65
3 58 59 65
3 48 59 65
