ply
format ascii 1.0
element vertex 66
property float x
property float y
property float z
property float u
property float v
element face 91
property list uchar int vertex_indices
end_header
243.509 177.57 0 243.509 177.57
245.182 200.312 0 245.182 200.312
248.133 222.953 0 248.133 222.953
252.372 245.015 0 252.372 245.015
259.104 265.48 0 259.104 265.48
270.311 283.615 0 270.311 283.615
285.384 298.97 0 285.384 298.97
303.873 310.126 0 303.873 310.126
325.563 313.371 0 325.563 313.371
346.953 309.049 0 346.953 309.049
364.657 296.849 0 364.657 296.849
378.535 280.557 0 378.535 280.557
388.533 261.953 0 388.533 261.953
394.479 241.804 0 394.479 241.804
397.936 220.556 0 397.936 220.556
400.031 198.848 0 400.031 198.848
400.808 177.122 0 400.808 177.122
258.533 148.947 0 258.533 148.947
268.079 140.237 0 268.079 140.237
280.311 136.29 0 280.311 136.29
293.147 136.616 0 293.147 136.616
305.42 140.168 0 305.42 140.168
338.083 140.693 0 338.083 140.693
350.05 137.154 0 350.05 137.154
362.646 136.708 0 362.646 136.708
374.722 140.388 0 374.722 140.388
384.207 148.815 0 384.207 148.815
322.564 161.475 0 322.564 161.475
322.674 175.227 0 322.674 175.227
322.76 188.944 0 322.76 188.944
322.87 202.668 0 322.87 202.668
310.186 213.679 0 310.186 213.679
316.531 216.225 0 316.531 216.225
323.409 217.227 0 323.409 217.227
330.19 216.074 0 330.19 216.074
336.338 213.375 0 336.338 213.375
275.273 167.661 0 275.273 167.661
283.142 163.31 0 283.142 163.31
292.379 163.033 0 292.379 163.033
300.238 167.043 0 300.238 167.043
291.944 169.163 0 291.944 169.163
283.345 169.526 0 283.345 169.526
344.271 167.032 0 344.271 167.032
351.987 163.151 0 351.987 163.151
361.088 163.298 0 361.088 163.298
368.839 167.574 0 368.839 167.574
360.848 169.44 0 360.848 169.44
352.377 169.114 0 352.377 169.114
293.066 239.41 0 293.066 239.41
301.245 232.031 0 301.245 232.031
311.927 227.91 0 311.927 227.91
323.529 228.099 0 323.529 228.099
335.147 227.645 0 335.147 227.645
345.931 231.455 0 345.931 231.455
354.267 238.735 0 354.267 238.735
347.99 250.717 0 347.99 250.717
337.915 259.595 0 337.915 259.595
324.407 262.311 0 324.407 262.311
310.631 259.957 0 310.631 259.957
300.091 251.268 0 300.091 251.268
310.872 235.811 0 310.872 235.811
323.77 235.274 0 323.77 235.274
336.758 235.489 0 336.758 235.489
338.087 247.929 0 338.087 247.929
324.199 251.162 0 324.199 251.162
310.24 248.26 0 310.24 248.26
3 20 21 23
3 21 22 23
3 0 1 36
3 15 16 45
3 0 17 36
3 16 26 45
3 17 18 37
3 25 26 44
3 17 36 37
3 26 44 45
3 18 19 38
3 24 25 43
3 18 37 38
3 25 43 44
3 19 20 38
3 23 24 43
3 20 21 39
3 22 23 42
3 20 38 39
3 23 42 43
3 21 22 27
3 21 27 39
3 22 27 42
3 27 28 42
3 27 28 39
3 28 42 47
3 28 39 40
3 1 36 41
3 15 45 46
3 1 2 41
3 14 15 46
3 28 29 40
3 28 29 47
3 2 40 41
3 14 46 47
3 2 29 40
3 14 29 47
3 2 3 29
3 13 14 29
3 29 30 31
3 29 30 35
3 3 29 31
3 13 29 35
3 30 32 33
3 30 33 34
3 30 31 32
3 30 34 35
3 3 4 31
3 12 13 35
3 4 5 48
3 11 12 54
3 5 6 48
3 10 11 54
3 6 48 59
3 10 54 55
3 6 7 59
3 9 10 55
3 7 58 59
3 9 55 56
3 8 57 58
3 8 56 57
3 7 8 58
3 8 9 56
3 4 31 48
3 12 35 54
3 31 48 49
3 35 53 54
3 31 49 50
3 35 52 53
3 31 32 50
3 34 35 52
3 32 33 50
3 33 34 52
3 33 50 51
3 33 51 52
3 48 49 60
3 49 60 50
3 50 60 61
3 50 51 61
3 51 52 61
3 61 62 52
3 52 53 62
3 53 54 62
3 54 55 63
3 55 56 63
3 56 63 64
3 56 57 64
3 64 65 57
3 57 58 65
3 58 59 65
3 48 59 65
