ply
format ascii 1.0
element vertex 66
property float x
property float y
property float z
property float u
property float v
element face 91
property list uchar int vertex_indices
end_header
244.32 196.972 0 244.32 196.972
244.77 225.817 0 244.77 225.817
247.166 254.569 0 247.166 254.569
250.647 283.297 0 250.647 283.297
256.692 312.07 0 256.692 312.07
268.09 339.448 0 268.09 339.448
284.84 363.872 0 284.84 363.872
306.639 383.059 0 306.639 383.059
333.975 390.951 0 333.975 390.951
362.09 385.989 0 362.09 385.989
385.809 369.202 0 385.809 369.202
404.976 346.59 0 404.976 346.59
419.106 320.503 0 419.106 320.503
428.105 292.572 0 428.105 292.572
434.571 264.5 0 434.571 264.5
439.974 236.318 0 439.974 236.318
443.445 207.832 0 443.445 207.832
264.793 164.166 0 264.793 164.166
277.206 156.19 0 277.206 156.19
292.162 153.343 0 292.162 153.343
307.514 154.726 0 307.514 154.726
322.132 159.533 0 322.132 159.533
370.486 162.27 0 370.486 162.27
385.527 159.226 0 385.527 159.226
400.899 159.646 0 400.899 159.646
415.369 164.249 0 415.369 164.249
426.676 173.641 0 426.676 173.641
344.604 192.452 0 344.604 192.452
343.529 212.459 0 343.529 212.459
342.461 232.356 0 342.461 232.356
341.403 252.122 0 341.403 252.122
324.556 267.928 0 324.556 267.928
332.239 270.582 0 332.239 270.582
340.349 271.984 0 340.349 271.984
348.529 271.477 0 348.529 271.477
356.396 269.672 0 356.396 269.672
282.042 191.701 0 282.042 191.701
292.93 184.681 0 292.93 184.681
306.13 185.844 0 306.13 185.844
315.65 194.503 0 315.65 194.503
304.262 197.576 0 304.262 197.576
292.25 197.146 0 292.25 197.146
372.745 197.778 0 372.745 197.778
383.139 190.267 0 383.139 190.267
396.362 190.563 0 396.362 190.563
406.375 198.755 0 406.375 198.755
395.645 203.008 0 395.645 203.008
383.689 202.089 0 383.689 202.089
303.925 309.794 0 303.925 309.794
314.025 302.163 0 314.025 302.163
325.882 296.313 0 325.882 296.313
338.782 298.859 0 338.782 298.859
351.918 297.744 0 351.918 297.744
363.057 304.849 0 363.057 304.849
372.241 313.562 0 372.241 313.562
363.399 324.994 0 363.399 324.994
351.263 332.488 0 351.263 332.488
336.904 334.469 0 336.904 334.469
322.846 330.925 0 322.846 330.925
311.559 322.133 0 311.559 322.133
324.77 308.525 0 324.77 308.525
338.24 309.746 0 338.24 309.746
351.735 310.013 0 351.735 310.013
351.573 314.633 0 351.573 314.633
337.912 316.123 0 337.912 316.123
324.494 313.135 0 324.494 313.135
3 20 21 23
3 21 22 23
3 0 1 36
3 15 16 45
3 0 17 36
3 16 26 45
3 17 18 37
3 25 26 44
3 17 36 37
3 26 44 45
3 18 19 38
3 24 25 43
3 18 37 38
3 25 43 44
3 19 20 38
3 23 24 43
3 20 21 39
3 22 23 42
3 20 38 39
3 23 42 43
3 21 22 27
3 21 27 39
3 22 27 42
3 27 28 42
3 27 28 39
3 28 42 47
3 28 39 40
3 1 36 41
3 15 45 46
3 1 2 41
3 14 15 46
3 28 29 40
3 28 29 47
3 2 40 41
3 14 46 47
3 2 29 40
3 14 29 47
3 2 3 29
3 13 14 29
3 29 30 31
3 29 30 35
3 3 29 31
3 13 29 35
3 30 32 33
3 30 33 34
3 30 31 32
3 30 34 35
3 3 4 31
3 12 13 35
3 4 5 48
3 11 12 54
3 5 6 48
3 10 11 54
3 6 48 59
3 10 54 55
3 6 7 59
3 9 10 55
3 7 58 59
3 9 55 56
3 8 57 58
3 8 56 57
3 7 8 58
3 8 9 56
3 4 31 48
3 12 35 54
3 31 48 49
3 35 53 54
3 31 49 50
3 35 52 53
3 31 32 50
3 34 35 52
3 32 33 50
3 33 34 52
3 33 50 51
3 33 51 52
3 48 49 60
3 49 60 50
3 50 60 61
3 50 51 61
3 51 52 61
3 61 62 52
3 52 53 62
3 53 54 62
3 54 55 63
3 55 56 63
3 56 63 64
3 56 57 64
3 64 65 57
3 57 58 65
3 58 59 65
3 48 59 65
