ply
format ascii 1.0
element vertex 66
property float x
property float y
property float z
property float u
property float v
element face 91
property list uchar int vertex_indices
end_header
-20.3024 -4.74771 21.3057 375.571 558.65
-19.5656 0.233251 20.7689 377.976 587.099
-18.4636 5.16824 20.3933 382.488 615.223
-17.0476 9.83578 18.3076 388.627 644.143
-14.9805 13.9357 13.4596 398.252 673.65
-11.8878 17.3088 7.96671 413.842 700.33
-7.96187 19.919 3.22653 434.518 722.149
-3.48181 21.7067 -0.951411 458.691 738.919
1.49199 21.8263 -4.45031 486.324 745.799
6.47649 20.9998 -0.750551 515.363 738.374
10.6923 18.5612 3.4346 540.665 721.157
14.1751 15.3157 8.19269 562.17 698.494
16.6624 11.4132 13.6745 578.363 670.93
18.0075 6.96479 18.554 588.187 640.697
18.6843 2.06352 20.5857 593.974 611.314
19.0449 -3.04695 20.9375 597.802 582.781
19.0236 -8.14538 21.4867 599.491 553.927
-16.8448 -15.7733 0.36291 395.92 525.45
-14.4024 -17.9639 -1.34675 410.255 516.397
-11.2993 -18.9893 -2.71693 427.984 513.59
-8.05229 -19.0569 -3.9972 446.216 516.01
-4.93247 -18.3374 -5.25767 463.462 522.705
2.7409 -18.9576 -5.22997 507.138 522.03
5.74265 -20.0067 -3.97038 524.676 515.736
8.95365 -20.2921 -2.67448 543.144 513.69
12.1098 -19.5475 -1.27212 560.967 517.177
14.6924 -17.5602 0.522899 575.175 526.823
-0.737246 -11.6476 -4.80137 485.017 560.592
-0.477749 -8.34119 -7.62744 484.962 582.511
-0.222515 -5.07467 -10.6739 484.865 604.485
0.0259046 -1.81369 -13.6101 484.746 626.288
-2.97276 2.08131 -6.69546 467.423 637.982
-1.38578 2.40513 -7.38987 476.203 641.222
0.267678 2.41289 -8.01852 485.476 642.658
1.87191 2.19593 -7.32353 494.735 641.165
3.35585 1.67328 -6.60331 503.419 637.908
-12.7858 -10.0656 -0.54079 416.843 559.58
-10.8123 -11.8906 -0.95608 428.582 550.743
-8.11895 -11.9176 -1.29941 443.797 552.005
-6.0611 -10.0772 -1.01741 454.868 562.557
-8.25158 -9.17837 -1.16106 442.135 566.907
-10.6425 -9.02588 -1.01152 428.563 566.693
4.48357 -10.7497 -0.936828 514.832 562.568
6.27046 -12.8426 -1.23014 525.622 552.03
8.93181 -13.1852 -0.895212 540.86 550.681
11.1149 -11.6283 -0.489373 552.754 559.558
9.14474 -10.3252 -0.934539 541.089 566.6
6.76833 -10.1657 -1.08905 527.553 566.814
-6.19632 9.78818 -2.81186 447.1 674.468
-4.20324 8.07494 -5.08664 458.647 668.602
-2.01056 6.68201 -6.70784 471.308 663.751
0.45901 6.62877 -8.45153 485.066 666.554
2.90402 6.36353 -6.66439 499.259 663.721
5.23332 7.4586 -5.00367 512.316 668.517
7.38208 8.90153 -2.65453 524.331 674.3
5.61204 10.5364 -4.00497 513.558 684.39
3.329 11.5774 -5.18919 500.105 690.804
0.774911 11.9146 -6.46302 485.343 693.347
-1.80282 11.9013 -5.28497 470.915 690.851
-4.21385 11.1626 -4.16742 457.669 684.487
-1.98552 8.86801 -5.25465 470.915 673.997
0.577027 8.52672 -7.61351 485.209 676.019
3.12747 8.55357 -5.14353 499.997 673.976
3.14901 8.99446 -4.55795 500.052 675.679
0.594068 9.08773 -6.52111 485.27 677.745
-1.96722 9.31323 -4.67637 470.949 675.733
3 20 21 23
3 21 22 23
3 0 1 36
3 15 16 45
3 0 17 36
3 16 26 45
3 17 18 37
3 25 26 44
3 17 36 37
3 26 44 45
3 18 19 38
3 24 25 43
3 18 37 38
3 25 43 44
3 19 20 38
3 23 24 43
3 20 21 39
3 22 23 42
3 20 38 39
3 23 42 43
3 21 22 27
3 21 27 39
3 22 27 42
3 27 28 42
3 27 28 39
3 28 42 47
3 28 39 40
3 1 36 41
3 15 45 46
3 1 2 41
3 14 15 46
3 28 29 40
3 28 29 47
3 2 40 41
3 14 46 47
3 2 29 40
3 14 29 47
3 2 3 29
3 13 14 29
3 29 30 31
3 29 30 35
3 3 29 31
3 13 29 35
3 30 32 33
3 30 33 34
3 30 31 32
3 30 34 35
3 3 4 31
3 12 13 35
3 4 5 48
3 11 12 54
3 5 6 48
3 10 11 54
3 6 48 59
3 10 54 55
3 6 7 59
3 9 10 55
3 7 58 59
3 9 55 56
3 8 57 58
3 8 56 57
3 7 8 58
3 8 9 56
3 4 31 48
3 12 35 54
3 31 48 49
3 35 53 54
3 31 49 50
3 35 52 53
3 31 32 50
3 34 35 52
3 32 33 50
3 33 34 52
3 33 50 51
3 33 51 52
3 48 49 60
3 49 60 50
3 50 60 61
3 50 51 61
3 51 52 61
3 61 62 52
3 52 53 62
3 53 54 62
3 54 55 63
3 55 56 63
3 56 63 64
3 56 57 64
3 64 65 57
3 57 58 65
3 58 59 65
3 48 59 65
