ply
format ascii 1.0
element vertex 66
property float x
property float y
property float z
property float u
property float v
element face 91
property list uchar int vertex_indices
end_header
385.507 324.415 0 385.507 324.415
386.859 350.41 0 386.859 350.41
389.471 376.401 0 389.471 376.401
394.039 401.45 0 394.039 401.45
402.275 424.143 0 402.275 424.143
416.238 443.609 0 416.238 443.609
434.541 459.665 0 434.541 459.665
456.43 470.916 0 456.43 470.916
481.57 473.677 0 481.57 473.677
506.54 469.346 0 506.54 469.346
527.561 456.454 0 527.561 456.454
544.749 439.123 0 544.749 439.123
557.695 418.919 0 557.695 418.919
565.151 396.235 0 565.151 396.235
568.791 371.628 0 568.791 371.628
570.216 346.206 0 570.216 346.206
570.232 320.81 0 570.232 320.81
405.514 310.427 0 405.514 310.427
417.255 301.934 0 417.255 301.934
431.465 298.922 0 431.465 298.922
445.945 299.558 0 445.945 299.558
460.123 302.311 0 460.123 302.311
497.223 301.519 0 497.223 301.519
510.57 298.355 0 510.57 298.355
524.333 297.118 0 524.333 297.118
538.061 299.146 0 538.061 299.146
549.783 306.545 0 549.783 306.545
478.813 304.551 0 478.813 304.551
479.049 320.103 0 479.049 320.103
479.286 335.568 0 479.286 335.568
479.513 351.048 0 479.513 351.048
463.046 363.736 0 463.046 363.736
471.084 367.284 0 471.084 367.284
479.94 368.658 0 479.94 368.658
488.549 367.004 0 488.549 367.004
496.239 363.195 0 496.239 363.195
425.364 314.32 0 425.364 314.32
435.07 309.496 0 435.07 309.496
445.989 308.658 0 445.989 308.658
455.825 312.635 0 455.825 312.635
445.676 314.106 0 445.676 314.106
435.371 314.974 0 435.371 314.974
500.973 311.758 0 500.973 311.758
510.551 307.49 0 510.551 307.49
521.417 307.772 0 521.417 307.772
531.184 312.277 0 531.184 312.277
521.295 313.369 0 521.295 313.369
511.046 312.863 0 511.046 312.863
443.356 392.248 0 443.356 392.248
452.818 383.166 0 452.818 383.166
465.883 378.924 0 465.883 378.924
479.828 379.389 0 479.828 379.389
493.645 378.394 0 493.645 378.394
506.639 382.117 0 506.639 382.117
516.087 390.983 0 516.087 390.983
508.312 403.795 0 508.312 403.795
496.283 412.822 0 496.283 412.822
480.545 415.225 0 480.545 415.225
464.596 413.378 0 464.596 413.378
451.972 404.793 0 451.972 404.793
464.054 386.955 0 464.054 386.955
480.018 386.428 0 480.018 386.428
495.823 386.397 0 495.823 386.397
496.937 399.497 0 496.937 399.497
480.392 402.955 0 480.392 402.955
463.534 400.135 0 463.534 400.135
3 20 21 23
3 21 22 23
3 0 1 36
3 15 16 45
3 0 17 36
3 16 26 45
3 17 18 37
3 25 26 44
3 17 36 37
3 26 44 45
3 18 19 38
3 24 25 43
3 18 37 38
3 25 43 44
3 19 20 38
3 23 24 43
3 20 21 39
3 22 23 42
3 20 38 39
3 23 42 43
3 21 22 27
3 21 27 39
3 22 27 42
3 27 28 42
3 27 28 39
3 28 42 47
3 28 39 40
3 1 36 41
3 15 45 46
3 1 2 41
3 14 15 46
3 28 29 40
3 28 29 47
3 2 40 41
3 14 46 47
3 2 29 40
3 14 29 47
3 2 3 29
3 13 14 29
3 29 30 31
3 29 30 35
3 3 29 31
3 13 29 35
3 30 32 33
3 30 33 34
3 30 31 32
3 30 34 35
3 3 4 31
3 12 13 35
3 4 5 48
3 11 12 54
3 5 6 48
3 10 11 54
3 6 48 59
3 10 54 55
3 6 7 59
3 9 10 55
3 7 58 59
3 9 55 56
3 8 57 58
3 8 56 57
3 7 8 58
3 8 9 56
3 4 31 48
3 12 35 54
3 31 48 49
3 35 53 54
3 31 49 50
3 35 52 53
3 31 32 50
3 34 35 52
3 32 33 50
3 33 34 52
3 33 50 51
3 33 51 52
3 48 49 60
3 49 60 50
3 50 60 61
3 50 51 61
3 51 52 61
3 61 62 52
3 52 53 62
3 53 54 62
3 54 55 63
3 55 56 63
3 56 63 64
3 56 57 64
3 64 65 57
3 57 58 65
3 58 59 65
3 48 59 65
