ply
format ascii 1.0
element vertex 66
property float x
property float y
property float z
property float u
property float v
element face 91
property list uchar int vertex_indices
end_header
-21.9151 -6.17534 21.7396 332.063 373.8
-21.658 -0.723055 21.5134 330.358 407.987
-21.2276 4.74168 21.3138 329.742 442.329
-20.2462 10.0188 18.3943 332.157 479.064
-18.2254 14.9021 13.3841 340.934 516.48
-14.3391 18.4799 7.88286 362.153 547.564
-9.13476 20.3289 3.38012 392.922 567.597
-3.64054 21.1213 -0.780259 426.224 580.866
1.75981 20.9603 -4.84241 459.527 588.056
6.94234 20.2081 -0.666849 493.493 581.735
12.0696 18.5338 3.58914 527.682 569.575
16.7427 15.9046 8.16723 559.65 550.838
19.8782 11.8185 13.6981 582.997 520.988
21.0808 6.79179 18.7 594.62 484.722
21.2631 1.56809 21.5835 599.499 449.093
20.9211 -3.75912 21.7105 600.574 415.744
20.4228 -9.04189 21.9524 600.66 382.436
-18.1873 -12.479 0.0805625 354.931 362.656
-15.7543 -15.0794 -1.72003 371.462 350.209
-12.4263 -16.3381 -3.14119 392.903 346.185
-8.86375 -16.4473 -4.43218 415.158 349.273
-5.39213 -15.7035 -5.57707 436.357 357.412
3.37846 -16.2616 -5.60446 491.962 359.507
6.72638 -17.401 -4.42367 513.989 353.166
10.2651 -17.7131 -3.08557 536.752 351.882
13.6962 -16.8091 -1.62444 558.13 357.915
16.3527 -14.4343 0.271994 573.831 372.053
-0.764952 -10.8164 -5.18349 462.66 390.119
-0.542828 -7.44259 -7.81155 461.494 414.247
-0.32365 -4.09802 -10.7115 460.272 438.513
-0.102317 -0.777827 -13.5706 459.087 462.582
-3.04763 -0.599985 -5.8539 441.991 452.73
-1.5602 -0.538208 -7.07816 451.079 455.492
-0.0915416 -0.56978 -8.33028 460.098 457.697
1.33634 -0.735659 -7.1094 469.446 456.128
2.78567 -0.993494 -5.82886 478.997 453.934
-13.345 -8.09889 -1.23848 382.545 394.378
-11.274 -9.30478 -1.30308 396.31 388.291
-8.84848 -9.59149 -1.22116 411.786 387.945
-6.60391 -8.87961 -0.767756 425.596 393.23
-8.7995 -8.29455 -1.04518 411.35 395.798
-11.0763 -8.00776 -1.21249 396.794 396.339
5.29586 -9.65603 -0.847745 501.043 396.003
7.43749 -10.6189 -1.1907 515.05 391.793
9.86705 -10.6396 -1.21612 530.369 393.224
12.0497 -9.69632 -1.11119 543.58 400.314
9.80809 -9.33885 -1.15175 529.228 401.164
7.52469 -9.343 -1.05686 514.859 399.59
-7.79541 8.64163 -3.17884 407.056 503.81
-5.6333 6.26852 -4.9918 421.74 492.614
-2.87323 4.56661 -6.44172 439.863 485.523
0.325506 4.49965 -7.9338 459.758 488.88
3.46371 4.10702 -6.40995 480.083 486.626
6.43308 5.38293 -4.92549 498.333 494.644
8.90247 7.42809 -3.10892 513.036 506.718
6.52431 8.87245 -4.01098 496.995 515.229
3.69584 9.58863 -5.41358 478.452 519.538
0.785259 9.86822 -6.84588 459.648 521.127
-2.21183 10.0365 -5.45638 440.942 518.645
-5.17369 9.73642 -4.14759 422.722 513.38
-2.97651 6.68995 -5.40723 438.145 497.385
0.470034 6.31544 -7.39357 459.687 499.577
3.92292 6.18407 -5.38447 481.937 498.566
3.98043 7.35808 -4.55658 481.762 504.895
0.591105 7.62961 -6.39657 459.863 506.614
-2.83932 7.85583 -4.6198 438.469 503.761
3 20 21 23
3 21 22 23
3 0 1 36
3 15 16 45
3 0 17 36
3 16 26 45
3 17 18 37
3 25 26 44
3 17 36 37
3 26 44 45
3 18 19 38
3 24 25 43
3 18 37 38
3 25 43 44
3 19 20 38
3 23 24 43
3 20 21 39
3 22 23 42
3 20 38 39
3 23 42 43
3 21 22 27
3 21 27 39
3 22 27 42
3 27 28 42
3 27 28 39
3 28 42 47
3 28 39 40
3 1 36 41
3 15 45 46
3 1 2 41
3 14 15 46
3 28 29 40
3 28 29 47
3 2 40 41
3 14 46 47
3 2 29 40
3 14 29 47
3 2 3 29
3 13 14 29
3 29 30 31
3 29 30 35
3 3 29 31
3 13 29 35
3 30 32 33
3 30 33 34
3 30 31 32
3 30 34 35
3 3 4 31
3 12 13 35
3 4 5 48
3 11 12 54
3 5 6 48
3 10 11 54
3 6 48 59
3 10 54 55
3 6 7 59
3 9 10 55
3 7 58 59
3 9 55 56
3 8 57 58
3 8 56 57
3 7 8 58
3 8 9 56
3 4 31 48
3 12 35 54
3 31 48 49
3 35 53 54
3 31 49 50
3 35 52 53
3 31 32 50
3 34 35 52
3 32 33 50
3 33 34 52
3 33 50 51
3 33 51 52
3 48 49 60
3 49 60 50
3 50 60 61
3 50 51 61
3 51 52 61
3 61 62 52
3 52 53 62
3 53 54 62
3 54 55 63
3 55 56 63
3 56 63 64
3 56 57 64
3 64 65 57
3 57 58 65
3 58 59 65
3 48 59 65
