ply
format ascii 1.0
element vertex 66
property float x
property float y
property float z
property float u
property float v
element face 91
property list uchar int vertex_indices
end_header
-20.0414 -6.22324 21.3777 240.7 173.024
-19.2745 -0.758465 20.8239 241.322 195.854
-18.1902 4.66533 20.3066 243.265 218.655
-16.8115 9.88498 18.4852 246.46 240.986
-14.8513 14.5851 13.5215 252.161 262.014
-11.8736 18.6588 7.9791 262.299 281.046
-8.02078 22.0602 3.15348 276.357 297.6
-3.39763 24.434 -0.944714 294.07 310.17
1.91484 24.8237 -4.66928 315.531 314.864
7.07354 23.6077 -0.818876 337.374 311.568
11.2115 20.5001 3.30527 355.909 300.009
14.3629 16.4726 8.1615 370.849 284.101
16.5508 11.9672 13.708 382.084 265.67
17.7505 7.12452 18.595 389.397 245.522
18.345 1.94703 20.3879 394.27 224.274
18.6106 -3.37034 20.8325 397.808 202.541
18.5348 -8.67349 21.4036 399.946 180.687
-16.6849 -14.1568 0.207358 257.311 145.831
-14.4556 -16.4839 -1.58964 267.448 137.643
-11.4996 -17.6814 -2.95103 280.063 134.337
-8.33154 -17.8343 -4.25384 293.071 135.396
-5.2521 -17.1923 -5.4372 305.356 139.648
2.89453 -17.5967 -5.40961 338.935 141.725
5.74346 -18.5658 -4.17852 351.102 138.846
8.78301 -18.798 -2.83962 363.717 139.052
11.7525 -18.0386 -1.44529 375.592 143.277
14.1742 -16.106 0.390487 384.701 151.977
-0.712127 -12.1822 -4.83918 321.694 162.143
-0.473816 -8.82267 -7.84158 321.023 176.543
-0.242075 -5.472 -10.7451 320.333 190.886
-0.0109511 -2.11207 -13.3842 319.645 205.22
-3.05876 1.1011 -6.67184 305.928 215.789
-1.44955 1.63772 -7.30769 312.255 218.837
0.275779 1.7772 -7.87325 319.243 220.301
1.92698 1.42275 -7.22967 326.197 219.493
3.39726 0.687446 -6.52922 332.586 217.032
-12.2463 -9.89539 -0.867799 273.515 165.51
-10.3762 -11.0822 -1.16948 281.713 161.561
-8.11592 -11.2787 -1.41814 291.058 161.838
-6.14012 -10.3758 -1.12429 298.755 166.39
-8.14376 -9.75256 -1.14547 290.256 168.027
-10.2455 -9.5439 -1.07486 281.548 167.904
4.58751 -10.9955 -1.10911 343.012 168.772
6.41515 -12.0939 -1.31934 350.998 165.15
8.65087 -12.197 -1.05088 360.219 165.706
10.6134 -11.2412 -0.732713 367.838 170.465
8.69071 -10.6556 -0.978024 359.68 172.024
6.60934 -10.6144 -1.09061 351.125 171.258
-6.88691 7.65811 -2.45954 287.39 240.137
-4.93126 5.80441 -4.77291 296.17 233.853
-2.40137 4.66546 -6.49671 306.998 230.656
0.376984 4.54298 -8.24908 318.378 231.74
3.12425 4.31312 -6.38177 329.813 231.728
5.74209 5.11234 -4.63815 340.242 235.893
7.86226 6.73308 -2.35908 348.274 243.099
6.46533 9.58447 -3.78632 341.191 254.388
4.14888 11.749 -5.17531 330.654 262.436
0.959767 12.5082 -6.74642 317.176 264.36
-2.35886 12.1667 -5.28118 303.783 261.179
-5.00869 10.3025 -3.93925 293.824 252.09
-2.56891 6.59935 -5.05377 305.479 238.243
0.508506 6.26155 -7.45425 318.16 238.697
3.57611 6.21133 -4.89629 330.851 239.445
4.02165 8.98378 -4.24891 331.432 250.889
0.781432 9.83746 -6.26082 317.686 253.255
-2.57584 9.40306 -4.399 304.191 249.605
3 20 21 23
3 21 22 23
3 0 1 36
3 15 16 45
3 0 17 36
3 16 26 45
3 17 18 37
3 25 26 44
3 17 36 37
3 26 44 45
3 18 19 38
3 24 25 43
3 18 37 38
3 25 43 44
3 19 20 38
3 23 24 43
3 20 21 39
3 22 23 42
3 20 38 39
3 23 42 43
3 21 22 27
3 21 27 39
3 22 27 42
3 27 28 42
3 27 28 39
3 28 42 47
3 28 39 40
3 1 36 41
3 15 45 46
3 1 2 41
3 14 15 46
3 28 29 40
3 28 29 47
3 2 40 41
3 14 46 47
3 2 29 40
3 14 29 47
3 2 3 29
3 13 14 29
3 29 30 31
3 29 30 35
3 3 29 31
3 13 29 35
3 30 32 33
3 30 33 34
3 30 31 32
3 30 34 35
3 3 4 31
3 12 13 35
3 4 5 48
3 11 12 54
3 5 6 48
3 10 11 54
3 6 48 59
3 10 54 55
3 6 7 59
3 9 10 55
3 7 58 59
3 9 55 56
3 8 57 58
3 8 56 57
3 7 8 58
3 8 9 56
3 4 31 48
3 12 35 54
3 31 48 49
3 35 53 54
3 31 49 50
3 35 52 53
3 31 32 50
3 34 35 52
3 32 33 50
3 33 34 52
3 33 50 51
3 33 51 52
3 48 49 60
3 49 60 50
3 50 60 61
3 50 51 61
3 51 52 61
3 61 62 52
3 52 53 62
3 53 54 62
3 54 55 63
3 55 56 63
3 56 63 64
3 56 57 64
3 64 65 57
3 57 58 65
3 58 59 65
3 48 59 65
