ply
format ascii 1.0
element vertex 66
property float x
property float y
property float z
property float u
property float v
element face 91
property list uchar int vertex_indices
end_header
332.063 373.8 0 332.063 373.8
330.358 407.987 0 330.358 407.987
329.742 442.329 0 329.742 442.329
332.157 479.064 0 332.157 479.064
340.934 516.48 0 340.934 516.48
362.153 547.564 0 362.153 547.564
392.922 567.597 0 392.922 567.597
426.224 580.866 0 426.224 580.866
459.527 588.056 0 459.527 588.056
493.493 581.735 0 493.493 581.735
527.682 569.575 0 527.682 569.575
559.65 550.838 0 559.65 550.838
582.997 520.988 0 582.997 520.988
594.62 484.722 0 594.62 484.722
599.499 449.093 0 599.499 449.093
600.574 415.744 0 600.574 415.744
600.66 382.436 0 600.66 382.436
354.931 362.656 0 354.931 362.656
371.462 350.209 0 371.462 350.209
392.903 346.185 0 392.903 346.185
415.158 349.273 0 415.158 349.273
436.357 357.412 0 436.357 357.412
491.962 359.507 0 491.962 359.507
513.989 353.166 0 513.989 353.166
536.752 351.882 0 536.752 351.882
558.13 357.915 0 558.13 357.915
573.831 372.053 0 573.831 372.053
462.66 390.119 0 462.66 390.119
461.494 414.247 0 461.494 414.247
460.272 438.513 0 460.272 438.513
459.087 462.582 0 459.087 462.582
441.991 452.73 0 441.991 452.73
451.079 455.492 0 451.079 455.492
460.098 457.697 0 460.098 457.697
469.446 456.128 0 469.446 456.128
478.997 453.934 0 478.997 453.934
382.545 394.378 0 382.545 394.378
396.31 388.291 0 396.31 388.291
411.786 387.945 0 411.786 387.945
425.596 393.23 0 425.596 393.23
411.35 395.798 0 411.35 395.798
396.794 396.339 0 396.794 396.339
501.043 396.003 0 501.043 396.003
515.05 391.793 0 515.05 391.793
530.369 393.224 0 530.369 393.224
543.58 400.314 0 543.58 400.314
529.228 401.164 0 529.228 401.164
514.859 399.59 0 514.859 399.59
407.056 503.81 0 407.056 503.81
421.74 492.614 0 421.74 492.614
439.863 485.523 0 439.863 485.523
459.758 488.88 0 459.758 488.88
480.083 486.626 0 480.083 486.626
498.333 494.644 0 498.333 494.644
513.036 506.718 0 513.036 506.718
496.995 515.229 0 496.995 515.229
478.452 519.538 0 478.452 519.538
459.648 521.127 0 459.648 521.127
440.942 518.645 0 440.942 518.645
422.722 513.38 0 422.722 513.38
438.145 497.385 0 438.145 497.385
459.687 499.577 0 459.687 499.577
481.937 498.566 0 481.937 498.566
481.762 504.895 0 481.762 504.895
459.863 506.614 0 459.863 506.614
438.469 503.761 0 438.469 503.761
3 20 21 23
3 21 22 23
3 0 1 36
3 15 16 45
3 0 17 36
3 16 26 45
3 17 18 37
3 25 26 44
3 17 36 37
3 26 44 45
3 18 19 38
3 24 25 43
3 18 37 38
3 25 43 44
3 19 20 38
3 23 24 43
3 20 21 39
3 22 23 42
3 20 38 39
3 23 42 43
3 21 22 27
3 21 27 39
3 22 27 42
3 27 28 42
3 27 28 39
3 28 42 47
3 28 39 40
3 1 36 41
3 15 45 46
3 1 2 41
3 14 15 46
3 28 29 40
3 28 29 47
3 2 40 41
3 14 46 47
3 2 29 40
3 14 29 47
3 2 3 29
3 13 14 29
3 29 30 31
3 29 30 35
3 3 29 31
3 13 29 35
3 30 32 33
3 30 33 34
3 30 31 32
3 30 34 35
3 3 4 31
3 12 13 35
3 4 5 48
3 11 12 54
3 5 6 48
3 10 11 54
3 6 48 59
3 10 54 55
3 6 7 59
3 9 10 55
3 7 58 59
3 9 55 56
3 8 57 58
3 8 56 57
3 7 8 58
3 8 9 56
3 4 31 48
3 12 35 54
3 31 48 49
3 35 53 54
3 31 49 50
3 35 52 53
3 31 32 50
3 34 35 52
3 32 33 50
3 33 34 52
3 33 50 51
3 33 51 52
3 48 49 60
3 49 60 50
3 50 60 61
3 50 51 61
3 51 52 61
3 61 62 52
3 52 53 62
3 53 54 62
3 54 55 63
3 55 56 63
3 56 63 64
3 56 57 64
3 64 65 57
3 57 58 65
3 58 59 65
3 48 59 65
