ply
format ascii 1.0
element vertex 66
property float x
property float y
property float z
property float u
property float v
element face 91
property list uchar int vertex_indices
end_header
254.786 191.74 0 254.786 191.74
256.597 213.803 0 256.597 213.803
259.727 235.752 0 259.727 235.752
263.739 257.906 0 263.739 257.906
269.835 280.449 0 269.835 280.449
280.325 301.198 0 280.325 301.198
294.734 318.89 0 294.734 318.89
312.676 331.932 0 312.676 331.932
333.754 336.863 0 333.754 336.863
354.951 330.767 0 354.951 330.767
372.643 316.866 0 372.643 316.866
386.64 298.523 0 386.64 298.523
396.713 277.434 0 396.713 277.434
402.56 255.117 0 402.56 255.117
405.946 233.491 0 405.946 233.491
408.285 212.167 0 408.285 212.167
409.371 190.737 0 409.371 190.737
267.503 176.857 0 267.503 176.857
276.626 169.675 0 276.626 169.675
288.367 166.647 0 288.367 166.647
300.734 167.451 0 300.734 167.451
312.648 171.103 0 312.648 171.103
346.723 171.112 0 346.723 171.112
358.634 167.417 0 358.634 167.417
371.074 166.474 0 371.074 166.474
382.975 169.343 0 382.975 169.343
392.416 176.36 0 392.416 176.36
329.945 191.413 0 329.945 191.413
329.803 207.008 0 329.803 207.008
329.662 222.502 0 329.662 222.502
329.568 237.833 0 329.568 237.833
317.167 245.637 0 317.167 245.637
323.513 248.549 0 323.513 248.549
330.409 249.87 0 330.409 249.87
337.413 248.392 0 337.413 248.392
343.802 245.316 0 343.802 245.316
283.538 194.031 0 283.538 194.031
291.517 189.173 0 291.517 189.173
301.198 189.335 0 301.198 189.335
309.113 194.281 0 309.113 194.281
300.577 196.429 0 300.577 196.429
291.681 196.679 0 291.681 196.679
351.877 194.088 0 351.877 194.088
359.59 189.108 0 359.59 189.108
369.248 188.842 0 369.248 188.842
377.288 193.638 0 377.288 193.638
369.164 196.316 0 369.164 196.316
360.323 196.188 0 360.323 196.188
301.543 267.509 0 301.543 267.509
309.514 262.106 0 309.514 262.106
319.685 259.309 0 319.685 259.309
330.629 260.7 0 330.629 260.7
341.919 259.021 0 341.919 259.021
352.565 261.569 0 352.565 261.569
361.229 266.886 0 361.229 266.886
354.319 277.723 0 354.319 277.723
344.286 285.73 0 344.286 285.73
331.593 288.744 0 331.593 288.744
318.928 286.112 0 318.928 286.112
308.739 278.313 0 308.739 278.313
318.619 265.874 0 318.619 265.874
330.916 266.906 0 330.916 266.906
343.749 265.52 0 343.749 265.52
344.802 274.625 0 344.802 274.625
331.349 278.127 0 331.349 278.127
318.205 274.984 0 318.205 274.984
3 20 21 23
3 21 22 23
3 0 1 36
3 15 16 45
3 0 17 36
3 16 26 45
3 17 18 37
3 25 26 44
3 17 36 37
3 26 44 45
3 18 19 38
3 24 25 43
3 18 37 38
3 25 43 44
3 19 20 38
3 23 24 43
3 20 21 39
3 22 23 42
3 20 38 39
3 23 42 43
3 21 22 27
3 21 27 39
3 22 27 42
3 27 28 42
3 27 28 39
3 28 42 47
3 28 39 40
3 1 36 41
3 15 45 46
3 1 2 41
3 14 15 46
3 28 29 40
3 28 29 47
3 2 40 41
3 14 46 47
3 2 29 40
3 14 29 47
3 2 3 29
3 13 14 29
3 29 30 31
3 29 30 35
3 3 29 31
3 13 29 35
3 30 32 33
3 30 33 34
3 30 31 32
3 30 34 35
3 3 4 31
3 12 13 35
3 4 5 48
3 11 12 54
3 5 6 48
3 10 11 54
3 6 48 59
3 10 54 55
3 6 7 59
3 9 10 55
3 7 58 59
3 9 55 56
3 8 57 58
3 8 56 57
3 7 8 58
3 8 9 56
3 4 31 48
3 12 35 54
3 31 48 49
3 35 53 54
3 31 49 50
3 35 52 53
3 31 32 50
3 34 35 52
3 32 33 50
3 33 34 52
3 33 50 51
3 33 51 52
3 48 49 60
3 49 60 50
3 50 60 61
3 50 51 61
3 51 52 61
3 61 62 52
3 52 53 62
3 53 54 62
3 54 55 63
3 55 56 63
3 56 63 64
3 56 57 64
3 64 65 57
3 57 58 65
3 58 59 65
3 48 59 65
