ply
format ascii 1.0
element vertex 66
property float x
property float y
property float z
property float u
property float v
element face 91
property list uchar int vertex_indices
end_header
-19.5564 -6.20389 21.2469 254.379 230.651
-18.8585 -0.779076 20.7657 255.055 256.819
-17.8228 4.60221 20.2995 257.354 282.939
-16.509 9.76655 18.4234 261.204 308.654
-14.7003 14.4437 13.5285 267.913 333.344
-11.8701 18.4952 8.05851 279.825 355.769
-8.08493 21.793 3.23345 296.578 374.869
-3.54838 24.0747 -0.887794 317.333 389.286
1.65337 24.435 -4.59172 342.151 394.792
6.78563 23.313 -0.759687 366.696 390.657
10.8808 20.2606 3.40366 387.245 376.771
14.0288 16.3167 8.2217 403.685 357.983
16.2104 11.8802 13.6582 415.729 336.182
17.4541 7.13605 18.4544 423.536 312.691
18.1058 2.08817 20.352 428.946 288.474
18.3786 -3.12063 20.7401 432.774 263.832
18.2606 -8.32089 21.1554 434.742 239.031
-16.3672 -14.5259 0.107186 275.502 200.113
-14.1777 -16.7393 -1.62367 287.13 191.301
-11.3064 -17.8922 -2.95825 301.433 187.701
-8.23177 -18.0881 -4.27838 316.226 188.722
-5.22202 -17.5541 -5.51982 330.345 193.138
2.5194 -17.7988 -5.51709 367.172 195.738
5.32396 -18.6823 -4.21088 380.788 192.471
8.30403 -18.8847 -2.85451 394.896 192.493
11.2255 -18.1973 -1.48183 408.287 196.69
13.646 -16.3954 0.281274 418.716 205.783
-0.723498 -12.5565 -4.89753 349.154 218.75
-0.517447 -9.41745 -7.73868 348.838 234.678
-0.318966 -6.29681 -10.5839 348.495 250.517
-0.117532 -3.17577 -13.2537 348.15 266.299
-2.76621 0.675849 -6.43262 333.08 280.884
-1.27675 0.962932 -7.17043 340.067 283.219
0.277139 0.986019 -7.87378 347.486 284.325
1.7658 0.769233 -7.07975 354.58 283.749
3.13634 0.28764 -6.35278 361.251 281.886
-12.2423 -10.2884 -0.954599 293.065 222.528
-10.3567 -11.5799 -1.11908 302.657 217.39
-8.01277 -11.7815 -1.21884 313.88 217.609
-6.00502 -10.7977 -0.987579 322.893 223.158
-8.04443 -10.1085 -1.14104 312.897 225.481
-10.2143 -9.86114 -1.06687 302.48 225.572
4.34672 -11.3627 -0.974051 372.254 225.507
6.17623 -12.53 -1.15663 381.521 220.937
8.48292 -12.6501 -1.00342 392.503 221.436
10.4766 -11.6069 -0.77394 401.421 227.26
8.55144 -10.9321 -0.941725 391.975 229.575
6.40369 -10.9275 -1.05305 381.8 228.592
-5.50065 9.41563 -2.67512 315.467 319.607
-4.17756 6.96055 -4.94825 323.155 309.418
-2.11496 5.09402 -6.5886 334.002 302.155
0.520886 4.89695 -8.28424 346.75 303.086
3.14341 4.75457 -6.39872 359.086 303.037
5.40106 6.31729 -4.75992 368.872 310.961
6.97312 8.6123 -2.54685 374.996 321.819
5.72546 10.7465 -3.90321 368.149 331.777
3.77908 12.3507 -5.1939 358.245 338.865
1.12645 12.9135 -6.73929 345.528 340.772
-1.61753 12.6945 -5.34154 332.5 337.922
-3.83595 11.3615 -4.04081 322.522 330.091
-1.94491 7.55115 -4.97615 333.452 313.306
0.694956 6.97486 -7.24132 346.457 312.641
3.36727 7.21351 -4.7972 358.79 314.226
3.55388 9.33138 -4.31699 358.588 324.17
0.934768 9.90559 -6.2448 346.059 326.279
-1.76628 9.67453 -4.47537 333.207 323.265
3 20 21 23
3 21 22 23
3 0 1 36
3 15 16 45
3 0 17 36
3 16 26 45
3 17 18 37
3 25 26 44
3 17 36 37
3 26 44 45
3 18 19 38
3 24 25 43
3 18 37 38
3 25 43 44
3 19 20 38
3 23 24 43
3 20 21 39
3 22 23 42
3 20 38 39
3 23 42 43
3 21 22 27
3 21 27 39
3 22 27 42
3 27 28 42
3 27 28 39
3 28 42 47
3 28 39 40
3 1 36 41
3 15 45 46
3 1 2 41
3 14 15 46
3 28 29 40
3 28 29 47
3 2 40 41
3 14 46 47
3 2 29 40
3 14 29 47
3 2 3 29
3 13 14 29
3 29 30 31
3 29 30 35
3 3 29 31
3 13 29 35
3 30 32 33
3 30 33 34
3 30 31 32
3 30 34 35
3 3 4 31
3 12 13 35
3 4 5 48
3 11 12 54
3 5 6 48
3 10 11 54
3 6 48 59
3 10 54 55
3 6 7 59
3 9 10 55
3 7 58 59
3 9 55 56
3 8 57 58
3 8 56 57
3 7 8 58
3 8 9 56
3 4 31 48
3 12 35 54
3 31 48 49
3 35 53 54
3 31 49 50
3 35 52 53
3 31 32 50
3 34 35 52
3 32 33 50
3 33 34 52
3 33 50 51
3 33 51 52
3 48 49 60
3 49 60 50
3 50 60 61
3 50 51 61
3 51 52 61
3 61 62 52
3 52 53 62
3 53 54 62
3 54 55 63
3 55 56 63
3 56 63 64
3 56 57 64
3 64 65 57
3 57 58 65
3 58 59 65
3 48 59 65
