ply
format ascii 1.0
element vertex 66
property float x
property float y
property float z
property float u
property float v
element face 91
property list uchar int vertex_indices
end_header
-19.4049 -5.99287 21.5307 308.349 568.757
-18.6426 -0.602502 20.8937 310.63 606.983
-17.5786 4.75097 20.3455 315.001 645.115
-16.3806 9.92685 18.3654 320.994 682.359
-14.6954 14.6286 13.6858 331.763 717.094
-11.878 18.572 7.87099 351.35 747.427
-8.08859 21.7375 2.97138 377.822 772.738
-3.55457 23.8709 -1.00887 409.746 791.115
1.56595 24.1358 -4.66874 446.773 796.733
6.67587 22.9678 -0.78476 481.556 790.912
10.7912 19.8756 3.21401 510.533 771.032
13.9385 15.8965 8.09874 532.941 744.209
16.1267 11.4597 13.8281 548.6 713.453
17.3034 6.70433 18.3834 557.873 680.086
17.8616 1.72095 20.3387 564.021 645.247
18.1376 -3.38866 20.7558 568.899 609.648
18.021 -8.49098 21.3259 570.973 573.835
-16.2052 -15.6935 0.340761 345.144 506.935
-14.1499 -17.6537 -1.35284 361.359 494.8
-11.5199 -18.6784 -2.75502 380.892 489.489
-8.72229 -18.8282 -4.03424 401.011 490.365
-5.99427 -18.2861 -5.25502 420.199 496.021
3.87487 -18.8509 -5.30895 489.394 498.016
6.26802 -19.5799 -4.03781 506.017 494.122
8.8215 -19.7033 -2.71353 523.366 494.544
11.3153 -19.0634 -1.24221 539.773 500.233
13.3924 -17.5014 0.529348 552.59 512.056
-0.46297 -11.4106 -4.80277 454.392 547.278
-0.294373 -8.56489 -7.7353 455.013 567.809
-0.138144 -5.73784 -10.7024 455.573 588.208
0.00953252 -2.91157 -13.5421 456.023 608.573
-3.2274 1.67597 -6.78651 427.919 637.391
-1.4278 2.11836 -7.4005 440.447 641.678
0.455303 2.22356 -7.96292 453.743 643.651
2.18737 1.91351 -7.32136 465.753 642.404
3.78688 1.27271 -6.68501 477.043 638.77
-12.3872 -9.83675 -0.585203 368.567 550.309
-10.6262 -11.1176 -1.04869 381.818 542.508
-8.40082 -11.2307 -1.47933 397.581 543.137
-6.55538 -10.0568 -1.23377 409.635 552.398
-8.44734 -9.26605 -1.20632 395.946 556.779
-10.5091 -9.1384 -1.01449 381.411 556.395
5.00236 -10.6865 -1.23837 490.627 554.945
6.6308 -11.9955 -1.42374 502.859 546.816
8.79167 -12.214 -0.976796 517.882 546.504
10.6268 -11.1233 -0.497796 529.821 555.134
8.90853 -10.2044 -0.943476 517.456 560.604
6.90355 -10.1218 -1.16092 503.51 560.017
-7.40984 8.21386 -2.50221 393.027 679.73
-4.9923 6.66561 -4.88191 411.793 670.819
-2.31919 5.61969 -6.65883 431.792 665.456
0.4909 5.54802 -8.39042 452.133 666.971
3.23026 5.27767 -6.51061 470.644 666.374
5.91979 5.96215 -4.70513 488.254 672.429
8.34442 7.2627 -2.31997 503.407 682.518
6.68688 9.92409 -3.80191 490.819 700.39
4.14513 11.8193 -5.08889 472.454 712.342
0.960438 12.4505 -6.58209 450.461 715.12
-2.34733 12.2035 -5.24137 427.002 711.153
-5.22363 10.6367 -3.99755 407.397 698.248
-2.82938 7.63446 -5.15638 426.397 678.937
0.641468 7.41274 -7.61137 451.729 679.938
4.0363 7.23492 -4.89823 474.419 680.223
4.42428 9.17372 -4.29513 475.697 693.883
0.828687 9.81339 -6.38459 451.073 696.585
-2.88717 9.62588 -4.54182 424.529 692.694
3 20 21 23
3 21 22 23
3 0 1 36
3 15 16 45
3 0 17 36
3 16 26 45
3 17 18 37
3 25 26 44
3 17 36 37
3 26 44 45
3 18 19 38
3 24 25 43
3 18 37 38
3 25 43 44
3 19 20 38
3 23 24 43
3 20 21 39
3 22 23 42
3 20 38 39
3 23 42 43
3 21 22 27
3 21 27 39
3 22 27 42
3 27 28 42
3 27 28 39
3 28 42 47
3 28 39 40
3 1 36 41
3 15 45 46
3 1 2 41
3 14 15 46
3 28 29 40
3 28 29 47
3 2 40 41
3 14 46 47
3 2 29 40
3 14 29 47
3 2 3 29
3 13 14 29
3 29 30 31
3 29 30 35
3 3 29 31
3 13 29 35
3 30 32 33
3 30 33 34
3 30 31 32
3 30 34 35
3 3 4 31
3 12 13 35
3 4 5 48
3 11 12 54
3 5 6 48
3 10 11 54
3 6 48 59
3 10 54 55
3 6 7 59
3 9 10 55
3 7 58 59
3 9 55 56
3 8 57 58
3 8 56 57
3 7 8 58
3 8 9 56
3 4 31 48
3 12 35 54
3 31 48 49
3 35 53 54
3 31 49 50
3 35 52 53
3 31 32 50
3 34 35 52
3 32 33 50
3 33 34 52
3 33 50 51
3 33 51 52
3 48 49 60
3 49 60 50
3 50 60 61
3 50 51 61
3 51 52 61
3 61 62 52
3 52 53 62
3 53 54 62
3 54 55 63
3 55 56 63
3 56 63 64
3 56 57 64
3 64 65 57
3 57 58 65
3 58 59 65
3 48 59 65
