ply
format ascii 1.0
element vertex 66
property float x
property float y
property float z
property float u
property float v
element face 91
property list uchar int vertex_indices
end_header
-20.7102 -5.25579 21.4871 391.772 534.821
-19.954 -0.079682 20.9718 392.997 565.972
-18.8729 5.06004 20.6111 396.218 596.915
-17.5233 9.94588 18.4829 400.712 628.941
-15.5644 14.2649 13.5143 408.406 661.903
-12.4371 17.7541 7.99554 423.396 691.561
-8.35168 20.32 3.3706 444.879 715.293
-3.70154 21.9535 -0.856541 470.388 733.459
1.36847 21.9991 -4.53872 499.498 741.972
6.49955 21.2144 -0.677457 531.501 735.569
10.9047 18.8032 3.55821 560.274 718.772
14.5513 15.5089 8.19647 585.182 695.83
17.1249 11.485 13.6987 604.386 666.803
18.4922 6.92485 18.6085 616.588 634.685
19.1672 1.97097 20.7128 624.159 603.613
19.4882 -3.17868 21.0182 629.262 573.598
19.4212 -8.31731 21.5046 632.101 543.151
-17.5918 -14.2965 0.228195 410.052 513.11
-15.2034 -16.7654 -1.52659 425.265 502.73
-12.0136 -17.9887 -2.88832 444.593 499.553
-8.61834 -18.1201 -4.17753 464.502 502.733
-5.3083 -17.4879 -5.39215 483.463 510.178
3.0698 -17.9969 -5.4148 533.55 512.706
6.12677 -19.0065 -4.14613 552.667 507.141
9.37459 -19.3047 -2.80838 572.506 505.725
12.5712 -18.5707 -1.38133 591.442 510.131
15.1775 -16.546 0.40938 606.186 521.137
-0.591181 -11.8676 -4.89913 508.228 545.118
-0.366157 -8.75424 -7.73657 506.921 567.106
-0.147448 -5.67084 -10.7065 505.558 589.095
0.0638182 -2.58721 -13.5243 504.192 610.876
-2.8435 1.43421 -6.55152 486.359 622.886
-1.26587 1.72744 -7.33656 495.346 626.665
0.371813 1.73432 -8.0847 504.872 628.776
1.92411 1.53604 -7.25781 514.439 627.524
3.36994 1.05609 -6.44698 523.538 624.594
-12.8152 -9.70023 -0.781692 435.386 544.182
-10.864 -11.1036 -1.06749 447.752 537.71
-8.42344 -11.2759 -1.23178 462.315 538.52
-6.34078 -10.1204 -1.02942 474.047 546.29
-8.45237 -9.39978 -1.15995 461.028 549.266
-10.7052 -9.16948 -1.07119 447.526 549.016
4.86094 -10.8039 -0.958917 541.043 549.518
6.74383 -12.1917 -1.14183 553.021 542.953
9.15822 -12.3738 -0.979012 567.523 543.248
11.2428 -11.2259 -0.700283 579.291 550.874
9.25163 -10.42 -0.983395 566.895 554.626
7.01623 -10.3691 -1.07852 553.555 553.596
-6.27384 9.54215 -2.86504 462.065 662.637
-4.33528 7.62445 -5.06301 474.153 655.752
-2.0907 6.09352 -6.67942 487.982 650.522
0.494052 6.04151 -8.34125 502.926 654.136
3.03428 5.78426 -6.58445 518.649 651.934
5.39305 7.02979 -4.93532 532.356 658.459
7.44915 8.73105 -2.70669 544.144 666.645
5.59326 10.1555 -3.89933 531.934 675.291
3.29983 10.9903 -5.18203 517.456 680.359
0.782457 11.2364 -6.58102 501.973 682.031
-1.7607 11.2722 -5.29106 487.185 678.85
-4.17778 10.7161 -4.02552 473.499 672.356
-2.04041 8.33579 -5.34439 487.284 661.74
0.616041 7.9802 -7.46383 502.715 664.259
3.24608 8.042 -5.16564 518.924 663.233
3.23292 8.43819 -4.51551 518.781 664.644
0.643692 8.50414 -6.51395 502.818 666.032
-1.97616 8.73838 -4.67534 487.602 663.212
3 20 21 23
3 21 22 23
3 0 1 36
3 15 16 45
3 0 17 36
3 16 26 45
3 17 18 37
3 25 26 44
3 17 36 37
3 26 44 45
3 18 19 38
3 24 25 43
3 18 37 38
3 25 43 44
3 19 20 38
3 23 24 43
3 20 21 39
3 22 23 42
3 20 38 39
3 23 42 43
3 21 22 27
3 21 27 39
3 22 27 42
3 27 28 42
3 27 28 39
3 28 42 47
3 28 39 40
3 1 36 41
3 15 45 46
3 1 2 41
3 14 15 46
3 28 29 40
3 28 29 47
3 2 40 41
3 14 46 47
3 2 29 40
3 14 29 47
3 2 3 29
3 13 14 29
3 29 30 31
3 29 30 35
3 3 29 31
3 13 29 35
3 30 32 33
3 30 33 34
3 30 31 32
3 30 34 35
3 3 4 31
3 12 13 35
3 4 5 48
3 11 12 54
3 5 6 48
3 10 11 54
3 6 48 59
3 10 54 55
3 6 7 59
3 9 10 55
3 7 58 59
3 9 55 56
3 8 57 58
3 8 56 57
3 7 8 58
3 8 9 56
3 4 31 48
3 12 35 54
3 31 48 49
3 35 53 54
3 31 49 50
3 35 52 53
3 31 32 50
3 34 35 52
3 32 33 50
3 33 34 52
3 33 50 51
3 33 51 52
3 48 49 60
3 49 60 50
3 50 60 61
3 50 51 61
3 51 52 61
3 61 62 52
3 52 53 62
3 53 54 62
3 54 55 63
3 55 56 63
3 56 63 64
3 56 57 64
3 64 65 57
3 57 58 65
3 58 59 65
3 48 59 65
