ply
format ascii 1.0
element vertex 66
property float x
property float y
property float z
property float u
property float v
element face 91
property list uchar int vertex_indices
end_header
391.772 534.821 0 391.772 534.821
392.997 565.972 0 392.997 565.972
396.218 596.915 0 396.218 596.915
400.712 628.941 0 400.712 628.941
408.406 661.903 0 408.406 661.903
423.396 691.561 0 423.396 691.561
444.879 715.293 0 444.879 715.293
470.388 733.459 0 470.388 733.459
499.498 741.972 0 499.498 741.972
531.501 735.569 0 531.501 735.569
560.274 718.772 0 560.274 718.772
585.182 695.83 0 585.182 695.83
604.386 666.803 0 604.386 666.803
616.588 634.685 0 616.588 634.685
624.159 603.613 0 624.159 603.613
629.262 573.598 0 629.262 573.598
632.101 543.151 0 632.101 543.151
410.052 513.11 0 410.052 513.11
425.265 502.73 0 425.265 502.73
444.593 499.553 0 444.593 499.553
464.502 502.733 0 464.502 502.733
483.463 510.178 0 483.463 510.178
533.55 512.706 0 533.55 512.706
552.667 507.141 0 552.667 507.141
572.506 505.725 0 572.506 505.725
591.442 510.131 0 591.442 510.131
606.186 521.137 0 606.186 521.137
508.228 545.118 0 508.228 545.118
506.921 567.106 0 506.921 567.106
505.558 589.095 0 505.558 589.095
504.192 610.876 0 504.192 610.876
486.359 622.886 0 486.359 622.886
495.346 626.665 0 495.346 626.665
504.872 628.776 0 504.872 628.776
514.439 627.524 0 514.439 627.524
523.538 624.594 0 523.538 624.594
435.386 544.182 0 435.386 544.182
447.752 537.71 0 447.752 537.71
462.315 538.52 0 462.315 538.52
474.047 546.29 0 474.047 546.29
461.028 549.266 0 461.028 549.266
447.526 549.016 0 447.526 549.016
541.043 549.518 0 541.043 549.518
553.021 542.953 0 553.021 542.953
567.523 543.248 0 567.523 543.248
579.291 550.874 0 579.291 550.874
566.895 554.626 0 566.895 554.626
553.555 553.596 0 553.555 553.596
462.065 662.637 0 462.065 662.637
474.153 655.752 0 474.153 655.752
487.982 650.522 0 487.982 650.522
502.926 654.136 0 502.926 654.136
518.649 651.934 0 518.649 651.934
532.356 658.459 0 532.356 658.459
544.144 666.645 0 544.144 666.645
531.934 675.291 0 531.934 675.291
517.456 680.359 0 517.456 680.359
501.973 682.031 0 501.973 682.031
487.185 678.85 0 487.185 678.85
473.499 672.356 0 473.499 672.356
487.284 661.74 0 487.284 661.74
502.715 664.259 0 502.715 664.259
518.924 663.233 0 518.924 663.233
518.781 664.644 0 518.781 664.644
502.818 666.032 0 502.818 666.032
487.602 663.212 0 487.602 663.212
3 20 21 23
3 21 22 23
3 0 1 36
3 15 16 45
3 0 17 36
3 16 26 45
3 17 18 37
3 25 26 44
3 17 36 37
3 26 44 45
3 18 19 38
3 24 25 43
3 18 37 38
3 25 43 44
3 19 20 38
3 23 24 43
3 20 21 39
3 22 23 42
3 20 38 39
3 23 42 43
3 21 22 27
3 21 27 39
3 22 27 42
3 27 28 42
3 27 28 39
3 28 42 47
3 28 39 40
3 1 36 41
3 15 45 46
3 1 2 41
3 14 15 46
3 28 29 40
3 28 29 47
3 2 40 41
3 14 46 47
3 2 29 40
3 14 29 47
3 2 3 29
3 13 14 29
3 29 30 31
3 29 30 35
3 3 29 31
3 13 29 35
3 30 32 33
3 30 33 34
3 30 31 32
3 30 34 35
3 3 4 31
3 12 13 35
3 4 5 48
3 11 12 54
3 5 6 48
3 10 11 54
3 6 48 59
3 10 54 55
3 6 7 59
3 9 10 55
3 7 58 59
3 9 55 56
3 8 57 58
3 8 56 57
3 7 8 58
3 8 9 56
3 4 31 48
3 12 35 54
3 31 48 49
3 35 53 54
3 31 49 50
3 35 52 53
3 31 32 50
3 34 35 52
3 32 33 50
3 33 34 52
3 33 50 51
3 33 51 52
3 48 49 60
3 49 60 50
3 50 60 61
3 50 51 61
3 51 52 61
3 61 62 52
3 52 53 62
3 53 54 62
3 54 55 63
3 55 56 63
3 56 63 64
3 56 57 64
3 64 65 57
3 57 58 65
3 58 59 65
3 48 59 65
