ply
format ascii 1.0
element vertex 66
property float x
property float y
property float z
property float u
property float v
element face 91
property list uchar int vertex_indices
end_header
-20.6547 -5.64822 21.3079 271.304 207.429
-20.0519 -0.423649 20.8425 271.83 234.749
-19.1146 4.7667 20.4846 274.179 261.927
-17.7568 9.73356 18.3869 277.764 289.251
-15.6469 14.1974 13.4633 284.22 316.964
-12.4006 17.9009 7.99404 295.941 343.025
-8.27017 20.7526 3.29433 312.548 366.107
-3.55056 22.6779 -0.880153 333.665 384.258
1.65875 22.9008 -4.53572 359.718 392.093
6.75338 21.9412 -0.807894 385.931 387.094
11.0958 19.3665 3.41769 408.029 370.95
14.7165 15.9593 8.15704 425.915 349.395
17.3322 11.8354 13.6544 439.375 324.685
18.7221 7.12069 18.5937 448.269 298.246
19.3316 2.01325 20.7063 454.793 272.12
19.5157 -3.2566 21.0748 460.199 246.082
19.3623 -8.51341 21.5385 463.633 219.694
-16.9434 -14.0024 0.166523 292.635 183.812
-14.6923 -16.1532 -1.56921 305.096 176.369
-11.7473 -17.1684 -2.95979 319.984 173.961
-8.64008 -17.2567 -4.29633 335.197 175.787
-5.61118 -16.6863 -5.52226 349.717 180.733
3.24342 -17.3161 -5.43542 394.975 184.01
6.14406 -18.3113 -4.17859 409.464 180.839
9.21432 -18.6656 -2.80935 424.274 180.785
12.2557 -18.0793 -1.38764 438.277 184.72
14.7675 -16.2699 0.371491 449.209 193.317
-0.800008 -11.6067 -4.9545 371.408 209.087
-0.571382 -8.59445 -7.76035 370.544 228.694
-0.341526 -5.60559 -10.6633 369.678 248.184
-0.111056 -2.62069 -13.4075 368.803 267.474
-3.34691 0.90089 -6.47077 351.484 280.201
-1.6415 1.2941 -7.26957 359.182 283.392
0.142254 1.35258 -8.01839 367.433 285.073
1.89493 1.04463 -7.21848 375.545 284.301
3.5165 0.412997 -6.40175 383.21 281.984
-12.5316 -9.74495 -0.905324 310.451 207.223
-10.6698 -11.0691 -1.10649 321.159 201.095
-8.3451 -11.2534 -1.2279 333.776 202.112
-6.35058 -10.2247 -0.977391 343.105 209.908
-8.3556 -9.50683 -1.10156 332.018 212.245
-10.5048 -9.27615 -1.09011 320.477 211.813
4.83678 -11.0227 -0.887733 397.212 213.369
6.66716 -12.3254 -1.11779 407.34 206.865
8.99246 -12.4738 -0.968074 419.825 207.217
11.0209 -11.4279 -0.742362 429.534 214.492
9.08377 -10.6753 -0.948989 419.172 217.902
6.92444 -10.5977 -0.987214 407.802 216.939
-6.63855 8.84013 -2.74685 332.403 316.435
-4.73902 6.8457 -4.89305 342 309.299
-2.32888 5.4219 -6.54708 353.578 304.246
0.427259 5.35547 -8.22771 366.108 307.003
3.15408 5.03248 -6.48681 378.456 305.607
5.72158 6.09946 -4.80547 388.859 311.864
7.86034 7.80446 -2.63884 396.795 320.097
6.14905 9.90529 -3.93286 388.653 330.813
3.75933 11.3254 -5.28293 377.406 337.943
0.883179 11.8243 -6.67982 364.042 339.958
-2.0422 11.738 -5.34336 350.648 336.437
-4.62825 10.6744 -4.02161 339.882 328.037
-2.38864 7.57584 -5.20395 352.581 315.244
0.55887 7.21472 -7.41824 365.503 316.772
3.50364 7.15671 -5.14457 377.916 316.654
3.65722 8.62822 -4.49552 377.661 321.247
0.689237 9.10764 -6.42523 365.087 323.012
-2.33557 9.05505 -4.5521 352.351 319.839
3 20 21 23
3 21 22 23
3 0 1 36
3 15 16 45
3 0 17 36
3 16 26 45
3 17 18 37
3 25 26 44
3 17 36 37
3 26 44 45
3 18 19 38
3 24 25 43
3 18 37 38
3 25 43 44
3 19 20 38
3 23 24 43
3 20 21 39
3 22 23 42
3 20 38 39
3 23 42 43
3 21 22 27
3 21 27 39
3 22 27 42
3 27 28 42
3 27 28 39
3 28 42 47
3 28 39 40
3 1 36 41
3 15 45 46
3 1 2 41
3 14 15 46
3 28 29 40
3 28 29 47
3 2 40 41
3 14 46 47
3 2 29 40
3 14 29 47
3 2 3 29
3 13 14 29
3 29 30 31
3 29 30 35
3 3 29 31
3 13 29 35
3 30 32 33
3 30 33 34
3 30 31 32
3 30 34 35
3 3 4 31
3 12 13 35
3 4 5 48
3 11 12 54
3 5 6 48
3 10 11 54
3 6 48 59
3 10 54 55
3 6 7 59
3 9 10 55
3 7 58 59
3 9 55 56
3 8 57 58
3 8 56 57
3 7 8 58
3 8 9 56
3 4 31 48
3 12 35 54
3 31 48 49
3 35 53 54
3 31 49 50
3 35 52 53
3 31 32 50
3 34 35 52
3 32 33 50
3 33 34 52
3 33 50 51
3 33 51 52
3 48 49 60
3 49 60 50
3 50 60 61
3 50 51 61
3 51 52 61
3 61 62 52
3 52 53 62
3 53 54 62
3 54 55 63
3 55 56 63
3 56 63 64
3 56 57 64
3 64 65 57
3 57 58 65
3 58 59 65
3 48 59 65
