ply
format ascii 1.0
element vertex 66
property float x
property float y
property float z
property float u
property float v
element face 91
property list uchar int vertex_indices
end_header
381.598 326.701 0 381.598 326.701
384.718 363.057 0 384.718 363.057
390.28 398.921 0 390.28 398.921
396.938 436.026 0 396.938 436.026
407.115 475.883 0 407.115 475.883
424.687 513.06 0 424.687 513.06
448.538 545.611 0 448.538 545.611
478.36 570.532 0 478.36 570.532
513.804 581.689 0 513.804 581.689
550.358 571.214 0 550.358 571.214
581.281 546.482 0 581.281 546.482
606.179 513.866 0 606.179 513.866
624.791 476.456 0 624.791 476.456
635.812 436.379 0 635.812 436.379
642.691 398.948 0 642.691 398.948
648.036 362.77 0 648.036 362.77
650.764 326.188 0 650.764 326.188
405.093 314.481 0 405.093 314.481
421.399 305.046 0 421.399 305.046
441.279 301.504 0 441.279 301.504
462.029 303.62 0 462.029 303.62
482.118 309.846 0 482.118 309.846
544.287 310.295 0 544.287 310.295
564.192 303.562 0 564.192 303.562
584.933 300.932 0 584.933 300.932
605.125 303.551 0 605.125 303.551
622.369 312.089 0 622.369 312.089
514.796 345.464 0 514.796 345.464
514.819 375.001 0 514.819 375.001
514.825 404.254 0 514.825 404.254
514.837 432.807 0 514.837 432.807
490.803 441.571 0 490.803 441.571
502.554 447.25 0 502.554 447.25
515.378 449.861 0 515.378 449.861
528.187 447.169 0 528.187 447.169
539.902 441.468 0 539.902 441.468
431.898 342.428 0 431.898 342.428
446.347 334.859 0 446.347 334.859
463.369 335.996 0 463.369 335.996
476.907 345.245 0 476.907 345.245
461.668 347.564 0 461.668 347.564
446.086 347.442 0 446.086 347.442
552.508 345.048 0 552.508 345.048
565.858 335.753 0 565.858 335.753
582.899 334.489 0 582.899 334.489
597.514 341.896 0 597.514 341.896
583.372 347.07 0 583.372 347.07
567.782 347.268 0 567.782 347.268
462.901 470.692 0 462.901 470.692
476.576 461.131 0 476.576 461.131
495.07 456.673 0 495.07 456.673
515.038 460.377 0 515.038 460.377
535.23 456.72 0 535.23 456.72
553.835 461.305 0 553.835 461.305
567.67 470.979 0 567.67 470.979
555.159 490.327 0 555.159 490.327
537.153 504.374 0 537.153 504.374
514.933 509.742 0 514.933 509.742
493.029 504.201 0 493.029 504.201
475.26 489.969 0 475.26 489.969
492.6 469.012 0 492.6 469.012
515.062 472.419 0 515.062 472.419
537.7 469.09 0 537.7 469.09
538.522 483.178 0 538.522 483.178
515.095 489.165 0 515.095 489.165
491.858 483.063 0 491.858 483.063
3 20 21 23
3 21 22 23
3 0 1 36
3 15 16 45
3 0 17 36
3 16 26 45
3 17 18 37
3 25 26 44
3 17 36 37
3 26 44 45
3 18 19 38
3 24 25 43
3 18 37 38
3 25 43 44
3 19 20 38
3 23 24 43
3 20 21 39
3 22 23 42
3 20 38 39
3 23 42 43
3 21 22 27
3 21 27 39
3 22 27 42
3 27 28 42
3 27 28 39
3 28 42 47
3 28 39 40
3 1 36 41
3 15 45 46
3 1 2 41
3 14 15 46
3 28 29 40
3 28 29 47
3 2 40 41
3 14 46 47
3 2 29 40
3 14 29 47
3 2 3 29
3 13 14 29
3 29 30 31
3 29 30 35
3 3 29 31
3 13 29 35
3 30 32 33
3 30 33 34
3 30 31 32
3 30 34 35
3 3 4 31
3 12 13 35
3 4 5 48
3 11 12 54
3 5 6 48
3 10 11 54
3 6 48 59
3 10 54 55
3 6 7 59
3 9 10 55
3 7 58 59
3 9 55 56
3 8 57 58
3 8 56 57
3 7 8 58
3 8 9 56
3 4 31 48
3 12 35 54
3 31 48 49
3 35 53 54
3 31 49 50
3 35 52 53
3 31 32 50
3 34 35 52
3 32 33 50
3 33 34 52
3 33 50 51
3 33 51 52
3 48 49 60
3 49 60 50
3 50 60 61
3 50 51 61
3 51 52 61
3 61 62 52
3 52 53 62
3 53 54 62
3 54 55 63
3 55 56 63
3 56 63 64
3 56 57 64
3 64 65 57
3 57 58 65
3 58 59 65
3 48 59 65
