ply
format ascii 1.0
element vertex 66
property float x
property float y
property float z
property float u
property float v
element face 91
property list uchar int vertex_indices
end_header
-20.6547 -5.64822 21.3079 389.025 536.017
-20.0519 -0.423649 20.8425 388.489 571.062
-19.1146 4.7667 20.4846 390.616 606.13
-17.7568 9.73356 18.3869 395.69 641.558
-15.6469 14.1974 13.4633 405.969 676.635
-12.4006 17.9009 7.99404 423.298 708.348
-8.27017 20.7526 3.29433 446.226 735.57
-3.55056 22.6779 -0.880153 474.027 757.13
1.65875 22.9008 -4.53572 507.125 768.314
6.75338 21.9412 -0.807894 541.692 764.816
11.0958 19.3665 3.41769 572.848 748.936
14.7165 15.9593 8.15704 600.375 726.537
17.3322 11.8354 13.6544 623.595 698.881
18.7221 7.12069 18.5937 641.083 667.011
19.3316 2.01325 20.7063 654.051 633.928
19.5157 -3.2566 21.0748 664.044 600.558
19.3623 -8.51341 21.5385 670.873 566.472
-16.9434 -14.0024 0.166523 421.281 500.547
-14.6923 -16.1532 -1.56921 440.725 488.952
-11.7473 -17.1684 -2.95979 463.973 486.757
-8.64008 -17.2567 -4.29633 487.077 492.304
-5.61118 -16.6863 -5.52226 508.816 502.07
3.24342 -17.3161 -5.43542 572.553 509.607
6.14406 -18.3113 -4.17859 594.287 504.413
9.21432 -18.6656 -2.80935 616.591 503.43
12.2557 -18.0793 -1.38764 637.787 509.117
14.7675 -16.2699 0.371491 653.939 522.883
-0.800008 -11.6067 -4.9545 538.12 538.607
-0.571382 -8.59445 -7.76035 536.019 560.575
-0.341526 -5.60559 -10.6633 533.901 582.447
-0.111056 -2.62069 -13.4075 531.696 604.131
-3.34691 0.90089 -6.47077 503.816 615.842
-1.6415 1.2941 -7.26957 515.461 622.394
0.142254 1.35258 -8.01839 528.286 626.334
1.89493 1.04463 -7.21848 541.077 625.464
3.5165 0.412997 -6.40175 553.31 621.754
-12.5316 -9.74495 -0.905324 445.397 533.109
-10.6698 -11.0691 -1.10649 461.326 528.774
-8.3451 -11.2534 -1.2279 478.328 529.936
-6.35058 -10.2247 -0.977391 492.781 536.589
-8.3556 -9.50683 -1.10156 476.748 537.475
-10.5048 -9.27615 -1.09011 460.581 536.633
4.83678 -11.0227 -0.887733 579.579 546.296
6.66716 -12.3254 -1.11779 594.915 543.061
8.99246 -12.4738 -0.968074 611.597 545.447
11.0209 -11.4279 -0.742362 625.936 553.229
9.08377 -10.6753 -0.948989 610.623 553.511
6.92444 -10.5977 -0.987214 594.843 550.715
-6.63855 8.84013 -2.74685 472.037 661.708
-4.73902 6.8457 -4.89305 484.194 643.425
-2.32888 5.4219 -6.54708 503.857 633.371
0.427259 5.35547 -8.22771 526.123 636.763
3.15408 5.03248 -6.48681 547.703 638.591
5.72158 6.09946 -4.80547 563.45 652.905
7.86034 7.80446 -2.63884 569.437 673.63
6.14905 9.90529 -3.93286 556.598 690.146
3.75933 11.3254 -5.28293 539.077 701.708
0.883179 11.8243 -6.67982 517.362 703.795
-2.0422 11.738 -5.34336 496.266 696.417
-4.62825 10.6744 -4.02161 481.304 680.922
-2.38864 7.57584 -5.20395 500.639 649.599
0.55887 7.21472 -7.41824 524.172 651.257
3.50364 7.15671 -5.14457 546.218 655.147
3.65722 8.62822 -4.49552 543.081 679.345
0.689237 9.10764 -6.42523 520.134 683.065
-2.33557 9.05505 -4.5521 497.71 673.933
3 20 21 23
3 21 22 23
3 0 1 36
3 15 16 45
3 0 17 36
3 16 26 45
3 17 18 37
3 25 26 44
3 17 36 37
3 26 44 45
3 18 19 38
3 24 25 43
3 18 37 38
3 25 43 44
3 19 20 38
3 23 24 43
3 20 21 39
3 22 23 42
3 20 38 39
3 23 42 43
3 21 22 27
3 21 27 39
3 22 27 42
3 27 28 42
3 27 28 39
3 28 42 47
3 28 39 40
3 1 36 41
3 15 45 46
3 1 2 41
3 14 15 46
3 28 29 40
3 28 29 47
3 2 40 41
3 14 46 47
3 2 29 40
3 14 29 47
3 2 3 29
3 13 14 29
3 29 30 31
3 29 30 35
3 3 29 31
3 13 29 35
3 30 32 33
3 30 33 34
3 30 31 32
3 30 34 35
3 3 4 31
3 12 13 35
3 4 5 48
3 11 12 54
3 5 6 48
3 10 11 54
3 6 48 59
3 10 54 55
3 6 7 59
3 9 10 55
3 7 58 59
3 9 55 56
3 8 57 58
3 8 56 57
3 7 8 58
3 8 9 56
3 4 31 48
3 12 35 54
3 31 48 49
3 35 53 54
3 31 49 50
3 35 52 53
3 31 32 50
3 34 35 52
3 32 33 50
3 33 34 52
3 33 50 51
3 33 51 52
3 48 49 60
3 49 60 50
3 50 60 61
3 50 51 61
3 51 52 61
3 61 62 52
3 52 53 62
3 53 54 62
3 54 55 63
3 55 56 63
3 56 63 64
3 56 57 64
3 64 65 57
3 57 58 65
3 58 59 65
3 48 59 65
