ply
format ascii 1.0
element vertex 66
property float x
property float y
property float z
property float u
property float v
element face 91
property list uchar int vertex_indices
end_header
-20.8952 -5.12523 21.422 350.345 517.919
-20.1504 -0.157047 20.7423 352.481 541.622
-19.107 4.78761 20.416 356.033 564.973
-17.7121 9.58992 18.4111 361.243 589.301
-15.5617 13.9838 13.4762 370.061 614.636
-12.372 17.699 7.99359 383.933 637.627
-8.43515 20.7065 3.29307 401.519 656.844
-3.89606 22.8105 -0.892374 422.187 671.591
1.14262 23.2509 -4.56836 445.661 678.345
6.2265 22.2726 -0.890574 469.86 671.842
10.5536 19.5904 3.38861 490.98 656.738
14.2268 16.0953 8.1053 509.257 637.312
17.1009 11.9674 13.6237 523.968 614.023
18.7685 7.18884 18.6632 533.183 587.85
19.5698 2.01645 20.7879 538.387 562.301
19.9594 -3.27287 21.2323 541.659 537.641
20.0114 -8.56304 21.8013 543.35 512.772
-17.2034 -13.1806 0.239636 369.497 501.223
-15.0938 -15.532 -1.63797 380.008 492.683
-12.2016 -16.8455 -3.01847 393.92 488.679
-9.037 -17.1795 -4.27653 408.847 489.147
-5.90027 -16.7885 -5.37386 423.449 492.798
3.12432 -17.5266 -5.31189 466.023 491.776
6.22916 -18.5341 -4.15981 480.894 486.918
9.49794 -18.787 -2.83941 496.334 485.426
12.6758 -17.9985 -1.39117 511.066 488.587
15.2584 -16.0273 0.443837 522.688 496.68
-0.844631 -11.3077 -4.85036 445.708 518.922
-0.574347 -7.99352 -7.86438 446.024 537.018
-0.302546 -4.6955 -10.8783 446.353 555.04
-0.0325997 -1.39304 -13.5605 446.677 572.778
-3.59947 1.57391 -6.68079 429.244 579.177
-1.73553 2.15635 -7.43135 437.824 583.049
0.239389 2.30243 -8.09669 447.046 584.864
2.17742 1.85489 -7.43266 456.278 582.717
3.94665 0.980413 -6.77788 464.834 578.568
-12.4982 -9.35328 -0.782158 390.532 521.053
-10.6409 -10.5543 -1.12092 399.573 516.333
-8.40572 -10.7947 -1.37283 410.128 516.06
-6.35192 -10.0363 -1.17745 419.569 519.927
-8.36194 -9.52441 -1.11048 409.993 521.681
-10.4366 -9.2645 -1.09134 400.182 522.301
4.92108 -11.0011 -1.00191 472.763 518.363
6.82296 -12.1269 -1.28661 481.993 513.952
9.07875 -12.2568 -0.98081 492.625 513.683
11.141 -11.4064 -0.585196 502.084 517.792
9.13549 -10.948 -0.897447 492.537 519.648
7.02549 -10.8521 -0.90525 482.604 519.528
-8.00801 7.52325 -2.58349 407.001 601.632
-5.45708 5.99289 -4.78853 419.356 597.292
-2.48969 5.19642 -6.46693 433.475 595.962
0.545852 5.20994 -8.19266 447.694 598.424
3.53592 4.73698 -6.4368 461.892 595.444
6.57189 5.07507 -4.7087 476.085 596.237
9.29776 6.16907 -2.41047 488.626 599.904
7.23624 8.85695 -3.84552 478.192 613.041
4.34743 10.7324 -5.13807 464.097 622.083
0.901886 11.3958 -6.61102 447.714 625.558
-2.54508 11.2468 -5.15811 431.595 622.611
-5.6456 9.87229 -3.81084 417.434 614.211
-3.14178 6.97411 -5.2961 429.951 602.9
0.645121 6.84509 -7.59437 447.726 605.433
4.36878 6.40523 -5.32647 465.369 602.334
4.6688 8.20188 -4.51162 466.304 609.942
0.744953 8.95053 -6.43993 447.644 614.098
-3.25579 8.8146 -4.47446 428.93 610.593
3 20 21 23
3 21 22 23
3 0 1 36
3 15 16 45
3 0 17 36
3 16 26 45
3 17 18 37
3 25 26 44
3 17 36 37
3 26 44 45
3 18 19 38
3 24 25 43
3 18 37 38
3 25 43 44
3 19 20 38
3 23 24 43
3 20 21 39
3 22 23 42
3 20 38 39
3 23 42 43
3 21 22 27
3 21 27 39
3 22 27 42
3 27 28 42
3 27 28 39
3 28 42 47
3 28 39 40
3 1 36 41
3 15 45 46
3 1 2 41
3 14 15 46
3 28 29 40
3 28 29 47
3 2 40 41
3 14 46 47
3 2 29 40
3 14 29 47
3 2 3 29
3 13 14 29
3 29 30 31
3 29 30 35
3 3 29 31
3 13 29 35
3 30 32 33
3 30 33 34
3 30 31 32
3 30 34 35
3 3 4 31
3 12 13 35
3 4 5 48
3 11 12 54
3 5 6 48
3 10 11 54
3 6 48 59
3 10 54 55
3 6 7 59
3 9 10 55
3 7 58 59
3 9 55 56
3 8 57 58
3 8 56 57
3 7 8 58
3 8 9 56
3 4 31 48
3 12 35 54
3 31 48 49
3 35 53 54
3 31 49 50
3 35 52 53
3 31 32 50
3 34 35 52
3 32 33 50
3 33 34 52
3 33 50 51
3 33 51 52
3 48 49 60
3 49 60 50
3 50 60 61
3 50 51 61
3 51 52 61
3 61 62 52
3 52 53 62
3 53 54 62
3 54 55 63
3 55 56 63
3 56 63 64
3 56 57 64
3 64 65 57
3 57 58 65
3 58 59 65
3 48 59 65
