ply
format ascii 1.0
element vertex 66
property float x
property float y
property float z
property float u
property float v
element face 91
property list uchar int vertex_indices
end_header
333.639 352.125 0 333.639 352.125
337.392 389.421 0 337.392 389.421
343.765 426.284 0 343.765 426.284
351.552 463.851 0 351.552 463.851
362.924 502.65 0 362.924 502.65
381.601 538.286 0 381.601 538.286
406.406 569.169 0 406.406 569.169
437.077 592.418 0 437.077 592.418
473.16 601.673 0 473.16 601.673
510.619 591.831 0 510.619 591.831
542.476 568.109 0 542.476 568.109
568.42 536.75 0 568.42 536.75
588.158 500.522 0 588.158 500.522
600.007 460.992 0 600.007 460.992
606.995 422.663 0 606.995 422.663
612.03 385.038 0 612.03 385.038
614.517 347.08 0 614.517 347.08
354.567 324.977 0 354.567 324.977
370.848 312.642 0 370.848 312.642
391.716 307.261 0 391.716 307.261
413.791 308.561 0 413.791 308.561
435.189 314.668 0 435.189 314.668
500.384 313.237 0 500.384 313.237
521.931 306.315 0 521.931 306.315
544.409 304.18 0 544.409 304.18
566.058 308.689 0 566.058 308.689
583.795 320.254 0 583.795 320.254
468.731 354.03 0 468.731 354.03
468.801 383.22 0 468.801 383.22
468.888 412.17 0 468.888 412.17
469.037 440.632 0 469.037 440.632
444.715 451.781 0 444.715 451.781
457 457.48 0 457 457.48
470.366 459.958 0 470.366 459.958
483.858 457.081 0 483.858 457.081
496.17 451.006 0 496.17 451.006
384.869 355.293 0 384.869 355.293
399.245 347.139 0 399.245 347.139
416.351 347.585 0 416.351 347.585
430.512 356.298 0 430.512 356.298
415.188 359.161 0 415.188 359.161
399.473 359.513 0 399.473 359.513
508.465 354.849 0 508.465 354.849
522.17 345.579 0 522.17 345.579
539.445 344.563 0 539.445 344.563
554.433 352.206 0 554.433 352.206
539.852 356.968 0 539.852 356.968
524.033 357.175 0 524.033 357.175
417.385 485.008 0 417.385 485.008
431.116 473.832 0 431.116 473.832
449.948 468.303 0 449.948 468.303
470.355 471.028 0 470.355 471.028
491.405 467.782 0 491.405 467.782
511.101 472.824 0 511.101 472.824
526.222 483.564 0 526.222 483.564
513.201 503.314 0 513.201 503.314
494.521 517.651 0 494.521 517.651
471.455 522.906 0 471.455 522.906
448.956 518.173 0 448.956 518.173
430.422 504.323 0 430.422 504.323
448.231 481.948 0 448.231 481.948
470.715 484.081 0 470.715 484.081
493.991 481.374 0 493.991 481.374
495.255 496.151 0 495.255 496.151
471.173 501.885 0 471.173 501.885
447.689 496.738 0 447.689 496.738
3 20 21 23
3 21 22 23
3 0 1 36
3 15 16 45
3 0 17 36
3 16 26 45
3 17 18 37
3 25 26 44
3 17 36 37
3 26 44 45
3 18 19 38
3 24 25 43
3 18 37 38
3 25 43 44
3 19 20 38
3 23 24 43
3 20 21 39
3 22 23 42
3 20 38 39
3 23 42 43
3 21 22 27
3 21 27 39
3 22 27 42
3 27 28 42
3 27 28 39
3 28 42 47
3 28 39 40
3 1 36 41
3 15 45 46
3 1 2 41
3 14 15 46
3 28 29 40
3 28 29 47
3 2 40 41
3 14 46 47
3 2 29 40
3 14 29 47
3 2 3 29
3 13 14 29
3 29 30 31
3 29 30 35
3 3 29 31
3 13 29 35
3 30 32 33
3 30 33 34
3 30 31 32
3 30 34 35
3 3 4 31
3 12 13 35
3 4 5 48
3 11 12 54
3 5 6 48
3 10 11 54
3 6 48 59
3 10 54 55
3 6 7 59
3 9 10 55
3 7 58 59
3 9 55 56
3 8 57 58
3 8 56 57
3 7 8 58
3 8 9 56
3 4 31 48
3 12 35 54
3 31 48 49
3 35 53 54
3 31 49 50
3 35 52 53
3 31 32 50
3 34 35 52
3 32 33 50
3 33 34 52
3 33 50 51
3 33 51 52
3 48 49 60
3 49 60 50
3 50 60 61
3 50 51 61
3 51 52 61
3 61 62 52
3 52 53 62
3 53 54 62
3 54 55 63
3 55 56 63
3 56 63 64
3 56 57 64
3 64 65 57
3 57 58 65
3 58 59 65
3 48 59 65
