ply
format ascii 1.0
element vertex 66
property float x
property float y
property float z
property float u
property float v
element face 91
property list uchar int vertex_indices
end_header
265.763 237.648 0 265.763 237.648
266.773 259.641 0 266.773 259.641
269.009 281.592 0 269.009 281.592
272.333 303.124 0 272.333 303.124
277.833 323.577 0 277.833 323.577
287.69 342.028 0 287.69 342.028
301.423 357.884 0 301.423 357.884
318.693 369.629 0 318.693 369.629
339.323 373.622 0 339.323 373.622
360.593 369.463 0 360.593 369.463
378.423 357.413 0 378.423 357.413
392.734 341.262 0 392.734 341.262
403.35 322.719 0 403.35 322.719
409.842 302.583 0 409.842 302.583
413.657 281.608 0 413.657 281.608
416.056 260.256 0 416.056 260.256
417.164 238.848 0 417.164 238.848
278.773 214.505 0 278.773 214.505
287.789 206.816 0 287.789 206.816
299.239 203.599 0 299.239 203.599
311.153 204.255 0 311.153 204.255
322.545 207.713 0 322.545 207.713
357.07 208.318 0 357.07 208.318
368.431 205.215 0 368.431 205.215
380.303 204.822 0 380.303 204.822
391.675 208.143 0 391.675 208.143
400.675 215.804 0 400.675 215.804
339.912 227.657 0 339.912 227.657
339.517 241.328 0 339.517 241.328
339.116 254.934 0 339.116 254.934
338.743 268.51 0 338.743 268.51
326.307 278.124 0 326.307 278.124
332.525 280.792 0 332.525 280.792
339.293 281.979 0 339.293 281.979
346.089 280.929 0 346.089 280.929
352.349 278.379 0 352.349 278.379
294.183 231.416 0 294.183 231.416
301.98 227.132 0 301.98 227.132
311.105 227.168 0 311.105 227.168
318.646 231.63 0 318.646 231.63
310.464 233.591 0 310.464 233.591
301.984 233.723 0 301.984 233.723
361.286 232.18 0 361.286 232.18
368.79 228 0 368.79 228
377.875 228.125 0 377.875 228.125
385.52 232.613 0 385.52 232.613
377.694 234.71 0 377.694 234.71
369.293 234.357 0 369.293 234.357
309.499 302.115 0 309.499 302.115
317.324 295 0 317.324 295
327.768 291.244 0 327.768 291.244
339.066 291.891 0 339.066 291.891
350.66 291.437 0 350.66 291.437
361.292 295.351 0 361.292 295.351
369.294 302.693 0 369.294 302.693
362.942 314.993 0 362.942 314.993
352.754 324.072 0 352.754 324.072
339.147 326.718 0 339.147 326.718
325.705 323.858 0 325.705 323.858
315.703 314.576 0 315.703 314.576
326.408 298.984 0 326.408 298.984
339.164 298.985 0 339.164 298.985
352.315 299.207 0 352.315 299.207
353.31 312.021 0 353.31 312.021
339.267 315.264 0 339.267 315.264
325.537 311.798 0 325.537 311.798
3 20 21 23
3 21 22 23
3 0 1 36
3 15 16 45
3 0 17 36
3 16 26 45
3 17 18 37
3 25 26 44
3 17 36 37
3 26 44 45
3 18 19 38
3 24 25 43
3 18 37 38
3 25 43 44
3 19 20 38
3 23 24 43
3 20 21 39
3 22 23 42
3 20 38 39
3 23 42 43
3 21 22 27
3 21 27 39
3 22 27 42
3 27 28 42
3 27 28 39
3 28 42 47
3 28 39 40
3 1 36 41
3 15 45 46
3 1 2 41
3 14 15 46
3 28 29 40
3 28 29 47
3 2 40 41
3 14 46 47
3 2 29 40
3 14 29 47
3 2 3 29
3 13 14 29
3 29 30 31
3 29 30 35
3 3 29 31
3 13 29 35
3 30 32 33
3 30 33 34
3 30 31 32
3 30 34 35
3 3 4 31
3 12 13 35
3 4 5 48
3 11 12 54
3 5 6 48
3 10 11 54
3 6 48 59
3 10 54 55
3 6 7 59
3 9 10 55
3 7 58 59
3 9 55 56
3 8 57 58
3 8 56 57
3 7 8 58
3 8 9 56
3 4 31 48
3 12 35 54
3 31 48 49
3 35 53 54
3 31 49 50
3 35 52 53
3 31 32 50
3 34 35 52
3 32 33 50
3 33 34 52
3 33 50 51
3 33 51 52
3 48 49 60
3 49 60 50
3 50 60 61
3 50 51 61
3 51 52 61
3 61 62 52
3 52 53 62
3 53 54 62
3 54 55 63
3 55 56 63
3 56 63 64
3 56 57 64
3 64 65 57
3 57 58 65
3 58 59 65
3 48 59 65
