ply
format ascii 1.0
element vertex 66
property float x
property float y
property float z
property float u
property float v
element face 91
property list uchar int vertex_indices
end_header
256.235 168.624 0 256.235 168.624
256.892 193.168 0 256.892 193.168
259.282 217.597 0 259.282 217.597
262.739 242.192 0 262.739 242.192
268.264 267.099 0 268.264 267.099
278.334 290.496 0 278.334 290.496
292.931 311.013 0 292.931 311.013
311.647 326.977 0 311.647 326.977
334.667 333.6 0 334.667 333.6
359.018 328.496 0 359.018 328.496
379.594 313.714 0 379.594 313.714
396.558 294.247 0 396.558 294.247
409.456 271.737 0 409.456 271.737
417.977 247.592 0 417.977 247.592
423.664 223.631 0 423.664 223.631
427.835 199.757 0 427.835 199.757
430.297 175.627 0 430.297 175.627
270.877 146.426 0 270.877 146.426
281.423 138.962 0 281.423 138.962
294.635 136.156 0 294.635 136.156
308.347 137.394 0 308.347 137.394
321.498 141.677 0 321.498 141.677
360.08 143.471 0 360.08 143.471
373.821 140.243 0 373.821 140.243
387.949 140.087 0 387.949 140.087
401.32 143.928 0 401.32 143.928
411.789 152.247 0 411.789 152.247
340.076 166.551 0 340.076 166.551
339.002 183.583 0 339.002 183.583
337.934 200.54 0 337.934 200.54
336.914 217.376 0 336.914 217.376
323.936 230.352 0 323.936 230.352
330.373 232.693 0 330.373 232.693
337.192 233.888 0 337.192 233.888
344.327 233.245 0 344.327 233.245
351.136 231.432 0 351.136 231.432
287.585 168.112 0 287.585 168.112
296.871 162.591 0 296.871 162.591
308.038 163.173 0 308.038 163.173
316.738 169.414 0 316.738 169.414
306.934 171.885 0 306.934 171.885
296.658 171.853 0 296.658 171.853
364.658 171.364 0 364.658 171.364
373.714 165.889 0 373.714 165.889
384.896 166.235 0 384.896 166.235
393.766 172.513 0 393.766 172.513
384.405 175.471 0 384.405 175.471
374.16 174.659 0 374.16 174.659
308.072 266 0 308.072 266
315.863 259.171 0 315.863 259.171
325.59 253.946 0 325.59 253.946
336.522 256.084 0 336.522 256.084
348.118 254.785 0 348.118 254.785
357.925 260.752 0 357.925 260.752
365.858 268.221 0 365.858 268.221
358.394 277.898 0 358.394 277.898
348.184 284.486 0 348.184 284.486
335.872 286.529 0 335.872 286.529
324.084 283.619 0 324.084 283.619
314.572 276.288 0 314.572 276.288
325.371 264.312 0 325.371 264.312
336.428 265.274 0 336.428 265.274
348.189 265.159 0 348.189 265.159
348.136 269.078 0 348.136 269.078
336.414 270.879 0 336.414 270.879
325.36 268.248 0 325.36 268.248
3 20 21 23
3 21 22 23
3 0 1 36
3 15 16 45
3 0 17 36
3 16 26 45
3 17 18 37
3 25 26 44
3 17 36 37
3 26 44 45
3 18 19 38
3 24 25 43
3 18 37 38
3 25 43 44
3 19 20 38
3 23 24 43
3 20 21 39
3 22 23 42
3 20 38 39
3 23 42 43
3 21 22 27
3 21 27 39
3 22 27 42
3 27 28 42
3 27 28 39
3 28 42 47
3 28 39 40
3 1 36 41
3 15 45 46
3 1 2 41
3 14 15 46
3 28 29 40
3 28 29 47
3 2 40 41
3 14 46 47
3 2 29 40
3 14 29 47
3 2 3 29
3 13 14 29
3 29 30 31
3 29 30 35
3 3 29 31
3 13 29 35
3 30 32 33
3 30 33 34
3 30 31 32
3 30 34 35
3 3 4 31
3 12 13 35
3 4 5 48
3 11 12 54
3 5 6 48
3 10 11 54
3 6 48 59
3 10 54 55
3 6 7 59
3 9 10 55
3 7 58 59
3 9 55 56
3 8 57 58
3 8 56 57
3 7 8 58
3 8 9 56
3 4 31 48
3 12 35 54
3 31 48 49
3 35 53 54
3 31 49 50
3 35 52 53
3 31 32 50
3 34 35 52
3 32 33 50
3 33 34 52
3 33 50 51
3 33 51 52
3 48 49 60
3 49 60 50
3 50 60 61
3 50 51 61
3 51 52 61
3 61 62 52
3 52 53 62
3 53 54 62
3 54 55 63
3 55 56 63
3 56 63 64
3 56 57 64
3 64 65 57
3 57 58 65
3 58 59 65
3 48 59 65
