ply
format ascii 1.0
element vertex 66
property float x
property float y
property float z
property float u
property float v
element face 91
property list uchar int vertex_indices
end_header
-20.2666 -5.46404 21.3633 333.639 352.125
-19.4492 -0.293567 20.7453 337.392 389.421
-18.2731 4.84131 20.3614 343.765 426.284
-16.8631 9.75677 18.4678 351.552 463.851
-14.8781 14.168 13.3907 362.924 502.65
-11.8879 18.0085 8.02432 381.601 538.286
-8.08804 21.249 3.29183 406.406 569.169
-3.5348 23.4587 -0.91318 437.077 592.418
1.65869 23.7533 -4.48967 473.16 601.673
6.75686 22.7787 -0.871536 510.619 591.831
10.9539 19.9972 3.38113 542.476 568.109
14.2554 16.28 8.15516 568.42 536.75
16.6385 12.0482 13.5653 588.158 500.522
17.8982 7.35114 18.6894 600.007 460.992
18.551 2.20902 20.6005 606.995 422.663
18.9654 -3.11839 21.0337 612.03 385.038
19.0166 -8.43305 21.66 614.517 347.08
-17.1147 -13.8237 0.273197 354.567 324.977
-14.8891 -16.1092 -1.63404 370.848 312.642
-11.9805 -17.3238 -2.97685 391.716 307.261
-8.85451 -17.5775 -4.23932 413.791 308.561
-5.78943 -17.1179 -5.39833 435.189 314.668
3.32613 -17.8382 -5.29934 500.384 313.237
6.26718 -18.7606 -4.10796 521.931 306.315
9.37227 -18.9847 -2.80775 544.409 304.18
12.4094 -18.2368 -1.42914 566.058 308.689
14.9409 -16.3398 0.483322 583.795 320.254
-0.810244 -11.6483 -4.79774 468.731 354.03
-0.519062 -8.11602 -7.9145 468.801 383.22
-0.229217 -4.59766 -10.9309 468.888 412.17
0.056886 -1.06032 -13.5106 469.037 440.632
-3.39763 2.07736 -6.92722 444.715 451.781
-1.62372 2.67731 -7.48133 457 457.48
0.2753 2.82956 -7.93101 470.366 459.958
2.13297 2.40769 -7.44152 483.858 457.081
3.7997 1.55592 -6.86748 496.17 451.006
-12.6257 -9.93665 -0.677882 384.869 355.293
-10.6652 -11.3081 -1.1115 399.245 347.139
-8.26023 -11.4517 -1.43771 416.351 347.585
-6.21681 -10.2767 -1.20829 430.512 356.298
-8.34208 -9.73064 -1.15447 415.188 359.161
-10.5418 -9.53053 -1.05307 399.473 359.513
4.68428 -11.0976 -1.07695 508.465 354.849
6.53844 -12.5833 -1.31633 522.17 345.579
8.94271 -12.8006 -0.97454 539.445 344.563
11.0895 -11.7404 -0.525427 554.433 352.206
9.09119 -11.0176 -0.904196 539.852 356.968
6.88014 -10.881 -1.01661 524.033 357.175
-7.06458 7.95316 -2.49954 417.385 485.008
-5.1775 5.7547 -4.89338 431.116 473.832
-2.54886 4.47207 -6.54783 449.948 468.303
0.36456 4.33073 -8.3237 470.355 471.028
3.25133 4.06171 -6.52423 491.405 467.782
6.0126 4.96629 -4.82973 511.101 472.824
8.16112 6.87418 -2.39236 526.222 483.564
6.51256 9.53272 -3.71209 513.201 503.314
4.0313 11.4627 -5.04101 494.521 517.651
0.871802 12.0918 -6.56415 471.455 522.906
-2.34403 11.9063 -5.06823 448.956 518.173
-5.06911 10.3473 -3.76127 430.422 504.323
-2.71526 6.72174 -5.14613 448.231 481.948
0.496285 6.35973 -7.50397 470.715 484.081
3.68667 6.27137 -5.10825 493.991 481.374
3.95995 8.51799 -4.39273 495.255 496.151
0.670117 9.13914 -6.33029 471.173 501.885
-2.69497 8.98709 -4.42083 447.689 496.738
3 20 21 23
3 21 22 23
3 0 1 36
3 15 16 45
3 0 17 36
3 16 26 45
3 17 18 37
3 25 26 44
3 17 36 37
3 26 44 45
3 18 19 38
3 24 25 43
3 18 37 38
3 25 43 44
3 19 20 38
3 23 24 43
3 20 21 39
3 22 23 42
3 20 38 39
3 23 42 43
3 21 22 27
3 21 27 39
3 22 27 42
3 27 28 42
3 27 28 39
3 28 42 47
3 28 39 40
3 1 36 41
3 15 45 46
3 1 2 41
3 14 15 46
3 28 29 40
3 28 29 47
3 2 40 41
3 14 46 47
3 2 29 40
3 14 29 47
3 2 3 29
3 13 14 29
3 29 30 31
3 29 30 35
3 3 29 31
3 13 29 35
3 30 32 33
3 30 33 34
3 30 31 32
3 30 34 35
3 3 4 31
3 12 13 35
3 4 5 48
3 11 12 54
3 5 6 48
3 10 11 54
3 6 48 59
3 10 54 55
3 6 7 59
3 9 10 55
3 7 58 59
3 9 55 56
3 8 57 58
3 8 56 57
3 7 8 58
3 8 9 56
3 4 31 48
3 12 35 54
3 31 48 49
3 35 53 54
3 31 49 50
3 35 52 53
3 31 32 50
3 34 35 52
3 32 33 50
3 33 34 52
3 33 50 51
3 33 51 52
3 48 49 60
3 49 60 50
3 50 60 61
3 50 51 61
3 51 52 61
3 61 62 52
3 52 53 62
3 53 54 62
3 54 55 63
3 55 56 63
3 56 63 64
3 56 57 64
3 64 65 57
3 57 58 65
3 58 59 65
3 48 59 65
