ply
format ascii 1.0
element vertex 66
property float x
property float y
property float z
property float u
property float v
element face 91
property list uchar int vertex_indices
end_header
-20.6547 -5.64822 21.3079 254.379 230.651
-20.0519 -0.423649 20.8425 255.055 256.819
-19.1146 4.7667 20.4846 257.354 282.939
-17.7568 9.73356 18.3869 261.204 308.654
-15.6469 14.1974 13.4633 267.913 333.344
-12.4006 17.9009 7.99404 279.825 355.769
-8.27017 20.7526 3.29433 296.578 374.869
-3.55056 22.6779 -0.880153 317.333 389.286
1.65875 22.9008 -4.53572 342.151 394.792
6.75338 21.9412 -0.807894 366.696 390.657
11.0958 19.3665 3.41769 387.245 376.771
14.7165 15.9593 8.15704 403.685 357.983
17.3322 11.8354 13.6544 415.729 336.182
18.7221 7.12069 18.5937 423.536 312.691
19.3316 2.01325 20.7063 428.946 288.474
19.5157 -3.2566 21.0748 432.774 263.832
19.3623 -8.51341 21.5385 434.742 239.031
-16.9434 -14.0024 0.166523 275.502 200.113
-14.6923 -16.1532 -1.56921 287.13 191.301
-11.7473 -17.1684 -2.95979 301.433 187.701
-8.64008 -17.2567 -4.29633 316.226 188.722
-5.61118 -16.6863 -5.52226 330.345 193.138
3.24342 -17.3161 -5.43542 367.172 195.738
6.14406 -18.3113 -4.17859 380.788 192.471
9.21432 -18.6656 -2.80935 394.896 192.493
12.2557 -18.0793 -1.38764 408.287 196.69
14.7675 -16.2699 0.371491 418.716 205.783
-0.800008 -11.6067 -4.9545 349.154 218.75
-0.571382 -8.59445 -7.76035 348.838 234.678
-0.341526 -5.60559 -10.6633 348.495 250.517
-0.111056 -2.62069 -13.4075 348.15 266.299
-3.34691 0.90089 -6.47077 333.08 280.884
-1.6415 1.2941 -7.26957 340.067 283.219
0.142254 1.35258 -8.01839 347.486 284.325
1.89493 1.04463 -7.21848 354.58 283.749
3.5165 0.412997 -6.40175 361.251 281.886
-12.5316 -9.74495 -0.905324 293.065 222.528
-10.6698 -11.0691 -1.10649 302.657 217.39
-8.3451 -11.2534 -1.2279 313.88 217.609
-6.35058 -10.2247 -0.977391 322.893 223.158
-8.3556 -9.50683 -1.10156 312.897 225.481
-10.5048 -9.27615 -1.09011 302.48 225.572
4.83678 -11.0227 -0.887733 372.254 225.507
6.66716 -12.3254 -1.11779 381.521 220.937
8.99246 -12.4738 -0.968074 392.503 221.436
11.0209 -11.4279 -0.742362 401.421 227.26
9.08377 -10.6753 -0.948989 391.975 229.575
6.92444 -10.5977 -0.987214 381.8 228.592
-6.63855 8.84013 -2.74685 315.467 319.607
-4.73902 6.8457 -4.89305 323.155 309.418
-2.32888 5.4219 -6.54708 334.002 302.155
0.427259 5.35547 -8.22771 346.75 303.086
3.15408 5.03248 -6.48681 359.086 303.037
5.72158 6.09946 -4.80547 368.872 310.961
7.86034 7.80446 -2.63884 374.996 321.819
6.14905 9.90529 -3.93286 368.149 331.777
3.75933 11.3254 -5.28293 358.245 338.865
0.883179 11.8243 -6.67982 345.528 340.772
-2.0422 11.738 -5.34336 332.5 337.922
-4.62825 10.6744 -4.02161 322.522 330.091
-2.38864 7.57584 -5.20395 333.452 313.306
0.55887 7.21472 -7.41824 346.457 312.641
3.50364 7.15671 -5.14457 358.79 314.226
3.65722 8.62822 -4.49552 358.588 324.17
0.689237 9.10764 -6.42523 346.059 326.279
-2.33557 9.05505 -4.5521 333.207 323.265
3 20 21 23
3 21 22 23
3 0 1 36
3 15 16 45
3 0 17 36
3 16 26 45
3 17 18 37
3 25 26 44
3 17 36 37
3 26 44 45
3 18 19 38
3 24 25 43
3 18 37 38
3 25 43 44
3 19 20 38
3 23 24 43
3 20 21 39
3 22 23 42
3 20 38 39
3 23 42 43
3 21 22 27
3 21 27 39
3 22 27 42
3 27 28 42
3 27 28 39
3 28 42 47
3 28 39 40
3 1 36 41
3 15 45 46
3 1 2 41
3 14 15 46
3 28 29 40
3 28 29 47
3 2 40 41
3 14 46 47
3 2 29 40
3 14 29 47
3 2 3 29
3 13 14 29
3 29 30 31
3 29 30 35
3 3 29 31
3 13 29 35
3 30 32 33
3 30 33 34
3 30 31 32
3 30 34 35
3 3 4 31
3 12 13 35
3 4 5 48
3 11 12 54
3 5 6 48
3 10 11 54
3 6 48 59
3 10 54 55
3 6 7 59
3 9 10 55
3 7 58 59
3 9 55 56
3 8 57 58
3 8 56 57
3 7 8 58
3 8 9 56
3 4 31 48
3 12 35 54
3 31 48 49
3 35 53 54
3 31 49 50
3 35 52 53
3 31 32 50
3 34 35 52
3 32 33 50
3 33 34 52
3 33 50 51
3 33 51 52
3 48 49 60
3 49 60 50
3 50 60 61
3 50 51 61
3 51 52 61
3 61 62 52
3 52 53 62
3 53 54 62
3 54 55 63
3 55 56 63
3 56 63 64
3 56 57 64
3 64 65 57
3 57 58 65
3 58 59 65
3 48 59 65
