ply
format ascii 1.0
element vertex 66
property float x
property float y
property float z
property float u
property float v
element face 91
property list uchar int vertex_indices
end_header
-20.8422 -5.49492 21.5959 366.469 499.004
-19.9833 -0.283167 21.1359 368.249 523.64
-18.8086 4.87736 20.6984 371.515 548.162
-17.4074 9.7997 18.5486 376.058 572.44
-15.3868 14.1499 13.5084 383.933 595.622
-12.2019 17.6889 8.03714 397.588 615.738
-8.14235 20.4006 3.38693 415.594 632.037
-3.5011 22.1683 -0.931567 436.68 644.072
1.60009 22.275 -4.55346 460.561 648.32
6.62997 21.4042 -0.857195 483.995 644.769
10.91 18.9063 3.49306 504.6 633.098
14.4277 15.5526 8.17726 522.013 617.005
16.9851 11.5666 13.661 535.185 597.233
18.372 7.06866 18.6184 543.185 574.839
19.0654 2.18515 20.7854 548.339 551.612
19.4645 -2.88532 21.1736 552.338 528.19
19.505 -7.96074 21.6293 554.672 504.564
-18.0989 -14.3584 0.28195 384.562 468.699
-15.5556 -16.6268 -1.46535 397.461 460.069
-12.2779 -17.5639 -2.89625 413.171 457.755
-8.88622 -17.4854 -4.25464 428.969 460.148
-5.61048 -16.7058 -5.47091 443.917 465.666
3.33606 -17.1988 -5.44854 485.625 467.141
6.28419 -18.3638 -4.16101 499.705 462.427
9.45012 -18.901 -2.75162 514.517 460.65
12.6652 -18.5541 -1.26615 529.172 462.944
15.4185 -16.8573 0.499395 541.085 471.153
-0.572613 -11.4188 -4.88549 464.972 491.941
-0.338135 -8.18815 -7.82162 464.888 508.266
-0.108583 -4.98673 -10.8474 464.801 524.493
0.116496 -1.7836 -13.6494 464.675 540.627
-2.87155 1.56274 -6.58796 448.861 551.686
-1.28019 1.90315 -7.43258 456.158 554.303
0.37617 1.94332 -8.19842 463.88 555.525
1.95051 1.70344 -7.36999 471.224 554.711
3.41369 1.16788 -6.47509 478.176 552.455
-13.5247 -9.82387 -0.664167 403.901 491.985
-11.4154 -11.4562 -1.01752 414.412 485.49
-8.72045 -11.6097 -1.29412 426.998 486.037
-6.51009 -10.1171 -1.10498 436.596 493.776
-8.80864 -9.35308 -1.14691 425.609 496.357
-11.2591 -9.14527 -1.02888 414.145 496.234
5.02052 -10.8255 -1.04057 490.379 495.323
6.98207 -12.5648 -1.17376 500.234 488.174
9.64508 -12.8045 -0.882845 512.667 488.058
11.9227 -11.4552 -0.516591 522.626 495.084
9.79693 -10.4745 -0.908305 512.373 498.894
7.36686 -10.3651 -1.05468 501.066 498.442
-6.80871 8.81653 -2.79656 427.207 581.846
-4.61256 7.10752 -5.01968 438.29 575.865
-2.15048 5.88996 -6.67817 450.354 572.014
0.498168 5.90217 -8.40057 462.761 573.95
3.08071 5.56678 -6.58932 474.751 572.682
5.61537 6.46522 -4.91013 485.999 577.15
7.91304 7.92476 -2.70499 495.868 583.876
6.04615 9.742 -3.95766 486.521 592.041
3.57179 10.8367 -5.20262 474.665 596.61
0.834881 11.1856 -6.55597 461.919 597.673
-1.964 11.1629 -5.27639 448.853 595.822
-4.61036 10.372 -4.05134 436.828 590.512
-2.31938 7.98318 -5.42039 448.58 581.051
0.626294 7.7737 -7.57945 462.492 582.282
3.52371 7.63324 -5.2761 475.822 581.828
3.60585 8.12815 -4.54954 475.938 583.825
0.671055 8.30913 -6.4432 462.386 584.269
-2.30936 8.48824 -4.66056 448.354 583.05
3 20 21 23
3 21 22 23
3 0 1 36
3 15 16 45
3 0 17 36
3 16 26 45
3 17 18 37
3 25 26 44
3 17 36 37
3 26 44 45
3 18 19 38
3 24 25 43
3 18 37 38
3 25 43 44
3 19 20 38
3 23 24 43
3 20 21 39
3 22 23 42
3 20 38 39
3 23 42 43
3 21 22 27
3 21 27 39
3 22 27 42
3 27 28 42
3 27 28 39
3 28 42 47
3 28 39 40
3 1 36 41
3 15 45 46
3 1 2 41
3 14 15 46
3 28 29 40
3 28 29 47
3 2 40 41
3 14 46 47
3 2 29 40
3 14 29 47
3 2 3 29
3 13 14 29
3 29 30 31
3 29 30 35
3 3 29 31
3 13 29 35
3 30 32 33
3 30 33 34
3 30 31 32
3 30 34 35
3 3 4 31
3 12 13 35
3 4 5 48
3 11 12 54
3 5 6 48
3 10 11 54
3 6 48 59
3 10 54 55
3 6 7 59
3 9 10 55
3 7 58 59
3 9 55 56
3 8 57 58
3 8 56 57
3 7 8 58
3 8 9 56
3 4 31 48
3 12 35 54
3 31 48 49
3 35 53 54
3 31 49 50
3 35 52 53
3 31 32 50
3 34 35 52
3 32 33 50
3 33 34 52
3 33 50 51
3 33 51 52
3 48 49 60
3 49 60 50
3 50 60 61
3 50 51 61
3 51 52 61
3 61 62 52
3 52 53 62
3 53 54 62
3 54 55 63
3 55 56 63
3 56 63 64
3 56 57 64
3 64 65 57
3 57 58 65
3 58 59 65
3 48 59 65
