ply
format ascii 1.0
element vertex 66
property float x
property float y
property float z
property float u
property float v
element face 91
property list uchar int vertex_indices
end_header
335.67 570.449 0 335.67 570.449
336.734 605.16 0 336.734 605.16
340.296 639.176 0 340.296 639.176
346.011 675.297 0 346.011 675.297
356.448 713.081 0 356.448 713.081
376.52 746.462 0 376.52 746.462
404.907 771.703 0 404.907 771.703
437.576 790.323 0 437.576 790.323
473.11 798.13 0 473.11 798.13
509.195 789.76 0 509.195 789.76
542.149 770.763 0 542.149 770.763
570.757 745.127 0 570.757 745.127
590.766 711.258 0 590.766 711.258
600.823 672.986 0 600.823 672.986
606.015 636.299 0 606.015 636.299
608.924 601.695 0 608.924 601.695
609.358 566.48 0 609.358 566.48
358.752 563.871 0 358.752 563.871
376.707 552.903 0 376.707 552.903
399.168 550.053 0 399.168 550.053
422.085 553.724 0 422.085 553.724
443.902 561.889 0 443.902 561.889
497.135 561.419 0 497.135 561.419
519.2 552.688 0 519.2 552.688
542.486 548.506 0 542.486 548.506
565.499 550.976 0 565.499 550.976
584.235 561.795 0 584.235 561.795
471.001 597.34 0 471.001 597.34
471.084 623.085 0 471.084 623.085
471.183 649.124 0 471.183 649.124
471.3 674.935 0 471.3 674.935
451.155 686.504 0 451.155 686.504
461.222 690.012 0 461.222 690.012
471.712 691.641 0 471.712 691.641
482.439 689.701 0 482.439 689.701
492.66 686.037 0 492.66 686.037
386.787 595.072 0 386.787 595.072
401.873 585.679 0 401.873 585.679
420.378 586.585 0 420.378 586.585
434.536 597.638 0 434.536 597.638
418.562 602.224 0 418.562 602.224
401.651 602.256 0 401.651 602.256
509.12 596.812 0 509.12 596.812
523.048 585.46 0 523.048 585.46
541.577 584.348 0 541.577 584.348
556.936 593.506 0 556.936 593.506
542.154 600.885 0 542.154 600.885
525.203 601.175 0 525.203 601.175
433.399 734.854 0 433.399 734.854
444.969 726.709 0 444.969 726.709
457.632 719.421 0 457.632 719.421
472.03 723.509 0 472.03 723.509
486.707 719.133 0 486.707 719.133
499.761 726.315 0 499.761 726.315
511.872 734.248 0 511.872 734.248
499.658 741.038 0 499.658 741.038
485.722 744.696 0 485.722 744.696
472.247 746.256 0 472.247 746.256
459.07 745.02 0 459.07 745.02
445.335 741.516 0 445.335 741.516
459.676 734.21 0 459.676 734.21
472.21 736.328 0 472.21 736.328
485.016 733.954 0 485.016 733.954
483.538 723.862 0 483.538 723.862
472.032 723.769 0 472.032 723.769
460.806 724.093 0 460.806 724.093
3 20 21 23
3 21 22 23
3 0 1 36
3 15 16 45
3 0 17 36
3 16 26 45
3 17 18 37
3 25 26 44
3 17 36 37
3 26 44 45
3 18 19 38
3 24 25 43
3 18 37 38
3 25 43 44
3 19 20 38
3 23 24 43
3 20 21 39
3 22 23 42
3 20 38 39
3 23 42 43
3 21 22 27
3 21 27 39
3 22 27 42
3 27 28 42
3 27 28 39
3 28 42 47
3 28 39 40
3 1 36 41
3 15 45 46
3 1 2 41
3 14 15 46
3 28 29 40
3 28 29 47
3 2 40 41
3 14 46 47
3 2 29 40
3 14 29 47
3 2 3 29
3 13 14 29
3 29 30 31
3 29 30 35
3 3 29 31
3 13 29 35
3 30 32 33
3 30 33 34
3 30 31 32
3 30 34 35
3 3 4 31
3 12 13 35
3 4 5 48
3 11 12 54
3 5 6 48
3 10 11 54
3 6 48 59
3 10 54 55
3 6 7 59
3 9 10 55
3 7 58 59
3 9 55 56
3 8 57 58
3 8 56 57
3 7 8 58
3 8 9 56
3 4 31 48
3 12 35 54
3 31 48 49
3 35 53 54
3 31 49 50
3 35 52 53
3 31 32 50
3 34 35 52
3 32 33 50
3 33 34 52
3 33 50 51
3 33 51 52
3 48 49 60
3 49 60 50
3 50 60 61
3 50 51 61
3 51 52 61
3 61 62 52
3 52 53 62
3 53 54 62
3 54 55 63
3 55 56 63
3 56 63 64
3 56 57 64
3 64 65 57
3 57 58 65
3 58 59 65
3 48 59 65
