ply
format ascii 1.0
element vertex 66
property float x
property float y
property float z
property float u
property float v
element face 91
property list uchar int vertex_indices
end_header
350.345 517.919 0 350.345 517.919
352.481 541.622 0 352.481 541.622
356.033 564.973 0 356.033 564.973
361.243 589.301 0 361.243 589.301
370.061 614.636 0 370.061 614.636
383.933 637.627 0 383.933 637.627
401.519 656.844 0 401.519 656.844
422.187 671.591 0 422.187 671.591
445.661 678.345 0 445.661 678.345
469.86 671.842 0 469.86 671.842
490.98 656.738 0 490.98 656.738
509.257 637.312 0 509.257 637.312
523.968 614.023 0 523.968 614.023
533.183 587.85 0 533.183 587.85
538.387 562.301 0 538.387 562.301
541.659 537.641 0 541.659 537.641
543.35 512.772 0 543.35 512.772
369.497 501.223 0 369.497 501.223
380.008 492.683 0 380.008 492.683
393.92 488.679 0 393.92 488.679
408.847 489.147 0 408.847 489.147
423.449 492.798 0 423.449 492.798
466.023 491.776 0 466.023 491.776
480.894 486.918 0 480.894 486.918
496.334 485.426 0 496.334 485.426
511.066 488.587 0 511.066 488.587
522.688 496.68 0 522.688 496.68
445.708 518.922 0 445.708 518.922
446.024 537.018 0 446.024 537.018
446.353 555.04 0 446.353 555.04
446.677 572.778 0 446.677 572.778
429.244 579.177 0 429.244 579.177
437.824 583.049 0 437.824 583.049
447.046 584.864 0 447.046 584.864
456.278 582.717 0 456.278 582.717
464.834 578.568 0 464.834 578.568
390.532 521.053 0 390.532 521.053
399.573 516.333 0 399.573 516.333
410.128 516.06 0 410.128 516.06
419.569 519.927 0 419.569 519.927
409.993 521.681 0 409.993 521.681
400.182 522.301 0 400.182 522.301
472.763 518.363 0 472.763 518.363
481.993 513.952 0 481.993 513.952
492.625 513.683 0 492.625 513.683
502.084 517.792 0 502.084 517.792
492.537 519.648 0 492.537 519.648
482.604 519.528 0 482.604 519.528
407.001 601.632 0 407.001 601.632
419.356 597.292 0 419.356 597.292
433.475 595.962 0 433.475 595.962
447.694 598.424 0 447.694 598.424
461.892 595.444 0 461.892 595.444
476.085 596.237 0 476.085 596.237
488.626 599.904 0 488.626 599.904
478.192 613.041 0 478.192 613.041
464.097 622.083 0 464.097 622.083
447.714 625.558 0 447.714 625.558
431.595 622.611 0 431.595 622.611
417.434 614.211 0 417.434 614.211
429.951 602.9 0 429.951 602.9
447.726 605.433 0 447.726 605.433
465.369 602.334 0 465.369 602.334
466.304 609.942 0 466.304 609.942
447.644 614.098 0 447.644 614.098
428.93 610.593 0 428.93 610.593
3 20 21 23
3 21 22 23
3 0 1 36
3 15 16 45
3 0 17 36
3 16 26 45
3 17 18 37
3 25 26 44
3 17 36 37
3 26 44 45
3 18 19 38
3 24 25 43
3 18 37 38
3 25 43 44
3 19 20 38
3 23 24 43
3 20 21 39
3 22 23 42
3 20 38 39
3 23 42 43
3 21 22 27
3 21 27 39
3 22 27 42
3 27 28 42
3 27 28 39
3 28 42 47
3 28 39 40
3 1 36 41
3 15 45 46
3 1 2 41
3 14 15 46
3 28 29 40
3 28 29 47
3 2 40 41
3 14 46 47
3 2 29 40
3 14 29 47
3 2 3 29
3 13 14 29
3 29 30 31
3 29 30 35
3 3 29 31
3 13 29 35
3 30 32 33
3 30 33 34
3 30 31 32
3 30 34 35
3 3 4 31
3 12 13 35
3 4 5 48
3 11 12 54
3 5 6 48
3 10 11 54
3 6 48 59
3 10 54 55
3 6 7 59
3 9 10 55
3 7 58 59
3 9 55 56
3 8 57 58
3 8 56 57
3 7 8 58
3 8 9 56
3 4 31 48
3 12 35 54
3 31 48 49
3 35 53 54
3 31 49 50
3 35 52 53
3 31 32 50
3 34 35 52
3 32 33 50
3 33 34 52
3 33 50 51
3 33 51 52
3 48 49 60
3 49 60 50
3 50 60 61
3 50 51 61
3 51 52 61
3 61 62 52
3 52 53 62
3 53 54 62
3 54 55 63
3 55 56 63
3 56 63 64
3 56 57 64
3 64 65 57
3 57 58 65
3 58 59 65
3 48 59 65
