ply
format ascii 1.0
element vertex 66
property float x
property float y
property float z
property float u
property float v
element face 91
property list uchar int vertex_indices
end_header
375.571 558.65 0 375.571 558.65
377.976 587.099 0 377.976 587.099
382.488 615.223 0 382.488 615.223
388.627 644.143 0 388.627 644.143
398.252 673.65 0 398.252 673.65
413.842 700.33 0 413.842 700.33
434.518 722.149 0 434.518 722.149
458.691 738.919 0 458.691 738.919
486.324 745.799 0 486.324 745.799
515.363 738.374 0 515.363 738.374
540.665 721.157 0 540.665 721.157
562.17 698.494 0 562.17 698.494
578.363 670.93 0 578.363 670.93
588.187 640.697 0 588.187 640.697
593.974 611.314 0 593.974 611.314
597.802 582.781 0 597.802 582.781
599.491 553.927 0 599.491 553.927
395.92 525.45 0 395.92 525.45
410.255 516.397 0 410.255 516.397
427.984 513.59 0 427.984 513.59
446.216 516.01 0 446.216 516.01
463.462 522.705 0 463.462 522.705
507.138 522.03 0 507.138 522.03
524.676 515.736 0 524.676 515.736
543.144 513.69 0 543.144 513.69
560.967 517.177 0 560.967 517.177
575.175 526.823 0 575.175 526.823
485.017 560.592 0 485.017 560.592
484.962 582.511 0 484.962 582.511
484.865 604.485 0 484.865 604.485
484.746 626.288 0 484.746 626.288
467.423 637.982 0 467.423 637.982
476.203 641.222 0 476.203 641.222
485.476 642.658 0 485.476 642.658
494.735 641.165 0 494.735 641.165
503.419 637.908 0 503.419 637.908
416.843 559.58 0 416.843 559.58
428.582 550.743 0 428.582 550.743
443.797 552.005 0 443.797 552.005
454.868 562.557 0 454.868 562.557
442.135 566.907 0 442.135 566.907
428.563 566.693 0 428.563 566.693
514.832 562.568 0 514.832 562.568
525.622 552.03 0 525.622 552.03
540.86 550.681 0 540.86 550.681
552.754 559.558 0 552.754 559.558
541.089 566.6 0 541.089 566.6
527.553 566.814 0 527.553 566.814
447.1 674.468 0 447.1 674.468
458.647 668.602 0 458.647 668.602
471.308 663.751 0 471.308 663.751
485.066 666.554 0 485.066 666.554
499.259 663.721 0 499.259 663.721
512.316 668.517 0 512.316 668.517
524.331 674.3 0 524.331 674.3
513.558 684.39 0 513.558 684.39
500.105 690.804 0 500.105 690.804
485.343 693.347 0 485.343 693.347
470.915 690.851 0 470.915 690.851
457.669 684.487 0 457.669 684.487
470.915 673.997 0 470.915 673.997
485.209 676.019 0 485.209 676.019
499.997 673.976 0 499.997 673.976
500.052 675.679 0 500.052 675.679
485.27 677.745 0 485.27 677.745
470.949 675.733 0 470.949 675.733
3 20 21 23
3 21 22 23
3 0 1 36
3 15 16 45
3 0 17 36
3 16 26 45
3 17 18 37
3 25 26 44
3 17 36 37
3 26 44 45
3 18 19 38
3 24 25 43
3 18 37 38
3 25 43 44
3 19 20 38
3 23 24 43
3 20 21 39
3 22 23 42
3 20 38 39
3 23 42 43
3 21 22 27
3 21 27 39
3 22 27 42
3 27 28 42
3 27 28 39
3 28 42 47
3 28 39 40
3 1 36 41
3 15 45 46
3 1 2 41
3 14 15 46
3 28 29 40
3 28 29 47
3 2 40 41
3 14 46 47
3 2 29 40
3 14 29 47
3 2 3 29
3 13 14 29
3 29 30 31
3 29 30 35
3 3 29 31
3 13 29 35
3 30 32 33
3 30 33 34
3 30 31 32
3 30 34 35
3 3 4 31
3 12 13 35
3 4 5 48
3 11 12 54
3 5 6 48
3 10 11 54
3 6 48 59
3 10 54 55
3 6 7 59
3 9 10 55
3 7 58 59
3 9 55 56
3 8 57 58
3 8 56 57
3 7 8 58
3 8 9 56
3 4 31 48
3 12 35 54
3 31 48 49
3 35 53 54
3 31 49 50
3 35 52 53
3 31 32 50
3 34 35 52
3 32 33 50
3 33 34 52
3 33 50 51
3 33 51 52
3 48 49 60
3 49 60 50
3 50 60 61
3 50 51 61
3 51 52 61
3 61 62 52
3 52 53 62
3 53 54 62
3 54 55 63
3 55 56 63
3 56 63 64
3 56 57 64
3 64 65 57
3 57 58 65
3 58 59 65
3 48 59 65
