ply
format ascii 1.0
element vertex 66
property float x
property float y
property float z
property float u
property float v
element face 91
property list uchar int vertex_indices
end_header
-20.6547 -5.64822 21.3079 244.32 196.972
-20.0519 -0.423649 20.8425 244.77 225.817
-19.1146 4.7667 20.4846 247.166 254.569
-17.7568 9.73356 18.3869 250.647 283.297
-15.6469 14.1974 13.4633 256.692 312.07
-12.4006 17.9009 7.99404 268.09 339.448
-8.27017 20.7526 3.29433 284.84 363.872
-3.55056 22.6779 -0.880153 306.639 383.059
1.65875 22.9008 -4.53572 333.975 390.951
6.75338 21.9412 -0.807894 362.09 385.989
11.0958 19.3665 3.41769 385.809 369.202
14.7165 15.9593 8.15704 404.976 346.59
17.3322 11.8354 13.6544 419.106 320.503
18.7221 7.12069 18.5937 428.105 292.572
19.3316 2.01325 20.7063 434.571 264.5
19.5157 -3.2566 21.0748 439.974 236.318
19.3623 -8.51341 21.5385 443.445 207.832
-16.9434 -14.0024 0.166523 264.793 164.166
-14.6923 -16.1532 -1.56921 277.206 156.19
-11.7473 -17.1684 -2.95979 292.162 153.343
-8.64008 -17.2567 -4.29633 307.514 154.726
-5.61118 -16.6863 -5.52226 322.132 159.533
3.24342 -17.3161 -5.43542 370.486 162.27
6.14406 -18.3113 -4.17859 385.527 159.226
9.21432 -18.6656 -2.80935 400.899 159.646
12.2557 -18.0793 -1.38764 415.369 164.249
14.7675 -16.2699 0.371491 426.676 173.641
-0.800008 -11.6067 -4.9545 344.604 192.452
-0.571382 -8.59445 -7.76035 343.529 212.459
-0.341526 -5.60559 -10.6633 342.461 232.356
-0.111056 -2.62069 -13.4075 341.403 252.122
-3.34691 0.90089 -6.47077 324.556 267.928
-1.6415 1.2941 -7.26957 332.239 270.582
0.142254 1.35258 -8.01839 340.349 271.984
1.89493 1.04463 -7.21848 348.529 271.477
3.5165 0.412997 -6.40175 356.396 269.672
-12.5316 -9.74495 -0.905324 282.042 191.701
-10.6698 -11.0691 -1.10649 292.93 184.681
-8.3451 -11.2534 -1.2279 306.13 185.844
-6.35058 -10.2247 -0.977391 315.65 194.503
-8.3556 -9.50683 -1.10156 304.262 197.576
-10.5048 -9.27615 -1.09011 292.25 197.146
4.83678 -11.0227 -0.887733 372.745 197.778
6.66716 -12.3254 -1.11779 383.139 190.267
8.99246 -12.4738 -0.968074 396.362 190.563
11.0209 -11.4279 -0.742362 406.375 198.755
9.08377 -10.6753 -0.948989 395.645 203.008
6.92444 -10.5977 -0.987214 383.689 202.089
-6.63855 8.84013 -2.74685 303.925 309.794
-4.73902 6.8457 -4.89305 314.025 302.163
-2.32888 5.4219 -6.54708 325.882 296.313
0.427259 5.35547 -8.22771 338.782 298.859
3.15408 5.03248 -6.48681 351.918 297.744
5.72158 6.09946 -4.80547 363.057 304.849
7.86034 7.80446 -2.63884 372.241 313.562
6.14905 9.90529 -3.93286 363.399 324.994
3.75933 11.3254 -5.28293 351.263 332.488
0.883179 11.8243 -6.67982 336.904 334.469
-2.0422 11.738 -5.34336 322.846 330.925
-4.62825 10.6744 -4.02161 311.559 322.133
-2.38864 7.57584 -5.20395 324.77 308.525
0.55887 7.21472 -7.41824 338.24 309.746
3.50364 7.15671 -5.14457 351.735 310.013
3.65722 8.62822 -4.49552 351.573 314.633
0.689237 9.10764 -6.42523 337.912 316.123
-2.33557 9.05505 -4.5521 324.494 313.135
3 20 21 23
3 21 22 23
3 0 1 36
3 15 16 45
3 0 17 36
3 16 26 45
3 17 18 37
3 25 26 44
3 17 36 37
3 26 44 45
3 18 19 38
3 24 25 43
3 18 37 38
3 25 43 44
3 19 20 38
3 23 24 43
3 20 21 39
3 22 23 42
3 20 38 39
3 23 42 43
3 21 22 27
3 21 27 39
3 22 27 42
3 27 28 42
3 27 28 39
3 28 42 47
3 28 39 40
3 1 36 41
3 15 45 46
3 1 2 41
3 14 15 46
3 28 29 40
3 28 29 47
3 2 40 41
3 14 46 47
3 2 29 40
3 14 29 47
3 2 3 29
3 13 14 29
3 29 30 31
3 29 30 35
3 3 29 31
3 13 29 35
3 30 32 33
3 30 33 34
3 30 31 32
3 30 34 35
3 3 4 31
3 12 13 35
3 4 5 48
3 11 12 54
3 5 6 48
3 10 11 54
3 6 48 59
3 10 54 55
3 6 7 59
3 9 10 55
3 7 58 59
3 9 55 56
3 8 57 58
3 8 56 57
3 7 8 58
3 8 9 56
3 4 31 48
3 12 35 54
3 31 48 49
3 35 53 54
3 31 49 50
3 35 52 53
3 31 32 50
3 34 35 52
3 32 33 50
3 33 34 52
3 33 50 51
3 33 51 52
3 48 49 60
3 49 60 50
3 50 60 61
3 50 51 61
3 51 52 61
3 61 62 52
3 52 53 62
3 53 54 62
3 54 55 63
3 55 56 63
3 56 63 64
3 56 57 64
3 64 65 57
3 57 58 65
3 58 59 65
3 48 59 65
