ply
format ascii 1.0
element vertex 66
property float x
property float y
property float z
property float u
property float v
element face 91
property list uchar int vertex_indices
end_header
-20.6547 -5.64822 21.3079 120.117 232.363
-20.0519 -0.423649 20.8425 122.285 256.601
-19.1146 4.7667 20.4846 126.029 280.362
-17.7568 9.73356 18.3869 133.609 303.808
-15.6469 14.1974 13.4633 147.572 325.735
-12.4006 17.9009 7.99404 166.664 343.872
-8.27017 20.7526 3.29433 188.762 358.327
-3.55056 22.6779 -0.880153 212.719 369.268
1.65875 22.9008 -4.53572 238.599 372.363
6.75338 21.9412 -0.807894 259.664 367.734
11.0958 19.3665 3.41769 277.319 355.463
14.7165 15.9593 8.15704 292.593 340.059
17.3322 11.8354 13.6544 304.275 321.359
18.7221 7.12069 18.5937 311.385 299.45
19.3316 2.01325 20.7063 316.195 276.316
19.5157 -3.2566 21.0748 319.823 253.044
19.3623 -8.51341 21.5385 321.006 229.374
-16.9434 -14.0024 0.166523 156.996 206.994
-14.6923 -16.1532 -1.56921 170.207 198.68
-11.7473 -17.1684 -2.95979 185.652 195.041
-8.64008 -17.2567 -4.29633 201.573 195.626
-5.61118 -16.6863 -5.52226 216.965 199.105
3.24342 -17.3161 -5.43542 261.556 198.286
6.14406 -18.3113 -4.17859 274.794 194.078
9.21432 -18.6656 -2.80935 288.485 192.619
12.2557 -18.0793 -1.38764 301.768 195.064
14.7675 -16.2699 0.371491 312.7 202.21
-0.800008 -11.6067 -4.9545 239.067 224.211
-0.571382 -8.59445 -7.76035 240.941 243.411
-0.341526 -5.60559 -10.6633 242.9 262.522
-0.111056 -2.62069 -13.4075 244.63 281.418
-3.34691 0.90089 -6.47077 221.909 291.412
-1.6415 1.2941 -7.26957 231.05 295.102
0.142254 1.35258 -8.01839 240.841 296.398
1.89493 1.04463 -7.21848 249.983 294.657
3.5165 0.412997 -6.40175 258.241 290.565
-12.5316 -9.74495 -0.905324 177.076 226.077
-10.6698 -11.0691 -1.10649 187.552 221.123
-8.3451 -11.2534 -1.2279 199.21 221.078
-6.35058 -10.2247 -0.977391 208.806 226.378
-8.3556 -9.50683 -1.10156 198.17 227.856
-10.5048 -9.27615 -1.09011 187.393 228.326
4.83678 -11.0227 -0.887733 264.104 225.072
6.66716 -12.3254 -1.11779 273.617 219.354
8.99246 -12.4738 -0.968074 285.011 218.832
11.0209 -11.4279 -0.742362 295.214 223.339
9.08377 -10.6753 -0.948989 285.51 226.084
6.92444 -10.5977 -0.987214 274.802 226.125
-6.63855 8.84013 -2.74685 205.125 320.397
-4.73902 6.8457 -4.89305 215.853 313.974
-2.32888 5.4219 -6.54708 228.097 309.731
0.427259 5.35547 -8.22771 241.182 311.593
3.15408 5.03248 -6.48681 251.57 309.148
5.72158 6.09946 -4.80547 261.517 312.89
7.86034 7.80446 -2.63884 269.264 319.017
6.14905 9.90529 -3.93286 261.914 328.598
3.75933 11.3254 -5.28293 251.808 335.357
0.883179 11.8243 -6.67982 239.871 337.652
-2.0422 11.738 -5.34336 226.154 335.987
-4.62825 10.6744 -4.02161 214.241 329.688
-2.38864 7.57584 -5.20395 226.925 318.781
0.55887 7.21472 -7.41824 240.667 319.371
3.50364 7.15671 -5.14457 251.239 318.173
3.65722 8.62822 -4.49552 250.753 321.994
0.689237 9.10764 -6.42523 239.872 324.325
-2.33557 9.05505 -4.5521 226.494 322.595
3 20 21 23
3 21 22 23
3 0 1 36
3 15 16 45
3 0 17 36
3 16 26 45
3 17 18 37
3 25 26 44
3 17 36 37
3 26 44 45
3 18 19 38
3 24 25 43
3 18 37 38
3 25 43 44
3 19 20 38
3 23 24 43
3 20 21 39
3 22 23 42
3 20 38 39
3 23 42 43
3 21 22 27
3 21 27 39
3 22 27 42
3 27 28 42
3 27 28 39
3 28 42 47
3 28 39 40
3 1 36 41
3 15 45 46
3 1 2 41
3 14 15 46
3 28 29 40
3 28 29 47
3 2 40 41
3 14 46 47
3 2 29 40
3 14 29 47
3 2 3 29
3 13 14 29
3 29 30 31
3 29 30 35
3 3 29 31
3 13 29 35
3 30 32 33
3 30 33 34
3 30 31 32
3 30 34 35
3 3 4 31
3 12 13 35
3 4 5 48
3 11 12 54
3 5 6 48
3 10 11 54
3 6 48 59
3 10 54 55
3 6 7 59
3 9 10 55
3 7 58 59
3 9 55 56
3 8 57 58
3 8 56 57
3 7 8 58
3 8 9 56
3 4 31 48
3 12 35 54
3 31 48 49
3 35 53 54
3 31 49 50
3 35 52 53
3 31 32 50
3 34 35 52
3 32 33 50
3 33 34 52
3 33 50 51
3 33 51 52
3 48 49 60
3 49 60 50
3 50 60 61
3 50 51 61
3 51 52 61
3 61 62 52
3 52 53 62
3 53 54 62
3 54 55 63
3 55 56 63
3 56 63 64
3 56 57 64
3 64 65 57
3 57 58 65
3 58 59 65
3 48 59 65
