ply
format ascii 1.0
element vertex 66
property float x
property float y
property float z
property float u
property float v
element face 91
property list uchar int vertex_indices
end_header
-19.6309 -5.02655 21.476 159.9 423.695
-18.8777 -0.0824898 21.1138 161.184 444.306
-17.8041 4.80603 20.6298 163.789 464.821
-16.4943 9.49723 18.4592 167.245 484.845
-14.5713 13.7083 13.5931 173.087 503.493
-11.6292 17.2186 8.10661 183.293 519.719
-7.87772 19.9951 3.15947 197.144 533.151
-3.53938 21.9415 -0.926 213.797 543.27
1.3074 22.2438 -4.46783 233.187 546.75
6.16957 21.2649 -0.874333 253.898 543.992
10.2175 18.6203 3.27103 271.925 534.029
13.5501 15.2379 8.24619 287.372 520.665
16.0209 11.2841 13.7443 299.545 504.572
17.4369 6.84428 18.5749 307.486 486.196
18.1407 2.05873 20.8184 312.338 466.502
18.5185 -2.88615 21.3022 315.71 446.279
18.5193 -7.85003 21.6003 317.521 425.868
-17.3664 -14.9868 0.518553 170.403 386.535
-15.3017 -17.3095 -1.31376 179.503 378.003
-12.3747 -18.3702 -2.76842 191.733 374.908
-9.26232 -18.4377 -4.11866 204.381 375.941
-6.24634 -17.8234 -5.36967 216.401 379.725
3.77777 -18.4942 -5.38588 257.786 380.594
6.54599 -19.5304 -4.0611 269.668 377.158
9.52217 -19.93 -2.64041 282.187 376.397
12.4808 -19.4096 -1.10974 294.317 379.389
14.8336 -17.5643 0.705395 303.519 387.561
-0.64148 -11.655 -4.83671 237.263 406.988
-0.410905 -8.39831 -7.73069 236.72 420.836
-0.183593 -5.17606 -10.8041 236.157 434.566
0.0386749 -1.96432 -13.76 235.589 448.234
-2.9444 1.64397 -6.6937 222.848 460.988
-1.33101 1.91479 -7.49856 229.283 462.793
0.323158 1.93758 -8.20771 235.985 463.582
1.91284 1.70394 -7.49431 242.674 463.099
3.42785 1.22396 -6.69175 249.155 461.565
-13.7174 -9.72751 -0.326546 183.407 409.552
-11.5898 -12.6513 -0.949626 193.115 398.409
-8.14354 -12.6221 -1.61735 207.176 399.865
-5.81814 -9.51742 -1.10129 215.669 413.374
-8.31814 -7.88459 -1.23476 204.808 419.19
-11.2405 -7.72847 -0.996716 192.784 418.743
4.51883 -10.2368 -1.04624 258.363 414.148
6.36103 -13.6251 -1.54078 267.081 400.977
9.74417 -14.1662 -0.830114 281.241 399.88
12.2439 -11.5683 -0.180876 290.646 411.354
10.107 -9.22329 -0.87379 280.959 420.301
7.2092 -8.97344 -1.13963 268.945 420.317
-7.15316 9.00619 -2.64179 203.395 489.12
-4.84415 7.2866 -4.97086 213.226 483.219
-2.27985 5.97209 -6.73423 224.024 478.994
0.518353 5.91536 -8.59114 235.322 480.029
3.27026 5.60556 -6.68964 246.942 479.488
5.93086 6.56969 -4.88625 257.721 484.157
8.35467 7.98981 -2.53175 267.427 490.534
6.62121 10.4282 -4.20397 259.252 500.145
4.04599 12.1472 -5.48548 247.923 506.447
0.931309 12.7674 -6.74532 234.775 508.041
-2.23786 12.5473 -5.52312 221.982 505.824
-5.05089 11.192 -4.23427 211.064 499.069
-2.43959 7.88965 -5.24198 222.85 486.599
0.628722 7.64903 -7.71634 235.253 487.062
3.65245 7.50038 -5.17583 248.003 487.193
3.92903 9.4137 -4.52167 248.528 495.054
0.773439 9.95749 -6.26495 235.185 496.387
-2.45918 9.8373 -4.56955 222.149 494.492
3 20 21 23
3 21 22 23
3 0 1 36
3 15 16 45
3 0 17 36
3 16 26 45
3 17 18 37
3 25 26 44
3 17 36 37
3 26 44 45
3 18 19 38
3 24 25 43
3 18 37 38
3 25 43 44
3 19 20 38
3 23 24 43
3 20 21 39
3 22 23 42
3 20 38 39
3 23 42 43
3 21 22 27
3 21 27 39
3 22 27 42
3 27 28 42
3 27 28 39
3 28 42 47
3 28 39 40
3 1 36 41
3 15 45 46
3 1 2 41
3 14 15 46
3 28 29 40
3 28 29 47
3 2 40 41
3 14 46 47
3 2 29 40
3 14 29 47
3 2 3 29
3 13 14 29
3 29 30 31
3 29 30 35
3 3 29 31
3 13 29 35
3 30 32 33
3 30 33 34
3 30 31 32
3 30 34 35
3 3 4 31
3 12 13 35
3 4 5 48
3 11 12 54
3 5 6 48
3 10 11 54
3 6 48 59
3 10 54 55
3 6 7 59
3 9 10 55
3 7 58 59
3 9 55 56
3 8 57 58
3 8 56 57
3 7 8 58
3 8 9 56
3 4 31 48
3 12 35 54
3 31 48 49
3 35 53 54
3 31 49 50
3 35 52 53
3 31 32 50
3 34 35 52
3 32 33 50
3 33 34 52
3 33 50 51
3 33 51 52
3 48 49 60
3 49 60 50
3 50 60 61
3 50 51 61
3 51 52 61
3 61 62 52
3 52 53 62
3 53 54 62
3 54 55 63
3 55 56 63
3 56 63 64
3 56 57 64
3 64 65 57
3 57 58 65
3 58 59 65
3 48 59 65
