ply
format ascii 1.0
element vertex 66
property float x
property float y
property float z
property float u
property float v
element face 91
property list uchar int vertex_indices
end_header
144.914 271.434 0 144.914 271.434
145.923 297.452 0 145.923 297.452
148.333 323.499 0 148.333 323.499
152.636 350.991 0 152.636 350.991
160.042 380.285 0 160.042 380.285
172.77 407.904 0 172.77 407.904
190.539 431.053 0 190.539 431.053
212.178 448.836 0 212.178 448.836
237.499 457.618 0 237.499 457.618
263.613 449.48 0 263.613 449.48
286.138 431.982 0 286.138 431.982
304.796 408.873 0 304.796 408.873
318.39 381.092 0 318.39 381.092
326.245 351.356 0 326.245 351.356
330.554 323.324 0 330.554 323.324
332.676 296.701 0 332.676 296.701
333.242 270.138 0 333.242 270.138
159.906 262.916 0 159.906 262.916
169.685 253.597 0 169.685 253.597
183.843 250.053 0 183.843 250.053
198.946 251.687 0 198.946 251.687
213.654 256.277 0 213.654 256.277
261.453 255.835 0 261.453 255.835
275.904 250.815 0 275.904 250.815
290.875 248.751 0 290.875 248.751
305.132 251.56 0 305.132 251.56
315.468 260.114 0 315.468 260.114
238.481 279.744 0 238.481 279.744
238.682 294.457 0 238.682 294.457
238.878 309.136 0 238.878 309.136
239.038 323.652 0 239.038 323.652
223.573 332.454 0 223.573 332.454
231.276 334.867 0 231.276 334.867
239.137 336.481 0 239.137 336.481
246.86 334.824 0 246.86 334.824
254.448 332.347 0 254.448 332.347
178.742 282.156 0 178.742 282.156
188.077 275.728 0 188.077 275.728
199.934 275.047 0 199.934 275.047
209.866 279.691 0 209.866 279.691
199.875 284.057 0 199.875 284.057
188.867 284.959 0 188.867 284.959
265.934 279.177 0 265.934 279.177
275.722 274.31 0 275.722 274.31
287.65 274.692 0 287.65 274.692
297.224 280.911 0 297.224 280.911
287.187 284.012 0 287.187 284.012
276.109 283.294 0 276.109 283.294
203.912 375.388 0 203.912 375.388
211.828 365.265 0 211.828 365.265
223.929 358.277 0 223.929 358.277
238.696 360.269 0 238.696 360.269
253.419 358.304 0 253.419 358.304
265.501 365.278 0 265.501 365.278
273.362 375.343 0 273.362 375.343
265.493 388.699 0 265.493 388.699
253.69 398.513 0 253.69 398.513
238.424 402.58 0 238.424 402.58
223.375 398.354 0 223.375 398.354
211.742 388.533 0 211.742 388.533
222.143 368.061 0 222.143 368.061
238.624 368.975 0 238.624 368.975
254.992 368.111 0 254.992 368.111
255.239 382.62 0 255.239 382.62
238.62 387.997 0 238.62 387.997
221.902 382.567 0 221.902 382.567
3 20 21 23
3 21 22 23
3 0 1 36
3 15 16 45
3 0 17 36
3 16 26 45
3 17 18 37
3 25 26 44
3 17 36 37
3 26 44 45
3 18 19 38
3 24 25 43
3 18 37 38
3 25 43 44
3 19 20 38
3 23 24 43
3 20 21 39
3 22 23 42
3 20 38 39
3 23 42 43
3 21 22 27
3 21 27 39
3 22 27 42
3 27 28 42
3 27 28 39
3 28 42 47
3 28 39 40
3 1 36 41
3 15 45 46
3 1 2 41
3 14 15 46
3 28 29 40
3 28 29 47
3 2 40 41
3 14 46 47
3 2 29 40
3 14 29 47
3 2 3 29
3 13 14 29
3 29 30 31
3 29 30 35
3 3 29 31
3 13 29 35
3 30 32 33
3 30 33 34
3 30 31 32
3 30 34 35
3 3 4 31
3 12 13 35
3 4 5 48
3 11 12 54
3 5 6 48
3 10 11 54
3 6 48 59
3 10 54 55
3 6 7 59
3 9 10 55
3 7 58 59
3 9 55 56
3 8 57 58
3 8 56 57
3 7 8 58
3 8 9 56
3 4 31 48
3 12 35 54
3 31 48 49
3 35 53 54
3 31 49 50
3 35 52 53
3 31 32 50
3 34 35 52
3 32 33 50
3 33 34 52
3 33 50 51
3 33 51 52
3 48 49 60
3 49 60 50
3 50 60 61
3 50 51 61
3 51 52 61
3 61 62 52
3 52 53 62
3 53 54 62
3 54 55 63
3 55 56 63
3 56 63 64
3 56 57 64
3 64 65 57
3 57 58 65
3 58 59 65
3 48 59 65
