ply
format ascii 1.0
element vertex 66
property float x
property float y
property float z
property float u
property float v
element face 91
property list uchar int vertex_indices
end_header
106.032 197.252 0 106.032 197.252
112.518 217.951 0 112.518 217.951
120.369 238.058 0 120.369 238.058
128.762 259.495 0 128.762 259.495
138.807 282.654 0 138.807 282.654
152.663 303.019 0 152.663 303.019
169.633 319.154 0 169.633 319.154
188.888 330.737 0 188.888 330.737
209.544 334.525 0 209.544 334.525
230.509 323.902 0 230.509 323.902
247.025 305.793 0 247.025 305.793
259.239 283.631 0 259.239 283.631
267.338 258.68 0 267.338 258.68
271.183 233.266 0 271.183 233.266
272.599 210.758 0 272.599 210.758
272.752 190.066 0 272.752 190.066
271.051 169.247 0 271.051 169.247
108.953 188.495 0 108.953 188.495
115.166 179.208 0 115.166 179.208
126.419 173.823 0 126.419 173.823
139.551 173.056 0 139.551 173.056
152.938 174.744 0 152.938 174.744
208.071 166.928 0 208.071 166.928
219.754 161.254 0 219.754 161.254
232.185 157.778 0 232.185 157.778
244.546 158.517 0 244.546 158.517
254.19 164.163 0 254.19 164.163
187.367 196.814 0 187.367 196.814
189.664 212.742 0 189.664 212.742
191.902 228.399 0 191.902 228.399
194.097 243.521 0 194.097 243.521
184.453 251.443 0 184.453 251.443
190.84 252.64 0 190.84 252.64
197.235 253.114 0 197.235 253.114
203.02 250.726 0 203.02 250.726
208.52 247.626 0 208.52 247.626
131.381 203.488 0 131.381 203.488
138.97 196.041 0 138.97 196.041
149.99 193.998 0 149.99 193.998
159.856 198.308 0 159.856 198.308
151.179 203.684 0 151.179 203.684
141.055 205.632 0 141.055 205.632
211.876 190.495 0 211.876 190.495
219.454 183.61 0 219.454 183.61
230.432 181.952 0 230.432 181.952
240.058 186.697 0 240.058 186.697
231.763 191.715 0 231.763 191.715
221.647 192.896 0 221.647 192.896
176.916 280.821 0 176.916 280.821
182.56 275.396 0 182.56 275.396
189.794 270.429 0 189.794 270.429
199.237 272.222 0 199.237 272.222
208.168 267.693 0 208.168 267.693
217.04 270.302 0 217.04 270.302
224.587 274.03 0 224.587 274.03
219.004 281.591 0 219.004 281.591
211.325 287.372 0 211.325 287.372
202.545 291.344 0 202.545 291.344
193.468 289.844 0 193.468 289.844
184.724 286.305 0 184.724 286.305
192.165 277.8 0 192.165 277.8
200.597 278.894 0 200.597 278.894
208.872 275.365 0 208.872 275.365
208.692 275.074 0 208.692 275.074
200.78 278.425 0 200.78 278.425
192.595 277.392 0 192.595 277.392
3 20 21 23
3 21 22 23
3 0 1 36
3 15 16 45
3 0 17 36
3 16 26 45
3 17 18 37
3 25 26 44
3 17 36 37
3 26 44 45
3 18 19 38
3 24 25 43
3 18 37 38
3 25 43 44
3 19 20 38
3 23 24 43
3 20 21 39
3 22 23 42
3 20 38 39
3 23 42 43
3 21 22 27
3 21 27 39
3 22 27 42
3 27 28 42
3 27 28 39
3 28 42 47
3 28 39 40
3 1 36 41
3 15 45 46
3 1 2 41
3 14 15 46
3 28 29 40
3 28 29 47
3 2 40 41
3 14 46 47
3 2 29 40
3 14 29 47
3 2 3 29
3 13 14 29
3 29 30 31
3 29 30 35
3 3 29 31
3 13 29 35
3 30 32 33
3 30 33 34
3 30 31 32
3 30 34 35
3 3 4 31
3 12 13 35
3 4 5 48
3 11 12 54
3 5 6 48
3 10 11 54
3 6 48 59
3 10 54 55
3 6 7 59
3 9 10 55
3 7 58 59
3 9 55 56
3 8 57 58
3 8 56 57
3 7 8 58
3 8 9 56
3 4 31 48
3 12 35 54
3 31 48 49
3 35 53 54
3 31 49 50
3 35 52 53
3 31 32 50
3 34 35 52
3 32 33 50
3 33 34 52
3 33 50 51
3 33 51 52
3 48 49 60
3 49 60 50
3 50 60 61
3 50 51 61
3 51 52 61
3 61 62 52
3 52 53 62
3 53 54 62
3 54 55 63
3 55 56 63
3 56 63 64
3 56 57 64
3 64 65 57
3 57 58 65
3 58 59 65
3 48 59 65
