ply
format ascii 1.0
element vertex 66
property float x
property float y
property float z
property float u
property float v
element face 91
property list uchar int vertex_indices
end_header
138.617 312.478 0 138.617 312.478
140.333 338.913 0 140.333 338.913
143.669 365.121 0 143.669 365.121
147.69 392.283 0 147.69 392.283
154.463 420.64 0 154.463 420.64
167.482 447.602 0 167.482 447.602
186.562 469.553 0 186.562 469.553
210.054 485.473 0 210.054 485.473
236.949 491.647 0 236.949 491.647
264.085 485.855 0 264.085 485.855
288.31 470.939 0 288.31 470.939
308.206 449.627 0 308.206 449.627
321.271 422.387 0 321.271 422.387
326.648 392.414 0 326.648 392.414
329.384 363.112 0 329.384 363.112
331.878 334.561 0 331.878 334.561
333.113 305.9 0 333.113 305.9
155.975 289.459 0 155.975 289.459
167.731 281.055 0 167.731 281.055
182.342 277.017 0 182.342 277.017
197.867 276.995 0 197.867 276.995
212.886 280.643 0 212.886 280.643
253.291 278.466 0 253.291 278.466
269.319 273.92 0 269.319 273.92
285.901 273.309 0 285.901 273.309
301.633 277.435 0 301.633 277.435
314.432 286.26 0 314.432 286.26
232.591 309.083 0 232.591 309.083
233.147 329.836 0 233.147 329.836
233.714 350.627 0 233.714 350.627
234.269 371.326 0 234.269 371.326
216.096 382.994 0 216.096 382.994
224.882 386.086 0 224.882 386.086
234.178 387.378 0 234.178 387.378
243.799 385.695 0 243.799 385.695
252.923 382.211 0 252.923 382.211
175.952 316.863 0 175.952 316.863
185.702 311.311 0 185.702 311.311
197.305 311.72 0 197.305 311.72
207.304 316.851 0 207.304 316.851
196.896 318.717 0 196.896 318.717
186.149 319.332 0 186.149 319.332
260.606 315.111 0 260.606 315.111
270.569 309.189 0 270.569 309.189
282.476 308.451 0 282.476 308.451
292.91 313.466 0 292.91 313.466
282.592 316.399 0 282.592 316.399
271.542 316.423 0 271.542 316.423
192.838 415.31 0 192.838 415.31
205.405 408.812 0 205.405 408.812
219.652 404.862 0 219.652 404.862
234.802 406.727 0 234.802 406.727
250.165 404.447 0 250.165 404.447
265.041 407.96 0 265.041 407.96
278.658 413.64 0 278.658 413.64
265.881 423.386 0 265.881 423.386
250.866 429.333 0 250.866 429.333
234.993 431.415 0 234.993 431.415
219.497 429.812 0 219.497 429.812
204.932 424.452 0 204.932 424.452
216.165 414.226 0 216.165 414.226
234.795 415.693 0 234.795 415.693
253.676 413.676 0 253.676 413.676
253.887 417.196 0 253.887 417.196
234.639 419.201 0 234.639 419.201
215.733 417.7 0 215.733 417.7
3 20 21 23
3 21 22 23
3 0 1 36
3 15 16 45
3 0 17 36
3 16 26 45
3 17 18 37
3 25 26 44
3 17 36 37
3 26 44 45
3 18 19 38
3 24 25 43
3 18 37 38
3 25 43 44
3 19 20 38
3 23 24 43
3 20 21 39
3 22 23 42
3 20 38 39
3 23 42 43
3 21 22 27
3 21 27 39
3 22 27 42
3 27 28 42
3 27 28 39
3 28 42 47
3 28 39 40
3 1 36 41
3 15 45 46
3 1 2 41
3 14 15 46
3 28 29 40
3 28 29 47
3 2 40 41
3 14 46 47
3 2 29 40
3 14 29 47
3 2 3 29
3 13 14 29
3 29 30 31
3 29 30 35
3 3 29 31
3 13 29 35
3 30 32 33
3 30 33 34
3 30 31 32
3 30 34 35
3 3 4 31
3 12 13 35
3 4 5 48
3 11 12 54
3 5 6 48
3 10 11 54
3 6 48 59
3 10 54 55
3 6 7 59
3 9 10 55
3 7 58 59
3 9 55 56
3 8 57 58
3 8 56 57
3 7 8 58
3 8 9 56
3 4 31 48
3 12 35 54
3 31 48 49
3 35 53 54
3 31 49 50
3 35 52 53
3 31 32 50
3 34 35 52
3 32 33 50
3 33 34 52
3 33 50 51
3 33 51 52
3 48 49 60
3 49 60 50
3 50 60 61
3 50 51 61
3 51 52 61
3 61 62 52
3 52 53 62
3 53 54 62
3 54 55 63
3 55 56 63
3 56 63 64
3 56 57 64
3 64 65 57
3 57 58 65
3 58 59 65
3 48 59 65
