ply
format ascii 1.0
element vertex 66
property float x
property float y
property float z
property float u
property float v
element face 91
property list uchar int vertex_indices
end_header
147.226 390.911 0 147.226 390.911
148.531 417.416 0 148.531 417.416
151.681 443.708 0 151.681 443.708
155.547 470.137 0 155.547 470.137
161.66 496.323 0 161.66 496.323
173.206 519.988 0 173.206 519.988
189.67 539.923 0 189.67 539.923
209.954 555.26 0 209.954 555.26
234.16 561.278 0 234.16 561.278
260.961 556.883 0 260.961 556.883
284.596 542.885 0 284.596 542.885
304.764 523.944 0 304.764 523.944
320.657 501.068 0 320.657 501.068
331.353 475.885 0 331.353 475.885
338.244 450.558 0 338.244 450.558
343.307 425.36 0 343.307 425.36
346.619 399.724 0 346.619 399.724
159.768 362.939 0 159.768 362.939
172.29 354.443 0 172.29 354.443
187.852 351.871 0 187.852 351.871
203.736 354.171 0 203.736 354.171
218.9 359.787 0 218.9 359.787
264.006 362.427 0 264.006 362.427
279.782 358.602 0 279.782 358.602
296.075 357.99 0 296.075 357.99
311.714 361.907 0 311.714 361.907
324.203 371.264 0 324.203 371.264
240.584 389.488 0 240.584 389.488
238.855 408.112 0 238.855 408.112
237.103 426.642 0 237.103 426.642
235.426 444.995 0 235.426 444.995
220.025 456.52 0 220.025 456.52
227.854 460.237 0 227.854 460.237
236.379 462.137 0 236.379 462.137
245.338 461.187 0 245.338 461.187
253.779 458.335 0 253.779 458.335
179.765 386.602 0 179.765 386.602
190.094 381.673 0 190.094 381.673
201.874 382.24 0 201.874 382.24
211.488 388.371 0 211.488 388.371
200.745 389.945 0 200.745 389.945
189.735 389.733 0 189.735 389.733
271.37 391.657 0 271.37 391.657
281.388 386.683 0 281.388 386.683
293.156 387.37 0 293.156 387.37
302.915 393.524 0 302.915 393.524
292.603 395.469 0 292.603 395.469
281.69 394.47 0 281.69 394.47
203.296 491.69 0 203.296 491.69
212.551 485.511 0 212.551 485.511
223.402 481.224 0 223.402 481.224
234.811 484.075 0 234.811 484.075
247.447 482.54 0 247.447 482.54
258.719 488.071 0 258.719 488.071
268.482 495.468 0 268.482 495.468
258.925 503.271 0 258.925 503.271
247.173 507.776 0 247.173 507.776
234.393 508.926 0 234.393 508.926
222.442 506.432 0 222.442 506.432
211.68 500.607 0 211.68 500.607
223.39 491.668 0 223.39 491.668
234.716 493.37 0 234.716 493.37
247.46 493.001 0 247.46 493.001
247.461 493.156 0 247.461 493.156
235.066 493.786 0 235.066 493.786
223.839 491.866 0 223.839 491.866
3 20 21 23
3 21 22 23
3 0 1 36
3 15 16 45
3 0 17 36
3 16 26 45
3 17 18 37
3 25 26 44
3 17 36 37
3 26 44 45
3 18 19 38
3 24 25 43
3 18 37 38
3 25 43 44
3 19 20 38
3 23 24 43
3 20 21 39
3 22 23 42
3 20 38 39
3 23 42 43
3 21 22 27
3 21 27 39
3 22 27 42
3 27 28 42
3 27 28 39
3 28 42 47
3 28 39 40
3 1 36 41
3 15 45 46
3 1 2 41
3 14 15 46
3 28 29 40
3 28 29 47
3 2 40 41
3 14 46 47
3 2 29 40
3 14 29 47
3 2 3 29
3 13 14 29
3 29 30 31
3 29 30 35
3 3 29 31
3 13 29 35
3 30 32 33
3 30 33 34
3 30 31 32
3 30 34 35
3 3 4 31
3 12 13 35
3 4 5 48
3 11 12 54
3 5 6 48
3 10 11 54
3 6 48 59
3 10 54 55
3 6 7 59
3 9 10 55
3 7 58 59
3 9 55 56
3 8 57 58
3 8 56 57
3 7 8 58
3 8 9 56
3 4 31 48
3 12 35 54
3 31 48 49
3 35 53 54
3 31 49 50
3 35 52 53
3 31 32 50
3 34 35 52
3 32 33 50
3 33 34 52
3 33 50 51
3 33 51 52
3 48 49 60
3 49 60 50
3 50 60 61
3 50 51 61
3 51 52 61
3 61 62 52
3 52 53 62
3 53 54 62
3 54 55 63
3 55 56 63
3 56 63 64
3 56 57 64
3 64 65 57
3 57 58 65
3 58 59 65
3 48 59 65
