ply
format ascii 1.0
element vertex 66
property float x
property float y
property float z
property float u
property float v
element face 91
property list uchar int vertex_indices
end_header
134.198 229.604 0 134.198 229.604
135.835 258.099 0 135.835 258.099
139.018 286.498 0 139.018 286.498
143.556 314.201 0 143.556 314.201
151.519 339.807 0 151.519 339.807
166.148 361.493 0 166.148 361.493
185.904 378.868 0 185.904 378.868
209.066 391.534 0 209.066 391.534
235.45 395.642 0 235.45 395.642
263.57 392.49 0 263.57 392.49
288.482 379.891 0 288.482 379.891
309.612 362.027 0 309.612 362.027
326.022 340.147 0 326.022 340.147
336.468 315.358 0 336.468 315.358
342.742 289.145 0 342.742 289.145
346.839 262.335 0 346.839 262.335
348.984 235.34 0 348.984 235.34
151.99 193.528 0 151.99 193.528
165.402 183.53 0 165.402 183.53
182.077 180.307 0 182.077 180.307
199.02 182.112 0 199.02 182.112
215.354 187.056 0 215.354 187.056
267.327 189.56 0 267.327 189.56
282.901 186.155 0 282.901 186.155
298.978 185.568 0 298.978 185.568
314.627 189.164 0 314.627 189.164
327.127 198.871 0 327.127 198.871
242.171 212.192 0 242.171 212.192
241.43 229.446 0 241.43 229.446
240.631 246.587 0 240.631 246.587
239.807 263.678 0 239.807 263.678
222.488 279.172 0 222.488 279.172
231.059 282.136 0 231.059 282.136
240.157 283.559 0 240.157 283.559
248.902 282.817 0 248.902 282.817
257.164 280.469 0 257.164 280.469
173.886 214.518 0 173.886 214.518
185.186 207.949 0 185.186 207.949
198.526 207.942 0 198.526 207.942
209.359 215.116 0 209.359 215.116
197.515 217.952 0 197.515 217.952
185.133 218.071 0 185.133 218.071
271.182 217.833 0 271.182 217.833
282.126 211.723 0 282.126 211.723
295.237 212.344 0 295.237 212.344
305.805 219.762 0 305.805 219.762
294.533 222.542 0 294.533 222.542
282.449 221.46 0 282.449 221.46
200.024 317.813 0 200.024 317.813
211.619 310.303 0 211.619 310.303
224.604 305.396 0 224.604 305.396
238.009 307.568 0 238.009 307.568
251.649 306.483 0 251.649 306.483
264.175 312.341 0 264.175 312.341
274.867 321.017 0 274.867 321.017
264.402 328.984 0 264.402 328.984
251.264 332.912 0 251.264 332.912
237.237 333.359 0 237.237 333.359
223.354 331.634 0 223.354 331.634
210.493 326.534 0 210.493 326.534
223.727 316.013 0 223.727 316.013
237.83 317.129 0 237.83 317.129
252.116 317.3 0 252.116 317.3
252.259 318.493 0 252.259 318.493
238 318.404 0 238 318.404
223.889 317.255 0 223.889 317.255
3 20 21 23
3 21 22 23
3 0 1 36
3 15 16 45
3 0 17 36
3 16 26 45
3 17 18 37
3 25 26 44
3 17 36 37
3 26 44 45
3 18 19 38
3 24 25 43
3 18 37 38
3 25 43 44
3 19 20 38
3 23 24 43
3 20 21 39
3 22 23 42
3 20 38 39
3 23 42 43
3 21 22 27
3 21 27 39
3 22 27 42
3 27 28 42
3 27 28 39
3 28 42 47
3 28 39 40
3 1 36 41
3 15 45 46
3 1 2 41
3 14 15 46
3 28 29 40
3 28 29 47
3 2 40 41
3 14 46 47
3 2 29 40
3 14 29 47
3 2 3 29
3 13 14 29
3 29 30 31
3 29 30 35
3 3 29 31
3 13 29 35
3 30 32 33
3 30 33 34
3 30 31 32
3 30 34 35
3 3 4 31
3 12 13 35
3 4 5 48
3 11 12 54
3 5 6 48
3 10 11 54
3 6 48 59
3 10 54 55
3 6 7 59
3 9 10 55
3 7 58 59
3 9 55 56
3 8 57 58
3 8 56 57
3 7 8 58
3 8 9 56
3 4 31 48
3 12 35 54
3 31 48 49
3 35 53 54
3 31 49 50
3 35 52 53
3 31 32 50
3 34 35 52
3 32 33 50
3 33 34 52
3 33 50 51
3 33 51 52
3 48 49 60
3 49 60 50
3 50 60 61
3 50 51 61
3 51 52 61
3 61 62 52
3 52 53 62
3 53 54 62
3 54 55 63
3 55 56 63
3 56 63 64
3 56 57 64
3 64 65 57
3 57 58 65
3 58 59 65
3 48 59 65
