ply
format ascii 1.0
element vertex 66
property float x
property float y
property float z
property float u
property float v
element face 91
property list uchar int vertex_indices
end_header
-19.4485 -6.23652 21.2399 144.914 271.434
-18.8894 -0.990244 20.9657 145.923 297.452
-18.0503 4.21392 20.5619 148.333 323.499
-16.8178 9.29733 18.3809 152.636 350.991
-14.947 14.1402 13.6202 160.042 380.285
-12.0383 18.3996 8.09919 172.77 407.904
-8.18259 21.8201 3.24342 190.539 431.053
-3.62569 24.2585 -0.840248 212.178 448.836
1.543 24.8464 -4.73343 237.499 457.618
6.65674 23.6685 -0.850809 263.613 449.48
10.9253 20.6815 3.28184 286.138 431.982
14.346 16.7694 8.18298 304.796 408.873
16.6927 12.1212 13.76 318.39 381.092
17.8644 6.99061 18.5942 326.245 351.356
18.3447 1.68088 20.7967 330.554 323.324
18.403 -3.69232 21.2553 332.676 296.701
18.151 -9.07352 21.5234 333.242 270.138
-16.6242 -12.8282 0.0784509 159.906 262.916
-14.8038 -15.263 -1.71094 169.685 253.597
-12.0282 -16.4927 -3.11039 183.843 250.053
-8.99262 -16.6767 -4.51013 198.946 251.687
-5.9946 -16.2168 -5.75597 213.654 256.277
3.54664 -16.9679 -5.71934 261.453 255.835
6.36724 -17.9096 -4.41119 275.904 250.815
9.33281 -18.2228 -2.9595 290.875 248.751
12.2228 -17.5273 -1.49794 305.132 251.56
14.4097 -15.5272 0.305192 315.468 260.114
-0.710888 -11.6137 -5.06429 238.481 279.744
-0.474984 -9.20306 -7.77868 238.682 294.457
-0.240574 -6.80156 -10.5043 238.878 309.136
-0.0153071 -4.41318 -13.1394 239.038 323.652
-2.96537 -0.843488 -6.05428 223.573 332.454
-1.39588 -0.672484 -7.0336 231.276 334.867
0.194001 -0.6719 -8.03433 239.137 336.481
1.71611 -0.904183 -7.05603 246.86 334.824
3.20014 -1.30235 -6.07792 254.448 332.347
-12.6 -9.40813 -1.06583 178.742 282.156
-10.8242 -10.8781 -1.17946 188.077 275.728
-8.46537 -11.2055 -1.28172 199.934 275.047
-6.41697 -10.3394 -1.02884 209.866 279.691
-8.35276 -9.32857 -1.12757 199.875 284.057
-10.5391 -8.9789 -1.07624 188.867 284.959
4.77535 -11.1897 -0.850273 265.934 279.177
6.66253 -12.3926 -1.17385 275.722 274.31
9.05056 -12.4612 -1.08145 287.65 274.692
11.0488 -11.2997 -0.973126 297.224 280.911
9.08679 -10.5212 -0.955805 287.187 284.012
6.86416 -10.5173 -0.974686 276.109 283.294
-6.29287 8.94118 -2.72509 203.912 375.388
-4.85637 6.30853 -4.78569 211.828 365.265
-2.53964 4.3512 -6.42402 223.929 358.277
0.433322 4.19417 -8.05591 238.696 360.269
3.35107 3.93503 -6.46578 253.419 358.304
5.86446 5.56155 -4.78092 265.501 365.278
7.57864 7.97799 -2.64558 273.362 375.343
6.18723 10.5066 -4.07187 265.493 388.699
3.96098 12.3484 -5.5775 253.69 398.513
0.964033 13.0661 -7.07084 238.424 402.58
-2.09625 12.7502 -5.53039 223.375 398.354
-4.55111 11.2346 -4.02573 211.742 388.533
-2.75794 6.69561 -4.97003 222.143 368.061
0.540877 6.1576 -7.22526 238.624 368.975
3.8041 6.24716 -4.96665 254.992 368.111
4.05457 9.33391 -4.40483 255.239 382.62
0.80469 10.2778 -6.17449 238.62 387.997
-2.60492 9.79541 -4.37712 221.902 382.567
3 20 21 23
3 21 22 23
3 0 1 36
3 15 16 45
3 0 17 36
3 16 26 45
3 17 18 37
3 25 26 44
3 17 36 37
3 26 44 45
3 18 19 38
3 24 25 43
3 18 37 38
3 25 43 44
3 19 20 38
3 23 24 43
3 20 21 39
3 22 23 42
3 20 38 39
3 23 42 43
3 21 22 27
3 21 27 39
3 22 27 42
3 27 28 42
3 27 28 39
3 28 42 47
3 28 39 40
3 1 36 41
3 15 45 46
3 1 2 41
3 14 15 46
3 28 29 40
3 28 29 47
3 2 40 41
3 14 46 47
3 2 29 40
3 14 29 47
3 2 3 29
3 13 14 29
3 29 30 31
3 29 30 35
3 3 29 31
3 13 29 35
3 30 32 33
3 30 33 34
3 30 31 32
3 30 34 35
3 3 4 31
3 12 13 35
3 4 5 48
3 11 12 54
3 5 6 48
3 10 11 54
3 6 48 59
3 10 54 55
3 6 7 59
3 9 10 55
3 7 58 59
3 9 55 56
3 8 57 58
3 8 56 57
3 7 8 58
3 8 9 56
3 4 31 48
3 12 35 54
3 31 48 49
3 35 53 54
3 31 49 50
3 35 52 53
3 31 32 50
3 34 35 52
3 32 33 50
3 33 34 52
3 33 50 51
3 33 51 52
3 48 49 60
3 49 60 50
3 50 60 61
3 50 51 61
3 51 52 61
3 61 62 52
3 52 53 62
3 53 54 62
3 54 55 63
3 55 56 63
3 56 63 64
3 56 57 64
3 64 65 57
3 57 58 65
3 58 59 65
3 48 59 65
