ply
format ascii 1.0
element vertex 66
property float x
property float y
property float z
property float u
property float v
element face 91
property list uchar int vertex_indices
end_header
171.756 322.347 0 171.756 322.347
173.144 338.242 0 173.144 338.242
175.738 353.939 0 175.738 353.939
179.605 369.831 0 179.605 369.831
185.57 385.908 0 185.57 385.908
194.435 400.59 0 194.435 400.59
205.84 413.07 0 205.84 413.07
219.419 422.659 0 219.419 422.659
235.187 426.506 0 235.187 426.506
251.267 422.609 0 251.267 422.609
264.947 412.864 0 264.947 412.864
276.55 400.306 0 276.55 400.306
285.635 385.476 0 285.635 385.476
291.471 368.867 0 291.471 368.867
294.97 352.224 0 294.97 352.224
297.138 335.743 0 297.138 335.743
298.106 319.158 0 298.106 319.158
183.923 305.524 0 183.923 305.524
190.976 299.524 0 190.976 299.524
200.294 296.757 0 200.294 296.757
210.229 297.056 0 210.229 297.056
219.851 299.607 0 219.851 299.607
246.537 298.723 0 246.537 298.723
256.452 295.472 0 256.452 295.472
266.807 294.589 0 266.807 294.589
276.699 297.024 0 276.699 297.024
284.41 302.949 0 284.41 302.949
233.631 317.851 0 233.631 317.851
233.891 329.925 0 233.891 329.925
234.164 341.949 0 234.164 341.949
234.449 353.838 0 234.449 353.838
224.515 360.525 0 224.515 360.525
229.486 362.35 0 229.486 362.35
234.769 363.089 0 234.769 363.089
240.156 362.07 0 240.156 362.07
245.157 360.004 0 245.157 360.004
196.831 320.051 0 196.831 320.051
203.182 315.42 0 203.182 315.42
211.261 315.432 0 211.261 315.432
217.663 319.859 0 217.663 319.859
210.791 322.087 0 210.791 322.087
203.499 322.465 0 203.499 322.465
250.351 318.826 0 250.351 318.826
256.545 313.987 0 256.545 313.987
264.68 313.56 0 264.68 313.56
271.397 317.738 0 271.397 317.738
264.83 320.573 0 264.83 320.573
257.449 320.605 0 257.449 320.605
214.748 382.051 0 214.748 382.051
220.22 377.215 0 220.22 377.215
227.311 373.794 0 227.311 373.794
235.406 374.842 0 235.406 374.842
243.603 373.373 0 243.603 373.373
250.972 376.402 0 250.972 376.402
256.864 380.793 0 256.864 380.793
251.587 387.616 0 251.587 387.616
244.462 392.575 0 244.462 392.575
235.745 394.564 0 235.745 394.564
227.222 393.008 0 227.222 393.008
220.051 388.503 0 220.051 388.503
227.058 379.628 0 227.058 379.628
235.523 379.928 0 235.523 379.928
244.074 379.2 0 244.074 379.2
244.215 383.837 0 244.215 383.837
235.57 385.939 0 235.57 385.939
227.005 384.277 0 227.005 384.277
3 20 21 23
3 21 22 23
3 0 1 36
3 15 16 45
3 0 17 36
3 16 26 45
3 17 18 37
3 25 26 44
3 17 36 37
3 26 44 45
3 18 19 38
3 24 25 43
3 18 37 38
3 25 43 44
3 19 20 38
3 23 24 43
3 20 21 39
3 22 23 42
3 20 38 39
3 23 42 43
3 21 22 27
3 21 27 39
3 22 27 42
3 27 28 42
3 27 28 39
3 28 42 47
3 28 39 40
3 1 36 41
3 15 45 46
3 1 2 41
3 14 15 46
3 28 29 40
3 28 29 47
3 2 40 41
3 14 46 47
3 2 29 40
3 14 29 47
3 2 3 29
3 13 14 29
3 29 30 31
3 29 30 35
3 3 29 31
3 13 29 35
3 30 32 33
3 30 33 34
3 30 31 32
3 30 34 35
3 3 4 31
3 12 13 35
3 4 5 48
3 11 12 54
3 5 6 48
3 10 11 54
3 6 48 59
3 10 54 55
3 6 7 59
3 9 10 55
3 7 58 59
3 9 55 56
3 8 57 58
3 8 56 57
3 7 8 58
3 8 9 56
3 4 31 48
3 12 35 54
3 31 48 49
3 35 53 54
3 31 49 50
3 35 52 53
3 31 32 50
3 34 35 52
3 32 33 50
3 33 34 52
3 33 50 51
3 33 51 52
3 48 49 60
3 49 60 50
3 50 60 61
3 50 51 61
3 51 52 61
3 61 62 52
3 52 53 62
3 53 54 62
3 54 55 63
3 55 56 63
3 56 63 64
3 56 57 64
3 64 65 57
3 57 58 65
3 58 59 65
3 48 59 65
