ply
format ascii 1.0
element vertex 66
property float x
property float y
property float z
property float u
property float v
element face 91
property list uchar int vertex_indices
end_header
120.117 232.363 0 120.117 232.363
122.285 256.601 0 122.285 256.601
126.029 280.362 0 126.029 280.362
133.609 303.808 0 133.609 303.808
147.572 325.735 0 147.572 325.735
166.664 343.872 0 166.664 343.872
188.762 358.327 0 188.762 358.327
212.719 369.268 0 212.719 369.268
238.599 372.363 0 238.599 372.363
259.664 367.734 0 259.664 367.734
277.319 355.463 0 277.319 355.463
292.593 340.059 0 292.593 340.059
304.275 321.359 0 304.275 321.359
311.385 299.45 0 311.385 299.45
316.195 276.316 0 316.195 276.316
319.823 253.044 0 319.823 253.044
321.006 229.374 0 321.006 229.374
156.996 206.994 0 156.996 206.994
170.207 198.68 0 170.207 198.68
185.652 195.041 0 185.652 195.041
201.573 195.626 0 201.573 195.626
216.965 199.105 0 216.965 199.105
261.556 198.286 0 261.556 198.286
274.794 194.078 0 274.794 194.078
288.485 192.619 0 288.485 192.619
301.768 195.064 0 301.768 195.064
312.7 202.21 0 312.7 202.21
239.067 224.211 0 239.067 224.211
240.941 243.411 0 240.941 243.411
242.9 262.522 0 242.9 262.522
244.63 281.418 0 244.63 281.418
221.909 291.412 0 221.909 291.412
231.05 295.102 0 231.05 295.102
240.841 296.398 0 240.841 296.398
249.983 294.657 0 249.983 294.657
258.241 290.565 0 258.241 290.565
177.076 226.077 0 177.076 226.077
187.552 221.123 0 187.552 221.123
199.21 221.078 0 199.21 221.078
208.806 226.378 0 208.806 226.378
198.17 227.856 0 198.17 227.856
187.393 228.326 0 187.393 228.326
264.104 225.072 0 264.104 225.072
273.617 219.354 0 273.617 219.354
285.011 218.832 0 285.011 218.832
295.214 223.339 0 295.214 223.339
285.51 226.084 0 285.51 226.084
274.802 226.125 0 274.802 226.125
205.125 320.397 0 205.125 320.397
215.853 313.974 0 215.853 313.974
228.097 309.731 0 228.097 309.731
241.182 311.593 0 241.182 311.593
251.57 309.148 0 251.57 309.148
261.517 312.89 0 261.517 312.89
269.264 319.017 0 269.264 319.017
261.914 328.598 0 261.914 328.598
251.808 335.357 0 251.808 335.357
239.871 337.652 0 239.871 337.652
226.154 335.987 0 226.154 335.987
214.241 329.688 0 214.241 329.688
226.925 318.781 0 226.925 318.781
240.667 319.371 0 240.667 319.371
251.239 318.173 0 251.239 318.173
250.753 321.994 0 250.753 321.994
239.872 324.325 0 239.872 324.325
226.494 322.595 0 226.494 322.595
3 20 21 23
3 21 22 23
3 0 1 36
3 15 16 45
3 0 17 36
3 16 26 45
3 17 18 37
3 25 26 44
3 17 36 37
3 26 44 45
3 18 19 38
3 24 25 43
3 18 37 38
3 25 43 44
3 19 20 38
3 23 24 43
3 20 21 39
3 22 23 42
3 20 38 39
3 23 42 43
3 21 22 27
3 21 27 39
3 22 27 42
3 27 28 42
3 27 28 39
3 28 42 47
3 28 39 40
3 1 36 41
3 15 45 46
3 1 2 41
3 14 15 46
3 28 29 40
3 28 29 47
3 2 40 41
3 14 46 47
3 2 29 40
3 14 29 47
3 2 3 29
3 13 14 29
3 29 30 31
3 29 30 35
3 3 29 31
3 13 29 35
3 30 32 33
3 30 33 34
3 30 31 32
3 30 34 35
3 3 4 31
3 12 13 35
3 4 5 48
3 11 12 54
3 5 6 48
3 10 11 54
3 6 48 59
3 10 54 55
3 6 7 59
3 9 10 55
3 7 58 59
3 9 55 56
3 8 57 58
3 8 56 57
3 7 8 58
3 8 9 56
3 4 31 48
3 12 35 54
3 31 48 49
3 35 53 54
3 31 49 50
3 35 52 53
3 31 32 50
3 34 35 52
3 32 33 50
3 33 34 52
3 33 50 51
3 33 51 52
3 48 49 60
3 49 60 50
3 50 60 61
3 50 51 61
3 51 52 61
3 61 62 52
3 52 53 62
3 53 54 62
3 54 55 63
3 55 56 63
3 56 63 64
3 56 57 64
3 64 65 57
3 57 58 65
3 58 59 65
3 48 59 65
