ply
format ascii 1.0
element vertex 66
property float x
property float y
property float z
property float u
property float v
element face 91
property list uchar int vertex_indices
end_header
177.852 362.361 0 177.852 362.361
178.824 378.98 0 178.824 378.98
180.688 395.54 0 180.688 395.54
183.056 412.032 0 183.056 412.032
187.217 427.968 0 187.217 427.968
195.451 441.863 0 195.451 441.863
206.968 453.031 0 206.968 453.031
220.773 461.053 0 220.773 461.053
236.39 463.949 0 236.39 463.949
252.544 461.448 0 252.544 461.448
266.838 453.358 0 266.838 453.358
278.86 442.092 0 278.86 442.092
287.935 428.31 0 287.935 428.31
293.404 412.929 0 293.404 412.929
296.806 397.226 0 296.806 397.226
299.311 381.481 0 299.311 381.481
300.712 365.606 0 300.712 365.606
187.749 340.636 0 187.749 340.636
195.144 334.637 0 195.144 334.637
204.622 332.495 0 204.622 332.495
214.381 333.504 0 214.381 333.504
223.711 336.634 0 223.711 336.634
255.59 337.969 0 255.59 337.969
264.498 335.342 0 264.498 335.342
273.817 334.706 0 273.817 334.706
282.854 336.755 0 282.854 336.755
289.964 342.393 0 289.964 342.393
239.913 358.086 0 239.913 358.086
239.528 368.631 0 239.528 368.631
239.126 379.118 0 239.126 379.118
238.716 389.536 0 238.716 389.536
228.98 396.721 0 228.98 396.721
233.785 398.304 0 233.785 398.304
238.819 399.133 0 238.819 399.133
243.707 398.626 0 243.707 398.626
248.404 397.332 0 248.404 397.332
200.328 356.945 0 200.328 356.945
206.819 352.365 0 206.819 352.365
214.874 352.719 0 214.874 352.719
220.878 358.094 0 220.878 358.094
213.998 360.285 0 213.998 360.285
206.698 360.126 0 206.698 360.126
257.881 359.239 0 257.881 359.239
263.996 354.334 0 263.996 354.334
271.961 354.3 0 271.961 354.3
278.089 359.267 0 278.089 359.267
271.666 362.119 0 271.666 362.119
264.479 361.835 0 264.479 361.835
215.546 417.496 0 215.546 417.496
222.525 413.37 0 222.525 413.37
230.175 410.633 0 230.175 410.633
238.068 411.978 0 238.068 411.978
245.987 411.117 0 245.987 411.117
253.348 414.293 0 253.348 414.293
259.832 418.957 0 259.832 418.957
253.656 424.154 0 253.656 424.154
245.889 426.973 0 245.889 426.973
237.65 427.636 0 237.65 427.636
229.425 426.419 0 229.425 426.419
221.71 423.095 0 221.71 423.095
229.605 416.989 0 229.605 416.989
237.964 417.891 0 237.964 417.891
246.322 417.545 0 246.322 417.545
246.439 418.465 0 246.439 418.465
238.002 418.632 0 238.002 418.632
229.539 417.942 0 229.539 417.942
3 20 21 23
3 21 22 23
3 0 1 36
3 15 16 45
3 0 17 36
3 16 26 45
3 17 18 37
3 25 26 44
3 17 36 37
3 26 44 45
3 18 19 38
3 24 25 43
3 18 37 38
3 25 43 44
3 19 20 38
3 23 24 43
3 20 21 39
3 22 23 42
3 20 38 39
3 23 42 43
3 21 22 27
3 21 27 39
3 22 27 42
3 27 28 42
3 27 28 39
3 28 42 47
3 28 39 40
3 1 36 41
3 15 45 46
3 1 2 41
3 14 15 46
3 28 29 40
3 28 29 47
3 2 40 41
3 14 46 47
3 2 29 40
3 14 29 47
3 2 3 29
3 13 14 29
3 29 30 31
3 29 30 35
3 3 29 31
3 13 29 35
3 30 32 33
3 30 33 34
3 30 31 32
3 30 34 35
3 3 4 31
3 12 13 35
3 4 5 48
3 11 12 54
3 5 6 48
3 10 11 54
3 6 48 59
3 10 54 55
3 6 7 59
3 9 10 55
3 7 58 59
3 9 55 56
3 8 57 58
3 8 56 57
3 7 8 58
3 8 9 56
3 4 31 48
3 12 35 54
3 31 48 49
3 35 53 54
3 31 49 50
3 35 52 53
3 31 32 50
3 34 35 52
3 32 33 50
3 33 34 52
3 33 50 51
3 33 51 52
3 48 49 60
3 49 60 50
3 50 60 61
3 50 51 61
3 51 52 61
3 61 62 52
3 52 53 62
3 53 54 62
3 54 55 63
3 55 56 63
3 56 63 64
3 56 57 64
3 64 65 57
3 57 58 65
3 58 59 65
3 48 59 65
