ply
format ascii 1.0
element vertex 66
property float x
property float y
property float z
property float u
property float v
element face 91
property list uchar int vertex_indices
end_header
183.298 389.762 0 183.298 389.762
184.271 404.879 0 184.271 404.879
186.443 419.764 0 186.443 419.764
189.306 434.936 0 189.306 434.936
193.644 450.398 0 193.644 450.398
201.028 464.769 0 201.028 464.769
211.468 476.604 0 211.468 476.604
224.136 485.531 0 224.136 485.531
238.829 489.009 0 238.829 489.009
254.695 485.867 0 254.695 485.867
268.609 477.277 0 268.609 477.277
280.473 465.742 0 280.473 465.742
289.374 451.467 0 289.374 451.467
294.543 435.535 0 294.543 435.535
297.258 419.618 0 297.258 419.618
298.883 403.911 0 298.883 403.911
299.509 388.113 0 299.509 388.113
190.498 378.249 0 190.498 378.249
197.026 374.138 0 197.026 374.138
205.098 373.082 0 205.098 373.082
213.345 374.226 0 213.345 374.226
221.258 376.85 0 221.258 376.85
248.404 376.391 0 248.404 376.391
257.421 373.212 0 257.421 373.212
266.872 371.719 0 266.872 371.719
276.244 372.895 0 276.244 372.895
284.06 377.429 0 284.06 377.429
235.535 391.753 0 235.535 391.753
235.452 402.026 0 235.452 402.026
235.358 412.307 0 235.358 412.307
235.321 422.524 0 235.321 422.524
226.442 431.78 0 226.442 431.78
231.408 433.716 0 231.408 433.716
236.703 434.464 0 236.703 434.464
242.431 433.408 0 242.431 433.408
247.723 431.239 0 247.723 431.239
201.249 392.72 0 201.249 392.72
207.047 388.779 0 207.047 388.779
214.323 389.025 0 214.323 389.025
220.114 393.112 0 220.114 393.112
213.857 395.159 0 213.857 395.159
207.177 395.372 0 207.177 395.372
253.489 392.352 0 253.489 392.352
259.039 387.989 0 259.039 387.989
266.434 387.523 0 266.434 387.523
272.731 391.028 0 272.731 391.028
266.79 393.946 0 266.79 393.946
259.967 394.044 0 259.967 394.044
219.251 451.965 0 219.251 451.965
224.541 448.33 0 224.541 448.33
230.785 445.679 0 230.785 445.679
237.742 446.937 0 237.742 446.937
245.439 445.292 0 245.439 445.292
252.7 447.592 0 252.7 447.592
259.38 450.739 0 259.38 450.739
253.75 456.226 0 253.75 456.226
246.676 459.935 0 246.676 459.935
238.639 461.367 0 238.639 461.367
231.175 460.376 0 231.175 460.376
224.505 457.083 0 224.505 457.083
230.543 450.825 0 230.543 450.825
238.101 451.407 0 238.101 451.407
246.564 450.419 0 246.564 450.419
246.729 452.221 0 246.729 452.221
238.332 453.64 0 238.332 453.64
230.673 452.59 0 230.673 452.59
3 20 21 23
3 21 22 23
3 0 1 36
3 15 16 45
3 0 17 36
3 16 26 45
3 17 18 37
3 25 26 44
3 17 36 37
3 26 44 45
3 18 19 38
3 24 25 43
3 18 37 38
3 25 43 44
3 19 20 38
3 23 24 43
3 20 21 39
3 22 23 42
3 20 38 39
3 23 42 43
3 21 22 27
3 21 27 39
3 22 27 42
3 27 28 42
3 27 28 39
3 28 42 47
3 28 39 40
3 1 36 41
3 15 45 46
3 1 2 41
3 14 15 46
3 28 29 40
3 28 29 47
3 2 40 41
3 14 46 47
3 2 29 40
3 14 29 47
3 2 3 29
3 13 14 29
3 29 30 31
3 29 30 35
3 3 29 31
3 13 29 35
3 30 32 33
3 30 33 34
3 30 31 32
3 30 34 35
3 3 4 31
3 12 13 35
3 4 5 48
3 11 12 54
3 5 6 48
3 10 11 54
3 6 48 59
3 10 54 55
3 6 7 59
3 9 10 55
3 7 58 59
3 9 55 56
3 8 57 58
3 8 56 57
3 7 8 58
3 8 9 56
3 4 31 48
3 12 35 54
3 31 48 49
3 35 53 54
3 31 49 50
3 35 52 53
3 31 32 50
3 34 35 52
3 32 33 50
3 33 34 52
3 33 50 51
3 33 51 52
3 48 49 60
3 49 60 50
3 50 60 61
3 50 51 61
3 51 52 61
3 61 62 52
3 52 53 62
3 53 54 62
3 54 55 63
3 55 56 63
3 56 63 64
3 56 57 64
3 64 65 57
3 57 58 65
3 58 59 65
3 48 59 65
