ply
format ascii 1.0
element vertex 66
property float x
property float y
property float z
property float u
property float v
element face 91
property list uchar int vertex_indices
end_header
129.377 231.403 0 129.377 231.403
131.319 262.562 0 131.319 262.562
135.434 293.421 0 135.434 293.421
140.374 324.635 0 140.374 324.635
148.065 356.071 0 148.065 356.071
162.639 384.382 0 162.639 384.382
183.401 407.6 0 183.401 407.6
208.942 424.414 0 208.942 424.414
238.223 430.871 0 238.223 430.871
269.317 424.593 0 269.317 424.593
296.547 407.593 0 296.547 407.593
319.425 384.573 0 319.425 384.573
337.074 356.869 0 337.074 356.869
348.306 326.437 0 348.306 326.437
355.197 296.267 0 355.197 296.267
360.236 266.455 0 360.236 266.455
363.147 236.275 0 363.147 236.275
146.336 202.431 0 146.336 202.431
160.189 191.6 0 160.189 191.6
178.015 187 0 178.015 187
196.782 188.195 0 196.782 188.195
214.839 193.747 0 214.839 193.747
264.981 195.292 0 264.981 195.292
283.725 190.384 0 283.725 190.384
303.174 189.823 0 303.174 189.823
321.618 195.059 0 321.618 195.059
336.102 206.498 0 336.102 206.498
239.778 229.994 0 239.778 229.994
238.506 253.491 0 238.506 253.491
237.225 276.894 0 237.225 276.894
236.065 300.056 0 236.065 300.056
217.592 313.876 0 217.592 313.876
227.272 318.234 0 227.272 318.234
237.773 320.216 0 237.773 320.216
248.703 318.598 0 248.703 318.598
258.813 314.591 0 258.813 314.591
169.406 231.748 0 169.406 231.748
182.048 223.743 0 182.048 223.743
197.494 224.726 0 197.494 224.726
209.674 234.142 0 209.674 234.142
196.064 237.119 0 196.064 237.119
181.996 237.009 0 181.996 237.009
272.621 235.397 0 272.621 235.397
284.78 226.595 0 284.78 226.595
300.251 226.185 0 300.251 226.185
312.773 234.659 0 312.773 234.659
299.941 239.397 0 299.941 239.397
285.926 238.933 0 285.926 238.933
198.362 346.758 0 198.362 346.758
210.417 340.506 0 210.417 340.506
224.042 336.696 0 224.042 336.696
238.123 339.613 0 238.123 339.613
253.265 337.012 0 253.265 337.012
267.73 341.14 0 267.73 341.14
280.896 347.816 0 280.896 347.816
268.872 357.286 0 268.872 357.286
254.371 363.081 0 254.371 363.081
238.821 364.992 0 238.821 364.992
223.929 362.824 0 223.929 362.824
209.866 356.711 0 209.866 356.711
223.419 347.359 0 223.419 347.359
238.478 349.602 0 238.478 349.602
254.865 347.709 0 254.865 347.709
255.291 347.946 0 255.291 347.946
238.858 349.141 0 238.858 349.141
223.511 347.641 0 223.511 347.641
3 20 21 23
3 21 22 23
3 0 1 36
3 15 16 45
3 0 17 36
3 16 26 45
3 17 18 37
3 25 26 44
3 17 36 37
3 26 44 45
3 18 19 38
3 24 25 43
3 18 37 38
3 25 43 44
3 19 20 38
3 23 24 43
3 20 21 39
3 22 23 42
3 20 38 39
3 23 42 43
3 21 22 27
3 21 27 39
3 22 27 42
3 27 28 42
3 27 28 39
3 28 42 47
3 28 39 40
3 1 36 41
3 15 45 46
3 1 2 41
3 14 15 46
3 28 29 40
3 28 29 47
3 2 40 41
3 14 46 47
3 2 29 40
3 14 29 47
3 2 3 29
3 13 14 29
3 29 30 31
3 29 30 35
3 3 29 31
3 13 29 35
3 30 32 33
3 30 33 34
3 30 31 32
3 30 34 35
3 3 4 31
3 12 13 35
3 4 5 48
3 11 12 54
3 5 6 48
3 10 11 54
3 6 48 59
3 10 54 55
3 6 7 59
3 9 10 55
3 7 58 59
3 9 55 56
3 8 57 58
3 8 56 57
3 7 8 58
3 8 9 56
3 4 31 48
3 12 35 54
3 31 48 49
3 35 53 54
3 31 49 50
3 35 52 53
3 31 32 50
3 34 35 52
3 32 33 50
3 33 34 52
3 33 50 51
3 33 51 52
3 48 49 60
3 49 60 50
3 50 60 61
3 50 51 61
3 51 52 61
3 61 62 52
3 52 53 62
3 53 54 62
3 54 55 63
3 55 56 63
3 56 63 64
3 56 57 64
3 64 65 57
3 57 58 65
3 58 59 65
3 48 59 65
