ply
format ascii 1.0
element vertex 66
property float x
property float y
property float z
property float u
property float v
element face 91
property list uchar int vertex_indices
end_header
-20.6547 -5.64822 21.3079 52.5151 179.044
-20.0519 -0.423649 20.8425 56.2709 203.111
-19.1146 4.7667 20.4846 61.6935 226.856
-17.7568 9.73356 18.3869 68.0972 251.126
-15.6469 14.1974 13.4633 77.582 275.657
-12.4006 17.9009 7.99404 92.006 297.606
-8.27017 20.7526 3.29433 110.057 315.916
-3.55056 22.6779 -0.880153 131.148 329.806
1.65875 22.9008 -4.53572 155.094 334.624
6.75338 21.9412 -0.807894 178.525 328.271
11.0958 19.3665 3.41769 198.487 313.149
14.7165 15.9593 8.15704 215.214 293.935
17.3322 11.8354 13.6544 228.098 271.299
18.7221 7.12069 18.5937 235.964 246.427
19.3316 2.01325 20.7063 240.829 221.963
19.5157 -3.2566 21.0748 244.787 198.098
19.3623 -8.51341 21.5385 247.111 174.011
-16.9434 -14.0024 0.166523 67.3426 152.15
-14.6923 -16.1532 -1.56921 80.4816 144.336
-11.7473 -17.1684 -2.95979 96.5045 142.478
-8.64008 -17.2567 -4.29633 112.718 144.831
-5.61118 -16.6863 -5.52226 128.251 150.077
3.24342 -17.3161 -5.43542 169.216 148.982
6.14406 -18.3113 -4.17859 184.295 142.643
9.21432 -18.6656 -2.80935 200.267 139.121
12.2557 -18.0793 -1.38764 216.4 139.677
14.7675 -16.2699 0.371491 230.197 146.354
-0.800008 -11.6067 -4.9545 149.625 173.99
-0.571382 -8.59445 -7.76035 150.118 192.524
-0.341526 -5.60559 -10.6633 150.627 211.006
-0.111056 -2.62069 -13.4075 151.15 229.28
-3.34691 0.90089 -6.47077 134.818 238.209
-1.6415 1.2941 -7.26957 142.916 241.631
0.142254 1.35258 -8.01839 151.571 243.077
1.89493 1.04463 -7.21848 160.232 241.117
3.5165 0.412997 -6.40175 168.207 237.182
-12.5316 -9.74495 -0.905324 87.7334 174.308
-10.6698 -11.0691 -1.10649 98.0934 167.368
-8.3451 -11.2534 -1.2279 110.92 167.442
-6.35058 -10.2247 -0.977391 121.189 174.562
-8.3556 -9.50683 -1.10156 110.041 177.108
-10.5048 -9.27615 -1.09011 98.4226 177.651
4.83678 -11.0227 -0.887733 178.696 172.729
6.66716 -12.3254 -1.11779 188.518 164.96
8.99246 -12.4738 -0.968074 201.329 164.129
11.0209 -11.4279 -0.742362 212.108 170.424
9.08377 -10.6753 -0.948989 201.617 174.426
6.92444 -10.5977 -0.987214 189.978 174.637
-6.63855 8.84013 -2.74685 115.522 267.745
-4.73902 6.8457 -4.89305 126.554 262.132
-2.32888 5.4219 -6.54708 139.085 258.729
0.427259 5.35547 -8.22771 152.193 260.857
3.15408 5.03248 -6.48681 165.223 257.946
5.72158 6.09946 -4.80547 177.986 260.604
7.86034 7.80446 -2.63884 189.448 265.57
6.14905 9.90529 -3.93286 179.313 274.932
3.75933 11.3254 -5.28293 166.599 280.647
0.883179 11.8243 -6.67982 152.969 283.069
-2.0422 11.738 -5.34336 139.24 281.481
-4.62825 10.6744 -4.02161 126.194 276.527
-2.38864 7.57584 -5.20395 137.671 267.159
0.55887 7.21472 -7.41824 152.46 268.769
3.50364 7.15671 -5.14457 167.22 266.261
3.65722 8.62822 -4.49552 167.368 267.669
0.689237 9.10764 -6.42523 152.526 269.826
-2.33557 9.05505 -4.5521 137.648 268.555
3 20 21 23
3 21 22 23
3 0 1 36
3 15 16 45
3 0 17 36
3 16 26 45
3 17 18 37
3 25 26 44
3 17 36 37
3 26 44 45
3 18 19 38
3 24 25 43
3 18 37 38
3 25 43 44
3 19 20 38
3 23 24 43
3 20 21 39
3 22 23 42
3 20 38 39
3 23 42 43
3 21 22 27
3 21 27 39
3 22 27 42
3 27 28 42
3 27 28 39
3 28 42 47
3 28 39 40
3 1 36 41
3 15 45 46
3 1 2 41
3 14 15 46
3 28 29 40
3 28 29 47
3 2 40 41
3 14 46 47
3 2 29 40
3 14 29 47
3 2 3 29
3 13 14 29
3 29 30 31
3 29 30 35
3 3 29 31
3 13 29 35
3 30 32 33
3 30 33 34
3 30 31 32
3 30 34 35
3 3 4 31
3 12 13 35
3 4 5 48
3 11 12 54
3 5 6 48
3 10 11 54
3 6 48 59
3 10 54 55
3 6 7 59
3 9 10 55
3 7 58 59
3 9 55 56
3 8 57 58
3 8 56 57
3 7 8 58
3 8 9 56
3 4 31 48
3 12 35 54
3 31 48 49
3 35 53 54
3 31 49 50
3 35 52 53
3 31 32 50
3 34 35 52
3 32 33 50
3 33 34 52
3 33 50 51
3 33 51 52
3 48 49 60
3 49 60 50
3 50 60 61
3 50 51 61
3 51 52 61
3 61 62 52
3 52 53 62
3 53 54 62
3 54 55 63
3 55 56 63
3 56 63 64
3 56 57 64
3 64 65 57
3 57 58 65
3 58 59 65
3 48 59 65
