ply
format ascii 1.0
element vertex 66
property float x
property float y
property float z
property float u
property float v
element face 91
property list uchar int vertex_indices
end_header
-21.0441 -5.46285 21.7159 89.7291 231.147
-20.2132 -0.111027 21.2208 91.5151 270.145
-19.1002 5.20391 20.8056 95.3406 309.037
-17.7517 10.2337 18.6273 101.116 347.427
-15.7815 14.5791 13.537 111.94 383.652
-12.5754 17.9713 8.03286 132.335 414.379
-8.43889 20.4338 3.38932 160.069 438.569
-3.77885 21.993 -0.909109 192.232 456.489
1.28487 22.0026 -4.59896 228.463 463.259
6.50354 21.2037 -0.640659 266.221 458.596
10.9459 18.6952 3.6339 299.757 440.963
14.5895 15.301 8.26983 328.272 416.154
17.2265 11.2607 13.7204 350.082 385.366
18.7086 6.76286 18.6097 364.021 350.868
19.4262 1.89311 20.7353 372.868 315.244
19.7291 -3.18224 20.9845 378.965 279.268
19.6245 -8.24634 21.4204 382.141 242.916
-18.1713 -13.6692 0.18368 117.19 191.488
-15.766 -16.07 -1.53306 136.268 177.606
-12.5704 -17.1764 -2.92318 159.971 173.27
-9.20903 -17.2222 -4.2776 184.033 176.562
-5.91748 -16.6044 -5.47826 207.076 184.392
3.79784 -16.9373 -5.62177 276.675 189.615
6.67962 -17.8318 -4.31917 297.901 184.494
9.72826 -18.1627 -2.89702 319.877 183.411
12.7728 -17.6357 -1.4134 341.155 188.367
15.312 -15.8444 0.339258 357.837 201.701
-0.326583 -11.8341 -4.88024 243.255 222.095
-0.129343 -8.80765 -7.80941 242.391 245.952
0.0521526 -5.80559 -10.7964 241.436 269.668
0.221868 -2.79634 -13.554 240.384 293.252
-2.76682 1.09183 -6.52156 215.843 313.199
-1.11408 1.41326 -7.38216 227.412 317.407
0.601137 1.45228 -8.1672 239.644 319.601
2.15299 1.25201 -7.26354 250.851 318.687
3.59542 0.767542 -6.34839 261.496 315.663
-13.4275 -9.93639 -0.773818 148.172 222.358
-11.3602 -11.3172 -1.00518 164.005 214.325
-8.83857 -11.5419 -1.16649 182.18 214.794
-6.66464 -10.3915 -1.02598 196.797 224.525
-8.88024 -9.68383 -1.11565 180.438 227.91
-11.2314 -9.45873 -1.0403 163.481 227.641
5.14889 -10.9343 -1.026 281.529 229.764
7.10238 -12.2352 -1.09571 296.483 222.088
9.56565 -12.3682 -0.946293 314.162 222.926
11.6983 -11.2097 -0.731434 328.477 232.626
9.63472 -10.4845 -1.00242 313.193 236.391
7.34056 -10.4763 -1.08723 296.816 234.748
-6.54339 8.94116 -2.87409 182.695 363.226
-4.44069 7.14782 -5.01986 199.152 353.749
-2.06372 5.79614 -6.69302 217.211 347.257
0.545368 5.82409 -8.39632 235.856 350.759
3.07556 5.55072 -6.50779 254.075 349.33
5.47603 6.65053 -4.80951 270.306 357.691
7.5652 8.30103 -2.6882 283.876 369.4
5.79304 9.93421 -3.85762 269.992 380.516
3.4464 10.8831 -5.19934 252.544 386.464
0.818352 11.1277 -6.69521 233.639 387.315
-1.8767 11.1002 -5.38548 214.39 384.05
-4.40033 10.3676 -4.04281 196.913 375.888
-2.14182 7.92298 -5.48373 214.969 361.372
0.662917 7.69139 -7.50036 235.22 363.42
3.40425 7.6963 -5.15036 254.717 363.778
3.46002 8.20702 -4.41853 254.698 366.889
0.724513 8.33305 -6.44279 235.133 367.217
-2.08594 8.45218 -4.70903 214.936 364.582
3 20 21 23
3 21 22 23
3 0 1 36
3 15 16 45
3 0 17 36
3 16 26 45
3 17 18 37
3 25 26 44
3 17 36 37
3 26 44 45
3 18 19 38
3 24 25 43
3 18 37 38
3 25 43 44
3 19 20 38
3 23 24 43
3 20 21 39
3 22 23 42
3 20 38 39
3 23 42 43
3 21 22 27
3 21 27 39
3 22 27 42
3 27 28 42
3 27 28 39
3 28 42 47
3 28 39 40
3 1 36 41
3 15 45 46
3 1 2 41
3 14 15 46
3 28 29 40
3 28 29 47
3 2 40 41
3 14 46 47
3 2 29 40
3 14 29 47
3 2 3 29
3 13 14 29
3 29 30 31
3 29 30 35
3 3 29 31
3 13 29 35
3 30 32 33
3 30 33 34
3 30 31 32
3 30 34 35
3 3 4 31
3 12 13 35
3 4 5 48
3 11 12 54
3 5 6 48
3 10 11 54
3 6 48 59
3 10 54 55
3 6 7 59
3 9 10 55
3 7 58 59
3 9 55 56
3 8 57 58
3 8 56 57
3 7 8 58
3 8 9 56
3 4 31 48
3 12 35 54
3 31 48 49
3 35 53 54
3 31 49 50
3 35 52 53
3 31 32 50
3 34 35 52
3 32 33 50
3 33 34 52
3 33 50 51
3 33 51 52
3 48 49 60
3 49 60 50
3 50 60 61
3 50 51 61
3 51 52 61
3 61 62 52
3 52 53 62
3 53 54 62
3 54 55 63
3 55 56 63
3 56 63 64
3 56 57 64
3 64 65 57
3 57 58 65
3 58 59 65
3 48 59 65
