ply
format ascii 1.0
element vertex 66
property float x
property float y
property float z
property float u
property float v
element face 91
property list uchar int vertex_indices
end_header
144.796 235.901 0 144.796 235.901
147.454 261.624 0 147.454 261.624
151.905 287.064 0 151.905 287.064
157.209 312.784 0 157.209 312.784
165.127 338.863 0 165.127 338.863
178.381 362.671 0 178.381 362.671
196.014 383.159 0 196.014 383.159
217.692 398.242 0 217.692 398.242
242.936 403.709 0 242.936 403.709
268.684 397.52 0 268.684 397.52
290.716 381.976 0 290.716 381.976
308.558 361.036 0 308.558 361.036
321.717 336.613 0 321.717 336.613
328.9 309.697 0 328.9 309.697
332.872 283.052 0 332.872 283.052
335.828 256.679 0 335.828 256.679
337.111 230.153 0 337.111 230.153
159.562 213.975 0 159.562 213.975
170.915 205.707 0 170.915 205.707
185.045 202.084 0 185.045 202.084
199.906 202.652 0 199.906 202.652
214.309 206.402 0 214.309 206.402
258.836 204.853 0 258.836 204.853
273.439 200.031 0 273.439 200.031
288.729 198.431 0 288.729 198.431
303.629 201.12 0 303.629 201.12
316.256 208.65 0 316.256 208.65
237.612 233.872 0 237.612 233.872
238.053 254.029 0 238.053 254.029
238.499 274.036 0 238.499 274.036
238.979 293.756 0 238.979 293.756
221.327 301.952 0 221.327 301.952
230.191 305.887 0 230.191 305.887
239.812 307.457 0 239.812 307.457
249.53 305.316 0 249.53 305.316
258.377 300.843 0 258.377 300.843
179.059 234.787 0 179.059 234.787
189.175 228.444 0 189.175 228.444
201.437 228.936 0 201.437 228.936
211.283 235.965 0 211.283 235.965
200.427 238 0 200.427 238
189.287 238.22 0 189.287 238.22
265.312 234.18 0 265.312 234.18
274.69 226.445 0 274.69 226.445
287.08 225.259 0 287.08 225.259
297.847 230.901 0 297.847 230.901
287.704 234.998 0 287.704 234.998
276.45 235.518 0 276.45 235.518
202.035 324.268 0 202.035 324.268
211.74 315.46 0 211.74 315.46
225.311 311.163 0 225.311 311.163
240.011 312.496 0 240.011 312.496
255.047 310.399 0 255.047 310.399
269.3 313.988 0 269.3 313.988
280.209 322.149 0 280.209 322.149
270.964 336.256 0 270.964 336.256
257.571 346.373 0 257.571 346.373
241.175 349.925 0 241.175 349.925
225.042 347.187 0 225.042 347.187
211.546 337.789 0 211.546 337.789
223.829 321.231 0 223.829 321.231
240.333 322.17 0 240.333 322.17
257.265 320.36 0 257.265 320.36
258.227 331.21 0 258.227 331.21
240.747 334.949 0 240.747 334.949
223.544 332.077 0 223.544 332.077
3 20 21 23
3 21 22 23
3 0 1 36
3 15 16 45
3 0 17 36
3 16 26 45
3 17 18 37
3 25 26 44
3 17 36 37
3 26 44 45
3 18 19 38
3 24 25 43
3 18 37 38
3 25 43 44
3 19 20 38
3 23 24 43
3 20 21 39
3 22 23 42
3 20 38 39
3 23 42 43
3 21 22 27
3 21 27 39
3 22 27 42
3 27 28 42
3 27 28 39
3 28 42 47
3 28 39 40
3 1 36 41
3 15 45 46
3 1 2 41
3 14 15 46
3 28 29 40
3 28 29 47
3 2 40 41
3 14 46 47
3 2 29 40
3 14 29 47
3 2 3 29
3 13 14 29
3 29 30 31
3 29 30 35
3 3 29 31
3 13 29 35
3 30 32 33
3 30 33 34
3 30 31 32
3 30 34 35
3 3 4 31
3 12 13 35
3 4 5 48
3 11 12 54
3 5 6 48
3 10 11 54
3 6 48 59
3 10 54 55
3 6 7 59
3 9 10 55
3 7 58 59
3 9 55 56
3 8 57 58
3 8 56 57
3 7 8 58
3 8 9 56
3 4 31 48
3 12 35 54
3 31 48 49
3 35 53 54
3 31 49 50
3 35 52 53
3 31 32 50
3 34 35 52
3 32 33 50
3 33 34 52
3 33 50 51
3 33 51 52
3 48 49 60
3 49 60 50
3 50 60 61
3 50 51 61
3 51 52 61
3 61 62 52
3 52 53 62
3 53 54 62
3 54 55 63
3 55 56 63
3 56 63 64
3 56 57 64
3 64 65 57
3 57 58 65
3 58 59 65
3 48 59 65
