ply
format ascii 1.0
element vertex 66
property float x
property float y
property float z
property float u
property float v
element face 91
property list uchar int vertex_indices
end_header
-21.8483 -4.59183 21.3543 120.117 232.363
-21.1323 0.420987 20.6142 122.285 256.601
-19.9945 5.41993 20.4929 126.029 280.362
-18.3462 9.98878 18.4255 133.609 303.808
-15.8328 13.6643 13.3223 147.572 325.735
-12.3087 16.4614 8.0936 166.664 343.872
-8.11586 18.5399 3.43606 188.762 358.327
-3.51635 19.9243 -0.788998 212.719 369.268
1.50649 19.7672 -4.13082 238.599 372.363
6.42409 19.1394 -0.725756 259.664 367.734
10.6342 17.0635 3.54254 277.319 355.463
14.3569 14.4155 8.23597 292.593 340.059
17.3525 11.1945 13.4842 304.275 321.359
19.2977 7.30133 18.5224 311.385 299.45
20.2905 2.68517 20.6499 316.195 276.316
20.7226 -2.28411 20.7662 319.823 253.044
20.7233 -7.21217 21.4913 321.006 229.374
-17.6602 -13.8914 0.171396 156.996 206.994
-15.2421 -16.0716 -1.50139 170.207 198.68
-12.2316 -17.2279 -2.86646 185.652 195.041
-9.04898 -17.4823 -4.18555 201.573 195.626
-5.9206 -17.1012 -5.41607 216.965 199.105
3.54466 -17.6959 -5.26731 261.556 198.286
6.48231 -18.5117 -3.99538 274.794 194.078
9.57095 -18.7326 -2.63811 288.485 192.619
12.6381 -18.1128 -1.24556 301.768 195.064
15.317 -16.427 0.399021 312.7 202.21
-0.758443 -11.8782 -4.80998 239.067 224.211
-0.525543 -8.30904 -7.79622 240.941 243.411
-0.289978 -4.77484 -10.8736 242.9 262.522
-0.050596 -1.22359 -13.5871 244.63 281.418
-3.6907 2.24631 -6.89456 221.909 291.412
-1.79382 2.83385 -7.53259 231.05 295.102
0.231323 2.93476 -7.99401 240.841 296.398
2.23206 2.56972 -7.41354 249.983 294.657
4.02386 1.72888 -6.73969 258.241 290.565
-13.2506 -10.1827 -0.737634 177.076 226.077
-11.1229 -11.3612 -0.855446 187.552 221.123
-8.67258 -11.5101 -0.992645 199.21 221.078
-6.55674 -10.4779 -0.990899 208.806 226.378
-8.81125 -10.0807 -1.13301 198.17 227.856
-11.0911 -9.87508 -1.1448 187.393 228.326
5.16139 -11.2943 -0.907507 264.104 225.072
7.10409 -12.5921 -0.824068 273.617 219.354
9.5407 -12.7861 -0.637773 285.011 218.832
11.7967 -11.9028 -0.481199 295.214 223.339
9.70983 -11.2993 -0.946329 285.51 226.084
7.43254 -11.1917 -0.994985 274.802 226.125
-6.18867 9.2556 -2.85538 205.125 320.397
-4.33784 7.42679 -4.98309 215.853 313.974
-2.05487 6.13092 -6.60618 228.097 309.731
0.450425 6.07259 -8.54859 241.182 311.593
2.9348 5.79548 -6.46683 251.57 309.148
5.35065 6.76432 -4.8362 261.517 312.89
7.40671 8.33896 -2.7488 269.264 319.017
5.81661 10.2578 -3.90887 261.914 328.598
3.58911 11.5928 -5.13455 251.808 335.357
0.885354 11.9745 -6.4898 239.871 337.652
-1.85893 11.9637 -5.2516 226.154 335.987
-4.29384 10.9458 -4.03036 214.241 329.688
-1.98297 8.26701 -5.41561 226.925 318.781
0.588386 7.8727 -7.70984 240.667 319.371
3.18281 7.91603 -5.28775 251.239 318.173
3.25131 8.85735 -4.54794 250.753 321.994
0.684978 9.14123 -6.47192 239.872 324.325
-1.90026 9.20903 -4.65928 226.494 322.595
3 20 21 23
3 21 22 23
3 0 1 36
3 15 16 45
3 0 17 36
3 16 26 45
3 17 18 37
3 25 26 44
3 17 36 37
3 26 44 45
3 18 19 38
3 24 25 43
3 18 37 38
3 25 43 44
3 19 20 38
3 23 24 43
3 20 21 39
3 22 23 42
3 20 38 39
3 23 42 43
3 21 22 27
3 21 27 39
3 22 27 42
3 27 28 42
3 27 28 39
3 28 42 47
3 28 39 40
3 1 36 41
3 15 45 46
3 1 2 41
3 14 15 46
3 28 29 40
3 28 29 47
3 2 40 41
3 14 46 47
3 2 29 40
3 14 29 47
3 2 3 29
3 13 14 29
3 29 30 31
3 29 30 35
3 3 29 31
3 13 29 35
3 30 32 33
3 30 33 34
3 30 31 32
3 30 34 35
3 3 4 31
3 12 13 35
3 4 5 48
3 11 12 54
3 5 6 48
3 10 11 54
3 6 48 59
3 10 54 55
3 6 7 59
3 9 10 55
3 7 58 59
3 9 55 56
3 8 57 58
3 8 56 57
3 7 8 58
3 8 9 56
3 4 31 48
3 12 35 54
3 31 48 49
3 35 53 54
3 31 49 50
3 35 52 53
3 31 32 50
3 34 35 52
3 32 33 50
3 33 34 52
3 33 50 51
3 33 51 52
3 48 49 60
3 49 60 50
3 50 60 61
3 50 51 61
3 51 52 61
3 61 62 52
3 52 53 62
3 53 54 62
3 54 55 63
3 55 56 63
3 56 63 64
3 56 57 64
3 64 65 57
3 57 58 65
3 58 59 65
3 48 59 65
