ply
format ascii 1.0
element vertex 66
property float x
property float y
property float z
property float u
property float v
element face 91
property list uchar int vertex_indices
end_header
-20.5659 -5.31537 21.7522 173.47 372.718
-19.7265 -0.0669862 21.15 174.559 390.37
-18.6363 5.14811 20.6812 176.5 407.925
-17.3192 10.1576 18.4315 179.034 425.804
-15.3266 14.6038 13.4987 183.635 443.453
-12.1394 18.1316 7.95973 192.376 458.81
-8.11286 20.7775 3.10441 204.233 471.215
-3.57307 22.5526 -1.05787 218.131 480.593
1.38865 22.7441 -4.63659 233.973 484.655
6.40771 21.6601 -0.746497 251.306 480.729
10.5848 18.8329 3.46135 266.437 470.699
14.0144 15.2258 8.30163 279.422 457.565
16.6072 11.0726 13.7473 289.893 442.075
18.1543 6.5105 18.5236 296.963 425.265
18.8984 1.69137 20.7354 301.154 408.685
19.2525 -3.26735 21.0152 303.867 392.525
19.2484 -8.21519 21.5059 305.423 376.175
-17.6168 -14.1009 0.279336 183.235 356.173
-15.2144 -16.255 -1.42147 191.594 350.815
-12.1406 -17.2644 -2.84154 201.85 349.25
-8.909 -17.3135 -4.18038 212.342 350.818
-5.75348 -16.6651 -5.37325 222.389 354.555
3.69208 -17.0154 -5.58163 253.572 356.551
6.59623 -17.8887 -4.31609 263.556 353.987
9.66277 -18.1315 -2.90985 273.899 353.454
12.6692 -17.4592 -1.40123 283.778 355.826
15.1232 -15.6091 0.400403 291.515 361.701
-0.47998 -11.2995 -4.83628 238.182 373.421
-0.307969 -8.03051 -7.8232 237.385 385.652
-0.153026 -4.78348 -10.8688 236.532 397.836
-0.00243873 -1.53514 -13.6688 235.695 409.897
-3.47327 1.11807 -6.68212 224.311 413.807
-1.5868 1.67663 -7.45823 230.258 416.629
0.394748 1.83929 -8.13512 236.65 418.143
2.21785 1.46245 -7.41578 242.856 417.13
3.88842 0.696433 -6.62892 248.687 414.768
-13.4634 -9.80574 -0.601537 195.493 371.931
-11.3932 -11.1491 -0.939551 202.678 368.399
-8.89059 -11.3138 -1.30462 210.924 368.855
-6.76621 -10.1191 -1.11395 217.578 373.323
-8.99406 -9.54526 -1.07213 210.072 374.454
-11.2957 -9.37727 -1.00711 202.45 374.229
5.25912 -10.6965 -1.26369 257.332 375.377
7.1675 -12.0046 -1.34751 264.005 371.777
9.59206 -12.16 -0.924279 272.087 371.831
11.7077 -11.028 -0.534941 278.756 375.99
9.66067 -10.3908 -0.995283 271.765 377.644
7.42728 -10.3581 -1.11778 264.386 377.098
-8.20024 7.74495 -2.68331 207.214 431.783
-5.75651 5.84413 -4.8541 215.575 427.504
-2.74576 4.70427 -6.52625 225.632 425.625
0.458176 4.61405 -8.34952 235.986 427.3
3.6057 4.31663 -6.33599 246.687 426.302
6.66291 5.0432 -4.62686 256.741 428.763
9.18618 6.68285 -2.47382 264.813 433.793
7.36119 9.58231 -3.80409 257.756 443.327
4.55836 11.6594 -5.09229 247.736 449.85
1.02997 12.3652 -6.66514 235.71 451.827
-2.64133 12.0974 -5.29343 223.871 449.07
-5.81254 10.3949 -4.04903 214.1 441.873
-3.32573 6.59386 -5.39096 223.284 430.999
0.608056 6.32325 -7.78916 236.027 432.618
4.50394 6.12958 -5.13498 249.239 431.867
4.92937 8.93511 -4.3081 249.885 440.702
0.891075 9.78534 -6.37861 236.075 443.242
-3.28229 9.44687 -4.58597 222.655 439.878
3 20 21 23
3 21 22 23
3 0 1 36
3 15 16 45
3 0 17 36
3 16 26 45
3 17 18 37
3 25 26 44
3 17 36 37
3 26 44 45
3 18 19 38
3 24 25 43
3 18 37 38
3 25 43 44
3 19 20 38
3 23 24 43
3 20 21 39
3 22 23 42
3 20 38 39
3 23 42 43
3 21 22 27
3 21 27 39
3 22 27 42
3 27 28 42
3 27 28 39
3 28 42 47
3 28 39 40
3 1 36 41
3 15 45 46
3 1 2 41
3 14 15 46
3 28 29 40
3 28 29 47
3 2 40 41
3 14 46 47
3 2 29 40
3 14 29 47
3 2 3 29
3 13 14 29
3 29 30 31
3 29 30 35
3 3 29 31
3 13 29 35
3 30 32 33
3 30 33 34
3 30 31 32
3 30 34 35
3 3 4 31
3 12 13 35
3 4 5 48
3 11 12 54
3 5 6 48
3 10 11 54
3 6 48 59
3 10 54 55
3 6 7 59
3 9 10 55
3 7 58 59
3 9 55 56
3 8 57 58
3 8 56 57
3 7 8 58
3 8 9 56
3 4 31 48
3 12 35 54
3 31 48 49
3 35 53 54
3 31 49 50
3 35 52 53
3 31 32 50
3 34 35 52
3 32 33 50
3 33 34 52
3 33 50 51
3 33 51 52
3 48 49 60
3 49 60 50
3 50 60 61
3 50 51 61
3 51 52 61
3 61 62 52
3 52 53 62
3 53 54 62
3 54 55 63
3 55 56 63
3 56 63 64
3 56 57 64
3 64 65 57
3 57 58 65
3 58 59 65
3 48 59 65
