ply
format ascii 1.0
element vertex 66
property float x
property float y
property float z
property float u
property float v
element face 91
property list uchar int vertex_indices
end_header
-20.6547 -5.64822 21.3079 160.459 390.717
-20.0519 -0.423649 20.8425 162.339 410.638
-19.1146 4.7667 20.4846 165.736 430.305
-17.7568 9.73356 18.3869 170.191 450.102
-15.6469 14.1974 13.4633 176.998 469.745
-12.4006 17.9009 7.99404 187.95 487.147
-8.27017 20.7526 3.29433 202.29 501.478
-3.55056 22.6779 -0.880153 219.218 512.259
1.65875 22.9008 -4.53572 238.558 516.086
6.75338 21.9412 -0.807894 258.398 512.154
11.0958 19.3665 3.41769 275.674 501.229
14.7165 15.9593 8.15704 290.491 486.96
17.3322 11.8354 13.6544 302.226 469.773
18.7221 7.12069 18.5937 309.873 450.35
19.3316 2.01325 20.7063 314.6 430.721
19.5157 -3.2566 21.0748 317.977 411.209
19.3623 -8.51341 21.5385 319.89 391.466
-16.9434 -14.0024 0.166523 172.372 369.969
-14.6923 -16.1532 -1.56921 181.975 362.792
-11.7473 -17.1684 -2.95979 194.27 360.309
-8.64008 -17.2567 -4.29633 206.981 361.693
-5.61118 -16.6863 -5.52226 219.215 365.544
3.24342 -17.3161 -5.43542 256.212 365.498
6.14406 -18.3113 -4.17859 268.666 361.564
9.21432 -18.6656 -2.80935 281.651 360.108
12.2557 -18.0793 -1.38764 294.271 362.578
14.7675 -16.2699 0.371491 304.258 369.812
-0.800008 -11.6067 -4.9545 237.823 387.186
-0.571382 -8.59445 -7.76035 237.58 401.89
-0.341526 -5.60559 -10.6633 237.354 416.525
-0.111056 -2.62069 -13.4075 237.178 431.001
-3.34691 0.90089 -6.47077 224.48 440.731
-1.6415 1.2941 -7.26957 230.893 443.482
0.142254 1.35258 -8.01839 237.81 444.646
1.89493 1.04463 -7.21848 244.924 443.432
3.5165 0.412997 -6.40175 251.469 440.644
-12.5316 -9.74495 -0.905324 190.087 387.81
-10.6698 -11.0691 -1.10649 198.112 382.391
-8.3451 -11.2534 -1.2279 208.04 382.614
-6.35058 -10.2247 -0.977391 215.86 388.465
-8.3556 -9.50683 -1.10156 207.263 390.907
-10.5048 -9.27615 -1.09011 198.223 391.09
4.83678 -11.0227 -0.887733 260.707 388.332
6.66716 -12.3254 -1.11779 268.424 382.458
8.99246 -12.4738 -0.968074 278.366 382.171
11.0209 -11.4279 -0.742362 286.507 387.507
9.08377 -10.6753 -0.948989 278.361 390.856
6.92444 -10.5977 -0.987214 269.307 390.716
-6.63855 8.84013 -2.74685 212.387 465.258
-4.73902 6.8457 -4.89305 220.194 460.834
-2.32888 5.4219 -6.54708 228.961 457.718
0.427259 5.35547 -8.22771 238.223 459.572
3.15408 5.03248 -6.48681 247.849 457.585
5.72158 6.09946 -4.80547 256.975 460.568
7.86034 7.80446 -2.63884 265.28 464.891
6.14905 9.90529 -3.93286 257.783 471.172
3.75933 11.3254 -5.28293 248.582 475.038
0.883179 11.8243 -6.67982 238.63 476.435
-2.0422 11.738 -5.34336 228.948 475.189
-4.62825 10.6744 -4.02161 219.833 471.467
-2.38864 7.57584 -5.20395 229.436 464.959
0.55887 7.21472 -7.41824 238.421 466.01
3.50364 7.15671 -5.14457 247.823 464.823
3.65722 8.62822 -4.49552 247.859 464.625
0.689237 9.10764 -6.42523 238.538 465.566
-2.33557 9.05505 -4.5521 229.585 464.766
3 20 21 23
3 21 22 23
3 0 1 36
3 15 16 45
3 0 17 36
3 16 26 45
3 17 18 37
3 25 26 44
3 17 36 37
3 26 44 45
3 18 19 38
3 24 25 43
3 18 37 38
3 25 43 44
3 19 20 38
3 23 24 43
3 20 21 39
3 22 23 42
3 20 38 39
3 23 42 43
3 21 22 27
3 21 27 39
3 22 27 42
3 27 28 42
3 27 28 39
3 28 42 47
3 28 39 40
3 1 36 41
3 15 45 46
3 1 2 41
3 14 15 46
3 28 29 40
3 28 29 47
3 2 40 41
3 14 46 47
3 2 29 40
3 14 29 47
3 2 3 29
3 13 14 29
3 29 30 31
3 29 30 35
3 3 29 31
3 13 29 35
3 30 32 33
3 30 33 34
3 30 31 32
3 30 34 35
3 3 4 31
3 12 13 35
3 4 5 48
3 11 12 54
3 5 6 48
3 10 11 54
3 6 48 59
3 10 54 55
3 6 7 59
3 9 10 55
3 7 58 59
3 9 55 56
3 8 57 58
3 8 56 57
3 7 8 58
3 8 9 56
3 4 31 48
3 12 35 54
3 31 48 49
3 35 53 54
3 31 49 50
3 35 52 53
3 31 32 50
3 34 35 52
3 32 33 50
3 33 34 52
3 33 50 51
3 33 51 52
3 48 49 60
3 49 60 50
3 50 60 61
3 50 51 61
3 51 52 61
3 61 62 52
3 52 53 62
3 53 54 62
3 54 55 63
3 55 56 63
3 56 63 64
3 56 57 64
3 64 65 57
3 57 58 65
3 58 59 65
3 48 59 65
