ply
format ascii 1.0
element vertex 66
property float x
property float y
property float z
property float u
property float v
element face 91
property list uchar int vertex_indices
end_header
195.401 283.925 0 195.401 283.925
198.007 313.293 0 198.007 313.293
202.542 342.497 0 202.542 342.497
207.991 371.054 0 207.991 371.054
216.876 397.72 0 216.876 397.72
232.596 420.536 0 232.596 420.536
253.871 438.62 0 253.871 438.62
278.87 451.436 0 278.87 451.436
306.969 455.003 0 306.969 455.003
336.669 451.474 0 336.669 451.474
363.449 438.711 0 363.449 438.711
386.513 420.508 0 386.513 420.508
404.13 397.467 0 404.13 397.467
414.615 370.673 0 414.615 370.673
420.667 342.09 0 420.667 342.09
425.062 312.89 0 425.062 312.89
427.644 283.549 0 427.644 283.549
209.602 235.828 0 209.602 235.828
223.542 224.442 0 223.542 224.442
241.237 220.05 0 241.237 220.05
259.52 221.145 0 259.52 221.145
277.046 226.163 0 277.046 226.163
333.471 226.689 0 333.471 226.689
351.551 221.554 0 351.551 221.554
370.473 220.342 0 370.473 220.342
388.935 224.551 0 388.935 224.551
403.902 235.745 0 403.902 235.745
305.993 261.488 0 305.993 261.488
305.43 283.096 0 305.43 283.096
304.836 304.551 0 304.836 304.551
304.307 325.936 0 304.307 325.936
285.299 339.967 0 285.299 339.967
295.07 343.675 0 295.07 343.675
305.545 345.161 0 305.545 345.161
316.389 343.673 0 316.389 343.673
326.563 339.938 0 326.563 339.938
232.407 266.369 0 232.407 266.369
244.715 257.271 0 244.715 257.271
260.157 257.798 0 260.157 257.798
272.068 267.763 0 272.068 267.763
258.792 271.577 0 258.792 271.577
244.826 271.774 0 244.826 271.774
341.842 267.872 0 341.842 267.872
353.648 257.962 0 353.648 257.962
369.221 257.52 0 369.221 257.52
381.707 266.621 0 381.707 266.621
369.088 271.948 0 369.088 271.948
355.081 271.747 0 355.081 271.747
262.193 376.885 0 262.193 376.885
276.054 369.977 0 276.054 369.977
290.804 365.748 0 290.804 365.748
305.502 367.698 0 305.502 367.698
321.034 365.826 0 321.034 365.826
336.551 370.126 0 336.551 370.126
351.449 377.06 0 351.449 377.06
338.457 386.843 0 338.457 386.843
322.549 392.145 0 322.549 392.145
305.994 393.362 0 305.994 393.362
290 392.09 0 290 392.09
274.639 386.713 0 274.639 386.713
290.169 376.82 0 290.169 376.82
305.674 378.068 0 305.674 378.068
322.256 376.873 0 322.256 376.873
322.755 377.208 0 322.755 377.208
305.947 377.341 0 305.947 377.341
290 377.127 0 290 377.127
3 20 21 23
3 21 22 23
3 0 1 36
3 15 16 45
3 0 17 36
3 16 26 45
3 17 18 37
3 25 26 44
3 17 36 37
3 26 44 45
3 18 19 38
3 24 25 43
3 18 37 38
3 25 43 44
3 19 20 38
3 23 24 43
3 20 21 39
3 22 23 42
3 20 38 39
3 23 42 43
3 21 22 27
3 21 27 39
3 22 27 42
3 27 28 42
3 27 28 39
3 28 42 47
3 28 39 40
3 1 36 41
3 15 45 46
3 1 2 41
3 14 15 46
3 28 29 40
3 28 29 47
3 2 40 41
3 14 46 47
3 2 29 40
3 14 29 47
3 2 3 29
3 13 14 29
3 29 30 31
3 29 30 35
3 3 29 31
3 13 29 35
3 30 32 33
3 30 33 34
3 30 31 32
3 30 34 35
3 3 4 31
3 12 13 35
3 4 5 48
3 11 12 54
3 5 6 48
3 10 11 54
3 6 48 59
3 10 54 55
3 6 7 59
3 9 10 55
3 7 58 59
3 9 55 56
3 8 57 58
3 8 56 57
3 7 8 58
3 8 9 56
3 4 31 48
3 12 35 54
3 31 48 49
3 35 53 54
3 31 49 50
3 35 52 53
3 31 32 50
3 34 35 52
3 32 33 50
3 33 34 52
3 33 50 51
3 33 51 52
3 48 49 60
3 49 60 50
3 50 60 61
3 50 51 61
3 51 52 61
3 61 62 52
3 52 53 62
3 53 54 62
3 54 55 63
3 55 56 63
3 56 63 64
3 56 57 64
3 64 65 57
3 57 58 65
3 58 59 65
3 48 59 65
