ply
format ascii 1.0
element vertex 66
property float x
property float y
property float z
property float u
property float v
element face 91
property list uchar int vertex_indices
end_header
160.459 390.717 0 160.459 390.717
162.339 410.638 0 162.339 410.638
165.736 430.305 0 165.736 430.305
170.191 450.102 0 170.191 450.102
176.998 469.745 0 176.998 469.745
187.95 487.147 0 187.95 487.147
202.29 501.478 0 202.29 501.478
219.218 512.259 0 219.218 512.259
238.558 516.086 0 238.558 516.086
258.398 512.154 0 258.398 512.154
275.674 501.229 0 275.674 501.229
290.491 486.96 0 290.491 486.96
302.226 469.773 0 302.226 469.773
309.873 450.35 0 309.873 450.35
314.6 430.721 0 314.6 430.721
317.977 411.209 0 317.977 411.209
319.89 391.466 0 319.89 391.466
172.372 369.969 0 172.372 369.969
181.975 362.792 0 181.975 362.792
194.27 360.309 0 194.27 360.309
206.981 361.693 0 206.981 361.693
219.215 365.544 0 219.215 365.544
256.212 365.498 0 256.212 365.498
268.666 361.564 0 268.666 361.564
281.651 360.108 0 281.651 360.108
294.271 362.578 0 294.271 362.578
304.258 369.812 0 304.258 369.812
237.823 387.186 0 237.823 387.186
237.58 401.89 0 237.58 401.89
237.354 416.525 0 237.354 416.525
237.178 431.001 0 237.178 431.001
224.48 440.731 0 224.48 440.731
230.893 443.482 0 230.893 443.482
237.81 444.646 0 237.81 444.646
244.924 443.432 0 244.924 443.432
251.469 440.644 0 251.469 440.644
190.087 387.81 0 190.087 387.81
198.112 382.391 0 198.112 382.391
208.04 382.614 0 208.04 382.614
215.86 388.465 0 215.86 388.465
207.263 390.907 0 207.263 390.907
198.223 391.09 0 198.223 391.09
260.707 388.332 0 260.707 388.332
268.424 382.458 0 268.424 382.458
278.366 382.171 0 278.366 382.171
286.507 387.507 0 286.507 387.507
278.361 390.856 0 278.361 390.856
269.307 390.716 0 269.307 390.716
212.387 465.258 0 212.387 465.258
220.194 460.834 0 220.194 460.834
228.961 457.718 0 228.961 457.718
238.223 459.572 0 238.223 459.572
247.849 457.585 0 247.849 457.585
256.975 460.568 0 256.975 460.568
265.28 464.891 0 265.28 464.891
257.783 471.172 0 257.783 471.172
248.582 475.038 0 248.582 475.038
238.63 476.435 0 238.63 476.435
228.948 475.189 0 228.948 475.189
219.833 471.467 0 219.833 471.467
229.436 464.959 0 229.436 464.959
238.421 466.01 0 238.421 466.01
247.823 464.823 0 247.823 464.823
247.859 464.625 0 247.859 464.625
238.538 465.566 0 238.538 465.566
229.585 464.766 0 229.585 464.766
3 20 21 23
3 21 22 23
3 0 1 36
3 15 16 45
3 0 17 36
3 16 26 45
3 17 18 37
3 25 26 44
3 17 36 37
3 26 44 45
3 18 19 38
3 24 25 43
3 18 37 38
3 25 43 44
3 19 20 38
3 23 24 43
3 20 21 39
3 22 23 42
3 20 38 39
3 23 42 43
3 21 22 27
3 21 27 39
3 22 27 42
3 27 28 42
3 27 28 39
3 28 42 47
3 28 39 40
3 1 36 41
3 15 45 46
3 1 2 41
3 14 15 46
3 28 29 40
3 28 29 47
3 2 40 41
3 14 46 47
3 2 29 40
3 14 29 47
3 2 3 29
3 13 14 29
3 29 30 31
3 29 30 35
3 3 29 31
3 13 29 35
3 30 32 33
3 30 33 34
3 30 31 32
3 30 34 35
3 3 4 31
3 12 13 35
3 4 5 48
3 11 12 54
3 5 6 48
3 10 11 54
3 6 48 59
3 10 54 55
3 6 7 59
3 9 10 55
3 7 58 59
3 9 55 56
3 8 57 58
3 8 56 57
3 7 8 58
3 8 9 56
3 4 31 48
3 12 35 54
3 31 48 49
3 35 53 54
3 31 49 50
3 35 52 53
3 31 32 50
3 34 35 52
3 32 33 50
3 33 34 52
3 33 50 51
3 33 51 52
3 48 49 60
3 49 60 50
3 50 60 61
3 50 51 61
3 51 52 61
3 61 62 52
3 52 53 62
3 53 54 62
3 54 55 63
3 55 56 63
3 56 63 64
3 56 57 64
3 64 65 57
3 57 58 65
3 58 59 65
3 48 59 65
