ply
format ascii 1.0
element vertex 66
property float x
property float y
property float z
property float u
property float v
element face 91
property list uchar int vertex_indices
end_header
-21.4169 -5.26305 21.0806 129.512 200.115
-20.9091 -0.40889 20.6788 130.839 223.969
-19.9519 4.38991 20.3892 134.345 247.594
-18.4281 9.05427 18.2447 141.018 271.743
-15.9905 13.4291 13.3403 152.768 296.254
-12.4919 17.1977 7.96275 169.936 318.337
-8.2496 20.2038 3.42005 190.75 336.427
-3.41736 22.2424 -0.774431 214.614 349.769
1.86319 22.639 -4.42378 240.966 354.952
6.82618 21.7208 -0.967612 264.68 349.69
11.2797 19.5058 3.34269 286.068 337.549
15.163 16.4175 7.99811 304.83 320.852
18.0406 12.4233 13.5507 318.743 299.033
19.4563 7.5372 18.7385 325.834 272.766
20.0845 2.2 20.9825 329.794 245.793
20.3661 -3.24464 21.5423 332.43 219.17
20.3312 -8.69205 22.0337 333.54 192.5
-16.789 -13.8787 0.215688 158.419 171.203
-14.565 -15.9404 -1.62775 170.143 162.764
-11.6739 -16.9482 -3.03452 184.763 159.336
-8.5969 -17.1014 -4.30683 200.045 160.013
-5.59924 -16.5989 -5.50671 214.76 163.808
2.81882 -17.6279 -5.14683 255.951 160.543
6.00535 -18.8373 -3.97698 271.544 154.753
9.36637 -19.3055 -2.69934 287.777 152.533
12.6807 -18.6855 -1.32185 303.488 155.516
15.4287 -16.7956 0.472803 316.035 164.285
-1.29497 -11.1925 -4.92024 234.24 190.646
-0.987976 -8.09872 -7.72335 235.515 207.282
-0.658375 -5.03116 -10.6933 236.941 223.889
-0.317384 -1.97737 -13.5333 238.399 240.359
-3.75617 1.80651 -6.68786 219.319 254.043
-2.03246 2.2551 -7.3597 227.736 256.988
-0.228679 2.3284 -8.01546 236.635 258.124
1.71034 1.90925 -7.37815 246.058 256.177
3.51335 1.13829 -6.71675 254.903 252.482
-12.4574 -8.80709 -0.782846 178.436 197.32
-10.6132 -10.3868 -1.24428 187.911 190.349
-8.16205 -10.5151 -1.499 199.934 190.431
-6.09857 -9.32018 -1.16159 209.615 196.5
-8.13422 -8.46744 -1.1957 199.49 200.184
-10.3508 -8.18851 -1.14071 188.612 200.998
4.77737 -10.4791 -0.887981 262.829 193.215
6.69704 -12.1686 -1.29724 272.689 185.701
9.2253 -12.4015 -0.996928 285.002 184.981
11.4162 -11.2218 -0.496443 295.275 190.913
9.37497 -10.2176 -0.866794 285.153 195.52
7.05733 -10.0298 -0.943284 273.832 195.943
-7.4208 8.5265 -2.62856 198.954 283.466
-5.38341 6.43754 -4.8366 209.85 275.058
-2.71915 5.08712 -6.47156 223.497 270.047
0.295004 5.00287 -8.07375 238.521 271.23
3.332 4.54815 -6.59526 253.132 268.888
6.26987 5.43752 -4.91741 266.881 272.921
8.80065 7.03018 -2.61094 278.343 279.912
6.59338 9.11112 -3.93935 267.331 290.236
3.81065 10.4639 -5.28501 253.705 296.912
0.730981 10.9982 -6.51043 238.815 299.487
-2.30442 11.0425 -5.16836 223.749 298.253
-5.15947 10.2142 -3.85292 209.788 292.847
-2.81259 7.32671 -5.12581 222.205 280.115
0.419516 7.05527 -7.39744 238.473 280.819
3.67929 6.70471 -5.39819 254.038 278.738
3.76197 7.79921 -4.74516 254.033 283.69
0.44543 8.24111 -6.6182 238.143 286.129
-2.84476 8.4063 -4.49082 221.648 284.979
3 20 21 23
3 21 22 23
3 0 1 36
3 15 16 45
3 0 17 36
3 16 26 45
3 17 18 37
3 25 26 44
3 17 36 37
3 26 44 45
3 18 19 38
3 24 25 43
3 18 37 38
3 25 43 44
3 19 20 38
3 23 24 43
3 20 21 39
3 22 23 42
3 20 38 39
3 23 42 43
3 21 22 27
3 21 27 39
3 22 27 42
3 27 28 42
3 27 28 39
3 28 42 47
3 28 39 40
3 1 36 41
3 15 45 46
3 1 2 41
3 14 15 46
3 28 29 40
3 28 29 47
3 2 40 41
3 14 46 47
3 2 29 40
3 14 29 47
3 2 3 29
3 13 14 29
3 29 30 31
3 29 30 35
3 3 29 31
3 13 29 35
3 30 32 33
3 30 33 34
3 30 31 32
3 30 34 35
3 3 4 31
3 12 13 35
3 4 5 48
3 11 12 54
3 5 6 48
3 10 11 54
3 6 48 59
3 10 54 55
3 6 7 59
3 9 10 55
3 7 58 59
3 9 55 56
3 8 57 58
3 8 56 57
3 7 8 58
3 8 9 56
3 4 31 48
3 12 35 54
3 31 48 49
3 35 53 54
3 31 49 50
3 35 52 53
3 31 32 50
3 34 35 52
3 32 33 50
3 33 34 52
3 33 50 51
3 33 51 52
3 48 49 60
3 49 60 50
3 50 60 61
3 50 51 61
3 51 52 61
3 61 62 52
3 52 53 62
3 53 54 62
3 54 55 63
3 55 56 63
3 56 63 64
3 56 57 64
3 64 65 57
3 57 58 65
3 58 59 65
3 48 59 65
