ply
format ascii 1.0
element vertex 66
property float x
property float y
property float z
property float u
property float v
element face 91
property list uchar int vertex_indices
end_header
-20.1313 -5.51087 21.3652 144.796 235.901
-19.3591 -0.336923 20.7501 147.454 261.624
-18.229 4.80655 20.3847 151.905 287.064
-16.8975 9.71555 18.4348 157.209 312.784
-14.9816 14.1194 13.394 165.127 338.863
-11.9959 17.9491 8.04456 178.381 362.671
-8.15858 21.1562 3.27157 196.014 383.159
-3.555 23.3109 -0.937535 217.692 398.242
1.67874 23.5718 -4.45489 242.936 403.709
6.80031 22.6857 -0.930718 268.684 397.52
11.074 20.0365 3.33369 290.716 381.976
14.4407 16.4124 8.15387 308.558 361.036
16.8158 12.2201 13.5681 321.717 336.613
17.9603 7.51487 18.6804 328.9 309.697
18.5051 2.3335 20.6605 332.872 283.052
18.8709 -3.05818 21.1028 335.828 256.679
18.8924 -8.43159 21.7346 337.111 230.153
-16.978 -13.9613 0.264048 159.562 213.975
-14.7121 -16.1123 -1.62093 170.915 205.707
-11.8502 -17.2337 -2.96533 185.045 202.084
-8.80493 -17.4826 -4.22998 199.906 202.652
-5.82664 -17.0563 -5.41552 214.309 206.402
3.20607 -17.7705 -5.29114 258.836 204.853
6.11218 -18.6847 -4.07688 273.439 200.031
9.1843 -18.9257 -2.78188 288.729 198.431
12.2132 -18.2647 -1.41439 303.629 201.12
14.8134 -16.4915 0.465208 316.256 208.65
-0.864063 -11.494 -4.79904 237.612 233.872
-0.54988 -7.89706 -7.91476 238.053 254.029
-0.237077 -4.31904 -10.9648 238.499 274.036
0.0728877 -0.720751 -13.5687 238.979 293.756
-3.54983 2.31522 -6.99888 221.327 301.952
-1.70599 2.95061 -7.52156 230.191 305.887
0.268959 3.11367 -7.91621 239.812 307.457
2.2182 2.65812 -7.48541 249.53 305.316
3.96867 1.74845 -6.94821 258.377 300.843
-12.8229 -9.9991 -0.57653 179.059 234.787
-10.8138 -11.4946 -1.08595 189.175 228.444
-8.31117 -11.5811 -1.49514 201.437 228.936
-6.25349 -10.1822 -1.26977 211.283 235.965
-8.44327 -9.64451 -1.18043 200.427 238
-10.7072 -9.47066 -1.04584 189.287 238.22
4.70765 -11.0292 -1.11821 265.312 234.18
6.55056 -12.7589 -1.37034 274.69 226.445
9.05117 -13.0429 -0.942164 287.08 225.259
11.279 -11.883 -0.406852 297.847 230.901
9.26109 -11.0278 -0.881965 287.704 234.998
6.98105 -10.8408 -1.02562 276.45 235.518
-7.35028 7.91021 -2.49436 202.035 324.268
-5.41535 5.57111 -4.89181 211.74 315.46
-2.66793 4.26012 -6.5473 225.311 311.163
0.359901 4.07478 -8.34547 240.011 312.496
3.36767 3.82648 -6.53246 255.047 310.399
6.26758 4.73799 -4.83821 269.3 313.988
8.51518 6.75791 -2.39855 280.209 322.149
6.7798 9.52003 -3.71418 270.964 336.256
4.16646 11.5016 -5.00682 257.571 346.373
0.889666 12.1203 -6.50037 241.175 349.925
-2.43627 11.9714 -5.02222 225.042 347.187
-5.28049 10.3873 -3.74546 211.546 337.789
-2.90527 6.60708 -5.12506 223.829 321.231
0.495625 6.21385 -7.53599 240.333 322.17
3.88165 6.11465 -5.12266 257.265 320.36
4.15926 8.47117 -4.42009 258.227 331.21
0.67046 9.06536 -6.32182 240.747 334.949
-2.88104 8.97671 -4.40955 223.544 332.077
3 20 21 23
3 21 22 23
3 0 1 36
3 15 16 45
3 0 17 36
3 16 26 45
3 17 18 37
3 25 26 44
3 17 36 37
3 26 44 45
3 18 19 38
3 24 25 43
3 18 37 38
3 25 43 44
3 19 20 38
3 23 24 43
3 20 21 39
3 22 23 42
3 20 38 39
3 23 42 43
3 21 22 27
3 21 27 39
3 22 27 42
3 27 28 42
3 27 28 39
3 28 42 47
3 28 39 40
3 1 36 41
3 15 45 46
3 1 2 41
3 14 15 46
3 28 29 40
3 28 29 47
3 2 40 41
3 14 46 47
3 2 29 40
3 14 29 47
3 2 3 29
3 13 14 29
3 29 30 31
3 29 30 35
3 3 29 31
3 13 29 35
3 30 32 33
3 30 33 34
3 30 31 32
3 30 34 35
3 3 4 31
3 12 13 35
3 4 5 48
3 11 12 54
3 5 6 48
3 10 11 54
3 6 48 59
3 10 54 55
3 6 7 59
3 9 10 55
3 7 58 59
3 9 55 56
3 8 57 58
3 8 56 57
3 7 8 58
3 8 9 56
3 4 31 48
3 12 35 54
3 31 48 49
3 35 53 54
3 31 49 50
3 35 52 53
3 31 32 50
3 34 35 52
3 32 33 50
3 33 34 52
3 33 50 51
3 33 51 52
3 48 49 60
3 49 60 50
3 50 60 61
3 50 51 61
3 51 52 61
3 61 62 52
3 52 53 62
3 53 54 62
3 54 55 63
3 55 56 63
3 56 63 64
3 56 57 64
3 64 65 57
3 57 58 65
3 58 59 65
3 48 59 65
