ply
format ascii 1.0
element vertex 66
property float x
property float y
property float z
property float u
property float v
element face 91
property list uchar int vertex_indices
end_header
-20.6547 -5.64822 21.3079 89.7291 231.147
-20.0519 -0.423649 20.8425 91.5151 270.145
-19.1146 4.7667 20.4846 95.3406 309.037
-17.7568 9.73356 18.3869 101.116 347.427
-15.6469 14.1974 13.4633 111.94 383.652
-12.4006 17.9009 7.99404 132.335 414.379
-8.27017 20.7526 3.29433 160.069 438.569
-3.55056 22.6779 -0.880153 192.232 456.489
1.65875 22.9008 -4.53572 228.463 463.259
6.75338 21.9412 -0.807894 266.221 458.596
11.0958 19.3665 3.41769 299.757 440.963
14.7165 15.9593 8.15704 328.272 416.154
17.3322 11.8354 13.6544 350.082 385.366
18.7221 7.12069 18.5937 364.021 350.868
19.3316 2.01325 20.7063 372.868 315.244
19.5157 -3.2566 21.0748 378.965 279.268
19.3623 -8.51341 21.5385 382.141 242.916
-16.9434 -14.0024 0.166523 117.19 191.488
-14.6923 -16.1532 -1.56921 136.268 177.606
-11.7473 -17.1684 -2.95979 159.971 173.27
-8.64008 -17.2567 -4.29633 184.033 176.562
-5.61118 -16.6863 -5.52226 207.076 184.392
3.24342 -17.3161 -5.43542 276.675 189.615
6.14406 -18.3113 -4.17859 297.901 184.494
9.21432 -18.6656 -2.80935 319.877 183.411
12.2557 -18.0793 -1.38764 341.155 188.367
14.7675 -16.2699 0.371491 357.837 201.701
-0.800008 -11.6067 -4.9545 243.255 222.095
-0.571382 -8.59445 -7.76035 242.391 245.952
-0.341526 -5.60559 -10.6633 241.436 269.668
-0.111056 -2.62069 -13.4075 240.384 293.252
-3.34691 0.90089 -6.47077 215.843 313.199
-1.6415 1.2941 -7.26957 227.412 317.407
0.142254 1.35258 -8.01839 239.644 319.601
1.89493 1.04463 -7.21848 250.851 318.687
3.5165 0.412997 -6.40175 261.496 315.663
-12.5316 -9.74495 -0.905324 148.172 222.358
-10.6698 -11.0691 -1.10649 164.005 214.325
-8.3451 -11.2534 -1.2279 182.18 214.794
-6.35058 -10.2247 -0.977391 196.797 224.525
-8.3556 -9.50683 -1.10156 180.438 227.91
-10.5048 -9.27615 -1.09011 163.481 227.641
4.83678 -11.0227 -0.887733 281.529 229.764
6.66716 -12.3254 -1.11779 296.483 222.088
8.99246 -12.4738 -0.968074 314.162 222.926
11.0209 -11.4279 -0.742362 328.477 232.626
9.08377 -10.6753 -0.948989 313.193 236.391
6.92444 -10.5977 -0.987214 296.816 234.748
-6.63855 8.84013 -2.74685 182.695 363.226
-4.73902 6.8457 -4.89305 199.152 353.749
-2.32888 5.4219 -6.54708 217.211 347.257
0.427259 5.35547 -8.22771 235.856 350.759
3.15408 5.03248 -6.48681 254.075 349.33
5.72158 6.09946 -4.80547 270.306 357.691
7.86034 7.80446 -2.63884 283.876 369.4
6.14905 9.90529 -3.93286 269.992 380.516
3.75933 11.3254 -5.28293 252.544 386.464
0.883179 11.8243 -6.67982 233.639 387.315
-2.0422 11.738 -5.34336 214.39 384.05
-4.62825 10.6744 -4.02161 196.913 375.888
-2.38864 7.57584 -5.20395 214.969 361.372
0.55887 7.21472 -7.41824 235.22 363.42
3.50364 7.15671 -5.14457 254.717 363.778
3.65722 8.62822 -4.49552 254.698 366.889
0.689237 9.10764 -6.42523 235.133 367.217
-2.33557 9.05505 -4.5521 214.936 364.582
3 20 21 23
3 21 22 23
3 0 1 36
3 15 16 45
3 0 17 36
3 16 26 45
3 17 18 37
3 25 26 44
3 17 36 37
3 26 44 45
3 18 19 38
3 24 25 43
3 18 37 38
3 25 43 44
3 19 20 38
3 23 24 43
3 20 21 39
3 22 23 42
3 20 38 39
3 23 42 43
3 21 22 27
3 21 27 39
3 22 27 42
3 27 28 42
3 27 28 39
3 28 42 47
3 28 39 40
3 1 36 41
3 15 45 46
3 1 2 41
3 14 15 46
3 28 29 40
3 28 29 47
3 2 40 41
3 14 46 47
3 2 29 40
3 14 29 47
3 2 3 29
3 13 14 29
3 29 30 31
3 29 30 35
3 3 29 31
3 13 29 35
3 30 32 33
3 30 33 34
3 30 31 32
3 30 34 35
3 3 4 31
3 12 13 35
3 4 5 48
3 11 12 54
3 5 6 48
3 10 11 54
3 6 48 59
3 10 54 55
3 6 7 59
3 9 10 55
3 7 58 59
3 9 55 56
3 8 57 58
3 8 56 57
3 7 8 58
3 8 9 56
3 4 31 48
3 12 35 54
3 31 48 49
3 35 53 54
3 31 49 50
3 35 52 53
3 31 32 50
3 34 35 52
3 32 33 50
3 33 34 52
3 33 50 51
3 33 51 52
3 48 49 60
3 49 60 50
3 50 60 61
3 50 51 61
3 51 52 61
3 61 62 52
3 52 53 62
3 53 54 62
3 54 55 63
3 55 56 63
3 56 63 64
3 56 57 64
3 64 65 57
3 57 58 65
3 58 59 65
3 48 59 65
