ply
format ascii 1.0
element vertex 66
property float x
property float y
property float z
property float u
property float v
element face 91
property list uchar int vertex_indices
end_header
-21.0468 -5.8663 21.4199 171.581 214.07
-20.5097 -0.429863 20.8583 172.737 231.717
-19.6424 4.98532 20.3876 174.974 249.317
-18.34 10.1624 18.2509 178.329 266.355
-16.1523 14.7665 13.2849 184.066 281.908
-12.7245 18.5607 7.90825 193.796 295.004
-8.49625 21.5948 3.02974 206.263 305.672
-3.61858 23.6254 -1.12744 221.043 313.09
1.79264 23.9699 -4.64914 237.806 315.054
7.06425 22.8074 -0.986305 255.571 311.428
11.5476 20.0422 3.21582 271.035 302.502
15.2107 16.3625 8.1422 284.067 290.479
17.9155 12.0331 13.5573 294.157 276.221
19.2883 7.10452 18.4937 299.918 259.954
19.7875 1.75394 20.6356 302.386 242.523
19.8545 -3.76739 21.0905 303.166 224.668
19.5847 -9.25848 21.6526 302.877 206.87
-16.0837 -14.1941 0.114868 184.384 189.782
-13.5359 -15.7276 -1.5549 192.422 185.236
-10.7085 -16.353 -2.91489 201.339 183.616
-7.84378 -16.3474 -4.21457 210.333 184.029
-5.08807 -15.7257 -5.44057 218.935 186.413
2.89949 -16.259 -5.4018 244.733 185.429
5.54321 -17.2685 -4.14505 253.573 182.292
8.37962 -17.6803 -2.80054 262.998 181.092
11.2642 -17.4443 -1.40519 272.531 181.982
13.988 -16.2719 0.249945 281.513 185.853
-0.761702 -10.9953 -4.77522 232.59 202.011
-0.498966 -7.441 -7.79506 232.573 213.804
-0.241453 -3.90865 -10.8597 232.532 225.531
0.0135137 -0.37107 -13.629 232.537 237.245
-4.00146 1.68 -6.9415 220.648 242.824
-1.97886 2.4613 -7.43227 227.009 245.582
0.19706 2.71703 -7.77246 233.937 246.643
2.3157 2.16633 -7.36107 240.889 245.021
4.2143 1.11357 -6.81322 247.201 241.746
-12.9637 -9.59837 -0.592476 193.91 204.97
-10.7843 -10.7629 -1.09455 200.944 201.465
-8.30282 -10.8409 -1.5326 208.868 201.487
-6.18364 -9.7255 -1.26025 215.651 205.255
-8.48294 -9.39297 -1.1255 208.236 206.101
-10.7771 -9.26453 -1.06184 200.842 206.297
4.91867 -10.5162 -1.2387 251.507 203.731
6.86925 -11.9001 -1.42338 257.881 199.465
9.32734 -12.1441 -0.950295 265.911 198.859
11.6224 -11.2824 -0.436768 273.328 201.801
9.50452 -10.6726 -0.944228 266.356 203.623
7.22434 -10.488 -1.06404 258.968 204.019
-8.78522 6.38697 -2.4408 205.648 257.12
-6.52873 4.06224 -4.62866 212.721 250.046
-3.25805 3.05058 -6.31204 223.041 247.253
0.190752 2.8321 -8.13888 233.839 247.05
3.61993 2.58051 -6.21966 245.267 246.365
6.9845 3.13943 -4.48976 256.38 248.308
9.5268 5.13106 -2.29898 264.804 254.752
7.80753 8.8511 -3.73247 258.676 266.738
4.84284 11.6321 -5.01884 248.642 275.565
0.869301 12.5367 -6.55872 235.473 278.268
-3.22706 12.1956 -5.12911 222.563 276.645
-6.5682 9.85017 -3.88268 212.227 268.644
-4.01305 5.17673 -5.05221 220.654 253.918
0.326793 4.85138 -7.62934 234.196 253.527
4.64039 4.57807 -4.95312 248.615 252.779
5.20701 8.46122 -4.27244 250.229 265.293
0.651358 9.57283 -6.39959 235.058 268.669
-4.04198 9.10281 -4.39017 220.341 266.517
3 20 21 23
3 21 22 23
3 0 1 36
3 15 16 45
3 0 17 36
3 16 26 45
3 17 18 37
3 25 26 44
3 17 36 37
3 26 44 45
3 18 19 38
3 24 25 43
3 18 37 38
3 25 43 44
3 19 20 38
3 23 24 43
3 20 21 39
3 22 23 42
3 20 38 39
3 23 42 43
3 21 22 27
3 21 27 39
3 22 27 42
3 27 28 42
3 27 28 39
3 28 42 47
3 28 39 40
3 1 36 41
3 15 45 46
3 1 2 41
3 14 15 46
3 28 29 40
3 28 29 47
3 2 40 41
3 14 46 47
3 2 29 40
3 14 29 47
3 2 3 29
3 13 14 29
3 29 30 31
3 29 30 35
3 3 29 31
3 13 29 35
3 30 32 33
3 30 33 34
3 30 31 32
3 30 34 35
3 3 4 31
3 12 13 35
3 4 5 48
3 11 12 54
3 5 6 48
3 10 11 54
3 6 48 59
3 10 54 55
3 6 7 59
3 9 10 55
3 7 58 59
3 9 55 56
3 8 57 58
3 8 56 57
3 7 8 58
3 8 9 56
3 4 31 48
3 12 35 54
3 31 48 49
3 35 53 54
3 31 49 50
3 35 52 53
3 31 32 50
3 34 35 52
3 32 33 50
3 33 34 52
3 33 50 51
3 33 51 52
3 48 49 60
3 49 60 50
3 50 60 61
3 50 51 61
3 51 52 61
3 61 62 52
3 52 53 62
3 53 54 62
3 54 55 63
3 55 56 63
3 56 63 64
3 56 57 64
3 64 65 57
3 57 58 65
3 58 59 65
3 48 59 65
