ply
format ascii 1.0
element vertex 66
property float x
property float y
property float z
property float u
property float v
element face 91
property list uchar int vertex_indices
end_header
-20.6547 -5.64822 21.3079 129.512 200.115
-20.0519 -0.423649 20.8425 130.839 223.969
-19.1146 4.7667 20.4846 134.345 247.594
-17.7568 9.73356 18.3869 141.018 271.743
-15.6469 14.1974 13.4633 152.768 296.254
-12.4006 17.9009 7.99404 169.936 318.337
-8.27017 20.7526 3.29433 190.75 336.427
-3.55056 22.6779 -0.880153 214.614 349.769
1.65875 22.9008 -4.53572 240.966 354.952
6.75338 21.9412 -0.807894 264.68 349.69
11.0958 19.3665 3.41769 286.068 337.549
14.7165 15.9593 8.15704 304.83 320.852
17.3322 11.8354 13.6544 318.743 299.033
18.7221 7.12069 18.5937 325.834 272.766
19.3316 2.01325 20.7063 329.794 245.793
19.5157 -3.2566 21.0748 332.43 219.17
19.3623 -8.51341 21.5385 333.54 192.5
-16.9434 -14.0024 0.166523 158.419 171.203
-14.6923 -16.1532 -1.56921 170.143 162.764
-11.7473 -17.1684 -2.95979 184.763 159.336
-8.64008 -17.2567 -4.29633 200.045 160.013
-5.61118 -16.6863 -5.52226 214.76 163.808
3.24342 -17.3161 -5.43542 255.951 160.543
6.14406 -18.3113 -4.17859 271.544 154.753
9.21432 -18.6656 -2.80935 287.777 152.533
12.2557 -18.0793 -1.38764 303.488 155.516
14.7675 -16.2699 0.371491 316.035 164.285
-0.800008 -11.6067 -4.9545 234.24 190.646
-0.571382 -8.59445 -7.76035 235.515 207.282
-0.341526 -5.60559 -10.6633 236.941 223.889
-0.111056 -2.62069 -13.4075 238.399 240.359
-3.34691 0.90089 -6.47077 219.319 254.043
-1.6415 1.2941 -7.26957 227.736 256.988
0.142254 1.35258 -8.01839 236.635 258.124
1.89493 1.04463 -7.21848 246.058 256.177
3.5165 0.412997 -6.40175 254.903 252.482
-12.5316 -9.74495 -0.905324 178.436 197.32
-10.6698 -11.0691 -1.10649 187.911 190.349
-8.3451 -11.2534 -1.2279 199.934 190.431
-6.35058 -10.2247 -0.977391 209.615 196.5
-8.3556 -9.50683 -1.10156 199.49 200.184
-10.5048 -9.27615 -1.09011 188.612 200.998
4.83678 -11.0227 -0.887733 262.829 193.215
6.66716 -12.3254 -1.11779 272.689 185.701
8.99246 -12.4738 -0.968074 285.002 184.981
11.0209 -11.4279 -0.742362 295.275 190.913
9.08377 -10.6753 -0.948989 285.153 195.52
6.92444 -10.5977 -0.987214 273.832 195.943
-6.63855 8.84013 -2.74685 198.954 283.466
-4.73902 6.8457 -4.89305 209.85 275.058
-2.32888 5.4219 -6.54708 223.497 270.047
0.427259 5.35547 -8.22771 238.521 271.23
3.15408 5.03248 -6.48681 253.132 268.888
5.72158 6.09946 -4.80547 266.881 272.921
7.86034 7.80446 -2.63884 278.343 279.912
6.14905 9.90529 -3.93286 267.331 290.236
3.75933 11.3254 -5.28293 253.705 296.912
0.883179 11.8243 -6.67982 238.815 299.487
-2.0422 11.738 -5.34336 223.749 298.253
-4.62825 10.6744 -4.02161 209.788 292.847
-2.38864 7.57584 -5.20395 222.205 280.115
0.55887 7.21472 -7.41824 238.473 280.819
3.50364 7.15671 -5.14457 254.038 278.738
3.65722 8.62822 -4.49552 254.033 283.69
0.689237 9.10764 -6.42523 238.143 286.129
-2.33557 9.05505 -4.5521 221.648 284.979
3 20 21 23
3 21 22 23
3 0 1 36
3 15 16 45
3 0 17 36
3 16 26 45
3 17 18 37
3 25 26 44
3 17 36 37
3 26 44 45
3 18 19 38
3 24 25 43
3 18 37 38
3 25 43 44
3 19 20 38
3 23 24 43
3 20 21 39
3 22 23 42
3 20 38 39
3 23 42 43
3 21 22 27
3 21 27 39
3 22 27 42
3 27 28 42
3 27 28 39
3 28 42 47
3 28 39 40
3 1 36 41
3 15 45 46
3 1 2 41
3 14 15 46
3 28 29 40
3 28 29 47
3 2 40 41
3 14 46 47
3 2 29 40
3 14 29 47
3 2 3 29
3 13 14 29
3 29 30 31
3 29 30 35
3 3 29 31
3 13 29 35
3 30 32 33
3 30 33 34
3 30 31 32
3 30 34 35
3 3 4 31
3 12 13 35
3 4 5 48
3 11 12 54
3 5 6 48
3 10 11 54
3 6 48 59
3 10 54 55
3 6 7 59
3 9 10 55
3 7 58 59
3 9 55 56
3 8 57 58
3 8 56 57
3 7 8 58
3 8 9 56
3 4 31 48
3 12 35 54
3 31 48 49
3 35 53 54
3 31 49 50
3 35 52 53
3 31 32 50
3 34 35 52
3 32 33 50
3 33 34 52
3 33 50 51
3 33 51 52
3 48 49 60
3 49 60 50
3 50 60 61
3 50 51 61
3 51 52 61
3 61 62 52
3 52 53 62
3 53 54 62
3 54 55 63
3 55 56 63
3 56 63 64
3 56 57 64
3 64 65 57
3 57 58 65
3 58 59 65
3 48 59 65
