ply
format ascii 1.0
element vertex 66
property float x
property float y
property float z
property float u
property float v
element face 91
property list uchar int vertex_indices
end_header
-20.6547 -5.64822 21.3079 183.298 389.762
-20.0519 -0.423649 20.8425 184.271 404.879
-19.1146 4.7667 20.4846 186.443 419.764
-17.7568 9.73356 18.3869 189.306 434.936
-15.6469 14.1974 13.4633 193.644 450.398
-12.4006 17.9009 7.99404 201.028 464.769
-8.27017 20.7526 3.29433 211.468 476.604
-3.55056 22.6779 -0.880153 224.136 485.531
1.65875 22.9008 -4.53572 238.829 489.009
6.75338 21.9412 -0.807894 254.695 485.867
11.0958 19.3665 3.41769 268.609 477.277
14.7165 15.9593 8.15704 280.473 465.742
17.3322 11.8354 13.6544 289.374 451.467
18.7221 7.12069 18.5937 294.543 435.535
19.3316 2.01325 20.7063 297.258 419.618
19.5157 -3.2566 21.0748 298.883 403.911
19.3623 -8.51341 21.5385 299.509 388.113
-16.9434 -14.0024 0.166523 190.498 378.249
-14.6923 -16.1532 -1.56921 197.026 374.138
-11.7473 -17.1684 -2.95979 205.098 373.082
-8.64008 -17.2567 -4.29633 213.345 374.226
-5.61118 -16.6863 -5.52226 221.258 376.85
3.24342 -17.3161 -5.43542 248.404 376.391
6.14406 -18.3113 -4.17859 257.421 373.212
9.21432 -18.6656 -2.80935 266.872 371.719
12.2557 -18.0793 -1.38764 276.244 372.895
14.7675 -16.2699 0.371491 284.06 377.429
-0.800008 -11.6067 -4.9545 235.535 391.753
-0.571382 -8.59445 -7.76035 235.452 402.026
-0.341526 -5.60559 -10.6633 235.358 412.307
-0.111056 -2.62069 -13.4075 235.321 422.524
-3.34691 0.90089 -6.47077 226.442 431.78
-1.6415 1.2941 -7.26957 231.408 433.716
0.142254 1.35258 -8.01839 236.703 434.464
1.89493 1.04463 -7.21848 242.431 433.408
3.5165 0.412997 -6.40175 247.723 431.239
-12.5316 -9.74495 -0.905324 201.249 392.72
-10.6698 -11.0691 -1.10649 207.047 388.779
-8.3451 -11.2534 -1.2279 214.323 389.025
-6.35058 -10.2247 -0.977391 220.114 393.112
-8.3556 -9.50683 -1.10156 213.857 395.159
-10.5048 -9.27615 -1.09011 207.177 395.372
4.83678 -11.0227 -0.887733 253.489 392.352
6.66716 -12.3254 -1.11779 259.039 387.989
8.99246 -12.4738 -0.968074 266.434 387.523
11.0209 -11.4279 -0.742362 272.731 391.028
9.08377 -10.6753 -0.948989 266.79 393.946
6.92444 -10.5977 -0.987214 259.967 394.044
-6.63855 8.84013 -2.74685 219.251 451.965
-4.73902 6.8457 -4.89305 224.541 448.33
-2.32888 5.4219 -6.54708 230.785 445.679
0.427259 5.35547 -8.22771 237.742 446.937
3.15408 5.03248 -6.48681 245.439 445.292
5.72158 6.09946 -4.80547 252.7 447.592
7.86034 7.80446 -2.63884 259.38 450.739
6.14905 9.90529 -3.93286 253.75 456.226
3.75933 11.3254 -5.28293 246.676 459.935
0.883179 11.8243 -6.67982 238.639 461.367
-2.0422 11.738 -5.34336 231.175 460.376
-4.62825 10.6744 -4.02161 224.505 457.083
-2.38864 7.57584 -5.20395 230.543 450.825
0.55887 7.21472 -7.41824 238.101 451.407
3.50364 7.15671 -5.14457 246.564 450.419
3.65722 8.62822 -4.49552 246.729 452.221
0.689237 9.10764 -6.42523 238.332 453.64
-2.33557 9.05505 -4.5521 230.673 452.59
3 20 21 23
3 21 22 23
3 0 1 36
3 15 16 45
3 0 17 36
3 16 26 45
3 17 18 37
3 25 26 44
3 17 36 37
3 26 44 45
3 18 19 38
3 24 25 43
3 18 37 38
3 25 43 44
3 19 20 38
3 23 24 43
3 20 21 39
3 22 23 42
3 20 38 39
3 23 42 43
3 21 22 27
3 21 27 39
3 22 27 42
3 27 28 42
3 27 28 39
3 28 42 47
3 28 39 40
3 1 36 41
3 15 45 46
3 1 2 41
3 14 15 46
3 28 29 40
3 28 29 47
3 2 40 41
3 14 46 47
3 2 29 40
3 14 29 47
3 2 3 29
3 13 14 29
3 29 30 31
3 29 30 35
3 3 29 31
3 13 29 35
3 30 32 33
3 30 33 34
3 30 31 32
3 30 34 35
3 3 4 31
3 12 13 35
3 4 5 48
3 11 12 54
3 5 6 48
3 10 11 54
3 6 48 59
3 10 54 55
3 6 7 59
3 9 10 55
3 7 58 59
3 9 55 56
3 8 57 58
3 8 56 57
3 7 8 58
3 8 9 56
3 4 31 48
3 12 35 54
3 31 48 49
3 35 53 54
3 31 49 50
3 35 52 53
3 31 32 50
3 34 35 52
3 32 33 50
3 33 34 52
3 33 50 51
3 33 51 52
3 48 49 60
3 49 60 50
3 50 60 61
3 50 51 61
3 51 52 61
3 61 62 52
3 52 53 62
3 53 54 62
3 54 55 63
3 55 56 63
3 56 63 64
3 56 57 64
3 64 65 57
3 57 58 65
3 58 59 65
3 48 59 65
