ply
format ascii 1.0
element vertex 66
property float x
property float y
property float z
property float u
property float v
element face 91
property list uchar int vertex_indices
end_header
-20.6547 -5.64822 21.3079 170.032 330.629
-20.0519 -0.423649 20.8425 168.559 348.821
-19.1146 4.7667 20.4846 168.124 366.976
-17.7568 9.73356 18.3869 168.685 385.911
-15.6469 14.1974 13.4633 171.415 405.671
-12.4006 17.9009 7.99404 177.841 424.226
-8.27017 20.7526 3.29433 187.407 440.669
-3.55056 22.6779 -0.880153 199.638 454.473
1.65875 22.9008 -4.53572 215.276 462.779
6.75338 21.9412 -0.807894 234.839 460.932
11.0958 19.3665 3.41769 252.916 451.917
14.7165 15.9593 8.15704 269.311 439.144
17.3322 11.8354 13.6544 283.676 423.502
18.7221 7.12069 18.5937 294.588 405.58
19.3316 2.01325 20.7063 301.808 387.615
19.5157 -3.2566 21.0748 306.891 369.951
19.3623 -8.51341 21.5385 310.697 351.92
-16.9434 -14.0024 0.166523 182.787 320.067
-14.6923 -16.1532 -1.56921 191.579 315.146
-11.7473 -17.1684 -2.95979 202.332 314.142
-8.64008 -17.2567 -4.29633 213.217 316.697
-5.61118 -16.6863 -5.52226 223.4 321.648
3.24342 -17.3161 -5.43542 253.529 326.678
6.14406 -18.3113 -4.17859 264.721 325.135
9.21432 -18.6656 -2.80935 275.974 326.095
12.2557 -18.0793 -1.38764 286.194 330.154
14.7675 -16.2699 0.371491 293.689 337.273
-0.800008 -11.6067 -4.9545 236.842 343.302
-0.571382 -8.59445 -7.76035 234.52 356.984
-0.341526 -5.60559 -10.6633 232.158 370.61
-0.111056 -2.62069 -13.4075 229.811 384.045
-3.34691 0.90089 -6.47077 216.311 386.036
-1.6415 1.2941 -7.26957 222.551 390.197
0.142254 1.35258 -8.01839 229.57 392.82
1.89493 1.04463 -7.21848 236.813 392.505
3.5165 0.412997 -6.40175 243.769 390.521
-12.5316 -9.74495 -0.905324 194.142 337.697
-10.6698 -11.0691 -1.10649 201.978 334.877
-8.3451 -11.2534 -1.2279 210.518 336.451
-6.35058 -10.2247 -0.977391 217.114 341.701
-8.3556 -9.50683 -1.10156 209.185 341.986
-10.5048 -9.27615 -1.09011 201.267 340.886
4.83678 -11.0227 -0.887733 254.22 347.817
6.66716 -12.3254 -1.11779 261.792 344.919
8.99246 -12.4738 -0.968074 270.467 345.848
11.0209 -11.4279 -0.742362 277.233 350.878
9.08377 -10.6753 -0.948989 269.526 351.85
6.92444 -10.5977 -0.987214 261.717 350.368
-6.63855 8.84013 -2.74685 196.447 400.411
-4.73902 6.8457 -4.89305 205.879 398.154
-2.32888 5.4219 -6.54708 216.751 398.625
0.427259 5.35547 -8.22771 227.425 402.25
3.15408 5.03248 -6.48681 239.052 402.3
5.72158 6.09946 -4.80547 249.738 405.319
7.86034 7.80446 -2.63884 258.137 410.493
6.14905 9.90529 -3.93286 249.141 421.206
3.75933 11.3254 -5.28293 237.085 428.033
0.883179 11.8243 -6.67982 223.078 428.855
-2.0422 11.738 -5.34336 210.593 423.517
-4.62825 10.6744 -4.02161 201.591 413.21
-2.38864 7.57584 -5.20395 212.756 402.949
0.55887 7.21472 -7.41824 226.672 407.104
3.50364 7.15671 -5.14457 241.571 407.741
3.65722 8.62822 -4.49552 240.945 418.809
0.689237 9.10764 -6.42523 224.743 420.365
-2.33557 9.05505 -4.5521 210.218 413.749
3 20 21 23
3 21 22 23
3 0 1 36
3 15 16 45
3 0 17 36
3 16 26 45
3 17 18 37
3 25 26 44
3 17 36 37
3 26 44 45
3 18 19 38
3 24 25 43
3 18 37 38
3 25 43 44
3 19 20 38
3 23 24 43
3 20 21 39
3 22 23 42
3 20 38 39
3 23 42 43
3 21 22 27
3 21 27 39
3 22 27 42
3 27 28 42
3 27 28 39
3 28 42 47
3 28 39 40
3 1 36 41
3 15 45 46
3 1 2 41
3 14 15 46
3 28 29 40
3 28 29 47
3 2 40 41
3 14 46 47
3 2 29 40
3 14 29 47
3 2 3 29
3 13 14 29
3 29 30 31
3 29 30 35
3 3 29 31
3 13 29 35
3 30 32 33
3 30 33 34
3 30 31 32
3 30 34 35
3 3 4 31
3 12 13 35
3 4 5 48
3 11 12 54
3 5 6 48
3 10 11 54
3 6 48 59
3 10 54 55
3 6 7 59
3 9 10 55
3 7 58 59
3 9 55 56
3 8 57 58
3 8 56 57
3 7 8 58
3 8 9 56
3 4 31 48
3 12 35 54
3 31 48 49
3 35 53 54
3 31 49 50
3 35 52 53
3 31 32 50
3 34 35 52
3 32 33 50
3 33 34 52
3 33 50 51
3 33 51 52
3 48 49 60
3 49 60 50
3 50 60 61
3 50 51 61
3 51 52 61
3 61 62 52
3 52 53 62
3 53 54 62
3 54 55 63
3 55 56 63
3 56 63 64
3 56 57 64
3 64 65 57
3 57 58 65
3 58 59 65
3 48 59 65
