ply
format ascii 1.0
element vertex 66
property float x
property float y
property float z
property float u
property float v
element face 91
property list uchar int vertex_indices
end_header
-19.3717 -5.4871 21.1889 138.617 312.478
-18.7477 -0.40311 20.67 140.333 338.913
-17.815 4.66152 20.3634 143.669 365.121
-16.7285 9.54247 18.3004 147.69 392.283
-15.0822 14.1076 13.7281 154.463 420.64
-12.2387 18.0998 8.06291 167.482 447.602
-8.28563 21.2245 3.3127 186.562 469.553
-3.55062 23.2384 -0.817545 210.054 485.473
1.73149 23.3926 -4.46411 236.949 491.647
6.88404 22.6897 -0.848793 264.085 485.855
11.3715 20.3405 3.33972 288.31 470.939
14.949 16.9127 8.16987 308.206 449.627
17.1371 12.5913 13.9493 321.271 422.387
17.8173 7.61139 18.7275 326.648 392.414
18.0119 2.22948 20.7818 329.384 363.112
18.178 -3.33321 21.235 331.878 334.561
18.0989 -8.87253 21.8371 333.113 305.9
-16.1429 -14.5757 0.185108 155.975 289.459
-13.9545 -16.7328 -1.58206 167.731 281.055
-11.1696 -17.9838 -2.97194 182.342 277.017
-8.16515 -18.4239 -4.21821 197.867 276.995
-5.21824 -18.1322 -5.45259 212.886 280.643
2.55706 -18.9918 -5.30162 253.291 278.466
5.59381 -19.8169 -4.07469 269.319 273.92
8.78041 -19.866 -2.81513 285.901 273.309
11.8539 -18.9429 -1.41772 301.633 277.435
14.4104 -16.9778 0.37578 314.432 286.26
-1.10598 -12.6456 -4.94344 232.591 309.083
-0.754334 -9.13073 -7.69259 233.147 329.836
-0.398638 -5.65829 -10.6832 233.714 350.627
-0.0468449 -2.19135 -13.6124 234.269 371.326
-3.4701 1.75059 -6.69221 216.096 382.994
-1.73599 2.12138 -7.35904 224.882 386.086
0.0764554 2.14132 -7.97961 234.178 387.378
1.91164 1.82262 -7.38618 243.799 385.695
3.63064 1.17406 -6.69824 252.923 382.211
-11.9808 -9.58922 -0.718836 175.952 316.863
-10.1566 -10.8896 -1.17548 185.702 311.311
-7.91032 -11.0046 -1.47931 197.305 311.72
-5.92536 -10.0592 -1.24651 207.304 316.851
-7.91433 -9.56546 -1.21341 196.896 318.717
-9.98291 -9.29607 -1.09115 186.149 319.332
4.34403 -10.9683 -1.03869 260.606 315.111
6.2045 -12.3161 -1.35921 270.569 309.189
8.49333 -12.5378 -1.07057 282.476 308.451
10.5596 -11.5761 -0.624241 292.91 313.466
8.60196 -10.9491 -0.95808 282.592 316.399
6.46975 -10.8389 -1.05895 271.542 316.423
-7.63106 9.22617 -2.64154 192.838 415.31
-5.2627 7.34446 -4.84706 205.405 408.812
-2.54516 6.05474 -6.52831 219.652 404.862
0.410159 5.90669 -8.18136 234.802 406.727
3.34145 5.59918 -6.64892 250.165 404.447
6.24074 6.48266 -4.90629 265.041 407.96
8.91733 7.93053 -2.57127 278.658 413.64
6.56568 9.72386 -3.89372 265.881 423.386
3.73976 10.8169 -5.10491 250.866 429.333
0.705843 11.1574 -6.31733 234.993 431.415
-2.31119 11.2866 -5.02371 219.497 429.812
-5.1888 10.6354 -3.87072 204.932 424.452
-3.12458 8.23431 -5.11036 216.165 414.226
0.503021 7.80258 -7.56167 234.795 415.693
4.11149 7.67049 -5.23833 253.676 413.676
4.18696 8.4881 -4.62995 253.887 417.196
0.505401 8.69574 -6.59675 234.639 419.201
-3.17368 9.04855 -4.50947 215.733 417.7
3 20 21 23
3 21 22 23
3 0 1 36
3 15 16 45
3 0 17 36
3 16 26 45
3 17 18 37
3 25 26 44
3 17 36 37
3 26 44 45
3 18 19 38
3 24 25 43
3 18 37 38
3 25 43 44
3 19 20 38
3 23 24 43
3 20 21 39
3 22 23 42
3 20 38 39
3 23 42 43
3 21 22 27
3 21 27 39
3 22 27 42
3 27 28 42
3 27 28 39
3 28 42 47
3 28 39 40
3 1 36 41
3 15 45 46
3 1 2 41
3 14 15 46
3 28 29 40
3 28 29 47
3 2 40 41
3 14 46 47
3 2 29 40
3 14 29 47
3 2 3 29
3 13 14 29
3 29 30 31
3 29 30 35
3 3 29 31
3 13 29 35
3 30 32 33
3 30 33 34
3 30 31 32
3 30 34 35
3 3 4 31
3 12 13 35
3 4 5 48
3 11 12 54
3 5 6 48
3 10 11 54
3 6 48 59
3 10 54 55
3 6 7 59
3 9 10 55
3 7 58 59
3 9 55 56
3 8 57 58
3 8 56 57
3 7 8 58
3 8 9 56
3 4 31 48
3 12 35 54
3 31 48 49
3 35 53 54
3 31 49 50
3 35 52 53
3 31 32 50
3 34 35 52
3 32 33 50
3 33 34 52
3 33 50 51
3 33 51 52
3 48 49 60
3 49 60 50
3 50 60 61
3 50 51 61
3 51 52 61
3 61 62 52
3 52 53 62
3 53 54 62
3 54 55 63
3 55 56 63
3 56 63 64
3 56 57 64
3 64 65 57
3 57 58 65
3 58 59 65
3 48 59 65
