ply
format ascii 1.0
element vertex 66
property float x
property float y
property float z
property float u
property float v
element face 91
property list uchar int vertex_indices
end_header
175.271 331.864 0 175.271 331.864
176.619 347.629 0 176.619 347.629
178.835 363.319 0 178.835 363.319
181.863 379.02 0 181.863 379.02
187.049 394.196 0 187.049 394.196
195.943 407.304 0 195.943 407.304
207.542 417.888 0 207.542 417.888
221.082 425.597 0 221.082 425.597
236.293 428.294 0 236.293 428.294
251.94 425.391 0 251.94 425.391
265.708 417.187 0 265.708 417.187
277.502 406.165 0 277.502 406.165
286.748 392.807 0 286.748 392.807
292.317 377.589 0 292.317 377.589
295.374 361.941 0 295.374 361.941
297.321 346.317 0 297.321 346.317
298.272 330.616 0 298.272 330.616
186.886 310.013 0 186.886 310.013
193.955 304.14 0 193.955 304.14
202.968 301.365 0 202.968 301.365
212.519 301.405 0 212.519 301.405
221.834 303.589 0 221.834 303.589
249.369 303.474 0 249.369 303.474
258.502 301.028 0 258.502 301.028
267.976 300.694 0 267.976 300.694
277.052 303.023 0 277.052 303.023
284.41 308.451 0 284.41 308.451
236.247 322.013 0 236.247 322.013
236.276 332.66 0 236.276 332.66
236.295 343.256 0 236.295 343.256
236.312 353.796 0 236.312 353.796
225.08 360.972 0 225.08 360.972
230.711 363.08 0 230.711 363.08
236.707 364.002 0 236.707 364.002
242.605 362.982 0 242.605 362.982
248.124 360.765 0 248.124 360.765
200.196 324.606 0 200.196 324.606
205.942 321.233 0 205.942 321.233
212.739 321.119 0 212.739 321.119
218.632 324.247 0 218.632 324.247
212.52 325.52 0 212.52 325.52
206.235 325.781 0 206.235 325.781
253.467 323.917 0 253.467 323.917
259.21 320.686 0 259.21 320.686
265.987 320.576 0 265.987 320.576
271.813 323.801 0 271.813 323.801
265.843 325.166 0 265.843 325.166
259.579 325.027 0 259.579 325.027
209.523 378.727 0 209.523 378.727
217.784 374.706 0 217.784 374.706
227.157 372.773 0 227.157 372.773
236.693 373.709 0 236.693 373.709
246.239 372.604 0 246.239 372.604
255.635 374.342 0 255.635 374.342
263.915 378.232 0 263.915 378.232
256.739 385.618 0 256.739 385.618
247.305 390.229 0 247.305 390.229
236.812 391.569 0 236.812 391.569
226.386 390.377 0 226.386 390.377
216.883 385.965 0 216.883 385.965
225.202 378.373 0 225.202 378.373
236.763 379.16 0 236.763 379.16
248.33 378.191 0 248.33 378.191
248.88 382.393 0 248.88 382.393
236.814 383.763 0 236.814 383.763
224.772 382.616 0 224.772 382.616
3 20 21 23
3 21 22 23
3 0 1 36
3 15 16 45
3 0 17 36
3 16 26 45
3 17 18 37
3 25 26 44
3 17 36 37
3 26 44 45
3 18 19 38
3 24 25 43
3 18 37 38
3 25 43 44
3 19 20 38
3 23 24 43
3 20 21 39
3 22 23 42
3 20 38 39
3 23 42 43
3 21 22 27
3 21 27 39
3 22 27 42
3 27 28 42
3 27 28 39
3 28 42 47
3 28 39 40
3 1 36 41
3 15 45 46
3 1 2 41
3 14 15 46
3 28 29 40
3 28 29 47
3 2 40 41
3 14 46 47
3 2 29 40
3 14 29 47
3 2 3 29
3 13 14 29
3 29 30 31
3 29 30 35
3 3 29 31
3 13 29 35
3 30 32 33
3 30 33 34
3 30 31 32
3 30 34 35
3 3 4 31
3 12 13 35
3 4 5 48
3 11 12 54
3 5 6 48
3 10 11 54
3 6 48 59
3 10 54 55
3 6 7 59
3 9 10 55
3 7 58 59
3 9 55 56
3 8 57 58
3 8 56 57
3 7 8 58
3 8 9 56
3 4 31 48
3 12 35 54
3 31 48 49
3 35 53 54
3 31 49 50
3 35 52 53
3 31 32 50
3 34 35 52
3 32 33 50
3 33 34 52
3 33 50 51
3 33 51 52
3 48 49 60
3 49 60 50
3 50 60 61
3 50 51 61
3 51 52 61
3 61 62 52
3 52 53 62
3 53 54 62
3 54 55 63
3 55 56 63
3 56 63 64
3 56 57 64
3 64 65 57
3 57 58 65
3 58 59 65
3 48 59 65
