ply
format ascii 1.0
element vertex 66
property float x
property float y
property float z
property float u
property float v
element face 91
property list uchar int vertex_indices
end_header
-20.6484 -5.44798 21.5031 175.271 331.864
-19.8899 -0.350601 20.9156 176.619 347.629
-18.8506 4.71487 20.5098 178.835 363.319
-17.5305 9.67288 18.3884 181.863 379.02
-15.4903 14.2633 13.5015 187.049 394.196
-12.2744 18.0669 7.95216 195.943 407.304
-8.23263 21.0373 3.25806 207.542 417.888
-3.61872 23.0561 -0.935555 221.082 425.597
1.43674 23.4312 -4.60319 236.293 428.294
6.45549 22.3736 -0.870806 251.94 425.391
10.7505 19.6488 3.38784 265.708 417.187
14.3408 16.0668 8.10304 277.502 406.165
17.0446 11.8185 13.6622 286.748 392.807
18.5167 6.99822 18.5448 292.317 377.589
19.1843 1.93867 20.7236 295.374 361.941
19.5062 -3.18812 21.1341 297.321 346.317
19.5004 -8.31421 21.6552 298.272 330.616
-17.0944 -13.9997 0.252074 186.886 310.013
-14.8851 -16.1631 -1.57673 193.955 304.14
-11.9836 -17.3287 -2.97811 202.968 301.365
-8.85186 -17.5764 -4.23359 212.519 301.405
-5.75598 -17.1101 -5.34321 221.834 303.589
3.23542 -17.6995 -5.33657 249.369 303.474
6.15914 -18.6179 -4.16304 258.502 301.028
9.2348 -18.8451 -2.85165 267.976 300.694
12.2323 -18.1844 -1.38821 277.052 303.023
14.7265 -16.4554 0.448146 284.41 308.451
-0.687036 -11.3446 -4.83657 236.247 322.013
-0.43888 -8.02604 -7.80027 236.276 332.66
-0.194467 -4.72808 -10.8385 236.295 343.256
0.0458967 -1.43491 -13.6308 236.312 353.796
-3.54379 1.52133 -6.66882 225.08 360.972
-1.65585 2.05664 -7.41806 230.711 363.08
0.327117 2.1996 -8.11856 236.707 364.002
2.22664 1.78735 -7.39484 242.605 362.982
3.97862 0.991772 -6.66664 248.124 360.765
-12.4483 -9.54634 -0.713851 200.196 324.606
-10.6348 -10.7871 -1.11847 205.942 321.233
-8.41425 -10.9767 -1.40496 212.739 321.119
-6.42983 -10.0568 -1.13868 218.632 324.247
-8.40144 -9.51448 -1.07455 212.52 325.52
-10.4495 -9.30119 -1.0388 206.235 325.781
4.94073 -10.8589 -1.05408 253.467 323.917
6.75476 -12.046 -1.3284 259.21 320.686
8.96321 -12.1999 -1.00663 265.987 320.576
10.9263 -11.2378 -0.564505 271.813 323.801
9.00641 -10.6905 -0.907902 265.843 325.166
6.95825 -10.6129 -0.953661 259.579 325.027
-8.3096 7.8647 -2.60944 209.523 378.727
-5.671 6.26047 -4.84705 217.784 374.706
-2.63248 5.3485 -6.50972 227.157 372.773
0.51603 5.37212 -8.16866 236.693 373.709
3.59616 4.91451 -6.43785 246.239 372.604
6.68396 5.3884 -4.73632 255.635 374.342
9.44474 6.62004 -2.4632 263.915 378.232
7.26009 9.10448 -3.83308 256.739 385.618
4.28155 10.7342 -5.06417 247.305 390.229
0.894087 11.3034 -6.50617 236.812 391.569
-2.5475 11.1985 -5.12417 226.386 390.377
-5.75043 10.0141 -3.88937 216.883 385.965
-3.17059 7.28463 -5.32971 225.202 378.373
0.641864 7.18454 -7.60999 236.763 379.16
4.37908 6.76544 -5.25373 248.33 378.191
4.63542 8.17015 -4.50549 248.88 382.393
0.740018 8.74882 -6.52547 236.814 383.763
-3.23384 8.723 -4.56769 224.772 382.616
3 20 21 23
3 21 22 23
3 0 1 36
3 15 16 45
3 0 17 36
3 16 26 45
3 17 18 37
3 25 26 44
3 17 36 37
3 26 44 45
3 18 19 38
3 24 25 43
3 18 37 38
3 25 43 44
3 19 20 38
3 23 24 43
3 20 21 39
3 22 23 42
3 20 38 39
3 23 42 43
3 21 22 27
3 21 27 39
3 22 27 42
3 27 28 42
3 27 28 39
3 28 42 47
3 28 39 40
3 1 36 41
3 15 45 46
3 1 2 41
3 14 15 46
3 28 29 40
3 28 29 47
3 2 40 41
3 14 46 47
3 2 29 40
3 14 29 47
3 2 3 29
3 13 14 29
3 29 30 31
3 29 30 35
3 3 29 31
3 13 29 35
3 30 32 33
3 30 33 34
3 30 31 32
3 30 34 35
3 3 4 31
3 12 13 35
3 4 5 48
3 11 12 54
3 5 6 48
3 10 11 54
3 6 48 59
3 10 54 55
3 6 7 59
3 9 10 55
3 7 58 59
3 9 55 56
3 8 57 58
3 8 56 57
3 7 8 58
3 8 9 56
3 4 31 48
3 12 35 54
3 31 48 49
3 35 53 54
3 31 49 50
3 35 52 53
3 31 32 50
3 34 35 52
3 32 33 50
3 33 34 52
3 33 50 51
3 33 51 52
3 48 49 60
3 49 60 50
3 50 60 61
3 50 51 61
3 51 52 61
3 61 62 52
3 52 53 62
3 53 54 62
3 54 55 63
3 55 56 63
3 56 63 64
3 56 57 64
3 64 65 57
3 57 58 65
3 58 59 65
3 48 59 65
