ply
format ascii 1.0
element vertex 66
property float x
property float y
property float z
property float u
property float v
element face 91
property list uchar int vertex_indices
end_header
161.089 395.963 0 161.089 395.963
162.223 415.817 0 162.223 415.817
164.349 435.591 0 164.349 435.591
168.112 455.096 0 168.112 455.096
175.173 473.374 0 175.173 473.374
186.847 488.76 0 186.847 488.76
201.64 500.987 0 201.64 500.987
218.178 510.544 0 218.178 510.544
236.934 514.081 0 236.934 514.081
255.83 510.733 0 255.83 510.733
272.404 500.944 0 272.404 500.944
286.84 488.217 0 286.84 488.217
298.207 472.591 0 298.207 472.591
305.468 454.761 0 305.468 454.761
309.484 436.137 0 309.484 436.137
311.745 417.327 0 311.745 417.327
312.794 398.414 0 312.794 398.414
177.003 369.947 0 177.003 369.947
186.685 363.737 0 186.685 363.737
198.294 361.964 0 198.294 361.964
209.99 363.6 0 209.99 363.6
221.13 367.54 0 221.13 367.54
256.351 368.816 0 256.351 368.816
266.905 365.561 0 266.905 365.561
277.947 364.439 0 277.947 364.439
288.832 366.3 0 288.832 366.3
297.83 372.302 0 297.83 372.302
239.342 389.142 0 239.342 389.142
239.296 400.442 0 239.296 400.442
239.213 411.679 0 239.213 411.679
239.102 422.857 0 239.102 422.857
225.286 430 0 225.286 430
231.959 432.501 0 231.959 432.501
239.018 433.725 0 239.018 433.725
245.701 432.769 0 245.701 432.769
252.029 430.5 0 252.029 430.5
191.622 387.876 0 191.622 387.876
198.856 384.997 0 198.856 384.997
206.801 384.881 0 206.801 384.881
213.627 387.903 0 213.627 387.903
206.261 389.134 0 206.261 389.134
198.737 389.191 0 198.737 389.191
262.364 389.189 0 262.364 389.189
269.171 386.654 0 269.171 386.654
276.949 386.959 0 276.949 386.959
283.836 390.17 0 283.836 390.17
276.796 391.171 0 276.796 391.171
269.443 390.724 0 269.443 390.724
205.135 456.373 0 205.135 456.373
214.605 450.425 0 214.605 450.425
226.018 447.055 0 226.018 447.055
238.084 448.118 0 238.084 448.118
249.901 447.522 0 249.901 447.522
260.865 451.282 0 260.865 451.282
269.6 457.753 0 269.6 457.753
262.312 469.134 0 262.312 469.134
251.271 476.907 0 251.271 476.907
237.631 479.096 0 237.631 479.096
223.767 476.328 0 223.767 476.328
212.68 468.04 0 212.68 468.04
223.246 453.966 0 223.246 453.966
237.995 454.48 0 237.995 454.48
252.439 454.554 0 252.439 454.554
253.092 466.132 0 253.092 466.132
237.901 469.058 0 237.901 469.058
222.501 465.543 0 222.501 465.543
3 20 21 23
3 21 22 23
3 0 1 36
3 15 16 45
3 0 17 36
3 16 26 45
3 17 18 37
3 25 26 44
3 17 36 37
3 26 44 45
3 18 19 38
3 24 25 43
3 18 37 38
3 25 43 44
3 19 20 38
3 23 24 43
3 20 21 39
3 22 23 42
3 20 38 39
3 23 42 43
3 21 22 27
3 21 27 39
3 22 27 42
3 27 28 42
3 27 28 39
3 28 42 47
3 28 39 40
3 1 36 41
3 15 45 46
3 1 2 41
3 14 15 46
3 28 29 40
3 28 29 47
3 2 40 41
3 14 46 47
3 2 29 40
3 14 29 47
3 2 3 29
3 13 14 29
3 29 30 31
3 29 30 35
3 3 29 31
3 13 29 35
3 30 32 33
3 30 33 34
3 30 31 32
3 30 34 35
3 3 4 31
3 12 13 35
3 4 5 48
3 11 12 54
3 5 6 48
3 10 11 54
3 6 48 59
3 10 54 55
3 6 7 59
3 9 10 55
3 7 58 59
3 9 55 56
3 8 57 58
3 8 56 57
3 7 8 58
3 8 9 56
3 4 31 48
3 12 35 54
3 31 48 49
3 35 53 54
3 31 49 50
3 35 52 53
3 31 32 50
3 34 35 52
3 32 33 50
3 33 34 52
3 33 50 51
3 33 51 52
3 48 49 60
3 49 60 50
3 50 60 61
3 50 51 61
3 51 52 61
3 61 62 52
3 52 53 62
3 53 54 62
3 54 55 63
3 55 56 63
3 56 63 64
3 56 57 64
3 64 65 57
3 57 58 65
3 58 59 65
3 48 59 65
