ply
format ascii 1.0
element vertex 66
property float x
property float y
property float z
property float u
property float v
element face 91
property list uchar int vertex_indices
end_header
89.7291 231.147 0 89.7291 231.147
91.5151 270.145 0 91.5151 270.145
95.3406 309.037 0 95.3406 309.037
101.116 347.427 0 101.116 347.427
111.94 383.652 0 111.94 383.652
132.335 414.379 0 132.335 414.379
160.069 438.569 0 160.069 438.569
192.232 456.489 0 192.232 456.489
228.463 463.259 0 228.463 463.259
266.221 458.596 0 266.221 458.596
299.757 440.963 0 299.757 440.963
328.272 416.154 0 328.272 416.154
350.082 385.366 0 350.082 385.366
364.021 350.868 0 364.021 350.868
372.868 315.244 0 372.868 315.244
378.965 279.268 0 378.965 279.268
382.141 242.916 0 382.141 242.916
117.19 191.488 0 117.19 191.488
136.268 177.606 0 136.268 177.606
159.971 173.27 0 159.971 173.27
184.033 176.562 0 184.033 176.562
207.076 184.392 0 207.076 184.392
276.675 189.615 0 276.675 189.615
297.901 184.494 0 297.901 184.494
319.877 183.411 0 319.877 183.411
341.155 188.367 0 341.155 188.367
357.837 201.701 0 357.837 201.701
243.255 222.095 0 243.255 222.095
242.391 245.952 0 242.391 245.952
241.436 269.668 0 241.436 269.668
240.384 293.252 0 240.384 293.252
215.843 313.199 0 215.843 313.199
227.412 317.407 0 227.412 317.407
239.644 319.601 0 239.644 319.601
250.851 318.687 0 250.851 318.687
261.496 315.663 0 261.496 315.663
148.172 222.358 0 148.172 222.358
164.005 214.325 0 164.005 214.325
182.18 214.794 0 182.18 214.794
196.797 224.525 0 196.797 224.525
180.438 227.91 0 180.438 227.91
163.481 227.641 0 163.481 227.641
281.529 229.764 0 281.529 229.764
296.483 222.088 0 296.483 222.088
314.162 222.926 0 314.162 222.926
328.477 232.626 0 328.477 232.626
313.193 236.391 0 313.193 236.391
296.816 234.748 0 296.816 234.748
182.695 363.226 0 182.695 363.226
199.152 353.749 0 199.152 353.749
217.211 347.257 0 217.211 347.257
235.856 350.759 0 235.856 350.759
254.075 349.33 0 254.075 349.33
270.306 357.691 0 270.306 357.691
283.876 369.4 0 283.876 369.4
269.992 380.516 0 269.992 380.516
252.544 386.464 0 252.544 386.464
233.639 387.315 0 233.639 387.315
214.39 384.05 0 214.39 384.05
196.913 375.888 0 196.913 375.888
214.969 361.372 0 214.969 361.372
235.22 363.42 0 235.22 363.42
254.717 363.778 0 254.717 363.778
254.698 366.889 0 254.698 366.889
235.133 367.217 0 235.133 367.217
214.936 364.582 0 214.936 364.582
3 20 21 23
3 21 22 23
3 0 1 36
3 15 16 45
3 0 17 36
3 16 26 45
3 17 18 37
3 25 26 44
3 17 36 37
3 26 44 45
3 18 19 38
3 24 25 43
3 18 37 38
3 25 43 44
3 19 20 38
3 23 24 43
3 20 21 39
3 22 23 42
3 20 38 39
3 23 42 43
3 21 22 27
3 21 27 39
3 22 27 42
3 27 28 42
3 27 28 39
3 28 42 47
3 28 39 40
3 1 36 41
3 15 45 46
3 1 2 41
3 14 15 46
3 28 29 40
3 28 29 47
3 2 40 41
3 14 46 47
3 2 29 40
3 14 29 47
3 2 3 29
3 13 14 29
3 29 30 31
3 29 30 35
3 3 29 31
3 13 29 35
3 30 32 33
3 30 33 34
3 30 31 32
3 30 34 35
3 3 4 31
3 12 13 35
3 4 5 48
3 11 12 54
3 5 6 48
3 10 11 54
3 6 48 59
3 10 54 55
3 6 7 59
3 9 10 55
3 7 58 59
3 9 55 56
3 8 57 58
3 8 56 57
3 7 8 58
3 8 9 56
3 4 31 48
3 12 35 54
3 31 48 49
3 35 53 54
3 31 49 50
3 35 52 53
3 31 32 50
3 34 35 52
3 32 33 50
3 33 34 52
3 33 50 51
3 33 51 52
3 48 49 60
3 49 60 50
3 50 60 61
3 50 51 61
3 51 52 61
3 61 62 52
3 52 53 62
3 53 54 62
3 54 55 63
3 55 56 63
3 56 63 64
3 56 57 64
3 64 65 57
3 57 58 65
3 58 59 65
3 48 59 65
