ply
format ascii 1.0
element vertex 66
property float x
property float y
property float z
property float u
property float v
element face 91
property list uchar int vertex_indices
end_header
-20.6547 -5.64822 21.3079 106.032 197.252
-20.0519 -0.423649 20.8425 112.518 217.951
-19.1146 4.7667 20.4846 120.369 238.058
-17.7568 9.73356 18.3869 128.762 259.495
-15.6469 14.1974 13.4633 138.807 282.654
-12.4006 17.9009 7.99404 152.663 303.019
-8.27017 20.7526 3.29433 169.633 319.154
-3.55056 22.6779 -0.880153 188.888 330.737
1.65875 22.9008 -4.53572 209.544 334.525
6.75338 21.9412 -0.807894 230.509 323.902
11.0958 19.3665 3.41769 247.025 305.793
14.7165 15.9593 8.15704 259.239 283.631
17.3322 11.8354 13.6544 267.338 258.68
18.7221 7.12069 18.5937 271.183 233.266
19.3316 2.01325 20.7063 272.599 210.758
19.5157 -3.2566 21.0748 272.752 190.066
19.3623 -8.51341 21.5385 271.051 169.247
-16.9434 -14.0024 0.166523 108.953 188.495
-14.6923 -16.1532 -1.56921 115.166 179.208
-11.7473 -17.1684 -2.95979 126.419 173.823
-8.64008 -17.2567 -4.29633 139.551 173.056
-5.61118 -16.6863 -5.52226 152.938 174.744
3.24342 -17.3161 -5.43542 208.071 166.928
6.14406 -18.3113 -4.17859 219.754 161.254
9.21432 -18.6656 -2.80935 232.185 157.778
12.2557 -18.0793 -1.38764 244.546 158.517
14.7675 -16.2699 0.371491 254.19 164.163
-0.800008 -11.6067 -4.9545 187.367 196.814
-0.571382 -8.59445 -7.76035 189.664 212.742
-0.341526 -5.60559 -10.6633 191.902 228.399
-0.111056 -2.62069 -13.4075 194.097 243.521
-3.34691 0.90089 -6.47077 184.453 251.443
-1.6415 1.2941 -7.26957 190.84 252.64
0.142254 1.35258 -8.01839 197.235 253.114
1.89493 1.04463 -7.21848 203.02 250.726
3.5165 0.412997 -6.40175 208.52 247.626
-12.5316 -9.74495 -0.905324 131.381 203.488
-10.6698 -11.0691 -1.10649 138.97 196.041
-8.3451 -11.2534 -1.2279 149.99 193.998
-6.35058 -10.2247 -0.977391 159.856 198.308
-8.3556 -9.50683 -1.10156 151.179 203.684
-10.5048 -9.27615 -1.09011 141.055 205.632
4.83678 -11.0227 -0.887733 211.876 190.495
6.66716 -12.3254 -1.11779 219.454 183.61
8.99246 -12.4738 -0.968074 230.432 181.952
11.0209 -11.4279 -0.742362 240.058 186.697
9.08377 -10.6753 -0.948989 231.763 191.715
6.92444 -10.5977 -0.987214 221.647 192.896
-6.63855 8.84013 -2.74685 176.916 280.821
-4.73902 6.8457 -4.89305 182.56 275.396
-2.32888 5.4219 -6.54708 189.794 270.429
0.427259 5.35547 -8.22771 199.237 272.222
3.15408 5.03248 -6.48681 208.168 267.693
5.72158 6.09946 -4.80547 217.04 270.302
7.86034 7.80446 -2.63884 224.587 274.03
6.14905 9.90529 -3.93286 219.004 281.591
3.75933 11.3254 -5.28293 211.325 287.372
0.883179 11.8243 -6.67982 202.545 291.344
-2.0422 11.738 -5.34336 193.468 289.844
-4.62825 10.6744 -4.02161 184.724 286.305
-2.38864 7.57584 -5.20395 192.165 277.8
0.55887 7.21472 -7.41824 200.597 278.894
3.50364 7.15671 -5.14457 208.872 275.365
3.65722 8.62822 -4.49552 208.692 275.074
0.689237 9.10764 -6.42523 200.78 278.425
-2.33557 9.05505 -4.5521 192.595 277.392
3 20 21 23
3 21 22 23
3 0 1 36
3 15 16 45
3 0 17 36
3 16 26 45
3 17 18 37
3 25 26 44
3 17 36 37
3 26 44 45
3 18 19 38
3 24 25 43
3 18 37 38
3 25 43 44
3 19 20 38
3 23 24 43
3 20 21 39
3 22 23 42
3 20 38 39
3 23 42 43
3 21 22 27
3 21 27 39
3 22 27 42
3 27 28 42
3 27 28 39
3 28 42 47
3 28 39 40
3 1 36 41
3 15 45 46
3 1 2 41
3 14 15 46
3 28 29 40
3 28 29 47
3 2 40 41
3 14 46 47
3 2 29 40
3 14 29 47
3 2 3 29
3 13 14 29
3 29 30 31
3 29 30 35
3 3 29 31
3 13 29 35
3 30 32 33
3 30 33 34
3 30 31 32
3 30 34 35
3 3 4 31
3 12 13 35
3 4 5 48
3 11 12 54
3 5 6 48
3 10 11 54
3 6 48 59
3 10 54 55
3 6 7 59
3 9 10 55
3 7 58 59
3 9 55 56
3 8 57 58
3 8 56 57
3 7 8 58
3 8 9 56
3 4 31 48
3 12 35 54
3 31 48 49
3 35 53 54
3 31 49 50
3 35 52 53
3 31 32 50
3 34 35 52
3 32 33 50
3 33 34 52
3 33 50 51
3 33 51 52
3 48 49 60
3 49 60 50
3 50 60 61
3 50 51 61
3 51 52 61
3 61 62 52
3 52 53 62
3 53 54 62
3 54 55 63
3 55 56 63
3 56 63 64
3 56 57 64
3 64 65 57
3 57 58 65
3 58 59 65
3 48 59 65
