ply
format ascii 1.0
element vertex 66
property float x
property float y
property float z
property float u
property float v
element face 91
property list uchar int vertex_indices
end_header
183.658 384.726 0 183.658 384.726
185.838 400.431 0 185.838 400.431
189.06 415.971 0 189.06 415.971
192.448 431.259 0 192.448 431.259
196.599 445.682 0 196.599 445.682
203.375 458.266 0 203.375 458.266
212.713 468.67 0 212.713 468.67
224.099 476.484 0 224.099 476.484
237.637 478.582 0 237.637 478.582
253.872 474.854 0 253.872 474.854
267.636 465.597 0 267.636 465.597
279.274 453.739 0 279.274 453.739
288.537 440.109 0 288.537 440.109
294.695 425.428 0 294.695 425.428
297.928 410.403 0 297.928 410.403
299.632 395.294 0 299.632 395.294
300.32 380.138 0 300.32 380.138
183.102 360.44 0 183.102 360.44
190.263 355.143 0 190.263 355.143
199.23 353.558 0 199.23 353.558
208.38 354.714 0 208.38 354.714
217.098 357.93 0 217.098 357.93
242.224 357.689 0 242.224 357.689
251.783 354.203 0 251.783 354.203
261.985 352.689 0 261.985 352.689
272.203 354.041 0 272.203 354.041
280.882 359.199 0 280.882 359.199
230.947 374.039 0 230.947 374.039
230.276 384.7 0 230.276 384.7
229.52 395.302 0 229.52 395.302
228.813 405.857 0 228.813 405.857
221.808 414.136 0 221.808 414.136
226.749 415.756 0 226.749 415.756
231.955 416.259 0 231.955 416.259
237.555 415.347 0 237.555 415.347
242.813 413.325 0 242.813 413.325
194.78 377.6 0 194.78 377.6
201.341 373.425 0 201.341 373.425
209.348 373.506 0 209.348 373.506
216.049 377.786 0 216.049 377.786
208.851 379.502 0 208.851 379.502
201.452 379.859 0 201.452 379.859
248.621 377.142 0 248.621 377.142
254.752 372.653 0 254.752 372.653
262.911 372.077 0 262.911 372.077
269.951 375.85 0 269.951 375.85
263.173 378.385 0 263.173 378.385
255.765 378.43 0 255.765 378.43
211.473 435.591 0 211.473 435.591
216.885 430.382 0 216.885 430.382
224.146 426.826 0 224.146 426.826
232.285 427.135 0 232.285 427.135
242.026 426.144 0 242.026 426.144
251.095 429.037 0 251.095 429.037
258.893 433.811 0 258.893 433.811
253.145 441.913 0 253.145 441.913
244.952 447.805 0 244.952 447.805
234.634 450.001 0 234.634 450.001
225.07 448.616 0 225.07 448.616
217.129 443.296 0 217.129 443.296
222.79 432.587 0 222.79 432.587
232.909 432.152 0 232.909 432.152
245.321 431.692 0 245.321 431.692
246.537 439.274 0 246.537 439.274
234.162 441.82 0 234.162 441.82
223.247 440.18 0 223.247 440.18
3 20 21 23
3 21 22 23
3 0 1 36
3 15 16 45
3 0 17 36
3 16 26 45
3 17 18 37
3 25 26 44
3 17 36 37
3 26 44 45
3 18 19 38
3 24 25 43
3 18 37 38
3 25 43 44
3 19 20 38
3 23 24 43
3 20 21 39
3 22 23 42
3 20 38 39
3 23 42 43
3 21 22 27
3 21 27 39
3 22 27 42
3 27 28 42
3 27 28 39
3 28 42 47
3 28 39 40
3 1 36 41
3 15 45 46
3 1 2 41
3 14 15 46
3 28 29 40
3 28 29 47
3 2 40 41
3 14 46 47
3 2 29 40
3 14 29 47
3 2 3 29
3 13 14 29
3 29 30 31
3 29 30 35
3 3 29 31
3 13 29 35
3 30 32 33
3 30 33 34
3 30 31 32
3 30 34 35
3 3 4 31
3 12 13 35
3 4 5 48
3 11 12 54
3 5 6 48
3 10 11 54
3 6 48 59
3 10 54 55
3 6 7 59
3 9 10 55
3 7 58 59
3 9 55 56
3 8 57 58
3 8 56 57
3 7 8 58
3 8 9 56
3 4 31 48
3 12 35 54
3 31 48 49
3 35 53 54
3 31 49 50
3 35 52 53
3 31 32 50
3 34 35 52
3 32 33 50
3 33 34 52
3 33 50 51
3 33 51 52
3 48 49 60
3 49 60 50
3 50 60 61
3 50 51 61
3 51 52 61
3 61 62 52
3 52 53 62
3 53 54 62
3 54 55 63
3 55 56 63
3 56 63 64
3 56 57 64
3 64 65 57
3 57 58 65
3 58 59 65
3 48 59 65
