ply
format ascii 1.0
element vertex 66
property float x
property float y
property float z
property float u
property float v
element face 91
property list uchar int vertex_indices
end_header
98.962 257.545 0 98.962 257.545
100.834 292.363 0 100.834 292.363
104.766 327.043 0 104.766 327.043
111.301 361.384 0 111.301 361.384
123.36 394.38 0 123.36 394.38
143.115 423.875 0 143.115 423.875
168.578 448.75 0 168.578 448.75
198.669 467.662 0 198.669 467.662
233.556 474.54 0 233.556 474.54
266.972 469.097 0 266.972 469.097
296.097 451.875 0 296.097 451.875
320.669 428.466 0 320.669 428.466
339.155 399.831 0 339.155 399.831
349.775 366.775 0 349.775 366.775
356.041 331.87 0 356.041 331.87
360.641 296.524 0 360.641 296.524
363.36 261.034 0 363.36 261.034
128.903 215.541 0 128.903 215.541
145.586 204.254 0 145.586 204.254
165.603 200.189 0 165.603 200.189
186.05 201.848 0 186.05 201.848
205.479 207.889 0 205.479 207.889
264.935 208.258 0 264.935 208.258
284.53 202.038 0 284.53 202.038
305.026 200.361 0 305.026 200.361
325.027 204.547 0 325.027 204.547
341.522 216.065 0 341.522 216.065
235.022 245.722 0 235.022 245.722
235.488 269.308 0 235.488 269.308
235.983 292.759 0 235.983 292.759
236.46 316.101 0 236.46 316.101
210.941 328.867 0 210.941 328.867
222.581 333.476 0 222.581 333.476
235.034 335.484 0 235.034 335.484
247.527 333.582 0 247.527 333.582
259.27 329.032 0 259.27 329.032
154.848 248.393 0 154.848 248.393
168.793 241.797 0 168.793 241.797
184.484 242.229 0 184.484 242.229
197.604 249.376 0 197.604 249.376
183.237 251.186 0 183.237 251.186
168.685 251.378 0 168.685 251.378
272.212 249.618 0 272.212 249.618
285.636 242.4 0 285.636 242.4
301.347 242.226 0 301.347 242.226
315.295 248.834 0 315.295 248.834
301.438 251.746 0 301.438 251.746
286.755 251.53 0 286.755 251.53
176.355 365.355 0 176.355 365.355
193.996 356.481 0 193.996 356.481
214.461 352.733 0 214.461 352.733
235.318 354.663 0 235.318 354.663
255.602 353.036 0 255.602 353.036
275.573 357.102 0 275.573 357.102
292.638 366.065 0 292.638 366.065
278.58 385.778 0 278.58 385.778
258.548 399.324 0 258.548 399.324
234.482 403.151 0 234.482 403.151
210.111 398.979 0 210.111 398.979
190.164 385.181 0 190.164 385.181
207.393 363.845 0 207.393 363.845
235.064 365.196 0 235.064 365.196
261.918 364.197 0 261.918 364.197
263.164 381.723 0 263.164 381.723
234.522 386.276 0 234.522 386.276
205.398 381.271 0 205.398 381.271
3 20 21 23
3 21 22 23
3 0 1 36
3 15 16 45
3 0 17 36
3 16 26 45
3 17 18 37
3 25 26 44
3 17 36 37
3 26 44 45
3 18 19 38
3 24 25 43
3 18 37 38
3 25 43 44
3 19 20 38
3 23 24 43
3 20 21 39
3 22 23 42
3 20 38 39
3 23 42 43
3 21 22 27
3 21 27 39
3 22 27 42
3 27 28 42
3 27 28 39
3 28 42 47
3 28 39 40
3 1 36 41
3 15 45 46
3 1 2 41
3 14 15 46
3 28 29 40
3 28 29 47
3 2 40 41
3 14 46 47
3 2 29 40
3 14 29 47
3 2 3 29
3 13 14 29
3 29 30 31
3 29 30 35
3 3 29 31
3 13 29 35
3 30 32 33
3 30 33 34
3 30 31 32
3 30 34 35
3 3 4 31
3 12 13 35
3 4 5 48
3 11 12 54
3 5 6 48
3 10 11 54
3 6 48 59
3 10 54 55
3 6 7 59
3 9 10 55
3 7 58 59
3 9 55 56
3 8 57 58
3 8 56 57
3 7 8 58
3 8 9 56
3 4 31 48
3 12 35 54
3 31 48 49
3 35 53 54
3 31 49 50
3 35 52 53
3 31 32 50
3 34 35 52
3 32 33 50
3 33 34 52
3 33 50 51
3 33 51 52
3 48 49 60
3 49 60 50
3 50 60 61
3 50 51 61
3 51 52 61
3 61 62 52
3 52 53 62
3 53 54 62
3 54 55 63
3 55 56 63
3 56 63 64
3 56 57 64
3 64 65 57
3 57 58 65
3 58 59 65
3 48 59 65
