ply
format ascii 1.0
element vertex 66
property float x
property float y
property float z
property float u
property float v
element face 91
property list uchar int vertex_indices
end_header
-20.6547 -5.64822 21.3079 159.9 423.695
-20.0519 -0.423649 20.8425 161.184 444.306
-19.1146 4.7667 20.4846 163.789 464.821
-17.7568 9.73356 18.3869 167.245 484.845
-15.6469 14.1974 13.4633 173.087 503.493
-12.4006 17.9009 7.99404 183.293 519.719
-8.27017 20.7526 3.29433 197.144 533.151
-3.55056 22.6779 -0.880153 213.797 543.27
1.65875 22.9008 -4.53572 233.187 546.75
6.75338 21.9412 -0.807894 253.898 543.992
11.0958 19.3665 3.41769 271.925 534.029
14.7165 15.9593 8.15704 287.372 520.665
17.3322 11.8354 13.6544 299.545 504.572
18.7221 7.12069 18.5937 307.486 486.196
19.3316 2.01325 20.7063 312.338 466.502
19.5157 -3.2566 21.0748 315.71 446.279
19.3623 -8.51341 21.5385 317.521 425.868
-16.9434 -14.0024 0.166523 170.403 386.535
-14.6923 -16.1532 -1.56921 179.503 378.003
-11.7473 -17.1684 -2.95979 191.733 374.908
-8.64008 -17.2567 -4.29633 204.381 375.941
-5.61118 -16.6863 -5.52226 216.401 379.725
3.24342 -17.3161 -5.43542 257.786 380.594
6.14406 -18.3113 -4.17859 269.668 377.158
9.21432 -18.6656 -2.80935 282.187 376.397
12.2557 -18.0793 -1.38764 294.317 379.389
14.7675 -16.2699 0.371491 303.519 387.561
-0.800008 -11.6067 -4.9545 237.263 406.988
-0.571382 -8.59445 -7.76035 236.72 420.836
-0.341526 -5.60559 -10.6633 236.157 434.566
-0.111056 -2.62069 -13.4075 235.589 448.234
-3.34691 0.90089 -6.47077 222.848 460.988
-1.6415 1.2941 -7.26957 229.283 462.793
0.142254 1.35258 -8.01839 235.985 463.582
1.89493 1.04463 -7.21848 242.674 463.099
3.5165 0.412997 -6.40175 249.155 461.565
-12.5316 -9.74495 -0.905324 183.407 409.552
-10.6698 -11.0691 -1.10649 193.115 398.409
-8.3451 -11.2534 -1.2279 207.176 399.865
-6.35058 -10.2247 -0.977391 215.669 413.374
-8.3556 -9.50683 -1.10156 204.808 419.19
-10.5048 -9.27615 -1.09011 192.784 418.743
4.83678 -11.0227 -0.887733 258.363 414.148
6.66716 -12.3254 -1.11779 267.081 400.977
8.99246 -12.4738 -0.968074 281.241 399.88
11.0209 -11.4279 -0.742362 290.646 411.354
9.08377 -10.6753 -0.948989 280.959 420.301
6.92444 -10.5977 -0.987214 268.945 420.317
-6.63855 8.84013 -2.74685 203.395 489.12
-4.73902 6.8457 -4.89305 213.226 483.219
-2.32888 5.4219 -6.54708 224.024 478.994
0.427259 5.35547 -8.22771 235.322 480.029
3.15408 5.03248 -6.48681 246.942 479.488
5.72158 6.09946 -4.80547 257.721 484.157
7.86034 7.80446 -2.63884 267.427 490.534
6.14905 9.90529 -3.93286 259.252 500.145
3.75933 11.3254 -5.28293 247.923 506.447
0.883179 11.8243 -6.67982 234.775 508.041
-2.0422 11.738 -5.34336 221.982 505.824
-4.62825 10.6744 -4.02161 211.064 499.069
-2.38864 7.57584 -5.20395 222.85 486.599
0.55887 7.21472 -7.41824 235.253 487.062
3.50364 7.15671 -5.14457 248.003 487.193
3.65722 8.62822 -4.49552 248.528 495.054
0.689237 9.10764 -6.42523 235.185 496.387
-2.33557 9.05505 -4.5521 222.149 494.492
3 20 21 23
3 21 22 23
3 0 1 36
3 15 16 45
3 0 17 36
3 16 26 45
3 17 18 37
3 25 26 44
3 17 36 37
3 26 44 45
3 18 19 38
3 24 25 43
3 18 37 38
3 25 43 44
3 19 20 38
3 23 24 43
3 20 21 39
3 22 23 42
3 20 38 39
3 23 42 43
3 21 22 27
3 21 27 39
3 22 27 42
3 27 28 42
3 27 28 39
3 28 42 47
3 28 39 40
3 1 36 41
3 15 45 46
3 1 2 41
3 14 15 46
3 28 29 40
3 28 29 47
3 2 40 41
3 14 46 47
3 2 29 40
3 14 29 47
3 2 3 29
3 13 14 29
3 29 30 31
3 29 30 35
3 3 29 31
3 13 29 35
3 30 32 33
3 30 33 34
3 30 31 32
3 30 34 35
3 3 4 31
3 12 13 35
3 4 5 48
3 11 12 54
3 5 6 48
3 10 11 54
3 6 48 59
3 10 54 55
3 6 7 59
3 9 10 55
3 7 58 59
3 9 55 56
3 8 57 58
3 8 56 57
3 7 8 58
3 8 9 56
3 4 31 48
3 12 35 54
3 31 48 49
3 35 53 54
3 31 49 50
3 35 52 53
3 31 32 50
3 34 35 52
3 32 33 50
3 33 34 52
3 33 50 51
3 33 51 52
3 48 49 60
3 49 60 50
3 50 60 61
3 50 51 61
3 51 52 61
3 61 62 52
3 52 53 62
3 53 54 62
3 54 55 63
3 55 56 63
3 56 63 64
3 56 57 64
3 64 65 57
3 57 58 65
3 58 59 65
3 48 59 65
