ply
format ascii 1.0
element vertex 66
property float x
property float y
property float z
property float u
property float v
element face 91
property list uchar int vertex_indices
end_header
-20.6547 -5.64822 21.3079 138.762 278.425
-20.0519 -0.423649 20.8425 141.017 305.914
-19.1146 4.7667 20.4846 144.713 333.268
-17.7568 9.73356 18.3869 150.092 360.896
-15.6469 14.1974 13.4633 158.846 388.27
-12.4006 17.9009 7.99404 173.355 412.659
-8.27017 20.7526 3.29433 192.663 432.646
-3.55056 22.6779 -0.880153 215.46 447.666
1.65875 22.9008 -4.53572 241.617 453.358
6.75338 21.9412 -0.807894 268.43 446.947
11.0958 19.3665 3.41769 291.407 430.805
14.7165 15.9593 8.15704 310.493 409.611
17.3322 11.8354 13.6544 324.843 384.43
18.7221 7.12069 18.5937 333.421 356.906
19.3316 2.01325 20.7063 337.989 329.526
19.5157 -3.2566 21.0748 340.356 302.568
19.3623 -8.51341 21.5385 341.02 275.518
-16.9434 -14.0024 0.166523 153.25 250.61
-14.6923 -16.1532 -1.56921 164.652 240.251
-11.7473 -17.1684 -2.95979 180.209 236.347
-8.64008 -17.2567 -4.29633 196.506 237.707
-5.61118 -16.6863 -5.52226 212.337 242.232
3.24342 -17.3161 -5.43542 263.581 241.626
6.14406 -18.3113 -4.17859 278.629 236.596
9.21432 -18.6656 -2.80935 294.35 234.561
12.2557 -18.0793 -1.38764 309.682 237.267
14.7675 -16.2699 0.371491 321.519 246.348
-0.800008 -11.6067 -4.9545 239.739 269.017
-0.571382 -8.59445 -7.76035 240.083 284.826
-0.341526 -5.60559 -10.6633 240.394 300.575
-0.111056 -2.62069 -13.4075 240.671 316.183
-3.34691 0.90089 -6.47077 222.646 327.59
-1.6415 1.2941 -7.26957 231.822 330.423
0.142254 1.35258 -8.01839 241.383 331.754
1.89493 1.04463 -7.21848 250.573 330.101
3.5165 0.412997 -6.40175 259.313 326.936
-12.5316 -9.74495 -0.905324 174.749 271.581
-10.6698 -11.0691 -1.10649 184.786 264.698
-8.3451 -11.2534 -1.2279 197.308 263.997
-6.35058 -10.2247 -0.977391 207.765 269.708
-8.3556 -9.50683 -1.10156 197.031 273.584
-10.5048 -9.27615 -1.09011 185.47 274.411
4.83678 -11.0227 -0.887733 269.027 268.841
6.66716 -12.3254 -1.11779 279.07 262.808
8.99246 -12.4738 -0.968074 291.54 262.78
11.0209 -11.4279 -0.742362 301.816 269.231
9.08377 -10.6753 -0.948989 291.342 272.613
6.92444 -10.5977 -0.987214 279.832 272.199
-6.63855 8.84013 -2.74685 202.635 370.663
-4.73902 6.8457 -4.89305 212.386 360.365
-2.32888 5.4219 -6.54708 225.731 353.51
0.427259 5.35547 -8.22771 241.078 354.892
3.15408 5.03248 -6.48681 256.303 353.028
5.72158 6.09946 -4.80547 269.751 359.42
7.86034 7.80446 -2.63884 279.576 369.551
6.14905 9.90529 -3.93286 270.754 382.64
3.75933 11.3254 -5.28293 257.711 391.538
0.883179 11.8243 -6.67982 241.686 394.772
-2.0422 11.738 -5.34336 225.629 391.895
-4.62825 10.6744 -4.02161 212.275 383.352
-2.38864 7.57584 -5.20395 224.269 364.458
0.55887 7.21472 -7.41824 241.273 364.58
3.50364 7.15671 -5.14457 258.172 363.992
3.65722 8.62822 -4.49552 258.757 375.599
0.689237 9.10764 -6.42523 241.656 379.603
-2.33557 9.05505 -4.5521 224.332 376.097
3 20 21 23
3 21 22 23
3 0 1 36
3 15 16 45
3 0 17 36
3 16 26 45
3 17 18 37
3 25 26 44
3 17 36 37
3 26 44 45
3 18 19 38
3 24 25 43
3 18 37 38
3 25 43 44
3 19 20 38
3 23 24 43
3 20 21 39
3 22 23 42
3 20 38 39
3 23 42 43
3 21 22 27
3 21 27 39
3 22 27 42
3 27 28 42
3 27 28 39
3 28 42 47
3 28 39 40
3 1 36 41
3 15 45 46
3 1 2 41
3 14 15 46
3 28 29 40
3 28 29 47
3 2 40 41
3 14 46 47
3 2 29 40
3 14 29 47
3 2 3 29
3 13 14 29
3 29 30 31
3 29 30 35
3 3 29 31
3 13 29 35
3 30 32 33
3 30 33 34
3 30 31 32
3 30 34 35
3 3 4 31
3 12 13 35
3 4 5 48
3 11 12 54
3 5 6 48
3 10 11 54
3 6 48 59
3 10 54 55
3 6 7 59
3 9 10 55
3 7 58 59
3 9 55 56
3 8 57 58
3 8 56 57
3 7 8 58
3 8 9 56
3 4 31 48
3 12 35 54
3 31 48 49
3 35 53 54
3 31 49 50
3 35 52 53
3 31 32 50
3 34 35 52
3 32 33 50
3 33 34 52
3 33 50 51
3 33 51 52
3 48 49 60
3 49 60 50
3 50 60 61
3 50 51 61
3 51 52 61
3 61 62 52
3 52 53 62
3 53 54 62
3 54 55 63
3 55 56 63
3 56 63 64
3 56 57 64
3 64 65 57
3 57 58 65
3 58 59 65
3 48 59 65
