ply
format ascii 1.0
element vertex 66
property float x
property float y
property float z
property float u
property float v
element face 91
property list uchar int vertex_indices
end_header
-20.3677 -5.04718 21.3836 147.226 390.911
-19.5095 0.088304 20.8017 148.531 417.416
-18.3077 5.18268 20.4838 151.681 443.708
-16.8723 10.0009 18.4654 155.547 470.137
-14.8443 14.2197 13.4887 161.66 496.323
-11.7786 17.7279 8.02704 173.206 519.988
-7.86998 20.515 3.36921 189.67 539.923
-3.33111 22.3641 -0.899252 209.954 555.26
1.7379 22.3941 -4.43124 234.16 561.278
6.71006 21.5098 -0.748957 260.961 556.883
10.8215 18.8954 3.5431 284.596 542.885
14.1237 15.4512 8.25251 304.764 523.944
16.4611 11.4562 13.7331 320.657 501.068
17.7595 7.02565 18.6221 331.353 475.885
18.4614 2.16813 20.6129 338.244 450.558
18.8989 -2.91374 20.8638 343.307 425.36
18.9646 -7.98088 21.4731 346.619 399.724
-17.3875 -14.4648 0.211296 159.768 362.939
-15.0207 -16.7384 -1.51696 172.29 354.443
-11.9482 -17.8476 -2.89208 187.852 351.871
-8.70926 -17.99 -4.22799 203.736 354.171
-5.54542 -17.4409 -5.46728 218.9 359.787
3.36664 -17.9779 -5.45778 264.006 362.427
6.31337 -18.8925 -4.17009 279.782 358.602
9.42538 -19.164 -2.78035 296.075 357.99
12.5048 -18.5146 -1.35515 311.714 361.907
15.0663 -16.6573 0.384911 324.203 371.264
-0.681361 -11.9467 -4.83885 240.584 389.488
-0.465098 -8.69834 -7.75603 238.855 408.112
-0.251648 -5.48015 -10.7457 237.103 426.642
-0.0409167 -2.25493 -13.4747 235.426 444.995
-3.18005 1.55469 -6.6013 220.025 456.52
-1.52154 1.97739 -7.37962 227.854 460.237
0.229948 2.03616 -8.07777 236.379 462.137
1.92777 1.76592 -7.30904 245.338 461.187
3.47735 1.14732 -6.43684 253.779 458.335
-12.9003 -10.3995 -0.759289 179.765 386.602
-10.9679 -11.6559 -0.960405 190.094 381.673
-8.63547 -11.8442 -1.0994 201.874 382.24
-6.6195 -10.8416 -1.03084 211.488 388.371
-8.69118 -10.2868 -1.09709 200.745 389.945
-10.8615 -10.0564 -1.01863 189.735 389.733
5.20807 -11.6006 -1.03324 271.37 391.657
7.06497 -12.8155 -0.979668 281.388 386.683
9.38205 -12.9303 -0.824538 293.156 387.37
11.4207 -11.9064 -0.636225 302.915 393.524
9.45362 -11.3267 -0.931386 292.603 395.469
7.29677 -11.2909 -1.06738 281.69 394.47
-5.90613 9.56993 -2.8285 203.296 491.69
-4.10484 7.75077 -5.04755 212.551 485.511
-1.98121 6.37094 -6.66542 223.402 481.224
0.411684 6.37714 -8.3944 234.811 484.075
2.7637 6.07914 -6.58593 247.447 482.54
5.0088 7.18953 -4.93802 258.719 488.071
6.96841 8.7993 -2.73761 268.482 495.468
5.3215 10.3797 -3.89317 258.925 503.271
3.17721 11.3416 -5.13913 247.173 507.776
0.766737 11.6358 -6.53596 234.393 508.926
-1.70258 11.6422 -5.22919 222.442 506.432
-4.00422 10.9401 -4.03505 211.68 500.607
-1.82972 8.67227 -5.32039 223.39 491.668
0.547154 8.37252 -7.52167 234.716 493.37
2.91752 8.39234 -5.18551 247.46 493.001
2.88578 8.53541 -4.51941 247.461 493.156
0.569485 8.62319 -6.47527 235.066 493.786
-1.77226 8.81233 -4.6588 223.839 491.866
3 20 21 23
3 21 22 23
3 0 1 36
3 15 16 45
3 0 17 36
3 16 26 45
3 17 18 37
3 25 26 44
3 17 36 37
3 26 44 45
3 18 19 38
3 24 25 43
3 18 37 38
3 25 43 44
3 19 20 38
3 23 24 43
3 20 21 39
3 22 23 42
3 20 38 39
3 23 42 43
3 21 22 27
3 21 27 39
3 22 27 42
3 27 28 42
3 27 28 39
3 28 42 47
3 28 39 40
3 1 36 41
3 15 45 46
3 1 2 41
3 14 15 46
3 28 29 40
3 28 29 47
3 2 40 41
3 14 46 47
3 2 29 40
3 14 29 47
3 2 3 29
3 13 14 29
3 29 30 31
3 29 30 35
3 3 29 31
3 13 29 35
3 30 32 33
3 30 33 34
3 30 31 32
3 30 34 35
3 3 4 31
3 12 13 35
3 4 5 48
3 11 12 54
3 5 6 48
3 10 11 54
3 6 48 59
3 10 54 55
3 6 7 59
3 9 10 55
3 7 58 59
3 9 55 56
3 8 57 58
3 8 56 57
3 7 8 58
3 8 9 56
3 4 31 48
3 12 35 54
3 31 48 49
3 35 53 54
3 31 49 50
3 35 52 53
3 31 32 50
3 34 35 52
3 32 33 50
3 33 34 52
3 33 50 51
3 33 51 52
3 48 49 60
3 49 60 50
3 50 60 61
3 50 51 61
3 51 52 61
3 61 62 52
3 52 53 62
3 53 54 62
3 54 55 63
3 55 56 63
3 56 63 64
3 56 57 64
3 64 65 57
3 57 58 65
3 58 59 65
3 48 59 65
