ply
format ascii 1.0
element vertex 66
property float x
property float y
property float z
property float u
property float v
element face 91
property list uchar int vertex_indices
end_header
-20.0991 -5.31538 21.4629 183.658 384.726
-19.2405 -0.191397 20.9899 185.838 400.431
-18.0329 4.86635 20.4896 189.06 415.971
-16.5442 9.67616 18.364 192.448 431.259
-14.4315 13.9235 13.5544 196.599 445.682
-11.3571 17.4696 8.0449 203.375 458.266
-7.53149 20.3373 3.18246 212.713 468.67
-3.13095 22.3984 -1.00578 224.099 476.484
1.86466 22.6191 -4.51528 237.637 478.582
6.72664 21.6126 -0.828139 253.872 474.854
10.6675 18.8553 3.40475 267.636 465.597
13.7976 15.324 8.30564 279.274 453.739
16.0463 11.2895 13.8147 288.537 440.109
17.3658 6.8584 18.5578 294.695 425.428
18.0856 2.07075 20.6258 297.928 410.403
18.5334 -2.9006 21.0029 299.632 395.294
18.6259 -7.8661 21.5036 300.32 380.138
-17.4465 -15.455 0.373749 183.102 360.44
-14.8641 -17.4329 -1.25187 190.263 355.143
-11.6855 -18.1855 -2.73514 199.23 353.558
-8.44537 -18.0256 -4.13724 208.38 354.714
-5.35418 -17.1706 -5.43769 217.098 357.93
3.00087 -17.4814 -5.51199 242.224 357.689
5.97462 -18.5844 -4.17561 251.783 354.203
9.15772 -19.0326 -2.74959 261.985 352.689
12.3476 -18.5256 -1.24609 272.203 354.041
15.0101 -16.7232 0.493983 280.882 359.199
-0.760853 -11.9139 -4.88621 230.947 374.039
-0.539895 -8.67007 -7.7346 230.276 384.7
-0.327237 -5.45933 -10.7275 229.52 395.302
-0.10968 -2.25641 -13.6384 228.813 405.857
-3.36557 1.23649 -6.72333 221.808 414.136
-1.61787 1.65647 -7.43564 226.749 415.756
0.2019 1.71277 -8.06942 231.955 416.259
1.96587 1.42772 -7.40863 237.555 415.347
3.59432 0.791396 -6.62489 242.813 413.325
-13.3575 -9.98415 -0.595433 194.78 377.6
-11.1526 -11.4542 -0.909267 201.341 373.425
-8.4442 -11.5333 -1.25498 209.348 373.506
-6.22376 -10.1612 -1.08323 216.049 377.786
-8.60308 -9.53261 -1.11249 208.851 379.502
-11.0743 -9.33818 -1.00588 201.452 379.859
4.60783 -10.6747 -1.19282 248.621 377.142
6.63373 -12.2196 -1.25717 254.752 372.653
9.28736 -12.4436 -0.870251 262.911 372.077
11.592 -11.223 -0.509855 269.951 375.85
9.41722 -10.3719 -0.980612 263.173 378.385
6.98082 -10.3086 -1.1537 255.765 378.43
-7.27106 8.82741 -2.66632 211.473 435.591
-5.18821 6.83591 -4.87375 216.885 430.382
-2.55665 5.42649 -6.55955 224.146 426.826
0.409877 5.26814 -8.43343 232.285 427.135
3.36491 5.05264 -6.45458 242.026 426.144
6.15143 6.09971 -4.74695 251.095 429.037
8.46068 7.82516 -2.58405 258.893 433.811
6.77998 10.4153 -3.96969 253.145 441.913
4.25642 12.3121 -5.20238 244.952 447.805
1.02992 12.9922 -6.57296 234.634 450.001
-2.32772 12.7454 -5.31933 225.07 448.616
-5.14756 11.1718 -4.17968 217.129 443.296
-3.16137 7.47228 -5.27222 222.79 432.587
0.553752 6.98225 -7.82375 232.909 432.152
4.3025 6.98742 -5.1574 245.321 431.692
4.64354 9.55168 -4.47139 246.537 439.274
0.828388 10.2989 -6.50671 234.162 441.82
-3.06923 10.0445 -4.6081 223.247 440.18
3 20 21 23
3 21 22 23
3 0 1 36
3 15 16 45
3 0 17 36
3 16 26 45
3 17 18 37
3 25 26 44
3 17 36 37
3 26 44 45
3 18 19 38
3 24 25 43
3 18 37 38
3 25 43 44
3 19 20 38
3 23 24 43
3 20 21 39
3 22 23 42
3 20 38 39
3 23 42 43
3 21 22 27
3 21 27 39
3 22 27 42
3 27 28 42
3 27 28 39
3 28 42 47
3 28 39 40
3 1 36 41
3 15 45 46
3 1 2 41
3 14 15 46
3 28 29 40
3 28 29 47
3 2 40 41
3 14 46 47
3 2 29 40
3 14 29 47
3 2 3 29
3 13 14 29
3 29 30 31
3 29 30 35
3 3 29 31
3 13 29 35
3 30 32 33
3 30 33 34
3 30 31 32
3 30 34 35
3 3 4 31
3 12 13 35
3 4 5 48
3 11 12 54
3 5 6 48
3 10 11 54
3 6 48 59
3 10 54 55
3 6 7 59
3 9 10 55
3 7 58 59
3 9 55 56
3 8 57 58
3 8 56 57
3 7 8 58
3 8 9 56
3 4 31 48
3 12 35 54
3 31 48 49
3 35 53 54
3 31 49 50
3 35 52 53
3 31 32 50
3 34 35 52
3 32 33 50
3 33 34 52
3 33 50 51
3 33 51 52
3 48 49 60
3 49 60 50
3 50 60 61
3 50 51 61
3 51 52 61
3 61 62 52
3 52 53 62
3 53 54 62
3 54 55 63
3 55 56 63
3 56 63 64
3 56 57 64
3 64 65 57
3 57 58 65
3 58 59 65
3 48 59 65
