ply
format ascii 1.0
element vertex 66
property float x
property float y
property float z
property float u
property float v
element face 91
property list uchar int vertex_indices
end_header
159.9 423.695 0 159.9 423.695
161.184 444.306 0 161.184 444.306
163.789 464.821 0 163.789 464.821
167.245 484.845 0 167.245 484.845
173.087 503.493 0 173.087 503.493
183.293 519.719 0 183.293 519.719
197.144 533.151 0 197.144 533.151
213.797 543.27 0 213.797 543.27
233.187 546.75 0 233.187 546.75
253.898 543.992 0 253.898 543.992
271.925 534.029 0 271.925 534.029
287.372 520.665 0 287.372 520.665
299.545 504.572 0 299.545 504.572
307.486 486.196 0 307.486 486.196
312.338 466.502 0 312.338 466.502
315.71 446.279 0 315.71 446.279
317.521 425.868 0 317.521 425.868
170.403 386.535 0 170.403 386.535
179.503 378.003 0 179.503 378.003
191.733 374.908 0 191.733 374.908
204.381 375.941 0 204.381 375.941
216.401 379.725 0 216.401 379.725
257.786 380.594 0 257.786 380.594
269.668 377.158 0 269.668 377.158
282.187 376.397 0 282.187 376.397
294.317 379.389 0 294.317 379.389
303.519 387.561 0 303.519 387.561
237.263 406.988 0 237.263 406.988
236.72 420.836 0 236.72 420.836
236.157 434.566 0 236.157 434.566
235.589 448.234 0 235.589 448.234
222.848 460.988 0 222.848 460.988
229.283 462.793 0 229.283 462.793
235.985 463.582 0 235.985 463.582
242.674 463.099 0 242.674 463.099
249.155 461.565 0 249.155 461.565
183.407 409.552 0 183.407 409.552
193.115 398.409 0 193.115 398.409
207.176 399.865 0 207.176 399.865
215.669 413.374 0 215.669 413.374
204.808 419.19 0 204.808 419.19
192.784 418.743 0 192.784 418.743
258.363 414.148 0 258.363 414.148
267.081 400.977 0 267.081 400.977
281.241 399.88 0 281.241 399.88
290.646 411.354 0 290.646 411.354
280.959 420.301 0 280.959 420.301
268.945 420.317 0 268.945 420.317
203.395 489.12 0 203.395 489.12
213.226 483.219 0 213.226 483.219
224.024 478.994 0 224.024 478.994
235.322 480.029 0 235.322 480.029
246.942 479.488 0 246.942 479.488
257.721 484.157 0 257.721 484.157
267.427 490.534 0 267.427 490.534
259.252 500.145 0 259.252 500.145
247.923 506.447 0 247.923 506.447
234.775 508.041 0 234.775 508.041
221.982 505.824 0 221.982 505.824
211.064 499.069 0 211.064 499.069
222.85 486.599 0 222.85 486.599
235.253 487.062 0 235.253 487.062
248.003 487.193 0 248.003 487.193
248.528 495.054 0 248.528 495.054
235.185 496.387 0 235.185 496.387
222.149 494.492 0 222.149 494.492
3 20 21 23
3 21 22 23
3 0 1 36
3 15 16 45
3 0 17 36
3 16 26 45
3 17 18 37
3 25 26 44
3 17 36 37
3 26 44 45
3 18 19 38
3 24 25 43
3 18 37 38
3 25 43 44
3 19 20 38
3 23 24 43
3 20 21 39
3 22 23 42
3 20 38 39
3 23 42 43
3 21 22 27
3 21 27 39
3 22 27 42
3 27 28 42
3 27 28 39
3 28 42 47
3 28 39 40
3 1 36 41
3 15 45 46
3 1 2 41
3 14 15 46
3 28 29 40
3 28 29 47
3 2 40 41
3 14 46 47
3 2 29 40
3 14 29 47
3 2 3 29
3 13 14 29
3 29 30 31
3 29 30 35
3 3 29 31
3 13 29 35
3 30 32 33
3 30 33 34
3 30 31 32
3 30 34 35
3 3 4 31
3 12 13 35
3 4 5 48
3 11 12 54
3 5 6 48
3 10 11 54
3 6 48 59
3 10 54 55
3 6 7 59
3 9 10 55
3 7 58 59
3 9 55 56
3 8 57 58
3 8 56 57
3 7 8 58
3 8 9 56
3 4 31 48
3 12 35 54
3 31 48 49
3 35 53 54
3 31 49 50
3 35 52 53
3 31 32 50
3 34 35 52
3 32 33 50
3 33 34 52
3 33 50 51
3 33 51 52
3 48 49 60
3 49 60 50
3 50 60 61
3 50 51 61
3 51 52 61
3 61 62 52
3 52 53 62
3 53 54 62
3 54 55 63
3 55 56 63
3 56 63 64
3 56 57 64
3 64 65 57
3 57 58 65
3 58 59 65
3 48 59 65
