ply
format ascii 1.0
element vertex 66
property float x
property float y
property float z
property float u
property float v
element face 91
property list uchar int vertex_indices
end_header
59.209 177.326 0 59.209 177.326
61.6364 201.786 0 61.6364 201.786
65.9212 225.969 0 65.9212 225.969
71.8801 251.544 0 71.8801 251.544
81.2424 278.975 0 81.2424 278.975
95.6973 304.334 0 95.6973 304.334
114.286 325.419 0 114.286 325.419
136.265 341.597 0 136.265 341.597
161.243 348.823 0 161.243 348.823
185.444 340.94 0 185.444 340.94
206.225 324.218 0 206.225 324.218
223.366 302.581 0 223.366 302.581
235.981 276.686 0 235.981 276.686
243.434 248.813 0 243.434 248.813
248.18 222.877 0 248.18 222.877
251.7 198.372 0 251.7 198.372
253.342 173.672 0 253.342 173.672
79.0173 165.188 0 79.0173 165.188
90.5105 157.613 0 90.5105 157.613
105.33 155.117 0 105.33 155.117
120.798 156.939 0 120.798 156.939
135.807 161.529 0 135.807 161.529
181.932 160.66 0 181.932 160.66
196.485 155.407 0 196.485 155.407
211.561 152.909 0 211.561 152.909
226.148 154.664 0 226.148 154.664
237.589 161.607 0 237.589 161.607
159.403 184.978 0 159.403 184.978
160.003 203.235 0 160.003 203.235
160.628 221.498 0 160.628 221.498
161.234 239.504 0 161.234 239.504
144.522 249.593 0 144.522 249.593
152.454 252.57 0 152.454 252.57
160.756 254.129 0 160.756 254.129
168.882 252.234 0 168.882 252.234
176.549 248.942 0 176.549 248.942
97.6935 187.012 0 97.6935 187.012
107.986 179.977 0 107.986 179.977
121.005 179.932 0 121.005 179.932
131.375 186.523 0 131.375 186.523
120.332 190.303 0 120.332 190.303
108.443 190.954 0 108.443 190.954
186.366 185.413 0 186.366 185.413
196.593 178.394 0 196.593 178.394
209.579 177.936 0 209.579 177.936
220.023 184.548 0 220.023 184.548
209.442 188.925 0 209.442 188.925
197.553 188.756 0 197.553 188.756
128.002 282.46 0 128.002 282.46
137.157 276.305 0 137.157 276.305
148.32 271.828 0 148.32 271.828
160.876 274.671 0 160.876 274.671
173.043 271.407 0 173.043 271.407
183.92 275.523 0 183.92 275.523
192.727 281.362 0 192.727 281.362
183.784 289.639 0 183.784 289.639
172.793 295.054 0 172.793 295.054
160.872 297.74 0 160.872 297.74
148.712 295.433 0 148.712 295.433
137.369 290.372 0 137.369 290.372
147.901 280.658 0 147.901 280.658
160.852 282.819 0 160.852 282.819
173.273 280.221 0 173.273 280.221
172.935 281.159 0 172.935 281.159
160.734 283.875 0 160.734 283.875
148.099 281.558 0 148.099 281.558
3 20 21 23
3 21 22 23
3 0 1 36
3 15 16 45
3 0 17 36
3 16 26 45
3 17 18 37
3 25 26 44
3 17 36 37
3 26 44 45
3 18 19 38
3 24 25 43
3 18 37 38
3 25 43 44
3 19 20 38
3 23 24 43
3 20 21 39
3 22 23 42
3 20 38 39
3 23 42 43
3 21 22 27
3 21 27 39
3 22 27 42
3 27 28 42
3 27 28 39
3 28 42 47
3 28 39 40
3 1 36 41
3 15 45 46
3 1 2 41
3 14 15 46
3 28 29 40
3 28 29 47
3 2 40 41
3 14 46 47
3 2 29 40
3 14 29 47
3 2 3 29
3 13 14 29
3 29 30 31
3 29 30 35
3 3 29 31
3 13 29 35
3 30 32 33
3 30 33 34
3 30 31 32
3 30 34 35
3 3 4 31
3 12 13 35
3 4 5 48
3 11 12 54
3 5 6 48
3 10 11 54
3 6 48 59
3 10 54 55
3 6 7 59
3 9 10 55
3 7 58 59
3 9 55 56
3 8 57 58
3 8 56 57
3 7 8 58
3 8 9 56
3 4 31 48
3 12 35 54
3 31 48 49
3 35 53 54
3 31 49 50
3 35 52 53
3 31 32 50
3 34 35 52
3 32 33 50
3 33 34 52
3 33 50 51
3 33 51 52
3 48 49 60
3 49 60 50
3 50 60 61
3 50 51 61
3 51 52 61
3 61 62 52
3 52 53 62
3 53 54 62
3 54 55 63
3 55 56 63
3 56 63 64
3 56 57 64
3 64 65 57
3 57 58 65
3 58 59 65
3 48 59 65
