ply
format ascii 1.0
element vertex 66
property float x
property float y
property float z
property float u
property float v
element face 91
property list uchar int vertex_indices
end_header
-21.0902 -5.24569 21.3634 127.981 276.712
-20.2625 -0.117106 20.902 129.946 303.154
-19.0698 4.945 20.4128 133.801 329.435
-17.5141 9.85989 18.3885 140.002 356.453
-15.279 14.3365 13.3301 150.719 384.172
-12.0262 18.0729 7.92107 167.039 408.898
-8.05431 21.0804 3.35911 187.103 429.532
-3.51459 23.1641 -0.946704 210.401 445.545
1.53003 23.5514 -4.56956 236.85 452.672
6.60823 22.4479 -0.737485 262.032 445.898
10.8527 19.6245 3.56151 283.644 429.761
14.3081 15.8945 8.13769 301.593 408.519
16.9193 11.578 13.5386 315.294 383.281
18.4732 6.79883 18.5282 323.961 355.648
19.3102 1.77223 20.5088 329.963 329.083
19.7281 -3.32616 20.9283 334.316 303.336
19.7185 -8.43168 21.3751 336.496 277.355
-17.0995 -14.4599 0.213243 158.507 250.426
-14.7566 -16.4835 -1.56525 171.835 242.774
-11.7664 -17.4254 -2.92349 187.828 240.444
-8.6152 -17.4699 -4.21883 204.205 242.624
-5.52607 -16.8635 -5.37755 219.929 247.923
3.30484 -17.3611 -5.41199 264.973 249.056
6.16187 -18.3045 -4.20009 279.558 244.444
9.16627 -18.6431 -2.86354 294.577 242.816
12.1321 -18.1428 -1.44917 308.991 245.31
14.6291 -16.5364 0.366884 320.401 252.809
-0.566314 -11.5489 -4.80022 242.476 276.083
-0.336208 -8.48868 -7.73711 243.068 294.053
-0.112601 -5.44518 -10.723 243.649 311.979
0.103171 -2.40677 -13.4739 244.126 329.673
-3.05196 1.44657 -6.6425 224.393 341.8
-1.35814 1.8558 -7.3376 232.996 345.141
0.411308 1.95192 -8.01152 242.121 346.926
2.08631 1.64576 -7.2415 250.541 345.409
3.62815 1.03453 -6.50553 258.436 342.337
-12.6047 -10.0232 -0.810545 179.557 275.38
-10.6894 -11.357 -1.11538 189.977 269.738
-8.30979 -11.5553 -1.23379 202.175 269.815
-6.2477 -10.505 -0.952908 212.073 275.677
-8.3218 -9.81763 -1.02769 201.254 278.342
-10.5244 -9.58749 -0.993646 189.963 278.569
4.68518 -11.1394 -0.889739 267.817 276.896
6.5679 -12.4109 -1.14854 278.029 271.514
8.92468 -12.5472 -1.04162 290.019 271.698
10.9564 -11.4583 -0.753427 299.743 277.734
8.97577 -10.7643 -0.924917 289.422 280.554
6.79251 -10.7261 -0.96209 278.338 279.889
-6.34429 8.97833 -2.69974 203.09 374.804
-4.57393 6.96919 -4.98678 213.651 367.43
-2.25037 5.53452 -6.61372 226.565 362.591
0.454038 5.5656 -8.225 240.731 365.241
3.11232 5.21901 -6.50325 253.888 363.099
5.53575 6.36951 -4.84316 265.179 368.418
7.44038 8.19155 -2.53725 273.345 376.335
5.63462 9.78927 -3.77728 263.799 384.679
3.33692 10.7674 -5.05619 252.055 389.751
0.768505 11.1193 -6.52949 239.281 391.741
-1.83827 11.0467 -5.1844 225.705 389.153
-4.27503 10.3344 -3.92713 213.313 383.504
-2.2447 7.7157 -5.28555 225.209 372.379
0.573392 7.49456 -7.37118 240.204 374.22
3.35188 7.41048 -5.08598 253.688 372.956
3.36682 8.14645 -4.45213 253.244 376.104
0.634102 8.42484 -6.53461 239.844 378.185
-2.15383 8.45436 -4.63146 225.143 375.553
3 20 21 23
3 21 22 23
3 0 1 36
3 15 16 45
3 0 17 36
3 16 26 45
3 17 18 37
3 25 26 44
3 17 36 37
3 26 44 45
3 18 19 38
3 24 25 43
3 18 37 38
3 25 43 44
3 19 20 38
3 23 24 43
3 20 21 39
3 22 23 42
3 20 38 39
3 23 42 43
3 21 22 27
3 21 27 39
3 22 27 42
3 27 28 42
3 27 28 39
3 28 42 47
3 28 39 40
3 1 36 41
3 15 45 46
3 1 2 41
3 14 15 46
3 28 29 40
3 28 29 47
3 2 40 41
3 14 46 47
3 2 29 40
3 14 29 47
3 2 3 29
3 13 14 29
3 29 30 31
3 29 30 35
3 3 29 31
3 13 29 35
3 30 32 33
3 30 33 34
3 30 31 32
3 30 34 35
3 3 4 31
3 12 13 35
3 4 5 48
3 11 12 54
3 5 6 48
3 10 11 54
3 6 48 59
3 10 54 55
3 6 7 59
3 9 10 55
3 7 58 59
3 9 55 56
3 8 57 58
3 8 56 57
3 7 8 58
3 8 9 56
3 4 31 48
3 12 35 54
3 31 48 49
3 35 53 54
3 31 49 50
3 35 52 53
3 31 32 50
3 34 35 52
3 32 33 50
3 33 34 52
3 33 50 51
3 33 51 52
3 48 49 60
3 49 60 50
3 50 60 61
3 50 51 61
3 51 52 61
3 61 62 52
3 52 53 62
3 53 54 62
3 54 55 63
3 55 56 63
3 56 63 64
3 56 57 64
3 64 65 57
3 57 58 65
3 58 59 65
3 48 59 65
