ply
format ascii 1.0
element vertex 66
property float x
property float y
property float z
property float u
property float v
element face 91
property list uchar int vertex_indices
end_header
-20.6547 -5.64822 21.3079 98.962 257.545
-20.0519 -0.423649 20.8425 100.834 292.363
-19.1146 4.7667 20.4846 104.766 327.043
-17.7568 9.73356 18.3869 111.301 361.384
-15.6469 14.1974 13.4633 123.36 394.38
-12.4006 17.9009 7.99404 143.115 423.875
-8.27017 20.7526 3.29433 168.578 448.75
-3.55056 22.6779 -0.880153 198.669 467.662
1.65875 22.9008 -4.53572 233.556 474.54
6.75338 21.9412 -0.807894 266.972 469.097
11.0958 19.3665 3.41769 296.097 451.875
14.7165 15.9593 8.15704 320.669 428.466
17.3322 11.8354 13.6544 339.155 399.831
18.7221 7.12069 18.5937 349.775 366.775
19.3316 2.01325 20.7063 356.041 331.87
19.5157 -3.2566 21.0748 360.641 296.524
19.3623 -8.51341 21.5385 363.36 261.034
-16.9434 -14.0024 0.166523 128.903 215.541
-14.6923 -16.1532 -1.56921 145.586 204.254
-11.7473 -17.1684 -2.95979 165.603 200.189
-8.64008 -17.2567 -4.29633 186.05 201.848
-5.61118 -16.6863 -5.52226 205.479 207.889
3.24342 -17.3161 -5.43542 264.935 208.258
6.14406 -18.3113 -4.17859 284.53 202.038
9.21432 -18.6656 -2.80935 305.026 200.361
12.2557 -18.0793 -1.38764 325.027 204.547
14.7675 -16.2699 0.371491 341.522 216.065
-0.800008 -11.6067 -4.9545 235.022 245.722
-0.571382 -8.59445 -7.76035 235.488 269.308
-0.341526 -5.60559 -10.6633 235.983 292.759
-0.111056 -2.62069 -13.4075 236.46 316.101
-3.34691 0.90089 -6.47077 210.941 328.867
-1.6415 1.2941 -7.26957 222.581 333.476
0.142254 1.35258 -8.01839 235.034 335.484
1.89493 1.04463 -7.21848 247.527 333.582
3.5165 0.412997 -6.40175 259.27 329.032
-12.5316 -9.74495 -0.905324 154.848 248.393
-10.6698 -11.0691 -1.10649 168.793 241.797
-8.3451 -11.2534 -1.2279 184.484 242.229
-6.35058 -10.2247 -0.977391 197.604 249.376
-8.3556 -9.50683 -1.10156 183.237 251.186
-10.5048 -9.27615 -1.09011 168.685 251.378
4.83678 -11.0227 -0.887733 272.212 249.618
6.66716 -12.3254 -1.11779 285.636 242.4
8.99246 -12.4738 -0.968074 301.347 242.226
11.0209 -11.4279 -0.742362 315.295 248.834
9.08377 -10.6753 -0.948989 301.438 251.746
6.92444 -10.5977 -0.987214 286.755 251.53
-6.63855 8.84013 -2.74685 176.355 365.355
-4.73902 6.8457 -4.89305 193.996 356.481
-2.32888 5.4219 -6.54708 214.461 352.733
0.427259 5.35547 -8.22771 235.318 354.663
3.15408 5.03248 -6.48681 255.602 353.036
5.72158 6.09946 -4.80547 275.573 357.102
7.86034 7.80446 -2.63884 292.638 366.065
6.14905 9.90529 -3.93286 278.58 385.778
3.75933 11.3254 -5.28293 258.548 399.324
0.883179 11.8243 -6.67982 234.482 403.151
-2.0422 11.738 -5.34336 210.111 398.979
-4.62825 10.6744 -4.02161 190.164 385.181
-2.38864 7.57584 -5.20395 207.393 363.845
0.55887 7.21472 -7.41824 235.064 365.196
3.50364 7.15671 -5.14457 261.918 364.197
3.65722 8.62822 -4.49552 263.164 381.723
0.689237 9.10764 -6.42523 234.522 386.276
-2.33557 9.05505 -4.5521 205.398 381.271
3 20 21 23
3 21 22 23
3 0 1 36
3 15 16 45
3 0 17 36
3 16 26 45
3 17 18 37
3 25 26 44
3 17 36 37
3 26 44 45
3 18 19 38
3 24 25 43
3 18 37 38
3 25 43 44
3 19 20 38
3 23 24 43
3 20 21 39
3 22 23 42
3 20 38 39
3 23 42 43
3 21 22 27
3 21 27 39
3 22 27 42
3 27 28 42
3 27 28 39
3 28 42 47
3 28 39 40
3 1 36 41
3 15 45 46
3 1 2 41
3 14 15 46
3 28 29 40
3 28 29 47
3 2 40 41
3 14 46 47
3 2 29 40
3 14 29 47
3 2 3 29
3 13 14 29
3 29 30 31
3 29 30 35
3 3 29 31
3 13 29 35
3 30 32 33
3 30 33 34
3 30 31 32
3 30 34 35
3 3 4 31
3 12 13 35
3 4 5 48
3 11 12 54
3 5 6 48
3 10 11 54
3 6 48 59
3 10 54 55
3 6 7 59
3 9 10 55
3 7 58 59
3 9 55 56
3 8 57 58
3 8 56 57
3 7 8 58
3 8 9 56
3 4 31 48
3 12 35 54
3 31 48 49
3 35 53 54
3 31 49 50
3 35 52 53
3 31 32 50
3 34 35 52
3 32 33 50
3 33 34 52
3 33 50 51
3 33 51 52
3 48 49 60
3 49 60 50
3 50 60 61
3 50 51 61
3 51 52 61
3 61 62 52
3 52 53 62
3 53 54 62
3 54 55 63
3 55 56 63
3 56 63 64
3 56 57 64
3 64 65 57
3 57 58 65
3 58 59 65
3 48 59 65
