ply
format ascii 1.0
element vertex 66
property float x
property float y
property float z
property float u
property float v
element face 91
property list uchar int vertex_indices
end_header
-19.8977 -5.90943 21.4047 138.762 278.425
-19.2032 -0.707564 21.0241 141.017 305.914
-18.2356 4.45286 20.6262 144.713 333.268
-16.9334 9.47124 18.4359 150.092 360.896
-14.9742 14.1405 13.5545 158.846 388.27
-11.9434 18.1218 8.05863 173.355 412.659
-8.04484 21.2832 3.26293 192.663 432.646
-3.53307 23.5211 -0.921227 215.46 447.666
1.52705 23.9851 -4.65758 241.617 453.358
6.54956 22.8742 -0.867375 268.43 446.947
10.7458 19.9812 3.3577 291.407 430.805
14.1488 16.2178 8.17716 310.493 409.611
16.6074 11.806 13.6846 324.843 384.43
17.9483 6.93901 18.5619 333.421 356.906
18.5431 1.87283 20.7639 337.989 329.526
18.7342 -3.27293 21.14 340.356 302.568
18.6002 -8.42212 21.4911 341.02 275.518
-17.2715 -13.4837 0.177695 153.25 250.61
-15.1876 -15.7525 -1.58445 164.652 240.251
-12.2528 -16.7922 -3.00769 180.209 236.347
-9.12673 -16.8298 -4.41182 196.506 237.707
-6.0603 -16.2394 -5.63918 212.337 242.232
3.69495 -16.8546 -5.65252 263.581 241.626
6.50514 -17.8346 -4.35397 278.629 236.596
9.47116 -18.2324 -2.90234 294.35 234.561
12.4082 -17.7159 -1.4164 309.682 237.267
14.7384 -15.9124 0.396719 321.519 246.348
-0.588998 -11.3141 -4.98746 239.739 269.017
-0.354916 -8.57278 -7.81936 240.083 284.826
-0.127589 -5.84438 -10.6679 240.394 300.575
0.0908019 -3.1241 -13.3284 240.671 316.183
-3.27771 -0.0625746 -6.25462 222.646 327.59
-1.49686 0.295715 -7.20914 231.822 330.423
0.34277 0.366246 -8.12844 241.383 331.754
2.07164 0.0529594 -7.19999 250.573 330.101
3.70031 -0.542626 -6.24137 259.313 326.936
-12.9692 -9.7876 -0.918454 174.749 271.581
-11.1223 -11.2169 -1.06421 184.786 264.698
-8.7428 -11.4865 -1.20279 197.308 263.997
-6.69762 -10.4758 -1.00902 207.765 269.708
-8.7048 -9.63557 -1.06902 197.031 273.584
-10.8994 -9.36111 -1.03062 185.47 274.411
4.96253 -11.2255 -0.895787 269.027 268.841
6.81938 -12.5009 -1.12679 279.07 262.808
9.19352 -12.6136 -0.988453 291.54 262.78
11.2116 -11.4626 -0.827032 301.816 269.231
9.2494 -10.7238 -0.931309 291.342 272.613
7.05304 -10.6934 -0.952143 279.832 272.199
-6.69988 8.72458 -2.75159 202.635 370.663
-4.92784 6.44966 -4.85487 212.386 360.365
-2.44103 4.84556 -6.4894 225.731 353.51
0.506059 4.7921 -8.18844 241.078 354.892
3.37737 4.45964 -6.45543 256.303 353.028
5.98967 5.71835 -4.7874 269.751 359.42
7.94465 7.77452 -2.6488 279.576 369.551
6.39763 10.231 -4.00302 270.754 382.64
4.00687 11.9224 -5.39672 257.711 391.538
0.994443 12.5494 -6.88303 241.686 394.772
-2.10059 12.3001 -5.41956 225.629 391.895
-4.73444 10.932 -4.03669 212.275 383.352
-2.62314 7.08461 -5.18762 224.269 364.458
0.630873 6.72174 -7.41236 241.273 364.58
3.82975 6.67523 -5.09618 258.172 363.992
4.04809 8.95502 -4.45481 258.757 375.599
0.840104 9.70654 -6.27483 241.656 379.603
-2.50419 9.37919 -4.51006 224.332 376.097
3 20 21 23
3 21 22 23
3 0 1 36
3 15 16 45
3 0 17 36
3 16 26 45
3 17 18 37
3 25 26 44
3 17 36 37
3 26 44 45
3 18 19 38
3 24 25 43
3 18 37 38
3 25 43 44
3 19 20 38
3 23 24 43
3 20 21 39
3 22 23 42
3 20 38 39
3 23 42 43
3 21 22 27
3 21 27 39
3 22 27 42
3 27 28 42
3 27 28 39
3 28 42 47
3 28 39 40
3 1 36 41
3 15 45 46
3 1 2 41
3 14 15 46
3 28 29 40
3 28 29 47
3 2 40 41
3 14 46 47
3 2 29 40
3 14 29 47
3 2 3 29
3 13 14 29
3 29 30 31
3 29 30 35
3 3 29 31
3 13 29 35
3 30 32 33
3 30 33 34
3 30 31 32
3 30 34 35
3 3 4 31
3 12 13 35
3 4 5 48
3 11 12 54
3 5 6 48
3 10 11 54
3 6 48 59
3 10 54 55
3 6 7 59
3 9 10 55
3 7 58 59
3 9 55 56
3 8 57 58
3 8 56 57
3 7 8 58
3 8 9 56
3 4 31 48
3 12 35 54
3 31 48 49
3 35 53 54
3 31 49 50
3 35 52 53
3 31 32 50
3 34 35 52
3 32 33 50
3 33 34 52
3 33 50 51
3 33 51 52
3 48 49 60
3 49 60 50
3 50 60 61
3 50 51 61
3 51 52 61
3 61 62 52
3 52 53 62
3 53 54 62
3 54 55 63
3 55 56 63
3 56 63 64
3 56 57 64
3 64 65 57
3 57 58 65
3 58 59 65
3 48 59 65
