ply
format ascii 1.0
element vertex 66
property float x
property float y
property float z
property float u
property float v
element face 91
property list uchar int vertex_indices
end_header
173.47 372.718 0 173.47 372.718
174.559 390.37 0 174.559 390.37
176.5 407.925 0 176.5 407.925
179.034 425.804 0 179.034 425.804
183.635 443.453 0 183.635 443.453
192.376 458.81 0 192.376 458.81
204.233 471.215 0 204.233 471.215
218.131 480.593 0 218.131 480.593
233.973 484.655 0 233.973 484.655
251.306 480.729 0 251.306 480.729
266.437 470.699 0 266.437 470.699
279.422 457.565 0 279.422 457.565
289.893 442.075 0 289.893 442.075
296.963 425.265 0 296.963 425.265
301.154 408.685 0 301.154 408.685
303.867 392.525 0 303.867 392.525
305.423 376.175 0 305.423 376.175
183.235 356.173 0 183.235 356.173
191.594 350.815 0 191.594 350.815
201.85 349.25 0 201.85 349.25
212.342 350.818 0 212.342 350.818
222.389 354.555 0 222.389 354.555
253.572 356.551 0 253.572 356.551
263.556 353.987 0 263.556 353.987
273.899 353.454 0 273.899 353.454
283.778 355.826 0 283.778 355.826
291.515 361.701 0 291.515 361.701
238.182 373.421 0 238.182 373.421
237.385 385.652 0 237.385 385.652
236.532 397.836 0 236.532 397.836
235.695 409.897 0 235.695 409.897
224.311 413.807 0 224.311 413.807
230.258 416.629 0 230.258 416.629
236.65 418.143 0 236.65 418.143
242.856 417.13 0 242.856 417.13
248.687 414.768 0 248.687 414.768
195.493 371.931 0 195.493 371.931
202.678 368.399 0 202.678 368.399
210.924 368.855 0 210.924 368.855
217.578 373.323 0 217.578 373.323
210.072 374.454 0 210.072 374.454
202.45 374.229 0 202.45 374.229
257.332 375.377 0 257.332 375.377
264.005 371.777 0 264.005 371.777
272.087 371.831 0 272.087 371.831
278.756 375.99 0 278.756 375.99
271.765 377.644 0 271.765 377.644
264.386 377.098 0 264.386 377.098
207.214 431.783 0 207.214 431.783
215.575 427.504 0 215.575 427.504
225.632 425.625 0 225.632 425.625
235.986 427.3 0 235.986 427.3
246.687 426.302 0 246.687 426.302
256.741 428.763 0 256.741 428.763
264.813 433.793 0 264.813 433.793
257.756 443.327 0 257.756 443.327
247.736 449.85 0 247.736 449.85
235.71 451.827 0 235.71 451.827
223.871 449.07 0 223.871 449.07
214.1 441.873 0 214.1 441.873
223.284 430.999 0 223.284 430.999
236.027 432.618 0 236.027 432.618
249.239 431.867 0 249.239 431.867
249.885 440.702 0 249.885 440.702
236.075 443.242 0 236.075 443.242
222.655 439.878 0 222.655 439.878
3 20 21 23
3 21 22 23
3 0 1 36
3 15 16 45
3 0 17 36
3 16 26 45
3 17 18 37
3 25 26 44
3 17 36 37
3 26 44 45
3 18 19 38
3 24 25 43
3 18 37 38
3 25 43 44
3 19 20 38
3 23 24 43
3 20 21 39
3 22 23 42
3 20 38 39
3 23 42 43
3 21 22 27
3 21 27 39
3 22 27 42
3 27 28 42
3 27 28 39
3 28 42 47
3 28 39 40
3 1 36 41
3 15 45 46
3 1 2 41
3 14 15 46
3 28 29 40
3 28 29 47
3 2 40 41
3 14 46 47
3 2 29 40
3 14 29 47
3 2 3 29
3 13 14 29
3 29 30 31
3 29 30 35
3 3 29 31
3 13 29 35
3 30 32 33
3 30 33 34
3 30 31 32
3 30 34 35
3 3 4 31
3 12 13 35
3 4 5 48
3 11 12 54
3 5 6 48
3 10 11 54
3 6 48 59
3 10 54 55
3 6 7 59
3 9 10 55
3 7 58 59
3 9 55 56
3 8 57 58
3 8 56 57
3 7 8 58
3 8 9 56
3 4 31 48
3 12 35 54
3 31 48 49
3 35 53 54
3 31 49 50
3 35 52 53
3 31 32 50
3 34 35 52
3 32 33 50
3 33 34 52
3 33 50 51
3 33 51 52
3 48 49 60
3 49 60 50
3 50 60 61
3 50 51 61
3 51 52 61
3 61 62 52
3 52 53 62
3 53 54 62
3 54 55 63
3 55 56 63
3 56 63 64
3 56 57 64
3 64 65 57
3 57 58 65
3 58 59 65
3 48 59 65
