ply
format ascii 1.0
element vertex 66
property float x
property float y
property float z
property float u
property float v
element face 91
property list uchar int vertex_indices
end_header
-20.377 -5.54339 21.6269 175.281 367.005
-19.6792 -0.37104 21.1048 175.92 384.254
-18.7291 4.77094 20.6524 177.404 401.452
-17.4569 9.75676 18.3751 179.764 419.115
-15.4501 14.304 13.548 184.348 436.806
-12.2704 18.0035 7.98773 192.943 452.472
-8.23975 20.8043 3.09806 204.686 465.177
-3.68013 22.7362 -1.00353 218.526 474.859
1.31691 23.0902 -4.70744 234.332 479.374
6.32232 21.9599 -0.855205 251.562 475.481
10.5431 19.1444 3.33213 266.778 465.71
14.0905 15.5754 8.22611 280.106 452.944
16.7841 11.3657 13.7457 290.91 437.527
18.3449 6.63645 18.5272 298.068 420.413
19.0453 1.66161 20.8514 302.175 403.396
19.2993 -3.41662 21.2369 304.61 386.823
19.2244 -8.49434 21.6404 305.968 370.138
-17.353 -13.8921 0.285132 185.086 351.056
-15.0423 -16.1305 -1.45361 193.127 345.366
-11.9769 -17.1888 -2.89507 203.317 343.603
-8.72671 -17.2392 -4.2283 213.818 345.117
-5.56183 -16.5523 -5.42327 223.831 348.93
3.25772 -17.0352 -5.53685 252.868 350.248
6.2337 -18.1052 -4.27117 263.106 347.131
9.40699 -18.4714 -2.8662 273.793 346.293
12.5325 -17.8358 -1.33952 284.031 348.631
15.0607 -15.9334 0.450443 291.958 354.76
-0.629384 -11.1879 -4.92174 238.416 367.673
-0.438683 -8.07357 -7.7955 237.73 379.203
-0.256619 -4.98168 -10.7745 237.009 390.708
-0.0765893 -1.89979 -13.6188 236.302 402.116
-3.5136 0.644085 -6.53208 225.143 405.89
-1.66614 1.10961 -7.36111 230.952 408.388
0.253585 1.22263 -8.13162 237.112 409.737
2.06517 0.864814 -7.37282 243.253 408.797
3.7609 0.159795 -6.58149 249.125 406.678
-13.1307 -9.19826 -0.683635 197.366 368.097
-11.0864 -10.595 -1.0318 204.45 364.389
-8.56051 -10.7732 -1.39749 212.737 364.795
-6.39727 -9.64315 -1.14176 219.512 369.033
-8.60957 -8.97476 -1.11465 212.061 370.478
-10.9235 -8.76229 -1.05907 204.42 370.398
4.98509 -10.3641 -1.18453 257.03 370.368
6.9407 -11.7173 -1.40325 263.826 366.711
9.42306 -11.9016 -0.968023 272.072 366.703
11.5936 -10.7824 -0.555247 278.894 370.833
9.50421 -10.0595 -0.976844 271.773 372.708
7.21642 -9.99375 -1.07043 264.243 372.231
-8.57352 7.5974 -2.65346 206.916 424.972
-6.06567 5.61939 -4.76827 215.477 420.368
-2.92799 4.42175 -6.43232 225.918 418.283
0.459809 4.28436 -8.21858 236.84 419.775
3.7968 3.95602 -6.32649 248.113 418.88
7.01905 4.68653 -4.61858 258.662 421.471
9.68154 6.32012 -2.48052 267.154 426.606
7.80675 9.55117 -3.95902 259.837 437.188
4.8572 11.9228 -5.26465 249.282 444.555
1.06348 12.777 -6.76545 236.401 446.822
-2.846 12.4527 -5.36463 223.863 443.849
-6.16504 10.5395 -4.07053 213.732 435.962
-3.74381 6.33867 -5.27552 222.802 423.688
0.600163 6.00508 -7.74196 236.833 425.174
4.90166 5.74921 -5.16808 251.329 424.5
5.39694 9.12307 -4.39742 252.016 435.235
0.906066 10.1963 -6.40598 236.72 438.23
-3.7355 9.76627 -4.52007 221.875 434.448
3 20 21 23
3 21 22 23
3 0 1 36
3 15 16 45
3 0 17 36
3 16 26 45
3 17 18 37
3 25 26 44
3 17 36 37
3 26 44 45
3 18 19 38
3 24 25 43
3 18 37 38
3 25 43 44
3 19 20 38
3 23 24 43
3 20 21 39
3 22 23 42
3 20 38 39
3 23 42 43
3 21 22 27
3 21 27 39
3 22 27 42
3 27 28 42
3 27 28 39
3 28 42 47
3 28 39 40
3 1 36 41
3 15 45 46
3 1 2 41
3 14 15 46
3 28 29 40
3 28 29 47
3 2 40 41
3 14 46 47
3 2 29 40
3 14 29 47
3 2 3 29
3 13 14 29
3 29 30 31
3 29 30 35
3 3 29 31
3 13 29 35
3 30 32 33
3 30 33 34
3 30 31 32
3 30 34 35
3 3 4 31
3 12 13 35
3 4 5 48
3 11 12 54
3 5 6 48
3 10 11 54
3 6 48 59
3 10 54 55
3 6 7 59
3 9 10 55
3 7 58 59
3 9 55 56
3 8 57 58
3 8 56 57
3 7 8 58
3 8 9 56
3 4 31 48
3 12 35 54
3 31 48 49
3 35 53 54
3 31 49 50
3 35 52 53
3 31 32 50
3 34 35 52
3 32 33 50
3 33 34 52
3 33 50 51
3 33 51 52
3 48 49 60
3 49 60 50
3 50 60 61
3 50 51 61
3 51 52 61
3 61 62 52
3 52 53 62
3 53 54 62
3 54 55 63
3 55 56 63
3 56 63 64
3 56 57 64
3 64 65 57
3 57 58 65
3 58 59 65
3 48 59 65
