ply
format ascii 1.0
element vertex 66
property float x
property float y
property float z
property float u
property float v
element face 91
property list uchar int vertex_indices
end_header
-20.6547 -5.64822 21.3079 254.32 206.741
-20.0519 -0.423649 20.8425 260.125 237.054
-19.1146 4.7667 20.4846 268.259 266.842
-17.7568 9.73356 18.3869 279.62 296.88
-15.6469 14.1974 13.4633 296.304 326.163
-12.4006 17.9009 7.99404 319.302 350.457
-8.27017 20.7526 3.29433 346.271 368.801
-3.55056 22.6779 -0.880153 375.855 381.288
1.65875 22.9008 -4.53572 407.132 383.95
6.75338 21.9412 -0.807894 437.195 373.144
11.0958 19.3665 3.41769 463.039 353.565
14.7165 15.9593 8.15704 485.241 329.206
17.3322 11.8354 13.6544 502.108 299.868
18.7221 7.12069 18.5937 511.258 266.907
19.3316 2.01325 20.7063 514.823 234.3
19.5157 -3.2566 21.0748 515.23 202.679
19.3623 -8.51341 21.5385 513.352 171.112
-16.9434 -14.0024 0.166523 279.431 170.001
-14.6923 -16.1532 -1.56921 292.139 156.991
-11.7473 -17.1684 -2.95979 309.969 149.98
-8.64008 -17.2567 -4.29633 329.558 148.522
-5.61118 -16.6863 -5.52226 349.189 150.952
3.24342 -17.3161 -5.43542 404.744 142.873
6.14406 -18.3113 -4.17859 423.425 135.214
9.21432 -18.6656 -2.80935 443.099 131.398
12.2557 -18.0793 -1.38764 462.548 133.616
14.7675 -16.2699 0.371491 478.626 143.05
-0.800008 -11.6067 -4.9545 380.035 177.865
-0.571382 -8.59445 -7.76035 382.323 198.158
-0.341526 -5.60559 -10.6633 384.659 218.412
-0.111056 -2.62069 -13.4075 387.006 238.47
-3.34691 0.90089 -6.47077 368.327 257.309
-1.6415 1.2941 -7.26957 378.98 259.822
0.142254 1.35258 -8.01839 389.964 260.323
1.89493 1.04463 -7.21848 400.833 257.003
3.5165 0.412997 -6.40175 410.848 251.837
-12.5316 -9.74495 -0.905324 308.488 193.218
-10.6698 -11.0691 -1.10649 319.555 184.198
-8.3451 -11.2534 -1.2279 334.166 181.876
-6.35058 -10.2247 -0.977391 347.577 186.545
-8.3556 -9.50683 -1.10156 335.215 192.079
-10.5048 -9.27615 -1.09011 321.729 194.742
4.83678 -11.0227 -0.887733 416.15 177.024
6.66716 -12.3254 -1.11779 427.922 168.878
8.99246 -12.4738 -0.968074 442.77 167.429
11.0209 -11.4279 -0.742362 455.939 173.311
9.08377 -10.6753 -0.948989 443.44 178.213
6.92444 -10.5977 -0.987214 429.647 179.205
-6.63855 8.84013 -2.74685 349.069 301.227
-4.73902 6.8457 -4.89305 361.108 291.193
-2.32888 5.4219 -6.54708 376.12 283.972
0.427259 5.35547 -8.22771 393.347 284.557
3.15408 5.03248 -6.48681 410.265 279.508
5.72158 6.09946 -4.80547 426.955 282.63
7.86034 7.80446 -2.63884 441.655 289.071
6.14905 9.90529 -3.93286 429.305 300.579
3.75933 11.3254 -5.28293 413.858 308.306
0.883179 11.8243 -6.67982 397.023 312.613
-2.0422 11.738 -5.34336 380.072 312.791
-4.62825 10.6744 -4.02161 363.419 309.324
-2.38864 7.57584 -5.20395 376.44 295.12
0.55887 7.21472 -7.41824 394.69 294.811
3.50364 7.15671 -5.14457 412.832 290.343
3.65722 8.62822 -4.49552 413.172 293.005
0.689237 9.10764 -6.42523 395.008 297.582
-2.33557 9.05505 -4.5521 376.695 297.824
3 20 21 23
3 21 22 23
3 0 1 36
3 15 16 45
3 0 17 36
3 16 26 45
3 17 18 37
3 25 26 44
3 17 36 37
3 26 44 45
3 18 19 38
3 24 25 43
3 18 37 38
3 25 43 44
3 19 20 38
3 23 24 43
3 20 21 39
3 22 23 42
3 20 38 39
3 23 42 43
3 21 22 27
3 21 27 39
3 22 27 42
3 27 28 42
3 27 28 39
3 28 42 47
3 28 39 40
3 1 36 41
3 15 45 46
3 1 2 41
3 14 15 46
3 28 29 40
3 28 29 47
3 2 40 41
3 14 46 47
3 2 29 40
3 14 29 47
3 2 3 29
3 13 14 29
3 29 30 31
3 29 30 35
3 3 29 31
3 13 29 35
3 30 32 33
3 30 33 34
3 30 31 32
3 30 34 35
3 3 4 31
3 12 13 35
3 4 5 48
3 11 12 54
3 5 6 48
3 10 11 54
3 6 48 59
3 10 54 55
3 6 7 59
3 9 10 55
3 7 58 59
3 9 55 56
3 8 57 58
3 8 56 57
3 7 8 58
3 8 9 56
3 4 31 48
3 12 35 54
3 31 48 49
3 35 53 54
3 31 49 50
3 35 52 53
3 31 32 50
3 34 35 52
3 32 33 50
3 33 34 52
3 33 50 51
3 33 51 52
3 48 49 60
3 49 60 50
3 50 60 61
3 50 51 61
3 51 52 61
3 61 62 52
3 52 53 62
3 53 54 62
3 54 55 63
3 55 56 63
3 56 63 64
3 56 57 64
3 64 65 57
3 57 58 65
3 58 59 65
3 48 59 65
