ply
format ascii 1.0
element vertex 66
property float x
property float y
property float z
property float u
property float v
element face 91
property list uchar int vertex_indices
end_header
-20.6547 -5.64822 21.3079 106.899 212.224
-20.0519 -0.423649 20.8425 108.796 249.366
-19.1146 4.7667 20.4846 112.757 286.244
-17.7568 9.73356 18.3869 117.585 323.541
-15.6469 14.1974 13.4633 126.366 360.741
-12.4006 17.9009 7.99404 144.353 393.797
-8.27017 20.7526 3.29433 170.075 420.234
-3.55056 22.6779 -0.880153 201.234 439.095
1.65875 22.9008 -4.53572 236.318 446.636
6.75338 21.9412 -0.807894 272.249 439.923
11.0958 19.3665 3.41769 303.908 420.671
14.7165 15.9593 8.15704 330.008 393.657
17.3322 11.8354 13.6544 349.024 360.629
18.7221 7.12069 18.5937 360.354 324.869
19.3316 2.01325 20.7063 367.721 289.618
19.5157 -3.2566 21.0748 373.591 254.957
19.3623 -8.51341 21.5385 376.83 219.847
-16.9434 -14.0024 0.166523 131.179 178.442
-14.6923 -16.1532 -1.56921 148.096 165.133
-11.7473 -17.1684 -2.95979 169.671 159.453
-8.64008 -17.2567 -4.29633 192.265 161.014
-5.61118 -16.6863 -5.52226 213.944 167.791
3.24342 -17.3161 -5.43542 275.838 171.961
6.14406 -18.3113 -4.17859 296.857 166.708
9.21432 -18.6656 -2.80935 318.614 166.466
12.2557 -18.0793 -1.38764 339.086 172.702
14.7675 -16.2699 0.371491 354.754 186.085
-0.800008 -11.6067 -4.9545 245.488 212.037
-0.571382 -8.59445 -7.76035 244.487 239.005
-0.341526 -5.60559 -10.6633 243.431 265.848
-0.111056 -2.62069 -13.4075 242.373 292.435
-3.34691 0.90089 -6.47077 218.092 308.06
-1.6415 1.2941 -7.26957 229.769 313.037
0.142254 1.35258 -8.01839 242.317 315.485
1.89493 1.04463 -7.21848 254.53 313.906
3.5165 0.412997 -6.40175 265.973 309.736
-12.5316 -9.74495 -0.905324 158.937 214.153
-10.6698 -11.0691 -1.10649 174.094 205.714
-8.3451 -11.2534 -1.2279 191.928 206.947
-6.35058 -10.2247 -0.977391 205.993 217.367
-8.3556 -9.50683 -1.10156 190.074 220.434
-10.5048 -9.27615 -1.09011 173.69 220.041
4.83678 -11.0227 -0.887733 282.349 220.741
6.66716 -12.3254 -1.11779 296.767 211.784
8.99246 -12.4738 -0.968074 314.232 211.666
11.0209 -11.4279 -0.742362 328.22 221.242
9.08377 -10.6753 -0.948989 313.409 225.961
6.92444 -10.5977 -0.987214 297.436 225.025
-6.63855 8.84013 -2.74685 189.429 346.352
-4.73902 6.8457 -4.89305 205.747 339.216
-2.32888 5.4219 -6.54708 223.293 335.035
0.427259 5.35547 -8.22771 240.959 338.727
3.15408 5.03248 -6.48681 258.574 336.207
5.72158 6.09946 -4.80547 275.281 341.542
7.86034 7.80446 -2.63884 290.174 350.106
6.14905 9.90529 -3.93286 275.822 361.304
3.75933 11.3254 -5.28293 258.378 367.726
0.883179 11.8243 -6.67982 240.03 369.432
-2.0422 11.738 -5.34336 221.435 366.471
-4.62825 10.6744 -4.02161 203.88 358.742
-2.38864 7.57584 -5.20395 221.072 348.1
0.55887 7.21472 -7.41824 240.675 351.256
3.50364 7.15671 -5.14457 260.141 349.44
3.65722 8.62822 -4.49552 260.551 349.556
0.689237 9.10764 -6.42523 240.815 350.283
-2.33557 9.05505 -4.5521 220.847 348.284
3 20 21 23
3 21 22 23
3 0 1 36
3 15 16 45
3 0 17 36
3 16 26 45
3 17 18 37
3 25 26 44
3 17 36 37
3 26 44 45
3 18 19 38
3 24 25 43
3 18 37 38
3 25 43 44
3 19 20 38
3 23 24 43
3 20 21 39
3 22 23 42
3 20 38 39
3 23 42 43
3 21 22 27
3 21 27 39
3 22 27 42
3 27 28 42
3 27 28 39
3 28 42 47
3 28 39 40
3 1 36 41
3 15 45 46
3 1 2 41
3 14 15 46
3 28 29 40
3 28 29 47
3 2 40 41
3 14 46 47
3 2 29 40
3 14 29 47
3 2 3 29
3 13 14 29
3 29 30 31
3 29 30 35
3 3 29 31
3 13 29 35
3 30 32 33
3 30 33 34
3 30 31 32
3 30 34 35
3 3 4 31
3 12 13 35
3 4 5 48
3 11 12 54
3 5 6 48
3 10 11 54
3 6 48 59
3 10 54 55
3 6 7 59
3 9 10 55
3 7 58 59
3 9 55 56
3 8 57 58
3 8 56 57
3 7 8 58
3 8 9 56
3 4 31 48
3 12 35 54
3 31 48 49
3 35 53 54
3 31 49 50
3 35 52 53
3 31 32 50
3 34 35 52
3 32 33 50
3 33 34 52
3 33 50 51
3 33 51 52
3 48 49 60
3 49 60 50
3 50 60 61
3 50 51 61
3 51 52 61
3 61 62 52
3 52 53 62
3 53 54 62
3 54 55 63
3 55 56 63
3 56 63 64
3 56 57 64
3 64 65 57
3 57 58 65
3 58 59 65
3 48 59 65
