ply
format ascii 1.0
element vertex 66
property float x
property float y
property float z
property float u
property float v
element face 91
property list uchar int vertex_indices
end_header
148.051 231.507 0 148.051 231.507
149.49 255.556 0 149.49 255.556
152.562 279.502 0 152.562 279.502
156.988 303.452 0 156.988 303.452
164.485 326.955 0 164.485 326.955
177.423 347.965 0 177.423 347.965
194.738 365.253 0 194.738 365.253
215.54 377.689 0 215.54 377.689
239.309 381.632 0 239.309 381.632
263.013 376.635 0 263.013 376.635
283.932 364.165 0 283.932 364.165
301.582 347.185 0 301.582 347.185
314.613 326.254 0 314.613 326.254
321.749 302.46 0 321.749 302.46
325.509 278.044 0 325.509 278.044
328.039 253.602 0 328.039 253.602
329.396 229.118 0 329.396 229.118
163.409 209.721 0 163.409 209.721
175.208 202.531 0 175.208 202.531
189.198 200.345 0 189.198 200.345
203.42 201.679 0 203.42 201.679
216.996 205.897 0 216.996 205.897
250.844 205.047 0 250.844 205.047
265.612 200.467 0 265.612 200.467
281.036 198.921 0 281.036 198.921
296.164 201.62 0 296.164 201.62
308.852 209.655 0 308.852 209.655
232.8 223.368 0 232.8 223.368
232.478 240.824 0 232.478 240.824
232.175 258.221 0 232.175 258.221
231.96 275.533 0 231.96 275.533
217.203 284.932 0 217.203 284.932
224.736 288.122 0 224.736 288.122
232.87 289.388 0 232.87 289.388
241.657 287.856 0 241.657 287.856
249.836 284.397 0 249.836 284.397
180.26 229.4 0 180.26 229.4
190.344 224.005 0 190.344 224.005
202.065 224.337 0 202.065 224.337
211.995 229.892 0 211.995 229.892
201.292 231.264 0 201.292 231.264
190.44 231.737 0 190.44 231.737
258.796 229.016 0 258.796 229.016
268.7 223.124 0 268.7 223.124
280.625 222.848 0 280.625 222.848
291.088 228.057 0 291.088 228.057
280.657 230.427 0 280.657 230.427
269.659 230.281 0 269.659 230.281
197.87 310.623 0 197.87 310.623
208.041 303.695 0 208.041 303.695
220.723 300.387 0 220.723 300.387
234.07 301.604 0 234.07 301.604
248.196 299.912 0 248.196 299.912
262.036 302.798 0 262.036 302.798
273.964 309.195 0 273.964 309.195
263.867 320.211 0 263.867 320.211
250.631 327.632 0 250.631 327.632
235.411 330.023 0 235.411 330.023
220.499 328.359 0 220.499 328.359
207.499 321.456 0 207.499 321.456
217.895 308.599 0 217.895 308.599
234.398 309.341 0 234.398 309.341
252.028 307.934 0 252.028 307.934
252.911 315.27 0 252.911 315.27
234.778 317.86 0 234.778 317.86
217.52 315.891 0 217.52 315.891
3 20 21 23
3 21 22 23
3 0 1 36
3 15 16 45
3 0 17 36
3 16 26 45
3 17 18 37
3 25 26 44
3 17 36 37
3 26 44 45
3 18 19 38
3 24 25 43
3 18 37 38
3 25 43 44
3 19 20 38
3 23 24 43
3 20 21 39
3 22 23 42
3 20 38 39
3 23 42 43
3 21 22 27
3 21 27 39
3 22 27 42
3 27 28 42
3 27 28 39
3 28 42 47
3 28 39 40
3 1 36 41
3 15 45 46
3 1 2 41
3 14 15 46
3 28 29 40
3 28 29 47
3 2 40 41
3 14 46 47
3 2 29 40
3 14 29 47
3 2 3 29
3 13 14 29
3 29 30 31
3 29 30 35
3 3 29 31
3 13 29 35
3 30 32 33
3 30 33 34
3 30 31 32
3 30 34 35
3 3 4 31
3 12 13 35
3 4 5 48
3 11 12 54
3 5 6 48
3 10 11 54
3 6 48 59
3 10 54 55
3 6 7 59
3 9 10 55
3 7 58 59
3 9 55 56
3 8 57 58
3 8 56 57
3 7 8 58
3 8 9 56
3 4 31 48
3 12 35 54
3 31 48 49
3 35 53 54
3 31 49 50
3 35 52 53
3 31 32 50
3 34 35 52
3 32 33 50
3 33 34 52
3 33 50 51
3 33 51 52
3 48 49 60
3 49 60 50
3 50 60 61
3 50 51 61
3 51 52 61
3 61 62 52
3 52 53 62
3 53 54 62
3 54 55 63
3 55 56 63
3 56 63 64
3 56 57 64
3 64 65 57
3 57 58 65
3 58 59 65
3 48 59 65
