ply
format ascii 1.0
element vertex 66
property float x
property float y
property float z
property float u
property float v
element face 91
property list uchar int vertex_indices
end_header
129.512 200.115 0 129.512 200.115
130.839 223.969 0 130.839 223.969
134.345 247.594 0 134.345 247.594
141.018 271.743 0 141.018 271.743
152.768 296.254 0 152.768 296.254
169.936 318.337 0 169.936 318.337
190.75 336.427 0 190.75 336.427
214.614 349.769 0 214.614 349.769
240.966 354.952 0 240.966 354.952
264.68 349.69 0 264.68 349.69
286.068 337.549 0 286.068 337.549
304.83 320.852 0 304.83 320.852
318.743 299.033 0 318.743 299.033
325.834 272.766 0 325.834 272.766
329.794 245.793 0 329.794 245.793
332.43 219.17 0 332.43 219.17
333.54 192.5 0 333.54 192.5
158.419 171.203 0 158.419 171.203
170.143 162.764 0 170.143 162.764
184.763 159.336 0 184.763 159.336
200.045 160.013 0 200.045 160.013
214.76 163.808 0 214.76 163.808
255.951 160.543 0 255.951 160.543
271.544 154.753 0 271.544 154.753
287.777 152.533 0 287.777 152.533
303.488 155.516 0 303.488 155.516
316.035 164.285 0 316.035 164.285
234.24 190.646 0 234.24 190.646
235.515 207.282 0 235.515 207.282
236.941 223.889 0 236.941 223.889
238.399 240.359 0 238.399 240.359
219.319 254.043 0 219.319 254.043
227.736 256.988 0 227.736 256.988
236.635 258.124 0 236.635 258.124
246.058 256.177 0 246.058 256.177
254.903 252.482 0 254.903 252.482
178.436 197.32 0 178.436 197.32
187.911 190.349 0 187.911 190.349
199.934 190.431 0 199.934 190.431
209.615 196.5 0 209.615 196.5
199.49 200.184 0 199.49 200.184
188.612 200.998 0 188.612 200.998
262.829 193.215 0 262.829 193.215
272.689 185.701 0 272.689 185.701
285.002 184.981 0 285.002 184.981
295.275 190.913 0 295.275 190.913
285.153 195.52 0 285.153 195.52
273.832 195.943 0 273.832 195.943
198.954 283.466 0 198.954 283.466
209.85 275.058 0 209.85 275.058
223.497 270.047 0 223.497 270.047
238.521 271.23 0 238.521 271.23
253.132 268.888 0 253.132 268.888
266.881 272.921 0 266.881 272.921
278.343 279.912 0 278.343 279.912
267.331 290.236 0 267.331 290.236
253.705 296.912 0 253.705 296.912
238.815 299.487 0 238.815 299.487
223.749 298.253 0 223.749 298.253
209.788 292.847 0 209.788 292.847
222.205 280.115 0 222.205 280.115
238.473 280.819 0 238.473 280.819
254.038 278.738 0 254.038 278.738
254.033 283.69 0 254.033 283.69
238.143 286.129 0 238.143 286.129
221.648 284.979 0 221.648 284.979
3 20 21 23
3 21 22 23
3 0 1 36
3 15 16 45
3 0 17 36
3 16 26 45
3 17 18 37
3 25 26 44
3 17 36 37
3 26 44 45
3 18 19 38
3 24 25 43
3 18 37 38
3 25 43 44
3 19 20 38
3 23 24 43
3 20 21 39
3 22 23 42
3 20 38 39
3 23 42 43
3 21 22 27
3 21 27 39
3 22 27 42
3 27 28 42
3 27 28 39
3 28 42 47
3 28 39 40
3 1 36 41
3 15 45 46
3 1 2 41
3 14 15 46
3 28 29 40
3 28 29 47
3 2 40 41
3 14 46 47
3 2 29 40
3 14 29 47
3 2 3 29
3 13 14 29
3 29 30 31
3 29 30 35
3 3 29 31
3 13 29 35
3 30 32 33
3 30 33 34
3 30 31 32
3 30 34 35
3 3 4 31
3 12 13 35
3 4 5 48
3 11 12 54
3 5 6 48
3 10 11 54
3 6 48 59
3 10 54 55
3 6 7 59
3 9 10 55
3 7 58 59
3 9 55 56
3 8 57 58
3 8 56 57
3 7 8 58
3 8 9 56
3 4 31 48
3 12 35 54
3 31 48 49
3 35 53 54
3 31 49 50
3 35 52 53
3 31 32 50
3 34 35 52
3 32 33 50
3 33 34 52
3 33 50 51
3 33 51 52
3 48 49 60
3 49 60 50
3 50 60 61
3 50 51 61
3 51 52 61
3 61 62 52
3 52 53 62
3 53 54 62
3 54 55 63
3 55 56 63
3 56 63 64
3 56 57 64
3 64 65 57
3 57 58 65
3 58 59 65
3 48 59 65
