ply
format ascii 1.0
element vertex 66
property float x
property float y
property float z
property float u
property float v
element face 91
property list uchar int vertex_indices
end_header
-20.8095 -5.55882 21.5518 161.089 395.963
-20.0867 -0.353529 21.0265 162.223 415.817
-19.1021 4.81719 20.6254 164.349 435.591
-17.7061 9.75774 18.2767 168.112 455.096
-15.4838 14.1469 13.485 175.173 473.374
-12.109 17.6253 7.9814 186.847 488.76
-7.97187 20.2406 3.12142 201.64 500.987
-3.42487 22.1558 -1.02893 218.178 510.544
1.58381 22.462 -4.63813 236.934 514.081
6.54136 21.4096 -0.86789 255.83 510.733
10.7491 18.7251 3.30202 272.404 500.944
14.3336 15.3526 8.1837 286.84 488.217
17.0493 11.3166 13.6783 298.207 472.591
18.6244 6.73286 18.3664 305.468 454.761
19.3051 1.85785 20.6939 309.484 436.137
19.5009 -3.15858 20.9813 311.745 417.327
19.3757 -8.16211 21.4891 312.794 398.414
-17.3321 -14.1546 0.193672 177.003 369.947
-14.9171 -16.1096 -1.40044 186.685 363.737
-11.896 -16.9214 -2.86723 198.294 361.964
-8.77805 -16.8275 -4.27121 209.99 363.6
-5.75624 -16.1002 -5.504 221.13 367.54
3.58831 -16.5208 -5.57563 256.351 368.816
6.32093 -17.5269 -4.2721 266.905 365.561
9.22952 -17.9685 -2.82271 277.947 364.439
12.1615 -17.6114 -1.29973 288.832 366.3
14.6844 -16.1078 0.355186 297.83 372.302
-0.468836 -10.7273 -4.92836 239.342 389.142
-0.261042 -7.91201 -7.77578 239.296 400.442
-0.0649364 -5.11764 -10.7047 239.213 411.679
0.123711 -2.32814 -13.471 239.102 422.857
-3.32043 0.311135 -6.39884 225.286 430
-1.50849 0.774852 -7.28532 231.959 432.501
0.378696 0.896434 -8.09506 239.018 433.725
2.13315 0.555122 -7.23003 245.701 432.769
3.76612 -0.122128 -6.28815 252.029 430.5
-13.0865 -9.77521 -0.752549 191.622 387.876
-11.236 -10.7022 -0.894497 198.856 384.997
-9.13844 -10.9183 -1.13315 206.801 384.881
-7.26725 -10.2609 -1.09162 213.627 387.903
-9.18922 -9.77453 -1.0578 206.261 389.134
-11.1783 -9.59684 -1.03465 198.737 389.191
5.65349 -10.9633 -1.08392 262.364 389.189
7.40001 -11.7801 -1.06993 269.171 386.654
9.46603 -11.8505 -0.830179 276.949 386.959
11.3583 -11.1373 -0.678716 283.836 390.17
9.51502 -10.7405 -0.980254 276.796 391.171
7.55974 -10.7041 -1.02168 269.443 390.724
-8.05487 7.96283 -2.79711 205.135 456.373
-5.69367 6.05588 -4.79966 214.605 450.425
-2.76012 4.81529 -6.41707 226.018 447.055
0.44022 4.72306 -8.23469 238.084 448.118
3.56921 4.43497 -6.30114 249.901 447.522
6.56368 5.30158 -4.65355 260.865 451.282
9.0298 6.95618 -2.66829 269.6 457.753
7.33604 10.045 -3.99372 262.312 469.134
4.57206 12.2618 -5.25037 251.271 476.907
0.998812 13.0411 -6.71653 237.631 479.096
-2.71742 12.6901 -5.36837 223.767 476.328
-5.81896 10.8077 -4.15364 212.68 468.04
-3.336 6.77466 -5.34609 223.246 453.966
0.557212 6.44103 -7.76882 237.995 454.48
4.40108 6.31757 -5.15336 252.439 454.554
4.82883 9.42065 -4.39985 253.092 466.132
0.857308 10.3968 -6.36405 237.901 469.058
-3.27771 9.90887 -4.5713 222.501 465.543
3 20 21 23
3 21 22 23
3 0 1 36
3 15 16 45
3 0 17 36
3 16 26 45
3 17 18 37
3 25 26 44
3 17 36 37
3 26 44 45
3 18 19 38
3 24 25 43
3 18 37 38
3 25 43 44
3 19 20 38
3 23 24 43
3 20 21 39
3 22 23 42
3 20 38 39
3 23 42 43
3 21 22 27
3 21 27 39
3 22 27 42
3 27 28 42
3 27 28 39
3 28 42 47
3 28 39 40
3 1 36 41
3 15 45 46
3 1 2 41
3 14 15 46
3 28 29 40
3 28 29 47
3 2 40 41
3 14 46 47
3 2 29 40
3 14 29 47
3 2 3 29
3 13 14 29
3 29 30 31
3 29 30 35
3 3 29 31
3 13 29 35
3 30 32 33
3 30 33 34
3 30 31 32
3 30 34 35
3 3 4 31
3 12 13 35
3 4 5 48
3 11 12 54
3 5 6 48
3 10 11 54
3 6 48 59
3 10 54 55
3 6 7 59
3 9 10 55
3 7 58 59
3 9 55 56
3 8 57 58
3 8 56 57
3 7 8 58
3 8 9 56
3 4 31 48
3 12 35 54
3 31 48 49
3 35 53 54
3 31 49 50
3 35 52 53
3 31 32 50
3 34 35 52
3 32 33 50
3 33 34 52
3 33 50 51
3 33 51 52
3 48 49 60
3 49 60 50
3 50 60 61
3 50 51 61
3 51 52 61
3 61 62 52
3 52 53 62
3 53 54 62
3 54 55 63
3 55 56 63
3 56 63 64
3 56 57 64
3 64 65 57
3 57 58 65
3 58 59 65
3 48 59 65
