ply
format ascii 1.0
element vertex 66
property float x
property float y
property float z
property float u
property float v
element face 91
property list uchar int vertex_indices
end_header
-20.2335 -5.49954 21.6686 106.899 212.224
-19.4361 -0.183558 21.0305 108.796 249.366
-18.34 5.10797 20.6455 112.757 286.244
-17.1379 10.1636 18.6007 117.585 323.541
-15.41 14.6391 13.5879 126.366 360.741
-12.4192 18.2708 7.96313 144.353 393.797
-8.38992 20.9839 3.28688 170.075 420.234
-3.67507 22.5948 -0.883934 201.234 439.095
1.45236 22.5705 -4.57608 236.318 446.636
6.61292 21.7444 -0.683159 272.249 439.923
10.9807 19.193 3.52982 303.908 420.671
14.4399 15.6629 8.21904 330.008 393.657
16.8021 11.506 13.8149 349.024 360.629
18.0017 6.92678 18.6529 360.354 324.869
18.5929 2.00079 20.71 367.721 289.618
18.9491 -3.12522 20.9741 373.591 254.957
18.9226 -8.22897 21.5356 376.83 219.847
-17.5294 -14.4721 0.305028 131.179 178.442
-15.3009 -16.9808 -1.52981 148.096 165.133
-12.2815 -18.3517 -2.87579 169.671 159.453
-9.00953 -18.6552 -4.11297 192.265 161.014
-5.79395 -18.1693 -5.28739 213.944 167.791
3.21806 -18.452 -5.39062 275.838 171.961
6.20253 -19.304 -4.12682 296.857 166.708
9.36636 -19.4224 -2.81381 318.614 166.466
12.4389 -18.5529 -1.39223 339.086 172.702
14.925 -16.497 0.431837 354.754 186.085
-0.588762 -12.0375 -4.80169 245.488 212.037
-0.392396 -8.58057 -7.807 244.487 239.005
-0.206577 -5.15069 -10.867 243.431 265.848
-0.0208078 -1.71249 -13.6609 242.373 292.435
-3.20517 2.10364 -6.80087 218.092 308.06
-1.45507 2.55022 -7.49056 229.769 313.037
0.385855 2.62624 -8.10536 242.317 315.485
2.14066 2.34093 -7.40886 254.53 313.906
3.7472 1.69125 -6.68306 265.973 309.736
-13.0163 -9.7882 -0.655857 158.937 214.153
-10.9514 -11.317 -1.09351 174.094 205.714
-8.35832 -11.4405 -1.39446 191.928 206.947
-6.17004 -10.0636 -1.12338 205.993 217.367
-8.42984 -9.39788 -1.1821 190.074 220.434
-10.8036 -9.20087 -1.05103 173.69 220.041
4.92282 -10.6655 -1.21138 282.349 220.741
6.87805 -12.2075 -1.34379 296.767 211.784
9.40838 -12.4101 -0.981169 314.232 211.666
11.5765 -11.1209 -0.505491 328.22 221.242
9.49444 -10.2985 -0.973434 313.409 225.961
7.16738 -10.2445 -1.17631 297.436 225.025
-6.7404 8.83577 -2.69836 189.429 346.352
-4.51781 7.15234 -5.05364 205.747 339.216
-2.06523 5.99888 -6.74821 223.293 335.035
0.51786 6.00114 -8.43309 240.959 338.727
3.05831 5.70331 -6.55942 258.574 336.207
5.5777 6.54418 -4.84479 275.281 341.542
7.88967 7.98441 -2.55022 290.174 350.106
5.95566 9.62286 -3.76649 275.822 361.304
3.50499 10.5935 -5.0436 258.378 367.726
0.851992 10.8425 -6.56641 240.03 369.432
-1.85989 10.9037 -5.21274 221.435 366.471
-4.49087 10.2382 -3.93027 203.88 358.742
-2.17779 8.19094 -5.33553 221.072 348.1
0.670206 8.00167 -7.51766 240.675 351.256
3.49652 7.86999 -5.12587 260.141 349.44
3.56788 7.99854 -4.44204 260.551 349.556
0.692166 8.03398 -6.48639 240.815 350.283
-2.19735 8.3385 -4.65182 220.847 348.284
3 20 21 23
3 21 22 23
3 0 1 36
3 15 16 45
3 0 17 36
3 16 26 45
3 17 18 37
3 25 26 44
3 17 36 37
3 26 44 45
3 18 19 38
3 24 25 43
3 18 37 38
3 25 43 44
3 19 20 38
3 23 24 43
3 20 21 39
3 22 23 42
3 20 38 39
3 23 42 43
3 21 22 27
3 21 27 39
3 22 27 42
3 27 28 42
3 27 28 39
3 28 42 47
3 28 39 40
3 1 36 41
3 15 45 46
3 1 2 41
3 14 15 46
3 28 29 40
3 28 29 47
3 2 40 41
3 14 46 47
3 2 29 40
3 14 29 47
3 2 3 29
3 13 14 29
3 29 30 31
3 29 30 35
3 3 29 31
3 13 29 35
3 30 32 33
3 30 33 34
3 30 31 32
3 30 34 35
3 3 4 31
3 12 13 35
3 4 5 48
3 11 12 54
3 5 6 48
3 10 11 54
3 6 48 59
3 10 54 55
3 6 7 59
3 9 10 55
3 7 58 59
3 9 55 56
3 8 57 58
3 8 56 57
3 7 8 58
3 8 9 56
3 4 31 48
3 12 35 54
3 31 48 49
3 35 53 54
3 31 49 50
3 35 52 53
3 31 32 50
3 34 35 52
3 32 33 50
3 33 34 52
3 33 50 51
3 33 51 52
3 48 49 60
3 49 60 50
3 50 60 61
3 50 51 61
3 51 52 61
3 61 62 52
3 52 53 62
3 53 54 62
3 54 55 63
3 55 56 63
3 56 63 64
3 56 57 64
3 64 65 57
3 57 58 65
3 58 59 65
3 48 59 65
