ply
format ascii 1.0
element vertex 66
property float x
property float y
property float z
property float u
property float v
element face 91
property list uchar int vertex_indices
end_header
-20.6547 -5.64822 21.3079 173.47 372.718
-20.0519 -0.423649 20.8425 174.559 390.37
-19.1146 4.7667 20.4846 176.5 407.925
-17.7568 9.73356 18.3869 179.034 425.804
-15.6469 14.1974 13.4633 183.635 443.453
-12.4006 17.9009 7.99404 192.376 458.81
-8.27017 20.7526 3.29433 204.233 471.215
-3.55056 22.6779 -0.880153 218.131 480.593
1.65875 22.9008 -4.53572 233.973 484.655
6.75338 21.9412 -0.807894 251.306 480.729
11.0958 19.3665 3.41769 266.437 470.699
14.7165 15.9593 8.15704 279.422 457.565
17.3322 11.8354 13.6544 289.893 442.075
18.7221 7.12069 18.5937 296.963 425.265
19.3316 2.01325 20.7063 301.154 408.685
19.5157 -3.2566 21.0748 303.867 392.525
19.3623 -8.51341 21.5385 305.423 376.175
-16.9434 -14.0024 0.166523 183.235 356.173
-14.6923 -16.1532 -1.56921 191.594 350.815
-11.7473 -17.1684 -2.95979 201.85 349.25
-8.64008 -17.2567 -4.29633 212.342 350.818
-5.61118 -16.6863 -5.52226 222.389 354.555
3.24342 -17.3161 -5.43542 253.572 356.551
6.14406 -18.3113 -4.17859 263.556 353.987
9.21432 -18.6656 -2.80935 273.899 353.454
12.2557 -18.0793 -1.38764 283.778 355.826
14.7675 -16.2699 0.371491 291.515 361.701
-0.800008 -11.6067 -4.9545 238.182 373.421
-0.571382 -8.59445 -7.76035 237.385 385.652
-0.341526 -5.60559 -10.6633 236.532 397.836
-0.111056 -2.62069 -13.4075 235.695 409.897
-3.34691 0.90089 -6.47077 224.311 413.807
-1.6415 1.2941 -7.26957 230.258 416.629
0.142254 1.35258 -8.01839 236.65 418.143
1.89493 1.04463 -7.21848 242.856 417.13
3.5165 0.412997 -6.40175 248.687 414.768
-12.5316 -9.74495 -0.905324 195.493 371.931
-10.6698 -11.0691 -1.10649 202.678 368.399
-8.3451 -11.2534 -1.2279 210.924 368.855
-6.35058 -10.2247 -0.977391 217.578 373.323
-8.3556 -9.50683 -1.10156 210.072 374.454
-10.5048 -9.27615 -1.09011 202.45 374.229
4.83678 -11.0227 -0.887733 257.332 375.377
6.66716 -12.3254 -1.11779 264.005 371.777
8.99246 -12.4738 -0.968074 272.087 371.831
11.0209 -11.4279 -0.742362 278.756 375.99
9.08377 -10.6753 -0.948989 271.765 377.644
6.92444 -10.5977 -0.987214 264.386 377.098
-6.63855 8.84013 -2.74685 207.214 431.783
-4.73902 6.8457 -4.89305 215.575 427.504
-2.32888 5.4219 -6.54708 225.632 425.625
0.427259 5.35547 -8.22771 235.986 427.3
3.15408 5.03248 -6.48681 246.687 426.302
5.72158 6.09946 -4.80547 256.741 428.763
7.86034 7.80446 -2.63884 264.813 433.793
6.14905 9.90529 -3.93286 257.756 443.327
3.75933 11.3254 -5.28293 247.736 449.85
0.883179 11.8243 -6.67982 235.71 451.827
-2.0422 11.738 -5.34336 223.871 449.07
-4.62825 10.6744 -4.02161 214.1 441.873
-2.38864 7.57584 -5.20395 223.284 430.999
0.55887 7.21472 -7.41824 236.027 432.618
3.50364 7.15671 -5.14457 249.239 431.867
3.65722 8.62822 -4.49552 249.885 440.702
0.689237 9.10764 -6.42523 236.075 443.242
-2.33557 9.05505 -4.5521 222.655 439.878
3 20 21 23
3 21 22 23
3 0 1 36
3 15 16 45
3 0 17 36
3 16 26 45
3 17 18 37
3 25 26 44
3 17 36 37
3 26 44 45
3 18 19 38
3 24 25 43
3 18 37 38
3 25 43 44
3 19 20 38
3 23 24 43
3 20 21 39
3 22 23 42
3 20 38 39
3 23 42 43
3 21 22 27
3 21 27 39
3 22 27 42
3 27 28 42
3 27 28 39
3 28 42 47
3 28 39 40
3 1 36 41
3 15 45 46
3 1 2 41
3 14 15 46
3 28 29 40
3 28 29 47
3 2 40 41
3 14 46 47
3 2 29 40
3 14 29 47
3 2 3 29
3 13 14 29
3 29 30 31
3 29 30 35
3 3 29 31
3 13 29 35
3 30 32 33
3 30 33 34
3 30 31 32
3 30 34 35
3 3 4 31
3 12 13 35
3 4 5 48
3 11 12 54
3 5 6 48
3 10 11 54
3 6 48 59
3 10 54 55
3 6 7 59
3 9 10 55
3 7 58 59
3 9 55 56
3 8 57 58
3 8 56 57
3 7 8 58
3 8 9 56
3 4 31 48
3 12 35 54
3 31 48 49
3 35 53 54
3 31 49 50
3 35 52 53
3 31 32 50
3 34 35 52
3 32 33 50
3 33 34 52
3 33 50 51
3 33 51 52
3 48 49 60
3 49 60 50
3 50 60 61
3 50 51 61
3 51 52 61
3 61 62 52
3 52 53 62
3 53 54 62
3 54 55 63
3 55 56 63
3 56 63 64
3 56 57 64
3 64 65 57
3 57 58 65
3 58 59 65
3 48 59 65
