ply
format ascii 1.0
element vertex 66
property float x
property float y
property float z
property float u
property float v
element face 91
property list uchar int vertex_indices
end_header
106.899 212.224 0 106.899 212.224
108.796 249.366 0 108.796 249.366
112.757 286.244 0 112.757 286.244
117.585 323.541 0 117.585 323.541
126.366 360.741 0 126.366 360.741
144.353 393.797 0 144.353 393.797
170.075 420.234 0 170.075 420.234
201.234 439.095 0 201.234 439.095
236.318 446.636 0 236.318 446.636
272.249 439.923 0 272.249 439.923
303.908 420.671 0 303.908 420.671
330.008 393.657 0 330.008 393.657
349.024 360.629 0 349.024 360.629
360.354 324.869 0 360.354 324.869
367.721 289.618 0 367.721 289.618
373.591 254.957 0 373.591 254.957
376.83 219.847 0 376.83 219.847
131.179 178.442 0 131.179 178.442
148.096 165.133 0 148.096 165.133
169.671 159.453 0 169.671 159.453
192.265 161.014 0 192.265 161.014
213.944 167.791 0 213.944 167.791
275.838 171.961 0 275.838 171.961
296.857 166.708 0 296.857 166.708
318.614 166.466 0 318.614 166.466
339.086 172.702 0 339.086 172.702
354.754 186.085 0 354.754 186.085
245.488 212.037 0 245.488 212.037
244.487 239.005 0 244.487 239.005
243.431 265.848 0 243.431 265.848
242.373 292.435 0 242.373 292.435
218.092 308.06 0 218.092 308.06
229.769 313.037 0 229.769 313.037
242.317 315.485 0 242.317 315.485
254.53 313.906 0 254.53 313.906
265.973 309.736 0 265.973 309.736
158.937 214.153 0 158.937 214.153
174.094 205.714 0 174.094 205.714
191.928 206.947 0 191.928 206.947
205.993 217.367 0 205.993 217.367
190.074 220.434 0 190.074 220.434
173.69 220.041 0 173.69 220.041
282.349 220.741 0 282.349 220.741
296.767 211.784 0 296.767 211.784
314.232 211.666 0 314.232 211.666
328.22 221.242 0 328.22 221.242
313.409 225.961 0 313.409 225.961
297.436 225.025 0 297.436 225.025
189.429 346.352 0 189.429 346.352
205.747 339.216 0 205.747 339.216
223.293 335.035 0 223.293 335.035
240.959 338.727 0 240.959 338.727
258.574 336.207 0 258.574 336.207
275.281 341.542 0 275.281 341.542
290.174 350.106 0 290.174 350.106
275.822 361.304 0 275.822 361.304
258.378 367.726 0 258.378 367.726
240.03 369.432 0 240.03 369.432
221.435 366.471 0 221.435 366.471
203.88 358.742 0 203.88 358.742
221.072 348.1 0 221.072 348.1
240.675 351.256 0 240.675 351.256
260.141 349.44 0 260.141 349.44
260.551 349.556 0 260.551 349.556
240.815 350.283 0 240.815 350.283
220.847 348.284 0 220.847 348.284
3 20 21 23
3 21 22 23
3 0 1 36
3 15 16 45
3 0 17 36
3 16 26 45
3 17 18 37
3 25 26 44
3 17 36 37
3 26 44 45
3 18 19 38
3 24 25 43
3 18 37 38
3 25 43 44
3 19 20 38
3 23 24 43
3 20 21 39
3 22 23 42
3 20 38 39
3 23 42 43
3 21 22 27
3 21 27 39
3 22 27 42
3 27 28 42
3 27 28 39
3 28 42 47
3 28 39 40
3 1 36 41
3 15 45 46
3 1 2 41
3 14 15 46
3 28 29 40
3 28 29 47
3 2 40 41
3 14 46 47
3 2 29 40
3 14 29 47
3 2 3 29
3 13 14 29
3 29 30 31
3 29 30 35
3 3 29 31
3 13 29 35
3 30 32 33
3 30 33 34
3 30 31 32
3 30 34 35
3 3 4 31
3 12 13 35
3 4 5 48
3 11 12 54
3 5 6 48
3 10 11 54
3 6 48 59
3 10 54 55
3 6 7 59
3 9 10 55
3 7 58 59
3 9 55 56
3 8 57 58
3 8 56 57
3 7 8 58
3 8 9 56
3 4 31 48
3 12 35 54
3 31 48 49
3 35 53 54
3 31 49 50
3 35 52 53
3 31 32 50
3 34 35 52
3 32 33 50
3 33 34 52
3 33 50 51
3 33 51 52
3 48 49 60
3 49 60 50
3 50 60 61
3 50 51 61
3 51 52 61
3 61 62 52
3 52 53 62
3 53 54 62
3 54 55 63
3 55 56 63
3 56 63 64
3 56 57 64
3 64 65 57
3 57 58 65
3 58 59 65
3 48 59 65
