ply
format ascii 1.0
element vertex 66
property float x
property float y
property float z
property float u
property float v
element face 91
property list uchar int vertex_indices
end_header
-20.6547 -5.64822 21.3079 175.271 331.864
-20.0519 -0.423649 20.8425 176.619 347.629
-19.1146 4.7667 20.4846 178.835 363.319
-17.7568 9.73356 18.3869 181.863 379.02
-15.6469 14.1974 13.4633 187.049 394.196
-12.4006 17.9009 7.99404 195.943 407.304
-8.27017 20.7526 3.29433 207.542 417.888
-3.55056 22.6779 -0.880153 221.082 425.597
1.65875 22.9008 -4.53572 236.293 428.294
6.75338 21.9412 -0.807894 251.94 425.391
11.0958 19.3665 3.41769 265.708 417.187
14.7165 15.9593 8.15704 277.502 406.165
17.3322 11.8354 13.6544 286.748 392.807
18.7221 7.12069 18.5937 292.317 377.589
19.3316 2.01325 20.7063 295.374 361.941
19.5157 -3.2566 21.0748 297.321 346.317
19.3623 -8.51341 21.5385 298.272 330.616
-16.9434 -14.0024 0.166523 186.886 310.013
-14.6923 -16.1532 -1.56921 193.955 304.14
-11.7473 -17.1684 -2.95979 202.968 301.365
-8.64008 -17.2567 -4.29633 212.519 301.405
-5.61118 -16.6863 -5.52226 221.834 303.589
3.24342 -17.3161 -5.43542 249.369 303.474
6.14406 -18.3113 -4.17859 258.502 301.028
9.21432 -18.6656 -2.80935 267.976 300.694
12.2557 -18.0793 -1.38764 277.052 303.023
14.7675 -16.2699 0.371491 284.41 308.451
-0.800008 -11.6067 -4.9545 236.247 322.013
-0.571382 -8.59445 -7.76035 236.276 332.66
-0.341526 -5.60559 -10.6633 236.295 343.256
-0.111056 -2.62069 -13.4075 236.312 353.796
-3.34691 0.90089 -6.47077 225.08 360.972
-1.6415 1.2941 -7.26957 230.711 363.08
0.142254 1.35258 -8.01839 236.707 364.002
1.89493 1.04463 -7.21848 242.605 362.982
3.5165 0.412997 -6.40175 248.124 360.765
-12.5316 -9.74495 -0.905324 200.196 324.606
-10.6698 -11.0691 -1.10649 205.942 321.233
-8.3451 -11.2534 -1.2279 212.739 321.119
-6.35058 -10.2247 -0.977391 218.632 324.247
-8.3556 -9.50683 -1.10156 212.52 325.52
-10.5048 -9.27615 -1.09011 206.235 325.781
4.83678 -11.0227 -0.887733 253.467 323.917
6.66716 -12.3254 -1.11779 259.21 320.686
8.99246 -12.4738 -0.968074 265.987 320.576
11.0209 -11.4279 -0.742362 271.813 323.801
9.08377 -10.6753 -0.948989 265.843 325.166
6.92444 -10.5977 -0.987214 259.579 325.027
-6.63855 8.84013 -2.74685 209.523 378.727
-4.73902 6.8457 -4.89305 217.784 374.706
-2.32888 5.4219 -6.54708 227.157 372.773
0.427259 5.35547 -8.22771 236.693 373.709
3.15408 5.03248 -6.48681 246.239 372.604
5.72158 6.09946 -4.80547 255.635 374.342
7.86034 7.80446 -2.63884 263.915 378.232
6.14905 9.90529 -3.93286 256.739 385.618
3.75933 11.3254 -5.28293 247.305 390.229
0.883179 11.8243 -6.67982 236.812 391.569
-2.0422 11.738 -5.34336 226.386 390.377
-4.62825 10.6744 -4.02161 216.883 385.965
-2.38864 7.57584 -5.20395 225.202 378.373
0.55887 7.21472 -7.41824 236.763 379.16
3.50364 7.15671 -5.14457 248.33 378.191
3.65722 8.62822 -4.49552 248.88 382.393
0.689237 9.10764 -6.42523 236.814 383.763
-2.33557 9.05505 -4.5521 224.772 382.616
3 20 21 23
3 21 22 23
3 0 1 36
3 15 16 45
3 0 17 36
3 16 26 45
3 17 18 37
3 25 26 44
3 17 36 37
3 26 44 45
3 18 19 38
3 24 25 43
3 18 37 38
3 25 43 44
3 19 20 38
3 23 24 43
3 20 21 39
3 22 23 42
3 20 38 39
3 23 42 43
3 21 22 27
3 21 27 39
3 22 27 42
3 27 28 42
3 27 28 39
3 28 42 47
3 28 39 40
3 1 36 41
3 15 45 46
3 1 2 41
3 14 15 46
3 28 29 40
3 28 29 47
3 2 40 41
3 14 46 47
3 2 29 40
3 14 29 47
3 2 3 29
3 13 14 29
3 29 30 31
3 29 30 35
3 3 29 31
3 13 29 35
3 30 32 33
3 30 33 34
3 30 31 32
3 30 34 35
3 3 4 31
3 12 13 35
3 4 5 48
3 11 12 54
3 5 6 48
3 10 11 54
3 6 48 59
3 10 54 55
3 6 7 59
3 9 10 55
3 7 58 59
3 9 55 56
3 8 57 58
3 8 56 57
3 7 8 58
3 8 9 56
3 4 31 48
3 12 35 54
3 31 48 49
3 35 53 54
3 31 49 50
3 35 52 53
3 31 32 50
3 34 35 52
3 32 33 50
3 33 34 52
3 33 50 51
3 33 51 52
3 48 49 60
3 49 60 50
3 50 60 61
3 50 51 61
3 51 52 61
3 61 62 52
3 52 53 62
3 53 54 62
3 54 55 63
3 55 56 63
3 56 63 64
3 56 57 64
3 64 65 57
3 57 58 65
3 58 59 65
3 48 59 65
