ply
format ascii 1.0
element vertex 66
property float x
property float y
property float z
property float u
property float v
element face 91
property list uchar int vertex_indices
end_header
-20.6547 -5.64822 21.3079 171.581 214.07
-20.0519 -0.423649 20.8425 172.737 231.717
-19.1146 4.7667 20.4846 174.974 249.317
-17.7568 9.73356 18.3869 178.329 266.355
-15.6469 14.1974 13.4633 184.066 281.908
-12.4006 17.9009 7.99404 193.796 295.004
-8.27017 20.7526 3.29433 206.263 305.672
-3.55056 22.6779 -0.880153 221.043 313.09
1.65875 22.9008 -4.53572 237.806 315.054
6.75338 21.9412 -0.807894 255.571 311.428
11.0958 19.3665 3.41769 271.035 302.502
14.7165 15.9593 8.15704 284.067 290.479
17.3322 11.8354 13.6544 294.157 276.221
18.7221 7.12069 18.5937 299.918 259.954
19.3316 2.01325 20.7063 302.386 242.523
19.5157 -3.2566 21.0748 303.166 224.668
19.3623 -8.51341 21.5385 302.877 206.87
-16.9434 -14.0024 0.166523 184.384 189.782
-14.6923 -16.1532 -1.56921 192.422 185.236
-11.7473 -17.1684 -2.95979 201.339 183.616
-8.64008 -17.2567 -4.29633 210.333 184.029
-5.61118 -16.6863 -5.52226 218.935 186.413
3.24342 -17.3161 -5.43542 244.733 185.429
6.14406 -18.3113 -4.17859 253.573 182.292
9.21432 -18.6656 -2.80935 262.998 181.092
12.2557 -18.0793 -1.38764 272.531 181.982
14.7675 -16.2699 0.371491 281.513 185.853
-0.800008 -11.6067 -4.9545 232.59 202.011
-0.571382 -8.59445 -7.76035 232.573 213.804
-0.341526 -5.60559 -10.6633 232.532 225.531
-0.111056 -2.62069 -13.4075 232.537 237.245
-3.34691 0.90089 -6.47077 220.648 242.824
-1.6415 1.2941 -7.26957 227.009 245.582
0.142254 1.35258 -8.01839 233.937 246.643
1.89493 1.04463 -7.21848 240.889 245.021
3.5165 0.412997 -6.40175 247.201 241.746
-12.5316 -9.74495 -0.905324 193.91 204.97
-10.6698 -11.0691 -1.10649 200.944 201.465
-8.3451 -11.2534 -1.2279 208.868 201.487
-6.35058 -10.2247 -0.977391 215.651 205.255
-8.3556 -9.50683 -1.10156 208.236 206.101
-10.5048 -9.27615 -1.09011 200.842 206.297
4.83678 -11.0227 -0.887733 251.507 203.731
6.66716 -12.3254 -1.11779 257.881 199.465
8.99246 -12.4738 -0.968074 265.911 198.859
11.0209 -11.4279 -0.742362 273.328 201.801
9.08377 -10.6753 -0.948989 266.356 203.623
6.92444 -10.5977 -0.987214 258.968 204.019
-6.63855 8.84013 -2.74685 205.648 257.12
-4.73902 6.8457 -4.89305 212.721 250.046
-2.32888 5.4219 -6.54708 223.041 247.253
0.427259 5.35547 -8.22771 233.839 247.05
3.15408 5.03248 -6.48681 245.267 246.365
5.72158 6.09946 -4.80547 256.38 248.308
7.86034 7.80446 -2.63884 264.804 254.752
6.14905 9.90529 -3.93286 258.676 266.738
3.75933 11.3254 -5.28293 248.642 275.565
0.883179 11.8243 -6.67982 235.473 278.268
-2.0422 11.738 -5.34336 222.563 276.645
-4.62825 10.6744 -4.02161 212.227 268.644
-2.38864 7.57584 -5.20395 220.654 253.918
0.55887 7.21472 -7.41824 234.196 253.527
3.50364 7.15671 -5.14457 248.615 252.779
3.65722 8.62822 -4.49552 250.229 265.293
0.689237 9.10764 -6.42523 235.058 268.669
-2.33557 9.05505 -4.5521 220.341 266.517
3 20 21 23
3 21 22 23
3 0 1 36
3 15 16 45
3 0 17 36
3 16 26 45
3 17 18 37
3 25 26 44
3 17 36 37
3 26 44 45
3 18 19 38
3 24 25 43
3 18 37 38
3 25 43 44
3 19 20 38
3 23 24 43
3 20 21 39
3 22 23 42
3 20 38 39
3 23 42 43
3 21 22 27
3 21 27 39
3 22 27 42
3 27 28 42
3 27 28 39
3 28 42 47
3 28 39 40
3 1 36 41
3 15 45 46
3 1 2 41
3 14 15 46
3 28 29 40
3 28 29 47
3 2 40 41
3 14 46 47
3 2 29 40
3 14 29 47
3 2 3 29
3 13 14 29
3 29 30 31
3 29 30 35
3 3 29 31
3 13 29 35
3 30 32 33
3 30 33 34
3 30 31 32
3 30 34 35
3 3 4 31
3 12 13 35
3 4 5 48
3 11 12 54
3 5 6 48
3 10 11 54
3 6 48 59
3 10 54 55
3 6 7 59
3 9 10 55
3 7 58 59
3 9 55 56
3 8 57 58
3 8 56 57
3 7 8 58
3 8 9 56
3 4 31 48
3 12 35 54
3 31 48 49
3 35 53 54
3 31 49 50
3 35 52 53
3 31 32 50
3 34 35 52
3 32 33 50
3 33 34 52
3 33 50 51
3 33 51 52
3 48 49 60
3 49 60 50
3 50 60 61
3 50 51 61
3 51 52 61
3 61 62 52
3 52 53 62
3 53 54 62
3 54 55 63
3 55 56 63
3 56 63 64
3 56 57 64
3 64 65 57
3 57 58 65
3 58 59 65
3 48 59 65
