ply
format ascii 1.0
element vertex 66
property float x
property float y
property float z
property float u
property float v
element face 91
property list uchar int vertex_indices
end_header
175.281 367.005 0 175.281 367.005
175.92 384.254 0 175.92 384.254
177.404 401.452 0 177.404 401.452
179.764 419.115 0 179.764 419.115
184.348 436.806 0 184.348 436.806
192.943 452.472 0 192.943 452.472
204.686 465.177 0 204.686 465.177
218.526 474.859 0 218.526 474.859
234.332 479.374 0 234.332 479.374
251.562 475.481 0 251.562 475.481
266.778 465.71 0 266.778 465.71
280.106 452.944 0 280.106 452.944
290.91 437.527 0 290.91 437.527
298.068 420.413 0 298.068 420.413
302.175 403.396 0 302.175 403.396
304.61 386.823 0 304.61 386.823
305.968 370.138 0 305.968 370.138
185.086 351.056 0 185.086 351.056
193.127 345.366 0 193.127 345.366
203.317 343.603 0 203.317 343.603
213.818 345.117 0 213.818 345.117
223.831 348.93 0 223.831 348.93
252.868 350.248 0 252.868 350.248
263.106 347.131 0 263.106 347.131
273.793 346.293 0 273.793 346.293
284.031 348.631 0 284.031 348.631
291.958 354.76 0 291.958 354.76
238.416 367.673 0 238.416 367.673
237.73 379.203 0 237.73 379.203
237.009 390.708 0 237.009 390.708
236.302 402.116 0 236.302 402.116
225.143 405.89 0 225.143 405.89
230.952 408.388 0 230.952 408.388
237.112 409.737 0 237.112 409.737
243.253 408.797 0 243.253 408.797
249.125 406.678 0 249.125 406.678
197.366 368.097 0 197.366 368.097
204.45 364.389 0 204.45 364.389
212.737 364.795 0 212.737 364.795
219.512 369.033 0 219.512 369.033
212.061 370.478 0 212.061 370.478
204.42 370.398 0 204.42 370.398
257.03 370.368 0 257.03 370.368
263.826 366.711 0 263.826 366.711
272.072 366.703 0 272.072 366.703
278.894 370.833 0 278.894 370.833
271.773 372.708 0 271.773 372.708
264.243 372.231 0 264.243 372.231
206.916 424.972 0 206.916 424.972
215.477 420.368 0 215.477 420.368
225.918 418.283 0 225.918 418.283
236.84 419.775 0 236.84 419.775
248.113 418.88 0 248.113 418.88
258.662 421.471 0 258.662 421.471
267.154 426.606 0 267.154 426.606
259.837 437.188 0 259.837 437.188
249.282 444.555 0 249.282 444.555
236.401 446.822 0 236.401 446.822
223.863 443.849 0 223.863 443.849
213.732 435.962 0 213.732 435.962
222.802 423.688 0 222.802 423.688
236.833 425.174 0 236.833 425.174
251.329 424.5 0 251.329 424.5
252.016 435.235 0 252.016 435.235
236.72 438.23 0 236.72 438.23
221.875 434.448 0 221.875 434.448
3 20 21 23
3 21 22 23
3 0 1 36
3 15 16 45
3 0 17 36
3 16 26 45
3 17 18 37
3 25 26 44
3 17 36 37
3 26 44 45
3 18 19 38
3 24 25 43
3 18 37 38
3 25 43 44
3 19 20 38
3 23 24 43
3 20 21 39
3 22 23 42
3 20 38 39
3 23 42 43
3 21 22 27
3 21 27 39
3 22 27 42
3 27 28 42
3 27 28 39
3 28 42 47
3 28 39 40
3 1 36 41
3 15 45 46
3 1 2 41
3 14 15 46
3 28 29 40
3 28 29 47
3 2 40 41
3 14 46 47
3 2 29 40
3 14 29 47
3 2 3 29
3 13 14 29
3 29 30 31
3 29 30 35
3 3 29 31
3 13 29 35
3 30 32 33
3 30 33 34
3 30 31 32
3 30 34 35
3 3 4 31
3 12 13 35
3 4 5 48
3 11 12 54
3 5 6 48
3 10 11 54
3 6 48 59
3 10 54 55
3 6 7 59
3 9 10 55
3 7 58 59
3 9 55 56
3 8 57 58
3 8 56 57
3 7 8 58
3 8 9 56
3 4 31 48
3 12 35 54
3 31 48 49
3 35 53 54
3 31 49 50
3 35 52 53
3 31 32 50
3 34 35 52
3 32 33 50
3 33 34 52
3 33 50 51
3 33 51 52
3 48 49 60
3 49 60 50
3 50 60 61
3 50 51 61
3 51 52 61
3 61 62 52
3 52 53 62
3 53 54 62
3 54 55 63
3 55 56 63
3 56 63 64
3 56 57 64
3 64 65 57
3 57 58 65
3 58 59 65
3 48 59 65
