ply
format ascii 1.0
element vertex 66
property float x
property float y
property float z
property float u
property float v
element face 91
property list uchar int vertex_indices
end_header
-20.4225 -5.38356 21.4716 129.377 231.403
-19.645 -0.168989 20.8262 131.319 262.562
-18.513 5.013 20.4643 135.434 293.421
-17.1833 9.95814 18.5329 140.374 324.635
-15.2806 14.3389 13.5169 148.065 356.071
-12.2368 17.9853 7.98638 162.639 384.382
-8.2436 20.8214 3.32584 183.401 407.6
-3.54414 22.5705 -0.861495 208.942 424.414
1.6266 22.5932 -4.4358 238.223 430.871
6.68549 21.7181 -0.755208 269.317 424.593
10.9231 19.1632 3.51436 296.547 407.593
14.3269 15.7132 8.19916 319.425 384.573
16.7521 11.6876 13.7191 337.074 356.869
18.0716 7.18664 18.6793 348.306 326.437
18.7595 2.25297 20.6585 355.197 296.267
19.1938 -2.89106 20.9918 360.236 266.455
19.2539 -8.01994 21.581 363.147 236.275
-17.2307 -14.4811 0.267854 146.336 202.431
-14.9701 -16.8837 -1.55619 160.189 191.6
-11.9672 -18.1856 -2.89584 178.015 187
-8.72867 -18.4875 -4.14303 196.782 188.195
-5.55266 -18.0189 -5.33388 214.839 193.747
2.96359 -18.4931 -5.28138 264.981 195.292
6.03111 -19.3934 -4.04896 283.725 190.384
9.27537 -19.5448 -2.75303 303.174 189.823
12.4262 -18.6687 -1.37475 321.618 195.059
14.9754 -16.584 0.455349 336.102 206.498
-0.847709 -12.0616 -4.81932 239.778 229.994
-0.641056 -8.54226 -7.79974 238.506 253.491
-0.434726 -5.05224 -10.8522 237.225 276.894
-0.220653 -1.55488 -13.6277 236.065 300.056
-3.39041 2.33456 -6.83985 217.592 313.876
-1.66858 2.82135 -7.4901 227.272 318.234
0.15718 2.90226 -8.05638 237.773 320.216
1.96589 2.57501 -7.42691 248.703 318.598
3.60235 1.85293 -6.77647 258.813 314.591
-12.8875 -9.95749 -0.69667 169.406 231.748
-10.8411 -11.5977 -1.10271 182.048 223.743
-8.20135 -11.708 -1.36893 197.494 224.726
-6.01844 -10.216 -1.07282 209.674 234.142
-8.2808 -9.51754 -1.16734 196.064 237.119
-10.6695 -9.3084 -1.06929 181.996 237.009
4.66624 -10.9455 -1.09719 272.621 235.397
6.61268 -12.6772 -1.29223 284.78 226.595
9.21677 -12.9142 -0.936362 300.251 226.185
11.4385 -11.5562 -0.456896 312.773 234.659
9.34442 -10.6321 -0.912482 299.941 239.397
6.96917 -10.535 -1.09216 285.926 238.933
-6.33978 9.04042 -2.65908 198.362 346.758
-4.30248 7.35241 -5.033 210.417 340.506
-1.98857 6.18399 -6.73217 224.042 336.696
0.49477 6.16561 -8.4337 238.123 339.613
2.96288 5.82736 -6.59039 253.265 337.012
5.41291 6.6329 -4.87832 267.73 341.14
7.65655 8.01065 -2.53885 280.896 347.816
5.79066 9.59273 -3.78544 268.872 357.286
3.45574 10.5747 -5.05954 254.371 363.081
0.895137 10.8752 -6.49238 238.821 364.992
-1.70236 10.9639 -5.17862 223.929 362.824
-4.21169 10.3519 -3.91734 209.866 356.711
-1.99743 8.29377 -5.27105 223.419 347.359
0.659697 8.05164 -7.48483 238.478 349.602
3.33308 7.90002 -5.18302 254.865 347.709
3.38533 8.05965 -4.49543 255.291 347.946
0.68336 8.15286 -6.46227 238.858 349.141
-2.00062 8.46278 -4.60177 223.511 347.641
3 20 21 23
3 21 22 23
3 0 1 36
3 15 16 45
3 0 17 36
3 16 26 45
3 17 18 37
3 25 26 44
3 17 36 37
3 26 44 45
3 18 19 38
3 24 25 43
3 18 37 38
3 25 43 44
3 19 20 38
3 23 24 43
3 20 21 39
3 22 23 42
3 20 38 39
3 23 42 43
3 21 22 27
3 21 27 39
3 22 27 42
3 27 28 42
3 27 28 39
3 28 42 47
3 28 39 40
3 1 36 41
3 15 45 46
3 1 2 41
3 14 15 46
3 28 29 40
3 28 29 47
3 2 40 41
3 14 46 47
3 2 29 40
3 14 29 47
3 2 3 29
3 13 14 29
3 29 30 31
3 29 30 35
3 3 29 31
3 13 29 35
3 30 32 33
3 30 33 34
3 30 31 32
3 30 34 35
3 3 4 31
3 12 13 35
3 4 5 48
3 11 12 54
3 5 6 48
3 10 11 54
3 6 48 59
3 10 54 55
3 6 7 59
3 9 10 55
3 7 58 59
3 9 55 56
3 8 57 58
3 8 56 57
3 7 8 58
3 8 9 56
3 4 31 48
3 12 35 54
3 31 48 49
3 35 53 54
3 31 49 50
3 35 52 53
3 31 32 50
3 34 35 52
3 32 33 50
3 33 34 52
3 33 50 51
3 33 51 52
3 48 49 60
3 49 60 50
3 50 60 61
3 50 51 61
3 51 52 61
3 61 62 52
3 52 53 62
3 53 54 62
3 54 55 63
3 55 56 63
3 56 63 64
3 56 57 64
3 64 65 57
3 57 58 65
3 58 59 65
3 48 59 65
