ply
format ascii 1.0
element vertex 66
property float x
property float y
property float z
property float u
property float v
element face 91
property list uchar int vertex_indices
end_header
-20.1462 -5.45671 21.1974 183.298 389.762
-19.5603 -0.355095 20.6289 184.271 404.879
-18.5863 4.71383 20.3578 186.443 419.764
-17.2902 9.46122 18.3859 189.306 434.936
-15.3532 13.6147 13.6383 193.644 450.398
-12.3615 17.1386 8.09578 201.028 464.769
-8.41084 19.9066 3.32698 211.468 476.604
-3.77973 21.7683 -0.822173 224.136 485.531
1.42209 21.8547 -4.309 238.829 489.009
6.57797 21.2878 -0.828084 254.695 485.867
10.9526 19.0468 3.41261 268.609 477.277
14.5621 15.9507 8.19234 280.473 465.742
17.0865 12.1527 13.7764 289.374 451.467
18.3557 7.68658 18.674 294.543 435.535
18.9342 2.58937 20.7202 297.258 419.618
19.2284 -2.81 21.1158 298.883 403.911
19.1763 -8.19087 21.6377 299.509 388.113
-16.8443 -14.6432 0.182258 190.498 378.249
-14.615 -16.5869 -1.43092 197.026 374.138
-11.8263 -17.4527 -2.85243 205.098 373.082
-8.94653 -17.5504 -4.2475 213.345 374.226
-6.15997 -17.1144 -5.58975 221.258 376.85
3.02014 -17.7578 -5.39985 248.404 376.391
5.96053 -18.7172 -4.05864 257.421 373.212
9.07146 -19.0881 -2.67183 266.872 371.719
12.1947 -18.5245 -1.26523 276.244 372.895
14.8301 -16.7062 0.375438 284.06 377.429
-1.12694 -12.0713 -5.01124 235.535 391.753
-0.865012 -9.15411 -7.75024 235.452 402.026
-0.598232 -6.27385 -10.6546 235.358 412.307
-0.319154 -3.38967 -13.4447 235.321 422.524
-3.5243 1.64235 -6.60978 226.442 431.78
-1.7749 2.03341 -7.38292 231.408 433.716
0.0622822 2.03534 -8.02802 236.703 434.464
1.95219 1.72365 -7.33157 242.431 433.408
3.67906 1.02763 -6.65839 247.723 431.239
-12.9356 -10.053 -0.787355 201.249 392.72
-11.0215 -11.5839 -0.984477 207.047 388.779
-8.54368 -11.6842 -1.16765 214.323 389.025
-6.52352 -10.3591 -1.09887 220.114 393.112
-8.60522 -9.55972 -1.24262 213.857 395.159
-10.8706 -9.32861 -1.1308 207.177 395.372
4.76238 -11.2311 -0.91903 253.489 392.352
6.58557 -12.8985 -1.09396 259.039 387.989
9.07104 -13.1439 -0.839478 266.434 387.523
11.2419 -11.9738 -0.530902 272.731 391.028
9.29189 -10.9324 -0.902851 266.79 393.946
6.98754 -10.7936 -1.0207 259.967 394.044
-5.84449 9.72003 -2.78445 219.251 451.965
-4.00147 7.83716 -4.93283 224.541 448.33
-1.83971 6.3728 -6.68686 230.785 445.679
0.625358 6.24164 -8.49101 237.742 446.937
3.11499 5.97147 -6.60684 245.439 445.292
5.52264 7.05228 -4.84651 252.7 447.592
7.72525 8.54173 -2.65624 259.38 450.739
5.9658 10.2437 -3.97384 253.75 456.226
3.68955 11.3589 -5.27629 246.676 459.935
1.05118 11.7085 -6.54821 238.639 461.367
-1.5519 11.799 -5.34077 231.175 460.376
-3.92687 11.1026 -4.01289 224.505 457.083
-1.91742 8.52523 -5.19414 230.543 450.825
0.763681 8.03562 -7.46351 238.101 451.407
3.50675 8.05684 -5.25543 246.564 450.419
3.55915 8.83049 -4.62901 246.729 452.221
0.822604 9.06526 -6.38994 238.332 453.64
-1.87782 9.28761 -4.56329 230.673 452.59
3 20 21 23
3 21 22 23
3 0 1 36
3 15 16 45
3 0 17 36
3 16 26 45
3 17 18 37
3 25 26 44
3 17 36 37
3 26 44 45
3 18 19 38
3 24 25 43
3 18 37 38
3 25 43 44
3 19 20 38
3 23 24 43
3 20 21 39
3 22 23 42
3 20 38 39
3 23 42 43
3 21 22 27
3 21 27 39
3 22 27 42
3 27 28 42
3 27 28 39
3 28 42 47
3 28 39 40
3 1 36 41
3 15 45 46
3 1 2 41
3 14 15 46
3 28 29 40
3 28 29 47
3 2 40 41
3 14 46 47
3 2 29 40
3 14 29 47
3 2 3 29
3 13 14 29
3 29 30 31
3 29 30 35
3 3 29 31
3 13 29 35
3 30 32 33
3 30 33 34
3 30 31 32
3 30 34 35
3 3 4 31
3 12 13 35
3 4 5 48
3 11 12 54
3 5 6 48
3 10 11 54
3 6 48 59
3 10 54 55
3 6 7 59
3 9 10 55
3 7 58 59
3 9 55 56
3 8 57 58
3 8 56 57
3 7 8 58
3 8 9 56
3 4 31 48
3 12 35 54
3 31 48 49
3 35 53 54
3 31 49 50
3 35 52 53
3 31 32 50
3 34 35 52
3 32 33 50
3 33 34 52
3 33 50 51
3 33 51 52
3 48 49 60
3 49 60 50
3 50 60 61
3 50 51 61
3 51 52 61
3 61 62 52
3 52 53 62
3 53 54 62
3 54 55 63
3 55 56 63
3 56 63 64
3 56 57 64
3 64 65 57
3 57 58 65
3 58 59 65
3 48 59 65
