ply
format ascii 1.0
element vertex 66
property float x
property float y
property float z
property float u
property float v
element face 91
property list uchar int vertex_indices
end_header
-20.9326 -5.03235 21.4066 160.459 390.717
-20.1004 -0.000692783 20.8158 162.339 410.638
-18.8884 4.98632 20.5114 165.736 430.305
-17.3815 9.70745 18.5407 170.191 450.102
-15.2351 13.8212 13.4468 176.998 469.745
-12.0635 17.2263 8.03935 187.95 487.147
-8.08861 19.9112 3.44697 202.29 501.478
-3.51725 21.6812 -0.833192 219.218 512.259
1.54089 21.7343 -4.34186 238.558 516.086
6.50073 20.9548 -0.784851 258.398 512.154
10.6736 18.5422 3.57008 275.674 501.229
14.1566 15.3516 8.18847 290.491 486.96
16.7906 11.5941 13.6049 302.226 469.773
18.3443 7.27975 18.7194 309.873 450.35
19.1882 2.44518 20.7419 314.6 430.721
19.7109 -2.61897 21.0751 317.977 411.209
19.8524 -7.67901 21.6319 319.89 391.466
-17.9678 -14.1766 0.295239 172.372 369.969
-15.6121 -16.5136 -1.50498 181.975 362.792
-12.4922 -17.6143 -2.90318 194.27 360.309
-9.20011 -17.7091 -4.23669 206.981 361.693
-5.98905 -17.135 -5.44695 219.215 365.544
3.47078 -17.7943 -5.3248 256.212 365.498
6.57179 -18.8311 -4.08599 268.666 361.564
9.84973 -19.2135 -2.72136 281.651 360.108
13.1014 -18.5614 -1.29587 294.271 362.578
15.7565 -16.559 0.529728 304.258 369.812
-0.86406 -11.7645 -4.88208 237.823 387.186
-0.633798 -8.44534 -7.84228 237.58 401.89
-0.3998 -5.15318 -10.8549 237.354 416.525
-0.159571 -1.85199 -13.5629 237.178 431.001
-3.32877 2.0518 -6.71221 224.48 440.731
-1.63098 2.51881 -7.48776 230.893 443.482
0.166778 2.58297 -8.15967 237.81 444.646
1.95572 2.26214 -7.43115 244.924 443.432
3.57166 1.54838 -6.67435 251.469 440.644
-13.1159 -10.0464 -0.75014 190.087 387.81
-11.1535 -11.6399 -1.00948 198.112 382.391
-8.60816 -11.7904 -1.18249 208.04 382.614
-6.5095 -10.3873 -1.02023 215.86 388.465
-8.66448 -9.6189 -1.13956 207.263 390.907
-10.9742 -9.39744 -1.07588 198.223 391.09
4.95691 -11.217 -0.93484 260.707 388.332
6.83116 -12.9037 -1.07998 268.424 382.458
9.36566 -13.118 -0.844173 278.366 382.171
11.5355 -11.8267 -0.517922 286.507 387.507
9.5149 -10.8738 -0.889704 278.361 390.856
7.19825 -10.7644 -0.996068 269.307 390.716
-6.04993 9.29078 -2.77873 212.387 465.258
-4.09978 7.62062 -5.05236 220.194 460.834
-1.88951 6.37338 -6.72312 228.961 457.718
0.534059 6.39179 -8.47842 238.223 459.572
2.93764 6.01317 -6.6329 247.849 457.585
5.30102 6.90513 -4.94826 256.975 460.568
7.46998 8.25949 -2.66728 265.28 464.891
5.67667 9.81967 -3.87925 257.783 471.172
3.40725 10.7706 -5.17258 248.582 475.038
0.90379 11.0846 -6.5282 238.63 476.435
-1.6108 11.1517 -5.24717 228.948 475.189
-4.02283 10.5668 -3.96501 219.833 471.467
-1.66038 8.46524 -5.39801 229.436 464.959
0.683418 8.21926 -7.51659 238.421 466.01
3.03918 8.10507 -5.35487 247.823 464.823
3.03509 8.17966 -4.60304 247.859 464.625
0.691687 8.28185 -6.44663 238.538 465.566
-1.63545 8.53921 -4.64439 229.585 464.766
3 20 21 23
3 21 22 23
3 0 1 36
3 15 16 45
3 0 17 36
3 16 26 45
3 17 18 37
3 25 26 44
3 17 36 37
3 26 44 45
3 18 19 38
3 24 25 43
3 18 37 38
3 25 43 44
3 19 20 38
3 23 24 43
3 20 21 39
3 22 23 42
3 20 38 39
3 23 42 43
3 21 22 27
3 21 27 39
3 22 27 42
3 27 28 42
3 27 28 39
3 28 42 47
3 28 39 40
3 1 36 41
3 15 45 46
3 1 2 41
3 14 15 46
3 28 29 40
3 28 29 47
3 2 40 41
3 14 46 47
3 2 29 40
3 14 29 47
3 2 3 29
3 13 14 29
3 29 30 31
3 29 30 35
3 3 29 31
3 13 29 35
3 30 32 33
3 30 33 34
3 30 31 32
3 30 34 35
3 3 4 31
3 12 13 35
3 4 5 48
3 11 12 54
3 5 6 48
3 10 11 54
3 6 48 59
3 10 54 55
3 6 7 59
3 9 10 55
3 7 58 59
3 9 55 56
3 8 57 58
3 8 56 57
3 7 8 58
3 8 9 56
3 4 31 48
3 12 35 54
3 31 48 49
3 35 53 54
3 31 49 50
3 35 52 53
3 31 32 50
3 34 35 52
3 32 33 50
3 33 34 52
3 33 50 51
3 33 51 52
3 48 49 60
3 49 60 50
3 50 60 61
3 50 51 61
3 51 52 61
3 61 62 52
3 52 53 62
3 53 54 62
3 54 55 63
3 55 56 63
3 56 63 64
3 56 57 64
3 64 65 57
3 57 58 65
3 58 59 65
3 48 59 65
