ply
format ascii 1.0
element vertex 66
property float x
property float y
property float z
property float u
property float v
element face 91
property list uchar int vertex_indices
end_header
254.32 206.741 0 254.32 206.741
260.125 237.054 0 260.125 237.054
268.259 266.842 0 268.259 266.842
279.62 296.88 0 279.62 296.88
296.304 326.163 0 296.304 326.163
319.302 350.457 0 319.302 350.457
346.271 368.801 0 346.271 368.801
375.855 381.288 0 375.855 381.288
407.132 383.95 0 407.132 383.95
437.195 373.144 0 437.195 373.144
463.039 353.565 0 463.039 353.565
485.241 329.206 0 485.241 329.206
502.108 299.868 0 502.108 299.868
511.258 266.907 0 511.258 266.907
514.823 234.3 0 514.823 234.3
515.23 202.679 0 515.23 202.679
513.352 171.112 0 513.352 171.112
279.431 170.001 0 279.431 170.001
292.139 156.991 0 292.139 156.991
309.969 149.98 0 309.969 149.98
329.558 148.522 0 329.558 148.522
349.189 150.952 0 349.189 150.952
404.744 142.873 0 404.744 142.873
423.425 135.214 0 423.425 135.214
443.099 131.398 0 443.099 131.398
462.548 133.616 0 462.548 133.616
478.626 143.05 0 478.626 143.05
380.035 177.865 0 380.035 177.865
382.323 198.158 0 382.323 198.158
384.659 218.412 0 384.659 218.412
387.006 238.47 0 387.006 238.47
368.327 257.309 0 368.327 257.309
378.98 259.822 0 378.98 259.822
389.964 260.323 0 389.964 260.323
400.833 257.003 0 400.833 257.003
410.848 251.837 0 410.848 251.837
308.488 193.218 0 308.488 193.218
319.555 184.198 0 319.555 184.198
334.166 181.876 0 334.166 181.876
347.577 186.545 0 347.577 186.545
335.215 192.079 0 335.215 192.079
321.729 194.742 0 321.729 194.742
416.15 177.024 0 416.15 177.024
427.922 168.878 0 427.922 168.878
442.77 167.429 0 442.77 167.429
455.939 173.311 0 455.939 173.311
443.44 178.213 0 443.44 178.213
429.647 179.205 0 429.647 179.205
349.069 301.227 0 349.069 301.227
361.108 291.193 0 361.108 291.193
376.12 283.972 0 376.12 283.972
393.347 284.557 0 393.347 284.557
410.265 279.508 0 410.265 279.508
426.955 282.63 0 426.955 282.63
441.655 289.071 0 441.655 289.071
429.305 300.579 0 429.305 300.579
413.858 308.306 0 413.858 308.306
397.023 312.613 0 397.023 312.613
380.072 312.791 0 380.072 312.791
363.419 309.324 0 363.419 309.324
376.44 295.12 0 376.44 295.12
394.69 294.811 0 394.69 294.811
412.832 290.343 0 412.832 290.343
413.172 293.005 0 413.172 293.005
395.008 297.582 0 395.008 297.582
376.695 297.824 0 376.695 297.824
3 20 21 23
3 21 22 23
3 0 1 36
3 15 16 45
3 0 17 36
3 16 26 45
3 17 18 37
3 25 26 44
3 17 36 37
3 26 44 45
3 18 19 38
3 24 25 43
3 18 37 38
3 25 43 44
3 19 20 38
3 23 24 43
3 20 21 39
3 22 23 42
3 20 38 39
3 23 42 43
3 21 22 27
3 21 27 39
3 22 27 42
3 27 28 42
3 27 28 39
3 28 42 47
3 28 39 40
3 1 36 41
3 15 45 46
3 1 2 41
3 14 15 46
3 28 29 40
3 28 29 47
3 2 40 41
3 14 46 47
3 2 29 40
3 14 29 47
3 2 3 29
3 13 14 29
3 29 30 31
3 29 30 35
3 3 29 31
3 13 29 35
3 30 32 33
3 30 33 34
3 30 31 32
3 30 34 35
3 3 4 31
3 12 13 35
3 4 5 48
3 11 12 54
3 5 6 48
3 10 11 54
3 6 48 59
3 10 54 55
3 6 7 59
3 9 10 55
3 7 58 59
3 9 55 56
3 8 57 58
3 8 56 57
3 7 8 58
3 8 9 56
3 4 31 48
3 12 35 54
3 31 48 49
3 35 53 54
3 31 49 50
3 35 52 53
3 31 32 50
3 34 35 52
3 32 33 50
3 33 34 52
3 33 50 51
3 33 51 52
3 48 49 60
3 49 60 50
3 50 60 61
3 50 51 61
3 51 52 61
3 61 62 52
3 52 53 62
3 53 54 62
3 54 55 63
3 55 56 63
3 56 63 64
3 56 57 64
3 64 65 57
3 57 58 65
3 58 59 65
3 48 59 65
