ply
format ascii 1.0
element vertex 66
property float x
property float y
property float z
property float u
property float v
element face 91
property list uchar int vertex_indices
end_header
138.762 278.425 0 138.762 278.425
141.017 305.914 0 141.017 305.914
144.713 333.268 0 144.713 333.268
150.092 360.896 0 150.092 360.896
158.846 388.27 0 158.846 388.27
173.355 412.659 0 173.355 412.659
192.663 432.646 0 192.663 432.646
215.46 447.666 0 215.46 447.666
241.617 453.358 0 241.617 453.358
268.43 446.947 0 268.43 446.947
291.407 430.805 0 291.407 430.805
310.493 409.611 0 310.493 409.611
324.843 384.43 0 324.843 384.43
333.421 356.906 0 333.421 356.906
337.989 329.526 0 337.989 329.526
340.356 302.568 0 340.356 302.568
341.02 275.518 0 341.02 275.518
153.25 250.61 0 153.25 250.61
164.652 240.251 0 164.652 240.251
180.209 236.347 0 180.209 236.347
196.506 237.707 0 196.506 237.707
212.337 242.232 0 212.337 242.232
263.581 241.626 0 263.581 241.626
278.629 236.596 0 278.629 236.596
294.35 234.561 0 294.35 234.561
309.682 237.267 0 309.682 237.267
321.519 246.348 0 321.519 246.348
239.739 269.017 0 239.739 269.017
240.083 284.826 0 240.083 284.826
240.394 300.575 0 240.394 300.575
240.671 316.183 0 240.671 316.183
222.646 327.59 0 222.646 327.59
231.822 330.423 0 231.822 330.423
241.383 331.754 0 241.383 331.754
250.573 330.101 0 250.573 330.101
259.313 326.936 0 259.313 326.936
174.749 271.581 0 174.749 271.581
184.786 264.698 0 184.786 264.698
197.308 263.997 0 197.308 263.997
207.765 269.708 0 207.765 269.708
197.031 273.584 0 197.031 273.584
185.47 274.411 0 185.47 274.411
269.027 268.841 0 269.027 268.841
279.07 262.808 0 279.07 262.808
291.54 262.78 0 291.54 262.78
301.816 269.231 0 301.816 269.231
291.342 272.613 0 291.342 272.613
279.832 272.199 0 279.832 272.199
202.635 370.663 0 202.635 370.663
212.386 360.365 0 212.386 360.365
225.731 353.51 0 225.731 353.51
241.078 354.892 0 241.078 354.892
256.303 353.028 0 256.303 353.028
269.751 359.42 0 269.751 359.42
279.576 369.551 0 279.576 369.551
270.754 382.64 0 270.754 382.64
257.711 391.538 0 257.711 391.538
241.686 394.772 0 241.686 394.772
225.629 391.895 0 225.629 391.895
212.275 383.352 0 212.275 383.352
224.269 364.458 0 224.269 364.458
241.273 364.58 0 241.273 364.58
258.172 363.992 0 258.172 363.992
258.757 375.599 0 258.757 375.599
241.656 379.603 0 241.656 379.603
224.332 376.097 0 224.332 376.097
3 20 21 23
3 21 22 23
3 0 1 36
3 15 16 45
3 0 17 36
3 16 26 45
3 17 18 37
3 25 26 44
3 17 36 37
3 26 44 45
3 18 19 38
3 24 25 43
3 18 37 38
3 25 43 44
3 19 20 38
3 23 24 43
3 20 21 39
3 22 23 42
3 20 38 39
3 23 42 43
3 21 22 27
3 21 27 39
3 22 27 42
3 27 28 42
3 27 28 39
3 28 42 47
3 28 39 40
3 1 36 41
3 15 45 46
3 1 2 41
3 14 15 46
3 28 29 40
3 28 29 47
3 2 40 41
3 14 46 47
3 2 29 40
3 14 29 47
3 2 3 29
3 13 14 29
3 29 30 31
3 29 30 35
3 3 29 31
3 13 29 35
3 30 32 33
3 30 33 34
3 30 31 32
3 30 34 35
3 3 4 31
3 12 13 35
3 4 5 48
3 11 12 54
3 5 6 48
3 10 11 54
3 6 48 59
3 10 54 55
3 6 7 59
3 9 10 55
3 7 58 59
3 9 55 56
3 8 57 58
3 8 56 57
3 7 8 58
3 8 9 56
3 4 31 48
3 12 35 54
3 31 48 49
3 35 53 54
3 31 49 50
3 35 52 53
3 31 32 50
3 34 35 52
3 32 33 50
3 33 34 52
3 33 50 51
3 33 51 52
3 48 49 60
3 49 60 50
3 50 60 61
3 50 51 61
3 51 52 61
3 61 62 52
3 52 53 62
3 53 54 62
3 54 55 63
3 55 56 63
3 56 63 64
3 56 57 64
3 64 65 57
3 57 58 65
3 58 59 65
3 48 59 65
