ply
format ascii 1.0
element vertex 66
property float x
property float y
property float z
property float u
property float v
element face 91
property list uchar int vertex_indices
end_header
170.032 330.629 0 170.032 330.629
168.559 348.821 0 168.559 348.821
168.124 366.976 0 168.124 366.976
168.685 385.911 0 168.685 385.911
171.415 405.671 0 171.415 405.671
177.841 424.226 0 177.841 424.226
187.407 440.669 0 187.407 440.669
199.638 454.473 0 199.638 454.473
215.276 462.779 0 215.276 462.779
234.839 460.932 0 234.839 460.932
252.916 451.917 0 252.916 451.917
269.311 439.144 0 269.311 439.144
283.676 423.502 0 283.676 423.502
294.588 405.58 0 294.588 405.58
301.808 387.615 0 301.808 387.615
306.891 369.951 0 306.891 369.951
310.697 351.92 0 310.697 351.92
182.787 320.067 0 182.787 320.067
191.579 315.146 0 191.579 315.146
202.332 314.142 0 202.332 314.142
213.217 316.697 0 213.217 316.697
223.4 321.648 0 223.4 321.648
253.529 326.678 0 253.529 326.678
264.721 325.135 0 264.721 325.135
275.974 326.095 0 275.974 326.095
286.194 330.154 0 286.194 330.154
293.689 337.273 0 293.689 337.273
236.842 343.302 0 236.842 343.302
234.52 356.984 0 234.52 356.984
232.158 370.61 0 232.158 370.61
229.811 384.045 0 229.811 384.045
216.311 386.036 0 216.311 386.036
222.551 390.197 0 222.551 390.197
229.57 392.82 0 229.57 392.82
236.813 392.505 0 236.813 392.505
243.769 390.521 0 243.769 390.521
194.142 337.697 0 194.142 337.697
201.978 334.877 0 201.978 334.877
210.518 336.451 0 210.518 336.451
217.114 341.701 0 217.114 341.701
209.185 341.986 0 209.185 341.986
201.267 340.886 0 201.267 340.886
254.22 347.817 0 254.22 347.817
261.792 344.919 0 261.792 344.919
270.467 345.848 0 270.467 345.848
277.233 350.878 0 277.233 350.878
269.526 351.85 0 269.526 351.85
261.717 350.368 0 261.717 350.368
196.447 400.411 0 196.447 400.411
205.879 398.154 0 205.879 398.154
216.751 398.625 0 216.751 398.625
227.425 402.25 0 227.425 402.25
239.052 402.3 0 239.052 402.3
249.738 405.319 0 249.738 405.319
258.137 410.493 0 258.137 410.493
249.141 421.206 0 249.141 421.206
237.085 428.033 0 237.085 428.033
223.078 428.855 0 223.078 428.855
210.593 423.517 0 210.593 423.517
201.591 413.21 0 201.591 413.21
212.756 402.949 0 212.756 402.949
226.672 407.104 0 226.672 407.104
241.571 407.741 0 241.571 407.741
240.945 418.809 0 240.945 418.809
224.743 420.365 0 224.743 420.365
210.218 413.749 0 210.218 413.749
3 20 21 23
3 21 22 23
3 0 1 36
3 15 16 45
3 0 17 36
3 16 26 45
3 17 18 37
3 25 26 44
3 17 36 37
3 26 44 45
3 18 19 38
3 24 25 43
3 18 37 38
3 25 43 44
3 19 20 38
3 23 24 43
3 20 21 39
3 22 23 42
3 20 38 39
3 23 42 43
3 21 22 27
3 21 27 39
3 22 27 42
3 27 28 42
3 27 28 39
3 28 42 47
3 28 39 40
3 1 36 41
3 15 45 46
3 1 2 41
3 14 15 46
3 28 29 40
3 28 29 47
3 2 40 41
3 14 46 47
3 2 29 40
3 14 29 47
3 2 3 29
3 13 14 29
3 29 30 31
3 29 30 35
3 3 29 31
3 13 29 35
3 30 32 33
3 30 33 34
3 30 31 32
3 30 34 35
3 3 4 31
3 12 13 35
3 4 5 48
3 11 12 54
3 5 6 48
3 10 11 54
3 6 48 59
3 10 54 55
3 6 7 59
3 9 10 55
3 7 58 59
3 9 55 56
3 8 57 58
3 8 56 57
3 7 8 58
3 8 9 56
3 4 31 48
3 12 35 54
3 31 48 49
3 35 53 54
3 31 49 50
3 35 52 53
3 31 32 50
3 34 35 52
3 32 33 50
3 33 34 52
3 33 50 51
3 33 51 52
3 48 49 60
3 49 60 50
3 50 60 61
3 50 51 61
3 51 52 61
3 61 62 52
3 52 53 62
3 53 54 62
3 54 55 63
3 55 56 63
3 56 63 64
3 56 57 64
3 64 65 57
3 57 58 65
3 58 59 65
3 48 59 65
