ply
format ascii 1.0
element vertex 66
property float x
property float y
property float z
property float u
property float v
element face 91
property list uchar int vertex_indices
end_header
-21.0139 -5.52037 21.5998 134.198 229.604
-20.1918 -0.197726 21.1711 135.835 258.099
-19.0801 5.07898 20.7426 139.018 286.498
-17.6917 10.1211 18.5937 143.556 314.201
-15.6372 14.5712 13.5105 151.519 339.807
-12.3889 18.1447 8.03645 166.148 361.493
-8.26807 20.853 3.4149 185.904 378.868
-3.59472 22.6255 -0.927321 209.066 391.534
1.52037 22.7588 -4.58046 235.45 395.642
6.68467 21.8395 -0.699499 263.57 392.49
11.0683 19.2177 3.62881 288.482 379.891
14.6403 15.685 8.26151 309.612 362.027
17.2358 11.5173 13.7075 326.022 340.147
18.6662 6.88519 18.6578 336.468 315.358
19.342 1.92717 20.738 342.742 289.145
19.6324 -3.18649 21.0367 346.839 262.335
19.5496 -8.29477 21.4516 348.984 235.34
-17.8782 -13.6297 0.141406 151.99 193.528
-15.4953 -15.8337 -1.57268 165.402 183.53
-12.3837 -16.805 -2.97969 182.077 180.307
-9.13272 -16.8321 -4.36159 199.02 182.112
-5.94458 -16.248 -5.55809 215.354 187.056
3.89147 -16.7109 -5.63754 267.327 189.56
6.73959 -17.5732 -4.36546 282.901 186.155
9.72922 -17.906 -2.934 298.978 185.568
12.7117 -17.4404 -1.45682 314.627 189.164
15.2032 -15.7526 0.318784 327.127 198.871
-0.461083 -11.9581 -4.86646 242.171 212.192
-0.236851 -8.82707 -7.7934 241.43 229.446
-0.0243335 -5.7194 -10.7841 240.631 246.587
0.177993 -2.60974 -13.5407 239.807 263.678
-2.94946 0.948017 -6.4604 222.488 279.172
-1.26476 1.31162 -7.36027 231.059 282.136
0.490616 1.37897 -8.18109 240.157 283.559
2.10656 1.12475 -7.26214 248.902 282.817
3.60208 0.57852 -6.29739 257.164 280.469
-13.3627 -10.109 -0.814837 173.886 214.518
-11.3462 -11.5601 -1.03266 185.186 207.949
-8.83096 -11.8065 -1.1646 198.526 207.942
-6.66654 -10.6402 -0.993574 209.359 215.116
-8.84591 -9.89663 -1.06313 197.515 217.952
-11.177 -9.65012 -1.01579 185.133 218.071
5.02655 -11.2346 -0.965331 271.182 217.833
6.98218 -12.588 -1.08276 282.126 211.723
9.46047 -12.7006 -0.96748 295.237 212.344
11.5788 -11.4824 -0.767498 305.805 219.762
9.50877 -10.7653 -0.966972 294.533 222.542
7.21448 -10.7555 -1.02224 282.449 221.46
-6.56747 8.80232 -2.82949 200.024 317.813
-4.4745 7.08061 -4.95783 211.619 310.303
-2.08225 5.84526 -6.64386 224.604 305.396
0.514352 5.93712 -8.31869 238.009 307.568
3.02887 5.57155 -6.51219 251.649 306.483
5.45837 6.53051 -4.79849 264.175 312.341
7.58417 8.07227 -2.67385 274.867 321.017
5.77786 9.7068 -3.86692 264.402 328.984
3.39934 10.6204 -5.21882 251.264 332.912
0.793623 10.8892 -6.66639 237.237 333.359
-1.87779 10.8729 -5.36127 223.354 331.634
-4.41694 10.203 -4.04012 210.493 326.534
-2.08301 7.91781 -5.44336 223.727 316.013
0.633191 7.78281 -7.45263 237.83 317.129
3.28219 7.66382 -5.17937 252.116 317.3
3.31608 7.91964 -4.45247 252.259 318.493
0.66766 8.06692 -6.43577 238 318.404
-2.04542 8.18402 -4.6837 223.889 317.255
3 20 21 23
3 21 22 23
3 0 1 36
3 15 16 45
3 0 17 36
3 16 26 45
3 17 18 37
3 25 26 44
3 17 36 37
3 26 44 45
3 18 19 38
3 24 25 43
3 18 37 38
3 25 43 44
3 19 20 38
3 23 24 43
3 20 21 39
3 22 23 42
3 20 38 39
3 23 42 43
3 21 22 27
3 21 27 39
3 22 27 42
3 27 28 42
3 27 28 39
3 28 42 47
3 28 39 40
3 1 36 41
3 15 45 46
3 1 2 41
3 14 15 46
3 28 29 40
3 28 29 47
3 2 40 41
3 14 46 47
3 2 29 40
3 14 29 47
3 2 3 29
3 13 14 29
3 29 30 31
3 29 30 35
3 3 29 31
3 13 29 35
3 30 32 33
3 30 33 34
3 30 31 32
3 30 34 35
3 3 4 31
3 12 13 35
3 4 5 48
3 11 12 54
3 5 6 48
3 10 11 54
3 6 48 59
3 10 54 55
3 6 7 59
3 9 10 55
3 7 58 59
3 9 55 56
3 8 57 58
3 8 56 57
3 7 8 58
3 8 9 56
3 4 31 48
3 12 35 54
3 31 48 49
3 35 53 54
3 31 49 50
3 35 52 53
3 31 32 50
3 34 35 52
3 32 33 50
3 33 34 52
3 33 50 51
3 33 51 52
3 48 49 60
3 49 60 50
3 50 60 61
3 50 51 61
3 51 52 61
3 61 62 52
3 52 53 62
3 53 54 62
3 54 55 63
3 55 56 63
3 56 63 64
3 56 57 64
3 64 65 57
3 57 58 65
3 58 59 65
3 48 59 65
