ply
format ascii 1.0
element vertex 66
property float x
property float y
property float z
property float u
property float v
element face 91
property list uchar int vertex_indices
end_header
-20.6547 -5.64822 21.3079 161.089 395.963
-20.0519 -0.423649 20.8425 162.223 415.817
-19.1146 4.7667 20.4846 164.349 435.591
-17.7568 9.73356 18.3869 168.112 455.096
-15.6469 14.1974 13.4633 175.173 473.374
-12.4006 17.9009 7.99404 186.847 488.76
-8.27017 20.7526 3.29433 201.64 500.987
-3.55056 22.6779 -0.880153 218.178 510.544
1.65875 22.9008 -4.53572 236.934 514.081
6.75338 21.9412 -0.807894 255.83 510.733
11.0958 19.3665 3.41769 272.404 500.944
14.7165 15.9593 8.15704 286.84 488.217
17.3322 11.8354 13.6544 298.207 472.591
18.7221 7.12069 18.5937 305.468 454.761
19.3316 2.01325 20.7063 309.484 436.137
19.5157 -3.2566 21.0748 311.745 417.327
19.3623 -8.51341 21.5385 312.794 398.414
-16.9434 -14.0024 0.166523 177.003 369.947
-14.6923 -16.1532 -1.56921 186.685 363.737
-11.7473 -17.1684 -2.95979 198.294 361.964
-8.64008 -17.2567 -4.29633 209.99 363.6
-5.61118 -16.6863 -5.52226 221.13 367.54
3.24342 -17.3161 -5.43542 256.351 368.816
6.14406 -18.3113 -4.17859 266.905 365.561
9.21432 -18.6656 -2.80935 277.947 364.439
12.2557 -18.0793 -1.38764 288.832 366.3
14.7675 -16.2699 0.371491 297.83 372.302
-0.800008 -11.6067 -4.9545 239.342 389.142
-0.571382 -8.59445 -7.76035 239.296 400.442
-0.341526 -5.60559 -10.6633 239.213 411.679
-0.111056 -2.62069 -13.4075 239.102 422.857
-3.34691 0.90089 -6.47077 225.286 430
-1.6415 1.2941 -7.26957 231.959 432.501
0.142254 1.35258 -8.01839 239.018 433.725
1.89493 1.04463 -7.21848 245.701 432.769
3.5165 0.412997 -6.40175 252.029 430.5
-12.5316 -9.74495 -0.905324 191.622 387.876
-10.6698 -11.0691 -1.10649 198.856 384.997
-8.3451 -11.2534 -1.2279 206.801 384.881
-6.35058 -10.2247 -0.977391 213.627 387.903
-8.3556 -9.50683 -1.10156 206.261 389.134
-10.5048 -9.27615 -1.09011 198.737 389.191
4.83678 -11.0227 -0.887733 262.364 389.189
6.66716 -12.3254 -1.11779 269.171 386.654
8.99246 -12.4738 -0.968074 276.949 386.959
11.0209 -11.4279 -0.742362 283.836 390.17
9.08377 -10.6753 -0.948989 276.796 391.171
6.92444 -10.5977 -0.987214 269.443 390.724
-6.63855 8.84013 -2.74685 205.135 456.373
-4.73902 6.8457 -4.89305 214.605 450.425
-2.32888 5.4219 -6.54708 226.018 447.055
0.427259 5.35547 -8.22771 238.084 448.118
3.15408 5.03248 -6.48681 249.901 447.522
5.72158 6.09946 -4.80547 260.865 451.282
7.86034 7.80446 -2.63884 269.6 457.753
6.14905 9.90529 -3.93286 262.312 469.134
3.75933 11.3254 -5.28293 251.271 476.907
0.883179 11.8243 -6.67982 237.631 479.096
-2.0422 11.738 -5.34336 223.767 476.328
-4.62825 10.6744 -4.02161 212.68 468.04
-2.38864 7.57584 -5.20395 223.246 453.966
0.55887 7.21472 -7.41824 237.995 454.48
3.50364 7.15671 -5.14457 252.439 454.554
3.65722 8.62822 -4.49552 253.092 466.132
0.689237 9.10764 -6.42523 237.901 469.058
-2.33557 9.05505 -4.5521 222.501 465.543
3 20 21 23
3 21 22 23
3 0 1 36
3 15 16 45
3 0 17 36
3 16 26 45
3 17 18 37
3 25 26 44
3 17 36 37
3 26 44 45
3 18 19 38
3 24 25 43
3 18 37 38
3 25 43 44
3 19 20 38
3 23 24 43
3 20 21 39
3 22 23 42
3 20 38 39
3 23 42 43
3 21 22 27
3 21 27 39
3 22 27 42
3 27 28 42
3 27 28 39
3 28 42 47
3 28 39 40
3 1 36 41
3 15 45 46
3 1 2 41
3 14 15 46
3 28 29 40
3 28 29 47
3 2 40 41
3 14 46 47
3 2 29 40
3 14 29 47
3 2 3 29
3 13 14 29
3 29 30 31
3 29 30 35
3 3 29 31
3 13 29 35
3 30 32 33
3 30 33 34
3 30 31 32
3 30 34 35
3 3 4 31
3 12 13 35
3 4 5 48
3 11 12 54
3 5 6 48
3 10 11 54
3 6 48 59
3 10 54 55
3 6 7 59
3 9 10 55
3 7 58 59
3 9 55 56
3 8 57 58
3 8 56 57
3 7 8 58
3 8 9 56
3 4 31 48
3 12 35 54
3 31 48 49
3 35 53 54
3 31 49 50
3 35 52 53
3 31 32 50
3 34 35 52
3 32 33 50
3 33 34 52
3 33 50 51
3 33 51 52
3 48 49 60
3 49 60 50
3 50 60 61
3 50 51 61
3 51 52 61
3 61 62 52
3 52 53 62
3 53 54 62
3 54 55 63
3 55 56 63
3 56 63 64
3 56 57 64
3 64 65 57
3 57 58 65
3 58 59 65
3 48 59 65
