ply
format ascii 1.0
element vertex 66
property float x
property float y
property float z
property float u
property float v
element face 91
property list uchar int vertex_indices
end_header
-20.6547 -5.64822 21.3079 144.796 235.901
-20.0519 -0.423649 20.8425 147.454 261.624
-19.1146 4.7667 20.4846 151.905 287.064
-17.7568 9.73356 18.3869 157.209 312.784
-15.6469 14.1974 13.4633 165.127 338.863
-12.4006 17.9009 7.99404 178.381 362.671
-8.27017 20.7526 3.29433 196.014 383.159
-3.55056 22.6779 -0.880153 217.692 398.242
1.65875 22.9008 -4.53572 242.936 403.709
6.75338 21.9412 -0.807894 268.684 397.52
11.0958 19.3665 3.41769 290.716 381.976
14.7165 15.9593 8.15704 308.558 361.036
17.3322 11.8354 13.6544 321.717 336.613
18.7221 7.12069 18.5937 328.9 309.697
19.3316 2.01325 20.7063 332.872 283.052
19.5157 -3.2566 21.0748 335.828 256.679
19.3623 -8.51341 21.5385 337.111 230.153
-16.9434 -14.0024 0.166523 159.562 213.975
-14.6923 -16.1532 -1.56921 170.915 205.707
-11.7473 -17.1684 -2.95979 185.045 202.084
-8.64008 -17.2567 -4.29633 199.906 202.652
-5.61118 -16.6863 -5.52226 214.309 206.402
3.24342 -17.3161 -5.43542 258.836 204.853
6.14406 -18.3113 -4.17859 273.439 200.031
9.21432 -18.6656 -2.80935 288.729 198.431
12.2557 -18.0793 -1.38764 303.629 201.12
14.7675 -16.2699 0.371491 316.256 208.65
-0.800008 -11.6067 -4.9545 237.612 233.872
-0.571382 -8.59445 -7.76035 238.053 254.029
-0.341526 -5.60559 -10.6633 238.499 274.036
-0.111056 -2.62069 -13.4075 238.979 293.756
-3.34691 0.90089 -6.47077 221.327 301.952
-1.6415 1.2941 -7.26957 230.191 305.887
0.142254 1.35258 -8.01839 239.812 307.457
1.89493 1.04463 -7.21848 249.53 305.316
3.5165 0.412997 -6.40175 258.377 300.843
-12.5316 -9.74495 -0.905324 179.059 234.787
-10.6698 -11.0691 -1.10649 189.175 228.444
-8.3451 -11.2534 -1.2279 201.437 228.936
-6.35058 -10.2247 -0.977391 211.283 235.965
-8.3556 -9.50683 -1.10156 200.427 238
-10.5048 -9.27615 -1.09011 189.287 238.22
4.83678 -11.0227 -0.887733 265.312 234.18
6.66716 -12.3254 -1.11779 274.69 226.445
8.99246 -12.4738 -0.968074 287.08 225.259
11.0209 -11.4279 -0.742362 297.847 230.901
9.08377 -10.6753 -0.948989 287.704 234.998
6.92444 -10.5977 -0.987214 276.45 235.518
-6.63855 8.84013 -2.74685 202.035 324.268
-4.73902 6.8457 -4.89305 211.74 315.46
-2.32888 5.4219 -6.54708 225.311 311.163
0.427259 5.35547 -8.22771 240.011 312.496
3.15408 5.03248 -6.48681 255.047 310.399
5.72158 6.09946 -4.80547 269.3 313.988
7.86034 7.80446 -2.63884 280.209 322.149
6.14905 9.90529 -3.93286 270.964 336.256
3.75933 11.3254 -5.28293 257.571 346.373
0.883179 11.8243 -6.67982 241.175 349.925
-2.0422 11.738 -5.34336 225.042 347.187
-4.62825 10.6744 -4.02161 211.546 337.789
-2.38864 7.57584 -5.20395 223.829 321.231
0.55887 7.21472 -7.41824 240.333 322.17
3.50364 7.15671 -5.14457 257.265 320.36
3.65722 8.62822 -4.49552 258.227 331.21
0.689237 9.10764 -6.42523 240.747 334.949
-2.33557 9.05505 -4.5521 223.544 332.077
3 20 21 23
3 21 22 23
3 0 1 36
3 15 16 45
3 0 17 36
3 16 26 45
3 17 18 37
3 25 26 44
3 17 36 37
3 26 44 45
3 18 19 38
3 24 25 43
3 18 37 38
3 25 43 44
3 19 20 38
3 23 24 43
3 20 21 39
3 22 23 42
3 20 38 39
3 23 42 43
3 21 22 27
3 21 27 39
3 22 27 42
3 27 28 42
3 27 28 39
3 28 42 47
3 28 39 40
3 1 36 41
3 15 45 46
3 1 2 41
3 14 15 46
3 28 29 40
3 28 29 47
3 2 40 41
3 14 46 47
3 2 29 40
3 14 29 47
3 2 3 29
3 13 14 29
3 29 30 31
3 29 30 35
3 3 29 31
3 13 29 35
3 30 32 33
3 30 33 34
3 30 31 32
3 30 34 35
3 3 4 31
3 12 13 35
3 4 5 48
3 11 12 54
3 5 6 48
3 10 11 54
3 6 48 59
3 10 54 55
3 6 7 59
3 9 10 55
3 7 58 59
3 9 55 56
3 8 57 58
3 8 56 57
3 7 8 58
3 8 9 56
3 4 31 48
3 12 35 54
3 31 48 49
3 35 53 54
3 31 49 50
3 35 52 53
3 31 32 50
3 34 35 52
3 32 33 50
3 33 34 52
3 33 50 51
3 33 51 52
3 48 49 60
3 49 60 50
3 50 60 61
3 50 51 61
3 51 52 61
3 61 62 52
3 52 53 62
3 53 54 62
3 54 55 63
3 55 56 63
3 56 63 64
3 56 57 64
3 64 65 57
3 57 58 65
3 58 59 65
3 48 59 65
