ply
format ascii 1.0
element vertex 66
property float x
property float y
property float z
property float u
property float v
element face 91
property list uchar int vertex_indices
end_header
127.981 276.712 0 127.981 276.712
129.946 303.154 0 129.946 303.154
133.801 329.435 0 133.801 329.435
140.002 356.453 0 140.002 356.453
150.719 384.172 0 150.719 384.172
167.039 408.898 0 167.039 408.898
187.103 429.532 0 187.103 429.532
210.401 445.545 0 210.401 445.545
236.85 452.672 0 236.85 452.672
262.032 445.898 0 262.032 445.898
283.644 429.761 0 283.644 429.761
301.593 408.519 0 301.593 408.519
315.294 383.281 0 315.294 383.281
323.961 355.648 0 323.961 355.648
329.963 329.083 0 329.963 329.083
334.316 303.336 0 334.316 303.336
336.496 277.355 0 336.496 277.355
158.507 250.426 0 158.507 250.426
171.835 242.774 0 171.835 242.774
187.828 240.444 0 187.828 240.444
204.205 242.624 0 204.205 242.624
219.929 247.923 0 219.929 247.923
264.973 249.056 0 264.973 249.056
279.558 244.444 0 279.558 244.444
294.577 242.816 0 294.577 242.816
308.991 245.31 0 308.991 245.31
320.401 252.809 0 320.401 252.809
242.476 276.083 0 242.476 276.083
243.068 294.053 0 243.068 294.053
243.649 311.979 0 243.649 311.979
244.126 329.673 0 244.126 329.673
224.393 341.8 0 224.393 341.8
232.996 345.141 0 232.996 345.141
242.121 346.926 0 242.121 346.926
250.541 345.409 0 250.541 345.409
258.436 342.337 0 258.436 342.337
179.557 275.38 0 179.557 275.38
189.977 269.738 0 189.977 269.738
202.175 269.815 0 202.175 269.815
212.073 275.677 0 212.073 275.677
201.254 278.342 0 201.254 278.342
189.963 278.569 0 189.963 278.569
267.817 276.896 0 267.817 276.896
278.029 271.514 0 278.029 271.514
290.019 271.698 0 290.019 271.698
299.743 277.734 0 299.743 277.734
289.422 280.554 0 289.422 280.554
278.338 279.889 0 278.338 279.889
203.09 374.804 0 203.09 374.804
213.651 367.43 0 213.651 367.43
226.565 362.591 0 226.565 362.591
240.731 365.241 0 240.731 365.241
253.888 363.099 0 253.888 363.099
265.179 368.418 0 265.179 368.418
273.345 376.335 0 273.345 376.335
263.799 384.679 0 263.799 384.679
252.055 389.751 0 252.055 389.751
239.281 391.741 0 239.281 391.741
225.705 389.153 0 225.705 389.153
213.313 383.504 0 213.313 383.504
225.209 372.379 0 225.209 372.379
240.204 374.22 0 240.204 374.22
253.688 372.956 0 253.688 372.956
253.244 376.104 0 253.244 376.104
239.844 378.185 0 239.844 378.185
225.143 375.553 0 225.143 375.553
3 20 21 23
3 21 22 23
3 0 1 36
3 15 16 45
3 0 17 36
3 16 26 45
3 17 18 37
3 25 26 44
3 17 36 37
3 26 44 45
3 18 19 38
3 24 25 43
3 18 37 38
3 25 43 44
3 19 20 38
3 23 24 43
3 20 21 39
3 22 23 42
3 20 38 39
3 23 42 43
3 21 22 27
3 21 27 39
3 22 27 42
3 27 28 42
3 27 28 39
3 28 42 47
3 28 39 40
3 1 36 41
3 15 45 46
3 1 2 41
3 14 15 46
3 28 29 40
3 28 29 47
3 2 40 41
3 14 46 47
3 2 29 40
3 14 29 47
3 2 3 29
3 13 14 29
3 29 30 31
3 29 30 35
3 3 29 31
3 13 29 35
3 30 32 33
3 30 33 34
3 30 31 32
3 30 34 35
3 3 4 31
3 12 13 35
3 4 5 48
3 11 12 54
3 5 6 48
3 10 11 54
3 6 48 59
3 10 54 55
3 6 7 59
3 9 10 55
3 7 58 59
3 9 55 56
3 8 57 58
3 8 56 57
3 7 8 58
3 8 9 56
3 4 31 48
3 12 35 54
3 31 48 49
3 35 53 54
3 31 49 50
3 35 52 53
3 31 32 50
3 34 35 52
3 32 33 50
3 33 34 52
3 33 50 51
3 33 51 52
3 48 49 60
3 49 60 50
3 50 60 61
3 50 51 61
3 51 52 61
3 61 62 52
3 52 53 62
3 53 54 62
3 54 55 63
3 55 56 63
3 56 63 64
3 56 57 64
3 64 65 57
3 57 58 65
3 58 59 65
3 48 59 65
