ply
format ascii 1.0
element vertex 66
property float x
property float y
property float z
property float u
property float v
element face 91
property list uchar int vertex_indices
end_header
-20.8715 -5.73075 21.3376 148.051 231.507
-20.2319 -0.417588 20.9108 149.49 255.556
-19.231 4.85155 20.4964 152.562 279.502
-17.8689 9.87677 18.4237 156.988 303.452
-15.726 14.3712 13.5008 164.485 326.955
-12.3866 18.1619 8.06766 177.423 347.965
-8.147 21.1558 3.35467 194.738 365.253
-3.20963 23.0733 -0.918458 215.54 377.689
2.25393 23.1448 -4.46739 239.309 381.632
7.33161 22.1808 -0.909684 263.013 376.635
11.6661 19.6916 3.4663 283.932 364.165
15.2004 16.2973 8.28883 301.582 347.185
17.6321 12.1786 13.8229 314.613 326.254
18.7363 7.42661 18.8218 321.749 302.46
19.1884 2.18224 20.886 325.509 278.044
19.4251 -3.26968 21.3455 328.039 253.602
19.3981 -8.70481 21.8764 329.396 229.118
-16.9607 -13.7213 0.0905552 163.409 209.721
-14.3666 -15.728 -1.60804 175.208 202.531
-11.2322 -16.6053 -3.02915 189.198 200.345
-8.00433 -16.6869 -4.37657 203.42 201.679
-4.88668 -16.101 -5.63684 216.996 205.897
2.62203 -16.738 -5.47247 250.844 205.047
5.80223 -17.7989 -4.22168 265.612 200.467
9.16215 -18.1722 -2.85072 281.036 198.921
12.5086 -17.5849 -1.44215 296.164 201.62
15.3684 -15.7241 0.285807 308.852 209.655
-1.17725 -12.3088 -4.94339 232.8 223.368
-0.925679 -8.77525 -7.76258 232.478 240.824
-0.664023 -5.28037 -10.7676 232.175 258.221
-0.388156 -1.78867 -13.6475 231.96 275.533
-3.80129 1.46375 -6.73961 217.203 284.932
-2.06181 1.9838 -7.4053 224.736 288.122
-0.216159 2.07475 -7.99407 232.87 289.388
1.69669 1.68994 -7.40347 241.657 287.856
3.4439 0.904672 -6.64513 249.836 284.397
-12.9342 -9.65983 -0.765753 180.26 229.4
-10.7463 -11.062 -1.15538 190.344 224.005
-8.12635 -11.1862 -1.42109 202.065 224.337
-5.85866 -10.0395 -1.13582 211.995 229.892
-8.22169 -9.58088 -1.11542 201.292 231.264
-10.6294 -9.32138 -1.0923 190.44 231.737
4.53637 -10.8869 -1.15617 258.796 229.016
6.66927 -12.3648 -1.30255 268.7 223.124
9.30488 -12.5457 -0.96358 280.625 222.848
11.6814 -11.4641 -0.531709 291.088 228.057
9.40711 -10.8445 -0.944585 280.657 230.427
6.9648 -10.7427 -1.07444 269.659 230.281
-7.92554 8.05607 -2.58886 197.87 310.623
-5.67374 6.06964 -4.7371 208.041 303.695
-2.83354 4.91853 -6.45403 220.723 300.387
0.210999 4.77472 -8.15544 234.07 301.604
3.26877 4.43043 -6.46054 248.196 299.912
6.31886 5.12445 -4.70878 262.036 302.798
8.97395 6.68447 -2.57027 273.964 309.195
6.91486 9.12 -3.84749 263.867 320.211
4.11473 10.7834 -5.19493 250.631 327.632
0.807726 11.355 -6.48141 235.411 330.023
-2.57534 11.3629 -5.2004 220.499 328.359
-5.59794 10.1641 -3.96268 207.499 321.456
-3.40417 6.96971 -5.19776 217.895 308.599
0.361177 6.58222 -7.58464 234.398 309.341
4.17969 6.33551 -5.28778 252.028 307.934
4.44145 8.06969 -4.5393 252.911 315.27
0.517461 8.62157 -6.59532 234.778 317.86
-3.4204 8.70337 -4.50801 217.52 315.891
3 20 21 23
3 21 22 23
3 0 1 36
3 15 16 45
3 0 17 36
3 16 26 45
3 17 18 37
3 25 26 44
3 17 36 37
3 26 44 45
3 18 19 38
3 24 25 43
3 18 37 38
3 25 43 44
3 19 20 38
3 23 24 43
3 20 21 39
3 22 23 42
3 20 38 39
3 23 42 43
3 21 22 27
3 21 27 39
3 22 27 42
3 27 28 42
3 27 28 39
3 28 42 47
3 28 39 40
3 1 36 41
3 15 45 46
3 1 2 41
3 14 15 46
3 28 29 40
3 28 29 47
3 2 40 41
3 14 46 47
3 2 29 40
3 14 29 47
3 2 3 29
3 13 14 29
3 29 30 31
3 29 30 35
3 3 29 31
3 13 29 35
3 30 32 33
3 30 33 34
3 30 31 32
3 30 34 35
3 3 4 31
3 12 13 35
3 4 5 48
3 11 12 54
3 5 6 48
3 10 11 54
3 6 48 59
3 10 54 55
3 6 7 59
3 9 10 55
3 7 58 59
3 9 55 56
3 8 57 58
3 8 56 57
3 7 8 58
3 8 9 56
3 4 31 48
3 12 35 54
3 31 48 49
3 35 53 54
3 31 49 50
3 35 52 53
3 31 32 50
3 34 35 52
3 32 33 50
3 33 34 52
3 33 50 51
3 33 51 52
3 48 49 60
3 49 60 50
3 50 60 61
3 50 51 61
3 51 52 61
3 61 62 52
3 52 53 62
3 53 54 62
3 54 55 63
3 55 56 63
3 56 63 64
3 56 57 64
3 64 65 57
3 57 58 65
3 58 59 65
3 48 59 65
