ply
format ascii 1.0
element vertex 66
property float x
property float y
property float z
property float u
property float v
element face 91
property list uchar int vertex_indices
end_header
-20.2446 -5.57694 21.5987 177.852 362.361
-19.4432 -0.341418 21.1024 178.824 378.98
-18.3601 4.85412 20.6712 180.688 395.54
-17.1105 9.86791 18.5102 183.056 412.032
-15.2934 14.4117 13.4909 187.217 427.968
-12.2382 18.1384 7.93988 195.451 441.863
-8.22287 20.9712 3.27581 206.968 453.031
-3.57468 22.7701 -0.930108 220.773 461.053
1.49694 22.9201 -4.64239 236.39 463.949
6.54504 21.9622 -0.814551 252.544 461.448
10.8343 19.3109 3.43531 266.838 453.358
14.3056 15.7495 8.1243 278.86 442.092
16.7608 11.5444 13.6686 287.935 428.31
18.0246 6.88115 18.5622 293.404 412.929
18.6337 1.95051 20.7579 296.806 397.226
18.965 -3.12047 21.1161 299.311 381.481
18.9408 -8.19334 21.5582 300.712 365.606
-17.6369 -14.5854 0.363689 187.749 340.636
-15.452 -16.8758 -1.49267 195.144 334.637
-12.4932 -17.9586 -2.89459 204.622 332.495
-9.35249 -18.0351 -4.19573 214.381 333.504
-6.2863 -17.4104 -5.35985 223.711 336.634
3.89598 -17.9347 -5.4011 255.59 337.969
6.64693 -18.9332 -4.15039 264.498 335.342
9.58679 -19.2979 -2.77679 273.817 334.706
12.5156 -18.7884 -1.2987 282.854 336.755
14.9353 -17.0451 0.545723 289.964 342.393
-0.501456 -11.0016 -4.86433 239.913 358.086
-0.299046 -7.8732 -7.84821 239.528 368.631
-0.103978 -4.76475 -10.8506 239.126 379.118
0.0856133 -1.65398 -13.5655 238.716 389.536
-2.83322 1.51848 -6.53013 228.98 396.721
-1.25385 1.80866 -7.39521 233.785 398.304
0.376133 1.8561 -8.20602 238.819 399.133
1.91221 1.62109 -7.34284 243.707 398.626
3.36447 1.14417 -6.44112 248.404 397.332
-13.1491 -9.84108 -0.700116 200.328 356.945
-11.2169 -11.5272 -1.06935 206.819 352.365
-8.64255 -11.6761 -1.34118 214.874 352.719
-6.57508 -10.1138 -1.04582 220.878 358.094
-8.69908 -9.2165 -1.1261 213.998 360.285
-11.0272 -9.04065 -1.00717 206.698 360.126
5.23164 -10.8467 -1.04057 257.881 359.239
7.0336 -12.6119 -1.24903 263.996 354.334
9.56524 -12.8337 -0.942293 271.961 354.3
11.6597 -11.3976 -0.555616 278.089 359.267
9.70165 -10.3254 -0.904747 271.666 362.119
7.40736 -10.2162 -1.0669 264.479 361.835
-6.51285 8.86507 -2.7693 215.546 417.496
-4.40315 7.14522 -5.10237 222.525 413.37
-2.04199 5.90605 -6.75038 230.175 410.633
0.516652 5.96251 -8.40526 238.068 411.978
3.00261 5.6008 -6.63502 245.987 411.117
5.43023 6.53618 -4.96194 253.348 414.293
7.6199 8.02571 -2.65646 259.832 418.957
5.81396 9.76339 -3.90899 253.656 424.154
3.43189 10.7886 -5.17028 245.889 426.973
0.836785 11.1224 -6.63311 237.65 427.636
-1.82221 11.0927 -5.2662 229.425 426.419
-4.38083 10.3665 -4.00291 221.71 423.095
-2.04246 8.07042 -5.34189 229.605 416.989
0.653378 7.93199 -7.46533 237.964 417.891
3.29184 7.76464 -5.183 246.322 417.545
3.35269 8.1139 -4.47784 246.439 418.465
0.682161 8.26313 -6.3249 238.002 418.632
-2.03901 8.43738 -4.61614 229.539 417.942
3 20 21 23
3 21 22 23
3 0 1 36
3 15 16 45
3 0 17 36
3 16 26 45
3 17 18 37
3 25 26 44
3 17 36 37
3 26 44 45
3 18 19 38
3 24 25 43
3 18 37 38
3 25 43 44
3 19 20 38
3 23 24 43
3 20 21 39
3 22 23 42
3 20 38 39
3 23 42 43
3 21 22 27
3 21 27 39
3 22 27 42
3 27 28 42
3 27 28 39
3 28 42 47
3 28 39 40
3 1 36 41
3 15 45 46
3 1 2 41
3 14 15 46
3 28 29 40
3 28 29 47
3 2 40 41
3 14 46 47
3 2 29 40
3 14 29 47
3 2 3 29
3 13 14 29
3 29 30 31
3 29 30 35
3 3 29 31
3 13 29 35
3 30 32 33
3 30 33 34
3 30 31 32
3 30 34 35
3 3 4 31
3 12 13 35
3 4 5 48
3 11 12 54
3 5 6 48
3 10 11 54
3 6 48 59
3 10 54 55
3 6 7 59
3 9 10 55
3 7 58 59
3 9 55 56
3 8 57 58
3 8 56 57
3 7 8 58
3 8 9 56
3 4 31 48
3 12 35 54
3 31 48 49
3 35 53 54
3 31 49 50
3 35 52 53
3 31 32 50
3 34 35 52
3 32 33 50
3 33 34 52
3 33 50 51
3 33 51 52
3 48 49 60
3 49 60 50
3 50 60 61
3 50 51 61
3 51 52 61
3 61 62 52
3 52 53 62
3 53 54 62
3 54 55 63
3 55 56 63
3 56 63 64
3 56 57 64
3 64 65 57
3 57 58 65
3 58 59 65
3 48 59 65
