ply
format ascii 1.0
element vertex 66
property float x
property float y
property float z
property float u
property float v
element face 91
property list uchar int vertex_indices
end_header
-20.3313 -5.07547 21.1541 171.756 322.347
-19.6323 -0.121463 20.573 173.144 338.242
-18.5561 4.7957 20.2686 175.738 353.939
-17.0781 9.48429 18.3605 179.605 369.831
-14.9402 13.6861 13.4158 185.57 385.908
-11.9127 17.3254 8.063 194.435 400.59
-8.12099 20.3222 3.32266 205.84 413.07
-3.69219 22.4586 -0.829166 219.419 422.659
1.33181 22.8216 -4.4088 235.187 426.506
6.3349 21.9125 -0.81913 251.267 422.609
10.486 19.2835 3.40916 264.947 412.864
13.9374 15.8796 8.16189 276.55 400.306
16.5591 11.8977 13.5417 285.635 385.476
18.1282 7.34956 18.6087 291.471 368.867
18.9571 2.31221 20.5994 294.97 352.224
19.3675 -2.91652 21.0142 297.138 335.743
19.3988 -8.14102 21.5317 298.106 319.158
-16.8041 -14.1651 0.256974 183.923 305.524
-14.6845 -16.5073 -1.57941 190.976 299.524
-11.7981 -17.7732 -2.92702 200.294 296.757
-8.66685 -18.06 -4.21259 210.229 297.056
-5.5965 -17.6068 -5.40556 219.851 299.607
2.79153 -18.3119 -5.26998 246.537 298.723
5.86103 -19.3117 -4.05755 256.452 295.472
9.10848 -19.5459 -2.74575 266.807 294.589
12.2648 -18.7022 -1.36942 276.699 297.024
14.7928 -16.6299 0.470741 284.41 302.949
-0.955169 -11.9214 -4.8665 233.631 317.851
-0.67742 -8.56104 -7.78168 233.891 329.925
-0.396159 -5.22336 -10.7351 234.164 341.949
-0.112896 -1.88227 -13.412 234.449 353.838
-3.12195 1.56313 -6.60887 224.515 360.525
-1.5274 1.94041 -7.33549 229.486 362.35
0.147204 1.97968 -7.97949 234.769 363.089
1.82755 1.67783 -7.30618 240.156 362.07
3.36865 1.04306 -6.66178 245.157 360.004
-12.5009 -9.92441 -0.824354 196.831 320.051
-10.5781 -11.5497 -1.06609 203.182 315.42
-8.03428 -11.7116 -1.24975 211.261 315.432
-5.94506 -10.3629 -0.998367 217.663 319.859
-8.07208 -9.56187 -1.14848 210.791 322.087
-10.3617 -9.31035 -1.09446 203.499 322.465
4.33027 -11.2079 -0.815273 250.351 318.826
6.1999 -12.914 -1.15844 256.545 313.987
8.75461 -13.1473 -0.925531 264.68 313.56
10.939 -11.8739 -0.619887 271.397 317.738
8.91771 -10.905 -0.893288 264.83 320.573
6.59416 -10.78 -0.942211 257.449 320.605
-5.8366 9.25764 -2.694 214.748 382.051
-4.19634 7.24049 -4.9633 220.22 377.215
-2.02214 5.75517 -6.59448 227.311 373.794
0.541672 5.65586 -8.37133 235.406 374.842
3.10054 5.35535 -6.55472 243.603 373.373
5.47268 6.47822 -4.89662 250.972 376.402
7.40334 8.17559 -2.55639 256.864 380.793
5.8529 10.2045 -3.96913 251.587 387.616
3.69029 11.6928 -5.24239 244.462 392.575
0.976807 12.2381 -6.64084 235.745 394.564
-1.73095 12.1136 -5.27434 227.222 393.008
-4.06174 11.0134 -3.97557 220.051 388.503
-2.00372 7.87118 -5.11421 227.058 379.628
0.663925 7.43616 -7.43019 235.523 379.928
3.34676 7.4455 -5.14275 244.074 379.2
3.46883 9.03007 -4.51031 244.215 383.837
0.779566 9.54485 -6.2993 235.57 385.939
-1.9425 9.46417 -4.47457 227.005 384.277
3 20 21 23
3 21 22 23
3 0 1 36
3 15 16 45
3 0 17 36
3 16 26 45
3 17 18 37
3 25 26 44
3 17 36 37
3 26 44 45
3 18 19 38
3 24 25 43
3 18 37 38
3 25 43 44
3 19 20 38
3 23 24 43
3 20 21 39
3 22 23 42
3 20 38 39
3 23 42 43
3 21 22 27
3 21 27 39
3 22 27 42
3 27 28 42
3 27 28 39
3 28 42 47
3 28 39 40
3 1 36 41
3 15 45 46
3 1 2 41
3 14 15 46
3 28 29 40
3 28 29 47
3 2 40 41
3 14 46 47
3 2 29 40
3 14 29 47
3 2 3 29
3 13 14 29
3 29 30 31
3 29 30 35
3 3 29 31
3 13 29 35
3 30 32 33
3 30 33 34
3 30 31 32
3 30 34 35
3 3 4 31
3 12 13 35
3 4 5 48
3 11 12 54
3 5 6 48
3 10 11 54
3 6 48 59
3 10 54 55
3 6 7 59
3 9 10 55
3 7 58 59
3 9 55 56
3 8 57 58
3 8 56 57
3 7 8 58
3 8 9 56
3 4 31 48
3 12 35 54
3 31 48 49
3 35 53 54
3 31 49 50
3 35 52 53
3 31 32 50
3 34 35 52
3 32 33 50
3 33 34 52
3 33 50 51
3 33 51 52
3 48 49 60
3 49 60 50
3 50 60 61
3 50 51 61
3 51 52 61
3 61 62 52
3 52 53 62
3 53 54 62
3 54 55 63
3 55 56 63
3 56 63 64
3 56 57 64
3 64 65 57
3 57 58 65
3 58 59 65
3 48 59 65
