ply
format ascii 1.0
element vertex 66
property float x
property float y
property float z
property float u
property float v
element face 91
property list uchar int vertex_indices
end_header
-20.4647 -5.23917 21.4798 170.032 330.629
-19.721 -0.18811 20.8166 168.559 348.821
-18.7029 4.84417 20.4293 168.124 366.976
-17.3141 9.67826 18.4031 168.685 385.911
-15.1946 13.9954 13.5512 171.415 405.671
-12.1168 17.5977 8.06383 177.841 424.226
-8.32492 20.5267 3.15056 187.407 440.669
-3.98902 22.7135 -0.967446 199.638 454.473
0.925981 23.2446 -4.58766 215.276 462.779
6.06919 22.2588 -0.831277 234.839 460.932
10.3487 19.4426 3.30342 252.916 451.917
13.9112 15.8421 8.17853 269.311 439.144
16.7216 11.6933 13.6287 283.676 423.502
18.4594 7.01199 18.5264 294.588 405.58
19.2655 1.94991 20.5862 301.808 387.615
19.5531 -3.24529 20.9848 306.891 369.951
19.4636 -8.43005 21.5223 310.697 351.92
-16.987 -13.5884 0.248704 182.787 320.067
-14.8262 -15.9199 -1.51863 191.579 315.146
-11.8961 -17.1976 -2.89648 202.332 314.142
-8.71147 -17.4689 -4.19093 213.217 316.697
-5.57522 -16.9923 -5.34177 223.4 321.648
3.00836 -17.5592 -5.40289 253.529 326.678
5.94815 -18.4591 -4.18499 264.721 325.135
9.05655 -18.6365 -2.84787 275.974 326.095
12.0699 -17.8515 -1.38744 286.194 330.154
14.5147 -15.9544 0.431943 293.689 337.273
-0.55851 -11.6861 -4.80873 236.842 343.302
-0.25795 -8.34569 -7.81148 234.52 356.984
0.0287732 -5.0224 -10.832 232.158 370.61
0.299803 -1.69553 -13.5833 229.811 384.045
-3.48566 1.21158 -6.73907 216.311 386.036
-1.49456 1.82357 -7.42562 222.551 390.197
0.611534 1.97992 -7.98983 229.57 392.82
2.56192 1.54975 -7.38425 236.813 392.505
4.33064 0.667141 -6.79496 243.769 390.521
-12.7497 -9.58289 -0.65773 194.142 337.697
-10.7636 -10.9582 -1.00495 201.978 334.877
-8.31071 -11.1545 -1.38079 210.518 336.451
-6.18067 -10.0702 -1.18119 217.114 341.701
-8.34076 -9.46304 -1.13137 209.185 341.986
-10.5842 -9.24202 -1.06882 201.267 340.886
4.37743 -10.7314 -0.980332 254.22 347.817
6.28689 -12.1159 -1.34883 261.792 344.919
8.715 -12.3432 -0.987329 270.467 345.848
10.8729 -11.2946 -0.613863 277.233 350.878
8.82799 -10.5947 -0.962182 269.526 351.85
6.59243 -10.4977 -0.94639 261.717 350.368
-8.17109 7.4335 -2.54861 196.447 400.411
-5.65823 5.72466 -4.69913 205.879 398.154
-2.59391 4.78136 -6.4083 216.751 398.625
0.616609 4.6977 -8.28981 227.425 402.25
3.75279 4.37418 -6.33206 239.052 402.3
6.82056 4.90161 -4.57377 249.738 405.319
9.37949 6.29065 -2.30752 258.137 410.493
7.62243 9.53508 -3.9067 249.141 421.206
4.77537 11.9542 -5.20889 237.085 428.033
1.02703 12.7724 -6.72229 223.078 428.855
-2.77341 12.3962 -5.29645 210.593 423.517
-5.92363 10.3838 -3.95072 201.591 413.21
-3.45689 6.50273 -5.24718 212.756 402.949
0.694506 6.2245 -7.74094 226.672 407.104
4.74472 6.00066 -5.09326 241.571 407.741
5.23782 9.29936 -4.36483 240.945 418.809
0.9464 10.3636 -6.35514 224.743 420.365
-3.50678 9.86128 -4.46923 210.218 413.749
3 20 21 23
3 21 22 23
3 0 1 36
3 15 16 45
3 0 17 36
3 16 26 45
3 17 18 37
3 25 26 44
3 17 36 37
3 26 44 45
3 18 19 38
3 24 25 43
3 18 37 38
3 25 43 44
3 19 20 38
3 23 24 43
3 20 21 39
3 22 23 42
3 20 38 39
3 23 42 43
3 21 22 27
3 21 27 39
3 22 27 42
3 27 28 42
3 27 28 39
3 28 42 47
3 28 39 40
3 1 36 41
3 15 45 46
3 1 2 41
3 14 15 46
3 28 29 40
3 28 29 47
3 2 40 41
3 14 46 47
3 2 29 40
3 14 29 47
3 2 3 29
3 13 14 29
3 29 30 31
3 29 30 35
3 3 29 31
3 13 29 35
3 30 32 33
3 30 33 34
3 30 31 32
3 30 34 35
3 3 4 31
3 12 13 35
3 4 5 48
3 11 12 54
3 5 6 48
3 10 11 54
3 6 48 59
3 10 54 55
3 6 7 59
3 9 10 55
3 7 58 59
3 9 55 56
3 8 57 58
3 8 56 57
3 7 8 58
3 8 9 56
3 4 31 48
3 12 35 54
3 31 48 49
3 35 53 54
3 31 49 50
3 35 52 53
3 31 32 50
3 34 35 52
3 32 33 50
3 33 34 52
3 33 50 51
3 33 51 52
3 48 49 60
3 49 60 50
3 50 60 61
3 50 51 61
3 51 52 61
3 61 62 52
3 52 53 62
3 53 54 62
3 54 55 63
3 55 56 63
3 56 63 64
3 56 57 64
3 64 65 57
3 57 58 65
3 58 59 65
3 48 59 65
