ply
format ascii 1.0
element vertex 66
property float x
property float y
property float z
property float u
property float v
element face 91
property list uchar int vertex_indices
end_header
171.581 214.07 0 171.581 214.07
172.737 231.717 0 172.737 231.717
174.974 249.317 0 174.974 249.317
178.329 266.355 0 178.329 266.355
184.066 281.908 0 184.066 281.908
193.796 295.004 0 193.796 295.004
206.263 305.672 0 206.263 305.672
221.043 313.09 0 221.043 313.09
237.806 315.054 0 237.806 315.054
255.571 311.428 0 255.571 311.428
271.035 302.502 0 271.035 302.502
284.067 290.479 0 284.067 290.479
294.157 276.221 0 294.157 276.221
299.918 259.954 0 299.918 259.954
302.386 242.523 0 302.386 242.523
303.166 224.668 0 303.166 224.668
302.877 206.87 0 302.877 206.87
184.384 189.782 0 184.384 189.782
192.422 185.236 0 192.422 185.236
201.339 183.616 0 201.339 183.616
210.333 184.029 0 210.333 184.029
218.935 186.413 0 218.935 186.413
244.733 185.429 0 244.733 185.429
253.573 182.292 0 253.573 182.292
262.998 181.092 0 262.998 181.092
272.531 181.982 0 272.531 181.982
281.513 185.853 0 281.513 185.853
232.59 202.011 0 232.59 202.011
232.573 213.804 0 232.573 213.804
232.532 225.531 0 232.532 225.531
232.537 237.245 0 232.537 237.245
220.648 242.824 0 220.648 242.824
227.009 245.582 0 227.009 245.582
233.937 246.643 0 233.937 246.643
240.889 245.021 0 240.889 245.021
247.201 241.746 0 247.201 241.746
193.91 204.97 0 193.91 204.97
200.944 201.465 0 200.944 201.465
208.868 201.487 0 208.868 201.487
215.651 205.255 0 215.651 205.255
208.236 206.101 0 208.236 206.101
200.842 206.297 0 200.842 206.297
251.507 203.731 0 251.507 203.731
257.881 199.465 0 257.881 199.465
265.911 198.859 0 265.911 198.859
273.328 201.801 0 273.328 201.801
266.356 203.623 0 266.356 203.623
258.968 204.019 0 258.968 204.019
205.648 257.12 0 205.648 257.12
212.721 250.046 0 212.721 250.046
223.041 247.253 0 223.041 247.253
233.839 247.05 0 233.839 247.05
245.267 246.365 0 245.267 246.365
256.38 248.308 0 256.38 248.308
264.804 254.752 0 264.804 254.752
258.676 266.738 0 258.676 266.738
248.642 275.565 0 248.642 275.565
235.473 278.268 0 235.473 278.268
222.563 276.645 0 222.563 276.645
212.227 268.644 0 212.227 268.644
220.654 253.918 0 220.654 253.918
234.196 253.527 0 234.196 253.527
248.615 252.779 0 248.615 252.779
250.229 265.293 0 250.229 265.293
235.058 268.669 0 235.058 268.669
220.341 266.517 0 220.341 266.517
3 20 21 23
3 21 22 23
3 0 1 36
3 15 16 45
3 0 17 36
3 16 26 45
3 17 18 37
3 25 26 44
3 17 36 37
3 26 44 45
3 18 19 38
3 24 25 43
3 18 37 38
3 25 43 44
3 19 20 38
3 23 24 43
3 20 21 39
3 22 23 42
3 20 38 39
3 23 42 43
3 21 22 27
3 21 27 39
3 22 27 42
3 27 28 42
3 27 28 39
3 28 42 47
3 28 39 40
3 1 36 41
3 15 45 46
3 1 2 41
3 14 15 46
3 28 29 40
3 28 29 47
3 2 40 41
3 14 46 47
3 2 29 40
3 14 29 47
3 2 3 29
3 13 14 29
3 29 30 31
3 29 30 35
3 3 29 31
3 13 29 35
3 30 32 33
3 30 33 34
3 30 31 32
3 30 34 35
3 3 4 31
3 12 13 35
3 4 5 48
3 11 12 54
3 5 6 48
3 10 11 54
3 6 48 59
3 10 54 55
3 6 7 59
3 9 10 55
3 7 58 59
3 9 55 56
3 8 57 58
3 8 56 57
3 7 8 58
3 8 9 56
3 4 31 48
3 12 35 54
3 31 48 49
3 35 53 54
3 31 49 50
3 35 52 53
3 31 32 50
3 34 35 52
3 32 33 50
3 33 34 52
3 33 50 51
3 33 51 52
3 48 49 60
3 49 60 50
3 50 60 61
3 50 51 61
3 51 52 61
3 61 62 52
3 52 53 62
3 53 54 62
3 54 55 63
3 55 56 63
3 56 63 64
3 56 57 64
3 64 65 57
3 57 58 65
3 58 59 65
3 48 59 65
