ply
format ascii 1.0
element vertex 66
property float x
property float y
property float z
property float u
property float v
element face 91
property list uchar int vertex_indices
end_header
-20.446 -5.71377 21.387 98.962 257.545
-19.747 -0.552513 20.8213 100.834 292.363
-18.7366 4.57754 20.4334 104.766 327.043
-17.384 9.4879 18.3479 111.301 361.384
-15.2903 13.909 13.5352 123.36 394.38
-12.1051 17.6557 8.04275 143.115 423.875
-8.10549 20.6932 3.22089 168.578 448.75
-3.4701 22.8325 -0.933739 198.669 467.662
1.74729 23.1492 -4.55124 233.556 474.54
6.77383 22.2118 -0.997018 266.972 469.097
11.0287 19.6122 3.23972 296.097 451.875
14.5412 16.1912 8.12438 320.669 428.466
17.0952 12.1151 13.7026 339.155 399.831
18.3987 7.41532 18.594 349.775 366.775
18.9575 2.26975 20.7451 356.041 331.87
19.2186 -3.05777 21.2114 360.641 296.524
19.1991 -8.37417 21.8001 363.36 261.034
-17.0231 -14.0914 0.26494 128.903 215.541
-14.7102 -16.1314 -1.49095 145.586 204.254
-11.8003 -17.1027 -2.9424 165.603 200.189
-8.75189 -17.21 -4.276 186.05 201.848
-5.79782 -16.6353 -5.47089 205.479 207.889
3.11312 -17.2931 -5.34087 264.935 208.258
6.00128 -18.3665 -4.10886 284.53 202.038
9.08425 -18.7576 -2.74477 305.026 200.361
12.1687 -18.254 -1.2774 325.027 204.547
14.8266 -16.5833 0.475127 341.522 216.065
-0.889489 -11.2683 -4.92578 235.022 245.722
-0.601048 -7.96824 -7.86347 235.488 269.308
-0.31101 -4.6921 -10.8421 235.983 292.759
-0.0188582 -1.41269 -13.5793 236.46 316.101
-3.50609 1.37063 -6.6967 210.941 328.867
-1.72405 1.86332 -7.41456 222.581 333.476
0.149998 1.96343 -8.03347 235.034 335.484
2.01273 1.5757 -7.41434 247.527 333.582
3.73316 0.808288 -6.68366 259.27 329.032
-12.7547 -9.55282 -0.729184 154.848 248.393
-10.7571 -10.7401 -1.06198 168.793 241.797
-8.41036 -10.8924 -1.38696 184.484 242.229
-6.35232 -9.96395 -1.20585 197.604 249.376
-8.47931 -9.51186 -1.13833 183.237 251.186
-10.6547 -9.30161 -1.08592 168.685 251.378
4.82593 -10.8251 -1.07526 272.212 249.618
6.74147 -12.0881 -1.26683 285.636 242.4
9.10093 -12.2764 -0.908404 301.347 242.226
11.2814 -11.4232 -0.531496 315.295 248.834
9.23276 -10.8484 -0.917464 301.438 251.746
7.02954 -10.708 -0.990155 286.755 251.53
-8.12568 7.60589 -2.56098 176.355 365.355
-5.65034 5.88132 -4.75353 193.996 356.481
-2.67577 4.93225 -6.45269 214.461 352.733
0.425278 4.82225 -8.26415 235.318 354.663
3.48841 4.47703 -6.45265 255.602 353.036
6.57357 4.98446 -4.7208 275.573 357.102
9.29682 6.30184 -2.50545 292.638 366.065
7.40073 9.31858 -3.93397 278.58 385.778
4.53738 11.4952 -5.19671 258.548 399.324
0.94654 12.2526 -6.56568 234.482 403.151
-2.71955 12.0339 -5.18268 210.111 398.979
-5.84651 10.3042 -3.94238 190.164 385.181
-3.56442 6.78707 -5.21611 207.393 363.845
0.531943 6.45109 -7.72303 235.064 365.196
4.6033 6.17246 -5.2658 261.918 364.197
5.02745 8.85165 -4.49775 263.164 381.723
0.74712 9.73167 -6.38833 234.522 386.276
-3.62657 9.49169 -4.43771 205.398 381.271
3 20 21 23
3 21 22 23
3 0 1 36
3 15 16 45
3 0 17 36
3 16 26 45
3 17 18 37
3 25 26 44
3 17 36 37
3 26 44 45
3 18 19 38
3 24 25 43
3 18 37 38
3 25 43 44
3 19 20 38
3 23 24 43
3 20 21 39
3 22 23 42
3 20 38 39
3 23 42 43
3 21 22 27
3 21 27 39
3 22 27 42
3 27 28 42
3 27 28 39
3 28 42 47
3 28 39 40
3 1 36 41
3 15 45 46
3 1 2 41
3 14 15 46
3 28 29 40
3 28 29 47
3 2 40 41
3 14 46 47
3 2 29 40
3 14 29 47
3 2 3 29
3 13 14 29
3 29 30 31
3 29 30 35
3 3 29 31
3 13 29 35
3 30 32 33
3 30 33 34
3 30 31 32
3 30 34 35
3 3 4 31
3 12 13 35
3 4 5 48
3 11 12 54
3 5 6 48
3 10 11 54
3 6 48 59
3 10 54 55
3 6 7 59
3 9 10 55
3 7 58 59
3 9 55 56
3 8 57 58
3 8 56 57
3 7 8 58
3 8 9 56
3 4 31 48
3 12 35 54
3 31 48 49
3 35 53 54
3 31 49 50
3 35 52 53
3 31 32 50
3 34 35 52
3 32 33 50
3 33 34 52
3 33 50 51
3 33 51 52
3 48 49 60
3 49 60 50
3 50 60 61
3 50 51 61
3 51 52 61
3 61 62 52
3 52 53 62
3 53 54 62
3 54 55 63
3 55 56 63
3 56 63 64
3 56 57 64
3 64 65 57
3 57 58 65
3 58 59 65
3 48 59 65
