ply
format ascii 1.0
element vertex 66
property float x
property float y
property float z
property float u
property float v
element face 91
property list uchar int vertex_indices
end_header
-21.9128 -5.03058 21.3222 254.32 206.741
-21.2397 -0.0474079 20.8901 260.125 237.054
-20.1825 4.87987 20.54 268.259 266.842
-18.5827 9.67439 18.3732 279.62 296.88
-16.0788 14.0732 13.3445 296.304 326.163
-12.4948 17.6686 7.94549 319.302 350.457
-8.21679 20.4237 3.45064 346.271 368.801
-3.46021 22.2662 -0.814855 375.855 381.288
1.65694 22.5773 -4.4813 407.132 383.95
6.62653 21.4915 -0.756216 437.195 373.144
10.9823 18.994 3.57277 463.039 353.565
14.785 15.7047 8.13583 485.241 329.206
17.7539 11.6489 13.5922 502.108 299.868
19.5002 6.88587 18.6716 511.258 266.907
20.3602 1.80764 20.8629 514.823 234.3
20.7134 -3.3373 21.2666 515.23 202.679
20.6927 -8.48927 21.7127 513.352 171.112
-17.2662 -13.207 0.12561 279.431 170.001
-15.0543 -15.4298 -1.67395 292.139 156.991
-12.0657 -16.5744 -3.05845 309.969 149.98
-8.84201 -16.7807 -4.351 329.558 148.522
-5.64858 -16.3311 -5.49296 349.189 150.952
3.49277 -17.1411 -5.37524 404.744 142.873
6.60085 -18.0993 -4.20969 423.425 135.214
9.83408 -18.3976 -2.86797 443.099 131.398
12.9742 -17.6975 -1.44238 462.548 133.616
15.4941 -15.802 0.347063 478.626 143.05
-0.867325 -11.5608 -4.86667 380.035 177.865
-0.652288 -8.52528 -7.71308 382.323 198.158
-0.42763 -5.51148 -10.7011 384.659 218.412
-0.200808 -2.51164 -13.5283 387.006 238.47
-3.49226 1.19419 -6.54137 368.327 257.309
-1.76876 1.61557 -7.32957 378.98 259.822
0.0273932 1.71004 -8.11217 389.964 260.323
1.82387 1.35451 -7.29576 400.833 257.003
3.498 0.688698 -6.47472 410.848 251.837
-12.7265 -9.2447 -0.899919 308.488 193.218
-10.8342 -10.6576 -1.18422 319.555 184.198
-8.42693 -10.9177 -1.28422 334.166 181.876
-6.28392 -9.99403 -0.970413 347.577 186.545
-8.3518 -9.2067 -1.0543 335.215 192.079
-10.5772 -8.89524 -1.08728 321.729 194.742
4.99592 -10.9251 -0.874563 416.15 177.024
6.99491 -12.186 -1.14071 427.922 168.878
9.43065 -12.2742 -1.0053 442.77 167.429
11.5233 -11.1565 -0.718022 455.939 173.311
9.44008 -10.4883 -0.928555 443.44 178.213
7.17952 -10.4517 -0.938355 429.647 179.205
-7.07726 8.6583 -2.73771 349.069 301.227
-4.99877 6.88125 -4.86851 361.108 291.193
-2.46579 5.64749 -6.51299 376.12 283.972
0.356465 5.72358 -8.08952 393.347 284.557
3.1487 5.22523 -6.50147 410.265 279.508
5.82751 6.07829 -4.81293 426.955 282.63
8.14619 7.51323 -2.63237 441.655 289.071
6.0368 9.15284 -3.87179 429.305 300.579
3.45807 10.1278 -5.25028 413.858 308.306
0.683882 10.5312 -6.60292 397.023 312.613
-2.09792 10.5552 -5.27578 380.072 312.791
-4.79753 9.98459 -3.93417 363.419 309.324
-2.52769 7.61325 -5.33432 376.44 295.12
0.474655 7.4961 -7.40934 394.69 294.811
3.4564 7.1595 -5.32785 412.832 290.343
3.4801 7.68237 -4.5891 413.172 293.005
0.493186 8.04269 -6.61654 395.008 297.582
-2.51815 8.14033 -4.6131 376.695 297.824
3 20 21 23
3 21 22 23
3 0 1 36
3 15 16 45
3 0 17 36
3 16 26 45
3 17 18 37
3 25 26 44
3 17 36 37
3 26 44 45
3 18 19 38
3 24 25 43
3 18 37 38
3 25 43 44
3 19 20 38
3 23 24 43
3 20 21 39
3 22 23 42
3 20 38 39
3 23 42 43
3 21 22 27
3 21 27 39
3 22 27 42
3 27 28 42
3 27 28 39
3 28 42 47
3 28 39 40
3 1 36 41
3 15 45 46
3 1 2 41
3 14 15 46
3 28 29 40
3 28 29 47
3 2 40 41
3 14 46 47
3 2 29 40
3 14 29 47
3 2 3 29
3 13 14 29
3 29 30 31
3 29 30 35
3 3 29 31
3 13 29 35
3 30 32 33
3 30 33 34
3 30 31 32
3 30 34 35
3 3 4 31
3 12 13 35
3 4 5 48
3 11 12 54
3 5 6 48
3 10 11 54
3 6 48 59
3 10 54 55
3 6 7 59
3 9 10 55
3 7 58 59
3 9 55 56
3 8 57 58
3 8 56 57
3 7 8 58
3 8 9 56
3 4 31 48
3 12 35 54
3 31 48 49
3 35 53 54
3 31 49 50
3 35 52 53
3 31 32 50
3 34 35 52
3 32 33 50
3 33 34 52
3 33 50 51
3 33 51 52
3 48 49 60
3 49 60 50
3 50 60 61
3 50 51 61
3 51 52 61
3 61 62 52
3 52 53 62
3 53 54 62
3 54 55 63
3 55 56 63
3 56 63 64
3 56 57 64
3 64 65 57
3 57 58 65
3 58 59 65
3 48 59 65
