ply
format ascii 1.0
element vertex 66
property float x
property float y
property float z
property float u
property float v
element face 91
property list uchar int vertex_indices
end_header
-20.477 -5.28536 21.3311 59.209 177.326
-19.6896 -0.231462 20.8996 61.6364 201.786
-18.5227 4.76309 20.5392 65.9212 225.969
-17.0578 9.55453 18.4669 71.8801 251.544
-14.9766 13.9002 13.5352 81.2424 278.975
-11.8977 17.6023 8.07889 95.6973 304.334
-7.99661 20.5778 3.43094 114.286 325.419
-3.44832 22.583 -0.824314 136.265 341.597
1.6253 22.8329 -4.43466 161.243 348.823
6.61425 21.9188 -0.782424 185.444 340.94
10.816 19.3444 3.51813 206.225 324.218
14.2254 15.8751 8.21259 223.366 302.581
16.684 11.7769 13.7154 235.981 276.686
18.0411 7.1606 18.6714 243.434 248.813
18.7641 2.17949 20.7568 248.18 222.877
19.1921 -2.96073 21.1459 251.7 198.372
19.2354 -8.10598 21.5914 253.342 173.672
-17.3407 -14.0237 0.184108 79.0173 165.188
-15.1457 -16.2507 -1.56322 90.5105 157.613
-12.1936 -17.3368 -2.96509 105.33 155.117
-9.05299 -17.5001 -4.32471 120.798 156.939
-5.96778 -17.0372 -5.56927 135.807 161.529
3.46867 -17.7012 -5.48447 181.932 160.66
6.42936 -18.6156 -4.19835 196.485 155.407
9.5354 -18.919 -2.80247 211.561 152.909
12.5962 -18.3015 -1.36659 226.148 154.664
15.0895 -16.4553 0.393527 237.589 161.607
-0.817416 -12.1108 -4.86661 159.403 184.978
-0.570344 -9.04158 -7.73824 160.003 203.235
-0.321803 -5.99953 -10.7102 160.628 221.498
-0.0736627 -2.96153 -13.5019 161.234 239.504
-3.11699 1.3186 -6.55217 144.522 249.593
-1.4851 1.63689 -7.365 152.454 252.57
0.206869 1.66558 -8.12048 160.756 254.129
1.87574 1.39787 -7.32422 168.882 252.234
3.43473 0.84925 -6.48712 176.549 248.942
-13.2779 -9.85102 -0.757922 97.6935 187.012
-11.2692 -11.5421 -1.05284 107.986 179.977
-8.61155 -11.7507 -1.25569 121.005 179.932
-6.39989 -10.4163 -1.09281 131.375 186.523
-8.61639 -9.51305 -1.16791 120.332 190.303
-11.0381 -9.21121 -1.04726 108.443 190.954
4.84984 -11.2199 -0.978974 186.366 185.413
6.85015 -12.8678 -1.13506 196.593 178.394
9.51139 -13.0444 -0.91217 209.579 177.936
11.744 -11.6642 -0.599504 220.023 184.548
9.62116 -10.7035 -0.903255 209.442 188.925
7.17992 -10.6488 -1.0421 197.553 188.756
-5.9507 9.55159 -2.7668 128.002 282.46
-4.23338 7.52323 -4.97242 137.157 276.305
-2.06451 5.97965 -6.64503 148.32 271.828
0.480401 5.97038 -8.34227 160.876 274.671
2.99352 5.62982 -6.61188 173.043 271.407
5.33371 6.86407 -4.91212 183.92 275.523
7.29089 8.63577 -2.68354 192.727 281.362
5.51762 10.1378 -3.94922 183.784 289.639
3.28691 11.0376 -5.27193 172.793 295.054
0.830648 11.3598 -6.62083 160.872 297.74
-1.64011 11.3723 -5.30154 148.712 295.433
-3.97845 10.7865 -3.99669 137.369 290.372
-1.98889 8.25536 -5.24396 147.901 280.658
0.611148 7.96499 -7.41126 160.852 282.819
3.20193 7.89739 -5.20317 173.273 280.221
3.16733 8.27683 -4.57592 172.935 281.159
0.635657 8.46529 -6.43415 160.734 283.875
-1.91378 8.62519 -4.60123 148.099 281.558
3 20 21 23
3 21 22 23
3 0 1 36
3 15 16 45
3 0 17 36
3 16 26 45
3 17 18 37
3 25 26 44
3 17 36 37
3 26 44 45
3 18 19 38
3 24 25 43
3 18 37 38
3 25 43 44
3 19 20 38
3 23 24 43
3 20 21 39
3 22 23 42
3 20 38 39
3 23 42 43
3 21 22 27
3 21 27 39
3 22 27 42
3 27 28 42
3 27 28 39
3 28 42 47
3 28 39 40
3 1 36 41
3 15 45 46
3 1 2 41
3 14 15 46
3 28 29 40
3 28 29 47
3 2 40 41
3 14 46 47
3 2 29 40
3 14 29 47
3 2 3 29
3 13 14 29
3 29 30 31
3 29 30 35
3 3 29 31
3 13 29 35
3 30 32 33
3 30 33 34
3 30 31 32
3 30 34 35
3 3 4 31
3 12 13 35
3 4 5 48
3 11 12 54
3 5 6 48
3 10 11 54
3 6 48 59
3 10 54 55
3 6 7 59
3 9 10 55
3 7 58 59
3 9 55 56
3 8 57 58
3 8 56 57
3 7 8 58
3 8 9 56
3 4 31 48
3 12 35 54
3 31 48 49
3 35 53 54
3 31 49 50
3 35 52 53
3 31 32 50
3 34 35 52
3 32 33 50
3 33 34 52
3 33 50 51
3 33 51 52
3 48 49 60
3 49 60 50
3 50 60 61
3 50 51 61
3 51 52 61
3 61 62 52
3 52 53 62
3 53 54 62
3 54 55 63
3 55 56 63
3 56 63 64
3 56 57 64
3 64 65 57
3 57 58 65
3 58 59 65
3 48 59 65
