ply
format ascii 1.0
element vertex 66
property float x
property float y
property float z
property float u
property float v
element face 91
property list uchar int vertex_indices
end_header
-20.6547 -5.64822 21.3079 59.209 177.326
-20.0519 -0.423649 20.8425 61.6364 201.786
-19.1146 4.7667 20.4846 65.9212 225.969
-17.7568 9.73356 18.3869 71.8801 251.544
-15.6469 14.1974 13.4633 81.2424 278.975
-12.4006 17.9009 7.99404 95.6973 304.334
-8.27017 20.7526 3.29433 114.286 325.419
-3.55056 22.6779 -0.880153 136.265 341.597
1.65875 22.9008 -4.53572 161.243 348.823
6.75338 21.9412 -0.807894 185.444 340.94
11.0958 19.3665 3.41769 206.225 324.218
14.7165 15.9593 8.15704 223.366 302.581
17.3322 11.8354 13.6544 235.981 276.686
18.7221 7.12069 18.5937 243.434 248.813
19.3316 2.01325 20.7063 248.18 222.877
19.5157 -3.2566 21.0748 251.7 198.372
19.3623 -8.51341 21.5385 253.342 173.672
-16.9434 -14.0024 0.166523 79.0173 165.188
-14.6923 -16.1532 -1.56921 90.5105 157.613
-11.7473 -17.1684 -2.95979 105.33 155.117
-8.64008 -17.2567 -4.29633 120.798 156.939
-5.61118 -16.6863 -5.52226 135.807 161.529
3.24342 -17.3161 -5.43542 181.932 160.66
6.14406 -18.3113 -4.17859 196.485 155.407
9.21432 -18.6656 -2.80935 211.561 152.909
12.2557 -18.0793 -1.38764 226.148 154.664
14.7675 -16.2699 0.371491 237.589 161.607
-0.800008 -11.6067 -4.9545 159.403 184.978
-0.571382 -8.59445 -7.76035 160.003 203.235
-0.341526 -5.60559 -10.6633 160.628 221.498
-0.111056 -2.62069 -13.4075 161.234 239.504
-3.34691 0.90089 -6.47077 144.522 249.593
-1.6415 1.2941 -7.26957 152.454 252.57
0.142254 1.35258 -8.01839 160.756 254.129
1.89493 1.04463 -7.21848 168.882 252.234
3.5165 0.412997 -6.40175 176.549 248.942
-12.5316 -9.74495 -0.905324 97.6935 187.012
-10.6698 -11.0691 -1.10649 107.986 179.977
-8.3451 -11.2534 -1.2279 121.005 179.932
-6.35058 -10.2247 -0.977391 131.375 186.523
-8.3556 -9.50683 -1.10156 120.332 190.303
-10.5048 -9.27615 -1.09011 108.443 190.954
4.83678 -11.0227 -0.887733 186.366 185.413
6.66716 -12.3254 -1.11779 196.593 178.394
8.99246 -12.4738 -0.968074 209.579 177.936
11.0209 -11.4279 -0.742362 220.023 184.548
9.08377 -10.6753 -0.948989 209.442 188.925
6.92444 -10.5977 -0.987214 197.553 188.756
-6.63855 8.84013 -2.74685 128.002 282.46
-4.73902 6.8457 -4.89305 137.157 276.305
-2.32888 5.4219 -6.54708 148.32 271.828
0.427259 5.35547 -8.22771 160.876 274.671
3.15408 5.03248 -6.48681 173.043 271.407
5.72158 6.09946 -4.80547 183.92 275.523
7.86034 7.80446 -2.63884 192.727 281.362
6.14905 9.90529 -3.93286 183.784 289.639
3.75933 11.3254 -5.28293 172.793 295.054
0.883179 11.8243 -6.67982 160.872 297.74
-2.0422 11.738 -5.34336 148.712 295.433
-4.62825 10.6744 -4.02161 137.369 290.372
-2.38864 7.57584 -5.20395 147.901 280.658
0.55887 7.21472 -7.41824 160.852 282.819
3.50364 7.15671 -5.14457 173.273 280.221
3.65722 8.62822 -4.49552 172.935 281.159
0.689237 9.10764 -6.42523 160.734 283.875
-2.33557 9.05505 -4.5521 148.099 281.558
3 20 21 23
3 21 22 23
3 0 1 36
3 15 16 45
3 0 17 36
3 16 26 45
3 17 18 37
3 25 26 44
3 17 36 37
3 26 44 45
3 18 19 38
3 24 25 43
3 18 37 38
3 25 43 44
3 19 20 38
3 23 24 43
3 20 21 39
3 22 23 42
3 20 38 39
3 23 42 43
3 21 22 27
3 21 27 39
3 22 27 42
3 27 28 42
3 27 28 39
3 28 42 47
3 28 39 40
3 1 36 41
3 15 45 46
3 1 2 41
3 14 15 46
3 28 29 40
3 28 29 47
3 2 40 41
3 14 46 47
3 2 29 40
3 14 29 47
3 2 3 29
3 13 14 29
3 29 30 31
3 29 30 35
3 3 29 31
3 13 29 35
3 30 32 33
3 30 33 34
3 30 31 32
3 30 34 35
3 3 4 31
3 12 13 35
3 4 5 48
3 11 12 54
3 5 6 48
3 10 11 54
3 6 48 59
3 10 54 55
3 6 7 59
3 9 10 55
3 7 58 59
3 9 55 56
3 8 57 58
3 8 56 57
3 7 8 58
3 8 9 56
3 4 31 48
3 12 35 54
3 31 48 49
3 35 53 54
3 31 49 50
3 35 52 53
3 31 32 50
3 34 35 52
3 32 33 50
3 33 34 52
3 33 50 51
3 33 51 52
3 48 49 60
3 49 60 50
3 50 60 61
3 50 51 61
3 51 52 61
3 61 62 52
3 52 53 62
3 53 54 62
3 54 55 63
3 55 56 63
3 56 63 64
3 56 57 64
3 64 65 57
3 57 58 65
3 58 59 65
3 48 59 65
