ply
format ascii 1.0
element vertex 66
property float x
property float y
property float z
property float u
property float v
element face 91
property list uchar int vertex_indices
end_header
-20.1727 -5.06182 21.6328 106.032 197.252
-19.1757 -0.0328148 21.1178 112.518 217.951
-17.8527 4.93912 20.7768 120.369 238.058
-16.3771 9.70016 18.6656 128.762 259.495
-14.4568 13.9709 13.486 138.807 282.654
-11.5713 17.5666 8.02229 152.663 303.019
-7.88494 20.4795 3.43289 169.633 319.154
-3.56558 22.457 -0.780846 188.888 330.737
1.26355 22.6977 -4.59362 209.544 334.525
6.26378 21.8555 -0.6023 230.509 323.902
10.4142 19.1516 3.60103 247.025 305.793
13.6554 15.4821 8.20367 259.239 283.631
15.9829 11.3014 13.667 267.338 258.68
17.3482 6.78144 18.7284 271.183 233.266
18.1786 1.9827 20.794 272.599 210.758
18.7317 -2.96807 21.0385 272.752 190.066
18.8495 -7.92054 21.5223 271.051 169.247
-18.5479 -13.6664 0.461071 108.953 188.495
-16.801 -16.3921 -1.53789 115.166 179.208
-14.0039 -17.8628 -2.93932 126.419 173.823
-10.8907 -18.1429 -4.26773 139.551 173.056
-7.78782 -17.7544 -5.38346 152.938 174.744
5.21363 -18.3636 -5.51269 208.071 166.928
8.02823 -19.0838 -4.29286 219.754 161.254
10.9543 -19.1969 -2.89637 232.185 157.778
13.7541 -18.2584 -1.40749 244.546 158.517
15.7803 -16.0297 0.609103 254.19 164.163
-0.377396 -11.3722 -4.78139 187.367 196.814
-0.140168 -8.42823 -7.9619 189.664 212.742
0.0827283 -5.48419 -10.9249 191.902 228.399
0.292699 -2.52254 -13.4069 194.097 243.521
-2.38267 1.29696 -6.52894 184.453 251.443
-0.899136 1.46011 -7.44127 190.84 252.64
0.602547 1.46584 -8.29486 197.235 253.114
1.97509 1.30568 -7.38651 203.02 250.726
3.29758 0.98171 -6.42681 208.52 247.626
-13.6802 -9.8622 -0.774197 131.381 203.488
-11.7215 -11.561 -1.00577 138.97 196.041
-9.10514 -11.8477 -1.18762 149.99 193.998
-6.92941 -10.5183 -1.04692 159.856 198.308
-9.07674 -9.45265 -1.14894 151.179 203.684
-11.4817 -9.17627 -0.996728 141.055 205.632
5.34338 -11.148 -1.00198 211.876 190.495
7.28183 -12.6778 -1.12787 219.454 183.61
9.86691 -12.7665 -0.967777 230.432 181.952
11.9735 -11.3152 -0.756002 240.058 186.697
9.92758 -10.3599 -0.964347 231.763 191.715
7.55414 -10.3598 -1.10295 221.647 192.896
-5.0065 9.4083 -2.80401 176.916 280.821
-3.47633 7.48416 -5.20275 182.56 275.396
-1.61468 5.94461 -6.84126 189.794 270.429
0.590795 6.0744 -8.56906 199.237 272.222
2.71713 5.75049 -6.75277 208.168 267.693
4.65305 7.11536 -5.08263 217.04 270.302
6.2281 8.94596 -2.68197 224.587 274.03
4.77922 10.2933 -3.83321 219.004 281.591
2.89869 11.0704 -5.26545 211.325 287.372
0.815497 11.3181 -6.90182 202.545 291.344
-1.30629 11.2126 -5.35516 193.468 289.844
-3.29561 10.5885 -3.90829 184.724 286.305
-1.30144 8.24364 -5.38647 192.165 277.8
0.696634 8.09349 -7.39025 200.597 278.894
2.63143 8.11942 -5.17808 208.872 275.365
2.57127 8.27821 -4.42163 208.692 275.074
0.708559 8.36676 -6.15236 200.78 278.425
-1.2188 8.40323 -4.58289 192.595 277.392
3 20 21 23
3 21 22 23
3 0 1 36
3 15 16 45
3 0 17 36
3 16 26 45
3 17 18 37
3 25 26 44
3 17 36 37
3 26 44 45
3 18 19 38
3 24 25 43
3 18 37 38
3 25 43 44
3 19 20 38
3 23 24 43
3 20 21 39
3 22 23 42
3 20 38 39
3 23 42 43
3 21 22 27
3 21 27 39
3 22 27 42
3 27 28 42
3 27 28 39
3 28 42 47
3 28 39 40
3 1 36 41
3 15 45 46
3 1 2 41
3 14 15 46
3 28 29 40
3 28 29 47
3 2 40 41
3 14 46 47
3 2 29 40
3 14 29 47
3 2 3 29
3 13 14 29
3 29 30 31
3 29 30 35
3 3 29 31
3 13 29 35
3 30 32 33
3 30 33 34
3 30 31 32
3 30 34 35
3 3 4 31
3 12 13 35
3 4 5 48
3 11 12 54
3 5 6 48
3 10 11 54
3 6 48 59
3 10 54 55
3 6 7 59
3 9 10 55
3 7 58 59
3 9 55 56
3 8 57 58
3 8 56 57
3 7 8 58
3 8 9 56
3 4 31 48
3 12 35 54
3 31 48 49
3 35 53 54
3 31 49 50
3 35 52 53
3 31 32 50
3 34 35 52
3 32 33 50
3 33 34 52
3 33 50 51
3 33 51 52
3 48 49 60
3 49 60 50
3 50 60 61
3 50 51 61
3 51 52 61
3 61 62 52
3 52 53 62
3 53 54 62
3 54 55 63
3 55 56 63
3 56 63 64
3 56 57 64
3 64 65 57
3 57 58 65
3 58 59 65
3 48 59 65
