ply
format ascii 1.0
element vertex 66
property float x
property float y
property float z
property float u
property float v
element face 91
property list uchar int vertex_indices
end_header
-20.7882 -4.95151 21.4614 52.5151 179.044
-19.8026 0.00156894 20.9574 56.2709 203.111
-18.4732 4.88792 20.5417 61.6935 226.856
-16.944 9.58179 18.4551 68.0972 251.126
-14.7873 13.7948 13.4815 77.582 275.657
-11.6297 17.3437 8.06774 92.006 297.606
-7.74668 20.2298 3.42457 110.057 315.916
-3.26927 22.2024 -0.966437 131.148 329.806
1.72698 22.4053 -4.40629 155.094 334.624
6.55403 21.4709 -0.966118 178.525 328.271
10.5901 18.8987 3.50001 198.487 313.149
13.9205 15.5336 8.2062 215.214 293.935
16.4271 11.6155 13.6785 228.098 271.299
17.8698 7.17945 18.6432 235.964 246.427
18.6789 2.35802 20.7885 240.829 221.963
19.2962 -2.63045 21.2254 244.787 198.098
19.5728 -7.63798 21.7409 247.111 174.011
-18.0486 -14.485 0.280217 67.3426 152.15
-15.3969 -16.5473 -1.43108 80.4816 144.336
-12.0935 -17.3341 -2.88871 96.5045 142.478
-8.71373 -17.223 -4.28103 112.718 144.831
-5.44939 -16.4696 -5.52182 128.251 150.077
3.04689 -17.0405 -5.45146 169.216 148.982
6.12923 -18.2783 -4.15553 184.295 142.643
9.42219 -18.9034 -2.7103 200.267 139.121
12.7841 -18.6609 -1.21314 216.4 139.677
15.7151 -17.0713 0.491061 230.197 146.354
-0.801293 -11.4963 -4.86683 149.625 173.99
-0.553417 -8.1108 -7.80414 150.118 192.524
-0.303135 -4.76047 -10.877 150.627 211.006
-0.0504541 -1.41159 -13.7078 151.15 229.28
-3.32889 1.85163 -6.67649 134.818 238.209
-1.62201 2.35712 -7.50626 142.916 241.631
0.183841 2.45938 -8.23231 151.571 243.077
1.9688 2.10276 -7.48916 160.232 241.117
3.59492 1.3585 -6.61607 168.207 237.182
-13.6275 -10.1412 -0.584488 87.7334 174.308
-11.5383 -11.7564 -0.940194 98.0934 167.368
-8.87609 -11.9037 -1.23791 110.92 167.442
-6.68188 -10.4752 -1.14881 121.189 174.562
-8.97426 -9.83417 -1.10241 110.041 177.108
-11.3812 -9.6 -0.990333 98.4226 177.651
5.24242 -11.3469 -1.09378 178.696 172.729
7.21445 -13.0732 -1.11597 188.518 164.96
9.86882 -13.2981 -0.771502 201.329 164.129
12.1633 -11.9947 -0.380703 212.108 170.424
10.0176 -11.1412 -0.838006 201.617 174.426
7.60189 -11.0258 -1.00379 189.978 174.637
-7.05986 8.93511 -2.76364 115.522 267.745
-4.82901 7.26781 -4.96909 126.554 262.132
-2.26507 6.15159 -6.61821 139.085 258.729
0.466154 6.1746 -8.39182 152.193 260.857
3.15527 5.76798 -6.58165 165.223 257.946
5.83678 6.5144 -4.90415 177.986 260.604
8.27042 7.84995 -2.70934 189.448 265.57
6.24084 9.68879 -3.96904 179.313 274.932
3.64482 10.8012 -5.11452 166.599 280.647
0.829615 11.2059 -6.38015 152.969 283.069
-2.02841 11.2087 -5.13592 139.24 281.481
-4.77437 10.4738 -4.01743 126.194 276.527
-2.47978 8.14885 -5.44002 137.671 267.159
0.593414 7.96237 -7.70128 152.46 268.769
3.64763 7.70686 -5.43118 167.22 266.261
3.69447 8.13892 -4.65785 167.368 267.669
0.622167 8.3929 -6.52041 152.526 269.826
-2.46852 8.58067 -4.66155 137.648 268.555
3 20 21 23
3 21 22 23
3 0 1 36
3 15 16 45
3 0 17 36
3 16 26 45
3 17 18 37
3 25 26 44
3 17 36 37
3 26 44 45
3 18 19 38
3 24 25 43
3 18 37 38
3 25 43 44
3 19 20 38
3 23 24 43
3 20 21 39
3 22 23 42
3 20 38 39
3 23 42 43
3 21 22 27
3 21 27 39
3 22 27 42
3 27 28 42
3 27 28 39
3 28 42 47
3 28 39 40
3 1 36 41
3 15 45 46
3 1 2 41
3 14 15 46
3 28 29 40
3 28 29 47
3 2 40 41
3 14 46 47
3 2 29 40
3 14 29 47
3 2 3 29
3 13 14 29
3 29 30 31
3 29 30 35
3 3 29 31
3 13 29 35
3 30 32 33
3 30 33 34
3 30 31 32
3 30 34 35
3 3 4 31
3 12 13 35
3 4 5 48
3 11 12 54
3 5 6 48
3 10 11 54
3 6 48 59
3 10 54 55
3 6 7 59
3 9 10 55
3 7 58 59
3 9 55 56
3 8 57 58
3 8 56 57
3 7 8 58
3 8 9 56
3 4 31 48
3 12 35 54
3 31 48 49
3 35 53 54
3 31 49 50
3 35 52 53
3 31 32 50
3 34 35 52
3 32 33 50
3 33 34 52
3 33 50 51
3 33 51 52
3 48 49 60
3 49 60 50
3 50 60 61
3 50 51 61
3 51 52 61
3 61 62 52
3 52 53 62
3 53 54 62
3 54 55 63
3 55 56 63
3 56 63 64
3 56 57 64
3 64 65 57
3 57 58 65
3 58 59 65
3 48 59 65
