ply
format ascii 1.0
element vertex 66
property float x
property float y
property float z
property float u
property float v
element face 91
property list uchar int vertex_indices
end_header
-20.6026 -4.99346 21.5276 195.401 283.925
-19.7929 0.00179913 20.9802 198.007 313.293
-18.6629 4.95948 20.6786 202.542 342.497
-17.308 9.68799 18.4775 207.991 371.054
-15.2756 13.8959 13.5437 216.876 397.72
-12.0879 17.3256 8.01316 232.596 420.536
-8.03294 19.9226 3.34331 253.871 438.62
-3.41567 21.593 -0.880047 278.87 451.436
1.60196 21.6709 -4.44062 306.969 455.003
6.52931 20.9115 -0.829753 336.669 451.474
10.8208 18.6346 3.4532 363.449 438.711
14.3926 15.4903 8.1793 386.513 420.508
16.9368 11.6266 13.7649 404.13 397.467
18.2369 7.16402 18.6807 414.615 370.673
18.8597 2.29529 20.911 420.667 342.09
19.2665 -2.76838 21.2134 425.062 312.89
19.3497 -7.82055 21.7695 427.644 283.549
-17.8778 -14.6365 0.366521 209.602 235.828
-15.5405 -16.8634 -1.40221 223.542 224.442
-12.4889 -17.9125 -2.8492 241.237 220.05
-9.27723 -18.0177 -4.18437 259.52 221.145
-6.15507 -17.4316 -5.40231 277.046 226.163
3.55976 -18.0135 -5.36648 333.471 226.689
6.56146 -19.0422 -4.0954 351.551 221.554
9.74903 -19.3994 -2.71335 370.473 220.342
12.916 -18.8117 -1.23003 388.935 224.551
15.5512 -16.9636 0.536551 403.902 235.745
-0.787853 -11.6624 -4.83011 305.993 261.488
-0.517587 -8.10178 -7.79456 305.43 283.096
-0.249389 -4.57421 -10.8883 304.836 304.551
0.0196062 -1.04608 -13.7415 304.307 325.936
-3.36821 1.99421 -6.68858 285.299 339.967
-1.61065 2.46859 -7.52957 295.07 343.675
0.237522 2.55905 -8.2459 305.545 345.161
2.05706 2.21518 -7.50092 316.389 343.673
3.72958 1.50012 -6.61678 326.563 339.938
-13.563 -9.70293 -0.575193 232.407 266.369
-11.5346 -11.4388 -0.968467 244.715 257.271
-8.8571 -11.5527 -1.32319 260.157 257.798
-6.69877 -9.9696 -1.15593 272.068 267.763
-8.93814 -9.15575 -1.18347 258.792 271.577
-11.3445 -8.94738 -1.04943 244.826 271.774
5.30833 -10.7826 -1.11718 341.842 267.872
7.22963 -12.6363 -1.22616 353.648 257.962
9.8889 -12.8766 -0.833465 369.221 257.52
12.1261 -11.4349 -0.410162 381.707 266.621
10.0367 -10.3957 -0.927245 369.088 271.948
7.63091 -10.273 -1.10691 355.081 271.747
-7.07203 8.84732 -2.7864 262.193 376.885
-4.6792 7.36796 -4.99283 276.054 369.977
-2.12362 6.36909 -6.66849 290.804 365.748
0.499422 6.42795 -8.46592 305.502 367.698
3.07749 6.02405 -6.61764 321.034 365.826
5.73006 6.67496 -4.9127 336.551 370.126
8.28697 7.81477 -2.71126 351.449 377.06
6.21411 9.58374 -3.97235 338.457 386.843
3.58577 10.6187 -5.18347 322.549 392.145
0.802996 10.952 -6.50113 305.994 393.362
-2.01416 10.9955 -5.23215 290 392.09
-4.76685 10.3201 -4.0452 274.639 386.713
-2.15459 8.35393 -5.41338 290.169 376.82
0.618802 8.25451 -7.70538 305.674 378.068
3.3665 7.98126 -5.38102 322.256 376.873
3.42672 8.07519 -4.63057 322.755 377.208
0.607837 8.19642 -6.453 305.947 377.341
-2.20979 8.45126 -4.65932 290 377.127
3 20 21 23
3 21 22 23
3 0 1 36
3 15 16 45
3 0 17 36
3 16 26 45
3 17 18 37
3 25 26 44
3 17 36 37
3 26 44 45
3 18 19 38
3 24 25 43
3 18 37 38
3 25 43 44
3 19 20 38
3 23 24 43
3 20 21 39
3 22 23 42
3 20 38 39
3 23 42 43
3 21 22 27
3 21 27 39
3 22 27 42
3 27 28 42
3 27 28 39
3 28 42 47
3 28 39 40
3 1 36 41
3 15 45 46
3 1 2 41
3 14 15 46
3 28 29 40
3 28 29 47
3 2 40 41
3 14 46 47
3 2 29 40
3 14 29 47
3 2 3 29
3 13 14 29
3 29 30 31
3 29 30 35
3 3 29 31
3 13 29 35
3 30 32 33
3 30 33 34
3 30 31 32
3 30 34 35
3 3 4 31
3 12 13 35
3 4 5 48
3 11 12 54
3 5 6 48
3 10 11 54
3 6 48 59
3 10 54 55
3 6 7 59
3 9 10 55
3 7 58 59
3 9 55 56
3 8 57 58
3 8 56 57
3 7 8 58
3 8 9 56
3 4 31 48
3 12 35 54
3 31 48 49
3 35 53 54
3 31 49 50
3 35 52 53
3 31 32 50
3 34 35 52
3 32 33 50
3 33 34 52
3 33 50 51
3 33 51 52
3 48 49 60
3 49 60 50
3 50 60 61
3 50 51 61
3 51 52 61
3 61 62 52
3 52 53 62
3 53 54 62
3 54 55 63
3 55 56 63
3 56 63 64
3 56 57 64
3 64 65 57
3 57 58 65
3 58 59 65
3 48 59 65
