ply
format ascii 1.0
element vertex 66
property float x
property float y
property float z
property float u
property float v
element face 91
property list uchar int vertex_indices
end_header
-20.6547 -5.64822 21.3079 195.401 283.925
-20.0519 -0.423649 20.8425 198.007 313.293
-19.1146 4.7667 20.4846 202.542 342.497
-17.7568 9.73356 18.3869 207.991 371.054
-15.6469 14.1974 13.4633 216.876 397.72
-12.4006 17.9009 7.99404 232.596 420.536
-8.27017 20.7526 3.29433 253.871 438.62
-3.55056 22.6779 -0.880153 278.87 451.436
1.65875 22.9008 -4.53572 306.969 455.003
6.75338 21.9412 -0.807894 336.669 451.474
11.0958 19.3665 3.41769 363.449 438.711
14.7165 15.9593 8.15704 386.513 420.508
17.3322 11.8354 13.6544 404.13 397.467
18.7221 7.12069 18.5937 414.615 370.673
19.3316 2.01325 20.7063 420.667 342.09
19.5157 -3.2566 21.0748 425.062 312.89
19.3623 -8.51341 21.5385 427.644 283.549
-16.9434 -14.0024 0.166523 209.602 235.828
-14.6923 -16.1532 -1.56921 223.542 224.442
-11.7473 -17.1684 -2.95979 241.237 220.05
-8.64008 -17.2567 -4.29633 259.52 221.145
-5.61118 -16.6863 -5.52226 277.046 226.163
3.24342 -17.3161 -5.43542 333.471 226.689
6.14406 -18.3113 -4.17859 351.551 221.554
9.21432 -18.6656 -2.80935 370.473 220.342
12.2557 -18.0793 -1.38764 388.935 224.551
14.7675 -16.2699 0.371491 403.902 235.745
-0.800008 -11.6067 -4.9545 305.993 261.488
-0.571382 -8.59445 -7.76035 305.43 283.096
-0.341526 -5.60559 -10.6633 304.836 304.551
-0.111056 -2.62069 -13.4075 304.307 325.936
-3.34691 0.90089 -6.47077 285.299 339.967
-1.6415 1.2941 -7.26957 295.07 343.675
0.142254 1.35258 -8.01839 305.545 345.161
1.89493 1.04463 -7.21848 316.389 343.673
3.5165 0.412997 -6.40175 326.563 339.938
-12.5316 -9.74495 -0.905324 232.407 266.369
-10.6698 -11.0691 -1.10649 244.715 257.271
-8.3451 -11.2534 -1.2279 260.157 257.798
-6.35058 -10.2247 -0.977391 272.068 267.763
-8.3556 -9.50683 -1.10156 258.792 271.577
-10.5048 -9.27615 -1.09011 244.826 271.774
4.83678 -11.0227 -0.887733 341.842 267.872
6.66716 -12.3254 -1.11779 353.648 257.962
8.99246 -12.4738 -0.968074 369.221 257.52
11.0209 -11.4279 -0.742362 381.707 266.621
9.08377 -10.6753 -0.948989 369.088 271.948
6.92444 -10.5977 -0.987214 355.081 271.747
-6.63855 8.84013 -2.74685 262.193 376.885
-4.73902 6.8457 -4.89305 276.054 369.977
-2.32888 5.4219 -6.54708 290.804 365.748
0.427259 5.35547 -8.22771 305.502 367.698
3.15408 5.03248 -6.48681 321.034 365.826
5.72158 6.09946 -4.80547 336.551 370.126
7.86034 7.80446 -2.63884 351.449 377.06
6.14905 9.90529 -3.93286 338.457 386.843
3.75933 11.3254 -5.28293 322.549 392.145
0.883179 11.8243 -6.67982 305.994 393.362
-2.0422 11.738 -5.34336 290 392.09
-4.62825 10.6744 -4.02161 274.639 386.713
-2.38864 7.57584 -5.20395 290.169 376.82
0.55887 7.21472 -7.41824 305.674 378.068
3.50364 7.15671 -5.14457 322.256 376.873
3.65722 8.62822 -4.49552 322.755 377.208
0.689237 9.10764 -6.42523 305.947 377.341
-2.33557 9.05505 -4.5521 290 377.127
3 20 21 23
3 21 22 23
3 0 1 36
3 15 16 45
3 0 17 36
3 16 26 45
3 17 18 37
3 25 26 44
3 17 36 37
3 26 44 45
3 18 19 38
3 24 25 43
3 18 37 38
3 25 43 44
3 19 20 38
3 23 24 43
3 20 21 39
3 22 23 42
3 20 38 39
3 23 42 43
3 21 22 27
3 21 27 39
3 22 27 42
3 27 28 42
3 27 28 39
3 28 42 47
3 28 39 40
3 1 36 41
3 15 45 46
3 1 2 41
3 14 15 46
3 28 29 40
3 28 29 47
3 2 40 41
3 14 46 47
3 2 29 40
3 14 29 47
3 2 3 29
3 13 14 29
3 29 30 31
3 29 30 35
3 3 29 31
3 13 29 35
3 30 32 33
3 30 33 34
3 30 31 32
3 30 34 35
3 3 4 31
3 12 13 35
3 4 5 48
3 11 12 54
3 5 6 48
3 10 11 54
3 6 48 59
3 10 54 55
3 6 7 59
3 9 10 55
3 7 58 59
3 9 55 56
3 8 57 58
3 8 56 57
3 7 8 58
3 8 9 56
3 4 31 48
3 12 35 54
3 31 48 49
3 35 53 54
3 31 49 50
3 35 52 53
3 31 32 50
3 34 35 52
3 32 33 50
3 33 34 52
3 33 50 51
3 33 51 52
3 48 49 60
3 49 60 50
3 50 60 61
3 50 51 61
3 51 52 61
3 61 62 52
3 52 53 62
3 53 54 62
3 54 55 63
3 55 56 63
3 56 63 64
3 56 57 64
3 64 65 57
3 57 58 65
3 58 59 65
3 48 59 65
