ply
format ascii 1.0
element vertex 66
property float x
property float y
property float z
property float u
property float v
element face 91
property list uchar int vertex_indices
end_header
52.5151 179.044 0 52.5151 179.044
56.2709 203.111 0 56.2709 203.111
61.6935 226.856 0 61.6935 226.856
68.0972 251.126 0 68.0972 251.126
77.582 275.657 0 77.582 275.657
92.006 297.606 0 92.006 297.606
110.057 315.916 0 110.057 315.916
131.148 329.806 0 131.148 329.806
155.094 334.624 0 155.094 334.624
178.525 328.271 0 178.525 328.271
198.487 313.149 0 198.487 313.149
215.214 293.935 0 215.214 293.935
228.098 271.299 0 228.098 271.299
235.964 246.427 0 235.964 246.427
240.829 221.963 0 240.829 221.963
244.787 198.098 0 244.787 198.098
247.111 174.011 0 247.111 174.011
67.3426 152.15 0 67.3426 152.15
80.4816 144.336 0 80.4816 144.336
96.5045 142.478 0 96.5045 142.478
112.718 144.831 0 112.718 144.831
128.251 150.077 0 128.251 150.077
169.216 148.982 0 169.216 148.982
184.295 142.643 0 184.295 142.643
200.267 139.121 0 200.267 139.121
216.4 139.677 0 216.4 139.677
230.197 146.354 0 230.197 146.354
149.625 173.99 0 149.625 173.99
150.118 192.524 0 150.118 192.524
150.627 211.006 0 150.627 211.006
151.15 229.28 0 151.15 229.28
134.818 238.209 0 134.818 238.209
142.916 241.631 0 142.916 241.631
151.571 243.077 0 151.571 243.077
160.232 241.117 0 160.232 241.117
168.207 237.182 0 168.207 237.182
87.7334 174.308 0 87.7334 174.308
98.0934 167.368 0 98.0934 167.368
110.92 167.442 0 110.92 167.442
121.189 174.562 0 121.189 174.562
110.041 177.108 0 110.041 177.108
98.4226 177.651 0 98.4226 177.651
178.696 172.729 0 178.696 172.729
188.518 164.96 0 188.518 164.96
201.329 164.129 0 201.329 164.129
212.108 170.424 0 212.108 170.424
201.617 174.426 0 201.617 174.426
189.978 174.637 0 189.978 174.637
115.522 267.745 0 115.522 267.745
126.554 262.132 0 126.554 262.132
139.085 258.729 0 139.085 258.729
152.193 260.857 0 152.193 260.857
165.223 257.946 0 165.223 257.946
177.986 260.604 0 177.986 260.604
189.448 265.57 0 189.448 265.57
179.313 274.932 0 179.313 274.932
166.599 280.647 0 166.599 280.647
152.969 283.069 0 152.969 283.069
139.24 281.481 0 139.24 281.481
126.194 276.527 0 126.194 276.527
137.671 267.159 0 137.671 267.159
152.46 268.769 0 152.46 268.769
167.22 266.261 0 167.22 266.261
167.368 267.669 0 167.368 267.669
152.526 269.826 0 152.526 269.826
137.648 268.555 0 137.648 268.555
3 20 21 23
3 21 22 23
3 0 1 36
3 15 16 45
3 0 17 36
3 16 26 45
3 17 18 37
3 25 26 44
3 17 36 37
3 26 44 45
3 18 19 38
3 24 25 43
3 18 37 38
3 25 43 44
3 19 20 38
3 23 24 43
3 20 21 39
3 22 23 42
3 20 38 39
3 23 42 43
3 21 22 27
3 21 27 39
3 22 27 42
3 27 28 42
3 27 28 39
3 28 42 47
3 28 39 40
3 1 36 41
3 15 45 46
3 1 2 41
3 14 15 46
3 28 29 40
3 28 29 47
3 2 40 41
3 14 46 47
3 2 29 40
3 14 29 47
3 2 3 29
3 13 14 29
3 29 30 31
3 29 30 35
3 3 29 31
3 13 29 35
3 30 32 33
3 30 33 34
3 30 31 32
3 30 34 35
3 3 4 31
3 12 13 35
3 4 5 48
3 11 12 54
3 5 6 48
3 10 11 54
3 6 48 59
3 10 54 55
3 6 7 59
3 9 10 55
3 7 58 59
3 9 55 56
3 8 57 58
3 8 56 57
3 7 8 58
3 8 9 56
3 4 31 48
3 12 35 54
3 31 48 49
3 35 53 54
3 31 49 50
3 35 52 53
3 31 32 50
3 34 35 52
3 32 33 50
3 33 34 52
3 33 50 51
3 33 51 52
3 48 49 60
3 49 60 50
3 50 60 61
3 50 51 61
3 51 52 61
3 61 62 52
3 52 53 62
3 53 54 62
3 54 55 63
3 55 56 63
3 56 63 64
3 56 57 64
3 64 65 57
3 57 58 65
3 58 59 65
3 48 59 65
